0
SECTION
2
HEADER
9
$INSUNITS
70
4
9
$ACADVER
1
AC1014
9
$HANDSEED
5
FFFF
0
ENDSEC
0
SECTION
2
TABLES
0
TABLE
2
VPORT
5
8
100
AcDbSymbolTable
0
ENDTAB
0
TABLE
2
LTYPE
5
5
100
AcDbSymbolTable
0
LTYPE
5
14
100
AcDbSymbolTableRecord
100
AcDbLinetypeTableRecord
2
BYBLOCK
70
0
0
LTYPE
5
15
100
AcDbSymbolTableRecord
100
AcDbLinetypeTableRecord
2
BYLAYER
70
0
0
ENDTAB
0
TABLE
2
LAYER
5
2
100
AcDbSymbolTable
70
2
0
LAYER
5
50
100
AcDbSymbolTableRecord
100
AcDbLayerTableRecord
2
0
70
0
6
CONTINUOUS
0
ENDTAB
0
TABLE
2
STYLE
5
3
100
AcDbSymbolTable
70
1
0
STYLE
5
11
100
AcDbSymbolTableRecord
100
AcDbTextStyleTableRecord
2
STANDARD
70
0
0
ENDTAB
0
TABLE
2
VIEW
5
6
100
AcDbSymbolTable
70
0
0
ENDTAB
0
TABLE
2
UCS
5
7
100
AcDbSymbolTable
70
0
0
ENDTAB
0
TABLE
2
APPID
5
9
100
AcDbSymbolTable
70
2
0
APPID
5
12
100
AcDbSymbolTableRecord
100
AcDbRegAppTableRecord
2
ACAD
70
0
0
ENDTAB
0
TABLE
2
DIMSTYLE
5
A
100
AcDbSymbolTable
70
1
0
ENDTAB
0
TABLE
2
BLOCK_RECORD
5
1
100
AcDbSymbolTable
70
1
0
BLOCK_RECORD
5
1F
100
AcDbSymbolTableRecord
100
AcDbBlockTableRecord
2
*MODEL_SPACE
0
BLOCK_RECORD
5
1B
100
AcDbSymbolTableRecord
100
AcDbBlockTableRecord
2
*PAPER_SPACE
0
ENDTAB
0
ENDSEC
0
SECTION
2
BLOCKS
0
BLOCK
5
20
100
AcDbEntity
100
AcDbBlockBegin
2
*MODEL_SPACE
0
ENDBLK
5
21
100
AcDbEntity
100
AcDbBlockEnd
0
BLOCK
5
1C
100
AcDbEntity
100
AcDbBlockBegin
2
*PAPER_SPACE
0
ENDBLK
5
1D
100
AcDbEntity
100
AcDbBlockEnd
0
ENDSEC
0
SECTION
2
ENTITIES
0
LWPOLYLINE
5
100
100
AcDbEntity
8
0
100
AcDbPolyline
90
8
70
1
43
0.0
10
70.159015169416875
20
26.685028078853339
42
0.41421356237309509
10
66.159015169416875
20
22.685028078853339
10
66.159015169416875
20
10.561033765882318
42
0.41421356237309492
10
70.159015169416875
20
6.5610337658823177
10
74.277776666935097
20
6.5610337658823195
42
0.41421356237309509
10
78.277776666935097
20
10.561033765882319
10
78.277776666935097
20
22.685028078853335
42
0.41421356237309509
10
74.277776666935097
20
26.685028078853335
0
LWPOLYLINE
5
101
100
AcDbEntity
8
0
100
AcDbPolyline
90
8
70
1
43
0.0
10
-70.159233842927321
20
6.5610337658823177
42
0.41421356237309509
10
-66.159233842927321
20
10.561033765882319
10
-66.159233842927321
20
22.685028078853335
42
0.41421356237309509
10
-70.159233842927321
20
26.685028078853335
10
-74.277995340445543
20
26.685028078853339
42
0.41421356237309509
10
-78.277995340445557
20
22.685028078853339
10
-78.277995340445557
20
10.561033765882318
42
0.41421356237309492
10
-74.277995340445543
20
6.5610337658823177
0
LWPOLYLINE
5
102
100
AcDbEntity
8
0
100
AcDbPolyline
90
5
70
1
43
0.0
10
0.70359946537035234
20
-42.600258470385732
10
0.70359946537034757
20
-43.50025847038652
10
3.2726906632447772
20
-43.50025847038652
10
3.2726906632447732
20
-42.00025847038652
0
LWPOLYLINE
5
103
100
AcDbEntity
8
0
100
AcDbPolyline
90
12
70
1
43
0.0
10
-28.450109336778549
20
-14.259796114248713
10
-26.750109336756559
20
-14.259796114248713
10
-26.750109336777214
20
23.499741529619325
42
-0.41421356237098855
10
-23.000109336777488
20
27.249741529592644
10
22.999890663229206
20
27.249741529614298
42
-0.41421356237431078
10
26.749890663244777
20
23.499741529614294
10
26.749890663244777
20
-14.259796114248715
10
28.449890663244773
20
-14.259796114248713
10
28.449890663244773
20
23.499741529614298
42
0.41421356237431056
10
22.99989066322215
20
28.949741529614297
10
-23.000109336777758
20
28.949741529592647
42
0.41421356237098139
10
-28.45010933677721
20
23.499741529631414
0
LWPOLYLINE
5
104
100
AcDbEntity
8
0
100
AcDbPolyline
90
12
70
1
43
0.0
10
-28.450109336755226
20
-22.500258470402564
42
0.41421356237265899
10
-23.00010933677045
20
-27.950258470379246
10
22.999890663245427
20
-27.950258470385702
42
0.41421356237305973
10
28.44989066324478
20
-22.500258470385695
10
28.449890663244773
20
-19.848240600922978
10
26.749890663244777
20
-19.848240600922978
10
26.749890663244777
20
-22.500258470385688
42
-0.41421356237306933
10
22.999890663245104
20
-26.250258470385699
10
-23.000109336770453
20
-26.250258470379244
42
-0.41421356237252444
10
-26.750109336755223
20
-22.500258470401754
10
-26.750109336753884
20
-19.848240600922978
10
-28.450109336775874
20
-19.848240600922978
0
LINE
5
105
100
AcDbEntity
8
0
100
AcDbLine
10
83.499890663243804
20
44.499741529613488
30
0
11
-83.500109336645664
21
44.499741529613488
31
0
0
ARC
5
106
100
AcDbEntity
8
0
100
AcDbCircle
10
-83.500109336645664
20
40.499741529503204
30
0
40
4.0000000001102798
210
0
220
-0
230
1
100
AcDbArc
50
90
51
180
0
LINE
5
107
100
AcDbEntity
8
0
100
AcDbLine
10
-87.500109336755955
20
40.499741529503204
30
0
11
-87.500109336755969
21
-39.500258470385425
31
0
0
ARC
5
108
100
AcDbEntity
8
0
100
AcDbCircle
10
-83.500109336754889
20
-39.500258470385432
30
0
40
4.0000000000010871
210
0
220
0
230
1
100
AcDbArc
50
180
51
270
0
LINE
5
109
100
AcDbEntity
8
0
100
AcDbLine
10
-83.500109336754889
20
-43.500258470386512
30
0
11
-8.5982181388807533
21
-43.50025847038652
31
0
0
LINE
5
110
100
AcDbEntity
8
0
100
AcDbLine
10
-8.5982181388807533
20
-43.50025847038652
30
0
11
-8.598218138880755
21
-42.600258470385725
31
0
0
SPLINE
5
111
100
AcDbEntity
8
0
100
AcDbSpline
70
4
71
2
72
6
73
3
74
0
42
0.000000001
43
0.0000000001
44
0.0000000001
40
0
40
0
40
0
40
0.086301285568135211
40
0.086301285568135211
40
0.086301285568135211
41
1
41
1.015184059981894
41
1
10
-8.5982181388807604
20
-42.600258470385725
30
0
10
-8.8566807836935943
20
-42.353700821396849
30
0
10
-9.2185284864319126
20
-42.000258470385731
30
0
0
LINE
5
112
100
AcDbEntity
8
0
100
AcDbLine
10
-9.2185284864319144
20
-42.000258470385738
30
0
11
-9.9324609449783363
21
-42.000258470385731
31
0
0
LINE
5
113
100
AcDbEntity
8
0
100
AcDbLine
10
-9.9324609449783363
20
-42.000258470385731
30
0
11
-9.9324609449783363
21
-41.751490620642862
31
0
0
ARC
5
114
100
AcDbEntity
8
0
100
AcDbCircle
10
-10.687401751643879
20
-41.755211482836529
30
0
40
0.75494997608072323
210
0
220
-0
230
1
100
AcDbArc
50
0.28239031686834387
51
90
0
LINE
5
115
100
AcDbEntity
8
0
100
AcDbLine
10
-10.687401751643879
20
-41.000258470385731
30
0
11
-83.500109336754917
21
-41.00025847038652
31
0
0
ARC
5
116
100
AcDbEntity
8
0
100
AcDbCircle
10
83.500109336754889
20
-39.500258470385432
30
0
40
1.5000000000010916
210
-0
220
0
230
-1
100
AcDbArc
50
-89.999999999998934
51
0
0
LINE
5
117
100
AcDbEntity
8
0
100
AcDbLine
10
-85.000109336755969
20
-39.500258470385432
30
0
11
-85.000109336755941
21
40.499741529503183
31
0
0
ARC
5
118
100
AcDbEntity
8
0
100
AcDbCircle
10
83.500109336645664
20
40.499741529503204
30
0
40
1.500000000110262
210
-0
220
0
230
-1
100
AcDbArc
50
0
51
90
0
LINE
5
119
100
AcDbEntity
8
0
100
AcDbLine
10
-83.500109336645664
20
41.999741529613473
30
0
11
83.49989066324369
21
41.999741529613488
31
0
0
ARC
5
120
100
AcDbEntity
8
0
100
AcDbCircle
10
-83.499890663243804
20
40.49974152961326
30
0
40
1.5000000000002256
210
0
220
0
230
-1
100
AcDbArc
50
89.999999999995666
51
180
0
LINE
5
121
100
AcDbEntity
8
0
100
AcDbLine
10
84.999890663244031
20
40.49974152961326
30
0
11
84.999890663244031
21
-39.500258470384665
31
0
0
ARC
5
122
100
AcDbEntity
8
0
100
AcDbCircle
10
-83.49989066324224
20
-39.500258470384729
30
0
40
1.5000000000017977
210
0
220
0
230
-1
100
AcDbArc
50
180
51
270.00000000002063
0
LINE
5
123
100
AcDbEntity
8
0
100
AcDbLine
10
83.4998906632417
20
-41.00025847038652
30
0
11
13.272690663244759
21
-41.00025847038652
31
0
0
LINE
5
124
100
AcDbEntity
8
0
100
AcDbLine
10
13.272690663244759
20
-41.00025847038652
30
0
11
13.272690663244774
21
-42.000258470387315
31
0
0
LINE
5
125
100
AcDbEntity
8
0
100
AcDbLine
10
13.272690663244774
20
-42.000258470387315
30
0
11
11.772690663244774
21
-42.00025847038652
31
0
0
LINE
5
126
100
AcDbEntity
8
0
100
AcDbLine
10
11.772690663244774
20
-42.00025847038652
30
0
11
11.772690663244774
21
-43.50025847038652
31
0
0
LINE
5
127
100
AcDbEntity
8
0
100
AcDbLine
10
11.772690663244774
20
-43.50025847038652
30
0
11
83.49989066324224
21
-43.50025847038652
31
0
0
ARC
5
128
100
AcDbEntity
8
0
100
AcDbCircle
10
83.49989066324224
20
-39.500258470384729
30
0
40
4.0000000000017932
210
-0
220
0
230
1
100
AcDbArc
50
-90
51
0
0
LINE
5
129
100
AcDbEntity
8
0
100
AcDbLine
10
87.499890663244031
20
-39.500258470384729
30
0
11
87.499890663244031
21
40.49974152961326
31
0
0
ARC
5
130
100
AcDbEntity
8
0
100
AcDbCircle
10
83.499890663243804
20
40.49974152961326
30
0
40
4.0000000000002345
210
0
220
0
230
1
100
AcDbArc
50
0
51
90
0
ENDSEC
0
SECTION
2
OBJECTS
0
DICTIONARY
5
C
100
AcDbDictionary
3
ACAD_GROUP
350
D
3
ACAD_MLINESTYLE
350
17
0
DICTIONARY
5
D
100
AcDbDictionary
0
DICTIONARY
5
1A
330
C
100
AcDbDictionary
0
DICTIONARY
5
17
100
AcDbDictionary
0
ENDSEC
0
EOF
