0
SECTION
2
HEADER
9
$INSUNITS
70
4
9
$ACADVER
1
AC1014
9
$HANDSEED
5
FFFF
0
ENDSEC
0
SECTION
2
TABLES
0
TABLE
2
VPORT
5
8
100
AcDbSymbolTable
0
ENDTAB
0
TABLE
2
LTYPE
5
5
100
AcDbSymbolTable
0
LTYPE
5
14
100
AcDbSymbolTableRecord
100
AcDbLinetypeTableRecord
2
BYBLOCK
70
0
0
LTYPE
5
15
100
AcDbSymbolTableRecord
100
AcDbLinetypeTableRecord
2
BYLAYER
70
0
0
ENDTAB
0
TABLE
2
LAYER
5
2
100
AcDbSymbolTable
70
2
0
LAYER
5
50
100
AcDbSymbolTableRecord
100
AcDbLayerTableRecord
2
0
70
0
6
CONTINUOUS
0
ENDTAB
0
TABLE
2
STYLE
5
3
100
AcDbSymbolTable
70
1
0
STYLE
5
11
100
AcDbSymbolTableRecord
100
AcDbTextStyleTableRecord
2
STANDARD
70
0
0
ENDTAB
0
TABLE
2
VIEW
5
6
100
AcDbSymbolTable
70
0
0
ENDTAB
0
TABLE
2
UCS
5
7
100
AcDbSymbolTable
70
0
0
ENDTAB
0
TABLE
2
APPID
5
9
100
AcDbSymbolTable
70
2
0
APPID
5
12
100
AcDbSymbolTableRecord
100
AcDbRegAppTableRecord
2
ACAD
70
0
0
ENDTAB
0
TABLE
2
DIMSTYLE
5
A
100
AcDbSymbolTable
70
1
0
ENDTAB
0
TABLE
2
BLOCK_RECORD
5
1
100
AcDbSymbolTable
70
1
0
BLOCK_RECORD
5
1F
100
AcDbSymbolTableRecord
100
AcDbBlockTableRecord
2
*MODEL_SPACE
0
BLOCK_RECORD
5
1B
100
AcDbSymbolTableRecord
100
AcDbBlockTableRecord
2
*PAPER_SPACE
0
ENDTAB
0
ENDSEC
0
SECTION
2
BLOCKS
0
BLOCK
5
20
100
AcDbEntity
100
AcDbBlockBegin
2
*MODEL_SPACE
0
ENDBLK
5
21
100
AcDbEntity
100
AcDbBlockEnd
0
BLOCK
5
1C
100
AcDbEntity
100
AcDbBlockBegin
2
*PAPER_SPACE
0
ENDBLK
5
1D
100
AcDbEntity
100
AcDbBlockEnd
0
ENDSEC
0
SECTION
2
ENTITIES
0
CIRCLE
5
100
100
AcDbEntity
8
0
100
AcDbCircle
10
-73.250000000017081
20
-29.750000000002533
30
0
40
3.3999999999999986
210
0
220
0
230
1
0
CIRCLE
5
101
100
AcDbEntity
8
0
100
AcDbCircle
10
-73.250000000054982
20
29.750000000002505
30
0
40
3.3999999999999986
210
0
220
0
230
1
0
CIRCLE
5
102
100
AcDbEntity
8
0
100
AcDbCircle
10
73.25000000005501
20
29.74999999980755
30
0
40
3.3999999999999986
210
0
220
0
230
1
0
CIRCLE
5
103
100
AcDbEntity
8
0
100
AcDbCircle
10
73.250000000017081
20
-29.750000000197488
30
0
40
3.3999999999999986
210
0
220
0
230
1
0
LINE
5
104
100
AcDbEntity
8
0
100
AcDbLine
10
-29.949999999999733
20
-34.466166181047356
30
0
11
-65.050000000000608
21
-34.466166181042531
31
0
0
ARC
5
105
100
AcDbEntity
8
0
100
AcDbCircle
10
-65.050000000000495
20
-33.466166181042553
30
0
40
0.99999999999997868
210
0
220
0
230
1
100
AcDbArc
50
180
51
269.99999999999346
0
LINE
5
106
100
AcDbEntity
8
0
100
AcDbLine
10
-66.050000000000466
20
-33.466166181042411
30
0
11
-66.050000000000622
21
33.533833818952807
31
0
0
ARC
5
107
100
AcDbEntity
8
0
100
AcDbCircle
10
-65.050000000000608
20
33.533833818953056
30
0
40
1.0000000000000187
210
0
220
0
230
1
100
AcDbArc
50
90.000000000014651
51
180
0
LINE
5
108
100
AcDbEntity
8
0
100
AcDbLine
10
-65.050000000000864
20
34.533833818953077
30
0
11
-29.950000000000585
21
34.533833818962243
31
0
0
ARC
5
109
100
AcDbEntity
8
0
100
AcDbCircle
10
-29.950000000000323
20
33.533833818962243
30
0
40
0.99999999999999201
210
0
220
-0
230
1
100
AcDbArc
50
0
51
90.000000000015049
0
LINE
5
110
100
AcDbEntity
8
0
100
AcDbLine
10
-28.95000000000033
20
33.533833818962506
30
0
11
-28.949999999999399
21
29.999999999991331
31
0
0
ARC
5
111
100
AcDbEntity
8
0
100
AcDbCircle
10
-27.949999999999395
20
29.999999999991594
30
0
40
1.0000000000000053
210
0
220
0
230
1
100
AcDbArc
50
180
51
270.00000000009749
0
LINE
5
112
100
AcDbEntity
8
0
100
AcDbLine
10
-27.949999999997694
20
28.999999999991587
30
0
11
33.749999999999247
21
29
31
0
0
ARC
5
113
100
AcDbEntity
8
0
100
AcDbCircle
10
33.749999999999247
20
27
30
0
40
1.9999999999999973
210
-0
220
0
230
1
100
AcDbArc
50
0
51
90
0
LINE
5
114
100
AcDbEntity
8
0
100
AcDbLine
10
35.74999999999924
20
26.999999999999996
30
0
11
35.74999999999924
21
-26.999999999997538
31
0
0
ARC
5
115
100
AcDbEntity
8
0
100
AcDbCircle
10
33.749999999999261
20
-26.999999999997542
30
0
40
1.9999999999999796
210
0
220
0
230
1
100
AcDbArc
50
-90.000000000000199
51
0
0
LINE
5
116
100
AcDbEntity
8
0
100
AcDbLine
10
33.749999999999254
20
-28.99999999999752
30
0
11
-27.950000000000792
21
-28.999999999995616
31
0
0
ARC
5
117
100
AcDbEntity
8
0
100
AcDbCircle
10
-27.950000000000532
20
-29.999999999995598
30
0
40
0.99999999999998757
210
0
220
0
230
1
100
AcDbArc
50
90.000000000015049
51
180
0
LINE
5
118
100
AcDbEntity
8
0
100
AcDbLine
10
-28.950000000000522
20
-29.999999999995861
30
0
11
-28.949999999999605
21
-33.466166181047107
31
0
0
ARC
5
119
100
AcDbEntity
8
0
100
AcDbCircle
10
-29.949999999999598
20
-33.46616618104737
30
0
40
0.99999999999999201
210
0
220
0
230
1
100
AcDbArc
50
-90.000000000007731
51
0
0
LWPOLYLINE
5
120
100
AcDbEntity
8
0
100
AcDbPolyline
90
16
70
1
43
0.0
10
-83.49999999994472
20
41.249999999999964
42
0.41421356236022633
10
-84.750000000054968
20
39.999999999889667
10
-84.750000000054968
20
-39.999999999997776
42
0.41421356236021906
10
-83.500000000053831
20
-41.24999999999892
10
-10.687292414888656
20
-41.250000000000014
42
-0.41277073836101619
10
-9.6823516082231134
20
-42.250000000000021
10
1.6871917854785234
20
-42.250000000000156
10
1.6871917854775949
20
-40.749999999999453
42
-0.41421356237309309
10
2.1871917854775895
20
-40.249999999999453
10
13.187191785477621
20
-40.249999999999545
42
-0.41421356237309509
10
13.687191785477602
20
-40.749999999999538
10
13.68719178547761
20
-41.249999999999659
10
83.499999999945018
20
-41.250000000000036
42
0.41421356238629875
10
84.749999999948159
20
-39.999999999998202
10
84.749999999944961
20
39.999999999999588
42
0.41421356238554019
10
83.499999999944691
20
41.249999999999886
0
ENDSEC
0
SECTION
2
OBJECTS
0
DICTIONARY
5
C
100
AcDbDictionary
3
ACAD_GROUP
350
D
3
ACAD_MLINESTYLE
350
17
0
DICTIONARY
5
D
100
AcDbDictionary
0
DICTIONARY
5
1A
330
C
100
AcDbDictionary
0
DICTIONARY
5
17
100
AcDbDictionary
0
ENDSEC
0
EOF
