0
SECTION
2
HEADER
9
$INSUNITS
70
4
9
$ACADVER
1
AC1014
9
$HANDSEED
5
FFFF
0
ENDSEC
0
SECTION
2
TABLES
0
TABLE
2
VPORT
5
8
100
AcDbSymbolTable
0
ENDTAB
0
TABLE
2
LTYPE
5
5
100
AcDbSymbolTable
0
LTYPE
5
14
100
AcDbSymbolTableRecord
100
AcDbLinetypeTableRecord
2
BYBLOCK
70
0
0
LTYPE
5
15
100
AcDbSymbolTableRecord
100
AcDbLinetypeTableRecord
2
BYLAYER
70
0
0
ENDTAB
0
TABLE
2
LAYER
5
2
100
AcDbSymbolTable
70
2
0
LAYER
5
50
100
AcDbSymbolTableRecord
100
AcDbLayerTableRecord
2
0
70
0
6
CONTINUOUS
0
ENDTAB
0
TABLE
2
STYLE
5
3
100
AcDbSymbolTable
70
1
0
STYLE
5
11
100
AcDbSymbolTableRecord
100
AcDbTextStyleTableRecord
2
STANDARD
70
0
0
ENDTAB
0
TABLE
2
VIEW
5
6
100
AcDbSymbolTable
70
0
0
ENDTAB
0
TABLE
2
UCS
5
7
100
AcDbSymbolTable
70
0
0
ENDTAB
0
TABLE
2
APPID
5
9
100
AcDbSymbolTable
70
2
0
APPID
5
12
100
AcDbSymbolTableRecord
100
AcDbRegAppTableRecord
2
ACAD
70
0
0
ENDTAB
0
TABLE
2
DIMSTYLE
5
A
100
AcDbSymbolTable
70
1
0
ENDTAB
0
TABLE
2
BLOCK_RECORD
5
1
100
AcDbSymbolTable
70
1
0
BLOCK_RECORD
5
1F
100
AcDbSymbolTableRecord
100
AcDbBlockTableRecord
2
*MODEL_SPACE
0
BLOCK_RECORD
5
1B
100
AcDbSymbolTableRecord
100
AcDbBlockTableRecord
2
*PAPER_SPACE
0
ENDTAB
0
ENDSEC
0
SECTION
2
BLOCKS
0
BLOCK
5
20
100
AcDbEntity
100
AcDbBlockBegin
2
*MODEL_SPACE
0
ENDBLK
5
21
100
AcDbEntity
100
AcDbBlockEnd
0
BLOCK
5
1C
100
AcDbEntity
100
AcDbBlockBegin
2
*PAPER_SPACE
0
ENDBLK
5
1D
100
AcDbEntity
100
AcDbBlockEnd
0
ENDSEC
0
SECTION
2
ENTITIES
0
ARC
5
100
100
AcDbEntity
8
0
100
AcDbCircle
10
83.500399999999999
20
40.500117000000003
30
0
40
1.2498900640060076
210
-0
220
0
230
1
100
AcDbArc
50
-0.0050436425070742464
51
90.01833649471034
0
LINE
5
101
100
AcDbEntity
8
0
100
AcDbLine
10
83.499999994932423
20
41.750006999998746
30
0
11
-83.500000163189995
21
41.750516940807003
31
0
0
ARC
5
102
100
AcDbEntity
8
0
100
AcDbCircle
10
-83.499600000000015
20
40.500117000000003
30
0
40
1.2504000048387391
210
0
220
0
230
1
100
AcDbArc
50
90.018336262160091
51
180.00536116928421
0
LINE
5
103
100
AcDbEntity
8
0
100
AcDbLine
10
-84.749999999364164
20
40.500000000000057
30
0
11
-84.749710059150004
21
-39.499992974489999
31
0
0
ARC
5
104
100
AcDbEntity
8
0
100
AcDbCircle
10
-83.499600000000015
20
-39.499882999999997
30
0
40
1.2501100639873186
210
0
220
0
230
1
100
AcDbArc
50
180.00504041547316
51
269.98166719550352
0
LINE
5
105
100
AcDbEntity
8
0
100
AcDbLine
10
-83.499999994959609
20
-40.74999300000124
30
0
11
-10.687300000000004
21
-40.749993000000011
31
0
0
ARC
5
106
100
AcDbEntity
8
0
100
AcDbCircle
10
-10.6876
20
-41.754883000000007
30
0
40
1.0048900447810003
210
0
220
-0
230
1
100
AcDbArc
50
0.27841492888262437
51
89.982894910544417
0
LINE
5
107
100
AcDbEntity
8
0
100
AcDbLine
10
-9.6827218191187008
20
-41.750000000035605
30
0
11
1.6871919999999996
21
-41.75
31
0
0
LINE
5
108
100
AcDbEntity
8
0
100
AcDbLine
10
1.6871919999999996
20
-41.75
30
0
11
1.6871900000000002
21
-40.249993000000003
31
0
0
ARC
5
109
100
AcDbEntity
8
0
100
AcDbCircle
10
2.1873999999999998
20
-40.249882999999997
30
0
40
0.5002100120950016
210
0
220
0
230
1
100
AcDbArc
50
90.023867874602132
51
180.0125997793532
0
LINE
5
110
100
AcDbEntity
8
0
100
AcDbLine
10
2.1871916942293557
20
-39.750000000000213
30
0
11
13.187189999999999
21
-39.749993000000003
31
0
0
ARC
5
111
100
AcDbEntity
8
0
100
AcDbCircle
10
13.1874
20
-40.249882999999997
30
0
40
0.49989004410999882
210
-0
220
0
230
1
100
AcDbArc
50
-0.013416957534505326
51
90.024069521274683
0
LINE
5
112
100
AcDbEntity
8
0
100
AcDbLine
10
13.687192000000001
20
-40.250000047814794
30
0
11
13.687192000000001
21
-40.75
31
0
0
LINE
5
113
100
AcDbEntity
8
0
100
AcDbLine
10
13.687192000000001
20
-40.75
30
0
11
83.500000163205002
21
-40.749482940870003
31
0
0
ARC
5
114
100
AcDbEntity
8
0
100
AcDbCircle
10
83.500399999999999
20
-39.499882999999997
30
0
40
1.2496000048382594
210
0
220
0
230
1
100
AcDbArc
50
269.98166696450897
51
359.99463539843549
0
LINE
5
115
100
AcDbEntity
8
0
100
AcDbLine
10
84.749999999364647
20
-39.499999999999943
30
0
11
84.750290059163333
21
40.500006974466999
31
0
0
CIRCLE
5
116
100
AcDbEntity
8
0
100
AcDbCircle
10
-73.25
20
-29.250000000000004
30
0
40
3.3000000000000003
210
0
220
-0
230
1
0
CIRCLE
5
117
100
AcDbEntity
8
0
100
AcDbCircle
10
73.25
20
-29.250000000000004
30
0
40
3.3000000000000003
210
0
220
-0
230
1
0
ARC
5
118
100
AcDbEntity
8
0
100
AcDbCircle
10
-29.949600000000004
20
-32.965882999999998
30
0
40
0.99960003921599982
210
0
220
0
230
1
100
AcDbArc
50
269.97708810473927
51
359.9837788063785
0
LINE
5
119
100
AcDbEntity
8
0
100
AcDbLine
10
-29.94999972806
20
-33.965482959292771
30
0
11
-65.049999998008147
21
-33.966165999997507
31
0
0
ARC
5
120
100
AcDbEntity
8
0
100
AcDbCircle
10
-65.049599999999998
20
-32.965882999999998
30
0
40
1.0002800799780036
210
0
220
0
230
1
100
AcDbArc
50
180.0160364029953
51
269.9770882875556
0
LINE
5
121
100
AcDbEntity
8
0
100
AcDbLine
10
-66.049880040798385
20
-32.966162966420008
30
0
11
-66.050000000000011
21
34.033833999999999
31
0
0
ARC
5
122
100
AcDbEntity
8
0
100
AcDbCircle
10
-65.049599999999998
20
34.034117000000002
30
0
40
1.0004000391840027
210
0
220
0
230
1
100
AcDbArc
50
90.022924729517158
51
180.01620822185996
0
LINE
5
123
100
AcDbEntity
8
0
100
AcDbLine
10
-65.050000272060004
20
35.034516959107179
30
0
11
-29.950000001992908
21
35.033833999999551
31
0
0
ARC
5
124
100
AcDbEntity
8
0
100
AcDbCircle
10
-29.949600000000004
20
34.034117000000002
30
0
40
0.99972008002199875
210
-0
220
0
230
1
100
AcDbArc
50
-0.016049237531583539
51
90.022924912517482
0
LINE
5
125
100
AcDbEntity
8
0
100
AcDbLine
10
-28.949879959198398
20
34.033836966375006
30
0
11
-28.949999999988659
21
30.500000098434093
31
0
0
ARC
5
126
100
AcDbEntity
8
0
100
AcDbCircle
10
-27.9496
20
30.500117000000003
30
0
40
1.000110079991001
210
0
220
0
230
1
100
AcDbArc
50
180.00669654054818
51
269.97708421015375
0
LINE
5
127
100
AcDbEntity
8
0
100
AcDbLine
10
-27.949999999999999
20
29.500007000000199
30
0
11
33.749999997548443
21
29.500000000000007
31
0
0
ARC
5
128
100
AcDbEntity
8
0
100
AcDbCircle
10
33.750399999999999
20
27.500116999999999
30
0
40
1.9998900400019994
210
-0
220
0
230
1
100
AcDbArc
50
-0.0031518981533927896
51
90.011459896385645
0
LINE
5
129
100
AcDbEntity
8
0
100
AcDbLine
10
35.750290036975954
20
27.500006984045005
30
0
11
35.75
21
-26.500000000000004
31
0
0
ARC
5
130
100
AcDbEntity
8
0
100
AcDbCircle
10
33.750399999999999
20
-26.499883000000004
30
0
40
1.999600003026001
210
0
220
0
230
1
100
AcDbArc
50
269.98854147447526
51
359.99664752647425
0
LINE
5
131
100
AcDbEntity
8
0
100
AcDbLine
10
33.750000102001998
20
-28.499482963038403
30
0
11
-27.95000045568786
21
-28.499999999995818
31
0
0
ARC
5
132
100
AcDbEntity
8
0
100
AcDbCircle
10
-27.9496
20
-29.499883000000004
30
0
40
1.0004000060480001
210
0
220
0
230
1
100
AcDbArc
50
90.022941298333521
51
180.00630001569763
0
LINE
5
133
100
AcDbEntity
8
0
100
AcDbLine
10
-28.950000000000419
20
-29.499992999999996
30
0
11
-28.950000000844526
21
-32.96616599999976
31
0
0
CIRCLE
5
134
100
AcDbEntity
8
0
100
AcDbCircle
10
-73.25
20
30.250000000000004
30
0
40
3.3000000000000003
210
0
220
-0
230
1
0
CIRCLE
5
135
100
AcDbEntity
8
0
100
AcDbCircle
10
73.25
20
30.250000000000004
30
0
40
3.3000000000000003
210
0
220
-0
230
1
0
ENDSEC
0
SECTION
2
OBJECTS
0
DICTIONARY
5
C
100
AcDbDictionary
3
ACAD_GROUP
350
D
3
ACAD_MLINESTYLE
350
17
0
DICTIONARY
5
D
100
AcDbDictionary
0
DICTIONARY
5
1A
330
C
100
AcDbDictionary
0
DICTIONARY
5
17
100
AcDbDictionary
0
ENDSEC
0
EOF
