%TF.GenerationSoftware,KiCad,Pcbnew,(6.0.4-0)*%
%TF.CreationDate,2022-06-17T16:33:18+02:00*%
%TF.ProjectId,GlowSignMainPCB No battery,476c6f77-5369-4676-9e4d-61696e504342,rev?*%
%TF.SameCoordinates,Original*%
%TF.FileFunction,Paste,Top*%
%TF.FilePolarity,Positive*%
%FSLAX46Y46*%
G04 Gerber Fmt 4.6, Leading zero omitted, Abs format (unit mm)*
G04 Created by KiCad (PCBNEW (6.0.4-0)) date 2022-06-17 16:33:18*
%MOMM*%
%LPD*%
G01*
G04 APERTURE LIST*
G04 Aperture macros list*
%AMRoundRect*
0 Rectangle with rounded corners*
0 $1 Rounding radius*
0 $2 $3 $4 $5 $6 $7 $8 $9 X,Y pos of 4 corners*
0 Add a 4 corners polygon primitive as box body*
4,1,4,$2,$3,$4,$5,$6,$7,$8,$9,$2,$3,0*
0 Add four circle primitives for the rounded corners*
1,1,$1+$1,$2,$3*
1,1,$1+$1,$4,$5*
1,1,$1+$1,$6,$7*
1,1,$1+$1,$8,$9*
0 Add four rect primitives between the rounded corners*
20,1,$1+$1,$2,$3,$4,$5,0*
20,1,$1+$1,$4,$5,$6,$7,0*
20,1,$1+$1,$6,$7,$8,$9,0*
20,1,$1+$1,$8,$9,$2,$3,0*%
G04 Aperture macros list end*
%ADD10RoundRect,0.237500X-0.237500X0.300000X-0.237500X-0.300000X0.237500X-0.300000X0.237500X0.300000X0*%
%ADD11R,0.419990X1.300000*%
%ADD12R,0.900000X2.000000*%
%ADD13R,2.000000X0.900000*%
%ADD14R,1.330000X1.330000*%
%ADD15R,1.500000X1.000000*%
%ADD16RoundRect,0.237500X-0.300000X-0.237500X0.300000X-0.237500X0.300000X0.237500X-0.300000X0.237500X0*%
%ADD17RoundRect,0.250000X-0.400000X-1.450000X0.400000X-1.450000X0.400000X1.450000X-0.400000X1.450000X0*%
%ADD18RoundRect,0.237500X-0.237500X0.250000X-0.237500X-0.250000X0.237500X-0.250000X0.237500X0.250000X0*%
%ADD19RoundRect,0.237500X0.300000X0.237500X-0.300000X0.237500X-0.300000X-0.237500X0.300000X-0.237500X0*%
%ADD20R,0.900000X0.280010*%
%ADD21R,0.280010X0.900000*%
%ADD22R,3.300000X3.300000*%
%ADD23RoundRect,0.250000X-0.550000X1.500000X-0.550000X-1.500000X0.550000X-1.500000X0.550000X1.500000X0*%
%ADD24O,0.250013X0.750013*%
%ADD25R,2.470003X0.980010*%
%ADD26R,2.470003X3.600000*%
%ADD27R,1.500000X0.900000*%
%ADD28RoundRect,0.237500X0.237500X-0.300000X0.237500X0.300000X-0.237500X0.300000X-0.237500X-0.300000X0*%
%ADD29R,0.600000X0.419990*%
%ADD30R,0.600000X1.300000*%
%ADD31R,0.300000X1.300000*%
%ADD32RoundRect,0.237500X-0.250000X-0.237500X0.250000X-0.237500X0.250000X0.237500X-0.250000X0.237500X0*%
%ADD33RoundRect,0.237500X0.250000X0.237500X-0.250000X0.237500X-0.250000X-0.237500X0.250000X-0.237500X0*%
%ADD34R,1.050013X0.550013*%
%ADD35R,0.450013X1.400000*%
%ADD36R,2.400000X0.450013*%
G04 APERTURE END LIST*
D10*
%TO.C,C31*%
X170130000Y-66587500D03*
X170130000Y-68312500D03*
%TD*%
D11*
%TO.C,D3*%
X164035842Y-127758498D03*
X164885728Y-127758498D03*
X165735868Y-127758498D03*
X166585754Y-127758498D03*
%TD*%
D12*
%TO.C,U4*%
X181004850Y-96302100D03*
X182274850Y-96302100D03*
X183544850Y-96302100D03*
X184814850Y-96302100D03*
X186084850Y-96302100D03*
X187354850Y-96302100D03*
X188624850Y-96302100D03*
X189894850Y-96302100D03*
X191164850Y-96302100D03*
X192434850Y-96302100D03*
X193704850Y-96302100D03*
X194974850Y-96302100D03*
X196244850Y-96302100D03*
X197514850Y-96302100D03*
D13*
X198514850Y-93517100D03*
X198514850Y-92247100D03*
X198514850Y-90977100D03*
X198514850Y-89707100D03*
X198514850Y-88437100D03*
X198514850Y-87167100D03*
X198514850Y-85897100D03*
X198514850Y-84627100D03*
X198514850Y-83357100D03*
X198514850Y-82087100D03*
D12*
X197514850Y-79302100D03*
X196244850Y-79302100D03*
X194974850Y-79302100D03*
X193704850Y-79302100D03*
X192434850Y-79302100D03*
X191164850Y-79302100D03*
X189894850Y-79302100D03*
X188624850Y-79302100D03*
X187354850Y-79302100D03*
X186084850Y-79302100D03*
X184814850Y-79302100D03*
X183544850Y-79302100D03*
X182274850Y-79302100D03*
X181004850Y-79302100D03*
D14*
X186669850Y-90637100D03*
X188504850Y-88802100D03*
X186669850Y-86967100D03*
X190339850Y-90637100D03*
X190339850Y-86967100D03*
X190339850Y-88802100D03*
X188504850Y-90637100D03*
X186669850Y-88802100D03*
X188504850Y-86967100D03*
%TD*%
D15*
%TO.C,D18*%
X134291100Y-64920000D03*
X134291100Y-68120000D03*
X139191100Y-68120000D03*
X139191100Y-64920000D03*
%TD*%
%TO.C,D12*%
X212505700Y-63920000D03*
X212505700Y-67120000D03*
X217405700Y-67120000D03*
X217405700Y-63920000D03*
%TD*%
D16*
%TO.C,C48*%
X175937500Y-112060000D03*
X177662500Y-112060000D03*
%TD*%
D15*
%TO.C,D15*%
X175062400Y-63920000D03*
X175062400Y-67120000D03*
X179962400Y-67120000D03*
X179962400Y-63920000D03*
%TD*%
D17*
%TO.C,F1*%
X148825000Y-119530000D03*
X153275000Y-119530000D03*
%TD*%
D15*
%TO.C,D8*%
X212505700Y-113900000D03*
X212505700Y-117100000D03*
X217405700Y-117100000D03*
X217405700Y-113900000D03*
%TD*%
D11*
%TO.C,D28*%
X98302342Y-127758498D03*
X99152228Y-127758498D03*
X100002368Y-127758498D03*
X100852254Y-127758498D03*
%TD*%
D16*
%TO.C,C18*%
X164887500Y-125530000D03*
X166612500Y-125530000D03*
%TD*%
D15*
%TO.C,D19*%
X121810000Y-63920000D03*
X121810000Y-67120000D03*
X126710000Y-67120000D03*
X126710000Y-63920000D03*
%TD*%
D18*
%TO.C,R2*%
X144890000Y-122967500D03*
X144890000Y-124792500D03*
%TD*%
D19*
%TO.C,C7*%
X191710000Y-103800000D03*
X189985000Y-103800000D03*
%TD*%
D15*
%TO.C,D21*%
X96847800Y-63920000D03*
X96847800Y-67120000D03*
X101747800Y-67120000D03*
X101747800Y-63920000D03*
%TD*%
D16*
%TO.C,C38*%
X84320000Y-73770000D03*
X86045000Y-73770000D03*
%TD*%
D15*
%TO.C,D13*%
X200024600Y-63920000D03*
X200024600Y-67120000D03*
X204924600Y-67120000D03*
X204924600Y-63920000D03*
%TD*%
D20*
%TO.C,U7*%
X205310051Y-106848933D03*
X205310051Y-107349314D03*
X205310051Y-107849695D03*
X205310051Y-108350076D03*
X205310051Y-108850457D03*
X205310051Y-109350838D03*
X205310051Y-109851219D03*
D21*
X206308781Y-110850203D03*
X206809162Y-110850203D03*
X207309543Y-110850203D03*
X207809924Y-110850203D03*
X208310305Y-110850203D03*
X208810686Y-110850203D03*
X209311067Y-110850203D03*
D20*
X210310051Y-109851219D03*
X210310051Y-109350838D03*
X210310051Y-108850457D03*
X210310051Y-108350076D03*
X210310051Y-107849695D03*
X210310051Y-107349314D03*
X210310051Y-106848933D03*
D21*
X209311067Y-105850203D03*
X208810686Y-105850203D03*
X208310305Y-105850203D03*
X207809924Y-105850203D03*
X207309543Y-105850203D03*
X206809162Y-105850203D03*
X206308781Y-105850203D03*
D22*
X207809924Y-108350076D03*
%TD*%
D23*
%TO.C,C3*%
X171400000Y-119950000D03*
X171400000Y-125550000D03*
%TD*%
D15*
%TO.C,D10*%
X212505700Y-88910000D03*
X212505700Y-92110000D03*
X217405700Y-92110000D03*
X217405700Y-88910000D03*
%TD*%
D10*
%TO.C,C32*%
X156320000Y-67917500D03*
X156320000Y-69642500D03*
%TD*%
D16*
%TO.C,C40*%
X84320000Y-98716666D03*
X86045000Y-98716666D03*
%TD*%
%TO.C,C46*%
X136485000Y-125530000D03*
X138210000Y-125530000D03*
%TD*%
D24*
%TO.C,U3*%
X177118039Y-109608379D03*
X177618166Y-109608379D03*
X178118039Y-109608379D03*
X178618166Y-109608379D03*
X178618166Y-106508557D03*
X178118039Y-106508557D03*
X177618166Y-106508557D03*
X177118039Y-106508557D03*
%TD*%
D15*
%TO.C,D25*%
X84366700Y-101405000D03*
X84366700Y-104605000D03*
X89266700Y-104605000D03*
X89266700Y-101405000D03*
%TD*%
D10*
%TO.C,C37*%
X91940000Y-65587500D03*
X91940000Y-67312500D03*
%TD*%
D16*
%TO.C,C27*%
X215785000Y-69760000D03*
X217510000Y-69760000D03*
%TD*%
D11*
%TO.C,D4*%
X176516942Y-127758498D03*
X177366828Y-127758498D03*
X178216968Y-127758498D03*
X179066854Y-127758498D03*
%TD*%
D16*
%TO.C,C19*%
X177557500Y-125590000D03*
X179282500Y-125590000D03*
%TD*%
D25*
%TO.C,U18*%
X196414900Y-110439975D03*
X196414900Y-108140000D03*
X196414900Y-105840025D03*
D26*
X190745100Y-108140000D03*
%TD*%
D16*
%TO.C,C44*%
X111637500Y-125530000D03*
X113362500Y-125530000D03*
%TD*%
D15*
%TO.C,D24*%
X84366700Y-88910000D03*
X84366700Y-92110000D03*
X89266700Y-92110000D03*
X89266700Y-88910000D03*
%TD*%
%TO.C,D16*%
X162581300Y-64920000D03*
X162581300Y-68120000D03*
X167481300Y-68120000D03*
X167481300Y-64920000D03*
%TD*%
D16*
%TO.C,C39*%
X84320000Y-86243333D03*
X86045000Y-86243333D03*
%TD*%
%TO.C,C41*%
X84320000Y-111190000D03*
X86045000Y-111190000D03*
%TD*%
D11*
%TO.C,D7*%
X213960242Y-127758498D03*
X214810128Y-127758498D03*
X215660268Y-127758498D03*
X216510154Y-127758498D03*
%TD*%
D27*
%TO.C,SW1*%
X192880076Y-99599936D03*
X196679924Y-99599936D03*
X196679924Y-101100064D03*
X192880076Y-101100064D03*
%TD*%
D15*
%TO.C,D9*%
X212505700Y-101405000D03*
X212505700Y-104605000D03*
X217405700Y-104605000D03*
X217405700Y-101405000D03*
%TD*%
D16*
%TO.C,C24*%
X215785000Y-107102500D03*
X217510000Y-107102500D03*
%TD*%
D10*
%TO.C,C33*%
X141800000Y-66587500D03*
X141800000Y-68312500D03*
%TD*%
D15*
%TO.C,D20*%
X109328900Y-63920000D03*
X109328900Y-67120000D03*
X114228900Y-67120000D03*
X114228900Y-63920000D03*
%TD*%
D10*
%TO.C,C35*%
X116870000Y-65587500D03*
X116870000Y-67312500D03*
%TD*%
D16*
%TO.C,C20*%
X190030000Y-125530000D03*
X191755000Y-125530000D03*
%TD*%
D15*
%TO.C,D17*%
X148811100Y-66250000D03*
X148811100Y-69450000D03*
X153711100Y-69450000D03*
X153711100Y-66250000D03*
%TD*%
D28*
%TO.C,C47*%
X209310000Y-97112500D03*
X209310000Y-95387500D03*
%TD*%
D11*
%TO.C,D29*%
X110783442Y-127758498D03*
X111633328Y-127758498D03*
X112483468Y-127758498D03*
X113333354Y-127758498D03*
%TD*%
D29*
%TO.C,U8*%
X206730897Y-101940013D03*
X206730897Y-102590000D03*
X206730897Y-103239987D03*
X208630821Y-103239987D03*
X208630821Y-102590000D03*
X208630821Y-101940013D03*
%TD*%
D30*
%TO.C,USB1*%
X147947302Y-126069964D03*
X148747149Y-126069964D03*
D31*
X149897264Y-126069964D03*
X150897264Y-126069964D03*
X151397136Y-126069964D03*
X152397136Y-126069964D03*
D30*
X154347098Y-126069964D03*
X153547251Y-126069964D03*
D31*
X152897264Y-126069964D03*
X151897264Y-126069964D03*
X150397136Y-126069964D03*
X149397136Y-126069964D03*
%TD*%
D11*
%TO.C,D6*%
X201479142Y-127758498D03*
X202329028Y-127758498D03*
X203179168Y-127758498D03*
X204029054Y-127758498D03*
%TD*%
D27*
%TO.C,SW3*%
X152989924Y-63650064D03*
X149190076Y-63650064D03*
X149190076Y-62149936D03*
X152989924Y-62149936D03*
%TD*%
D16*
%TO.C,C42*%
X86577500Y-125530000D03*
X88302500Y-125530000D03*
%TD*%
D32*
%TO.C,R1*%
X160527500Y-125530000D03*
X162352500Y-125530000D03*
%TD*%
D18*
%TO.C,R3*%
X157780000Y-122967500D03*
X157780000Y-124792500D03*
%TD*%
D16*
%TO.C,C25*%
X215785000Y-94655000D03*
X217510000Y-94655000D03*
%TD*%
D10*
%TO.C,C30*%
X182683333Y-65587500D03*
X182683333Y-67312500D03*
%TD*%
D15*
%TO.C,D26*%
X84366700Y-113900000D03*
X84366700Y-117100000D03*
X89266700Y-117100000D03*
X89266700Y-113900000D03*
%TD*%
%TO.C,D23*%
X84366700Y-76415000D03*
X84366700Y-79615000D03*
X89266700Y-79615000D03*
X89266700Y-76415000D03*
%TD*%
D11*
%TO.C,D5*%
X188998042Y-127758498D03*
X189847928Y-127758498D03*
X190698068Y-127758498D03*
X191547954Y-127758498D03*
%TD*%
D15*
%TO.C,D11*%
X212505700Y-76415000D03*
X212505700Y-79615000D03*
X217405700Y-79615000D03*
X217405700Y-76415000D03*
%TD*%
D10*
%TO.C,C29*%
X195236666Y-65587500D03*
X195236666Y-67312500D03*
%TD*%
D33*
%TO.C,R6*%
X185332500Y-102720000D03*
X183507500Y-102720000D03*
%TD*%
D10*
%TO.C,C28*%
X207790000Y-65587500D03*
X207790000Y-67312500D03*
%TD*%
D16*
%TO.C,C45*%
X124167500Y-125530000D03*
X125892500Y-125530000D03*
%TD*%
D28*
%TO.C,C4*%
X201230000Y-111732500D03*
X201230000Y-110007500D03*
%TD*%
D19*
%TO.C,C2*%
X181782500Y-112080000D03*
X180057500Y-112080000D03*
%TD*%
D10*
%TO.C,C34*%
X129335000Y-65587500D03*
X129335000Y-67312500D03*
%TD*%
D34*
%TO.C,U20*%
X204455083Y-95845545D03*
X203104816Y-95845545D03*
X203104816Y-96695431D03*
X204455083Y-96695431D03*
D35*
X205504867Y-96270488D03*
D36*
X203779949Y-95045443D03*
D35*
X202055032Y-96270488D03*
D36*
X203779949Y-97495532D03*
%TD*%
D19*
%TO.C,C8*%
X185282500Y-100700000D03*
X183557500Y-100700000D03*
%TD*%
D10*
%TO.C,C36*%
X104405000Y-65587500D03*
X104405000Y-67312500D03*
%TD*%
D11*
%TO.C,D27*%
X85821242Y-127758498D03*
X86671128Y-127758498D03*
X87521268Y-127758498D03*
X88371154Y-127758498D03*
%TD*%
D15*
%TO.C,D14*%
X187543500Y-63920000D03*
X187543500Y-67120000D03*
X192443500Y-67120000D03*
X192443500Y-63920000D03*
%TD*%
%TO.C,D22*%
X84366700Y-63920000D03*
X84366700Y-67120000D03*
X89266700Y-67120000D03*
X89266700Y-63920000D03*
%TD*%
D10*
%TO.C,C6*%
X203330000Y-110007500D03*
X203330000Y-111732500D03*
%TD*%
D16*
%TO.C,C1*%
X181047500Y-98890000D03*
X182772500Y-98890000D03*
%TD*%
D11*
%TO.C,D30*%
X123264542Y-127758498D03*
X124114428Y-127758498D03*
X124964568Y-127758498D03*
X125814454Y-127758498D03*
%TD*%
D16*
%TO.C,C21*%
X202537500Y-125530000D03*
X204262500Y-125530000D03*
%TD*%
D11*
%TO.C,D31*%
X135745642Y-127758498D03*
X136595528Y-127758498D03*
X137445668Y-127758498D03*
X138295554Y-127758498D03*
%TD*%
D16*
%TO.C,C23*%
X215785000Y-119550000D03*
X217510000Y-119550000D03*
%TD*%
D32*
%TO.C,R7*%
X197017500Y-74650000D03*
X198842500Y-74650000D03*
%TD*%
D28*
%TO.C,C10*%
X207530000Y-97112500D03*
X207530000Y-95387500D03*
%TD*%
D33*
%TO.C,R5*%
X198842500Y-72560000D03*
X197017500Y-72560000D03*
%TD*%
D16*
%TO.C,C9*%
X197067500Y-76690000D03*
X198792500Y-76690000D03*
%TD*%
D33*
%TO.C,R4*%
X185332500Y-104740000D03*
X183507500Y-104740000D03*
%TD*%
D16*
%TO.C,C5*%
X195515000Y-103800000D03*
X197240000Y-103800000D03*
%TD*%
%TO.C,C22*%
X214870000Y-125530000D03*
X216595000Y-125530000D03*
%TD*%
D27*
%TO.C,SW2*%
X190220076Y-75680064D03*
X194019924Y-75680064D03*
X190220076Y-74179936D03*
X194019924Y-74179936D03*
%TD*%
D16*
%TO.C,C43*%
X98437500Y-125570000D03*
X100162500Y-125570000D03*
%TD*%
%TO.C,C26*%
X215785000Y-82207500D03*
X217510000Y-82207500D03*
%TD*%
M02*
