%TF.GenerationSoftware,KiCad,Pcbnew,(6.0.4-0)*%
%TF.CreationDate,2022-06-17T01:14:53+02:00*%
%TF.ProjectId,AluminumCover,416c756d-696e-4756-9d43-6f7665722e6b,rev?*%
%TF.SameCoordinates,Original*%
%TF.FileFunction,Legend,Top*%
%TF.FilePolarity,Positive*%
%FSLAX46Y46*%
G04 Gerber Fmt 4.6, Leading zero omitted, Abs format (unit mm)*
G04 Created by KiCad (PCBNEW (6.0.4-0)) date 2022-06-17 01:14:53*
%MOMM*%
%LPD*%
G01*
G04 APERTURE LIST*
%ADD10C,0.150000*%
%ADD11C,0.400000*%
%ADD12C,0.010000*%
%ADD13C,0.127991*%
G04 APERTURE END LIST*
D10*
X98377399Y-90225959D02*
X98758352Y-90225959D01*
X98301209Y-90454530D02*
X98567876Y-89654530D01*
X98834542Y-90454530D01*
X99215495Y-90454530D02*
X99139304Y-90416435D01*
X99101209Y-90340245D01*
X99101209Y-89654530D01*
X99863114Y-89921197D02*
X99863114Y-90454530D01*
X99520257Y-89921197D02*
X99520257Y-90340245D01*
X99558352Y-90416435D01*
X99634542Y-90454530D01*
X99748828Y-90454530D01*
X99825019Y-90416435D01*
X99863114Y-90378340D01*
X100244066Y-90454530D02*
X100244066Y-89921197D01*
X100244066Y-89997387D02*
X100282161Y-89959292D01*
X100358352Y-89921197D01*
X100472638Y-89921197D01*
X100548828Y-89959292D01*
X100586923Y-90035483D01*
X100586923Y-90454530D01*
X100586923Y-90035483D02*
X100625019Y-89959292D01*
X100701209Y-89921197D01*
X100815495Y-89921197D01*
X100891685Y-89959292D01*
X100929780Y-90035483D01*
X100929780Y-90454530D01*
X101310733Y-90454530D02*
X101310733Y-89921197D01*
X101310733Y-89654530D02*
X101272638Y-89692626D01*
X101310733Y-89730721D01*
X101348828Y-89692626D01*
X101310733Y-89654530D01*
X101310733Y-89730721D01*
X101691685Y-89921197D02*
X101691685Y-90454530D01*
X101691685Y-89997387D02*
X101729780Y-89959292D01*
X101805971Y-89921197D01*
X101920257Y-89921197D01*
X101996447Y-89959292D01*
X102034542Y-90035483D01*
X102034542Y-90454530D01*
X102758352Y-89921197D02*
X102758352Y-90454530D01*
X102415495Y-89921197D02*
X102415495Y-90340245D01*
X102453590Y-90416435D01*
X102529780Y-90454530D01*
X102644066Y-90454530D01*
X102720257Y-90416435D01*
X102758352Y-90378340D01*
X103139304Y-90454530D02*
X103139304Y-89921197D01*
X103139304Y-89997387D02*
X103177399Y-89959292D01*
X103253590Y-89921197D01*
X103367876Y-89921197D01*
X103444066Y-89959292D01*
X103482161Y-90035483D01*
X103482161Y-90454530D01*
X103482161Y-90035483D02*
X103520257Y-89959292D01*
X103596447Y-89921197D01*
X103710733Y-89921197D01*
X103786923Y-89959292D01*
X103825019Y-90035483D01*
X103825019Y-90454530D01*
X105272638Y-90378340D02*
X105234542Y-90416435D01*
X105120257Y-90454530D01*
X105044066Y-90454530D01*
X104929780Y-90416435D01*
X104853590Y-90340245D01*
X104815495Y-90264054D01*
X104777399Y-90111673D01*
X104777399Y-89997387D01*
X104815495Y-89845006D01*
X104853590Y-89768816D01*
X104929780Y-89692626D01*
X105044066Y-89654530D01*
X105120257Y-89654530D01*
X105234542Y-89692626D01*
X105272638Y-89730721D01*
X105729780Y-90454530D02*
X105653590Y-90416435D01*
X105615495Y-90378340D01*
X105577399Y-90302149D01*
X105577399Y-90073578D01*
X105615495Y-89997387D01*
X105653590Y-89959292D01*
X105729780Y-89921197D01*
X105844066Y-89921197D01*
X105920257Y-89959292D01*
X105958352Y-89997387D01*
X105996447Y-90073578D01*
X105996447Y-90302149D01*
X105958352Y-90378340D01*
X105920257Y-90416435D01*
X105844066Y-90454530D01*
X105729780Y-90454530D01*
X106263114Y-89921197D02*
X106453590Y-90454530D01*
X106644066Y-89921197D01*
X107253590Y-90416435D02*
X107177399Y-90454530D01*
X107025019Y-90454530D01*
X106948828Y-90416435D01*
X106910733Y-90340245D01*
X106910733Y-90035483D01*
X106948828Y-89959292D01*
X107025019Y-89921197D01*
X107177399Y-89921197D01*
X107253590Y-89959292D01*
X107291685Y-90035483D01*
X107291685Y-90111673D01*
X106910733Y-90187864D01*
X107634542Y-90454530D02*
X107634542Y-89921197D01*
X107634542Y-90073578D02*
X107672638Y-89997387D01*
X107710733Y-89959292D01*
X107786923Y-89921197D01*
X107863114Y-89921197D01*
X109196447Y-90378340D02*
X109158352Y-90416435D01*
X109044066Y-90454530D01*
X108967876Y-90454530D01*
X108853590Y-90416435D01*
X108777399Y-90340245D01*
X108739304Y-90264054D01*
X108701209Y-90111673D01*
X108701209Y-89997387D01*
X108739304Y-89845006D01*
X108777399Y-89768816D01*
X108853590Y-89692626D01*
X108967876Y-89654530D01*
X109044066Y-89654530D01*
X109158352Y-89692626D01*
X109196447Y-89730721D01*
X109882161Y-90454530D02*
X109882161Y-90035483D01*
X109844066Y-89959292D01*
X109767876Y-89921197D01*
X109615495Y-89921197D01*
X109539304Y-89959292D01*
X109882161Y-90416435D02*
X109805971Y-90454530D01*
X109615495Y-90454530D01*
X109539304Y-90416435D01*
X109501209Y-90340245D01*
X109501209Y-90264054D01*
X109539304Y-90187864D01*
X109615495Y-90149768D01*
X109805971Y-90149768D01*
X109882161Y-90111673D01*
X110148828Y-89921197D02*
X110453590Y-89921197D01*
X110263114Y-89654530D02*
X110263114Y-90340245D01*
X110301209Y-90416435D01*
X110377399Y-90454530D01*
X110453590Y-90454530D01*
X111329780Y-90454530D02*
X111329780Y-89654530D01*
X111634542Y-89654530D01*
X111710733Y-89692626D01*
X111748828Y-89730721D01*
X111786923Y-89806911D01*
X111786923Y-89921197D01*
X111748828Y-89997387D01*
X111710733Y-90035483D01*
X111634542Y-90073578D01*
X111329780Y-90073578D01*
X112586923Y-90378340D02*
X112548828Y-90416435D01*
X112434542Y-90454530D01*
X112358352Y-90454530D01*
X112244066Y-90416435D01*
X112167876Y-90340245D01*
X112129780Y-90264054D01*
X112091685Y-90111673D01*
X112091685Y-89997387D01*
X112129780Y-89845006D01*
X112167876Y-89768816D01*
X112244066Y-89692626D01*
X112358352Y-89654530D01*
X112434542Y-89654530D01*
X112548828Y-89692626D01*
X112586923Y-89730721D01*
X113196447Y-90035483D02*
X113310733Y-90073578D01*
X113348828Y-90111673D01*
X113386923Y-90187864D01*
X113386923Y-90302149D01*
X113348828Y-90378340D01*
X113310733Y-90416435D01*
X113234542Y-90454530D01*
X112929780Y-90454530D01*
X112929780Y-89654530D01*
X113196447Y-89654530D01*
X113272638Y-89692626D01*
X113310733Y-89730721D01*
X113348828Y-89806911D01*
X113348828Y-89883102D01*
X113310733Y-89959292D01*
X113272638Y-89997387D01*
X113196447Y-90035483D01*
X112929780Y-90035483D01*
X98339304Y-91209197D02*
X98529780Y-91742530D01*
X98720257Y-91209197D01*
X99444066Y-91742530D02*
X98986923Y-91742530D01*
X99215495Y-91742530D02*
X99215495Y-90942530D01*
X99139304Y-91056816D01*
X99063114Y-91133006D01*
X98986923Y-91171102D01*
X99786923Y-91666340D02*
X99825019Y-91704435D01*
X99786923Y-91742530D01*
X99748828Y-91704435D01*
X99786923Y-91666340D01*
X99786923Y-91742530D01*
X100320257Y-90942530D02*
X100396447Y-90942530D01*
X100472638Y-90980626D01*
X100510733Y-91018721D01*
X100548828Y-91094911D01*
X100586923Y-91247292D01*
X100586923Y-91437768D01*
X100548828Y-91590149D01*
X100510733Y-91666340D01*
X100472638Y-91704435D01*
X100396447Y-91742530D01*
X100320257Y-91742530D01*
X100244066Y-91704435D01*
X100205971Y-91666340D01*
X100167876Y-91590149D01*
X100129780Y-91437768D01*
X100129780Y-91247292D01*
X100167876Y-91094911D01*
X100205971Y-91018721D01*
X100244066Y-90980626D01*
X100320257Y-90942530D01*
X101539304Y-91742530D02*
X101539304Y-90942530D01*
X101539304Y-91247292D02*
X101615495Y-91209197D01*
X101767876Y-91209197D01*
X101844066Y-91247292D01*
X101882161Y-91285387D01*
X101920257Y-91361578D01*
X101920257Y-91590149D01*
X101882161Y-91666340D01*
X101844066Y-91704435D01*
X101767876Y-91742530D01*
X101615495Y-91742530D01*
X101539304Y-91704435D01*
X102567876Y-91704435D02*
X102491685Y-91742530D01*
X102339304Y-91742530D01*
X102263114Y-91704435D01*
X102225019Y-91628245D01*
X102225019Y-91323483D01*
X102263114Y-91247292D01*
X102339304Y-91209197D01*
X102491685Y-91209197D01*
X102567876Y-91247292D01*
X102605971Y-91323483D01*
X102605971Y-91399673D01*
X102225019Y-91475864D01*
X102834542Y-91209197D02*
X103139304Y-91209197D01*
X102948828Y-90942530D02*
X102948828Y-91628245D01*
X102986923Y-91704435D01*
X103063114Y-91742530D01*
X103139304Y-91742530D01*
X103748828Y-91742530D02*
X103748828Y-91323483D01*
X103710733Y-91247292D01*
X103634542Y-91209197D01*
X103482161Y-91209197D01*
X103405971Y-91247292D01*
X103748828Y-91704435D02*
X103672638Y-91742530D01*
X103482161Y-91742530D01*
X103405971Y-91704435D01*
X103367876Y-91628245D01*
X103367876Y-91552054D01*
X103405971Y-91475864D01*
X103482161Y-91437768D01*
X103672638Y-91437768D01*
X103748828Y-91399673D01*
X104701209Y-91018721D02*
X104739304Y-90980626D01*
X104815495Y-90942530D01*
X105005971Y-90942530D01*
X105082161Y-90980626D01*
X105120257Y-91018721D01*
X105158352Y-91094911D01*
X105158352Y-91171102D01*
X105120257Y-91285387D01*
X104663114Y-91742530D01*
X105158352Y-91742530D01*
X98654633Y-98269904D02*
X98654633Y-97469904D01*
X98654633Y-98231809D02*
X98578442Y-98269904D01*
X98426061Y-98269904D01*
X98349871Y-98231809D01*
X98311776Y-98193714D01*
X98273680Y-98117523D01*
X98273680Y-97888952D01*
X98311776Y-97812761D01*
X98349871Y-97774666D01*
X98426061Y-97736571D01*
X98578442Y-97736571D01*
X98654633Y-97774666D01*
X99340347Y-98231809D02*
X99264157Y-98269904D01*
X99111776Y-98269904D01*
X99035585Y-98231809D01*
X98997490Y-98155619D01*
X98997490Y-97850857D01*
X99035585Y-97774666D01*
X99111776Y-97736571D01*
X99264157Y-97736571D01*
X99340347Y-97774666D01*
X99378442Y-97850857D01*
X99378442Y-97927047D01*
X98997490Y-98003238D01*
X99683204Y-98231809D02*
X99759395Y-98269904D01*
X99911776Y-98269904D01*
X99987966Y-98231809D01*
X100026061Y-98155619D01*
X100026061Y-98117523D01*
X99987966Y-98041333D01*
X99911776Y-98003238D01*
X99797490Y-98003238D01*
X99721300Y-97965142D01*
X99683204Y-97888952D01*
X99683204Y-97850857D01*
X99721300Y-97774666D01*
X99797490Y-97736571D01*
X99911776Y-97736571D01*
X99987966Y-97774666D01*
X100368919Y-98269904D02*
X100368919Y-97736571D01*
X100368919Y-97469904D02*
X100330823Y-97508000D01*
X100368919Y-97546095D01*
X100407014Y-97508000D01*
X100368919Y-97469904D01*
X100368919Y-97546095D01*
X101092728Y-97736571D02*
X101092728Y-98384190D01*
X101054633Y-98460380D01*
X101016538Y-98498476D01*
X100940347Y-98536571D01*
X100826061Y-98536571D01*
X100749871Y-98498476D01*
X101092728Y-98231809D02*
X101016538Y-98269904D01*
X100864157Y-98269904D01*
X100787966Y-98231809D01*
X100749871Y-98193714D01*
X100711776Y-98117523D01*
X100711776Y-97888952D01*
X100749871Y-97812761D01*
X100787966Y-97774666D01*
X100864157Y-97736571D01*
X101016538Y-97736571D01*
X101092728Y-97774666D01*
X101473680Y-97736571D02*
X101473680Y-98269904D01*
X101473680Y-97812761D02*
X101511776Y-97774666D01*
X101587966Y-97736571D01*
X101702252Y-97736571D01*
X101778442Y-97774666D01*
X101816538Y-97850857D01*
X101816538Y-98269904D01*
X102502252Y-98231809D02*
X102426061Y-98269904D01*
X102273680Y-98269904D01*
X102197490Y-98231809D01*
X102159395Y-98155619D01*
X102159395Y-97850857D01*
X102197490Y-97774666D01*
X102273680Y-97736571D01*
X102426061Y-97736571D01*
X102502252Y-97774666D01*
X102540347Y-97850857D01*
X102540347Y-97927047D01*
X102159395Y-98003238D01*
X103226061Y-98269904D02*
X103226061Y-97469904D01*
X103226061Y-98231809D02*
X103149871Y-98269904D01*
X102997490Y-98269904D01*
X102921300Y-98231809D01*
X102883204Y-98193714D01*
X102845109Y-98117523D01*
X102845109Y-97888952D01*
X102883204Y-97812761D01*
X102921300Y-97774666D01*
X102997490Y-97736571D01*
X103149871Y-97736571D01*
X103226061Y-97774666D01*
X104216538Y-98269904D02*
X104216538Y-97469904D01*
X104216538Y-97774666D02*
X104292728Y-97736571D01*
X104445109Y-97736571D01*
X104521300Y-97774666D01*
X104559395Y-97812761D01*
X104597490Y-97888952D01*
X104597490Y-98117523D01*
X104559395Y-98193714D01*
X104521300Y-98231809D01*
X104445109Y-98269904D01*
X104292728Y-98269904D01*
X104216538Y-98231809D01*
X104864157Y-97736571D02*
X105054633Y-98269904D01*
X105245109Y-97736571D02*
X105054633Y-98269904D01*
X104978442Y-98460380D01*
X104940347Y-98498476D01*
X104864157Y-98536571D01*
X190489196Y-98722128D02*
X190489196Y-97922128D01*
X190793958Y-97922128D01*
X190870148Y-97960224D01*
X190908243Y-97998319D01*
X190946339Y-98074509D01*
X190946339Y-98188795D01*
X190908243Y-98264985D01*
X190870148Y-98303081D01*
X190793958Y-98341176D01*
X190489196Y-98341176D01*
X191746339Y-98645938D02*
X191708243Y-98684033D01*
X191593958Y-98722128D01*
X191517767Y-98722128D01*
X191403481Y-98684033D01*
X191327291Y-98607843D01*
X191289196Y-98531652D01*
X191251100Y-98379271D01*
X191251100Y-98264985D01*
X191289196Y-98112604D01*
X191327291Y-98036414D01*
X191403481Y-97960224D01*
X191517767Y-97922128D01*
X191593958Y-97922128D01*
X191708243Y-97960224D01*
X191746339Y-97998319D01*
X192355862Y-98303081D02*
X192470148Y-98341176D01*
X192508243Y-98379271D01*
X192546339Y-98455462D01*
X192546339Y-98569747D01*
X192508243Y-98645938D01*
X192470148Y-98684033D01*
X192393958Y-98722128D01*
X192089196Y-98722128D01*
X192089196Y-97922128D01*
X192355862Y-97922128D01*
X192432053Y-97960224D01*
X192470148Y-97998319D01*
X192508243Y-98074509D01*
X192508243Y-98150700D01*
X192470148Y-98226890D01*
X192432053Y-98264985D01*
X192355862Y-98303081D01*
X192089196Y-98303081D01*
X193384434Y-98188795D02*
X193689196Y-98188795D01*
X193498720Y-98722128D02*
X193498720Y-98036414D01*
X193536815Y-97960224D01*
X193613005Y-97922128D01*
X193689196Y-97922128D01*
X193955862Y-98722128D02*
X193955862Y-98188795D01*
X193955862Y-97922128D02*
X193917767Y-97960224D01*
X193955862Y-97998319D01*
X193993958Y-97960224D01*
X193955862Y-97922128D01*
X193955862Y-97998319D01*
X194451100Y-98722128D02*
X194374910Y-98684033D01*
X194336815Y-98607843D01*
X194336815Y-97922128D01*
X195060624Y-98684033D02*
X194984434Y-98722128D01*
X194832053Y-98722128D01*
X194755862Y-98684033D01*
X194717767Y-98607843D01*
X194717767Y-98303081D01*
X194755862Y-98226890D01*
X194832053Y-98188795D01*
X194984434Y-98188795D01*
X195060624Y-98226890D01*
X195098720Y-98303081D01*
X195098720Y-98379271D01*
X194717767Y-98455462D01*
X195403481Y-98684033D02*
X195479672Y-98722128D01*
X195632053Y-98722128D01*
X195708243Y-98684033D01*
X195746339Y-98607843D01*
X195746339Y-98569747D01*
X195708243Y-98493557D01*
X195632053Y-98455462D01*
X195517767Y-98455462D01*
X195441577Y-98417366D01*
X195403481Y-98341176D01*
X195403481Y-98303081D01*
X195441577Y-98226890D01*
X195517767Y-98188795D01*
X195632053Y-98188795D01*
X195708243Y-98226890D01*
X196089196Y-98645938D02*
X196127291Y-98684033D01*
X196089196Y-98722128D01*
X196051100Y-98684033D01*
X196089196Y-98645938D01*
X196089196Y-98722128D01*
X196089196Y-98226890D02*
X196127291Y-98264985D01*
X196089196Y-98303081D01*
X196051100Y-98264985D01*
X196089196Y-98226890D01*
X196089196Y-98303081D01*
X190489196Y-100010128D02*
X190489196Y-99210128D01*
X190832053Y-100010128D02*
X190832053Y-99591081D01*
X190793958Y-99514890D01*
X190717767Y-99476795D01*
X190603481Y-99476795D01*
X190527291Y-99514890D01*
X190489196Y-99552985D01*
X191098720Y-99476795D02*
X191403481Y-99476795D01*
X191213005Y-99210128D02*
X191213005Y-99895843D01*
X191251100Y-99972033D01*
X191327291Y-100010128D01*
X191403481Y-100010128D01*
X191555862Y-99476795D02*
X191860624Y-99476795D01*
X191670148Y-99210128D02*
X191670148Y-99895843D01*
X191708243Y-99972033D01*
X191784434Y-100010128D01*
X191860624Y-100010128D01*
X192127291Y-99476795D02*
X192127291Y-100276795D01*
X192127291Y-99514890D02*
X192203481Y-99476795D01*
X192355862Y-99476795D01*
X192432053Y-99514890D01*
X192470148Y-99552985D01*
X192508243Y-99629176D01*
X192508243Y-99857747D01*
X192470148Y-99933938D01*
X192432053Y-99972033D01*
X192355862Y-100010128D01*
X192203481Y-100010128D01*
X192127291Y-99972033D01*
X192813005Y-99972033D02*
X192889196Y-100010128D01*
X193041577Y-100010128D01*
X193117767Y-99972033D01*
X193155862Y-99895843D01*
X193155862Y-99857747D01*
X193117767Y-99781557D01*
X193041577Y-99743462D01*
X192927291Y-99743462D01*
X192851100Y-99705366D01*
X192813005Y-99629176D01*
X192813005Y-99591081D01*
X192851100Y-99514890D01*
X192927291Y-99476795D01*
X193041577Y-99476795D01*
X193117767Y-99514890D01*
X193498720Y-99933938D02*
X193536815Y-99972033D01*
X193498720Y-100010128D01*
X193460624Y-99972033D01*
X193498720Y-99933938D01*
X193498720Y-100010128D01*
X193498720Y-99514890D02*
X193536815Y-99552985D01*
X193498720Y-99591081D01*
X193460624Y-99552985D01*
X193498720Y-99514890D01*
X193498720Y-99591081D01*
X194451100Y-99172033D02*
X193765386Y-100200604D01*
X195289196Y-99172033D02*
X194603481Y-100200604D01*
X195555862Y-100010128D02*
X195555862Y-99210128D01*
X195555862Y-99514890D02*
X195632053Y-99476795D01*
X195784434Y-99476795D01*
X195860624Y-99514890D01*
X195898720Y-99552985D01*
X195936815Y-99629176D01*
X195936815Y-99857747D01*
X195898720Y-99933938D01*
X195860624Y-99972033D01*
X195784434Y-100010128D01*
X195632053Y-100010128D01*
X195555862Y-99972033D01*
X196279672Y-100010128D02*
X196279672Y-99476795D01*
X196279672Y-99210128D02*
X196241577Y-99248224D01*
X196279672Y-99286319D01*
X196317767Y-99248224D01*
X196279672Y-99210128D01*
X196279672Y-99286319D01*
X196546339Y-99476795D02*
X196851100Y-99476795D01*
X196660624Y-99210128D02*
X196660624Y-99895843D01*
X196698720Y-99972033D01*
X196774910Y-100010128D01*
X196851100Y-100010128D01*
X197117767Y-99933938D02*
X197155862Y-99972033D01*
X197117767Y-100010128D01*
X197079672Y-99972033D01*
X197117767Y-99933938D01*
X197117767Y-100010128D01*
X197613005Y-100010128D02*
X197536815Y-99972033D01*
X197498720Y-99895843D01*
X197498720Y-99210128D01*
X197841577Y-99476795D02*
X198032053Y-100010128D01*
X198222529Y-99476795D02*
X198032053Y-100010128D01*
X197955862Y-100200604D01*
X197917767Y-100238700D01*
X197841577Y-100276795D01*
X199098720Y-99172033D02*
X198413005Y-100200604D01*
X190413005Y-101298128D02*
X190832053Y-100764795D01*
X190413005Y-100764795D02*
X190832053Y-101298128D01*
X191060624Y-101298128D02*
X191479672Y-100764795D01*
X191060624Y-100764795D02*
X191479672Y-101298128D01*
X191708243Y-101298128D02*
X192127291Y-100764795D01*
X191708243Y-100764795D02*
X192127291Y-101298128D01*
X192355862Y-101298128D02*
X192774910Y-100764795D01*
X192355862Y-100764795D02*
X192774910Y-101298128D01*
D11*
X99722280Y-84976626D02*
X99484185Y-84857578D01*
X99127042Y-84857578D01*
X98769899Y-84976626D01*
X98531804Y-85214721D01*
X98412757Y-85452816D01*
X98293709Y-85929006D01*
X98293709Y-86286149D01*
X98412757Y-86762340D01*
X98531804Y-87000435D01*
X98769899Y-87238530D01*
X99127042Y-87357578D01*
X99365138Y-87357578D01*
X99722280Y-87238530D01*
X99841328Y-87119483D01*
X99841328Y-86286149D01*
X99365138Y-86286149D01*
X101269899Y-87357578D02*
X101031804Y-87238530D01*
X100912757Y-87000435D01*
X100912757Y-84857578D01*
X102579423Y-87357578D02*
X102341328Y-87238530D01*
X102222280Y-87119483D01*
X102103233Y-86881387D01*
X102103233Y-86167102D01*
X102222280Y-85929006D01*
X102341328Y-85809959D01*
X102579423Y-85690911D01*
X102936566Y-85690911D01*
X103174661Y-85809959D01*
X103293709Y-85929006D01*
X103412757Y-86167102D01*
X103412757Y-86881387D01*
X103293709Y-87119483D01*
X103174661Y-87238530D01*
X102936566Y-87357578D01*
X102579423Y-87357578D01*
X104246090Y-85690911D02*
X104722280Y-87357578D01*
X105198471Y-86167102D01*
X105674661Y-87357578D01*
X106150852Y-85690911D01*
X106984185Y-87238530D02*
X107341328Y-87357578D01*
X107936566Y-87357578D01*
X108174661Y-87238530D01*
X108293709Y-87119483D01*
X108412757Y-86881387D01*
X108412757Y-86643292D01*
X108293709Y-86405197D01*
X108174661Y-86286149D01*
X107936566Y-86167102D01*
X107460376Y-86048054D01*
X107222280Y-85929006D01*
X107103233Y-85809959D01*
X106984185Y-85571864D01*
X106984185Y-85333768D01*
X107103233Y-85095673D01*
X107222280Y-84976626D01*
X107460376Y-84857578D01*
X108055614Y-84857578D01*
X108412757Y-84976626D01*
X109484185Y-87357578D02*
X109484185Y-85690911D01*
X109484185Y-84857578D02*
X109365138Y-84976626D01*
X109484185Y-85095673D01*
X109603233Y-84976626D01*
X109484185Y-84857578D01*
X109484185Y-85095673D01*
X111746090Y-85690911D02*
X111746090Y-87714721D01*
X111627042Y-87952816D01*
X111507995Y-88071864D01*
X111269899Y-88190911D01*
X110912757Y-88190911D01*
X110674661Y-88071864D01*
X111746090Y-87238530D02*
X111507995Y-87357578D01*
X111031804Y-87357578D01*
X110793709Y-87238530D01*
X110674661Y-87119483D01*
X110555614Y-86881387D01*
X110555614Y-86167102D01*
X110674661Y-85929006D01*
X110793709Y-85809959D01*
X111031804Y-85690911D01*
X111507995Y-85690911D01*
X111746090Y-85809959D01*
X112936566Y-85690911D02*
X112936566Y-87357578D01*
X112936566Y-85929006D02*
X113055614Y-85809959D01*
X113293709Y-85690911D01*
X113650852Y-85690911D01*
X113888947Y-85809959D01*
X114007995Y-86048054D01*
X114007995Y-87357578D01*
%TO.C,OSHW logo*%
G36*
X195187346Y-108909979D02*
G01*
X195253278Y-108934308D01*
X195306693Y-108977341D01*
X195327584Y-109007633D01*
X195350359Y-109063218D01*
X195349886Y-109103410D01*
X195325982Y-109130441D01*
X195317137Y-109135037D01*
X195278950Y-109149368D01*
X195259448Y-109145696D01*
X195252842Y-109121631D01*
X195252506Y-109108338D01*
X195240412Y-109059434D01*
X195208891Y-109025223D01*
X195165079Y-109008700D01*
X195116115Y-109012858D01*
X195076314Y-109034451D01*
X195062870Y-109046768D01*
X195053341Y-109061711D01*
X195046905Y-109084299D01*
X195042737Y-109119552D01*
X195040017Y-109172490D01*
X195037922Y-109248131D01*
X195037380Y-109272081D01*
X195035401Y-109354014D01*
X195033151Y-109411679D01*
X195029777Y-109449832D01*
X195024426Y-109473228D01*
X195016244Y-109486622D01*
X195004379Y-109494769D01*
X194996782Y-109498368D01*
X194964522Y-109510676D01*
X194945531Y-109514738D01*
X194939256Y-109501172D01*
X194935426Y-109460158D01*
X194934020Y-109391223D01*
X194935018Y-109293893D01*
X194935328Y-109278881D01*
X194937521Y-109190083D01*
X194940113Y-109125243D01*
X194943802Y-109079291D01*
X194949284Y-109047159D01*
X194957255Y-109023777D01*
X194968413Y-109004076D01*
X194974250Y-108995634D01*
X195007716Y-108958281D01*
X195045147Y-108929227D01*
X195049729Y-108926691D01*
X195116846Y-108906667D01*
X195187346Y-108909979D01*
G37*
D12*
X195187346Y-108909979D02*
X195253278Y-108934308D01*
X195306693Y-108977341D01*
X195327584Y-109007633D01*
X195350359Y-109063218D01*
X195349886Y-109103410D01*
X195325982Y-109130441D01*
X195317137Y-109135037D01*
X195278950Y-109149368D01*
X195259448Y-109145696D01*
X195252842Y-109121631D01*
X195252506Y-109108338D01*
X195240412Y-109059434D01*
X195208891Y-109025223D01*
X195165079Y-109008700D01*
X195116115Y-109012858D01*
X195076314Y-109034451D01*
X195062870Y-109046768D01*
X195053341Y-109061711D01*
X195046905Y-109084299D01*
X195042737Y-109119552D01*
X195040017Y-109172490D01*
X195037922Y-109248131D01*
X195037380Y-109272081D01*
X195035401Y-109354014D01*
X195033151Y-109411679D01*
X195029777Y-109449832D01*
X195024426Y-109473228D01*
X195016244Y-109486622D01*
X195004379Y-109494769D01*
X194996782Y-109498368D01*
X194964522Y-109510676D01*
X194945531Y-109514738D01*
X194939256Y-109501172D01*
X194935426Y-109460158D01*
X194934020Y-109391223D01*
X194935018Y-109293893D01*
X194935328Y-109278881D01*
X194937521Y-109190083D01*
X194940113Y-109125243D01*
X194943802Y-109079291D01*
X194949284Y-109047159D01*
X194957255Y-109023777D01*
X194968413Y-109004076D01*
X194974250Y-108995634D01*
X195007716Y-108958281D01*
X195045147Y-108929227D01*
X195049729Y-108926691D01*
X195116846Y-108906667D01*
X195187346Y-108909979D01*
G36*
X191951097Y-109110557D02*
G01*
X191953870Y-109063182D01*
X191957808Y-109029514D01*
X191963269Y-109005722D01*
X191970612Y-108987977D01*
X191980197Y-108972448D01*
X191984307Y-108966605D01*
X192038825Y-108911409D01*
X192107756Y-108880114D01*
X192187492Y-108871389D01*
X192257164Y-108880142D01*
X192312621Y-108907792D01*
X192361568Y-108958704D01*
X192375049Y-108977562D01*
X192389734Y-109002239D01*
X192399262Y-109029040D01*
X192404713Y-109064811D01*
X192407167Y-109116393D01*
X192407706Y-109184491D01*
X192405272Y-109277812D01*
X192396814Y-109347881D01*
X192380594Y-109400155D01*
X192354874Y-109440093D01*
X192317917Y-109473153D01*
X192315202Y-109475110D01*
X192278780Y-109495132D01*
X192234922Y-109505039D01*
X192179144Y-109507481D01*
X192088468Y-109507481D01*
X192088430Y-109595507D01*
X192087586Y-109644532D01*
X192082444Y-109673289D01*
X192069007Y-109690535D01*
X192043278Y-109705032D01*
X192037099Y-109707993D01*
X192008184Y-109721872D01*
X191985796Y-109730638D01*
X191969149Y-109731395D01*
X191957456Y-109721247D01*
X191949930Y-109697297D01*
X191945786Y-109656650D01*
X191944235Y-109596410D01*
X191944491Y-109513679D01*
X191945769Y-109405563D01*
X191946168Y-109373224D01*
X191947605Y-109261748D01*
X191948892Y-109188827D01*
X192088391Y-109188827D01*
X192089175Y-109250723D01*
X192092660Y-109291221D01*
X192100544Y-109317932D01*
X192114525Y-109338468D01*
X192124017Y-109348484D01*
X192162824Y-109377791D01*
X192197183Y-109380176D01*
X192232636Y-109355974D01*
X192233534Y-109355081D01*
X192247959Y-109336377D01*
X192256733Y-109310956D01*
X192261159Y-109271808D01*
X192262538Y-109211921D01*
X192262563Y-109198654D01*
X192259232Y-109116125D01*
X192248389Y-109058915D01*
X192228760Y-109023990D01*
X192199070Y-109008318D01*
X192181911Y-109006738D01*
X192141186Y-109014150D01*
X192113252Y-109038554D01*
X192096437Y-109083204D01*
X192089070Y-109151354D01*
X192088391Y-109188827D01*
X191948892Y-109188827D01*
X191949128Y-109175469D01*
X191951097Y-109110557D01*
G37*
X191951097Y-109110557D02*
X191953870Y-109063182D01*
X191957808Y-109029514D01*
X191963269Y-109005722D01*
X191970612Y-108987977D01*
X191980197Y-108972448D01*
X191984307Y-108966605D01*
X192038825Y-108911409D01*
X192107756Y-108880114D01*
X192187492Y-108871389D01*
X192257164Y-108880142D01*
X192312621Y-108907792D01*
X192361568Y-108958704D01*
X192375049Y-108977562D01*
X192389734Y-109002239D01*
X192399262Y-109029040D01*
X192404713Y-109064811D01*
X192407167Y-109116393D01*
X192407706Y-109184491D01*
X192405272Y-109277812D01*
X192396814Y-109347881D01*
X192380594Y-109400155D01*
X192354874Y-109440093D01*
X192317917Y-109473153D01*
X192315202Y-109475110D01*
X192278780Y-109495132D01*
X192234922Y-109505039D01*
X192179144Y-109507481D01*
X192088468Y-109507481D01*
X192088430Y-109595507D01*
X192087586Y-109644532D01*
X192082444Y-109673289D01*
X192069007Y-109690535D01*
X192043278Y-109705032D01*
X192037099Y-109707993D01*
X192008184Y-109721872D01*
X191985796Y-109730638D01*
X191969149Y-109731395D01*
X191957456Y-109721247D01*
X191949930Y-109697297D01*
X191945786Y-109656650D01*
X191944235Y-109596410D01*
X191944491Y-109513679D01*
X191945769Y-109405563D01*
X191946168Y-109373224D01*
X191947605Y-109261748D01*
X191948892Y-109188827D01*
X192088391Y-109188827D01*
X192089175Y-109250723D01*
X192092660Y-109291221D01*
X192100544Y-109317932D01*
X192114525Y-109338468D01*
X192124017Y-109348484D01*
X192162824Y-109377791D01*
X192197183Y-109380176D01*
X192232636Y-109355974D01*
X192233534Y-109355081D01*
X192247959Y-109336377D01*
X192256733Y-109310956D01*
X192261159Y-109271808D01*
X192262538Y-109211921D01*
X192262563Y-109198654D01*
X192259232Y-109116125D01*
X192248389Y-109058915D01*
X192228760Y-109023990D01*
X192199070Y-109008318D01*
X192181911Y-109006738D01*
X192141186Y-109014150D01*
X192113252Y-109038554D01*
X192096437Y-109083204D01*
X192089070Y-109151354D01*
X192088391Y-109188827D01*
X191948892Y-109188827D01*
X191949128Y-109175469D01*
X191951097Y-109110557D01*
G36*
X191394516Y-109068383D02*
G01*
X191399488Y-109032173D01*
X191408133Y-109005523D01*
X191421425Y-108981946D01*
X191424363Y-108977562D01*
X191473733Y-108918473D01*
X191527529Y-108884171D01*
X191593022Y-108870555D01*
X191615262Y-108869889D01*
X191698535Y-108882186D01*
X191766565Y-108917957D01*
X191816771Y-108975525D01*
X191834605Y-109012536D01*
X191848483Y-109068106D01*
X191855587Y-109138320D01*
X191856260Y-109214951D01*
X191850847Y-109289776D01*
X191839690Y-109354566D01*
X191823134Y-109401097D01*
X191818046Y-109409111D01*
X191757775Y-109468931D01*
X191686189Y-109504759D01*
X191608512Y-109515244D01*
X191529968Y-109499034D01*
X191508109Y-109489316D01*
X191465542Y-109459367D01*
X191428183Y-109419657D01*
X191424652Y-109414621D01*
X191410301Y-109390348D01*
X191400814Y-109364402D01*
X191395210Y-109330246D01*
X191392506Y-109281343D01*
X191391719Y-109211159D01*
X191391706Y-109195424D01*
X191391742Y-109190416D01*
X191536849Y-109190416D01*
X191537693Y-109256654D01*
X191541016Y-109300610D01*
X191548003Y-109329003D01*
X191559836Y-109348549D01*
X191565877Y-109355081D01*
X191600606Y-109379904D01*
X191634323Y-109378772D01*
X191668415Y-109357240D01*
X191688749Y-109334253D01*
X191700791Y-109300702D01*
X191707554Y-109247793D01*
X191708018Y-109241623D01*
X191709172Y-109145737D01*
X191697108Y-109074523D01*
X191671990Y-109028418D01*
X191633980Y-109007859D01*
X191620412Y-109006738D01*
X191584784Y-109012376D01*
X191560414Y-109031910D01*
X191545513Y-109069266D01*
X191538295Y-109128374D01*
X191536849Y-109190416D01*
X191391742Y-109190416D01*
X191392246Y-109120637D01*
X191394516Y-109068383D01*
G37*
X191394516Y-109068383D02*
X191399488Y-109032173D01*
X191408133Y-109005523D01*
X191421425Y-108981946D01*
X191424363Y-108977562D01*
X191473733Y-108918473D01*
X191527529Y-108884171D01*
X191593022Y-108870555D01*
X191615262Y-108869889D01*
X191698535Y-108882186D01*
X191766565Y-108917957D01*
X191816771Y-108975525D01*
X191834605Y-109012536D01*
X191848483Y-109068106D01*
X191855587Y-109138320D01*
X191856260Y-109214951D01*
X191850847Y-109289776D01*
X191839690Y-109354566D01*
X191823134Y-109401097D01*
X191818046Y-109409111D01*
X191757775Y-109468931D01*
X191686189Y-109504759D01*
X191608512Y-109515244D01*
X191529968Y-109499034D01*
X191508109Y-109489316D01*
X191465542Y-109459367D01*
X191428183Y-109419657D01*
X191424652Y-109414621D01*
X191410301Y-109390348D01*
X191400814Y-109364402D01*
X191395210Y-109330246D01*
X191392506Y-109281343D01*
X191391719Y-109211159D01*
X191391706Y-109195424D01*
X191391742Y-109190416D01*
X191536849Y-109190416D01*
X191537693Y-109256654D01*
X191541016Y-109300610D01*
X191548003Y-109329003D01*
X191559836Y-109348549D01*
X191565877Y-109355081D01*
X191600606Y-109379904D01*
X191634323Y-109378772D01*
X191668415Y-109357240D01*
X191688749Y-109334253D01*
X191700791Y-109300702D01*
X191707554Y-109247793D01*
X191708018Y-109241623D01*
X191709172Y-109145737D01*
X191697108Y-109074523D01*
X191671990Y-109028418D01*
X191633980Y-109007859D01*
X191620412Y-109006738D01*
X191584784Y-109012376D01*
X191560414Y-109031910D01*
X191545513Y-109069266D01*
X191538295Y-109128374D01*
X191536849Y-109190416D01*
X191391742Y-109190416D01*
X191392246Y-109120637D01*
X191394516Y-109068383D01*
G36*
X194697164Y-108911192D02*
G01*
X194754036Y-108932311D01*
X194754687Y-108932717D01*
X194789860Y-108958604D01*
X194815827Y-108988857D01*
X194834090Y-109028282D01*
X194846152Y-109081686D01*
X194853516Y-109153875D01*
X194857684Y-109249656D01*
X194858049Y-109263302D01*
X194863296Y-109469066D01*
X194819136Y-109491902D01*
X194787183Y-109507334D01*
X194767890Y-109514647D01*
X194766998Y-109514738D01*
X194763659Y-109501246D01*
X194761007Y-109464850D01*
X194759376Y-109411676D01*
X194759020Y-109368617D01*
X194759012Y-109298865D01*
X194755823Y-109255061D01*
X194744708Y-109234168D01*
X194720921Y-109233149D01*
X194679716Y-109248965D01*
X194617506Y-109278039D01*
X194571761Y-109302187D01*
X194548233Y-109323137D01*
X194541316Y-109345971D01*
X194541306Y-109347101D01*
X194552719Y-109386436D01*
X194586512Y-109407686D01*
X194638229Y-109410763D01*
X194675481Y-109410230D01*
X194695123Y-109420959D01*
X194707372Y-109446729D01*
X194714422Y-109479561D01*
X194704262Y-109498190D01*
X194700437Y-109500856D01*
X194664421Y-109511564D01*
X194613986Y-109513080D01*
X194562046Y-109505983D01*
X194525242Y-109493012D01*
X194474358Y-109449809D01*
X194445434Y-109389670D01*
X194439706Y-109342686D01*
X194444077Y-109300306D01*
X194459895Y-109265712D01*
X194491217Y-109234987D01*
X194542098Y-109204214D01*
X194616596Y-109169476D01*
X194621134Y-109167512D01*
X194688241Y-109136511D01*
X194729652Y-109111086D01*
X194747401Y-109088238D01*
X194743527Y-109064969D01*
X194720063Y-109038280D01*
X194713047Y-109032138D01*
X194666050Y-109008324D01*
X194617353Y-109009327D01*
X194574942Y-109032675D01*
X194546804Y-109075899D01*
X194544189Y-109084384D01*
X194518728Y-109125532D01*
X194486421Y-109145352D01*
X194439706Y-109164994D01*
X194439706Y-109114174D01*
X194453916Y-109040306D01*
X194496095Y-108972551D01*
X194518044Y-108949885D01*
X194567937Y-108920793D01*
X194631387Y-108907624D01*
X194697164Y-108911192D01*
G37*
X194697164Y-108911192D02*
X194754036Y-108932311D01*
X194754687Y-108932717D01*
X194789860Y-108958604D01*
X194815827Y-108988857D01*
X194834090Y-109028282D01*
X194846152Y-109081686D01*
X194853516Y-109153875D01*
X194857684Y-109249656D01*
X194858049Y-109263302D01*
X194863296Y-109469066D01*
X194819136Y-109491902D01*
X194787183Y-109507334D01*
X194767890Y-109514647D01*
X194766998Y-109514738D01*
X194763659Y-109501246D01*
X194761007Y-109464850D01*
X194759376Y-109411676D01*
X194759020Y-109368617D01*
X194759012Y-109298865D01*
X194755823Y-109255061D01*
X194744708Y-109234168D01*
X194720921Y-109233149D01*
X194679716Y-109248965D01*
X194617506Y-109278039D01*
X194571761Y-109302187D01*
X194548233Y-109323137D01*
X194541316Y-109345971D01*
X194541306Y-109347101D01*
X194552719Y-109386436D01*
X194586512Y-109407686D01*
X194638229Y-109410763D01*
X194675481Y-109410230D01*
X194695123Y-109420959D01*
X194707372Y-109446729D01*
X194714422Y-109479561D01*
X194704262Y-109498190D01*
X194700437Y-109500856D01*
X194664421Y-109511564D01*
X194613986Y-109513080D01*
X194562046Y-109505983D01*
X194525242Y-109493012D01*
X194474358Y-109449809D01*
X194445434Y-109389670D01*
X194439706Y-109342686D01*
X194444077Y-109300306D01*
X194459895Y-109265712D01*
X194491217Y-109234987D01*
X194542098Y-109204214D01*
X194616596Y-109169476D01*
X194621134Y-109167512D01*
X194688241Y-109136511D01*
X194729652Y-109111086D01*
X194747401Y-109088238D01*
X194743527Y-109064969D01*
X194720063Y-109038280D01*
X194713047Y-109032138D01*
X194666050Y-109008324D01*
X194617353Y-109009327D01*
X194574942Y-109032675D01*
X194546804Y-109075899D01*
X194544189Y-109084384D01*
X194518728Y-109125532D01*
X194486421Y-109145352D01*
X194439706Y-109164994D01*
X194439706Y-109114174D01*
X194453916Y-109040306D01*
X194496095Y-108972551D01*
X194518044Y-108949885D01*
X194567937Y-108920793D01*
X194631387Y-108907624D01*
X194697164Y-108911192D01*
G36*
X197525616Y-109055608D02*
G01*
X197539304Y-109006919D01*
X197561516Y-108971073D01*
X197593994Y-108942737D01*
X197608153Y-108933579D01*
X197672473Y-108909731D01*
X197742893Y-108908230D01*
X197811015Y-108927190D01*
X197868441Y-108964721D01*
X197896139Y-108998320D01*
X197918082Y-109059288D01*
X197919825Y-109107532D01*
X197915877Y-109172040D01*
X197767106Y-109237158D01*
X197694769Y-109270426D01*
X197647504Y-109297188D01*
X197622927Y-109320368D01*
X197618657Y-109342891D01*
X197632309Y-109367679D01*
X197647363Y-109384110D01*
X197691166Y-109410459D01*
X197738809Y-109412305D01*
X197782565Y-109391770D01*
X197814709Y-109350976D01*
X197820458Y-109336571D01*
X197847996Y-109291580D01*
X197879678Y-109272406D01*
X197923134Y-109256003D01*
X197923134Y-109318190D01*
X197919292Y-109360507D01*
X197904243Y-109396193D01*
X197872700Y-109437167D01*
X197868012Y-109442491D01*
X197832926Y-109478944D01*
X197802767Y-109498507D01*
X197765035Y-109507507D01*
X197733755Y-109510454D01*
X197677805Y-109511189D01*
X197637975Y-109501884D01*
X197613128Y-109488070D01*
X197574076Y-109457691D01*
X197547045Y-109424837D01*
X197529937Y-109383518D01*
X197520658Y-109327745D01*
X197517113Y-109251529D01*
X197516830Y-109212846D01*
X197517792Y-109166471D01*
X197605427Y-109166471D01*
X197606443Y-109191350D01*
X197608976Y-109195424D01*
X197625694Y-109189889D01*
X197661669Y-109175241D01*
X197709751Y-109154414D01*
X197719806Y-109149938D01*
X197780572Y-109119038D01*
X197814052Y-109091881D01*
X197821410Y-109066444D01*
X197803811Y-109040705D01*
X197789276Y-109029333D01*
X197736830Y-109006588D01*
X197687742Y-109010346D01*
X197646647Y-109038108D01*
X197618178Y-109087376D01*
X197609051Y-109126481D01*
X197605427Y-109166471D01*
X197517792Y-109166471D01*
X197518705Y-109122473D01*
X197525616Y-109055608D01*
G37*
X197525616Y-109055608D02*
X197539304Y-109006919D01*
X197561516Y-108971073D01*
X197593994Y-108942737D01*
X197608153Y-108933579D01*
X197672473Y-108909731D01*
X197742893Y-108908230D01*
X197811015Y-108927190D01*
X197868441Y-108964721D01*
X197896139Y-108998320D01*
X197918082Y-109059288D01*
X197919825Y-109107532D01*
X197915877Y-109172040D01*
X197767106Y-109237158D01*
X197694769Y-109270426D01*
X197647504Y-109297188D01*
X197622927Y-109320368D01*
X197618657Y-109342891D01*
X197632309Y-109367679D01*
X197647363Y-109384110D01*
X197691166Y-109410459D01*
X197738809Y-109412305D01*
X197782565Y-109391770D01*
X197814709Y-109350976D01*
X197820458Y-109336571D01*
X197847996Y-109291580D01*
X197879678Y-109272406D01*
X197923134Y-109256003D01*
X197923134Y-109318190D01*
X197919292Y-109360507D01*
X197904243Y-109396193D01*
X197872700Y-109437167D01*
X197868012Y-109442491D01*
X197832926Y-109478944D01*
X197802767Y-109498507D01*
X197765035Y-109507507D01*
X197733755Y-109510454D01*
X197677805Y-109511189D01*
X197637975Y-109501884D01*
X197613128Y-109488070D01*
X197574076Y-109457691D01*
X197547045Y-109424837D01*
X197529937Y-109383518D01*
X197520658Y-109327745D01*
X197517113Y-109251529D01*
X197516830Y-109212846D01*
X197517792Y-109166471D01*
X197605427Y-109166471D01*
X197606443Y-109191350D01*
X197608976Y-109195424D01*
X197625694Y-109189889D01*
X197661669Y-109175241D01*
X197709751Y-109154414D01*
X197719806Y-109149938D01*
X197780572Y-109119038D01*
X197814052Y-109091881D01*
X197821410Y-109066444D01*
X197803811Y-109040705D01*
X197789276Y-109029333D01*
X197736830Y-109006588D01*
X197687742Y-109010346D01*
X197646647Y-109038108D01*
X197618178Y-109087376D01*
X197609051Y-109126481D01*
X197605427Y-109166471D01*
X197517792Y-109166471D01*
X197518705Y-109122473D01*
X197525616Y-109055608D01*
G36*
X192528970Y-108996436D02*
G01*
X192562876Y-108947526D01*
X192624073Y-108898102D01*
X192691483Y-108873583D01*
X192760300Y-108872021D01*
X192825723Y-108891463D01*
X192882947Y-108929959D01*
X192927169Y-108985559D01*
X192953587Y-109056310D01*
X192958930Y-109108386D01*
X192958323Y-109130117D01*
X192953242Y-109146755D01*
X192939275Y-109161661D01*
X192912009Y-109178197D01*
X192867032Y-109199722D01*
X192799931Y-109229598D01*
X192799591Y-109229748D01*
X192737827Y-109258037D01*
X192687179Y-109283157D01*
X192652824Y-109302403D01*
X192639938Y-109313072D01*
X192639934Y-109313158D01*
X192651292Y-109336390D01*
X192677851Y-109361998D01*
X192708343Y-109380445D01*
X192723790Y-109384110D01*
X192765935Y-109371436D01*
X192802228Y-109339695D01*
X192819937Y-109304796D01*
X192836972Y-109279069D01*
X192870342Y-109249770D01*
X192909569Y-109224459D01*
X192944176Y-109210695D01*
X192951413Y-109209938D01*
X192959559Y-109222384D01*
X192960050Y-109254196D01*
X192954063Y-109297090D01*
X192942777Y-109342782D01*
X192927370Y-109382985D01*
X192926591Y-109384546D01*
X192880224Y-109449286D01*
X192820131Y-109493321D01*
X192751885Y-109514935D01*
X192681058Y-109512409D01*
X192613224Y-109484028D01*
X192610208Y-109482032D01*
X192556847Y-109433672D01*
X192521760Y-109370576D01*
X192502342Y-109287611D01*
X192499736Y-109264302D01*
X192495121Y-109154279D01*
X192500653Y-109102972D01*
X192639934Y-109102972D01*
X192641744Y-109134977D01*
X192651642Y-109144317D01*
X192676318Y-109137329D01*
X192715215Y-109120811D01*
X192758695Y-109100105D01*
X192759776Y-109099557D01*
X192796629Y-109080173D01*
X192811420Y-109067237D01*
X192807773Y-109053675D01*
X192792415Y-109035856D01*
X192753343Y-109010069D01*
X192711266Y-109008174D01*
X192673523Y-109026941D01*
X192647454Y-109063139D01*
X192639934Y-109102972D01*
X192500653Y-109102972D01*
X192504614Y-109066251D01*
X192528970Y-108996436D01*
G37*
X192528970Y-108996436D02*
X192562876Y-108947526D01*
X192624073Y-108898102D01*
X192691483Y-108873583D01*
X192760300Y-108872021D01*
X192825723Y-108891463D01*
X192882947Y-108929959D01*
X192927169Y-108985559D01*
X192953587Y-109056310D01*
X192958930Y-109108386D01*
X192958323Y-109130117D01*
X192953242Y-109146755D01*
X192939275Y-109161661D01*
X192912009Y-109178197D01*
X192867032Y-109199722D01*
X192799931Y-109229598D01*
X192799591Y-109229748D01*
X192737827Y-109258037D01*
X192687179Y-109283157D01*
X192652824Y-109302403D01*
X192639938Y-109313072D01*
X192639934Y-109313158D01*
X192651292Y-109336390D01*
X192677851Y-109361998D01*
X192708343Y-109380445D01*
X192723790Y-109384110D01*
X192765935Y-109371436D01*
X192802228Y-109339695D01*
X192819937Y-109304796D01*
X192836972Y-109279069D01*
X192870342Y-109249770D01*
X192909569Y-109224459D01*
X192944176Y-109210695D01*
X192951413Y-109209938D01*
X192959559Y-109222384D01*
X192960050Y-109254196D01*
X192954063Y-109297090D01*
X192942777Y-109342782D01*
X192927370Y-109382985D01*
X192926591Y-109384546D01*
X192880224Y-109449286D01*
X192820131Y-109493321D01*
X192751885Y-109514935D01*
X192681058Y-109512409D01*
X192613224Y-109484028D01*
X192610208Y-109482032D01*
X192556847Y-109433672D01*
X192521760Y-109370576D01*
X192502342Y-109287611D01*
X192499736Y-109264302D01*
X192495121Y-109154279D01*
X192500653Y-109102972D01*
X192639934Y-109102972D01*
X192641744Y-109134977D01*
X192651642Y-109144317D01*
X192676318Y-109137329D01*
X192715215Y-109120811D01*
X192758695Y-109100105D01*
X192759776Y-109099557D01*
X192796629Y-109080173D01*
X192811420Y-109067237D01*
X192807773Y-109053675D01*
X192792415Y-109035856D01*
X192753343Y-109010069D01*
X192711266Y-109008174D01*
X192673523Y-109026941D01*
X192647454Y-109063139D01*
X192639934Y-109102972D01*
X192500653Y-109102972D01*
X192504614Y-109066251D01*
X192528970Y-108996436D01*
G36*
X196802296Y-108916559D02*
G01*
X196844087Y-108935568D01*
X196876889Y-108958602D01*
X196900923Y-108984357D01*
X196917517Y-109017582D01*
X196927997Y-109063024D01*
X196933691Y-109125431D01*
X196935927Y-109209551D01*
X196936163Y-109264945D01*
X196936163Y-109481050D01*
X196899194Y-109497894D01*
X196870076Y-109510205D01*
X196855651Y-109514738D01*
X196852892Y-109501249D01*
X196850702Y-109464877D01*
X196849362Y-109411766D01*
X196849077Y-109369596D01*
X196847854Y-109308671D01*
X196844556Y-109260339D01*
X196839741Y-109230742D01*
X196835916Y-109224453D01*
X196810203Y-109230876D01*
X196769838Y-109247349D01*
X196723099Y-109269682D01*
X196678265Y-109293681D01*
X196643613Y-109315154D01*
X196627422Y-109329909D01*
X196627358Y-109330069D01*
X196628750Y-109357376D01*
X196641238Y-109383443D01*
X196663163Y-109404616D01*
X196695163Y-109411698D01*
X196722512Y-109410873D01*
X196761246Y-109410266D01*
X196781578Y-109419340D01*
X196793789Y-109443316D01*
X196795329Y-109447837D01*
X196800623Y-109482030D01*
X196786467Y-109502792D01*
X196749568Y-109512686D01*
X196709709Y-109514516D01*
X196637982Y-109500951D01*
X196600852Y-109481579D01*
X196554996Y-109436069D01*
X196530676Y-109380207D01*
X196528493Y-109321181D01*
X196549049Y-109266177D01*
X196579969Y-109231710D01*
X196610840Y-109212413D01*
X196659362Y-109187983D01*
X196715905Y-109163209D01*
X196725330Y-109159423D01*
X196787439Y-109132015D01*
X196823242Y-109107858D01*
X196834757Y-109083843D01*
X196824000Y-109056859D01*
X196805534Y-109035767D01*
X196761889Y-109009796D01*
X196713866Y-109007848D01*
X196669826Y-109027861D01*
X196638129Y-109067775D01*
X196633969Y-109078072D01*
X196609747Y-109115948D01*
X196574385Y-109144066D01*
X196529763Y-109167141D01*
X196529763Y-109101709D01*
X196532389Y-109061730D01*
X196543650Y-109030221D01*
X196568619Y-108996602D01*
X196592589Y-108970708D01*
X196629861Y-108934041D01*
X196658821Y-108914345D01*
X196689925Y-108906444D01*
X196725133Y-108905138D01*
X196802296Y-108916559D01*
G37*
X196802296Y-108916559D02*
X196844087Y-108935568D01*
X196876889Y-108958602D01*
X196900923Y-108984357D01*
X196917517Y-109017582D01*
X196927997Y-109063024D01*
X196933691Y-109125431D01*
X196935927Y-109209551D01*
X196936163Y-109264945D01*
X196936163Y-109481050D01*
X196899194Y-109497894D01*
X196870076Y-109510205D01*
X196855651Y-109514738D01*
X196852892Y-109501249D01*
X196850702Y-109464877D01*
X196849362Y-109411766D01*
X196849077Y-109369596D01*
X196847854Y-109308671D01*
X196844556Y-109260339D01*
X196839741Y-109230742D01*
X196835916Y-109224453D01*
X196810203Y-109230876D01*
X196769838Y-109247349D01*
X196723099Y-109269682D01*
X196678265Y-109293681D01*
X196643613Y-109315154D01*
X196627422Y-109329909D01*
X196627358Y-109330069D01*
X196628750Y-109357376D01*
X196641238Y-109383443D01*
X196663163Y-109404616D01*
X196695163Y-109411698D01*
X196722512Y-109410873D01*
X196761246Y-109410266D01*
X196781578Y-109419340D01*
X196793789Y-109443316D01*
X196795329Y-109447837D01*
X196800623Y-109482030D01*
X196786467Y-109502792D01*
X196749568Y-109512686D01*
X196709709Y-109514516D01*
X196637982Y-109500951D01*
X196600852Y-109481579D01*
X196554996Y-109436069D01*
X196530676Y-109380207D01*
X196528493Y-109321181D01*
X196549049Y-109266177D01*
X196579969Y-109231710D01*
X196610840Y-109212413D01*
X196659362Y-109187983D01*
X196715905Y-109163209D01*
X196725330Y-109159423D01*
X196787439Y-109132015D01*
X196823242Y-109107858D01*
X196834757Y-109083843D01*
X196824000Y-109056859D01*
X196805534Y-109035767D01*
X196761889Y-109009796D01*
X196713866Y-109007848D01*
X196669826Y-109027861D01*
X196638129Y-109067775D01*
X196633969Y-109078072D01*
X196609747Y-109115948D01*
X196574385Y-109144066D01*
X196529763Y-109167141D01*
X196529763Y-109101709D01*
X196532389Y-109061730D01*
X196543650Y-109030221D01*
X196568619Y-108996602D01*
X196592589Y-108970708D01*
X196629861Y-108934041D01*
X196658821Y-108914345D01*
X196689925Y-108906444D01*
X196725133Y-108905138D01*
X196802296Y-108916559D01*
G36*
X194761330Y-104202572D02*
G01*
X194839874Y-104203002D01*
X194896718Y-104204166D01*
X194935525Y-104206431D01*
X194959958Y-104210164D01*
X194973682Y-104215730D01*
X194980360Y-104223497D01*
X194983656Y-104233829D01*
X194983976Y-104235167D01*
X194988982Y-104259303D01*
X194998249Y-104306925D01*
X195010812Y-104372965D01*
X195025707Y-104452352D01*
X195041971Y-104540020D01*
X195042539Y-104543099D01*
X195058830Y-104629013D01*
X195074072Y-104704920D01*
X195087281Y-104766269D01*
X195097474Y-104808506D01*
X195103668Y-104827079D01*
X195103963Y-104827408D01*
X195122208Y-104836477D01*
X195159825Y-104851591D01*
X195208691Y-104869486D01*
X195208963Y-104869582D01*
X195270513Y-104892717D01*
X195343077Y-104922189D01*
X195411477Y-104951821D01*
X195414714Y-104953286D01*
X195526122Y-105003850D01*
X195772819Y-104835384D01*
X195848497Y-104784027D01*
X195917051Y-104738113D01*
X195974508Y-104700254D01*
X196016896Y-104673061D01*
X196040245Y-104659145D01*
X196042462Y-104658113D01*
X196059430Y-104662708D01*
X196091121Y-104684879D01*
X196138772Y-104725671D01*
X196203618Y-104786129D01*
X196269817Y-104850451D01*
X196333634Y-104913836D01*
X196390749Y-104971675D01*
X196437725Y-105020399D01*
X196471123Y-105056434D01*
X196487505Y-105076208D01*
X196488114Y-105077226D01*
X196489925Y-105090796D01*
X196483103Y-105112957D01*
X196465960Y-105146702D01*
X196436813Y-105195024D01*
X196393975Y-105260916D01*
X196336868Y-105345741D01*
X196286186Y-105420401D01*
X196240881Y-105487364D01*
X196203570Y-105542740D01*
X196176872Y-105582644D01*
X196163405Y-105603186D01*
X196162557Y-105604580D01*
X196164201Y-105624262D01*
X196176665Y-105662517D01*
X196197468Y-105712113D01*
X196204882Y-105727952D01*
X196237234Y-105798514D01*
X196271748Y-105878577D01*
X196299785Y-105947853D01*
X196319988Y-105999269D01*
X196336035Y-106038343D01*
X196345308Y-106058765D01*
X196346461Y-106060338D01*
X196363516Y-106062945D01*
X196403718Y-106070087D01*
X196461722Y-106080747D01*
X196532183Y-106093909D01*
X196609755Y-106108557D01*
X196689092Y-106123673D01*
X196764851Y-106138242D01*
X196831684Y-106151246D01*
X196884248Y-106161669D01*
X196917196Y-106168494D01*
X196925277Y-106170423D01*
X196933625Y-106175186D01*
X196939926Y-106185942D01*
X196944465Y-106206322D01*
X196947524Y-106239958D01*
X196949387Y-106290479D01*
X196950338Y-106361516D01*
X196950660Y-106456700D01*
X196950677Y-106495716D01*
X196950677Y-106813023D01*
X196874477Y-106828063D01*
X196832083Y-106836219D01*
X196768820Y-106848123D01*
X196692382Y-106862340D01*
X196610463Y-106877434D01*
X196587820Y-106881579D01*
X196512226Y-106896277D01*
X196446373Y-106910729D01*
X196395786Y-106923599D01*
X196365994Y-106933546D01*
X196361032Y-106936511D01*
X196348846Y-106957507D01*
X196331373Y-106998191D01*
X196311997Y-107050546D01*
X196308154Y-107061824D01*
X196282759Y-107131747D01*
X196251237Y-107210642D01*
X196220389Y-107281490D01*
X196220237Y-107281819D01*
X196168867Y-107392957D01*
X196337819Y-107641477D01*
X196506772Y-107889996D01*
X196289849Y-108107282D01*
X196224239Y-108171950D01*
X196164399Y-108228957D01*
X196113687Y-108275257D01*
X196075466Y-108307808D01*
X196053095Y-108323567D01*
X196049886Y-108324567D01*
X196031046Y-108316693D01*
X195992600Y-108294802D01*
X195938750Y-108261491D01*
X195873696Y-108219355D01*
X195803360Y-108172167D01*
X195731975Y-108124034D01*
X195668328Y-108082152D01*
X195616461Y-108049095D01*
X195580415Y-108027442D01*
X195564287Y-108019767D01*
X195544609Y-108026261D01*
X195507295Y-108043374D01*
X195460041Y-108067550D01*
X195455032Y-108070237D01*
X195391397Y-108102151D01*
X195347761Y-108117803D01*
X195320622Y-108117969D01*
X195306477Y-108103428D01*
X195306395Y-108103224D01*
X195299325Y-108086003D01*
X195282462Y-108045123D01*
X195257115Y-107983749D01*
X195224591Y-107905043D01*
X195186198Y-107812171D01*
X195143242Y-107708296D01*
X195101642Y-107607726D01*
X195055924Y-107496740D01*
X195013946Y-107393927D01*
X194976968Y-107302439D01*
X194946247Y-107225425D01*
X194923042Y-107166039D01*
X194908610Y-107127433D01*
X194904163Y-107113024D01*
X194915316Y-107096496D01*
X194944489Y-107070154D01*
X194983391Y-107041111D01*
X195094177Y-106949263D01*
X195180771Y-106843983D01*
X195242136Y-106727490D01*
X195277235Y-106602000D01*
X195285028Y-106469731D01*
X195279363Y-106408681D01*
X195248498Y-106282019D01*
X195195340Y-106170165D01*
X195123187Y-106074225D01*
X195035337Y-105995300D01*
X194935085Y-105934494D01*
X194825730Y-105892911D01*
X194710567Y-105871652D01*
X194592895Y-105871823D01*
X194476010Y-105894525D01*
X194363209Y-105940862D01*
X194257789Y-106011937D01*
X194213788Y-106052135D01*
X194129399Y-106155353D01*
X194070642Y-106268149D01*
X194037124Y-106387234D01*
X194028455Y-106509319D01*
X194044243Y-106631117D01*
X194084098Y-106749340D01*
X194147627Y-106860699D01*
X194234441Y-106961908D01*
X194331449Y-107041111D01*
X194371857Y-107071386D01*
X194400402Y-107097443D01*
X194410677Y-107113049D01*
X194405297Y-107130067D01*
X194389995Y-107170724D01*
X194366032Y-107231866D01*
X194334664Y-107310343D01*
X194297152Y-107403004D01*
X194254753Y-107506696D01*
X194213083Y-107607750D01*
X194167110Y-107718831D01*
X194124527Y-107821765D01*
X194086641Y-107913389D01*
X194054760Y-107990540D01*
X194030191Y-108050055D01*
X194014240Y-108088768D01*
X194008330Y-108103224D01*
X193994368Y-108117909D01*
X193967360Y-108117866D01*
X193923833Y-108102323D01*
X193860310Y-108070508D01*
X193859808Y-108070237D01*
X193811980Y-108045547D01*
X193773317Y-108027562D01*
X193751515Y-108019838D01*
X193750553Y-108019767D01*
X193734141Y-108027602D01*
X193697907Y-108049389D01*
X193645894Y-108082552D01*
X193582145Y-108124515D01*
X193511480Y-108172167D01*
X193439536Y-108220415D01*
X193374694Y-108262375D01*
X193321155Y-108295451D01*
X193283117Y-108317045D01*
X193264953Y-108324567D01*
X193248228Y-108314681D01*
X193214600Y-108287050D01*
X193167430Y-108244719D01*
X193110078Y-108190729D01*
X193045904Y-108128123D01*
X193024917Y-108107207D01*
X192807919Y-107889847D01*
X192973088Y-107647444D01*
X193023284Y-107573005D01*
X193067339Y-107506196D01*
X193102782Y-107450889D01*
X193127139Y-107410953D01*
X193137942Y-107390260D01*
X193138258Y-107388787D01*
X193132563Y-107369282D01*
X193117246Y-107330046D01*
X193094957Y-107277654D01*
X193079313Y-107242579D01*
X193050061Y-107175425D01*
X193022514Y-107107582D01*
X193001157Y-107050258D01*
X192995355Y-107032796D01*
X192978872Y-106986162D01*
X192962760Y-106950129D01*
X192953910Y-106936511D01*
X192934380Y-106928176D01*
X192891754Y-106916361D01*
X192831565Y-106902405D01*
X192759342Y-106887646D01*
X192727020Y-106881579D01*
X192644942Y-106866497D01*
X192566215Y-106851893D01*
X192498529Y-106839204D01*
X192449580Y-106829866D01*
X192440363Y-106828063D01*
X192364163Y-106813023D01*
X192364163Y-106495716D01*
X192364334Y-106391378D01*
X192365036Y-106312437D01*
X192366554Y-106255262D01*
X192369169Y-106216223D01*
X192373166Y-106191689D01*
X192378829Y-106178029D01*
X192386440Y-106171613D01*
X192389563Y-106170423D01*
X192408398Y-106166204D01*
X192450008Y-106157786D01*
X192509050Y-106146185D01*
X192580177Y-106132419D01*
X192658045Y-106117504D01*
X192737307Y-106102456D01*
X192812618Y-106088293D01*
X192878633Y-106076030D01*
X192930007Y-106066685D01*
X192961395Y-106061274D01*
X192968379Y-106060338D01*
X192974705Y-106047820D01*
X192988710Y-106014470D01*
X193007775Y-105966601D01*
X193015054Y-105947853D01*
X193044416Y-105875419D01*
X193078991Y-105795394D01*
X193109957Y-105727952D01*
X193132743Y-105676383D01*
X193147902Y-105634009D01*
X193152962Y-105608058D01*
X193152156Y-105604580D01*
X193141461Y-105588160D01*
X193117040Y-105551641D01*
X193081515Y-105498911D01*
X193037507Y-105433859D01*
X192987637Y-105360375D01*
X192977776Y-105345869D01*
X192919912Y-105259928D01*
X192877376Y-105194485D01*
X192848474Y-105146528D01*
X192831510Y-105113044D01*
X192824787Y-105091019D01*
X192826610Y-105077441D01*
X192826656Y-105077355D01*
X192841006Y-105059521D01*
X192872743Y-105025041D01*
X192918430Y-104977492D01*
X192974624Y-104920446D01*
X193037888Y-104857479D01*
X193045022Y-104850451D01*
X193124750Y-104773244D01*
X193186277Y-104716554D01*
X193230841Y-104679334D01*
X193259677Y-104660539D01*
X193272378Y-104658113D01*
X193290914Y-104668695D01*
X193329381Y-104693140D01*
X193383806Y-104728836D01*
X193450218Y-104773171D01*
X193524645Y-104823535D01*
X193542021Y-104835384D01*
X193788717Y-105003850D01*
X193900126Y-104953286D01*
X193967877Y-104923819D01*
X194040603Y-104894183D01*
X194103123Y-104870554D01*
X194105877Y-104869582D01*
X194154780Y-104851681D01*
X194192477Y-104836544D01*
X194210845Y-104827434D01*
X194210876Y-104827408D01*
X194216705Y-104810941D01*
X194226612Y-104770443D01*
X194239615Y-104710466D01*
X194254729Y-104635564D01*
X194270972Y-104550288D01*
X194272301Y-104543099D01*
X194288595Y-104455238D01*
X194303553Y-104375484D01*
X194316211Y-104308905D01*
X194325606Y-104260571D01*
X194330774Y-104235549D01*
X194330864Y-104235167D01*
X194334009Y-104224523D01*
X194340124Y-104216486D01*
X194352873Y-104210691D01*
X194375920Y-104206771D01*
X194412929Y-104204359D01*
X194467564Y-104203089D01*
X194543487Y-104202595D01*
X194644364Y-104202510D01*
X194657420Y-104202510D01*
X194761330Y-104202572D01*
G37*
X194761330Y-104202572D02*
X194839874Y-104203002D01*
X194896718Y-104204166D01*
X194935525Y-104206431D01*
X194959958Y-104210164D01*
X194973682Y-104215730D01*
X194980360Y-104223497D01*
X194983656Y-104233829D01*
X194983976Y-104235167D01*
X194988982Y-104259303D01*
X194998249Y-104306925D01*
X195010812Y-104372965D01*
X195025707Y-104452352D01*
X195041971Y-104540020D01*
X195042539Y-104543099D01*
X195058830Y-104629013D01*
X195074072Y-104704920D01*
X195087281Y-104766269D01*
X195097474Y-104808506D01*
X195103668Y-104827079D01*
X195103963Y-104827408D01*
X195122208Y-104836477D01*
X195159825Y-104851591D01*
X195208691Y-104869486D01*
X195208963Y-104869582D01*
X195270513Y-104892717D01*
X195343077Y-104922189D01*
X195411477Y-104951821D01*
X195414714Y-104953286D01*
X195526122Y-105003850D01*
X195772819Y-104835384D01*
X195848497Y-104784027D01*
X195917051Y-104738113D01*
X195974508Y-104700254D01*
X196016896Y-104673061D01*
X196040245Y-104659145D01*
X196042462Y-104658113D01*
X196059430Y-104662708D01*
X196091121Y-104684879D01*
X196138772Y-104725671D01*
X196203618Y-104786129D01*
X196269817Y-104850451D01*
X196333634Y-104913836D01*
X196390749Y-104971675D01*
X196437725Y-105020399D01*
X196471123Y-105056434D01*
X196487505Y-105076208D01*
X196488114Y-105077226D01*
X196489925Y-105090796D01*
X196483103Y-105112957D01*
X196465960Y-105146702D01*
X196436813Y-105195024D01*
X196393975Y-105260916D01*
X196336868Y-105345741D01*
X196286186Y-105420401D01*
X196240881Y-105487364D01*
X196203570Y-105542740D01*
X196176872Y-105582644D01*
X196163405Y-105603186D01*
X196162557Y-105604580D01*
X196164201Y-105624262D01*
X196176665Y-105662517D01*
X196197468Y-105712113D01*
X196204882Y-105727952D01*
X196237234Y-105798514D01*
X196271748Y-105878577D01*
X196299785Y-105947853D01*
X196319988Y-105999269D01*
X196336035Y-106038343D01*
X196345308Y-106058765D01*
X196346461Y-106060338D01*
X196363516Y-106062945D01*
X196403718Y-106070087D01*
X196461722Y-106080747D01*
X196532183Y-106093909D01*
X196609755Y-106108557D01*
X196689092Y-106123673D01*
X196764851Y-106138242D01*
X196831684Y-106151246D01*
X196884248Y-106161669D01*
X196917196Y-106168494D01*
X196925277Y-106170423D01*
X196933625Y-106175186D01*
X196939926Y-106185942D01*
X196944465Y-106206322D01*
X196947524Y-106239958D01*
X196949387Y-106290479D01*
X196950338Y-106361516D01*
X196950660Y-106456700D01*
X196950677Y-106495716D01*
X196950677Y-106813023D01*
X196874477Y-106828063D01*
X196832083Y-106836219D01*
X196768820Y-106848123D01*
X196692382Y-106862340D01*
X196610463Y-106877434D01*
X196587820Y-106881579D01*
X196512226Y-106896277D01*
X196446373Y-106910729D01*
X196395786Y-106923599D01*
X196365994Y-106933546D01*
X196361032Y-106936511D01*
X196348846Y-106957507D01*
X196331373Y-106998191D01*
X196311997Y-107050546D01*
X196308154Y-107061824D01*
X196282759Y-107131747D01*
X196251237Y-107210642D01*
X196220389Y-107281490D01*
X196220237Y-107281819D01*
X196168867Y-107392957D01*
X196337819Y-107641477D01*
X196506772Y-107889996D01*
X196289849Y-108107282D01*
X196224239Y-108171950D01*
X196164399Y-108228957D01*
X196113687Y-108275257D01*
X196075466Y-108307808D01*
X196053095Y-108323567D01*
X196049886Y-108324567D01*
X196031046Y-108316693D01*
X195992600Y-108294802D01*
X195938750Y-108261491D01*
X195873696Y-108219355D01*
X195803360Y-108172167D01*
X195731975Y-108124034D01*
X195668328Y-108082152D01*
X195616461Y-108049095D01*
X195580415Y-108027442D01*
X195564287Y-108019767D01*
X195544609Y-108026261D01*
X195507295Y-108043374D01*
X195460041Y-108067550D01*
X195455032Y-108070237D01*
X195391397Y-108102151D01*
X195347761Y-108117803D01*
X195320622Y-108117969D01*
X195306477Y-108103428D01*
X195306395Y-108103224D01*
X195299325Y-108086003D01*
X195282462Y-108045123D01*
X195257115Y-107983749D01*
X195224591Y-107905043D01*
X195186198Y-107812171D01*
X195143242Y-107708296D01*
X195101642Y-107607726D01*
X195055924Y-107496740D01*
X195013946Y-107393927D01*
X194976968Y-107302439D01*
X194946247Y-107225425D01*
X194923042Y-107166039D01*
X194908610Y-107127433D01*
X194904163Y-107113024D01*
X194915316Y-107096496D01*
X194944489Y-107070154D01*
X194983391Y-107041111D01*
X195094177Y-106949263D01*
X195180771Y-106843983D01*
X195242136Y-106727490D01*
X195277235Y-106602000D01*
X195285028Y-106469731D01*
X195279363Y-106408681D01*
X195248498Y-106282019D01*
X195195340Y-106170165D01*
X195123187Y-106074225D01*
X195035337Y-105995300D01*
X194935085Y-105934494D01*
X194825730Y-105892911D01*
X194710567Y-105871652D01*
X194592895Y-105871823D01*
X194476010Y-105894525D01*
X194363209Y-105940862D01*
X194257789Y-106011937D01*
X194213788Y-106052135D01*
X194129399Y-106155353D01*
X194070642Y-106268149D01*
X194037124Y-106387234D01*
X194028455Y-106509319D01*
X194044243Y-106631117D01*
X194084098Y-106749340D01*
X194147627Y-106860699D01*
X194234441Y-106961908D01*
X194331449Y-107041111D01*
X194371857Y-107071386D01*
X194400402Y-107097443D01*
X194410677Y-107113049D01*
X194405297Y-107130067D01*
X194389995Y-107170724D01*
X194366032Y-107231866D01*
X194334664Y-107310343D01*
X194297152Y-107403004D01*
X194254753Y-107506696D01*
X194213083Y-107607750D01*
X194167110Y-107718831D01*
X194124527Y-107821765D01*
X194086641Y-107913389D01*
X194054760Y-107990540D01*
X194030191Y-108050055D01*
X194014240Y-108088768D01*
X194008330Y-108103224D01*
X193994368Y-108117909D01*
X193967360Y-108117866D01*
X193923833Y-108102323D01*
X193860310Y-108070508D01*
X193859808Y-108070237D01*
X193811980Y-108045547D01*
X193773317Y-108027562D01*
X193751515Y-108019838D01*
X193750553Y-108019767D01*
X193734141Y-108027602D01*
X193697907Y-108049389D01*
X193645894Y-108082552D01*
X193582145Y-108124515D01*
X193511480Y-108172167D01*
X193439536Y-108220415D01*
X193374694Y-108262375D01*
X193321155Y-108295451D01*
X193283117Y-108317045D01*
X193264953Y-108324567D01*
X193248228Y-108314681D01*
X193214600Y-108287050D01*
X193167430Y-108244719D01*
X193110078Y-108190729D01*
X193045904Y-108128123D01*
X193024917Y-108107207D01*
X192807919Y-107889847D01*
X192973088Y-107647444D01*
X193023284Y-107573005D01*
X193067339Y-107506196D01*
X193102782Y-107450889D01*
X193127139Y-107410953D01*
X193137942Y-107390260D01*
X193138258Y-107388787D01*
X193132563Y-107369282D01*
X193117246Y-107330046D01*
X193094957Y-107277654D01*
X193079313Y-107242579D01*
X193050061Y-107175425D01*
X193022514Y-107107582D01*
X193001157Y-107050258D01*
X192995355Y-107032796D01*
X192978872Y-106986162D01*
X192962760Y-106950129D01*
X192953910Y-106936511D01*
X192934380Y-106928176D01*
X192891754Y-106916361D01*
X192831565Y-106902405D01*
X192759342Y-106887646D01*
X192727020Y-106881579D01*
X192644942Y-106866497D01*
X192566215Y-106851893D01*
X192498529Y-106839204D01*
X192449580Y-106829866D01*
X192440363Y-106828063D01*
X192364163Y-106813023D01*
X192364163Y-106495716D01*
X192364334Y-106391378D01*
X192365036Y-106312437D01*
X192366554Y-106255262D01*
X192369169Y-106216223D01*
X192373166Y-106191689D01*
X192378829Y-106178029D01*
X192386440Y-106171613D01*
X192389563Y-106170423D01*
X192408398Y-106166204D01*
X192450008Y-106157786D01*
X192509050Y-106146185D01*
X192580177Y-106132419D01*
X192658045Y-106117504D01*
X192737307Y-106102456D01*
X192812618Y-106088293D01*
X192878633Y-106076030D01*
X192930007Y-106066685D01*
X192961395Y-106061274D01*
X192968379Y-106060338D01*
X192974705Y-106047820D01*
X192988710Y-106014470D01*
X193007775Y-105966601D01*
X193015054Y-105947853D01*
X193044416Y-105875419D01*
X193078991Y-105795394D01*
X193109957Y-105727952D01*
X193132743Y-105676383D01*
X193147902Y-105634009D01*
X193152962Y-105608058D01*
X193152156Y-105604580D01*
X193141461Y-105588160D01*
X193117040Y-105551641D01*
X193081515Y-105498911D01*
X193037507Y-105433859D01*
X192987637Y-105360375D01*
X192977776Y-105345869D01*
X192919912Y-105259928D01*
X192877376Y-105194485D01*
X192848474Y-105146528D01*
X192831510Y-105113044D01*
X192824787Y-105091019D01*
X192826610Y-105077441D01*
X192826656Y-105077355D01*
X192841006Y-105059521D01*
X192872743Y-105025041D01*
X192918430Y-104977492D01*
X192974624Y-104920446D01*
X193037888Y-104857479D01*
X193045022Y-104850451D01*
X193124750Y-104773244D01*
X193186277Y-104716554D01*
X193230841Y-104679334D01*
X193259677Y-104660539D01*
X193272378Y-104658113D01*
X193290914Y-104668695D01*
X193329381Y-104693140D01*
X193383806Y-104728836D01*
X193450218Y-104773171D01*
X193524645Y-104823535D01*
X193542021Y-104835384D01*
X193788717Y-105003850D01*
X193900126Y-104953286D01*
X193967877Y-104923819D01*
X194040603Y-104894183D01*
X194103123Y-104870554D01*
X194105877Y-104869582D01*
X194154780Y-104851681D01*
X194192477Y-104836544D01*
X194210845Y-104827434D01*
X194210876Y-104827408D01*
X194216705Y-104810941D01*
X194226612Y-104770443D01*
X194239615Y-104710466D01*
X194254729Y-104635564D01*
X194270972Y-104550288D01*
X194272301Y-104543099D01*
X194288595Y-104455238D01*
X194303553Y-104375484D01*
X194316211Y-104308905D01*
X194325606Y-104260571D01*
X194330774Y-104235549D01*
X194330864Y-104235167D01*
X194334009Y-104224523D01*
X194340124Y-104216486D01*
X194352873Y-104210691D01*
X194375920Y-104206771D01*
X194412929Y-104204359D01*
X194467564Y-104203089D01*
X194543487Y-104202595D01*
X194644364Y-104202510D01*
X194657420Y-104202510D01*
X194761330Y-104202572D01*
G36*
X193373513Y-108888004D02*
G01*
X193420092Y-108914947D01*
X193452477Y-108941690D01*
X193476162Y-108969708D01*
X193492479Y-109003972D01*
X193502759Y-109049451D01*
X193508334Y-109111116D01*
X193510536Y-109193935D01*
X193510791Y-109253470D01*
X193510791Y-109472615D01*
X193449106Y-109500268D01*
X193387420Y-109527921D01*
X193380163Y-109287894D01*
X193377164Y-109198252D01*
X193374018Y-109133186D01*
X193370121Y-109088250D01*
X193364867Y-109058994D01*
X193357651Y-109040972D01*
X193347870Y-109029735D01*
X193344732Y-109027303D01*
X193297181Y-109008307D01*
X193249117Y-109015824D01*
X193220506Y-109035767D01*
X193208867Y-109049899D01*
X193200811Y-109068444D01*
X193195691Y-109096558D01*
X193192861Y-109139397D01*
X193191676Y-109202119D01*
X193191477Y-109267485D01*
X193191438Y-109349492D01*
X193190034Y-109407540D01*
X193185334Y-109446689D01*
X193175407Y-109472004D01*
X193158323Y-109488547D01*
X193132152Y-109501380D01*
X193097195Y-109514715D01*
X193059016Y-109529231D01*
X193063561Y-109271613D01*
X193065391Y-109178743D01*
X193067532Y-109110113D01*
X193070601Y-109060935D01*
X193075214Y-109026422D01*
X193081988Y-109001786D01*
X193091539Y-108982240D01*
X193103054Y-108964994D01*
X193158610Y-108909904D01*
X193226400Y-108878046D01*
X193300133Y-108870415D01*
X193373513Y-108888004D01*
G37*
X193373513Y-108888004D02*
X193420092Y-108914947D01*
X193452477Y-108941690D01*
X193476162Y-108969708D01*
X193492479Y-109003972D01*
X193502759Y-109049451D01*
X193508334Y-109111116D01*
X193510536Y-109193935D01*
X193510791Y-109253470D01*
X193510791Y-109472615D01*
X193449106Y-109500268D01*
X193387420Y-109527921D01*
X193380163Y-109287894D01*
X193377164Y-109198252D01*
X193374018Y-109133186D01*
X193370121Y-109088250D01*
X193364867Y-109058994D01*
X193357651Y-109040972D01*
X193347870Y-109029735D01*
X193344732Y-109027303D01*
X193297181Y-109008307D01*
X193249117Y-109015824D01*
X193220506Y-109035767D01*
X193208867Y-109049899D01*
X193200811Y-109068444D01*
X193195691Y-109096558D01*
X193192861Y-109139397D01*
X193191676Y-109202119D01*
X193191477Y-109267485D01*
X193191438Y-109349492D01*
X193190034Y-109407540D01*
X193185334Y-109446689D01*
X193175407Y-109472004D01*
X193158323Y-109488547D01*
X193132152Y-109501380D01*
X193097195Y-109514715D01*
X193059016Y-109529231D01*
X193063561Y-109271613D01*
X193065391Y-109178743D01*
X193067532Y-109110113D01*
X193070601Y-109060935D01*
X193075214Y-109026422D01*
X193081988Y-109001786D01*
X193091539Y-108982240D01*
X193103054Y-108964994D01*
X193158610Y-108909904D01*
X193226400Y-108878046D01*
X193300133Y-108870415D01*
X193373513Y-108888004D01*
G36*
X197310020Y-108918976D02*
G01*
X197327368Y-108926558D01*
X197368776Y-108959352D01*
X197404185Y-109006771D01*
X197426084Y-109057375D01*
X197429649Y-109082322D01*
X197417699Y-109117151D01*
X197391487Y-109135581D01*
X197363384Y-109146740D01*
X197350515Y-109148796D01*
X197344249Y-109133873D01*
X197331876Y-109101399D01*
X197326448Y-109086726D01*
X197296010Y-109035968D01*
X197251940Y-109010651D01*
X197195430Y-109011430D01*
X197191245Y-109012427D01*
X197161075Y-109026731D01*
X197138896Y-109054617D01*
X197123747Y-109099511D01*
X197114670Y-109164839D01*
X197110706Y-109254028D01*
X197110334Y-109301485D01*
X197110150Y-109376295D01*
X197108942Y-109427293D01*
X197105729Y-109459695D01*
X197099529Y-109478719D01*
X197089360Y-109489580D01*
X197074239Y-109497496D01*
X197073366Y-109497894D01*
X197044248Y-109510205D01*
X197029823Y-109514738D01*
X197027606Y-109501033D01*
X197025709Y-109463149D01*
X197024267Y-109405939D01*
X197023418Y-109334251D01*
X197023249Y-109281789D01*
X197024112Y-109180271D01*
X197027490Y-109103256D01*
X197034562Y-109046247D01*
X197046508Y-109004750D01*
X197064510Y-108974267D01*
X197089747Y-108950304D01*
X197114667Y-108933579D01*
X197174591Y-108911321D01*
X197244331Y-108906300D01*
X197310020Y-108918976D01*
G37*
X197310020Y-108918976D02*
X197327368Y-108926558D01*
X197368776Y-108959352D01*
X197404185Y-109006771D01*
X197426084Y-109057375D01*
X197429649Y-109082322D01*
X197417699Y-109117151D01*
X197391487Y-109135581D01*
X197363384Y-109146740D01*
X197350515Y-109148796D01*
X197344249Y-109133873D01*
X197331876Y-109101399D01*
X197326448Y-109086726D01*
X197296010Y-109035968D01*
X197251940Y-109010651D01*
X197195430Y-109011430D01*
X197191245Y-109012427D01*
X197161075Y-109026731D01*
X197138896Y-109054617D01*
X197123747Y-109099511D01*
X197114670Y-109164839D01*
X197110706Y-109254028D01*
X197110334Y-109301485D01*
X197110150Y-109376295D01*
X197108942Y-109427293D01*
X197105729Y-109459695D01*
X197099529Y-109478719D01*
X197089360Y-109489580D01*
X197074239Y-109497496D01*
X197073366Y-109497894D01*
X197044248Y-109510205D01*
X197029823Y-109514738D01*
X197027606Y-109501033D01*
X197025709Y-109463149D01*
X197024267Y-109405939D01*
X197023418Y-109334251D01*
X197023249Y-109281789D01*
X197024112Y-109180271D01*
X197027490Y-109103256D01*
X197034562Y-109046247D01*
X197046508Y-109004750D01*
X197064510Y-108974267D01*
X197089747Y-108950304D01*
X197114667Y-108933579D01*
X197174591Y-108911321D01*
X197244331Y-108906300D01*
X197310020Y-108918976D01*
G36*
X196437253Y-108918887D02*
G01*
X196439468Y-108957074D01*
X196441204Y-109015110D01*
X196442319Y-109088404D01*
X196442677Y-109165279D01*
X196442677Y-109425420D01*
X196396746Y-109471351D01*
X196365095Y-109499653D01*
X196337310Y-109511117D01*
X196299335Y-109510392D01*
X196284260Y-109508545D01*
X196237146Y-109503172D01*
X196198176Y-109500093D01*
X196188677Y-109499809D01*
X196156653Y-109501669D01*
X196110852Y-109506338D01*
X196093094Y-109508545D01*
X196049477Y-109511959D01*
X196020165Y-109504544D01*
X195991100Y-109481651D01*
X195980608Y-109471351D01*
X195934677Y-109425420D01*
X195934677Y-108938826D01*
X195971646Y-108921982D01*
X196003479Y-108909506D01*
X196022103Y-108905138D01*
X196026878Y-108918942D01*
X196031341Y-108957510D01*
X196035195Y-109016580D01*
X196038142Y-109091887D01*
X196039563Y-109155510D01*
X196043534Y-109405881D01*
X196078179Y-109410780D01*
X196109688Y-109407355D01*
X196125128Y-109396265D01*
X196129443Y-109375532D01*
X196133128Y-109331369D01*
X196135889Y-109269370D01*
X196137432Y-109195133D01*
X196137655Y-109156930D01*
X196137877Y-108937007D01*
X196183586Y-108921073D01*
X196215938Y-108910239D01*
X196233535Y-108905186D01*
X196234043Y-108905138D01*
X196235808Y-108918872D01*
X196237749Y-108956954D01*
X196239702Y-109014706D01*
X196241504Y-109087451D01*
X196242763Y-109155510D01*
X196246734Y-109405881D01*
X196333820Y-109405881D01*
X196337816Y-109177464D01*
X196341812Y-108949046D01*
X196384267Y-108927092D01*
X196415612Y-108912017D01*
X196434164Y-108905175D01*
X196434699Y-108905138D01*
X196437253Y-108918887D01*
G37*
X196437253Y-108918887D02*
X196439468Y-108957074D01*
X196441204Y-109015110D01*
X196442319Y-109088404D01*
X196442677Y-109165279D01*
X196442677Y-109425420D01*
X196396746Y-109471351D01*
X196365095Y-109499653D01*
X196337310Y-109511117D01*
X196299335Y-109510392D01*
X196284260Y-109508545D01*
X196237146Y-109503172D01*
X196198176Y-109500093D01*
X196188677Y-109499809D01*
X196156653Y-109501669D01*
X196110852Y-109506338D01*
X196093094Y-109508545D01*
X196049477Y-109511959D01*
X196020165Y-109504544D01*
X195991100Y-109481651D01*
X195980608Y-109471351D01*
X195934677Y-109425420D01*
X195934677Y-108938826D01*
X195971646Y-108921982D01*
X196003479Y-108909506D01*
X196022103Y-108905138D01*
X196026878Y-108918942D01*
X196031341Y-108957510D01*
X196035195Y-109016580D01*
X196038142Y-109091887D01*
X196039563Y-109155510D01*
X196043534Y-109405881D01*
X196078179Y-109410780D01*
X196109688Y-109407355D01*
X196125128Y-109396265D01*
X196129443Y-109375532D01*
X196133128Y-109331369D01*
X196135889Y-109269370D01*
X196137432Y-109195133D01*
X196137655Y-109156930D01*
X196137877Y-108937007D01*
X196183586Y-108921073D01*
X196215938Y-108910239D01*
X196233535Y-108905186D01*
X196234043Y-108905138D01*
X196235808Y-108918872D01*
X196237749Y-108956954D01*
X196239702Y-109014706D01*
X196241504Y-109087451D01*
X196242763Y-109155510D01*
X196246734Y-109405881D01*
X196333820Y-109405881D01*
X196337816Y-109177464D01*
X196341812Y-108949046D01*
X196384267Y-108927092D01*
X196415612Y-108912017D01*
X196434164Y-108905175D01*
X196434699Y-108905138D01*
X196437253Y-108918887D01*
G36*
X195442146Y-109050310D02*
G01*
X195464555Y-108998824D01*
X195499544Y-108958667D01*
X195526795Y-108938085D01*
X195576327Y-108915849D01*
X195633736Y-108905528D01*
X195687102Y-108908291D01*
X195716963Y-108919436D01*
X195728681Y-108922607D01*
X195736457Y-108910781D01*
X195741885Y-108879090D01*
X195745991Y-108830817D01*
X195750487Y-108777053D01*
X195756733Y-108744706D01*
X195768096Y-108726209D01*
X195787948Y-108713994D01*
X195800420Y-108708586D01*
X195847591Y-108688825D01*
X195847537Y-109025582D01*
X195847353Y-109134061D01*
X195846639Y-109217511D01*
X195845095Y-109279928D01*
X195842421Y-109325309D01*
X195838314Y-109357653D01*
X195832475Y-109380957D01*
X195824602Y-109399219D01*
X195818641Y-109409642D01*
X195769275Y-109466169D01*
X195706684Y-109501601D01*
X195637433Y-109514314D01*
X195568088Y-109502687D01*
X195526795Y-109481792D01*
X195483445Y-109445646D01*
X195453901Y-109401500D01*
X195436075Y-109343686D01*
X195427883Y-109266537D01*
X195426722Y-109209938D01*
X195426878Y-109205871D01*
X195528277Y-109205871D01*
X195528896Y-109270774D01*
X195531734Y-109313738D01*
X195538260Y-109341846D01*
X195549943Y-109362177D01*
X195563903Y-109377512D01*
X195610785Y-109407114D01*
X195661121Y-109409643D01*
X195708696Y-109384929D01*
X195712399Y-109381580D01*
X195728203Y-109364159D01*
X195738113Y-109343433D01*
X195743478Y-109312586D01*
X195745648Y-109264801D01*
X195745991Y-109211972D01*
X195745247Y-109145605D01*
X195742168Y-109101330D01*
X195735481Y-109072233D01*
X195723916Y-109051397D01*
X195714433Y-109040331D01*
X195670380Y-109012422D01*
X195619644Y-109009067D01*
X195571216Y-109030383D01*
X195561870Y-109038297D01*
X195545960Y-109055871D01*
X195536030Y-109076811D01*
X195530698Y-109108006D01*
X195528583Y-109156346D01*
X195528277Y-109205871D01*
X195426878Y-109205871D01*
X195430230Y-109118792D01*
X195442146Y-109050310D01*
G37*
X195442146Y-109050310D02*
X195464555Y-108998824D01*
X195499544Y-108958667D01*
X195526795Y-108938085D01*
X195576327Y-108915849D01*
X195633736Y-108905528D01*
X195687102Y-108908291D01*
X195716963Y-108919436D01*
X195728681Y-108922607D01*
X195736457Y-108910781D01*
X195741885Y-108879090D01*
X195745991Y-108830817D01*
X195750487Y-108777053D01*
X195756733Y-108744706D01*
X195768096Y-108726209D01*
X195787948Y-108713994D01*
X195800420Y-108708586D01*
X195847591Y-108688825D01*
X195847537Y-109025582D01*
X195847353Y-109134061D01*
X195846639Y-109217511D01*
X195845095Y-109279928D01*
X195842421Y-109325309D01*
X195838314Y-109357653D01*
X195832475Y-109380957D01*
X195824602Y-109399219D01*
X195818641Y-109409642D01*
X195769275Y-109466169D01*
X195706684Y-109501601D01*
X195637433Y-109514314D01*
X195568088Y-109502687D01*
X195526795Y-109481792D01*
X195483445Y-109445646D01*
X195453901Y-109401500D01*
X195436075Y-109343686D01*
X195427883Y-109266537D01*
X195426722Y-109209938D01*
X195426878Y-109205871D01*
X195528277Y-109205871D01*
X195528896Y-109270774D01*
X195531734Y-109313738D01*
X195538260Y-109341846D01*
X195549943Y-109362177D01*
X195563903Y-109377512D01*
X195610785Y-109407114D01*
X195661121Y-109409643D01*
X195708696Y-109384929D01*
X195712399Y-109381580D01*
X195728203Y-109364159D01*
X195738113Y-109343433D01*
X195743478Y-109312586D01*
X195745648Y-109264801D01*
X195745991Y-109211972D01*
X195745247Y-109145605D01*
X195742168Y-109101330D01*
X195735481Y-109072233D01*
X195723916Y-109051397D01*
X195714433Y-109040331D01*
X195670380Y-109012422D01*
X195619644Y-109009067D01*
X195571216Y-109030383D01*
X195561870Y-109038297D01*
X195545960Y-109055871D01*
X195536030Y-109076811D01*
X195530698Y-109108006D01*
X195528583Y-109156346D01*
X195528277Y-109205871D01*
X195426878Y-109205871D01*
X195430230Y-109118792D01*
X195442146Y-109050310D01*
G36*
X194033306Y-108811513D02*
G01*
X194037559Y-108870837D01*
X194042445Y-108905796D01*
X194049215Y-108921044D01*
X194059122Y-108921239D01*
X194062334Y-108919419D01*
X194105064Y-108906239D01*
X194160647Y-108907009D01*
X194217157Y-108920557D01*
X194252502Y-108938085D01*
X194288741Y-108966085D01*
X194315233Y-108997773D01*
X194333419Y-109038037D01*
X194344742Y-109091767D01*
X194350642Y-109163850D01*
X194352563Y-109259175D01*
X194352597Y-109277461D01*
X194352620Y-109482870D01*
X194306911Y-109498804D01*
X194274447Y-109509644D01*
X194256635Y-109514692D01*
X194256111Y-109514738D01*
X194254357Y-109501052D01*
X194252864Y-109463300D01*
X194251746Y-109406448D01*
X194251117Y-109335458D01*
X194251020Y-109292297D01*
X194250818Y-109207197D01*
X194249778Y-109146205D01*
X194247251Y-109104401D01*
X194242584Y-109076866D01*
X194235127Y-109058680D01*
X194224231Y-109044922D01*
X194217427Y-109038297D01*
X194170692Y-109011599D01*
X194119692Y-109009599D01*
X194073421Y-109032179D01*
X194064864Y-109040331D01*
X194052313Y-109055660D01*
X194043608Y-109073842D01*
X194038051Y-109100133D01*
X194034946Y-109139786D01*
X194033596Y-109198056D01*
X194033306Y-109278397D01*
X194033306Y-109482870D01*
X193987597Y-109498804D01*
X193955133Y-109509644D01*
X193937321Y-109514692D01*
X193936797Y-109514738D01*
X193935457Y-109500847D01*
X193934248Y-109461663D01*
X193933221Y-109400924D01*
X193932422Y-109322365D01*
X193931901Y-109229722D01*
X193931706Y-109126733D01*
X193931706Y-108729566D01*
X193978877Y-108709668D01*
X194026049Y-108689771D01*
X194033306Y-108811513D01*
G37*
X194033306Y-108811513D02*
X194037559Y-108870837D01*
X194042445Y-108905796D01*
X194049215Y-108921044D01*
X194059122Y-108921239D01*
X194062334Y-108919419D01*
X194105064Y-108906239D01*
X194160647Y-108907009D01*
X194217157Y-108920557D01*
X194252502Y-108938085D01*
X194288741Y-108966085D01*
X194315233Y-108997773D01*
X194333419Y-109038037D01*
X194344742Y-109091767D01*
X194350642Y-109163850D01*
X194352563Y-109259175D01*
X194352597Y-109277461D01*
X194352620Y-109482870D01*
X194306911Y-109498804D01*
X194274447Y-109509644D01*
X194256635Y-109514692D01*
X194256111Y-109514738D01*
X194254357Y-109501052D01*
X194252864Y-109463300D01*
X194251746Y-109406448D01*
X194251117Y-109335458D01*
X194251020Y-109292297D01*
X194250818Y-109207197D01*
X194249778Y-109146205D01*
X194247251Y-109104401D01*
X194242584Y-109076866D01*
X194235127Y-109058680D01*
X194224231Y-109044922D01*
X194217427Y-109038297D01*
X194170692Y-109011599D01*
X194119692Y-109009599D01*
X194073421Y-109032179D01*
X194064864Y-109040331D01*
X194052313Y-109055660D01*
X194043608Y-109073842D01*
X194038051Y-109100133D01*
X194034946Y-109139786D01*
X194033596Y-109198056D01*
X194033306Y-109278397D01*
X194033306Y-109482870D01*
X193987597Y-109498804D01*
X193955133Y-109509644D01*
X193937321Y-109514692D01*
X193936797Y-109514738D01*
X193935457Y-109500847D01*
X193934248Y-109461663D01*
X193933221Y-109400924D01*
X193932422Y-109322365D01*
X193931901Y-109229722D01*
X193931706Y-109126733D01*
X193931706Y-108729566D01*
X193978877Y-108709668D01*
X194026049Y-108689771D01*
X194033306Y-108811513D01*
%TO.C,qrcode*%
G36*
X193827814Y-88643945D02*
G01*
X193482940Y-88643945D01*
X193482940Y-88299070D01*
X193827814Y-88299070D01*
X193827814Y-88643945D01*
G37*
G36*
X199000930Y-96920930D02*
G01*
X198311182Y-96920930D01*
X198311182Y-96576056D01*
X199000930Y-96576056D01*
X199000930Y-96920930D01*
G37*
G36*
X192793191Y-94506810D02*
G01*
X192793191Y-96920930D01*
X190379070Y-96920930D01*
X190379070Y-96558812D01*
X190741188Y-96558812D01*
X192431073Y-96558812D01*
X192431073Y-94868928D01*
X190741188Y-94868928D01*
X190741188Y-96558812D01*
X190379070Y-96558812D01*
X190379070Y-94506810D01*
X192793191Y-94506810D01*
G37*
G36*
X194862438Y-90713191D02*
G01*
X194517563Y-90713191D01*
X194517563Y-90368317D01*
X194862438Y-90368317D01*
X194862438Y-90713191D01*
G37*
G36*
X192103442Y-96231182D02*
G01*
X191068819Y-96231182D01*
X191068819Y-95196558D01*
X192103442Y-95196558D01*
X192103442Y-96231182D01*
G37*
G36*
X190723945Y-92437563D02*
G01*
X190379070Y-92437563D01*
X190379070Y-91747814D01*
X190723945Y-91747814D01*
X190723945Y-92437563D01*
G37*
G36*
X194172689Y-89678568D02*
G01*
X193827814Y-89678568D01*
X193827814Y-90023442D01*
X193482940Y-90023442D01*
X193482940Y-88988819D01*
X194172689Y-88988819D01*
X194172689Y-89678568D01*
G37*
G36*
X194172689Y-94161935D02*
G01*
X193827814Y-94161935D01*
X193827814Y-93817061D01*
X194172689Y-93817061D01*
X194172689Y-94161935D01*
G37*
G36*
X191413694Y-92782438D02*
G01*
X190723945Y-92782438D01*
X190723945Y-92437563D01*
X191413694Y-92437563D01*
X191413694Y-92782438D01*
G37*
G36*
X190723945Y-91402940D02*
G01*
X190379070Y-91402940D01*
X190379070Y-91058066D01*
X190723945Y-91058066D01*
X190723945Y-91402940D01*
G37*
G36*
X194172689Y-96576056D02*
G01*
X193827814Y-96576056D01*
X193827814Y-96231182D01*
X194172689Y-96231182D01*
X194172689Y-96576056D01*
G37*
G36*
X199000930Y-92092689D02*
G01*
X198311182Y-92092689D01*
X198311182Y-91747814D01*
X198656056Y-91747814D01*
X198656056Y-91402940D01*
X199000930Y-91402940D01*
X199000930Y-92092689D01*
G37*
G36*
X192103442Y-90023442D02*
G01*
X191068819Y-90023442D01*
X191068819Y-88988819D01*
X192103442Y-88988819D01*
X192103442Y-90023442D01*
G37*
G36*
X193827814Y-96920930D02*
G01*
X193138066Y-96920930D01*
X193138066Y-96576056D01*
X193827814Y-96576056D01*
X193827814Y-96920930D01*
G37*
G36*
X192793191Y-88299070D02*
G01*
X192793191Y-90713191D01*
X190379070Y-90713191D01*
X190379070Y-90351073D01*
X190741188Y-90351073D01*
X192431073Y-90351073D01*
X192431073Y-88661188D01*
X190741188Y-88661188D01*
X190741188Y-90351073D01*
X190379070Y-90351073D01*
X190379070Y-88299070D01*
X192793191Y-88299070D01*
G37*
G36*
X194862438Y-96920930D02*
G01*
X194517563Y-96920930D01*
X194517563Y-96576056D01*
X194862438Y-96576056D01*
X194862438Y-96920930D01*
G37*
G36*
X192103442Y-93472186D02*
G01*
X191758568Y-93472186D01*
X191758568Y-94161935D01*
X190379070Y-94161935D01*
X190379070Y-93817061D01*
X190723945Y-93817061D01*
X190723945Y-93472186D01*
X191413694Y-93472186D01*
X191413694Y-93127312D01*
X192103442Y-93127312D01*
X192103442Y-93472186D01*
G37*
G36*
X196931684Y-94851684D02*
G01*
X196586810Y-94851684D01*
X196586810Y-94506810D01*
X196931684Y-94506810D01*
X196931684Y-94851684D01*
G37*
G36*
X197276558Y-91402940D02*
G01*
X196931684Y-91402940D01*
X196931684Y-91058066D01*
X197276558Y-91058066D01*
X197276558Y-91402940D01*
G37*
G36*
X198311182Y-90023442D02*
G01*
X197276558Y-90023442D01*
X197276558Y-88988819D01*
X198311182Y-88988819D01*
X198311182Y-90023442D01*
G37*
G36*
X193482940Y-90713191D02*
G01*
X193138066Y-90713191D01*
X193138066Y-90023442D01*
X193482940Y-90023442D01*
X193482940Y-90713191D01*
G37*
G36*
X190723945Y-93472186D02*
G01*
X190379070Y-93472186D01*
X190379070Y-93127312D01*
X190723945Y-93127312D01*
X190723945Y-93472186D01*
G37*
G36*
X199000930Y-96231182D02*
G01*
X198656056Y-96231182D01*
X198656056Y-95886307D01*
X199000930Y-95886307D01*
X199000930Y-96231182D01*
G37*
G36*
X193138066Y-92782438D02*
G01*
X193138066Y-93127312D01*
X193827814Y-93127312D01*
X193827814Y-92782438D01*
X194517563Y-92782438D01*
X194517563Y-93817061D01*
X194862438Y-93817061D01*
X194862438Y-92782438D01*
X195207312Y-92782438D01*
X195207312Y-93127312D01*
X195552186Y-93127312D01*
X195552186Y-93472186D01*
X195207312Y-93472186D01*
X195207312Y-94161935D01*
X194862438Y-94161935D01*
X194862438Y-95196558D01*
X194517563Y-95196558D01*
X194517563Y-94851684D01*
X194172689Y-94851684D01*
X194172689Y-95196558D01*
X193827814Y-95196558D01*
X193827814Y-96231182D01*
X193482940Y-96231182D01*
X193482940Y-95886307D01*
X193138066Y-95886307D01*
X193138066Y-95541433D01*
X193482940Y-95541433D01*
X193482940Y-95196558D01*
X193138066Y-95196558D01*
X193138066Y-94851684D01*
X193482940Y-94851684D01*
X193482940Y-94506810D01*
X193138066Y-94506810D01*
X193138066Y-94161935D01*
X193482940Y-94161935D01*
X193482940Y-94506810D01*
X194517563Y-94506810D01*
X194517563Y-93817061D01*
X194172689Y-93817061D01*
X194172689Y-93472186D01*
X193482940Y-93472186D01*
X193482940Y-93817061D01*
X193138066Y-93817061D01*
X193138066Y-94161935D01*
X192103442Y-94161935D01*
X192103442Y-93817061D01*
X193138066Y-93817061D01*
X193138066Y-93127312D01*
X192793191Y-93127312D01*
X192793191Y-93472186D01*
X192448317Y-93472186D01*
X192448317Y-93127312D01*
X192793191Y-93127312D01*
X192793191Y-92782438D01*
X193138066Y-92782438D01*
G37*
G36*
X192793191Y-92782438D02*
G01*
X192448317Y-92782438D01*
X192448317Y-93127312D01*
X192103442Y-93127312D01*
X192103442Y-92782438D01*
X192448317Y-92782438D01*
X192448317Y-92437563D01*
X192793191Y-92437563D01*
X192793191Y-92782438D01*
G37*
G36*
X196586810Y-92437563D02*
G01*
X196931684Y-92437563D01*
X196931684Y-91747814D01*
X197276558Y-91747814D01*
X197276558Y-92092689D01*
X197621433Y-92092689D01*
X197621433Y-92437563D01*
X196931684Y-92437563D01*
X196931684Y-92782438D01*
X197276558Y-92782438D01*
X197276558Y-93127312D01*
X197621433Y-93127312D01*
X197621433Y-92437563D01*
X197966307Y-92437563D01*
X197966307Y-92782438D01*
X198311182Y-92782438D01*
X198311182Y-92437563D01*
X199000930Y-92437563D01*
X199000930Y-93472186D01*
X198656056Y-93472186D01*
X198656056Y-93817061D01*
X198311182Y-93817061D01*
X198311182Y-94161935D01*
X197966307Y-94161935D01*
X197966307Y-94851684D01*
X198311182Y-94851684D01*
X198311182Y-94506810D01*
X198656056Y-94506810D01*
X198656056Y-94161935D01*
X199000930Y-94161935D01*
X199000930Y-95541433D01*
X198656056Y-95541433D01*
X198656056Y-95196558D01*
X197966307Y-95196558D01*
X197966307Y-95541433D01*
X198311182Y-95541433D01*
X198311182Y-96231182D01*
X197966307Y-96231182D01*
X197966307Y-96576056D01*
X197621433Y-96576056D01*
X197621433Y-96231182D01*
X197966307Y-96231182D01*
X197966307Y-95886307D01*
X197621433Y-95886307D01*
X197621433Y-96231182D01*
X196931684Y-96231182D01*
X196931684Y-96576056D01*
X196241935Y-96576056D01*
X196241935Y-96920930D01*
X195552186Y-96920930D01*
X195552186Y-96576056D01*
X195207312Y-96576056D01*
X195207312Y-96231182D01*
X195552186Y-96231182D01*
X196241935Y-96231182D01*
X196931684Y-96231182D01*
X196931684Y-95541433D01*
X196586810Y-95541433D01*
X196586810Y-95886307D01*
X196241935Y-95886307D01*
X196241935Y-96231182D01*
X195552186Y-96231182D01*
X195552186Y-95886307D01*
X195897061Y-95886307D01*
X196241935Y-95886307D01*
X196241935Y-95541433D01*
X195897061Y-95541433D01*
X195897061Y-95886307D01*
X195552186Y-95886307D01*
X195552186Y-95541433D01*
X195897061Y-95541433D01*
X195897061Y-95196558D01*
X196241935Y-95196558D01*
X197276558Y-95196558D01*
X197276558Y-94161935D01*
X196241935Y-94161935D01*
X196241935Y-95196558D01*
X195897061Y-95196558D01*
X195897061Y-94851684D01*
X195552186Y-94851684D01*
X195552186Y-95196558D01*
X195207312Y-95196558D01*
X195207312Y-94506810D01*
X195552186Y-94506810D01*
X195897061Y-94506810D01*
X195897061Y-94161935D01*
X195552186Y-94161935D01*
X195552186Y-94506810D01*
X195207312Y-94506810D01*
X195207312Y-94161935D01*
X195552186Y-94161935D01*
X195552186Y-93472186D01*
X195897061Y-93472186D01*
X195897061Y-93817061D01*
X196241935Y-93817061D01*
X196586810Y-93817061D01*
X197276558Y-93817061D01*
X197621433Y-93817061D01*
X198311182Y-93817061D01*
X198311182Y-93472186D01*
X198656056Y-93472186D01*
X198656056Y-92782438D01*
X198311182Y-92782438D01*
X198311182Y-93472186D01*
X197966307Y-93472186D01*
X197966307Y-93127312D01*
X197621433Y-93127312D01*
X197621433Y-93817061D01*
X197276558Y-93817061D01*
X197276558Y-93472186D01*
X196586810Y-93472186D01*
X196586810Y-93817061D01*
X196241935Y-93817061D01*
X196241935Y-93472186D01*
X196586810Y-93472186D01*
X196586810Y-92782438D01*
X196241935Y-92782438D01*
X196241935Y-93127312D01*
X195897061Y-93127312D01*
X195897061Y-92782438D01*
X195552186Y-92782438D01*
X195552186Y-92437563D01*
X194862438Y-92437563D01*
X194862438Y-92092689D01*
X194517563Y-92092689D01*
X194517563Y-92437563D01*
X194172689Y-92437563D01*
X194172689Y-92092689D01*
X193827814Y-92092689D01*
X193827814Y-92437563D01*
X193482940Y-92437563D01*
X193482940Y-92092689D01*
X192448317Y-92092689D01*
X192448317Y-92437563D01*
X191758568Y-92437563D01*
X191758568Y-92092689D01*
X192103442Y-92092689D01*
X192448317Y-92092689D01*
X192448317Y-91747814D01*
X192793191Y-91747814D01*
X194172689Y-91747814D01*
X194517563Y-91747814D01*
X194862438Y-91747814D01*
X195207312Y-91747814D01*
X195207312Y-91402940D01*
X195552186Y-91402940D01*
X195552186Y-92437563D01*
X195897061Y-92437563D01*
X195897061Y-91747814D01*
X196241935Y-91747814D01*
X196241935Y-91058066D01*
X195897061Y-91058066D01*
X195897061Y-90368317D01*
X195552186Y-90368317D01*
X195552186Y-91058066D01*
X195207312Y-91058066D01*
X195207312Y-91402940D01*
X194862438Y-91402940D01*
X194862438Y-91747814D01*
X194517563Y-91747814D01*
X194517563Y-91402940D01*
X194172689Y-91402940D01*
X194172689Y-91747814D01*
X192793191Y-91747814D01*
X192793191Y-91402940D01*
X192448317Y-91402940D01*
X192448317Y-91747814D01*
X192103442Y-91747814D01*
X192103442Y-92092689D01*
X191758568Y-92092689D01*
X191068819Y-92092689D01*
X191068819Y-91747814D01*
X191413694Y-91747814D01*
X191758568Y-91747814D01*
X191758568Y-91402940D01*
X191413694Y-91402940D01*
X191413694Y-91747814D01*
X191068819Y-91747814D01*
X191068819Y-91402940D01*
X191413694Y-91402940D01*
X191413694Y-91058066D01*
X191758568Y-91058066D01*
X191758568Y-91402940D01*
X192103442Y-91402940D01*
X192103442Y-91058066D01*
X192793191Y-91058066D01*
X192793191Y-91402940D01*
X193138066Y-91402940D01*
X193138066Y-91058066D01*
X193482940Y-91058066D01*
X193482940Y-91402940D01*
X194172689Y-91402940D01*
X194172689Y-91058066D01*
X194517563Y-91058066D01*
X194517563Y-91402940D01*
X194862438Y-91402940D01*
X194862438Y-91058066D01*
X195207312Y-91058066D01*
X195207312Y-89333694D01*
X195552186Y-89333694D01*
X195552186Y-90023442D01*
X195897061Y-90023442D01*
X195897061Y-89678568D01*
X196241935Y-89678568D01*
X196241935Y-91058066D01*
X196586810Y-91058066D01*
X196586810Y-91402940D01*
X196931684Y-91402940D01*
X196931684Y-91747814D01*
X196241935Y-91747814D01*
X196241935Y-92092689D01*
X196586810Y-92092689D01*
X196586810Y-92437563D01*
G37*
G36*
X194862438Y-90023442D02*
G01*
X194517563Y-90023442D01*
X194517563Y-89678568D01*
X194862438Y-89678568D01*
X194862438Y-90023442D01*
G37*
G36*
X199000930Y-88299070D02*
G01*
X199000930Y-90713191D01*
X196586810Y-90713191D01*
X196586810Y-90351073D01*
X196948928Y-90351073D01*
X198638812Y-90351073D01*
X198638812Y-88661188D01*
X196948928Y-88661188D01*
X196948928Y-90351073D01*
X196586810Y-90351073D01*
X196586810Y-88299070D01*
X199000930Y-88299070D01*
G37*
G36*
X194172689Y-90713191D02*
G01*
X193827814Y-90713191D01*
X193827814Y-90368317D01*
X194172689Y-90368317D01*
X194172689Y-90713191D01*
G37*
G36*
X194517563Y-95886307D02*
G01*
X194172689Y-95886307D01*
X194172689Y-95541433D01*
X194517563Y-95541433D01*
X194517563Y-95886307D01*
G37*
G36*
X197276558Y-96920930D02*
G01*
X196931684Y-96920930D01*
X196931684Y-96576056D01*
X197276558Y-96576056D01*
X197276558Y-96920930D01*
G37*
G36*
X194517563Y-88988819D02*
G01*
X194172689Y-88988819D01*
X194172689Y-88299070D01*
X194517563Y-88299070D01*
X194517563Y-88988819D01*
G37*
G36*
X195207312Y-88643945D02*
G01*
X194862438Y-88643945D01*
X194862438Y-88299070D01*
X195207312Y-88299070D01*
X195207312Y-88643945D01*
G37*
G36*
X195897061Y-88988819D02*
G01*
X196241935Y-88988819D01*
X196241935Y-89333694D01*
X195552186Y-89333694D01*
X195552186Y-88643945D01*
X195897061Y-88643945D01*
X195897061Y-88988819D01*
G37*
G36*
X194862438Y-89333694D02*
G01*
X194517563Y-89333694D01*
X194517563Y-88988819D01*
X194862438Y-88988819D01*
X194862438Y-89333694D01*
G37*
G36*
X193827814Y-91058066D02*
G01*
X193482940Y-91058066D01*
X193482940Y-90713191D01*
X193827814Y-90713191D01*
X193827814Y-91058066D01*
G37*
%TO.C,logo*%
G36*
X108008202Y-101065882D02*
G01*
X108028978Y-101078601D01*
X108040645Y-101105698D01*
X108042036Y-101111027D01*
X108041465Y-101151065D01*
X108022559Y-101182898D01*
X107991799Y-101202691D01*
X107955667Y-101206613D01*
X107920645Y-101190830D01*
X107915313Y-101185957D01*
X107895993Y-101151667D01*
X107897209Y-101115069D01*
X107915699Y-101083545D01*
X107948200Y-101064476D01*
X107970124Y-101061947D01*
X108008202Y-101065882D01*
G37*
G36*
X103795151Y-100270854D02*
G01*
X103835181Y-100276474D01*
X103858972Y-100289586D01*
X103872127Y-100307694D01*
X103885189Y-100351259D01*
X103877966Y-100390640D01*
X103855468Y-100422379D01*
X103822706Y-100443019D01*
X103784689Y-100449102D01*
X103746427Y-100437170D01*
X103719534Y-100413000D01*
X103699418Y-100375269D01*
X103699406Y-100340350D01*
X103712756Y-100298647D01*
X103735608Y-100276701D01*
X103773984Y-100270141D01*
X103795151Y-100270854D01*
G37*
G36*
X103837740Y-99740362D02*
G01*
X103872940Y-99767826D01*
X103893082Y-99810396D01*
X103893706Y-99864560D01*
X103893510Y-99865624D01*
X103881075Y-99900715D01*
X103854854Y-99922514D01*
X103841307Y-99928770D01*
X103808241Y-99941598D01*
X103785675Y-99944744D01*
X103760513Y-99938700D01*
X103743089Y-99932467D01*
X103711012Y-99908112D01*
X103691498Y-99867410D01*
X103687686Y-99817918D01*
X103689755Y-99804032D01*
X103706880Y-99768083D01*
X103740016Y-99744796D01*
X103791946Y-99731514D01*
X103837740Y-99740362D01*
G37*
G36*
X99409051Y-99481254D02*
G01*
X99436102Y-99498744D01*
X99453557Y-99532604D01*
X99460656Y-99577165D01*
X99457145Y-99621648D01*
X99442769Y-99655276D01*
X99439861Y-99658519D01*
X99408837Y-99675494D01*
X99364869Y-99684309D01*
X99319786Y-99683622D01*
X99291022Y-99675407D01*
X99261526Y-99647474D01*
X99245444Y-99606004D01*
X99243349Y-99559718D01*
X99255817Y-99517338D01*
X99278841Y-99490511D01*
X99318189Y-99474753D01*
X99365175Y-99471855D01*
X99409051Y-99481254D01*
G37*
G36*
X99149065Y-99481016D02*
G01*
X99185451Y-99507829D01*
X99202392Y-99550439D01*
X99198703Y-99607147D01*
X99196037Y-99617716D01*
X99172984Y-99658134D01*
X99133890Y-99682588D01*
X99084338Y-99688995D01*
X99035432Y-99677619D01*
X99007918Y-99654374D01*
X98988792Y-99615945D01*
X98982159Y-99572483D01*
X98984755Y-99552248D01*
X99003482Y-99506939D01*
X99034663Y-99481300D01*
X99082935Y-99471924D01*
X99094416Y-99471700D01*
X99149065Y-99481016D01*
G37*
G36*
X98622905Y-102269941D02*
G01*
X98655414Y-102299559D01*
X98669856Y-102346683D01*
X98670440Y-102360452D01*
X98662039Y-102408322D01*
X98635946Y-102438252D01*
X98590828Y-102451472D01*
X98570587Y-102452378D01*
X98529960Y-102447982D01*
X98504560Y-102432359D01*
X98497724Y-102423824D01*
X98478086Y-102377858D01*
X98479419Y-102332553D01*
X98498965Y-102293840D01*
X98533964Y-102267649D01*
X98574082Y-102259662D01*
X98622905Y-102269941D01*
G37*
G36*
X101573299Y-101205210D02*
G01*
X101579350Y-101207279D01*
X101616446Y-101224447D01*
X101637540Y-101248688D01*
X101647161Y-101272431D01*
X101656353Y-101330732D01*
X101645315Y-101381100D01*
X101615674Y-101418765D01*
X101592828Y-101432008D01*
X101562405Y-101444034D01*
X101540905Y-101447877D01*
X101516240Y-101443967D01*
X101486872Y-101435766D01*
X101444981Y-101411519D01*
X101418866Y-101370546D01*
X101411105Y-101318169D01*
X101415227Y-101287991D01*
X101428567Y-101251377D01*
X101453061Y-101226949D01*
X101476822Y-101213703D01*
X101511735Y-101198836D01*
X101539078Y-101196307D01*
X101573299Y-101205210D01*
G37*
G36*
X100337024Y-99733864D02*
G01*
X100377190Y-99753231D01*
X100406129Y-99788245D01*
X100417718Y-99835896D01*
X100417734Y-99837861D01*
X100410858Y-99876389D01*
X100395250Y-99907061D01*
X100362798Y-99930030D01*
X100319731Y-99942064D01*
X100279637Y-99939577D01*
X100276409Y-99938429D01*
X100236274Y-99912902D01*
X100215949Y-99873614D01*
X100212170Y-99836802D01*
X100215873Y-99796656D01*
X100230342Y-99769763D01*
X100247497Y-99754122D01*
X100291752Y-99733157D01*
X100337024Y-99733864D01*
G37*
G36*
X102336243Y-100000153D02*
G01*
X102374956Y-100019699D01*
X102401147Y-100054698D01*
X102409135Y-100094816D01*
X102398855Y-100143639D01*
X102369238Y-100176148D01*
X102322113Y-100190590D01*
X102308344Y-100191174D01*
X102261999Y-100183514D01*
X102237682Y-100167679D01*
X102220252Y-100133321D01*
X102215722Y-100090296D01*
X102223585Y-100048960D01*
X102243335Y-100019666D01*
X102244973Y-100018458D01*
X102290939Y-99998820D01*
X102336243Y-100000153D01*
G37*
G36*
X98356789Y-100271864D02*
G01*
X98383351Y-100283102D01*
X98388272Y-100288114D01*
X98402985Y-100322988D01*
X98403923Y-100366929D01*
X98391666Y-100407690D01*
X98381944Y-100421794D01*
X98349060Y-100441984D01*
X98307417Y-100447720D01*
X98268601Y-100438446D01*
X98253825Y-100427959D01*
X98229131Y-100387260D01*
X98224607Y-100340458D01*
X98235268Y-100307694D01*
X98252860Y-100285736D01*
X98279511Y-100274707D01*
X98312244Y-100270854D01*
X98356789Y-100271864D01*
G37*
G36*
X99399887Y-100275895D02*
G01*
X99421116Y-100288450D01*
X99438066Y-100320621D01*
X99441640Y-100362103D01*
X99432494Y-100401923D01*
X99412751Y-100428129D01*
X99368936Y-100445830D01*
X99323515Y-100443386D01*
X99287132Y-100422433D01*
X99266951Y-100387301D01*
X99262044Y-100344697D01*
X99272592Y-100305536D01*
X99284932Y-100289523D01*
X99317571Y-100273581D01*
X99359849Y-100269007D01*
X99399887Y-100275895D01*
G37*
G36*
X98584022Y-99472047D02*
G01*
X98626800Y-99480817D01*
X98657097Y-99496910D01*
X98657592Y-99497395D01*
X98679323Y-99535179D01*
X98685002Y-99582023D01*
X98675123Y-99627929D01*
X98650175Y-99662894D01*
X98649436Y-99663484D01*
X98602353Y-99686440D01*
X98552306Y-99687828D01*
X98507094Y-99667896D01*
X98496411Y-99658576D01*
X98472929Y-99619405D01*
X98466095Y-99571943D01*
X98475290Y-99525227D01*
X98499894Y-99488295D01*
X98508555Y-99481533D01*
X98540646Y-99471864D01*
X98584022Y-99472047D01*
G37*
G36*
X107506494Y-99479643D02*
G01*
X107541797Y-99504205D01*
X107558948Y-99546492D01*
X107561082Y-99575066D01*
X107550698Y-99625881D01*
X107523310Y-99663875D01*
X107484566Y-99686524D01*
X107440113Y-99691304D01*
X107395601Y-99675691D01*
X107374206Y-99658576D01*
X107350074Y-99623200D01*
X107342680Y-99577260D01*
X107342671Y-99575066D01*
X107351062Y-99523369D01*
X107377013Y-99489954D01*
X107421688Y-99473720D01*
X107451877Y-99471700D01*
X107506494Y-99479643D01*
G37*
G36*
X101327591Y-100279075D02*
G01*
X101356859Y-100309486D01*
X101368394Y-100356446D01*
X101368467Y-100361053D01*
X101357599Y-100402782D01*
X101329301Y-100432185D01*
X101290036Y-100446400D01*
X101246264Y-100442561D01*
X101217153Y-100428129D01*
X101197721Y-100407470D01*
X101189546Y-100376039D01*
X101188599Y-100351494D01*
X101194086Y-100307762D01*
X101213249Y-100281782D01*
X101250136Y-100269997D01*
X101283384Y-100268260D01*
X101327591Y-100279075D01*
G37*
G36*
X103314859Y-99741490D02*
G01*
X103315620Y-99741776D01*
X103348402Y-99758234D01*
X103365651Y-99780878D01*
X103371994Y-99817621D01*
X103372519Y-99839082D01*
X103362393Y-99889570D01*
X103333475Y-99924146D01*
X103288607Y-99940766D01*
X103234716Y-99938247D01*
X103200157Y-99919581D01*
X103177034Y-99884544D01*
X103167543Y-99840744D01*
X103173881Y-99795787D01*
X103186440Y-99771074D01*
X103219831Y-99744025D01*
X103265585Y-99733495D01*
X103314859Y-99741490D01*
G37*
G36*
X107751237Y-100535909D02*
G01*
X107780993Y-100565960D01*
X107792312Y-100612320D01*
X107792342Y-100615150D01*
X107787066Y-100655658D01*
X107768758Y-100681332D01*
X107763788Y-100685084D01*
X107719599Y-100703325D01*
X107677036Y-100697506D01*
X107651017Y-100679388D01*
X107630084Y-100643556D01*
X107627632Y-100602965D01*
X107641073Y-100564874D01*
X107667822Y-100536540D01*
X107705290Y-100525219D01*
X107705973Y-100525215D01*
X107751237Y-100535909D01*
G37*
G36*
X101850125Y-101742461D02*
G01*
X101877174Y-101759954D01*
X101893700Y-101792825D01*
X101900446Y-101837003D01*
X101897241Y-101881659D01*
X101883919Y-101915960D01*
X101879682Y-101920973D01*
X101850563Y-101936578D01*
X101807929Y-101945456D01*
X101763415Y-101946150D01*
X101733025Y-101939320D01*
X101704585Y-101914562D01*
X101688140Y-101875222D01*
X101684280Y-101829743D01*
X101693596Y-101786570D01*
X101716677Y-101754145D01*
X101719913Y-101751715D01*
X101759263Y-101735955D01*
X101806250Y-101733058D01*
X101850125Y-101742461D01*
G37*
G36*
X102810673Y-99481016D02*
G01*
X102847060Y-99507829D01*
X102864001Y-99550439D01*
X102860312Y-99607147D01*
X102857645Y-99617716D01*
X102834592Y-99658134D01*
X102795498Y-99682588D01*
X102745946Y-99688995D01*
X102697041Y-99677619D01*
X102669527Y-99654374D01*
X102650401Y-99615945D01*
X102643767Y-99572483D01*
X102646364Y-99552248D01*
X102665091Y-99506939D01*
X102696272Y-99481300D01*
X102744543Y-99471924D01*
X102756024Y-99471700D01*
X102810673Y-99481016D01*
G37*
G36*
X107753555Y-99475359D02*
G01*
X107791656Y-99496719D01*
X107792342Y-99497395D01*
X107814072Y-99535179D01*
X107819752Y-99582023D01*
X107809873Y-99627929D01*
X107784925Y-99662894D01*
X107784185Y-99663484D01*
X107737103Y-99686440D01*
X107687056Y-99687828D01*
X107641844Y-99667896D01*
X107631161Y-99658576D01*
X107605332Y-99616102D01*
X107600753Y-99566619D01*
X107617673Y-99517926D01*
X107626254Y-99505552D01*
X107660853Y-99480267D01*
X107706621Y-99470039D01*
X107753555Y-99475359D01*
G37*
G36*
X101809354Y-100530377D02*
G01*
X101853067Y-100547941D01*
X101875514Y-100579813D01*
X101877325Y-100626903D01*
X101877163Y-100627955D01*
X101860108Y-100673118D01*
X101829565Y-100699187D01*
X101790999Y-100704422D01*
X101749874Y-100687082D01*
X101734044Y-100673549D01*
X101707714Y-100635434D01*
X101706845Y-100598002D01*
X101731461Y-100559455D01*
X101735480Y-100555315D01*
X101764254Y-100532764D01*
X101793471Y-100528051D01*
X101809354Y-100530377D01*
G37*
G36*
X104549578Y-99481395D02*
G01*
X104585511Y-99509313D01*
X104602239Y-99553699D01*
X104601709Y-99593622D01*
X104584330Y-99642949D01*
X104551088Y-99676022D01*
X104507622Y-99690656D01*
X104459571Y-99684662D01*
X104421540Y-99663484D01*
X104396255Y-99628884D01*
X104386027Y-99583117D01*
X104391348Y-99536182D01*
X104412707Y-99498081D01*
X104413384Y-99497395D01*
X104446925Y-99477682D01*
X104495962Y-99471700D01*
X104549578Y-99481395D01*
G37*
G36*
X104777316Y-100000153D02*
G01*
X104816029Y-100019699D01*
X104842220Y-100054698D01*
X104850207Y-100094816D01*
X104839928Y-100143639D01*
X104810310Y-100176148D01*
X104763186Y-100190590D01*
X104749417Y-100191174D01*
X104703072Y-100183514D01*
X104678754Y-100167679D01*
X104661324Y-100133321D01*
X104656794Y-100090296D01*
X104664657Y-100048960D01*
X104684408Y-100019666D01*
X104686045Y-100018458D01*
X104732011Y-99998820D01*
X104777316Y-100000153D01*
G37*
G36*
X108004136Y-100535594D02*
G01*
X108035949Y-100561712D01*
X108055052Y-100596048D01*
X108056403Y-100625432D01*
X108036137Y-100667769D01*
X108003014Y-100694607D01*
X107963576Y-100703567D01*
X107924363Y-100692271D01*
X107907972Y-100679388D01*
X107886516Y-100642853D01*
X107884355Y-100602022D01*
X107898782Y-100564041D01*
X107927091Y-100536057D01*
X107966371Y-100525215D01*
X108004136Y-100535594D01*
G37*
G36*
X103562520Y-100532322D02*
G01*
X103595696Y-100555376D01*
X103614619Y-100593898D01*
X103616823Y-100615150D01*
X103606233Y-100659532D01*
X103578618Y-100689847D01*
X103540217Y-100702943D01*
X103497267Y-100695672D01*
X103478357Y-100685084D01*
X103457306Y-100661113D01*
X103449957Y-100623950D01*
X103449803Y-100615150D01*
X103455078Y-100574641D01*
X103473386Y-100548968D01*
X103478357Y-100545216D01*
X103521328Y-100527885D01*
X103562520Y-100532322D01*
G37*
G36*
X108008244Y-99475850D02*
G01*
X108044870Y-99490601D01*
X108071237Y-99523935D01*
X108080255Y-99571699D01*
X108073477Y-99619001D01*
X108050601Y-99658755D01*
X108011562Y-99682613D01*
X107961761Y-99688656D01*
X107910997Y-99676794D01*
X107881040Y-99652256D01*
X107864199Y-99612981D01*
X107861343Y-99566824D01*
X107873344Y-99521641D01*
X107890844Y-99495027D01*
X107920517Y-99478360D01*
X107963217Y-99471865D01*
X108008244Y-99475850D01*
G37*
G36*
X99142578Y-100547781D02*
G01*
X99154045Y-100557981D01*
X99177469Y-100596356D01*
X99176410Y-100637077D01*
X99151217Y-100675883D01*
X99143836Y-100682600D01*
X99109816Y-100701535D01*
X99071303Y-100700295D01*
X99047367Y-100692254D01*
X99018502Y-100667919D01*
X99007251Y-100627349D01*
X99010992Y-100589059D01*
X99030124Y-100549770D01*
X99062416Y-100528928D01*
X99101892Y-100527833D01*
X99142578Y-100547781D01*
G37*
G36*
X104807205Y-98948238D02*
G01*
X104846819Y-98979058D01*
X104870942Y-99024856D01*
X104875903Y-99061588D01*
X104864728Y-99114248D01*
X104834031Y-99154059D01*
X104788053Y-99177947D01*
X104731036Y-99182839D01*
X104712350Y-99180130D01*
X104675032Y-99160661D01*
X104647160Y-99122764D01*
X104633083Y-99073192D01*
X104632204Y-99055627D01*
X104639749Y-99002701D01*
X104663481Y-98966958D01*
X104701879Y-98945163D01*
X104757193Y-98935803D01*
X104807205Y-98948238D01*
G37*
G36*
X104534560Y-103330729D02*
G01*
X104547601Y-103338304D01*
X104563798Y-103366287D01*
X104566084Y-103403655D01*
X104554485Y-103438207D01*
X104547368Y-103447161D01*
X104516679Y-103463436D01*
X104478995Y-103465984D01*
X104446520Y-103454749D01*
X104438710Y-103447633D01*
X104426976Y-103419333D01*
X104424073Y-103381835D01*
X104430101Y-103347986D01*
X104437842Y-103334971D01*
X104463376Y-103324083D01*
X104499858Y-103322798D01*
X104534560Y-103330729D01*
G37*
G36*
X99368282Y-100530377D02*
G01*
X99411995Y-100547941D01*
X99434441Y-100579813D01*
X99436253Y-100626903D01*
X99436091Y-100627955D01*
X99419035Y-100673118D01*
X99388493Y-100699187D01*
X99349927Y-100704422D01*
X99308801Y-100687082D01*
X99292972Y-100673549D01*
X99266641Y-100635434D01*
X99265773Y-100598002D01*
X99290389Y-100559455D01*
X99294408Y-100555315D01*
X99323182Y-100532764D01*
X99352398Y-100528051D01*
X99368282Y-100530377D01*
G37*
G36*
X102340541Y-99734619D02*
G01*
X102379897Y-99753072D01*
X102405255Y-99786517D01*
X102416108Y-99828078D01*
X102411949Y-99870878D01*
X102392273Y-99908040D01*
X102356572Y-99932689D01*
X102355170Y-99933191D01*
X102326238Y-99942695D01*
X102306723Y-99944709D01*
X102282394Y-99939627D01*
X102267810Y-99935607D01*
X102233867Y-99914590D01*
X102213619Y-99878983D01*
X102207395Y-99836140D01*
X102215520Y-99793414D01*
X102238323Y-99758161D01*
X102259267Y-99743617D01*
X102308576Y-99732307D01*
X102340541Y-99734619D01*
G37*
G36*
X108281867Y-100541143D02*
G01*
X108303676Y-100561686D01*
X108311613Y-100598304D01*
X108312092Y-100616749D01*
X108302540Y-100664112D01*
X108277380Y-100694425D01*
X108241854Y-100705655D01*
X108201202Y-100695769D01*
X108169331Y-100672113D01*
X108146780Y-100643339D01*
X108142067Y-100614122D01*
X108144392Y-100598238D01*
X108162089Y-100554448D01*
X108194142Y-100531939D01*
X108240904Y-100530256D01*
X108281867Y-100541143D01*
G37*
G36*
X107741698Y-101067856D02*
G01*
X107760183Y-101077636D01*
X107774461Y-101103245D01*
X107778997Y-101139980D01*
X107773349Y-101175014D01*
X107764077Y-101190729D01*
X107736201Y-101204269D01*
X107700100Y-101205708D01*
X107667324Y-101196015D01*
X107651469Y-101181295D01*
X107637722Y-101136339D01*
X107644572Y-101097926D01*
X107669518Y-101071278D01*
X107708832Y-101061609D01*
X107741698Y-101067856D01*
G37*
G36*
X103061496Y-102537099D02*
G01*
X103082724Y-102549654D01*
X103099674Y-102581825D01*
X103103248Y-102623307D01*
X103094102Y-102663127D01*
X103074359Y-102689333D01*
X103030544Y-102707034D01*
X102985123Y-102704590D01*
X102948740Y-102683637D01*
X102928559Y-102648505D01*
X102923653Y-102605901D01*
X102934201Y-102566740D01*
X102946540Y-102550727D01*
X102979180Y-102534785D01*
X103021457Y-102530211D01*
X103061496Y-102537099D01*
G37*
G36*
X105761439Y-100273748D02*
G01*
X105787420Y-100292910D01*
X105799204Y-100329797D01*
X105800941Y-100363045D01*
X105790173Y-100404575D01*
X105762435Y-100433825D01*
X105724573Y-100448157D01*
X105683434Y-100444934D01*
X105646768Y-100422433D01*
X105625355Y-100384395D01*
X105623675Y-100338861D01*
X105641072Y-100296815D01*
X105661732Y-100277382D01*
X105693162Y-100269208D01*
X105717707Y-100268260D01*
X105761439Y-100273748D01*
G37*
G36*
X98615173Y-101071408D02*
G01*
X98638960Y-101099997D01*
X98644745Y-101134487D01*
X98637387Y-101176564D01*
X98613624Y-101199583D01*
X98574082Y-101206146D01*
X98540815Y-101201445D01*
X98518837Y-101190729D01*
X98506374Y-101163614D01*
X98504380Y-101126512D01*
X98512415Y-101092248D01*
X98522730Y-101077636D01*
X98550492Y-101064961D01*
X98574082Y-101061609D01*
X98615173Y-101071408D01*
G37*
G36*
X98362881Y-100007713D02*
G01*
X98387790Y-100024153D01*
X98408646Y-100061207D01*
X98413485Y-100094816D01*
X98403205Y-100143639D01*
X98373588Y-100176148D01*
X98326463Y-100190590D01*
X98312694Y-100191174D01*
X98266350Y-100183514D01*
X98242032Y-100167679D01*
X98227608Y-100139152D01*
X98220841Y-100100976D01*
X98220769Y-100097016D01*
X98230980Y-100047061D01*
X98260079Y-100013577D01*
X98305761Y-99998923D01*
X98317127Y-99998458D01*
X98362881Y-100007713D01*
G37*
G36*
X100362324Y-100277723D02*
G01*
X100392970Y-100305446D01*
X100404781Y-100350431D01*
X100404886Y-100355994D01*
X100394163Y-100400617D01*
X100366093Y-100431905D01*
X100326825Y-100446929D01*
X100282507Y-100442756D01*
X100253572Y-100428129D01*
X100232467Y-100404042D01*
X100225156Y-100366685D01*
X100225018Y-100358384D01*
X100232965Y-100309956D01*
X100257817Y-100280568D01*
X100301092Y-100268681D01*
X100313878Y-100268260D01*
X100362324Y-100277723D01*
G37*
G36*
X98859622Y-102261502D02*
G01*
X98898841Y-102279662D01*
X98919633Y-102308058D01*
X98928422Y-102348915D01*
X98924858Y-102391794D01*
X98908593Y-102426255D01*
X98903900Y-102431115D01*
X98868002Y-102448529D01*
X98822866Y-102451494D01*
X98780251Y-102440371D01*
X98760374Y-102426682D01*
X98739518Y-102389629D01*
X98734679Y-102356020D01*
X98745453Y-102309990D01*
X98773822Y-102277055D01*
X98813855Y-102259973D01*
X98859622Y-102261502D01*
G37*
G36*
X104536206Y-102797992D02*
G01*
X104565713Y-102827701D01*
X104579982Y-102868033D01*
X104580405Y-102876353D01*
X104569859Y-102920574D01*
X104542476Y-102950806D01*
X104504637Y-102964064D01*
X104462726Y-102957365D01*
X104438488Y-102942697D01*
X104414476Y-102909352D01*
X104410092Y-102870166D01*
X104422676Y-102832085D01*
X104449570Y-102802056D01*
X104488113Y-102787025D01*
X104498318Y-102786419D01*
X104536206Y-102797992D01*
G37*
G36*
X98344891Y-101995823D02*
G01*
X98384247Y-102014276D01*
X98409605Y-102047721D01*
X98420458Y-102089281D01*
X98416299Y-102132081D01*
X98396623Y-102169244D01*
X98360922Y-102193893D01*
X98359520Y-102194395D01*
X98329989Y-102203463D01*
X98312466Y-102206595D01*
X98311998Y-102206521D01*
X98294534Y-102202966D01*
X98274696Y-102199115D01*
X98246751Y-102182361D01*
X98224462Y-102150156D01*
X98210940Y-102097802D01*
X98219584Y-102051735D01*
X98246930Y-102016393D01*
X98289517Y-101996214D01*
X98343880Y-101995637D01*
X98344891Y-101995823D01*
G37*
G36*
X108278767Y-99477621D02*
G01*
X108308147Y-99493078D01*
X108309165Y-99494184D01*
X108335811Y-99541745D01*
X108337828Y-99596130D01*
X108331618Y-99620448D01*
X108306060Y-99661620D01*
X108265250Y-99685031D01*
X108213985Y-99688991D01*
X108169747Y-99677459D01*
X108141516Y-99653587D01*
X108125054Y-99614941D01*
X108120948Y-99569884D01*
X108129783Y-99526775D01*
X108152146Y-99493977D01*
X108156636Y-99490511D01*
X108192414Y-99476083D01*
X108236657Y-99471871D01*
X108278767Y-99477621D01*
G37*
G36*
X103795151Y-102532057D02*
G01*
X103835181Y-102537678D01*
X103858972Y-102550789D01*
X103872127Y-102568898D01*
X103885189Y-102612463D01*
X103877966Y-102651844D01*
X103855468Y-102683583D01*
X103822706Y-102704223D01*
X103784689Y-102710306D01*
X103746427Y-102698373D01*
X103719534Y-102674204D01*
X103699418Y-102636473D01*
X103699406Y-102601554D01*
X103712756Y-102559851D01*
X103735608Y-102537905D01*
X103773984Y-102531345D01*
X103795151Y-102532057D01*
G37*
G36*
X98362881Y-102268917D02*
G01*
X98387790Y-102285357D01*
X98408646Y-102322411D01*
X98413485Y-102356020D01*
X98403205Y-102404843D01*
X98373588Y-102437351D01*
X98326463Y-102451794D01*
X98312694Y-102452378D01*
X98266350Y-102444718D01*
X98242032Y-102428883D01*
X98227608Y-102400356D01*
X98220841Y-102362180D01*
X98220769Y-102358220D01*
X98230980Y-102308264D01*
X98260079Y-102274781D01*
X98305761Y-102260126D01*
X98317127Y-102259662D01*
X98362881Y-102268917D01*
G37*
G36*
X103057541Y-102003032D02*
G01*
X103089040Y-102021049D01*
X103108646Y-102053117D01*
X103116380Y-102096075D01*
X103111940Y-102139130D01*
X103095027Y-102171492D01*
X103093278Y-102173159D01*
X103051992Y-102195327D01*
X103000503Y-102202077D01*
X102977761Y-102199451D01*
X102942876Y-102180793D01*
X102919969Y-102145961D01*
X102910908Y-102102403D01*
X102917558Y-102057566D01*
X102934521Y-102026905D01*
X102967807Y-102004099D01*
X103012215Y-101996012D01*
X103057541Y-102003032D01*
G37*
G36*
X100352763Y-98944006D02*
G01*
X100358814Y-98946075D01*
X100395910Y-98963244D01*
X100417004Y-98987484D01*
X100426625Y-99011227D01*
X100435816Y-99069528D01*
X100424779Y-99119896D01*
X100395138Y-99157561D01*
X100372292Y-99170804D01*
X100341869Y-99182830D01*
X100320369Y-99186673D01*
X100295704Y-99182763D01*
X100266336Y-99174562D01*
X100224445Y-99150315D01*
X100198329Y-99109342D01*
X100190569Y-99056965D01*
X100194691Y-99026787D01*
X100208031Y-98990173D01*
X100232525Y-98965745D01*
X100256286Y-98952499D01*
X100291199Y-98937632D01*
X100318541Y-98935103D01*
X100352763Y-98944006D01*
G37*
G36*
X107492968Y-101071408D02*
G01*
X107516754Y-101099997D01*
X107522539Y-101134487D01*
X107515182Y-101176564D01*
X107491418Y-101199583D01*
X107451877Y-101206146D01*
X107418609Y-101201445D01*
X107396631Y-101190729D01*
X107384168Y-101163614D01*
X107382175Y-101126512D01*
X107390209Y-101092248D01*
X107400525Y-101077636D01*
X107428287Y-101064961D01*
X107451877Y-101061609D01*
X107492968Y-101071408D01*
G37*
G36*
X106021408Y-99479865D02*
G01*
X106056373Y-99504813D01*
X106056963Y-99505552D01*
X106080570Y-99551779D01*
X106082616Y-99597032D01*
X106067062Y-99637348D01*
X106037868Y-99668769D01*
X105998995Y-99687333D01*
X105954404Y-99689079D01*
X105908056Y-99670047D01*
X105899032Y-99663484D01*
X105873747Y-99628884D01*
X105863519Y-99583117D01*
X105868839Y-99536182D01*
X105890198Y-99498081D01*
X105890875Y-99497395D01*
X105928658Y-99475665D01*
X105975503Y-99469985D01*
X106021408Y-99479865D01*
G37*
G36*
X103070661Y-101742461D02*
G01*
X103097710Y-101759954D01*
X103114236Y-101792825D01*
X103120982Y-101837003D01*
X103117778Y-101881659D01*
X103104455Y-101915960D01*
X103100218Y-101920973D01*
X103071099Y-101936578D01*
X103028466Y-101945456D01*
X102983951Y-101946150D01*
X102953561Y-101939320D01*
X102925121Y-101914562D01*
X102908676Y-101875222D01*
X102904817Y-101829743D01*
X102914132Y-101786570D01*
X102937213Y-101754145D01*
X102940450Y-101751715D01*
X102979799Y-101735955D01*
X103026786Y-101733058D01*
X103070661Y-101742461D01*
G37*
G36*
X105296344Y-102261502D02*
G01*
X105335563Y-102279662D01*
X105356355Y-102308058D01*
X105365144Y-102348915D01*
X105361580Y-102391794D01*
X105345316Y-102426255D01*
X105340622Y-102431115D01*
X105304724Y-102448529D01*
X105259589Y-102451494D01*
X105216974Y-102440371D01*
X105197097Y-102426682D01*
X105176240Y-102389629D01*
X105171401Y-102356020D01*
X105182175Y-102309990D01*
X105210544Y-102277055D01*
X105250577Y-102259973D01*
X105296344Y-102261502D01*
G37*
G36*
X102085028Y-100532322D02*
G01*
X102118205Y-100555376D01*
X102137128Y-100593898D01*
X102139332Y-100615150D01*
X102128741Y-100659532D01*
X102101127Y-100689847D01*
X102062726Y-100702943D01*
X102019776Y-100695672D01*
X102000866Y-100685084D01*
X101979815Y-100661113D01*
X101972466Y-100623950D01*
X101972312Y-100615150D01*
X101977587Y-100574641D01*
X101995895Y-100548968D01*
X102000866Y-100545216D01*
X102043836Y-100527885D01*
X102085028Y-100532322D01*
G37*
G36*
X103844886Y-101740846D02*
G01*
X103880188Y-101765409D01*
X103897340Y-101807696D01*
X103899474Y-101836270D01*
X103889089Y-101887085D01*
X103861701Y-101925079D01*
X103822957Y-101947728D01*
X103778505Y-101952508D01*
X103733992Y-101936895D01*
X103712598Y-101919780D01*
X103688466Y-101884404D01*
X103681072Y-101838464D01*
X103681062Y-101836270D01*
X103689453Y-101784573D01*
X103715404Y-101751158D01*
X103760079Y-101734924D01*
X103790268Y-101732904D01*
X103844886Y-101740846D01*
G37*
G36*
X107241978Y-100274627D02*
G01*
X107270601Y-100295747D01*
X107282669Y-100334650D01*
X107283571Y-100354627D01*
X107272547Y-100398782D01*
X107243740Y-100430820D01*
X107203549Y-100447313D01*
X107158376Y-100444832D01*
X107134411Y-100434541D01*
X107113228Y-100409074D01*
X107103080Y-100370221D01*
X107105345Y-100328406D01*
X107116691Y-100300323D01*
X107136134Y-100279005D01*
X107163488Y-100269776D01*
X107193645Y-100268260D01*
X107241978Y-100274627D01*
G37*
G36*
X100358995Y-102268732D02*
G01*
X100393125Y-102297989D01*
X100410118Y-102331839D01*
X100411231Y-102365172D01*
X100401113Y-102403630D01*
X100383776Y-102434528D01*
X100375175Y-102442284D01*
X100349784Y-102449460D01*
X100312539Y-102451696D01*
X100276362Y-102448963D01*
X100255848Y-102442545D01*
X100234267Y-102417584D01*
X100217516Y-102381123D01*
X100212170Y-102352173D01*
X100219839Y-102325046D01*
X100238334Y-102294108D01*
X100238798Y-102293514D01*
X100275077Y-102264983D01*
X100317394Y-102257226D01*
X100358995Y-102268732D01*
G37*
G36*
X108263973Y-100801767D02*
G01*
X108293205Y-100827946D01*
X108306053Y-100870128D01*
X108306252Y-100876877D01*
X108299540Y-100918215D01*
X108277120Y-100941221D01*
X108235566Y-100949108D01*
X108229165Y-100949191D01*
X108193961Y-100945143D01*
X108169184Y-100935250D01*
X108167496Y-100933774D01*
X108154347Y-100906529D01*
X108151685Y-100869459D01*
X108158683Y-100833555D01*
X108174514Y-100809808D01*
X108176930Y-100808318D01*
X108223501Y-100794315D01*
X108263973Y-100801767D01*
G37*
G36*
X100352763Y-101205210D02*
G01*
X100358814Y-101207279D01*
X100395910Y-101224447D01*
X100417004Y-101248688D01*
X100426625Y-101272431D01*
X100435816Y-101330732D01*
X100424779Y-101381100D01*
X100395138Y-101418765D01*
X100372292Y-101432008D01*
X100341869Y-101444034D01*
X100320369Y-101447877D01*
X100295704Y-101443967D01*
X100266336Y-101435766D01*
X100224445Y-101411519D01*
X100198329Y-101370546D01*
X100190569Y-101318169D01*
X100194691Y-101287991D01*
X100208031Y-101251377D01*
X100232525Y-101226949D01*
X100256286Y-101213703D01*
X100291199Y-101198836D01*
X100318541Y-101196307D01*
X100352763Y-101205210D01*
G37*
G36*
X102359800Y-101741069D02*
G01*
X102394765Y-101766016D01*
X102395355Y-101766756D01*
X102415387Y-101806638D01*
X102421983Y-101844426D01*
X102411094Y-101891926D01*
X102382369Y-101927038D01*
X102341717Y-101947195D01*
X102295047Y-101949825D01*
X102248269Y-101932359D01*
X102237423Y-101924688D01*
X102212138Y-101890088D01*
X102201910Y-101844321D01*
X102207230Y-101797386D01*
X102228590Y-101759285D01*
X102229267Y-101758599D01*
X102267050Y-101736869D01*
X102313894Y-101731189D01*
X102359800Y-101741069D01*
G37*
G36*
X101850125Y-99481257D02*
G01*
X101877174Y-99498750D01*
X101893700Y-99531621D01*
X101900446Y-99575799D01*
X101897241Y-99620455D01*
X101883919Y-99654757D01*
X101879682Y-99659770D01*
X101850563Y-99675375D01*
X101807929Y-99684252D01*
X101763415Y-99684946D01*
X101733025Y-99678116D01*
X101704585Y-99653358D01*
X101688140Y-99614018D01*
X101684280Y-99568539D01*
X101693596Y-99525366D01*
X101716677Y-99492941D01*
X101719913Y-99490511D01*
X101759263Y-99474751D01*
X101806250Y-99471855D01*
X101850125Y-99481257D01*
G37*
G36*
X99397440Y-100801185D02*
G01*
X99413040Y-100810435D01*
X99424368Y-100835798D01*
X99427996Y-100873239D01*
X99423924Y-100910321D01*
X99413040Y-100933774D01*
X99385796Y-100946923D01*
X99348725Y-100949585D01*
X99312821Y-100942587D01*
X99289074Y-100926756D01*
X99287584Y-100924340D01*
X99275286Y-100881958D01*
X99279704Y-100840272D01*
X99294474Y-100815207D01*
X99323189Y-100800362D01*
X99361666Y-100795521D01*
X99397440Y-100801185D01*
G37*
G36*
X98863984Y-100533396D02*
G01*
X98885993Y-100545216D01*
X98908579Y-100574984D01*
X98916105Y-100615161D01*
X98908571Y-100655335D01*
X98885993Y-100685084D01*
X98841804Y-100703325D01*
X98799241Y-100697506D01*
X98773222Y-100679388D01*
X98749563Y-100641737D01*
X98746837Y-100602968D01*
X98760979Y-100567914D01*
X98787927Y-100541410D01*
X98823616Y-100528293D01*
X98863984Y-100533396D01*
G37*
G36*
X104783056Y-100532322D02*
G01*
X104816232Y-100555376D01*
X104835155Y-100593898D01*
X104837360Y-100615150D01*
X104826769Y-100659532D01*
X104799154Y-100689847D01*
X104760753Y-100702943D01*
X104717803Y-100695672D01*
X104698893Y-100685084D01*
X104677842Y-100661113D01*
X104670494Y-100623950D01*
X104670339Y-100615150D01*
X104675615Y-100574641D01*
X104693923Y-100548968D01*
X104698893Y-100545216D01*
X104741864Y-100527885D01*
X104783056Y-100532322D01*
G37*
G36*
X108277682Y-100275895D02*
G01*
X108298910Y-100288450D01*
X108315860Y-100320621D01*
X108319434Y-100362103D01*
X108310289Y-100401923D01*
X108290545Y-100428129D01*
X108246730Y-100445830D01*
X108201309Y-100443386D01*
X108164927Y-100422433D01*
X108144746Y-100387301D01*
X108139839Y-100344697D01*
X108150387Y-100305536D01*
X108162726Y-100289523D01*
X108195366Y-100273581D01*
X108237643Y-100269007D01*
X108277682Y-100275895D01*
G37*
G36*
X105309490Y-102533240D02*
G01*
X105334786Y-102546914D01*
X105344117Y-102558018D01*
X105362583Y-102601603D01*
X105360160Y-102642797D01*
X105341259Y-102677381D01*
X105310286Y-102701134D01*
X105271653Y-102709835D01*
X105229766Y-102699263D01*
X105210083Y-102686333D01*
X105187739Y-102655950D01*
X105181679Y-102615323D01*
X105187537Y-102568818D01*
X105207657Y-102541786D01*
X105245861Y-102530452D01*
X105268604Y-102529464D01*
X105309490Y-102533240D01*
G37*
G36*
X108281651Y-99746094D02*
G01*
X108315610Y-99775858D01*
X108331186Y-99822660D01*
X108331947Y-99837861D01*
X108321095Y-99887113D01*
X108291206Y-99922075D01*
X108246284Y-99939835D01*
X108193947Y-99938247D01*
X108158628Y-99918966D01*
X108134922Y-99880953D01*
X108126383Y-99830569D01*
X108136386Y-99782408D01*
X108165824Y-99750784D01*
X108213843Y-99736467D01*
X108231563Y-99735663D01*
X108281651Y-99746094D01*
G37*
G36*
X102810673Y-101742219D02*
G01*
X102847060Y-101769033D01*
X102864001Y-101811643D01*
X102860312Y-101868351D01*
X102857645Y-101878920D01*
X102834592Y-101919338D01*
X102795498Y-101943791D01*
X102745946Y-101950199D01*
X102697041Y-101938823D01*
X102669527Y-101915578D01*
X102650401Y-101877149D01*
X102643767Y-101833687D01*
X102646364Y-101813452D01*
X102665091Y-101768143D01*
X102696272Y-101742504D01*
X102744543Y-101733128D01*
X102756024Y-101732904D01*
X102810673Y-101742219D01*
G37*
G36*
X99116487Y-101995068D02*
G01*
X99156654Y-102014434D01*
X99185593Y-102049449D01*
X99197182Y-102097100D01*
X99197198Y-102099065D01*
X99190322Y-102137593D01*
X99174714Y-102168265D01*
X99142261Y-102191234D01*
X99099195Y-102203268D01*
X99059101Y-102200781D01*
X99055873Y-102199633D01*
X99015738Y-102174106D01*
X98995413Y-102134818D01*
X98991634Y-102098006D01*
X98995337Y-102057860D01*
X99009806Y-102030967D01*
X99026961Y-102015326D01*
X99071215Y-101994361D01*
X99116487Y-101995068D01*
G37*
G36*
X100588818Y-100530377D02*
G01*
X100632531Y-100547941D01*
X100654977Y-100579813D01*
X100656789Y-100626903D01*
X100656627Y-100627955D01*
X100639572Y-100673118D01*
X100609029Y-100699187D01*
X100570463Y-100704422D01*
X100529337Y-100687082D01*
X100513508Y-100673549D01*
X100487177Y-100635434D01*
X100486309Y-100598002D01*
X100510925Y-100559455D01*
X100514944Y-100555315D01*
X100543718Y-100532764D01*
X100572935Y-100528051D01*
X100588818Y-100530377D01*
G37*
G36*
X98361160Y-101471438D02*
G01*
X98400626Y-101495958D01*
X98427302Y-101536312D01*
X98432511Y-101574322D01*
X98425899Y-101618048D01*
X98410264Y-101657124D01*
X98388400Y-101681185D01*
X98388198Y-101681294D01*
X98347469Y-101693176D01*
X98299885Y-101693502D01*
X98256681Y-101683169D01*
X98233943Y-101668992D01*
X98204839Y-101623217D01*
X98199656Y-101568964D01*
X98207071Y-101536339D01*
X98232034Y-101495669D01*
X98270367Y-101471294D01*
X98315574Y-101463217D01*
X98361160Y-101471438D01*
G37*
G36*
X101567413Y-100535594D02*
G01*
X101599227Y-100561712D01*
X101618330Y-100596048D01*
X101619681Y-100625432D01*
X101598288Y-100670022D01*
X101562551Y-100696334D01*
X101517731Y-100701335D01*
X101496945Y-100696168D01*
X101464360Y-100673389D01*
X101448581Y-100639218D01*
X101448302Y-100600486D01*
X101462216Y-100564025D01*
X101489015Y-100536667D01*
X101527393Y-100525246D01*
X101529648Y-100525215D01*
X101567413Y-100535594D01*
G37*
G36*
X103315669Y-102797992D02*
G01*
X103345177Y-102827701D01*
X103359446Y-102868033D01*
X103359868Y-102876353D01*
X103349323Y-102920574D01*
X103321940Y-102950806D01*
X103284101Y-102964064D01*
X103242189Y-102957365D01*
X103217952Y-102942697D01*
X103193940Y-102909352D01*
X103189556Y-102870166D01*
X103202140Y-102832085D01*
X103229034Y-102802056D01*
X103267576Y-102787025D01*
X103277781Y-102786419D01*
X103315669Y-102797992D01*
G37*
G36*
X101590137Y-101742219D02*
G01*
X101626524Y-101769033D01*
X101643464Y-101811643D01*
X101639776Y-101868351D01*
X101637109Y-101878920D01*
X101614056Y-101919338D01*
X101574962Y-101943791D01*
X101525410Y-101950199D01*
X101476505Y-101938823D01*
X101448990Y-101915578D01*
X101429865Y-101877149D01*
X101423231Y-101833687D01*
X101425828Y-101813452D01*
X101444555Y-101768143D01*
X101475735Y-101742504D01*
X101524007Y-101733128D01*
X101535488Y-101732904D01*
X101590137Y-101742219D01*
G37*
G36*
X100358995Y-100007528D02*
G01*
X100393125Y-100036786D01*
X100410118Y-100070635D01*
X100411231Y-100103968D01*
X100401113Y-100142426D01*
X100383776Y-100173324D01*
X100375175Y-100181080D01*
X100349784Y-100188257D01*
X100312539Y-100190492D01*
X100276362Y-100187759D01*
X100255848Y-100181341D01*
X100234267Y-100156381D01*
X100217516Y-100119919D01*
X100212170Y-100090969D01*
X100219839Y-100063842D01*
X100238334Y-100032904D01*
X100238798Y-100032310D01*
X100275077Y-100003779D01*
X100317394Y-99996022D01*
X100358995Y-100007528D01*
G37*
G36*
X102359833Y-102535831D02*
G01*
X102388457Y-102556951D01*
X102400525Y-102595854D01*
X102401426Y-102615831D01*
X102390402Y-102659986D01*
X102361595Y-102692024D01*
X102321405Y-102708517D01*
X102276231Y-102706036D01*
X102252267Y-102695745D01*
X102231083Y-102670278D01*
X102220936Y-102631425D01*
X102223201Y-102589610D01*
X102234546Y-102561527D01*
X102253989Y-102540209D01*
X102281344Y-102530980D01*
X102311500Y-102529464D01*
X102359833Y-102535831D01*
G37*
G36*
X99141788Y-102538927D02*
G01*
X99172434Y-102566650D01*
X99184245Y-102611635D01*
X99184350Y-102617198D01*
X99173627Y-102661821D01*
X99145557Y-102693109D01*
X99106289Y-102708132D01*
X99061970Y-102703959D01*
X99033036Y-102689333D01*
X99011931Y-102665246D01*
X99004620Y-102627889D01*
X99004482Y-102619588D01*
X99012429Y-102571160D01*
X99037281Y-102541772D01*
X99080556Y-102529885D01*
X99093342Y-102529464D01*
X99141788Y-102538927D01*
G37*
G36*
X99135010Y-101070309D02*
G01*
X99155045Y-101085769D01*
X99169342Y-101122254D01*
X99163365Y-101157086D01*
X99142378Y-101185776D01*
X99111644Y-101203838D01*
X99076428Y-101206784D01*
X99041994Y-101190126D01*
X99037519Y-101185957D01*
X99019679Y-101151668D01*
X99021654Y-101110955D01*
X99034686Y-101084538D01*
X99061546Y-101066806D01*
X99098862Y-101062103D01*
X99135010Y-101070309D01*
G37*
G36*
X105755568Y-99741829D02*
G01*
X105787067Y-99759846D01*
X105806674Y-99791913D01*
X105814407Y-99834871D01*
X105809968Y-99877927D01*
X105793054Y-99910288D01*
X105791305Y-99911955D01*
X105750020Y-99934123D01*
X105698530Y-99940873D01*
X105675788Y-99938247D01*
X105640903Y-99919589D01*
X105617997Y-99884757D01*
X105608935Y-99841199D01*
X105615585Y-99796363D01*
X105632548Y-99765702D01*
X105665834Y-99742895D01*
X105710242Y-99734808D01*
X105755568Y-99741829D01*
G37*
G36*
X102800068Y-100007528D02*
G01*
X102834197Y-100036786D01*
X102851190Y-100070635D01*
X102852304Y-100103968D01*
X102842185Y-100142426D01*
X102824848Y-100173324D01*
X102816247Y-100181080D01*
X102790856Y-100188257D01*
X102753611Y-100190492D01*
X102717434Y-100187759D01*
X102696921Y-100181341D01*
X102675339Y-100156381D01*
X102658588Y-100119919D01*
X102653242Y-100090969D01*
X102660912Y-100063842D01*
X102679406Y-100032904D01*
X102679870Y-100032310D01*
X102716150Y-100003779D01*
X102758467Y-99996022D01*
X102800068Y-100007528D01*
G37*
G36*
X102108506Y-101742599D02*
G01*
X102144438Y-101770517D01*
X102161167Y-101814903D01*
X102160637Y-101854826D01*
X102143258Y-101904153D01*
X102110016Y-101937226D01*
X102066550Y-101951860D01*
X102018499Y-101945866D01*
X101980468Y-101924688D01*
X101955183Y-101890088D01*
X101944955Y-101844321D01*
X101950275Y-101797386D01*
X101971635Y-101759285D01*
X101972312Y-101758599D01*
X102005853Y-101738886D01*
X102054889Y-101732904D01*
X102108506Y-101742599D01*
G37*
G36*
X101557560Y-101995068D02*
G01*
X101597727Y-102014434D01*
X101626666Y-102049449D01*
X101638254Y-102097100D01*
X101638270Y-102099065D01*
X101631394Y-102137593D01*
X101615787Y-102168265D01*
X101583334Y-102191234D01*
X101540267Y-102203268D01*
X101500173Y-102200781D01*
X101496945Y-102199633D01*
X101456810Y-102174106D01*
X101436486Y-102134818D01*
X101432706Y-102098006D01*
X101436409Y-102057860D01*
X101450878Y-102030967D01*
X101468033Y-102015326D01*
X101512288Y-101994361D01*
X101557560Y-101995068D01*
G37*
G36*
X105311137Y-103066706D02*
G01*
X105340093Y-103094413D01*
X105351143Y-103133726D01*
X105341218Y-103179026D01*
X105337970Y-103185544D01*
X105315865Y-103203062D01*
X105280598Y-103210678D01*
X105242883Y-103207984D01*
X105213437Y-103194571D01*
X105209376Y-103190439D01*
X105197024Y-103163078D01*
X105192814Y-103133308D01*
X105201923Y-103089249D01*
X105229019Y-103063482D01*
X105267341Y-103056222D01*
X105311137Y-103066706D01*
G37*
G36*
X101809354Y-102791581D02*
G01*
X101853067Y-102809145D01*
X101875514Y-102841017D01*
X101877325Y-102888107D01*
X101877163Y-102889159D01*
X101860108Y-102934322D01*
X101829565Y-102960391D01*
X101790999Y-102965625D01*
X101749874Y-102948285D01*
X101734044Y-102934752D01*
X101707714Y-102896638D01*
X101706845Y-102859206D01*
X101731461Y-102820659D01*
X101735480Y-102816519D01*
X101764254Y-102793968D01*
X101793471Y-102789255D01*
X101809354Y-102791581D01*
G37*
G36*
X100122037Y-98951695D02*
G01*
X100148648Y-98971354D01*
X100167657Y-99005983D01*
X100174668Y-99052821D01*
X100169753Y-99101395D01*
X100152984Y-99141230D01*
X100147431Y-99148084D01*
X100123760Y-99168396D01*
X100105676Y-99176377D01*
X100080408Y-99178765D01*
X100064421Y-99181314D01*
X100029792Y-99182695D01*
X100011160Y-99180421D01*
X99974725Y-99161015D01*
X99948010Y-99124322D01*
X99933662Y-99077755D01*
X99934327Y-99028731D01*
X99945452Y-98996333D01*
X99977644Y-98960284D01*
X100022961Y-98940194D01*
X100073669Y-98937014D01*
X100122037Y-98951695D01*
G37*
G36*
X100369601Y-99481016D02*
G01*
X100405988Y-99507829D01*
X100422928Y-99550439D01*
X100419240Y-99607147D01*
X100416573Y-99617716D01*
X100393520Y-99658134D01*
X100354426Y-99682588D01*
X100304874Y-99688995D01*
X100255968Y-99677619D01*
X100228454Y-99654374D01*
X100209329Y-99615945D01*
X100202695Y-99572483D01*
X100205292Y-99552248D01*
X100224019Y-99506939D01*
X100255199Y-99481300D01*
X100303471Y-99471924D01*
X100314952Y-99471700D01*
X100369601Y-99481016D01*
G37*
G36*
X103320367Y-100273748D02*
G01*
X103346347Y-100292910D01*
X103358132Y-100329797D01*
X103359868Y-100363045D01*
X103349101Y-100404575D01*
X103321362Y-100433825D01*
X103283500Y-100448157D01*
X103242361Y-100444934D01*
X103205695Y-100422433D01*
X103184283Y-100384395D01*
X103182603Y-100338861D01*
X103200000Y-100296815D01*
X103220659Y-100277382D01*
X103252090Y-100269208D01*
X103276635Y-100268260D01*
X103320367Y-100273748D01*
G37*
G36*
X100346877Y-100535594D02*
G01*
X100378691Y-100561712D01*
X100397793Y-100596048D01*
X100399145Y-100625432D01*
X100377752Y-100670022D01*
X100342015Y-100696334D01*
X100297195Y-100701335D01*
X100276409Y-100696168D01*
X100243824Y-100673389D01*
X100228045Y-100639218D01*
X100227766Y-100600486D01*
X100241680Y-100564025D01*
X100268479Y-100536667D01*
X100306856Y-100525246D01*
X100309112Y-100525215D01*
X100346877Y-100535594D01*
G37*
G36*
X104291197Y-101742461D02*
G01*
X104318246Y-101759954D01*
X104334773Y-101792825D01*
X104341518Y-101837003D01*
X104338314Y-101881659D01*
X104324992Y-101915960D01*
X104320755Y-101920973D01*
X104291636Y-101936578D01*
X104249002Y-101945456D01*
X104204487Y-101946150D01*
X104174097Y-101939320D01*
X104145657Y-101914562D01*
X104129212Y-101875222D01*
X104125353Y-101829743D01*
X104134668Y-101786570D01*
X104157749Y-101754145D01*
X104160986Y-101751715D01*
X104200336Y-101735955D01*
X104247322Y-101733058D01*
X104291197Y-101742461D01*
G37*
G36*
X101590189Y-101473438D02*
G01*
X101628568Y-101503104D01*
X101648606Y-101550077D01*
X101651118Y-101578731D01*
X101641127Y-101633384D01*
X101611905Y-101671277D01*
X101564580Y-101691328D01*
X101530581Y-101694361D01*
X101489809Y-101691074D01*
X101463183Y-101678252D01*
X101446486Y-101660509D01*
X101421820Y-101612153D01*
X101418635Y-101562902D01*
X101434442Y-101518279D01*
X101466753Y-101483805D01*
X101513077Y-101465000D01*
X101535488Y-101463101D01*
X101590189Y-101473438D01*
G37*
G36*
X103562520Y-102793526D02*
G01*
X103595696Y-102816580D01*
X103614619Y-102855102D01*
X103616823Y-102876353D01*
X103606233Y-102920736D01*
X103578618Y-102951051D01*
X103540217Y-102964147D01*
X103497267Y-102956875D01*
X103478357Y-102946288D01*
X103457306Y-102922317D01*
X103449957Y-102885154D01*
X103449803Y-102876353D01*
X103455078Y-102835845D01*
X103473386Y-102810171D01*
X103478357Y-102806419D01*
X103521328Y-102789089D01*
X103562520Y-102793526D01*
G37*
G36*
X99412310Y-100017480D02*
G01*
X99439867Y-100050067D01*
X99450684Y-100094476D01*
X99449183Y-100114041D01*
X99438218Y-100149121D01*
X99421378Y-100173880D01*
X99419871Y-100175072D01*
X99382898Y-100189336D01*
X99338237Y-100190008D01*
X99297691Y-100177952D01*
X99280130Y-100164839D01*
X99259997Y-100126495D01*
X99256810Y-100081799D01*
X99270149Y-100040961D01*
X99285986Y-100022498D01*
X99329691Y-100000510D01*
X99373692Y-99999899D01*
X99412310Y-100017480D01*
G37*
G36*
X105761867Y-100004150D02*
G01*
X105770110Y-100008290D01*
X105797909Y-100040404D01*
X105810983Y-100083766D01*
X105808213Y-100128589D01*
X105788479Y-100165089D01*
X105788093Y-100165478D01*
X105753625Y-100185130D01*
X105710015Y-100191423D01*
X105668127Y-100184194D01*
X105642335Y-100167679D01*
X105624906Y-100133321D01*
X105620375Y-100090296D01*
X105628238Y-100048960D01*
X105647989Y-100019666D01*
X105649627Y-100018458D01*
X105684289Y-100003959D01*
X105725978Y-99998829D01*
X105761867Y-100004150D01*
G37*
G36*
X104282032Y-102537099D02*
G01*
X104303260Y-102549654D01*
X104320210Y-102581825D01*
X104323784Y-102623307D01*
X104314639Y-102663127D01*
X104294895Y-102689333D01*
X104251080Y-102707034D01*
X104205659Y-102704590D01*
X104169277Y-102683637D01*
X104149096Y-102648505D01*
X104144189Y-102605901D01*
X104154737Y-102566740D01*
X104167076Y-102550727D01*
X104199716Y-102534785D01*
X104241993Y-102530211D01*
X104282032Y-102537099D01*
G37*
G36*
X106799046Y-100277723D02*
G01*
X106829692Y-100305446D01*
X106841503Y-100350431D01*
X106841608Y-100355994D01*
X106830885Y-100400617D01*
X106802816Y-100431905D01*
X106763547Y-100446929D01*
X106719229Y-100442756D01*
X106690294Y-100428129D01*
X106669190Y-100404042D01*
X106661879Y-100366685D01*
X106661740Y-100358384D01*
X106669687Y-100309956D01*
X106694539Y-100280568D01*
X106737814Y-100268681D01*
X106750601Y-100268260D01*
X106799046Y-100277723D01*
G37*
G36*
X101579531Y-102268732D02*
G01*
X101613661Y-102297989D01*
X101630654Y-102331839D01*
X101631768Y-102365172D01*
X101621649Y-102403630D01*
X101604312Y-102434528D01*
X101595711Y-102442284D01*
X101570320Y-102449460D01*
X101533075Y-102451696D01*
X101496898Y-102448963D01*
X101476385Y-102442545D01*
X101454803Y-102417584D01*
X101438052Y-102381123D01*
X101432706Y-102352173D01*
X101440375Y-102325046D01*
X101458870Y-102294108D01*
X101459334Y-102293514D01*
X101495613Y-102264983D01*
X101537931Y-102257226D01*
X101579531Y-102268732D01*
G37*
G36*
X100369652Y-99212234D02*
G01*
X100408032Y-99241900D01*
X100428070Y-99288874D01*
X100430582Y-99317527D01*
X100420590Y-99372180D01*
X100391369Y-99410073D01*
X100344044Y-99430124D01*
X100310045Y-99433157D01*
X100269273Y-99429870D01*
X100242647Y-99417048D01*
X100225950Y-99399305D01*
X100201283Y-99350949D01*
X100198098Y-99301699D01*
X100213906Y-99257075D01*
X100246217Y-99222601D01*
X100292541Y-99203796D01*
X100314952Y-99201897D01*
X100369652Y-99212234D01*
G37*
G36*
X103059517Y-102269906D02*
G01*
X103090294Y-102294989D01*
X103108733Y-102334650D01*
X103110990Y-102379088D01*
X103097679Y-102418449D01*
X103081480Y-102436276D01*
X103052029Y-102447390D01*
X103011302Y-102451875D01*
X102972375Y-102449121D01*
X102952756Y-102442284D01*
X102933153Y-102417883D01*
X102919732Y-102380070D01*
X102916223Y-102341013D01*
X102918068Y-102329133D01*
X102939193Y-102290697D01*
X102974813Y-102267021D01*
X103017424Y-102259595D01*
X103059517Y-102269906D01*
G37*
G36*
X101311922Y-99738375D02*
G01*
X101350029Y-99758068D01*
X101361674Y-99770570D01*
X101378444Y-99813311D01*
X101378429Y-99861478D01*
X101361878Y-99903118D01*
X101358832Y-99907061D01*
X101326379Y-99930030D01*
X101283312Y-99942064D01*
X101243218Y-99939577D01*
X101239990Y-99938429D01*
X101199339Y-99912279D01*
X101179128Y-99872146D01*
X101175948Y-99839082D01*
X101178844Y-99795366D01*
X101190173Y-99768075D01*
X101214510Y-99748228D01*
X101225283Y-99742250D01*
X101266573Y-99732320D01*
X101311922Y-99738375D01*
G37*
G36*
X107259359Y-99753400D02*
G01*
X107286624Y-99789615D01*
X107295659Y-99838389D01*
X107290122Y-99874658D01*
X107272694Y-99911206D01*
X107241272Y-99931759D01*
X107237687Y-99933061D01*
X107208469Y-99942663D01*
X107188841Y-99944700D01*
X107164477Y-99939588D01*
X107150057Y-99935595D01*
X107115476Y-99913708D01*
X107094458Y-99874879D01*
X107090425Y-99825778D01*
X107091073Y-99820655D01*
X107103696Y-99774947D01*
X107128407Y-99747917D01*
X107164539Y-99734697D01*
X107217463Y-99733756D01*
X107259359Y-99753400D01*
G37*
G36*
X98875760Y-99475359D02*
G01*
X98913861Y-99496719D01*
X98914547Y-99497395D01*
X98936278Y-99535179D01*
X98941957Y-99582023D01*
X98932078Y-99627929D01*
X98907130Y-99662894D01*
X98906391Y-99663484D01*
X98859308Y-99686440D01*
X98809261Y-99687828D01*
X98764049Y-99667896D01*
X98753366Y-99658576D01*
X98727538Y-99616102D01*
X98722959Y-99566619D01*
X98739879Y-99517926D01*
X98748459Y-99505552D01*
X98783059Y-99480267D01*
X98828826Y-99470039D01*
X98875760Y-99475359D01*
G37*
G36*
X103580336Y-101741069D02*
G01*
X103615301Y-101766016D01*
X103615891Y-101766756D01*
X103639498Y-101812983D01*
X103641544Y-101858236D01*
X103625989Y-101898552D01*
X103596796Y-101929973D01*
X103557923Y-101948537D01*
X103513332Y-101950283D01*
X103466983Y-101931251D01*
X103457959Y-101924688D01*
X103432674Y-101890088D01*
X103422446Y-101844321D01*
X103427766Y-101797386D01*
X103449126Y-101759285D01*
X103449803Y-101758599D01*
X103487586Y-101736869D01*
X103534431Y-101731189D01*
X103580336Y-101741069D01*
G37*
G36*
X101316833Y-101736563D02*
G01*
X101354934Y-101757923D01*
X101355620Y-101758599D01*
X101377350Y-101796383D01*
X101383030Y-101843227D01*
X101373150Y-101889132D01*
X101348202Y-101924098D01*
X101347463Y-101924688D01*
X101300380Y-101947644D01*
X101250333Y-101949032D01*
X101205122Y-101929100D01*
X101194439Y-101919780D01*
X101168610Y-101877306D01*
X101164031Y-101827823D01*
X101180951Y-101779130D01*
X101189531Y-101766756D01*
X101224131Y-101741471D01*
X101269898Y-101731243D01*
X101316833Y-101736563D01*
G37*
G36*
X99395932Y-99741829D02*
G01*
X99427431Y-99759846D01*
X99447038Y-99791913D01*
X99454772Y-99834871D01*
X99450332Y-99877927D01*
X99433418Y-99910288D01*
X99431669Y-99911955D01*
X99390384Y-99934123D01*
X99338895Y-99940873D01*
X99316152Y-99938247D01*
X99281267Y-99919589D01*
X99258361Y-99884757D01*
X99249299Y-99841199D01*
X99255950Y-99796363D01*
X99272913Y-99765702D01*
X99306198Y-99742895D01*
X99350606Y-99734808D01*
X99395932Y-99741829D01*
G37*
G36*
X105770114Y-99481395D02*
G01*
X105806047Y-99509313D01*
X105822775Y-99553699D01*
X105822245Y-99593622D01*
X105804867Y-99642949D01*
X105771624Y-99676022D01*
X105728158Y-99690656D01*
X105680108Y-99684662D01*
X105642077Y-99663484D01*
X105616792Y-99628884D01*
X105606564Y-99583117D01*
X105611884Y-99536182D01*
X105633243Y-99498081D01*
X105633920Y-99497395D01*
X105667461Y-99477682D01*
X105716498Y-99471700D01*
X105770114Y-99481395D01*
G37*
G36*
X104818287Y-99753400D02*
G01*
X104845552Y-99789615D01*
X104854586Y-99838389D01*
X104849050Y-99874658D01*
X104831622Y-99911206D01*
X104800200Y-99931759D01*
X104796615Y-99933061D01*
X104767396Y-99942663D01*
X104747768Y-99944700D01*
X104723405Y-99939588D01*
X104708985Y-99935595D01*
X104674403Y-99913708D01*
X104653385Y-99874879D01*
X104649352Y-99825778D01*
X104650001Y-99820655D01*
X104662624Y-99774947D01*
X104687334Y-99747917D01*
X104723466Y-99734697D01*
X104776391Y-99733756D01*
X104818287Y-99753400D01*
G37*
G36*
X98347827Y-102791316D02*
G01*
X98380370Y-102814518D01*
X98398596Y-102854454D01*
X98400637Y-102876353D01*
X98390434Y-102923156D01*
X98362140Y-102954373D01*
X98319226Y-102966267D01*
X98317127Y-102966288D01*
X98286448Y-102959027D01*
X98262171Y-102946288D01*
X98239585Y-102916519D01*
X98232059Y-102876342D01*
X98239593Y-102836168D01*
X98262171Y-102806419D01*
X98306562Y-102787674D01*
X98347827Y-102791316D01*
G37*
G36*
X103067680Y-101473438D02*
G01*
X103106059Y-101503104D01*
X103126097Y-101550077D01*
X103128609Y-101578731D01*
X103118272Y-101633431D01*
X103088606Y-101671810D01*
X103041633Y-101691849D01*
X103012979Y-101694361D01*
X102966585Y-101687825D01*
X102931407Y-101665292D01*
X102928885Y-101662825D01*
X102904970Y-101628018D01*
X102897383Y-101582876D01*
X102897350Y-101578731D01*
X102907687Y-101524030D01*
X102937352Y-101485651D01*
X102984326Y-101465613D01*
X103012979Y-101463101D01*
X103067680Y-101473438D01*
G37*
G36*
X103329042Y-99481395D02*
G01*
X103364975Y-99509313D01*
X103381703Y-99553699D01*
X103381173Y-99593622D01*
X103363794Y-99642949D01*
X103330552Y-99676022D01*
X103287086Y-99690656D01*
X103239035Y-99684662D01*
X103201004Y-99663484D01*
X103175719Y-99628884D01*
X103165491Y-99583117D01*
X103170811Y-99536182D01*
X103192171Y-99498081D01*
X103192848Y-99497395D01*
X103226389Y-99477682D01*
X103275426Y-99471700D01*
X103329042Y-99481395D01*
G37*
G36*
X107482576Y-100530112D02*
G01*
X107515120Y-100553314D01*
X107533345Y-100593250D01*
X107535387Y-100615150D01*
X107525184Y-100661952D01*
X107496889Y-100693169D01*
X107453976Y-100705063D01*
X107451877Y-100705084D01*
X107421197Y-100697823D01*
X107396920Y-100685084D01*
X107375869Y-100661113D01*
X107368521Y-100623950D01*
X107368366Y-100615150D01*
X107373642Y-100574641D01*
X107391950Y-100548968D01*
X107396920Y-100545216D01*
X107441311Y-100526471D01*
X107482576Y-100530112D01*
G37*
G36*
X106783599Y-100535594D02*
G01*
X106815413Y-100561712D01*
X106834516Y-100596048D01*
X106835867Y-100625432D01*
X106816150Y-100665657D01*
X106783307Y-100692925D01*
X106744267Y-100704691D01*
X106705961Y-100698409D01*
X106683003Y-100681589D01*
X106663787Y-100644307D01*
X106663450Y-100602774D01*
X106679077Y-100564245D01*
X106707753Y-100535975D01*
X106745834Y-100525215D01*
X106783599Y-100535594D01*
G37*
G36*
X101300694Y-100000298D02*
G01*
X101339913Y-100018458D01*
X101360706Y-100046854D01*
X101369494Y-100087711D01*
X101365930Y-100130590D01*
X101349666Y-100165051D01*
X101344972Y-100169911D01*
X101309074Y-100187325D01*
X101263939Y-100190290D01*
X101221324Y-100179168D01*
X101201447Y-100165478D01*
X101180590Y-100128425D01*
X101175751Y-100094816D01*
X101186525Y-100048786D01*
X101214894Y-100015851D01*
X101254927Y-99998769D01*
X101300694Y-100000298D01*
G37*
G36*
X98375397Y-101212003D02*
G01*
X98415028Y-101241485D01*
X98436003Y-101288329D01*
X98439181Y-101321776D01*
X98428057Y-101375054D01*
X98397440Y-101415204D01*
X98351458Y-101439208D01*
X98294242Y-101444046D01*
X98275628Y-101441334D01*
X98237008Y-101422018D01*
X98210320Y-101385986D01*
X98197211Y-101340070D01*
X98199326Y-101291100D01*
X98218313Y-101245908D01*
X98226087Y-101235770D01*
X98250161Y-101212905D01*
X98277173Y-101202728D01*
X98318238Y-101201007D01*
X98375397Y-101212003D01*
G37*
G36*
X102803396Y-100277723D02*
G01*
X102834042Y-100305446D01*
X102845853Y-100350431D01*
X102845959Y-100355994D01*
X102835236Y-100400617D01*
X102807166Y-100431905D01*
X102767897Y-100446929D01*
X102723579Y-100442756D01*
X102694644Y-100428129D01*
X102673540Y-100404042D01*
X102666229Y-100366685D01*
X102666090Y-100358384D01*
X102674037Y-100309956D01*
X102698889Y-100280568D01*
X102742164Y-100268681D01*
X102754951Y-100268260D01*
X102803396Y-100277723D01*
G37*
G36*
X102778096Y-99733864D02*
G01*
X102818263Y-99753231D01*
X102847202Y-99788245D01*
X102858790Y-99835896D01*
X102858806Y-99837861D01*
X102851931Y-99876389D01*
X102836323Y-99907061D01*
X102803870Y-99930030D01*
X102760803Y-99942064D01*
X102720709Y-99939577D01*
X102717481Y-99938429D01*
X102677346Y-99912902D01*
X102657022Y-99873614D01*
X102653242Y-99836802D01*
X102656945Y-99796656D01*
X102671414Y-99769763D01*
X102688570Y-99754122D01*
X102732824Y-99733157D01*
X102778096Y-99733864D01*
G37*
G36*
X98604782Y-100530112D02*
G01*
X98637325Y-100553314D01*
X98655551Y-100593250D01*
X98657592Y-100615150D01*
X98652317Y-100655658D01*
X98634009Y-100681332D01*
X98629038Y-100685084D01*
X98584849Y-100703325D01*
X98542286Y-100697506D01*
X98516267Y-100679388D01*
X98495218Y-100643768D01*
X98490536Y-100602053D01*
X98502013Y-100564055D01*
X98519126Y-100545216D01*
X98563516Y-100526471D01*
X98604782Y-100530112D01*
G37*
G36*
X100346877Y-102796797D02*
G01*
X100378691Y-102822916D01*
X100397793Y-102857251D01*
X100399145Y-102886636D01*
X100377752Y-102931226D01*
X100342015Y-102957538D01*
X100297195Y-102962539D01*
X100276409Y-102957372D01*
X100243824Y-102934593D01*
X100228045Y-102900422D01*
X100227766Y-102861689D01*
X100241680Y-102825228D01*
X100268479Y-102797871D01*
X100306856Y-102786449D01*
X100309112Y-102786419D01*
X100346877Y-102796797D01*
G37*
G36*
X100093979Y-102797113D02*
G01*
X100123734Y-102827164D01*
X100135054Y-102873524D01*
X100135083Y-102876353D01*
X100129808Y-102916862D01*
X100111500Y-102942536D01*
X100106529Y-102946288D01*
X100062340Y-102964529D01*
X100019777Y-102958710D01*
X99993758Y-102940592D01*
X99972826Y-102904759D01*
X99970373Y-102864169D01*
X99983815Y-102826078D01*
X100010563Y-102797744D01*
X100048031Y-102786422D01*
X100048714Y-102786419D01*
X100093979Y-102797113D01*
G37*
G36*
X98371111Y-101741731D02*
G01*
X98407014Y-101768296D01*
X98424465Y-101812721D01*
X98426333Y-101838692D01*
X98415771Y-101888564D01*
X98387977Y-101925766D01*
X98348792Y-101947765D01*
X98304052Y-101952029D01*
X98259599Y-101936023D01*
X98239456Y-101919780D01*
X98215324Y-101884404D01*
X98207931Y-101838464D01*
X98207921Y-101836270D01*
X98216362Y-101784512D01*
X98242414Y-101751054D01*
X98287167Y-101734855D01*
X98316626Y-101732904D01*
X98371111Y-101741731D01*
G37*
G36*
X106799873Y-100008673D02*
G01*
X106832462Y-100037979D01*
X106846379Y-100084370D01*
X106846748Y-100094816D01*
X106836499Y-100144083D01*
X106807326Y-100176895D01*
X106761587Y-100190850D01*
X106752139Y-100191174D01*
X106714413Y-100186876D01*
X106685140Y-100176394D01*
X106683174Y-100175072D01*
X106666144Y-100151863D01*
X106654406Y-100117118D01*
X106653862Y-100114041D01*
X106656568Y-100063702D01*
X106679928Y-100025000D01*
X106720194Y-100002412D01*
X106750615Y-99998458D01*
X106799873Y-100008673D01*
G37*
G36*
X103329042Y-101742599D02*
G01*
X103364975Y-101770517D01*
X103381703Y-101814903D01*
X103381173Y-101854826D01*
X103363794Y-101904153D01*
X103330552Y-101937226D01*
X103287086Y-101951860D01*
X103239035Y-101945866D01*
X103201004Y-101924688D01*
X103175719Y-101890088D01*
X103165491Y-101844321D01*
X103170811Y-101797386D01*
X103192171Y-101759285D01*
X103192848Y-101758599D01*
X103226389Y-101738886D01*
X103275426Y-101732904D01*
X103329042Y-101742599D01*
G37*
G36*
X102085028Y-102793526D02*
G01*
X102118205Y-102816580D01*
X102137128Y-102855102D01*
X102139332Y-102876353D01*
X102128741Y-102920736D01*
X102101127Y-102951051D01*
X102062726Y-102964147D01*
X102019776Y-102956875D01*
X102000866Y-102946288D01*
X101979815Y-102922317D01*
X101972466Y-102885154D01*
X101972312Y-102876353D01*
X101977587Y-102835845D01*
X101995895Y-102810171D01*
X102000866Y-102806419D01*
X102043836Y-102789089D01*
X102085028Y-102793526D01*
G37*
G36*
X102108506Y-99481395D02*
G01*
X102144438Y-99509313D01*
X102161167Y-99553699D01*
X102160637Y-99593622D01*
X102143258Y-99642949D01*
X102110016Y-99676022D01*
X102066550Y-99690656D01*
X102018499Y-99684662D01*
X101980468Y-99663484D01*
X101955183Y-99628884D01*
X101944955Y-99583117D01*
X101950275Y-99536182D01*
X101971635Y-99498081D01*
X101972312Y-99497395D01*
X102005853Y-99477682D01*
X102054889Y-99471700D01*
X102108506Y-99481395D01*
G37*
G36*
X103844886Y-99479643D02*
G01*
X103880188Y-99504205D01*
X103897340Y-99546492D01*
X103899474Y-99575066D01*
X103889089Y-99625881D01*
X103861701Y-99663875D01*
X103822957Y-99686524D01*
X103778505Y-99691304D01*
X103733992Y-99675691D01*
X103712598Y-99658576D01*
X103688466Y-99623200D01*
X103681072Y-99577260D01*
X103681062Y-99575066D01*
X103689453Y-99523369D01*
X103715404Y-99489954D01*
X103760079Y-99473720D01*
X103790268Y-99471700D01*
X103844886Y-99479643D01*
G37*
G36*
X107218388Y-100000153D02*
G01*
X107257101Y-100019699D01*
X107283292Y-100054698D01*
X107291280Y-100094816D01*
X107281000Y-100143639D01*
X107251382Y-100176148D01*
X107204258Y-100190590D01*
X107190489Y-100191174D01*
X107144144Y-100183514D01*
X107119826Y-100167679D01*
X107102397Y-100133321D01*
X107097866Y-100090296D01*
X107105730Y-100048960D01*
X107125480Y-100019666D01*
X107127118Y-100018458D01*
X107173084Y-99998820D01*
X107218388Y-100000153D01*
G37*
G36*
X108278096Y-100009254D02*
G01*
X108312161Y-100037802D01*
X108328972Y-100078338D01*
X108325081Y-100125098D01*
X108317176Y-100143839D01*
X108296602Y-100173472D01*
X108269737Y-100187414D01*
X108229165Y-100190780D01*
X108194765Y-100188243D01*
X108171269Y-100182060D01*
X108170062Y-100181341D01*
X108145240Y-100151850D01*
X108131776Y-100110877D01*
X108132716Y-100077559D01*
X108153696Y-100030732D01*
X108188946Y-100004925D01*
X108230224Y-99998458D01*
X108278096Y-100009254D01*
G37*
G36*
X104783056Y-102793526D02*
G01*
X104816232Y-102816580D01*
X104835155Y-102855102D01*
X104837360Y-102876353D01*
X104826769Y-102920736D01*
X104799154Y-102951051D01*
X104760753Y-102964147D01*
X104717803Y-102956875D01*
X104698893Y-102946288D01*
X104677842Y-102922317D01*
X104670494Y-102885154D01*
X104670339Y-102876353D01*
X104675615Y-102835845D01*
X104693923Y-102810171D01*
X104698893Y-102806419D01*
X104741864Y-102789089D01*
X104783056Y-102793526D01*
G37*
G36*
X99409051Y-101742458D02*
G01*
X99436102Y-101759948D01*
X99453557Y-101793808D01*
X99460656Y-101838368D01*
X99457145Y-101882852D01*
X99442769Y-101916480D01*
X99439861Y-101919723D01*
X99408837Y-101936698D01*
X99364869Y-101945513D01*
X99319786Y-101944826D01*
X99291022Y-101936611D01*
X99261526Y-101908678D01*
X99245444Y-101867208D01*
X99243349Y-101820922D01*
X99255817Y-101778541D01*
X99278841Y-101751715D01*
X99318189Y-101735957D01*
X99365175Y-101733059D01*
X99409051Y-101742458D01*
G37*
G36*
X100369601Y-101742219D02*
G01*
X100405988Y-101769033D01*
X100422928Y-101811643D01*
X100419240Y-101868351D01*
X100416573Y-101878920D01*
X100393520Y-101919338D01*
X100354426Y-101943791D01*
X100304874Y-101950199D01*
X100255968Y-101938823D01*
X100228454Y-101915578D01*
X100209329Y-101877149D01*
X100202695Y-101833687D01*
X100205292Y-101813452D01*
X100224019Y-101768143D01*
X100255199Y-101742504D01*
X100303471Y-101733128D01*
X100314952Y-101732904D01*
X100369601Y-101742219D01*
G37*
G36*
X104280053Y-102269906D02*
G01*
X104310830Y-102294989D01*
X104329269Y-102334650D01*
X104331526Y-102379088D01*
X104318216Y-102418449D01*
X104302016Y-102436276D01*
X104272565Y-102447390D01*
X104231838Y-102451875D01*
X104192911Y-102449121D01*
X104173292Y-102442284D01*
X104153689Y-102417883D01*
X104140268Y-102380070D01*
X104136759Y-102341013D01*
X104138604Y-102329133D01*
X104159729Y-102290697D01*
X104195350Y-102267021D01*
X104237960Y-102259595D01*
X104280053Y-102269906D01*
G37*
G36*
X105317444Y-102001245D02*
G01*
X105346990Y-102022955D01*
X105368657Y-102049724D01*
X105375427Y-102077876D01*
X105373087Y-102108233D01*
X105364555Y-102145765D01*
X105352144Y-102173594D01*
X105348871Y-102177632D01*
X105320074Y-102193570D01*
X105280135Y-102202566D01*
X105243263Y-102201860D01*
X105235640Y-102199633D01*
X105194989Y-102173483D01*
X105174778Y-102133350D01*
X105171598Y-102100285D01*
X105174549Y-102056379D01*
X105185882Y-102029047D01*
X105209934Y-102009490D01*
X105218736Y-102004630D01*
X105269459Y-101990522D01*
X105317444Y-102001245D01*
G37*
G36*
X100337024Y-101995068D02*
G01*
X100377190Y-102014434D01*
X100406129Y-102049449D01*
X100417718Y-102097100D01*
X100417734Y-102099065D01*
X100410858Y-102137593D01*
X100395250Y-102168265D01*
X100362798Y-102191234D01*
X100319731Y-102203268D01*
X100279637Y-102200781D01*
X100276409Y-102199633D01*
X100236274Y-102174106D01*
X100215949Y-102134818D01*
X100212170Y-102098006D01*
X100215873Y-102057860D01*
X100230342Y-102030967D01*
X100247497Y-102015326D01*
X100291752Y-101994361D01*
X100337024Y-101995068D01*
G37*
G36*
X104800872Y-99479865D02*
G01*
X104835837Y-99504813D01*
X104836427Y-99505552D01*
X104860034Y-99551779D01*
X104862080Y-99597032D01*
X104846526Y-99637348D01*
X104817332Y-99668769D01*
X104778459Y-99687333D01*
X104733868Y-99689079D01*
X104687519Y-99670047D01*
X104678495Y-99663484D01*
X104653210Y-99628884D01*
X104642982Y-99583117D01*
X104648303Y-99536182D01*
X104669662Y-99498081D01*
X104670339Y-99497395D01*
X104708122Y-99475665D01*
X104754967Y-99469985D01*
X104800872Y-99479865D01*
G37*
G36*
X103065804Y-101205482D02*
G01*
X103106249Y-101232877D01*
X103131286Y-101277881D01*
X103133237Y-101285190D01*
X103136528Y-101343938D01*
X103118991Y-101391913D01*
X103084364Y-101425879D01*
X103036384Y-101442600D01*
X102978787Y-101438841D01*
X102961635Y-101433744D01*
X102922677Y-101408330D01*
X102899030Y-101369013D01*
X102890843Y-101322635D01*
X102898268Y-101276041D01*
X102921456Y-101236075D01*
X102956728Y-101211088D01*
X103014461Y-101197588D01*
X103065804Y-101205482D01*
G37*
G36*
X98356789Y-102533068D02*
G01*
X98383351Y-102544306D01*
X98388272Y-102549318D01*
X98402985Y-102584192D01*
X98403923Y-102628133D01*
X98391666Y-102668894D01*
X98381944Y-102682998D01*
X98349060Y-102703188D01*
X98307417Y-102708924D01*
X98268601Y-102699650D01*
X98253825Y-102689163D01*
X98229131Y-102648464D01*
X98224607Y-102601661D01*
X98235268Y-102568898D01*
X98252860Y-102546940D01*
X98279511Y-102535910D01*
X98312244Y-102532057D01*
X98356789Y-102533068D01*
G37*
G36*
X105300706Y-102794599D02*
G01*
X105322715Y-102806419D01*
X105345301Y-102836188D01*
X105352827Y-102876365D01*
X105345293Y-102916539D01*
X105322715Y-102946288D01*
X105278527Y-102964529D01*
X105235964Y-102958710D01*
X105209944Y-102940592D01*
X105186285Y-102902941D01*
X105183559Y-102864171D01*
X105197701Y-102829117D01*
X105224649Y-102802614D01*
X105260339Y-102789497D01*
X105300706Y-102794599D01*
G37*
G36*
X100093979Y-100535909D02*
G01*
X100123734Y-100565960D01*
X100135054Y-100612320D01*
X100135083Y-100615150D01*
X100129808Y-100655658D01*
X100111500Y-100681332D01*
X100106529Y-100685084D01*
X100062340Y-100703325D01*
X100019777Y-100697506D01*
X99993758Y-100679388D01*
X99972826Y-100643556D01*
X99970373Y-100602965D01*
X99983815Y-100564874D01*
X100010563Y-100536540D01*
X100048031Y-100525219D01*
X100048714Y-100525215D01*
X100093979Y-100535909D01*
G37*
G36*
X104800906Y-100274627D02*
G01*
X104829529Y-100295747D01*
X104841597Y-100334650D01*
X104842499Y-100354627D01*
X104831474Y-100398782D01*
X104802667Y-100430820D01*
X104762477Y-100447313D01*
X104717303Y-100444832D01*
X104693339Y-100434541D01*
X104672155Y-100409074D01*
X104662008Y-100370221D01*
X104664273Y-100328406D01*
X104675618Y-100300323D01*
X104695061Y-100279005D01*
X104722416Y-100269776D01*
X104752572Y-100268260D01*
X104800906Y-100274627D01*
G37*
G36*
X100096297Y-101736563D02*
G01*
X100134398Y-101757923D01*
X100135083Y-101758599D01*
X100156814Y-101796383D01*
X100162494Y-101843227D01*
X100152614Y-101889132D01*
X100127666Y-101924098D01*
X100126927Y-101924688D01*
X100079844Y-101947644D01*
X100029797Y-101949032D01*
X99984586Y-101929100D01*
X99973903Y-101919780D01*
X99948074Y-101877306D01*
X99943495Y-101827823D01*
X99960415Y-101779130D01*
X99968995Y-101766756D01*
X100003595Y-101741471D01*
X100049362Y-101731243D01*
X100096297Y-101736563D01*
G37*
G36*
X105051896Y-103332612D02*
G01*
X105075682Y-103361201D01*
X105081467Y-103395691D01*
X105074110Y-103437768D01*
X105050346Y-103460787D01*
X105010804Y-103467350D01*
X104977537Y-103462649D01*
X104955559Y-103451933D01*
X104943096Y-103424818D01*
X104941103Y-103387715D01*
X104949137Y-103353451D01*
X104959453Y-103338840D01*
X104987214Y-103326165D01*
X105010804Y-103322813D01*
X105051896Y-103332612D01*
G37*
G36*
X105041504Y-102791316D02*
G01*
X105074048Y-102814518D01*
X105092273Y-102854454D01*
X105094315Y-102876353D01*
X105084112Y-102923156D01*
X105055817Y-102954373D01*
X105012903Y-102966267D01*
X105010804Y-102966288D01*
X104980125Y-102959027D01*
X104955848Y-102946288D01*
X104934797Y-102922317D01*
X104927449Y-102885154D01*
X104927294Y-102876353D01*
X104932570Y-102835845D01*
X104950878Y-102810171D01*
X104955848Y-102806419D01*
X105000239Y-102787674D01*
X105041504Y-102791316D01*
G37*
G36*
X106533019Y-99475359D02*
G01*
X106571120Y-99496719D01*
X106571806Y-99497395D01*
X106593536Y-99535179D01*
X106599216Y-99582023D01*
X106589336Y-99627929D01*
X106564389Y-99662894D01*
X106563649Y-99663484D01*
X106516566Y-99686440D01*
X106466519Y-99687828D01*
X106421308Y-99667896D01*
X106410625Y-99658576D01*
X106384796Y-99616102D01*
X106380217Y-99566619D01*
X106397137Y-99517926D01*
X106405718Y-99505552D01*
X106440317Y-99480267D01*
X106486085Y-99470039D01*
X106533019Y-99475359D01*
G37*
G36*
X103029891Y-100530377D02*
G01*
X103073603Y-100547941D01*
X103096050Y-100579813D01*
X103097861Y-100626903D01*
X103097700Y-100627955D01*
X103080644Y-100673118D01*
X103050101Y-100699187D01*
X103011535Y-100704422D01*
X102970410Y-100687082D01*
X102954580Y-100673549D01*
X102928250Y-100635434D01*
X102927381Y-100598002D01*
X102951997Y-100559455D01*
X102956016Y-100555315D01*
X102984790Y-100532764D01*
X103014007Y-100528051D01*
X103029891Y-100530377D01*
G37*
G36*
X105312483Y-101736563D02*
G01*
X105350584Y-101757923D01*
X105351270Y-101758599D01*
X105373000Y-101796383D01*
X105378680Y-101843227D01*
X105368800Y-101889132D01*
X105343852Y-101924098D01*
X105343113Y-101924688D01*
X105296030Y-101947644D01*
X105245983Y-101949032D01*
X105200772Y-101929100D01*
X105190089Y-101919780D01*
X105164260Y-101877306D01*
X105159681Y-101827823D01*
X105176601Y-101779130D01*
X105185181Y-101766756D01*
X105219781Y-101741471D01*
X105265548Y-101731243D01*
X105312483Y-101736563D01*
G37*
G36*
X104536206Y-100536788D02*
G01*
X104565713Y-100566498D01*
X104579982Y-100606829D01*
X104580405Y-100615150D01*
X104569859Y-100659371D01*
X104542476Y-100689602D01*
X104504637Y-100702860D01*
X104462726Y-100696162D01*
X104438488Y-100681493D01*
X104414476Y-100648148D01*
X104410092Y-100608962D01*
X104422676Y-100570881D01*
X104449570Y-100540852D01*
X104488113Y-100525821D01*
X104498318Y-100525215D01*
X104536206Y-100536788D01*
G37*
G36*
X105041504Y-100530112D02*
G01*
X105074048Y-100553314D01*
X105092273Y-100593250D01*
X105094315Y-100615150D01*
X105084112Y-100661952D01*
X105055817Y-100693169D01*
X105012903Y-100705063D01*
X105010804Y-100705084D01*
X104980125Y-100697823D01*
X104955848Y-100685084D01*
X104934797Y-100661113D01*
X104927449Y-100623950D01*
X104927294Y-100615150D01*
X104932570Y-100574641D01*
X104950878Y-100548968D01*
X104955848Y-100545216D01*
X105000239Y-100526471D01*
X105041504Y-100530112D01*
G37*
G36*
X100362324Y-102538927D02*
G01*
X100392970Y-102566650D01*
X100404781Y-102611635D01*
X100404886Y-102617198D01*
X100394163Y-102661821D01*
X100366093Y-102693109D01*
X100326825Y-102708132D01*
X100282507Y-102703959D01*
X100253572Y-102689333D01*
X100232467Y-102665246D01*
X100225156Y-102627889D01*
X100225018Y-102619588D01*
X100232965Y-102571160D01*
X100257817Y-102541772D01*
X100301092Y-102529885D01*
X100313878Y-102529464D01*
X100362324Y-102538927D01*
G37*
G36*
X98875425Y-101069238D02*
G01*
X98899909Y-101094607D01*
X98907721Y-101131116D01*
X98898529Y-101165577D01*
X98874779Y-101191944D01*
X98840698Y-101205141D01*
X98805417Y-101204078D01*
X98778066Y-101187663D01*
X98773270Y-101180541D01*
X98762122Y-101139807D01*
X98768681Y-101100894D01*
X98791039Y-101073045D01*
X98796062Y-101070180D01*
X98839175Y-101059573D01*
X98875425Y-101069238D01*
G37*
G36*
X101582860Y-102538927D02*
G01*
X101613506Y-102566650D01*
X101625317Y-102611635D01*
X101625422Y-102617198D01*
X101614699Y-102661821D01*
X101586629Y-102693109D01*
X101547361Y-102708132D01*
X101503043Y-102703959D01*
X101474108Y-102689333D01*
X101453004Y-102665246D01*
X101445693Y-102627889D01*
X101445554Y-102619588D01*
X101453501Y-102571160D01*
X101478353Y-102541772D01*
X101521628Y-102529885D01*
X101534415Y-102529464D01*
X101582860Y-102538927D01*
G37*
G36*
X99368282Y-102791581D02*
G01*
X99411995Y-102809145D01*
X99434441Y-102841017D01*
X99436253Y-102888107D01*
X99436091Y-102889159D01*
X99419035Y-102934322D01*
X99388493Y-102960391D01*
X99349927Y-102965625D01*
X99308801Y-102948285D01*
X99292972Y-102934752D01*
X99266641Y-102896638D01*
X99265773Y-102859206D01*
X99290389Y-102820659D01*
X99294408Y-102816519D01*
X99323182Y-102793968D01*
X99352398Y-102789255D01*
X99368282Y-102791581D01*
G37*
G36*
X106285958Y-99479643D02*
G01*
X106321260Y-99504205D01*
X106338412Y-99546492D01*
X106340546Y-99575066D01*
X106330162Y-99625881D01*
X106302774Y-99663875D01*
X106264030Y-99686524D01*
X106219577Y-99691304D01*
X106175064Y-99675691D01*
X106153670Y-99658576D01*
X106129538Y-99623200D01*
X106122144Y-99577260D01*
X106122135Y-99575066D01*
X106130526Y-99523369D01*
X106156476Y-99489954D01*
X106201152Y-99473720D01*
X106231340Y-99471700D01*
X106285958Y-99479643D01*
G37*
G36*
X106773746Y-99733864D02*
G01*
X106813913Y-99753231D01*
X106842852Y-99788245D01*
X106854440Y-99835896D01*
X106854456Y-99837861D01*
X106847581Y-99876389D01*
X106831973Y-99907061D01*
X106799520Y-99930030D01*
X106756453Y-99942064D01*
X106716359Y-99939577D01*
X106713131Y-99938429D01*
X106672996Y-99912902D01*
X106652672Y-99873614D01*
X106648892Y-99836802D01*
X106652595Y-99796656D01*
X106667064Y-99769763D01*
X106684220Y-99754122D01*
X106728474Y-99733157D01*
X106773746Y-99733864D01*
G37*
G36*
X102359833Y-100274627D02*
G01*
X102388457Y-100295747D01*
X102400525Y-100334650D01*
X102401426Y-100354627D01*
X102390402Y-100398782D01*
X102361595Y-100430820D01*
X102321405Y-100447313D01*
X102276231Y-100444832D01*
X102252267Y-100434541D01*
X102231083Y-100409074D01*
X102220936Y-100370221D01*
X102223201Y-100328406D01*
X102234546Y-100300323D01*
X102253989Y-100279005D01*
X102281344Y-100269776D01*
X102311500Y-100268260D01*
X102359833Y-100274627D01*
G37*
G36*
X98344891Y-99734619D02*
G01*
X98384247Y-99753072D01*
X98409605Y-99786517D01*
X98420458Y-99828078D01*
X98416299Y-99870878D01*
X98396623Y-99908040D01*
X98360922Y-99932689D01*
X98359520Y-99933191D01*
X98329989Y-99942259D01*
X98312466Y-99945391D01*
X98311998Y-99945317D01*
X98294534Y-99941762D01*
X98274696Y-99937911D01*
X98246751Y-99921158D01*
X98224462Y-99888952D01*
X98210940Y-99836598D01*
X98219584Y-99790531D01*
X98246930Y-99755189D01*
X98289517Y-99735011D01*
X98343880Y-99734433D01*
X98344891Y-99734619D01*
G37*
G36*
X105756742Y-100536788D02*
G01*
X105786249Y-100566498D01*
X105800518Y-100606829D01*
X105800941Y-100615150D01*
X105790395Y-100659371D01*
X105763012Y-100689602D01*
X105725174Y-100702860D01*
X105683262Y-100696162D01*
X105659024Y-100681493D01*
X105635012Y-100648148D01*
X105630628Y-100608962D01*
X105643213Y-100570881D01*
X105670106Y-100540852D01*
X105708649Y-100525821D01*
X105718854Y-100525215D01*
X105756742Y-100536788D01*
G37*
G36*
X103298959Y-100001331D02*
G01*
X103338982Y-100019566D01*
X103346520Y-100026576D01*
X103367919Y-100065844D01*
X103371395Y-100111535D01*
X103356911Y-100153202D01*
X103347021Y-100165478D01*
X103312552Y-100185130D01*
X103268942Y-100191423D01*
X103227055Y-100184194D01*
X103201263Y-100167679D01*
X103183833Y-100133321D01*
X103179303Y-100090296D01*
X103187166Y-100048960D01*
X103206917Y-100019666D01*
X103208554Y-100018458D01*
X103252124Y-100000764D01*
X103298959Y-100001331D01*
G37*
G36*
X102987284Y-104389528D02*
G01*
X103035463Y-104398525D01*
X103082312Y-104411943D01*
X103142799Y-104435798D01*
X103209069Y-104466447D01*
X103273262Y-104500249D01*
X103327523Y-104533562D01*
X103328997Y-104534572D01*
X103410545Y-104596690D01*
X103488171Y-104668950D01*
X103564046Y-104754067D01*
X103640339Y-104854755D01*
X103719219Y-104973728D01*
X103802855Y-105113702D01*
X103829839Y-105161340D01*
X103879510Y-105247690D01*
X103920938Y-105313604D01*
X103956677Y-105361961D01*
X103989280Y-105395643D01*
X104021301Y-105417529D01*
X104055294Y-105430501D01*
X104071681Y-105434154D01*
X104144191Y-105458334D01*
X104200248Y-105498624D01*
X104237983Y-105551328D01*
X104255526Y-105612746D01*
X104251009Y-105679180D01*
X104226447Y-105740363D01*
X104153245Y-105847669D01*
X104059643Y-105952421D01*
X103950882Y-106050361D01*
X103832199Y-106137229D01*
X103708835Y-106208765D01*
X103586600Y-106260518D01*
X103546802Y-106270562D01*
X103490249Y-106280501D01*
X103425848Y-106288905D01*
X103386176Y-106292695D01*
X103298988Y-106302490D01*
X103229963Y-106316105D01*
X103190666Y-106329198D01*
X103136717Y-106361019D01*
X103085228Y-106404930D01*
X103044287Y-106453250D01*
X103026409Y-106485167D01*
X103020593Y-106502640D01*
X103021520Y-106518363D01*
X103031997Y-106537063D01*
X103054830Y-106563465D01*
X103092824Y-106602293D01*
X103100564Y-106610041D01*
X103209564Y-106735847D01*
X103294894Y-106871415D01*
X103356530Y-107016457D01*
X103394450Y-107170682D01*
X103408630Y-107333802D01*
X103399047Y-107505526D01*
X103365679Y-107685566D01*
X103308503Y-107873631D01*
X103227495Y-108069432D01*
X103217951Y-108089702D01*
X103185593Y-108156600D01*
X103154499Y-108218013D01*
X103122947Y-108276572D01*
X103089214Y-108334910D01*
X103051579Y-108395656D01*
X103008319Y-108461442D01*
X102957712Y-108534899D01*
X102898036Y-108618660D01*
X102827569Y-108715354D01*
X102744588Y-108827613D01*
X102665295Y-108934067D01*
X102554242Y-109084603D01*
X102459037Y-109217740D01*
X102378571Y-109335387D01*
X102311736Y-109439451D01*
X102257424Y-109531840D01*
X102214525Y-109614462D01*
X102181931Y-109689225D01*
X102158534Y-109758035D01*
X102143225Y-109822802D01*
X102140851Y-109836577D01*
X102135549Y-109926114D01*
X102150974Y-110000686D01*
X102187199Y-110060611D01*
X102193107Y-110066999D01*
X102219783Y-110089962D01*
X102252668Y-110107562D01*
X102297334Y-110121821D01*
X102359352Y-110134761D01*
X102397580Y-110141203D01*
X102444307Y-110159606D01*
X102490340Y-110195752D01*
X102528438Y-110242536D01*
X102551067Y-110291757D01*
X102556461Y-110358411D01*
X102539492Y-110424428D01*
X102502955Y-110483941D01*
X102449646Y-110531084D01*
X102432257Y-110541183D01*
X102423905Y-110543933D01*
X102409090Y-110546392D01*
X102386516Y-110548574D01*
X102354892Y-110550493D01*
X102312922Y-110552161D01*
X102259312Y-110553593D01*
X102192770Y-110554801D01*
X102112001Y-110555800D01*
X102015711Y-110556603D01*
X101902607Y-110557223D01*
X101771394Y-110557674D01*
X101620779Y-110557970D01*
X101449468Y-110558124D01*
X101256168Y-110558149D01*
X101039583Y-110558059D01*
X100832712Y-110557900D01*
X100633338Y-110557637D01*
X100440494Y-110557222D01*
X100255807Y-110556665D01*
X100080904Y-110555978D01*
X99917414Y-110555174D01*
X99766963Y-110554263D01*
X99631180Y-110553258D01*
X99511691Y-110552171D01*
X99410124Y-110551012D01*
X99328107Y-110549795D01*
X99267268Y-110548530D01*
X99229233Y-110547230D01*
X99216469Y-110546204D01*
X99095388Y-110509156D01*
X98978105Y-110448159D01*
X98865927Y-110364838D01*
X98760156Y-110260817D01*
X98662097Y-110137722D01*
X98573054Y-109997177D01*
X98494331Y-109840808D01*
X98427231Y-109670239D01*
X98376086Y-109499050D01*
X98344472Y-109356573D01*
X98320832Y-109209892D01*
X98305569Y-109064476D01*
X98299086Y-108925793D01*
X98301787Y-108799310D01*
X98314075Y-108690496D01*
X98315763Y-108681239D01*
X98335705Y-108589330D01*
X98364931Y-108474758D01*
X98403111Y-108338690D01*
X98449913Y-108182292D01*
X98505006Y-108006730D01*
X98522870Y-107951214D01*
X98552894Y-107856560D01*
X98584291Y-107754387D01*
X98614634Y-107652815D01*
X98641496Y-107559959D01*
X98661184Y-107488695D01*
X98681245Y-107412480D01*
X98695476Y-107353586D01*
X98704864Y-107304562D01*
X98710390Y-107257952D01*
X98713038Y-107206304D01*
X98713791Y-107142164D01*
X98713731Y-107090415D01*
X98712338Y-106994627D01*
X98708312Y-106916496D01*
X98700965Y-106848054D01*
X98689610Y-106781336D01*
X98685177Y-106759795D01*
X98643233Y-106595022D01*
X98592146Y-106452942D01*
X98531237Y-106331988D01*
X98459829Y-106230593D01*
X98452540Y-106221996D01*
X98412617Y-106170531D01*
X98373238Y-106111443D01*
X98345713Y-106062790D01*
X98325918Y-106020758D01*
X98313685Y-105985955D01*
X98307247Y-105949545D01*
X98304837Y-105902693D01*
X98304605Y-105857226D01*
X98308889Y-105771592D01*
X98323107Y-105703092D01*
X98350088Y-105644168D01*
X98392658Y-105587261D01*
X98414398Y-105563668D01*
X98492711Y-105500200D01*
X98584536Y-105457128D01*
X98686866Y-105435161D01*
X98796697Y-105435010D01*
X98889251Y-105451407D01*
X99022705Y-105498412D01*
X99149029Y-105567793D01*
X99265133Y-105656550D01*
X99367924Y-105761682D01*
X99454311Y-105880190D01*
X99521204Y-106009072D01*
X99552086Y-106094715D01*
X99567049Y-106169050D01*
X99574396Y-106263407D01*
X99574440Y-106373368D01*
X99567499Y-106494514D01*
X99553887Y-106622428D01*
X99533920Y-106752691D01*
X99507913Y-106880884D01*
X99491101Y-106949090D01*
X99466334Y-107039260D01*
X99441139Y-107121925D01*
X99413952Y-107200504D01*
X99383208Y-107278419D01*
X99347342Y-107359092D01*
X99304790Y-107445942D01*
X99253987Y-107542391D01*
X99193369Y-107651861D01*
X99121371Y-107777771D01*
X99077741Y-107852891D01*
X98989951Y-108007843D01*
X98917288Y-108146362D01*
X98858446Y-108271767D01*
X98812117Y-108387376D01*
X98776996Y-108496509D01*
X98751775Y-108602486D01*
X98735148Y-108708626D01*
X98732854Y-108729072D01*
X98726311Y-108842821D01*
X98730655Y-108949713D01*
X98745099Y-109046337D01*
X98768856Y-109129282D01*
X98801140Y-109195137D01*
X98841163Y-109240490D01*
X98852655Y-109248452D01*
X98912876Y-109271280D01*
X98975768Y-109270851D01*
X99036270Y-109248413D01*
X99089319Y-109205213D01*
X99104482Y-109186399D01*
X99122351Y-109159140D01*
X99134215Y-109131934D01*
X99141902Y-109097678D01*
X99147239Y-109049268D01*
X99150188Y-109008754D01*
X99172643Y-108835479D01*
X99217831Y-108650344D01*
X99285728Y-108453425D01*
X99376311Y-108244797D01*
X99390834Y-108214593D01*
X99523837Y-107964618D01*
X99670291Y-107735122D01*
X99832032Y-107524083D01*
X100010892Y-107329482D01*
X100208707Y-107149298D01*
X100427310Y-106981510D01*
X100633527Y-106845466D01*
X100755653Y-106769957D01*
X100858383Y-106705977D01*
X100944317Y-106651771D01*
X101016054Y-106605583D01*
X101076193Y-106565658D01*
X101127333Y-106530241D01*
X101172075Y-106497576D01*
X101213017Y-106465908D01*
X101252758Y-106433482D01*
X101288645Y-106403061D01*
X101383353Y-106318310D01*
X101459464Y-106241955D01*
X101520710Y-106169684D01*
X101570825Y-106097182D01*
X101604227Y-106038388D01*
X101635115Y-105974919D01*
X101658451Y-105914928D01*
X101675635Y-105852359D01*
X101688062Y-105781152D01*
X101697132Y-105695252D01*
X101703003Y-105610307D01*
X101708654Y-105531017D01*
X101716029Y-105451544D01*
X101724298Y-105379619D01*
X101732634Y-105322972D01*
X101735372Y-105308385D01*
X101779809Y-105137612D01*
X101839900Y-104980470D01*
X101914390Y-104838855D01*
X102002019Y-104714660D01*
X102101533Y-104609779D01*
X102211672Y-104526107D01*
X102279801Y-104488102D01*
X102324894Y-104463748D01*
X102350980Y-104442666D01*
X102363479Y-104420161D01*
X102364999Y-104414297D01*
X102391607Y-104328136D01*
X102433322Y-104236732D01*
X102487278Y-104143502D01*
X102550606Y-104051862D01*
X102620440Y-103965227D01*
X102693912Y-103887013D01*
X102768156Y-103820638D01*
X102840304Y-103769515D01*
X102907490Y-103737062D01*
X102940603Y-103728518D01*
X102987284Y-103720943D01*
X102987284Y-104389528D01*
G37*
G36*
X100588818Y-102791581D02*
G01*
X100632531Y-102809145D01*
X100654977Y-102841017D01*
X100656789Y-102888107D01*
X100656627Y-102889159D01*
X100639572Y-102934322D01*
X100609029Y-102960391D01*
X100570463Y-102965625D01*
X100529337Y-102948285D01*
X100513508Y-102934752D01*
X100487177Y-102896638D01*
X100486309Y-102859206D01*
X100510925Y-102820659D01*
X100514944Y-102816519D01*
X100543718Y-102793968D01*
X100572935Y-102789255D01*
X100588818Y-102791581D01*
G37*
G36*
X104780604Y-103325278D02*
G01*
X104807425Y-103346879D01*
X104821803Y-103384657D01*
X104822177Y-103387980D01*
X104820653Y-103422959D01*
X104811311Y-103448491D01*
X104810968Y-103448918D01*
X104785895Y-103462605D01*
X104749560Y-103466843D01*
X104714728Y-103461287D01*
X104698604Y-103451933D01*
X104687798Y-103428984D01*
X104683189Y-103395097D01*
X104683187Y-103394414D01*
X104692632Y-103354420D01*
X104716493Y-103329359D01*
X104748055Y-103319541D01*
X104780604Y-103325278D01*
G37*
G36*
X103839091Y-100008737D02*
G01*
X103871600Y-100038355D01*
X103886043Y-100085480D01*
X103886626Y-100099248D01*
X103878225Y-100147118D01*
X103852133Y-100177048D01*
X103807014Y-100190268D01*
X103786773Y-100191174D01*
X103746146Y-100186778D01*
X103720746Y-100171155D01*
X103713910Y-100162620D01*
X103694272Y-100116654D01*
X103695605Y-100071349D01*
X103715151Y-100032636D01*
X103750150Y-100006445D01*
X103790268Y-99998458D01*
X103839091Y-100008737D01*
G37*
G36*
X101590137Y-99481016D02*
G01*
X101626524Y-99507829D01*
X101643464Y-99550439D01*
X101639776Y-99607147D01*
X101637109Y-99617716D01*
X101614056Y-99658134D01*
X101574962Y-99682588D01*
X101525410Y-99688995D01*
X101476505Y-99677619D01*
X101448990Y-99654374D01*
X101429865Y-99615945D01*
X101423231Y-99572483D01*
X101425828Y-99552248D01*
X101444555Y-99506939D01*
X101475735Y-99481300D01*
X101524007Y-99471924D01*
X101535488Y-99471700D01*
X101590137Y-99481016D01*
G37*
G36*
X104278077Y-102003032D02*
G01*
X104309576Y-102021049D01*
X104329182Y-102053117D01*
X104336916Y-102096075D01*
X104332477Y-102139130D01*
X104315563Y-102171492D01*
X104313814Y-102173159D01*
X104272529Y-102195327D01*
X104221039Y-102202077D01*
X104198297Y-102199451D01*
X104163412Y-102180793D01*
X104140505Y-102145961D01*
X104131444Y-102102403D01*
X104138094Y-102057566D01*
X104155057Y-102026905D01*
X104188343Y-102004099D01*
X104232751Y-101996012D01*
X104278077Y-102003032D01*
G37*
D13*
%TO.C,U2*%
X92999996Y-121892541D02*
G75*
G03*
X92999996Y-121892541I-3300000J0D01*
G01*
%TO.C,U4*%
X211979996Y-121892541D02*
G75*
G03*
X211979996Y-121892541I-3300000J0D01*
G01*
%TO.C,U3*%
X212449996Y-71872541D02*
G75*
G03*
X212449996Y-71872541I-3300000J0D01*
G01*
%TO.C,U1*%
X92999996Y-71872541D02*
G75*
G03*
X92999996Y-71872541I-3300000J0D01*
G01*
%TD*%
M02*
