%TF.GenerationSoftware,KiCad,Pcbnew,(6.0.6-0)*%
%TF.CreationDate,2022-09-08T22:47:46-07:00*%
%TF.ProjectId,GlowSignMainPCB,476c6f77-5369-4676-9e4d-61696e504342,rev?*%
%TF.SameCoordinates,Original*%
%TF.FileFunction,Profile,NP*%
%FSLAX46Y46*%
G04 Gerber Fmt 4.6, Leading zero omitted, Abs format (unit mm)*
G04 Created by KiCad (PCBNEW (6.0.6-0)) date 2022-09-08 22:47:46*
%MOMM*%
%LPD*%
G01*
G04 APERTURE LIST*
%TA.AperFunction,Profile*%
%ADD10C,0.100000*%
%TD*%
G04 APERTURE END LIST*
D10*
X227715666Y-70844334D02*
G75*
G03*
X227715666Y-70844334I-3300000J0D01*
G01*
X81215666Y-70844334D02*
G75*
G03*
X81215666Y-70844334I-3300000J0D01*
G01*
X122215666Y-130594327D02*
X122215666Y-134060500D01*
X123215665Y-129593817D02*
G75*
G03*
X122215666Y-130594327I401J-1000400D01*
G01*
X184915666Y-129593817D02*
X123215666Y-129594334D01*
X184915666Y-129593834D02*
G75*
G03*
X186915666Y-127594334I400J1999600D01*
G01*
X186915956Y-73594327D02*
X186915666Y-127594334D01*
X186915973Y-73594327D02*
G75*
G03*
X184915666Y-71594327I-1999907J93D01*
G01*
X123215666Y-71594327D02*
X184915666Y-71594334D01*
X122215956Y-70594334D02*
G75*
G03*
X123215666Y-71594327I1000109J116D01*
G01*
X122215786Y-67060497D02*
X122215666Y-70594334D01*
X122215786Y-67060497D02*
G75*
G03*
X121215666Y-66060497I-999721J279D01*
G01*
X86115666Y-66059817D02*
X121215666Y-66060500D01*
X86115666Y-66059817D02*
G75*
G03*
X85115666Y-67060500I400J-1000400D01*
G01*
X85115786Y-134060497D02*
X85115666Y-67060500D01*
X85115786Y-134060497D02*
G75*
G03*
X86115666Y-135060497I1000281J281D01*
G01*
X121215666Y-135059817D02*
X86115666Y-135060500D01*
X121215666Y-135059817D02*
G75*
G03*
X122215666Y-134060500I400J999600D01*
G01*
X227715666Y-130344334D02*
G75*
G03*
X227715666Y-130344334I-3300000J0D01*
G01*
X81215666Y-130344334D02*
G75*
G03*
X81215666Y-130344334I-3300000J0D01*
G01*
X235915666Y-140594334D02*
X235915956Y-60594327D01*
X234665666Y-141843834D02*
G75*
G03*
X235915666Y-140594334I400J1249600D01*
G01*
X164852858Y-141844334D02*
X234665666Y-141843817D01*
X164852858Y-141344334D02*
X164852858Y-141844334D01*
X164852973Y-141344334D02*
G75*
G03*
X164352856Y-140844327I-499907J100D01*
G01*
X153352858Y-140844334D02*
X164352856Y-140844327D01*
X153352858Y-140844024D02*
G75*
G03*
X152852856Y-141344327I208J-500210D01*
G01*
X152852858Y-142844334D02*
X152852856Y-141344327D01*
X141482944Y-142844334D02*
X152852858Y-142844334D01*
X141482943Y-142844334D02*
G75*
G03*
X140478366Y-141844327I-1004878J-4883D01*
G01*
X67665666Y-141844327D02*
X140478366Y-141844327D01*
X66415956Y-140594327D02*
G75*
G03*
X67665666Y-141844327I1250109J109D01*
G01*
X66415666Y-60594334D02*
X66415956Y-140594327D01*
X67665666Y-59343817D02*
G75*
G03*
X66415666Y-60594334I401J-1250401D01*
G01*
X234665666Y-59344327D02*
X67665666Y-59343817D01*
X235915973Y-60594327D02*
G75*
G03*
X234665666Y-59344327I-1249907J93D01*
G01*
M02*
