%TF.GenerationSoftware,KiCad,Pcbnew,(6.0.6-0)*%
%TF.CreationDate,2022-10-05T15:39:13+02:00*%
%TF.ProjectId,Battery Extension PCB,42617474-6572-4792-9045-7874656e7369,rev?*%
%TF.SameCoordinates,Original*%
%TF.FileFunction,Copper,L2,Bot*%
%TF.FilePolarity,Positive*%
%FSLAX46Y46*%
G04 Gerber Fmt 4.6, Leading zero omitted, Abs format (unit mm)*
G04 Created by KiCad (PCBNEW (6.0.6-0)) date 2022-10-05 15:39:13*
%MOMM*%
%LPD*%
G01*
G04 APERTURE LIST*
%TA.AperFunction,SMDPad,CuDef*%
%ADD10R,2.000000X3.500000*%
%TD*%
%TA.AperFunction,SMDPad,CuDef*%
%ADD11R,3.500000X2.000000*%
%TD*%
%TA.AperFunction,ViaPad*%
%ADD12C,1.300000*%
%TD*%
%TA.AperFunction,ViaPad*%
%ADD13C,0.800000*%
%TD*%
%TA.AperFunction,Conductor*%
%ADD14C,0.700000*%
%TD*%
%TA.AperFunction,Conductor*%
%ADD15C,0.600000*%
%TD*%
%TA.AperFunction,Conductor*%
%ADD16C,1.000000*%
%TD*%
%TA.AperFunction,Conductor*%
%ADD17C,0.200000*%
%TD*%
%TA.AperFunction,Conductor*%
%ADD18C,0.250000*%
%TD*%
%TA.AperFunction,Conductor*%
%ADD19C,0.550000*%
%TD*%
%TA.AperFunction,Conductor*%
%ADD20C,0.150000*%
%TD*%
G04 APERTURE END LIST*
D10*
%TO.P,P4,1*%
%TO.N,BATT CHARGING*%
X138252200Y-80721200D03*
%TD*%
%TO.P,P14,1*%
%TO.N,VBUS*%
X128244600Y-80721200D03*
%TD*%
D11*
%TO.P,P5,1*%
%TO.N,+5V*%
X142240000Y-77343000D03*
%TD*%
%TO.P,P6,1*%
%TO.N,GND*%
X142240000Y-71729600D03*
%TD*%
%TO.P,P9,1*%
%TO.N,-BATT*%
X66751200Y-72694800D03*
%TD*%
%TO.P,P8,1*%
%TO.N,+BATT*%
X66751200Y-69926200D03*
%TD*%
D10*
%TO.P,P10,1*%
%TO.N,BATT VOLT*%
X118338600Y-80721200D03*
%TD*%
D12*
%TO.N,*%
X141071600Y-74676000D03*
X75031600Y-65430400D03*
D13*
%TO.N,GND*%
X118540936Y-74509315D03*
X130810000Y-79044800D03*
X136799194Y-71328406D03*
X117703600Y-73558400D03*
X121818400Y-69443600D03*
X121513600Y-74066400D03*
X110947200Y-69189600D03*
X108966000Y-69189600D03*
X134513194Y-71328406D03*
X135940800Y-79146400D03*
X131318000Y-69545200D03*
X120396000Y-73050400D03*
X117856000Y-69240400D03*
X116687600Y-69189600D03*
X124155200Y-73050400D03*
X138627989Y-73868411D03*
X109829600Y-69189600D03*
%TO.N,VBUS*%
X128727200Y-74117200D03*
X134721600Y-69545200D03*
X94183200Y-71526400D03*
X126414017Y-78817983D03*
%TO.N,+BATT*%
X80772000Y-70662800D03*
X89611200Y-71308300D03*
X70662800Y-69342000D03*
X92405200Y-71272400D03*
X126796800Y-69443600D03*
%TO.N,-BATT*%
X74523600Y-71018400D03*
X123037600Y-74472800D03*
X124206000Y-70459600D03*
X129997200Y-75946000D03*
X71374000Y-70358000D03*
X134772400Y-75946000D03*
X121869200Y-71780400D03*
%TO.N,+5V*%
X140004800Y-77774800D03*
X121564400Y-76250800D03*
%TO.N,BATT VOLT*%
X78689200Y-73406000D03*
X117754400Y-78384400D03*
%TO.N,Net-(R8-Pad1)*%
X137174900Y-75857700D03*
X126238000Y-74218800D03*
%TO.N,BATT CHARGING*%
X138684000Y-78486000D03*
X139039600Y-75133200D03*
X136601200Y-74930000D03*
%TO.N,Net-(R9-Pad1)*%
X95148400Y-73546700D03*
X113926879Y-73585132D03*
%TD*%
D14*
%TO.N,GND*%
X117856000Y-69240400D02*
X117805200Y-69189600D01*
D15*
X131470400Y-79705200D02*
X135382000Y-79705200D01*
D16*
X136799194Y-71328406D02*
X141838806Y-71328406D01*
D15*
X117703600Y-73558400D02*
X119888000Y-73558400D01*
X135382000Y-79705200D02*
X135940800Y-79146400D01*
X141838806Y-71328406D02*
X142240000Y-71729600D01*
D14*
X117805200Y-69189600D02*
X116687600Y-69189600D01*
D15*
X131318000Y-69545200D02*
X127812800Y-73050400D01*
X124155200Y-73050400D02*
X120396000Y-73050400D01*
X119888000Y-73558400D02*
X120396000Y-73050400D01*
X130810000Y-79044800D02*
X131470400Y-79705200D01*
X127812800Y-73050400D02*
X124155200Y-73050400D01*
D17*
%TO.N,VBUS*%
X114960400Y-72237600D02*
X121462800Y-78740000D01*
X121462800Y-78740000D02*
X126336033Y-78740000D01*
X126414017Y-78817983D02*
X128270000Y-80673967D01*
X94284800Y-71729600D02*
X103530400Y-71729600D01*
X94183200Y-71628000D02*
X94284800Y-71729600D01*
D15*
X134721600Y-69545200D02*
X133299200Y-69545200D01*
X133299200Y-69545200D02*
X128727200Y-74117200D01*
D17*
X104038400Y-72237600D02*
X114960400Y-72237600D01*
X103530400Y-71729600D02*
X104038400Y-72237600D01*
X94183200Y-71526400D02*
X94183200Y-71628000D01*
X126336033Y-78740000D02*
X126414017Y-78817983D01*
D15*
%TO.N,+BATT*%
X70662800Y-69342000D02*
X70662800Y-69443600D01*
D18*
X92369300Y-71308300D02*
X89611200Y-71308300D01*
D15*
X123849003Y-69443600D02*
X126796800Y-69443600D01*
X80772000Y-70662800D02*
X82194400Y-69240400D01*
D18*
X92405200Y-71272400D02*
X92369300Y-71308300D01*
D15*
X122934603Y-70358000D02*
X123849003Y-69443600D01*
X105718893Y-70358000D02*
X122934603Y-70358000D01*
X82194400Y-69240400D02*
X104601293Y-69240400D01*
X70662800Y-69443600D02*
X70180200Y-69926200D01*
X70180200Y-69926200D02*
X68021200Y-69926200D01*
X104601293Y-69240400D02*
X105718893Y-70358000D01*
%TO.N,-BATT*%
X71374000Y-71628000D02*
X70307200Y-72694800D01*
X122885200Y-71780400D02*
X121869200Y-71780400D01*
D19*
X124714000Y-76200000D02*
X123037600Y-74523600D01*
X123037600Y-74523600D02*
X123037600Y-74472800D01*
D15*
X70307200Y-72694800D02*
X68021200Y-72694800D01*
X124206000Y-70459600D02*
X122885200Y-71780400D01*
X104749600Y-71221600D02*
X121310400Y-71221600D01*
X82753200Y-71678800D02*
X84175600Y-70256400D01*
D19*
X134772400Y-75946000D02*
X129997200Y-75946000D01*
X129997200Y-75946000D02*
X129743200Y-76200000D01*
D15*
X84175600Y-70256400D02*
X103784400Y-70256400D01*
X74523600Y-71018400D02*
X75184000Y-71678800D01*
X103784400Y-70256400D02*
X104749600Y-71221600D01*
D19*
X129743200Y-76200000D02*
X124714000Y-76200000D01*
D15*
X71374000Y-70358000D02*
X71374000Y-71628000D01*
X75184000Y-71678800D02*
X82753200Y-71678800D01*
X121310400Y-71221600D02*
X121869200Y-71780400D01*
D16*
%TO.N,+5V*%
X138156835Y-76758800D02*
X138988800Y-76758800D01*
D15*
X141870230Y-77774800D02*
X142499615Y-77145415D01*
D16*
X123121600Y-77554000D02*
X137361635Y-77554000D01*
X121818400Y-76250800D02*
X123121600Y-77554000D01*
X137361635Y-77554000D02*
X138156835Y-76758800D01*
X140004800Y-77774800D02*
X141870230Y-77774800D01*
X121564400Y-76250800D02*
X121818400Y-76250800D01*
X138988800Y-76758800D02*
X140004800Y-77774800D01*
D17*
%TO.N,BATT VOLT*%
X78689200Y-73406000D02*
X79248000Y-72847200D01*
D20*
X79248000Y-72847200D02*
X114554000Y-72847200D01*
D17*
X118110000Y-78384400D02*
X117754400Y-78384400D01*
X118338600Y-78155800D02*
X118338600Y-80673967D01*
X118338600Y-78155800D02*
X118110000Y-78384400D01*
X118338600Y-76631800D02*
X118338600Y-78155800D01*
D20*
X114554000Y-72847200D02*
X118338600Y-76631800D01*
D18*
%TO.N,Net-(R8-Pad1)*%
X127152400Y-75133200D02*
X135779095Y-75133200D01*
X136503595Y-75857700D02*
X137174900Y-75857700D01*
X135779095Y-75133200D02*
X136503595Y-75857700D01*
X126238000Y-74218800D02*
X127152400Y-75133200D01*
%TO.N,BATT CHARGING*%
X138684000Y-78486000D02*
X138252200Y-78917800D01*
X136804400Y-75133200D02*
X136601200Y-74930000D01*
X139039600Y-75133200D02*
X136804400Y-75133200D01*
X138252200Y-78917800D02*
X138252200Y-80648967D01*
%TO.N,Net-(R9-Pad1)*%
X114096800Y-73755053D02*
X113926879Y-73585132D01*
D20*
X95148400Y-73546700D02*
X113881900Y-73546700D01*
D18*
X114096800Y-73761600D02*
X114096800Y-73755053D01*
D20*
X113881900Y-73546700D02*
X114096800Y-73761600D01*
%TD*%
%TA.AperFunction,Conductor*%
%TO.N,GND*%
G36*
X136748637Y-78582502D02*
G01*
X136795130Y-78636158D01*
X136805234Y-78706432D01*
X136798498Y-78732729D01*
X136750455Y-78860884D01*
X136743700Y-78923066D01*
X136743700Y-80139467D01*
X136723698Y-80207588D01*
X136670042Y-80254081D01*
X136617700Y-80265467D01*
X129879100Y-80265467D01*
X129810979Y-80245465D01*
X129764486Y-80191809D01*
X129753100Y-80139467D01*
X129753100Y-78923066D01*
X129746345Y-78860884D01*
X129698302Y-78732729D01*
X129693119Y-78661922D01*
X129727040Y-78599554D01*
X129789295Y-78565424D01*
X129816284Y-78562500D01*
X136680516Y-78562500D01*
X136748637Y-78582502D01*
G37*
%TD.AperFunction*%
%TA.AperFunction,Conductor*%
G36*
X132579640Y-68905302D02*
G01*
X132626133Y-68958958D01*
X132636237Y-69029232D01*
X132606743Y-69093812D01*
X132600614Y-69100395D01*
X130536511Y-71164497D01*
X128475288Y-73225720D01*
X128437442Y-73251732D01*
X128276478Y-73323397D01*
X128276476Y-73323398D01*
X128270448Y-73326082D01*
X128265107Y-73329962D01*
X128265106Y-73329963D01*
X128233824Y-73352691D01*
X128115947Y-73438334D01*
X128111526Y-73443244D01*
X128111525Y-73443245D01*
X128045905Y-73516124D01*
X127988160Y-73580256D01*
X127955279Y-73637208D01*
X127900675Y-73731785D01*
X127892673Y-73745644D01*
X127833658Y-73927272D01*
X127832968Y-73933833D01*
X127832968Y-73933835D01*
X127822290Y-74035435D01*
X127813696Y-74117200D01*
X127814386Y-74123765D01*
X127831983Y-74291188D01*
X127833658Y-74307128D01*
X127835697Y-74313403D01*
X127835698Y-74313408D01*
X127842637Y-74334762D01*
X127844666Y-74405729D01*
X127808005Y-74466528D01*
X127744293Y-74497854D01*
X127722805Y-74499700D01*
X127466994Y-74499700D01*
X127398873Y-74479698D01*
X127377899Y-74462795D01*
X127185122Y-74270018D01*
X127151096Y-74207706D01*
X127148907Y-74194093D01*
X127132232Y-74035435D01*
X127132232Y-74035433D01*
X127131542Y-74028872D01*
X127072527Y-73847244D01*
X127053177Y-73813728D01*
X127013868Y-73745644D01*
X126977040Y-73681856D01*
X126929719Y-73629300D01*
X126853675Y-73544845D01*
X126853674Y-73544844D01*
X126849253Y-73539934D01*
X126694752Y-73427682D01*
X126688724Y-73424998D01*
X126688722Y-73424997D01*
X126526319Y-73352691D01*
X126526318Y-73352691D01*
X126520288Y-73350006D01*
X126414242Y-73327465D01*
X126339944Y-73311672D01*
X126339939Y-73311672D01*
X126333487Y-73310300D01*
X126142513Y-73310300D01*
X126136061Y-73311672D01*
X126136056Y-73311672D01*
X126061758Y-73327465D01*
X125955712Y-73350006D01*
X125949682Y-73352691D01*
X125949681Y-73352691D01*
X125787278Y-73424997D01*
X125787276Y-73424998D01*
X125781248Y-73427682D01*
X125626747Y-73539934D01*
X125622326Y-73544844D01*
X125622325Y-73544845D01*
X125546282Y-73629300D01*
X125498960Y-73681856D01*
X125462132Y-73745644D01*
X125422824Y-73813728D01*
X125403473Y-73847244D01*
X125344458Y-74028872D01*
X125343768Y-74035433D01*
X125343768Y-74035435D01*
X125341007Y-74061708D01*
X125324496Y-74218800D01*
X125325186Y-74225365D01*
X125334440Y-74313408D01*
X125344458Y-74408728D01*
X125403473Y-74590356D01*
X125498960Y-74755744D01*
X125503378Y-74760651D01*
X125503379Y-74760652D01*
X125591037Y-74858006D01*
X125626747Y-74897666D01*
X125781248Y-75009918D01*
X125787276Y-75012602D01*
X125787278Y-75012603D01*
X125903554Y-75064372D01*
X125955712Y-75087594D01*
X126049112Y-75107447D01*
X126136056Y-75125928D01*
X126136061Y-75125928D01*
X126142513Y-75127300D01*
X126198405Y-75127300D01*
X126266526Y-75147302D01*
X126287500Y-75164205D01*
X126324700Y-75201405D01*
X126358726Y-75263717D01*
X126353661Y-75334532D01*
X126311114Y-75391368D01*
X126244594Y-75416179D01*
X126235605Y-75416500D01*
X125090726Y-75416500D01*
X125022605Y-75396498D01*
X125001631Y-75379595D01*
X123963719Y-74341683D01*
X123931690Y-74282694D01*
X123931142Y-74282872D01*
X123872127Y-74101244D01*
X123776640Y-73935856D01*
X123726037Y-73879655D01*
X123653275Y-73798845D01*
X123653274Y-73798844D01*
X123648853Y-73793934D01*
X123494352Y-73681682D01*
X123488324Y-73678998D01*
X123488322Y-73678997D01*
X123325919Y-73606691D01*
X123325918Y-73606691D01*
X123319888Y-73604006D01*
X123208154Y-73580256D01*
X123139544Y-73565672D01*
X123139539Y-73565672D01*
X123133087Y-73564300D01*
X122942113Y-73564300D01*
X122935661Y-73565672D01*
X122935656Y-73565672D01*
X122867046Y-73580256D01*
X122755312Y-73604006D01*
X122749282Y-73606691D01*
X122749281Y-73606691D01*
X122586878Y-73678997D01*
X122586876Y-73678998D01*
X122580848Y-73681682D01*
X122426347Y-73793934D01*
X122421926Y-73798844D01*
X122421925Y-73798845D01*
X122349164Y-73879655D01*
X122298560Y-73935856D01*
X122203073Y-74101244D01*
X122144058Y-74282872D01*
X122143368Y-74289433D01*
X122143368Y-74289435D01*
X122139268Y-74328446D01*
X122124096Y-74472800D01*
X122124786Y-74479365D01*
X122143327Y-74655769D01*
X122144058Y-74662728D01*
X122203073Y-74844356D01*
X122298560Y-75009744D01*
X122426347Y-75151666D01*
X122426490Y-75151770D01*
X122462476Y-75210184D01*
X122461124Y-75281168D01*
X122421609Y-75340152D01*
X122356478Y-75368409D01*
X122280225Y-75353788D01*
X122223014Y-75322336D01*
X122223012Y-75322335D01*
X122217613Y-75319367D01*
X122212531Y-75317755D01*
X122207837Y-75315238D01*
X122118869Y-75288038D01*
X122117841Y-75287718D01*
X122029094Y-75259565D01*
X122023798Y-75258971D01*
X122018702Y-75257413D01*
X121926143Y-75248010D01*
X121925007Y-75247889D01*
X121891392Y-75244119D01*
X121878670Y-75242692D01*
X121878666Y-75242692D01*
X121875173Y-75242300D01*
X121871646Y-75242300D01*
X121870661Y-75242245D01*
X121864981Y-75241798D01*
X121835575Y-75238811D01*
X121828063Y-75238048D01*
X121828061Y-75238048D01*
X121821938Y-75237426D01*
X121782501Y-75241154D01*
X121776291Y-75241741D01*
X121764433Y-75242300D01*
X121514631Y-75242300D01*
X121511575Y-75242600D01*
X121511568Y-75242600D01*
X121456315Y-75248018D01*
X121367567Y-75256720D01*
X121361666Y-75258502D01*
X121361664Y-75258502D01*
X121314364Y-75272783D01*
X121178231Y-75313884D01*
X121003604Y-75406734D01*
X120968167Y-75435636D01*
X120855113Y-75527840D01*
X120855110Y-75527843D01*
X120850338Y-75531735D01*
X120846411Y-75536482D01*
X120846409Y-75536484D01*
X120728199Y-75679375D01*
X120728197Y-75679379D01*
X120724270Y-75684125D01*
X120630202Y-75858099D01*
X120571718Y-76047032D01*
X120571074Y-76053157D01*
X120571074Y-76053158D01*
X120556908Y-76187945D01*
X120551045Y-76243725D01*
X120556933Y-76308420D01*
X120567746Y-76427233D01*
X120568970Y-76440688D01*
X120570708Y-76446594D01*
X120570709Y-76446598D01*
X120597188Y-76536566D01*
X120624810Y-76630419D01*
X120627667Y-76635883D01*
X120627669Y-76635889D01*
X120693623Y-76762047D01*
X120707458Y-76831683D01*
X120681448Y-76897744D01*
X120623852Y-76939256D01*
X120552957Y-76943039D01*
X120492867Y-76909518D01*
X115828544Y-72245195D01*
X115794518Y-72182883D01*
X115799583Y-72112068D01*
X115842130Y-72055232D01*
X115908650Y-72030421D01*
X115917639Y-72030100D01*
X120903535Y-72030100D01*
X120971656Y-72050102D01*
X121018149Y-72103758D01*
X121023368Y-72117163D01*
X121034673Y-72151956D01*
X121130160Y-72317344D01*
X121134578Y-72322251D01*
X121134579Y-72322252D01*
X121226711Y-72424575D01*
X121257947Y-72459266D01*
X121353104Y-72528402D01*
X121386973Y-72553009D01*
X121412448Y-72571518D01*
X121418476Y-72574202D01*
X121418478Y-72574203D01*
X121546568Y-72631232D01*
X121586912Y-72649194D01*
X121680312Y-72669047D01*
X121767256Y-72687528D01*
X121767261Y-72687528D01*
X121773713Y-72688900D01*
X121964687Y-72688900D01*
X121971139Y-72687528D01*
X121971144Y-72687528D01*
X122058088Y-72669047D01*
X122151488Y-72649194D01*
X122191832Y-72631232D01*
X122262445Y-72599793D01*
X122313694Y-72588900D01*
X122875986Y-72588900D01*
X122877306Y-72588907D01*
X122967421Y-72589851D01*
X123009797Y-72580689D01*
X123022363Y-72578631D01*
X123065455Y-72573797D01*
X123072106Y-72571481D01*
X123072110Y-72571480D01*
X123097130Y-72562767D01*
X123111942Y-72558604D01*
X123137819Y-72553009D01*
X123144710Y-72551519D01*
X123184013Y-72533192D01*
X123195789Y-72528410D01*
X123236752Y-72514145D01*
X123242727Y-72510411D01*
X123242730Y-72510410D01*
X123265195Y-72496373D01*
X123278712Y-72489034D01*
X123302714Y-72477841D01*
X123302715Y-72477840D01*
X123309102Y-72474862D01*
X123330668Y-72458134D01*
X123343353Y-72448294D01*
X123353812Y-72440998D01*
X123384604Y-72421758D01*
X123384607Y-72421756D01*
X123390576Y-72418026D01*
X123398683Y-72409976D01*
X123419379Y-72389424D01*
X123420004Y-72388839D01*
X123420670Y-72388322D01*
X123446660Y-72362332D01*
X123519282Y-72290215D01*
X123519940Y-72289178D01*
X123521043Y-72287949D01*
X124457912Y-71351080D01*
X124495758Y-71325068D01*
X124656722Y-71253403D01*
X124656724Y-71253402D01*
X124662752Y-71250718D01*
X124676241Y-71240918D01*
X124769852Y-71172905D01*
X124817253Y-71138466D01*
X124821675Y-71133555D01*
X124940621Y-71001452D01*
X124940622Y-71001451D01*
X124945040Y-70996544D01*
X125028023Y-70852814D01*
X125037223Y-70836879D01*
X125037224Y-70836878D01*
X125040527Y-70831156D01*
X125099542Y-70649528D01*
X125100426Y-70641123D01*
X125118814Y-70466165D01*
X125119504Y-70459600D01*
X125112322Y-70391270D01*
X125125094Y-70321433D01*
X125173596Y-70269586D01*
X125237632Y-70252100D01*
X126352306Y-70252100D01*
X126403555Y-70262993D01*
X126481125Y-70297529D01*
X126514512Y-70312394D01*
X126607913Y-70332247D01*
X126694856Y-70350728D01*
X126694861Y-70350728D01*
X126701313Y-70352100D01*
X126892287Y-70352100D01*
X126898739Y-70350728D01*
X126898744Y-70350728D01*
X126985687Y-70332247D01*
X127079088Y-70312394D01*
X127085119Y-70309709D01*
X127247522Y-70237403D01*
X127247524Y-70237402D01*
X127253552Y-70234718D01*
X127267483Y-70224597D01*
X127353923Y-70161794D01*
X127408053Y-70122466D01*
X127418132Y-70111272D01*
X127531421Y-69985452D01*
X127531422Y-69985451D01*
X127535840Y-69980544D01*
X127631327Y-69815156D01*
X127690342Y-69633528D01*
X127705229Y-69491891D01*
X127709614Y-69450165D01*
X127710304Y-69443600D01*
X127709614Y-69437035D01*
X127691032Y-69260235D01*
X127691032Y-69260233D01*
X127690342Y-69253672D01*
X127631327Y-69072044D01*
X127628022Y-69066319D01*
X127626344Y-69062551D01*
X127616909Y-68992184D01*
X127647014Y-68927886D01*
X127707102Y-68890072D01*
X127741450Y-68885300D01*
X132511519Y-68885300D01*
X132579640Y-68905302D01*
G37*
%TD.AperFunction*%
%TA.AperFunction,Conductor*%
G36*
X142233236Y-68905302D02*
G01*
X142279729Y-68958958D01*
X142291115Y-69011300D01*
X142291115Y-73993587D01*
X142271113Y-74061708D01*
X142217457Y-74108201D01*
X142147183Y-74118305D01*
X142082603Y-74088811D01*
X142064481Y-74067445D01*
X142063615Y-74068092D01*
X141939674Y-73902114D01*
X141936222Y-73897491D01*
X141779871Y-73752963D01*
X141599801Y-73639347D01*
X141402041Y-73560449D01*
X141396381Y-73559323D01*
X141396377Y-73559322D01*
X141198882Y-73520038D01*
X141198880Y-73520038D01*
X141193215Y-73518911D01*
X141187440Y-73518835D01*
X141187436Y-73518835D01*
X141080761Y-73517439D01*
X140980316Y-73516124D01*
X140974619Y-73517103D01*
X140974618Y-73517103D01*
X140776164Y-73551203D01*
X140776161Y-73551204D01*
X140770474Y-73552181D01*
X140570716Y-73625875D01*
X140387734Y-73734739D01*
X140227654Y-73875125D01*
X140095838Y-74042333D01*
X140093149Y-74047444D01*
X140093147Y-74047447D01*
X140064843Y-74101244D01*
X139996700Y-74230762D01*
X139994986Y-74236283D01*
X139994984Y-74236287D01*
X139966368Y-74328446D01*
X139933561Y-74434102D01*
X139932882Y-74439841D01*
X139931286Y-74453324D01*
X139903416Y-74518622D01*
X139844668Y-74558486D01*
X139773693Y-74560260D01*
X139712523Y-74522826D01*
X139708738Y-74518622D01*
X139650853Y-74454334D01*
X139496352Y-74342082D01*
X139490324Y-74339398D01*
X139490322Y-74339397D01*
X139327919Y-74267091D01*
X139327918Y-74267091D01*
X139321888Y-74264406D01*
X139228488Y-74244553D01*
X139141544Y-74226072D01*
X139141539Y-74226072D01*
X139135087Y-74224700D01*
X138944113Y-74224700D01*
X138937661Y-74226072D01*
X138937656Y-74226072D01*
X138850712Y-74244553D01*
X138757312Y-74264406D01*
X138751282Y-74267091D01*
X138751281Y-74267091D01*
X138588878Y-74339397D01*
X138588876Y-74339398D01*
X138582848Y-74342082D01*
X138577507Y-74345962D01*
X138577506Y-74345963D01*
X138504818Y-74398774D01*
X138428347Y-74454334D01*
X138423932Y-74459237D01*
X138419020Y-74463660D01*
X138417895Y-74462411D01*
X138364586Y-74495251D01*
X138331400Y-74499700D01*
X137474557Y-74499700D01*
X137406436Y-74479698D01*
X137365438Y-74436700D01*
X137343541Y-74398774D01*
X137340240Y-74393056D01*
X137242591Y-74284605D01*
X137216875Y-74256045D01*
X137216874Y-74256044D01*
X137212453Y-74251134D01*
X137057952Y-74138882D01*
X137051924Y-74136198D01*
X137051922Y-74136197D01*
X136889519Y-74063891D01*
X136889518Y-74063891D01*
X136883488Y-74061206D01*
X136790087Y-74041353D01*
X136703144Y-74022872D01*
X136703139Y-74022872D01*
X136696687Y-74021500D01*
X136505713Y-74021500D01*
X136499261Y-74022872D01*
X136499256Y-74022872D01*
X136412313Y-74041353D01*
X136318912Y-74061206D01*
X136312882Y-74063891D01*
X136312881Y-74063891D01*
X136150478Y-74136197D01*
X136150476Y-74136198D01*
X136144448Y-74138882D01*
X135989947Y-74251134D01*
X135985526Y-74256044D01*
X135985525Y-74256045D01*
X135959810Y-74284605D01*
X135862160Y-74393056D01*
X135841651Y-74428579D01*
X135836962Y-74436700D01*
X135785579Y-74485693D01*
X135727843Y-74499700D01*
X129792282Y-74499700D01*
X129724161Y-74479698D01*
X129677668Y-74426042D01*
X129667564Y-74355768D01*
X129697058Y-74291188D01*
X129703187Y-74284605D01*
X131213523Y-72774269D01*
X139982001Y-72774269D01*
X139982371Y-72781090D01*
X139987895Y-72831952D01*
X139991521Y-72847204D01*
X140036676Y-72967654D01*
X140045214Y-72983249D01*
X140121715Y-73085324D01*
X140134276Y-73097885D01*
X140236351Y-73174386D01*
X140251946Y-73182924D01*
X140372394Y-73228078D01*
X140387649Y-73231705D01*
X140438514Y-73237231D01*
X140445328Y-73237600D01*
X141967885Y-73237599D01*
X141983124Y-73233124D01*
X141984329Y-73231734D01*
X141986000Y-73224051D01*
X141986000Y-72001715D01*
X141981525Y-71986476D01*
X141980135Y-71985271D01*
X141972452Y-71983600D01*
X140000116Y-71983600D01*
X139984877Y-71988075D01*
X139983672Y-71989465D01*
X139982001Y-71997148D01*
X139982001Y-72774269D01*
X131213523Y-72774269D01*
X132530307Y-71457485D01*
X139982000Y-71457485D01*
X139986475Y-71472724D01*
X139987865Y-71473929D01*
X139995548Y-71475600D01*
X141967885Y-71475600D01*
X141983124Y-71471125D01*
X141984329Y-71469735D01*
X141986000Y-71462052D01*
X141986000Y-70239715D01*
X141981525Y-70224476D01*
X141980135Y-70223271D01*
X141972452Y-70221600D01*
X140445331Y-70221601D01*
X140438510Y-70221971D01*
X140387648Y-70227495D01*
X140372396Y-70231121D01*
X140251946Y-70276276D01*
X140236351Y-70284814D01*
X140134276Y-70361315D01*
X140121715Y-70373876D01*
X140045214Y-70475951D01*
X140036676Y-70491546D01*
X139991522Y-70611994D01*
X139987895Y-70627249D01*
X139982369Y-70678114D01*
X139982000Y-70684928D01*
X139982000Y-71457485D01*
X132530307Y-71457485D01*
X133597187Y-70390605D01*
X133659499Y-70356579D01*
X133686282Y-70353700D01*
X134277106Y-70353700D01*
X134328355Y-70364593D01*
X134439312Y-70413994D01*
X134532713Y-70433847D01*
X134619656Y-70452328D01*
X134619661Y-70452328D01*
X134626113Y-70453700D01*
X134817087Y-70453700D01*
X134823539Y-70452328D01*
X134823544Y-70452328D01*
X134910487Y-70433847D01*
X135003888Y-70413994D01*
X135093995Y-70373876D01*
X135172322Y-70339003D01*
X135172324Y-70339002D01*
X135178352Y-70336318D01*
X135198840Y-70321433D01*
X135286956Y-70257412D01*
X135332853Y-70224066D01*
X135388923Y-70161794D01*
X135456221Y-70087052D01*
X135456222Y-70087051D01*
X135460640Y-70082144D01*
X135556127Y-69916756D01*
X135615142Y-69735128D01*
X135625821Y-69633528D01*
X135634414Y-69551765D01*
X135635104Y-69545200D01*
X135627133Y-69469360D01*
X135615832Y-69361835D01*
X135615832Y-69361833D01*
X135615142Y-69355272D01*
X135556127Y-69173644D01*
X135547462Y-69158635D01*
X135498771Y-69074300D01*
X135482033Y-69005304D01*
X135505254Y-68938213D01*
X135561061Y-68894326D01*
X135607890Y-68885300D01*
X142165115Y-68885300D01*
X142233236Y-68905302D01*
G37*
%TD.AperFunction*%
%TA.AperFunction,Conductor*%
G36*
X123027842Y-68905302D02*
G01*
X123074335Y-68958958D01*
X123084439Y-69029232D01*
X123054945Y-69093812D01*
X123048816Y-69100395D01*
X122636616Y-69512595D01*
X122574304Y-69546621D01*
X122547521Y-69549500D01*
X106105975Y-69549500D01*
X106037854Y-69529498D01*
X106016880Y-69512595D01*
X105604680Y-69100395D01*
X105570654Y-69038083D01*
X105575719Y-68967268D01*
X105618266Y-68910432D01*
X105684786Y-68885621D01*
X105693775Y-68885300D01*
X122959721Y-68885300D01*
X123027842Y-68905302D01*
G37*
%TD.AperFunction*%
%TD*%
M02*
