%TF.GenerationSoftware,KiCad,Pcbnew,(6.0.6-0)*%
%TF.CreationDate,2022-09-08T16:09:42-07:00*%
%TF.ProjectId,Battery Extension PCB,42617474-6572-4792-9045-7874656e7369,rev?*%
%TF.SameCoordinates,Original*%
%TF.FileFunction,Legend,Top*%
%TF.FilePolarity,Positive*%
%FSLAX46Y46*%
G04 Gerber Fmt 4.6, Leading zero omitted, Abs format (unit mm)*
G04 Created by KiCad (PCBNEW (6.0.6-0)) date 2022-09-08 16:09:42*
%MOMM*%
%LPD*%
G01*
G04 APERTURE LIST*
G04 Aperture macros list*
%AMRoundRect*
0 Rectangle with rounded corners*
0 $1 Rounding radius*
0 $2 $3 $4 $5 $6 $7 $8 $9 X,Y pos of 4 corners*
0 Add a 4 corners polygon primitive as box body*
4,1,4,$2,$3,$4,$5,$6,$7,$8,$9,$2,$3,0*
0 Add four circle primitives for the rounded corners*
1,1,$1+$1,$2,$3*
1,1,$1+$1,$4,$5*
1,1,$1+$1,$6,$7*
1,1,$1+$1,$8,$9*
0 Add four rect primitives between the rounded corners*
20,1,$1+$1,$2,$3,$4,$5,0*
20,1,$1+$1,$4,$5,$6,$7,0*
20,1,$1+$1,$6,$7,$8,$9,0*
20,1,$1+$1,$8,$9,$2,$3,0*%
G04 Aperture macros list end*
%ADD10C,0.120000*%
%ADD11C,0.152400*%
%ADD12C,0.300000*%
%ADD13C,0.100000*%
%ADD14C,0.254001*%
%ADD15C,0.059995*%
%ADD16RoundRect,0.250000X-0.400000X-1.450000X0.400000X-1.450000X0.400000X1.450000X-0.400000X1.450000X0*%
%ADD17R,1.072009X0.532004*%
%ADD18RoundRect,0.237500X-0.300000X-0.237500X0.300000X-0.237500X0.300000X0.237500X-0.300000X0.237500X0*%
%ADD19R,3.000000X2.100000*%
%ADD20R,1.600000X0.800000*%
%ADD21RoundRect,0.237500X-0.250000X-0.237500X0.250000X-0.237500X0.250000X0.237500X-0.250000X0.237500X0*%
%ADD22RoundRect,0.304800X0.695200X-1.695200X0.695200X1.695200X-0.695200X1.695200X-0.695200X-1.695200X0*%
%ADD23R,3.500000X2.000000*%
%ADD24R,1.000000X0.550013*%
%ADD25RoundRect,0.237500X0.237500X-0.300000X0.237500X0.300000X-0.237500X0.300000X-0.237500X-0.300000X0*%
%ADD26R,1.900000X2.500000*%
%ADD27RoundRect,0.304800X-1.695200X-0.695200X1.695200X-0.695200X1.695200X0.695200X-1.695200X0.695200X0*%
%ADD28RoundRect,0.237500X-0.237500X0.300000X-0.237500X-0.300000X0.237500X-0.300000X0.237500X0.300000X0*%
%ADD29RoundRect,0.237500X0.237500X-0.250000X0.237500X0.250000X-0.237500X0.250000X-0.237500X-0.250000X0*%
%ADD30R,1.200000X0.600000*%
%ADD31R,2.500000X3.499873*%
%ADD32RoundRect,0.237500X0.300000X0.237500X-0.300000X0.237500X-0.300000X-0.237500X0.300000X-0.237500X0*%
%ADD33RoundRect,0.250000X0.550000X-1.500000X0.550000X1.500000X-0.550000X1.500000X-0.550000X-1.500000X0*%
%ADD34O,1.746507X0.343002*%
%ADD35R,2.459995X3.550013*%
%ADD36RoundRect,0.237500X0.250000X0.237500X-0.250000X0.237500X-0.250000X-0.237500X0.250000X-0.237500X0*%
%ADD37RoundRect,0.237500X-0.237500X0.250000X-0.237500X-0.250000X0.237500X-0.250000X0.237500X0.250000X0*%
%ADD38R,0.532004X1.037490*%
%ADD39C,0.800000*%
G04 APERTURE END LIST*
D10*
%TO.C,F1*%
X81366948Y-72372800D02*
X84139452Y-72372800D01*
X81366948Y-68952800D02*
X84139452Y-68952800D01*
D11*
%TO.C,U6*%
X133711493Y-75336446D02*
X135489903Y-75336446D01*
X133711493Y-78414830D02*
X135489903Y-78414830D01*
D12*
X133449313Y-75207363D02*
G75*
G03*
X133449313Y-75207363I-150114J0D01*
G01*
D13*
X133250711Y-75412595D02*
G75*
G03*
X133250711Y-75412595I-50013J0D01*
G01*
D10*
%TO.C,C5*%
X126294933Y-70868000D02*
X126587467Y-70868000D01*
X126294933Y-69848000D02*
X126587467Y-69848000D01*
D14*
%TO.C,U1*%
X75609712Y-67805931D02*
X75020354Y-67806465D01*
X75579155Y-67847105D02*
X75619694Y-67805931D01*
X75020354Y-67826785D02*
X75309915Y-68116345D01*
D10*
X74529651Y-65895975D02*
X73975485Y-65913000D01*
X70129600Y-65895975D02*
X70129600Y-73296025D01*
D14*
X75309915Y-68116345D02*
X75579155Y-67847105D01*
D10*
X73924685Y-73304400D02*
X74529651Y-73296025D01*
X74529651Y-65895975D02*
X74534285Y-68249800D01*
X70444885Y-65887600D02*
X70129600Y-65895975D01*
X70129600Y-73296025D02*
X70521085Y-73304400D01*
X74529651Y-73253600D02*
X74529651Y-70993000D01*
D14*
X75020354Y-67806465D02*
X75020354Y-67826785D01*
D10*
%TO.C,R7*%
X138190218Y-73146307D02*
X138699666Y-73146307D01*
X138190218Y-72101307D02*
X138699666Y-72101307D01*
%TO.C,R2*%
X76150376Y-71207100D02*
X76659824Y-71207100D01*
X76150376Y-72252100D02*
X76659824Y-72252100D01*
D14*
%TO.C,U3*%
X131385898Y-78437996D02*
X129585873Y-78437996D01*
X131385898Y-75337970D02*
X129585873Y-75337970D01*
X129215895Y-75237081D02*
G75*
G03*
X129215895Y-75237081I-127000J0D01*
G01*
D15*
X129115871Y-75453007D02*
G75*
G03*
X129115871Y-75453007I-29998J0D01*
G01*
D10*
%TO.C,C3*%
X113133600Y-71977467D02*
X113133600Y-71684933D01*
X112113600Y-71977467D02*
X112113600Y-71684933D01*
%TO.C,R5*%
X132470482Y-78869039D02*
X132979930Y-78869039D01*
X132470482Y-79914039D02*
X132979930Y-79914039D01*
D14*
%TO.C,U7*%
X102979200Y-73973975D02*
X102979200Y-72855153D01*
X97579200Y-72855153D02*
X97579200Y-73974000D01*
X102979200Y-73973975D02*
X97579200Y-73974000D01*
X97579200Y-68774000D02*
X97579200Y-69892847D01*
X102979200Y-69892847D02*
X102979200Y-68774025D01*
X97579200Y-68774000D02*
X102979200Y-68774025D01*
D15*
X97609172Y-73974000D02*
G75*
G03*
X97609172Y-73974000I-29997J0D01*
G01*
D10*
%TO.C,C2*%
X95400400Y-70719733D02*
X95400400Y-71012267D01*
X96420400Y-70719733D02*
X96420400Y-71012267D01*
%TO.C,R3*%
X92085900Y-72593924D02*
X92085900Y-72084476D01*
X93130900Y-72593924D02*
X93130900Y-72084476D01*
D14*
%TO.C,U5*%
X134754580Y-69413496D02*
X134754580Y-74513572D01*
X133504644Y-74513318D02*
X134754580Y-74513318D01*
X130654504Y-74513318D02*
X130654504Y-69413242D01*
X130654504Y-69413496D02*
X134754580Y-69413496D01*
X131904440Y-74513318D02*
X130654504Y-74513318D01*
X131904440Y-74463280D02*
G75*
G03*
X133504644Y-74463280I800102J1683851D01*
G01*
X135374849Y-74993379D02*
G75*
G03*
X135374849Y-74993379I-170180J0D01*
G01*
D15*
X135684476Y-74417560D02*
G75*
G03*
X135684476Y-74417560I-29972J0D01*
G01*
D10*
%TO.C,C1*%
X138627067Y-69746400D02*
X138334533Y-69746400D01*
X138627067Y-70766400D02*
X138334533Y-70766400D01*
%TO.C,C6*%
X116427200Y-70205200D02*
X118777200Y-70205200D01*
X122182763Y-77025200D02*
X120897200Y-77025200D01*
X117989700Y-78052700D02*
X117989700Y-77265200D01*
X116427200Y-75960763D02*
X116427200Y-70205200D01*
X123247200Y-70205200D02*
X120897200Y-70205200D01*
X117491637Y-77025200D02*
X116427200Y-75960763D01*
X122182763Y-77025200D02*
X123247200Y-75960763D01*
X117491637Y-77025200D02*
X118777200Y-77025200D01*
X117595950Y-77658950D02*
X118383450Y-77658950D01*
X123247200Y-75960763D02*
X123247200Y-70205200D01*
%TO.C,C4*%
X126587467Y-71473600D02*
X126294933Y-71473600D01*
X126587467Y-72493600D02*
X126294933Y-72493600D01*
D11*
%TO.C,U4*%
X106001379Y-68766312D02*
X109544179Y-68766312D01*
X106001379Y-73918712D02*
X106001379Y-68766312D01*
X109544179Y-73918712D02*
X106001379Y-73918712D01*
X109544179Y-68766312D02*
X109544179Y-73918712D01*
D12*
X106412894Y-68942512D02*
G75*
G03*
X106412894Y-68942512I-150115J0D01*
G01*
D10*
%TO.C,R1*%
X76659824Y-73826900D02*
X76150376Y-73826900D01*
X76659824Y-72781900D02*
X76150376Y-72781900D01*
%TO.C,R4*%
X88050900Y-72084476D02*
X88050900Y-72593924D01*
X87005900Y-72084476D02*
X87005900Y-72593924D01*
%TO.C,R8*%
X126186476Y-73035900D02*
X126695924Y-73035900D01*
X126186476Y-74080900D02*
X126695924Y-74080900D01*
D11*
%TO.C,U2*%
X91543813Y-73248700D02*
X90512190Y-73248700D01*
X89562202Y-71531300D02*
X90472998Y-71531300D01*
X88491387Y-71531300D02*
X88491387Y-73248700D01*
X91543813Y-71531300D02*
X91543813Y-73248700D01*
X88491387Y-73248700D02*
X89523010Y-73248700D01*
D15*
X91547572Y-70965006D02*
G75*
G03*
X91547572Y-70965006I-29997J0D01*
G01*
%TD*%
%LPC*%
D16*
%TO.C,F1*%
X80528200Y-70662800D03*
X84978200Y-70662800D03*
%TD*%
D17*
%TO.C,U6*%
X133451600Y-75925676D03*
X133451600Y-76875638D03*
X133451600Y-77825600D03*
X135749796Y-77825600D03*
X135749796Y-76875638D03*
X135749796Y-75925676D03*
%TD*%
D18*
%TO.C,C5*%
X125578700Y-70358000D03*
X127303700Y-70358000D03*
%TD*%
D19*
%TO.C,U1*%
X72229676Y-66420994D03*
X72229676Y-72771006D03*
D20*
X75129600Y-68970905D03*
X75129600Y-70221095D03*
%TD*%
D21*
%TO.C,R7*%
X137532442Y-72623807D03*
X139357442Y-72623807D03*
%TD*%
%TO.C,R2*%
X75492600Y-71729600D03*
X77317600Y-71729600D03*
%TD*%
D22*
%TO.C,H7*%
X128270000Y-80848200D03*
%TD*%
D23*
%TO.C,P2*%
X68021200Y-72694800D03*
%TD*%
D24*
%TO.C,U3*%
X129085847Y-75938123D03*
X129085847Y-76888085D03*
X129085847Y-77838047D03*
X131885949Y-77838047D03*
X131885949Y-76888085D03*
X131885949Y-75938123D03*
%TD*%
D22*
%TO.C,H3*%
X118338600Y-80848200D03*
%TD*%
D25*
%TO.C,C3*%
X112623600Y-72693700D03*
X112623600Y-70968700D03*
%TD*%
D21*
%TO.C,R5*%
X131812706Y-79391539D03*
X133637706Y-79391539D03*
%TD*%
D26*
%TO.C,U7*%
X98229162Y-71374000D03*
X102329238Y-71374000D03*
%TD*%
D23*
%TO.C,P1*%
X68021200Y-69926200D03*
%TD*%
D27*
%TO.C,H6*%
X142824200Y-71729600D03*
%TD*%
D28*
%TO.C,C2*%
X95910400Y-70003500D03*
X95910400Y-71728500D03*
%TD*%
D29*
%TO.C,R3*%
X92608400Y-73251700D03*
X92608400Y-71426700D03*
%TD*%
D30*
%TO.C,U5*%
X135612848Y-73868411D03*
X135612848Y-72598408D03*
X135612848Y-71328406D03*
X135612848Y-70058403D03*
X129796236Y-70058403D03*
X129796236Y-71328406D03*
X129796236Y-72598408D03*
X129796236Y-73868411D03*
D31*
X132704542Y-71963407D03*
%TD*%
D32*
%TO.C,C1*%
X139343300Y-70256400D03*
X137618300Y-70256400D03*
%TD*%
D33*
%TO.C,C6*%
X119837200Y-76415200D03*
X119837200Y-70815200D03*
%TD*%
D32*
%TO.C,C4*%
X127303700Y-71983600D03*
X125578700Y-71983600D03*
%TD*%
D22*
%TO.C,H4*%
X138201400Y-80848200D03*
%TD*%
D34*
%TO.C,U4*%
X104899525Y-69067429D03*
X104899525Y-69717417D03*
X104899525Y-70367404D03*
X104899525Y-71017645D03*
X104899525Y-71667633D03*
X104899525Y-72317620D03*
X104899525Y-72967607D03*
X104899525Y-73617595D03*
X110646033Y-73617595D03*
X110646033Y-72967607D03*
X110646033Y-72317620D03*
X110646033Y-71667633D03*
X110646033Y-71017645D03*
X110646033Y-70367404D03*
X110646033Y-69717417D03*
X110646033Y-69067429D03*
D35*
X107772779Y-71342512D03*
%TD*%
D36*
%TO.C,R1*%
X77317600Y-73304400D03*
X75492600Y-73304400D03*
%TD*%
D37*
%TO.C,R4*%
X87528400Y-71426700D03*
X87528400Y-73251700D03*
%TD*%
D27*
%TO.C,H1*%
X66268600Y-69951600D03*
%TD*%
%TO.C,H2*%
X66268600Y-72694800D03*
%TD*%
D21*
%TO.C,R8*%
X125528700Y-73558400D03*
X127353700Y-73558400D03*
%TD*%
D27*
%TO.C,H5*%
X142824200Y-77470000D03*
%TD*%
D38*
%TO.C,U2*%
X90967562Y-71288654D03*
X89067638Y-71288654D03*
X90017600Y-73491346D03*
%TD*%
D39*
X118110000Y-74371200D03*
X130810000Y-79044800D03*
X136799194Y-71328406D03*
X117246400Y-73355200D03*
X114503200Y-69443600D03*
X121818400Y-69443600D03*
X121513600Y-74066400D03*
X108813600Y-69189600D03*
X106832400Y-69189600D03*
X134513194Y-71328406D03*
X135940800Y-79146400D03*
X131318000Y-69545200D03*
X120396000Y-73050400D03*
X117906800Y-69494400D03*
X116484400Y-69443600D03*
X124155200Y-73050400D03*
X138627989Y-73868411D03*
X107696000Y-69189600D03*
X128727200Y-74117200D03*
X134721600Y-69545200D03*
X94488000Y-71932800D03*
X81788000Y-70662800D03*
X126796800Y-69443600D03*
X74574400Y-71170800D03*
X123037600Y-74472800D03*
X124206000Y-70459600D03*
X129997200Y-75946000D03*
X134772400Y-75946000D03*
X121869200Y-71780400D03*
X121564400Y-76250800D03*
X78689200Y-73406000D03*
X136906000Y-76454000D03*
X125628400Y-74676000D03*
X139039600Y-76149200D03*
X136601200Y-74930000D03*
X91033600Y-73546700D03*
X109427436Y-73546700D03*
M02*
