%TF.GenerationSoftware,KiCad,Pcbnew,(6.0.6-0)*%
%TF.CreationDate,2022-09-08T16:09:42-07:00*%
%TF.ProjectId,Battery Extension PCB,42617474-6572-4792-9045-7874656e7369,rev?*%
%TF.SameCoordinates,Original*%
%TF.FileFunction,Soldermask,Bot*%
%TF.FilePolarity,Negative*%
%FSLAX46Y46*%
G04 Gerber Fmt 4.6, Leading zero omitted, Abs format (unit mm)*
G04 Created by KiCad (PCBNEW (6.0.6-0)) date 2022-09-08 16:09:42*
%MOMM*%
%LPD*%
G01*
G04 APERTURE LIST*
G04 Aperture macros list*
%AMRoundRect*
0 Rectangle with rounded corners*
0 $1 Rounding radius*
0 $2 $3 $4 $5 $6 $7 $8 $9 X,Y pos of 4 corners*
0 Add a 4 corners polygon primitive as box body*
4,1,4,$2,$3,$4,$5,$6,$7,$8,$9,$2,$3,0*
0 Add four circle primitives for the rounded corners*
1,1,$1+$1,$2,$3*
1,1,$1+$1,$4,$5*
1,1,$1+$1,$6,$7*
1,1,$1+$1,$8,$9*
0 Add four rect primitives between the rounded corners*
20,1,$1+$1,$2,$3,$4,$5,0*
20,1,$1+$1,$4,$5,$6,$7,0*
20,1,$1+$1,$6,$7,$8,$9,0*
20,1,$1+$1,$8,$9,$2,$3,0*%
G04 Aperture macros list end*
%ADD10RoundRect,0.304800X0.695200X-1.695200X0.695200X1.695200X-0.695200X1.695200X-0.695200X-1.695200X0*%
%ADD11RoundRect,0.304800X-1.695200X-0.695200X1.695200X-0.695200X1.695200X0.695200X-1.695200X0.695200X0*%
%ADD12C,0.800000*%
G04 APERTURE END LIST*
D10*
%TO.C,H7*%
X128270000Y-80848200D03*
%TD*%
%TO.C,H3*%
X118338600Y-80848200D03*
%TD*%
D11*
%TO.C,H6*%
X142824200Y-71729600D03*
%TD*%
D10*
%TO.C,H4*%
X138201400Y-80848200D03*
%TD*%
D11*
%TO.C,H1*%
X66268600Y-69951600D03*
%TD*%
%TO.C,H2*%
X66268600Y-72694800D03*
%TD*%
%TO.C,H5*%
X142824200Y-77470000D03*
%TD*%
D12*
X118110000Y-74371200D03*
X130810000Y-79044800D03*
X136799194Y-71328406D03*
X117246400Y-73355200D03*
X114503200Y-69443600D03*
X121818400Y-69443600D03*
X121513600Y-74066400D03*
X108813600Y-69189600D03*
X106832400Y-69189600D03*
X134513194Y-71328406D03*
X135940800Y-79146400D03*
X131318000Y-69545200D03*
X120396000Y-73050400D03*
X117906800Y-69494400D03*
X116484400Y-69443600D03*
X124155200Y-73050400D03*
X138627989Y-73868411D03*
X107696000Y-69189600D03*
X128727200Y-74117200D03*
X134721600Y-69545200D03*
X94488000Y-71932800D03*
X81788000Y-70662800D03*
X126796800Y-69443600D03*
X74574400Y-71170800D03*
X123037600Y-74472800D03*
X124206000Y-70459600D03*
X129997200Y-75946000D03*
X134772400Y-75946000D03*
X121869200Y-71780400D03*
X121564400Y-76250800D03*
X78689200Y-73406000D03*
X136906000Y-76454000D03*
X125628400Y-74676000D03*
X139039600Y-76149200D03*
X136601200Y-74930000D03*
X91033600Y-73546700D03*
X109427436Y-73546700D03*
M02*
