%TF.GenerationSoftware,KiCad,Pcbnew,(6.0.6-0)*%
%TF.CreationDate,2022-10-02T14:33:38+02:00*%
%TF.ProjectId,Battery Extension PCB,42617474-6572-4792-9045-7874656e7369,rev?*%
%TF.SameCoordinates,Original*%
%TF.FileFunction,Copper,L1,Top*%
%TF.FilePolarity,Positive*%
%FSLAX46Y46*%
G04 Gerber Fmt 4.6, Leading zero omitted, Abs format (unit mm)*
G04 Created by KiCad (PCBNEW (6.0.6-0)) date 2022-10-02 14:33:38*
%MOMM*%
%LPD*%
G01*
G04 APERTURE LIST*
G04 Aperture macros list*
%AMRoundRect*
0 Rectangle with rounded corners*
0 $1 Rounding radius*
0 $2 $3 $4 $5 $6 $7 $8 $9 X,Y pos of 4 corners*
0 Add a 4 corners polygon primitive as box body*
4,1,4,$2,$3,$4,$5,$6,$7,$8,$9,$2,$3,0*
0 Add four circle primitives for the rounded corners*
1,1,$1+$1,$2,$3*
1,1,$1+$1,$4,$5*
1,1,$1+$1,$6,$7*
1,1,$1+$1,$8,$9*
0 Add four rect primitives between the rounded corners*
20,1,$1+$1,$2,$3,$4,$5,0*
20,1,$1+$1,$4,$5,$6,$7,0*
20,1,$1+$1,$6,$7,$8,$9,0*
20,1,$1+$1,$8,$9,$2,$3,0*%
G04 Aperture macros list end*
%TA.AperFunction,SMDPad,CuDef*%
%ADD10R,2.000000X3.500000*%
%TD*%
%TA.AperFunction,SMDPad,CuDef*%
%ADD11R,1.072009X0.532004*%
%TD*%
%TA.AperFunction,SMDPad,CuDef*%
%ADD12RoundRect,0.237500X-0.300000X-0.237500X0.300000X-0.237500X0.300000X0.237500X-0.300000X0.237500X0*%
%TD*%
%TA.AperFunction,SMDPad,CuDef*%
%ADD13R,3.000000X2.100000*%
%TD*%
%TA.AperFunction,SMDPad,CuDef*%
%ADD14R,1.600000X0.800000*%
%TD*%
%TA.AperFunction,SMDPad,CuDef*%
%ADD15RoundRect,0.237500X-0.250000X-0.237500X0.250000X-0.237500X0.250000X0.237500X-0.250000X0.237500X0*%
%TD*%
%TA.AperFunction,SMDPad,CuDef*%
%ADD16RoundRect,0.250000X-0.400000X-1.450000X0.400000X-1.450000X0.400000X1.450000X-0.400000X1.450000X0*%
%TD*%
%TA.AperFunction,SMDPad,CuDef*%
%ADD17R,3.500000X2.000000*%
%TD*%
%TA.AperFunction,SMDPad,CuDef*%
%ADD18R,1.000000X0.550013*%
%TD*%
%TA.AperFunction,SMDPad,CuDef*%
%ADD19RoundRect,0.237500X0.237500X-0.300000X0.237500X0.300000X-0.237500X0.300000X-0.237500X-0.300000X0*%
%TD*%
%TA.AperFunction,SMDPad,CuDef*%
%ADD20R,1.900000X2.500000*%
%TD*%
%TA.AperFunction,SMDPad,CuDef*%
%ADD21RoundRect,0.237500X-0.237500X0.300000X-0.237500X-0.300000X0.237500X-0.300000X0.237500X0.300000X0*%
%TD*%
%TA.AperFunction,SMDPad,CuDef*%
%ADD22R,1.200000X0.600000*%
%TD*%
%TA.AperFunction,SMDPad,CuDef*%
%ADD23R,2.500000X3.499873*%
%TD*%
%TA.AperFunction,SMDPad,CuDef*%
%ADD24RoundRect,0.237500X0.300000X0.237500X-0.300000X0.237500X-0.300000X-0.237500X0.300000X-0.237500X0*%
%TD*%
%TA.AperFunction,SMDPad,CuDef*%
%ADD25RoundRect,0.250000X0.550000X-1.500000X0.550000X1.500000X-0.550000X1.500000X-0.550000X-1.500000X0*%
%TD*%
%TA.AperFunction,SMDPad,CuDef*%
%ADD26RoundRect,0.100000X-0.687500X-0.100000X0.687500X-0.100000X0.687500X0.100000X-0.687500X0.100000X0*%
%TD*%
%TA.AperFunction,SMDPad,CuDef*%
%ADD27R,3.400000X5.000000*%
%TD*%
%TA.AperFunction,SMDPad,CuDef*%
%ADD28RoundRect,0.237500X-0.237500X0.250000X-0.237500X-0.250000X0.237500X-0.250000X0.237500X0.250000X0*%
%TD*%
%TA.AperFunction,SMDPad,CuDef*%
%ADD29RoundRect,0.237500X0.250000X0.237500X-0.250000X0.237500X-0.250000X-0.237500X0.250000X-0.237500X0*%
%TD*%
%TA.AperFunction,SMDPad,CuDef*%
%ADD30R,0.700000X1.250013*%
%TD*%
%TA.AperFunction,SMDPad,CuDef*%
%ADD31RoundRect,0.237500X0.237500X-0.250000X0.237500X0.250000X-0.237500X0.250000X-0.237500X-0.250000X0*%
%TD*%
%TA.AperFunction,ViaPad*%
%ADD32C,1.300000*%
%TD*%
%TA.AperFunction,ViaPad*%
%ADD33C,0.800000*%
%TD*%
%TA.AperFunction,Conductor*%
%ADD34C,0.300000*%
%TD*%
%TA.AperFunction,Conductor*%
%ADD35C,0.600000*%
%TD*%
%TA.AperFunction,Conductor*%
%ADD36C,0.200000*%
%TD*%
%TA.AperFunction,Conductor*%
%ADD37C,1.650000*%
%TD*%
%TA.AperFunction,Conductor*%
%ADD38C,1.000000*%
%TD*%
%TA.AperFunction,Conductor*%
%ADD39C,0.350000*%
%TD*%
%TA.AperFunction,Conductor*%
%ADD40C,1.100000*%
%TD*%
%TA.AperFunction,Conductor*%
%ADD41C,0.250000*%
%TD*%
%TA.AperFunction,Conductor*%
%ADD42C,0.550000*%
%TD*%
%TA.AperFunction,Conductor*%
%ADD43C,0.800000*%
%TD*%
%TA.AperFunction,Conductor*%
%ADD44C,0.700000*%
%TD*%
%TA.AperFunction,Conductor*%
%ADD45C,1.200000*%
%TD*%
%TA.AperFunction,Conductor*%
%ADD46C,1.600000*%
%TD*%
G04 APERTURE END LIST*
D10*
%TO.P,P3,1*%
%TO.N,IO26{slash}BATT VOLT*%
X118338600Y-80721200D03*
%TD*%
D11*
%TO.P,U6,1,OD*%
%TO.N,Net-(U3-Pad6)*%
X133451600Y-75925676D03*
%TO.P,U6,2,VM*%
%TO.N,Net-(R5-Pad2)*%
X133451600Y-76875638D03*
%TO.P,U6,3,OC*%
%TO.N,Net-(U3-Pad4)*%
X133451600Y-77825600D03*
%TO.P,U6,4,TD*%
%TO.N,unconnected-(U6-Pad4)*%
X135749796Y-77825600D03*
%TO.P,U6,5,VCC*%
%TO.N,Net-(R8-Pad1)*%
X135749796Y-76875638D03*
%TO.P,U6,6,GND*%
%TO.N,-BATT*%
X135749796Y-75925676D03*
%TD*%
D12*
%TO.P,C5,1*%
%TO.N,-BATT*%
X125578700Y-70358000D03*
%TO.P,C5,2*%
%TO.N,+BATT*%
X127303700Y-70358000D03*
%TD*%
D13*
%TO.P,U1,0,0*%
%TO.N,unconnected-(U1-Pad0)*%
X72229676Y-66420994D03*
X72229676Y-72771006D03*
D14*
%TO.P,U1,1,1*%
%TO.N,+BATT*%
X75129600Y-68970905D03*
%TO.P,U1,2,2*%
%TO.N,-BATT*%
X75129600Y-70221095D03*
%TD*%
D10*
%TO.P,P7,1*%
%TO.N,VBUS*%
X128244600Y-80721200D03*
%TD*%
D15*
%TO.P,R7,1*%
%TO.N,Net-(R7-Pad1)*%
X137532442Y-72623807D03*
%TO.P,R7,2*%
%TO.N,GND*%
X139357442Y-72623807D03*
%TD*%
D16*
%TO.P,F1,1*%
%TO.N,+BATT*%
X79105800Y-70662800D03*
%TO.P,F1,2*%
%TO.N,Net-(C2-Pad1)*%
X83555800Y-70662800D03*
%TD*%
D15*
%TO.P,R2,1*%
%TO.N,-BATT*%
X75492600Y-71729600D03*
%TO.P,R2,2*%
%TO.N,IO26{slash}BATT VOLT*%
X77317600Y-71729600D03*
%TD*%
D17*
%TO.P,P2,1*%
%TO.N,-BATT*%
X68021200Y-72694800D03*
%TD*%
D18*
%TO.P,U3,1,S1*%
%TO.N,-BATT*%
X129085847Y-75938123D03*
%TO.P,U3,2,D1/D2*%
%TO.N,unconnected-(U3-Pad2)*%
X129085847Y-76888085D03*
%TO.P,U3,3,S2*%
%TO.N,GND*%
X129085847Y-77838047D03*
%TO.P,U3,4,G2*%
%TO.N,Net-(U3-Pad4)*%
X131885949Y-77838047D03*
%TO.P,U3,5,D1/D2*%
%TO.N,unconnected-(U3-Pad5)*%
X131885949Y-76888085D03*
%TO.P,U3,6,G1*%
%TO.N,Net-(U3-Pad6)*%
X131885949Y-75938123D03*
%TD*%
D17*
%TO.P,P13,1*%
%TO.N,GND*%
X142240000Y-71729600D03*
%TD*%
D19*
%TO.P,C3,1*%
%TO.N,GND*%
X114757200Y-72693700D03*
%TO.P,C3,2*%
%TO.N,+5V*%
X114757200Y-70968700D03*
%TD*%
D15*
%TO.P,R5,1*%
%TO.N,GND*%
X131812706Y-79391539D03*
%TO.P,R5,2*%
%TO.N,Net-(R5-Pad2)*%
X133637706Y-79391539D03*
%TD*%
D20*
%TO.P,U7,1,1*%
%TO.N,Net-(C2-Pad1)*%
X100362762Y-71374000D03*
%TO.P,U7,2,2*%
%TO.N,Net-(U4-Pad1)*%
X104462838Y-71374000D03*
%TD*%
D17*
%TO.P,P1,1*%
%TO.N,+BATT*%
X68021200Y-69926200D03*
%TD*%
D21*
%TO.P,C2,1*%
%TO.N,Net-(C2-Pad1)*%
X98348800Y-70155900D03*
%TO.P,C2,2*%
%TO.N,GND*%
X98348800Y-71880900D03*
%TD*%
D22*
%TO.P,U5,1,TEMP*%
%TO.N,GND*%
X135612848Y-73868411D03*
%TO.P,U5,2,PROG*%
%TO.N,Net-(R7-Pad1)*%
X135612848Y-72598408D03*
%TO.P,U5,3,GND*%
%TO.N,GND*%
X135612848Y-71328406D03*
%TO.P,U5,4,VCC*%
%TO.N,VBUS*%
X135612848Y-70058403D03*
%TO.P,U5,5,BAT*%
%TO.N,+BATT*%
X129796236Y-70058403D03*
%TO.P,U5,6,STDBY#*%
%TO.N,unconnected-(U5-Pad6)*%
X129796236Y-71328406D03*
%TO.P,U5,7,CHRG#*%
%TO.N,IO27{slash}BATT CHARGING*%
X129796236Y-72598408D03*
%TO.P,U5,8,CE*%
%TO.N,VBUS*%
X129796236Y-73868411D03*
D23*
%TO.P,U5,9,EP*%
%TO.N,GND*%
X132704542Y-71963407D03*
%TD*%
D24*
%TO.P,C1,1*%
%TO.N,GND*%
X139343300Y-70256400D03*
%TO.P,C1,2*%
%TO.N,VBUS*%
X137618300Y-70256400D03*
%TD*%
D25*
%TO.P,C6,1*%
%TO.N,+5V*%
X119837200Y-76415200D03*
%TO.P,C6,2*%
%TO.N,GND*%
X119837200Y-70815200D03*
%TD*%
D24*
%TO.P,C4,1*%
%TO.N,+BATT*%
X127303700Y-71983600D03*
%TO.P,C4,2*%
%TO.N,GND*%
X125578700Y-71983600D03*
%TD*%
D26*
%TO.P,U4,1,SW*%
%TO.N,Net-(U4-Pad1)*%
X107043879Y-69067512D03*
%TO.P,U4,2,SW*%
X107043879Y-69717512D03*
%TO.P,U4,3,PGND*%
%TO.N,GND*%
X107043879Y-70367512D03*
%TO.P,U4,4,PGND*%
X107043879Y-71017512D03*
%TO.P,U4,5,PGND*%
X107043879Y-71667512D03*
%TO.P,U4,6,VBAT*%
%TO.N,Net-(C2-Pad1)*%
X107043879Y-72317512D03*
%TO.P,U4,7,LBI*%
%TO.N,GND*%
X107043879Y-72967512D03*
%TO.P,U4,8,SYNC*%
X107043879Y-73617512D03*
%TO.P,U4,9,EN*%
%TO.N,Net-(R9-Pad1)*%
X112768879Y-73617512D03*
%TO.P,U4,10,LBO*%
%TO.N,unconnected-(U4-Pad10)*%
X112768879Y-72967512D03*
%TO.P,U4,11,GND*%
%TO.N,GND*%
X112768879Y-72317512D03*
%TO.P,U4,12,FB*%
%TO.N,unconnected-(U4-Pad12)*%
X112768879Y-71667512D03*
%TO.P,U4,13,VOUT*%
%TO.N,+5V*%
X112768879Y-71017512D03*
%TO.P,U4,14,VOUT*%
X112768879Y-70367512D03*
%TO.P,U4,15,VOUT*%
X112768879Y-69717512D03*
%TO.P,U4,16,NC*%
%TO.N,unconnected-(U4-Pad16)*%
X112768879Y-69067512D03*
D27*
%TO.P,U4,17,EP*%
%TO.N,GND*%
X109906379Y-71342512D03*
%TD*%
D28*
%TO.P,R6,1*%
%TO.N,VBUS*%
X96621600Y-71223500D03*
%TO.P,R6,2*%
%TO.N,GND*%
X96621600Y-73048500D03*
%TD*%
D17*
%TO.P,P12,1*%
%TO.N,+5V*%
X142240000Y-77343000D03*
%TD*%
D29*
%TO.P,R1,1*%
%TO.N,IO26{slash}BATT VOLT*%
X77317600Y-73304400D03*
%TO.P,R1,2*%
%TO.N,+BATT*%
X75492600Y-73304400D03*
%TD*%
D30*
%TO.P,U8,1,G*%
%TO.N,VBUS*%
X95082362Y-71288400D03*
%TO.P,U8,2,S*%
%TO.N,+BATT*%
X93182438Y-71288400D03*
%TO.P,U8,3,D*%
%TO.N,Net-(R9-Pad1)*%
X94132400Y-73288400D03*
%TD*%
D10*
%TO.P,P11,1*%
%TO.N,IO27{slash}BATT CHARGING*%
X138252200Y-80721200D03*
%TD*%
D31*
%TO.P,R9,1*%
%TO.N,Net-(R9-Pad1)*%
X91287600Y-73200900D03*
%TO.P,R9,2*%
%TO.N,GND*%
X91287600Y-71375900D03*
%TD*%
D15*
%TO.P,R8,1*%
%TO.N,Net-(R8-Pad1)*%
X125528700Y-73558400D03*
%TO.P,R8,2*%
%TO.N,+BATT*%
X127353700Y-73558400D03*
%TD*%
D32*
%TO.N,*%
X141071600Y-74676000D03*
X75031600Y-65430400D03*
D33*
%TO.N,GND*%
X118540936Y-74509315D03*
X130810000Y-79044800D03*
X136799194Y-71328406D03*
X117703600Y-73558400D03*
X121818400Y-69443600D03*
X121513600Y-74066400D03*
X110947200Y-69189600D03*
X108966000Y-69189600D03*
X134513194Y-71328406D03*
X135940800Y-79146400D03*
X131318000Y-69545200D03*
X120396000Y-73050400D03*
X117856000Y-69240400D03*
X116687600Y-69189600D03*
X124155200Y-73050400D03*
X138627989Y-73868411D03*
X109829600Y-69189600D03*
%TO.N,VBUS*%
X128727200Y-74117200D03*
X134721600Y-69545200D03*
X94183200Y-71526400D03*
X126414017Y-78817983D03*
%TO.N,+BATT*%
X80772000Y-70662800D03*
X89611200Y-71308300D03*
X70662800Y-69342000D03*
X92405200Y-71272400D03*
X126796800Y-69443600D03*
%TO.N,-BATT*%
X74523600Y-71018400D03*
X123037600Y-74472800D03*
X124206000Y-70459600D03*
X129997200Y-75946000D03*
X71374000Y-70358000D03*
X134772400Y-75946000D03*
X121869200Y-71780400D03*
%TO.N,+5V*%
X140004800Y-77774800D03*
X121564400Y-76250800D03*
%TO.N,IO26{slash}BATT VOLT*%
X78689200Y-73406000D03*
X117754400Y-78384400D03*
%TO.N,Net-(R8-Pad1)*%
X137174900Y-75857700D03*
X126238000Y-74218800D03*
%TO.N,IO27{slash}BATT CHARGING*%
X138684000Y-78486000D03*
X139039600Y-75133200D03*
X136601200Y-74930000D03*
%TO.N,Net-(R9-Pad1)*%
X95148400Y-73546700D03*
X113926879Y-73585132D03*
%TD*%
D34*
%TO.N,GND*%
X106778370Y-71272400D02*
X107033125Y-71017645D01*
D35*
X114298900Y-72693700D02*
X113944400Y-72339200D01*
D36*
X91643200Y-71325100D02*
X91643200Y-71526400D01*
D35*
X138074400Y-74076822D02*
X137865989Y-73868411D01*
D36*
X91643200Y-71526400D02*
X92405200Y-72288400D01*
D35*
X117703600Y-73558400D02*
X116838900Y-72693700D01*
D37*
X107033125Y-71017645D02*
X109581512Y-71017645D01*
D35*
X135612848Y-73868411D02*
X137865989Y-73868411D01*
X135612848Y-71328406D02*
X136799194Y-71328406D01*
D34*
X109906379Y-70230421D02*
X109906379Y-71342512D01*
D38*
X140251649Y-71729600D02*
X142499615Y-71729600D01*
D35*
X138881989Y-73868411D02*
X139357442Y-73392958D01*
D38*
X140251649Y-71729600D02*
X142240000Y-71729600D01*
X139357442Y-72623807D02*
X140251649Y-71729600D01*
D35*
X136144000Y-79146400D02*
X138074400Y-77216000D01*
D38*
X109906379Y-69266379D02*
X109906379Y-71342512D01*
D39*
X110881487Y-72317620D02*
X109906379Y-71342512D01*
D35*
X135940800Y-79146400D02*
X136144000Y-79146400D01*
X135612848Y-71328406D02*
X134513194Y-71328406D01*
D40*
X107295520Y-73355200D02*
X108915200Y-73355200D01*
D35*
X138074400Y-77216000D02*
X138074400Y-74076822D01*
D36*
X91643200Y-71325100D02*
X91643200Y-71678800D01*
D35*
X131156739Y-79391539D02*
X131812706Y-79391539D01*
X136799194Y-71328406D02*
X139339194Y-71328406D01*
D41*
X97789200Y-71880900D02*
X96621600Y-73048500D01*
D42*
X131207539Y-79391539D02*
X129654047Y-77838047D01*
D43*
X118262400Y-69240400D02*
X119837200Y-70815200D01*
D34*
X109829600Y-69189600D02*
X109906379Y-69266379D01*
D35*
X139343300Y-72609665D02*
X139357442Y-72623807D01*
D41*
X98044000Y-71983600D02*
X99771200Y-73710800D01*
D35*
X123850400Y-71983600D02*
X125578700Y-71983600D01*
D39*
X112779633Y-72317620D02*
X113922820Y-72317620D01*
D44*
X117856000Y-69240400D02*
X118262400Y-69240400D01*
D35*
X139343300Y-70256400D02*
X139343300Y-71324300D01*
D39*
X112779633Y-72317620D02*
X110881487Y-72317620D01*
D35*
X120396000Y-73050400D02*
X120396000Y-71374000D01*
D38*
X110947200Y-69189600D02*
X109906379Y-70230421D01*
D35*
X132704542Y-70931742D02*
X131318000Y-69545200D01*
X116838900Y-72693700D02*
X114757200Y-72693700D01*
X138627989Y-73868411D02*
X138881989Y-73868411D01*
X135612848Y-73868411D02*
X134609546Y-73868411D01*
D34*
X106730800Y-71272400D02*
X106778370Y-71272400D01*
D41*
X99771200Y-73710800D02*
X106939920Y-73710800D01*
D38*
X109581512Y-69805112D02*
X108966000Y-69189600D01*
D34*
X107033125Y-73617595D02*
X107295520Y-73355200D01*
D36*
X92405200Y-72288400D02*
X95861500Y-72288400D01*
D35*
X114757200Y-72693700D02*
X114298900Y-72693700D01*
D41*
X98348800Y-71880900D02*
X97789200Y-71880900D01*
D42*
X129654047Y-77838047D02*
X129085847Y-77838047D01*
D41*
X98044000Y-71728500D02*
X98044000Y-71983600D01*
D36*
X95861500Y-72288400D02*
X96621600Y-73048500D01*
D41*
X106939920Y-73710800D02*
X107295520Y-73355200D01*
D35*
X122682000Y-70815200D02*
X123850400Y-71983600D01*
X134513194Y-71328406D02*
X133339543Y-71328406D01*
X137865989Y-73868411D02*
X138627989Y-73868411D01*
X132704542Y-71963407D02*
X132704542Y-70931742D01*
X139343300Y-71324300D02*
X139343300Y-72609665D01*
X134609546Y-73868411D02*
X132704542Y-71963407D01*
D34*
X109906379Y-72364021D02*
X109906379Y-71342512D01*
X113922820Y-72317620D02*
X113944400Y-72339200D01*
X109581512Y-71017645D02*
X109581512Y-69805112D01*
X109581512Y-71017645D02*
X109906379Y-71342512D01*
D35*
X133339543Y-71328406D02*
X132704542Y-71963407D01*
D40*
X108915200Y-73355200D02*
X109906379Y-72364021D01*
D35*
X120396000Y-71374000D02*
X119837200Y-70815200D01*
X139357442Y-73392958D02*
X139357442Y-72623807D01*
X131812706Y-79391539D02*
X131207539Y-79391539D01*
X139339194Y-71328406D02*
X139343300Y-71324300D01*
X130810000Y-79044800D02*
X131156739Y-79391539D01*
X119837200Y-70815200D02*
X122682000Y-70815200D01*
D36*
%TO.N,VBUS*%
X126414017Y-78817983D02*
X126414017Y-78890617D01*
D41*
X95147262Y-71223500D02*
X95082362Y-71288400D01*
D36*
X128197367Y-80673967D02*
X128244600Y-80673967D01*
D35*
X127558800Y-75285600D02*
X128727200Y-74117200D01*
X127558800Y-80035400D02*
X127558800Y-75285600D01*
X135612848Y-70058403D02*
X137420303Y-70058403D01*
X128727200Y-74117200D02*
X128168400Y-74676000D01*
D36*
X126414017Y-78890617D02*
X128197367Y-80673967D01*
X94183200Y-71526400D02*
X94844362Y-71526400D01*
D35*
X135234803Y-70058403D02*
X134721600Y-69545200D01*
D41*
X127558800Y-80035400D02*
X128172367Y-80648967D01*
D35*
X137420303Y-70058403D02*
X137618300Y-70256400D01*
X135612848Y-70058403D02*
X135234803Y-70058403D01*
D41*
X128172367Y-80648967D02*
X128244600Y-80648967D01*
D35*
X127609600Y-79813567D02*
X128270000Y-80473967D01*
D36*
X94844362Y-71526400D02*
X95082362Y-71288400D01*
D41*
X96621600Y-71223500D02*
X95147262Y-71223500D01*
D35*
X128975989Y-73868411D02*
X128727200Y-74117200D01*
X129796236Y-73868411D02*
X128975989Y-73868411D01*
D41*
%TO.N,Net-(C2-Pad1)*%
X106252874Y-72317620D02*
X105570894Y-72999600D01*
D45*
X98247200Y-69646800D02*
X84825800Y-69646800D01*
X100126800Y-71526400D02*
X98247200Y-69646800D01*
X84825800Y-69646800D02*
X83809800Y-70662800D01*
D35*
X100565962Y-71374000D02*
X100380800Y-71374000D01*
X100380800Y-71374000D02*
X100228400Y-71526400D01*
D41*
X107033125Y-72317620D02*
X106252874Y-72317620D01*
X101988362Y-72999600D02*
X100362762Y-71374000D01*
X105570894Y-72999600D02*
X101988362Y-72999600D01*
D45*
X100228400Y-71526400D02*
X100126800Y-71526400D01*
D35*
%TO.N,+BATT*%
X80772000Y-70662800D02*
X80528200Y-70662800D01*
X75129600Y-68970905D02*
X71033895Y-68970905D01*
D41*
X80721200Y-73152000D02*
X84226400Y-73152000D01*
X92421200Y-71288400D02*
X93182438Y-71288400D01*
D35*
X68021200Y-69926200D02*
X66594540Y-69926200D01*
X71033895Y-68970905D02*
X70662800Y-69342000D01*
D36*
X76403200Y-70358000D02*
X77012800Y-69748400D01*
D35*
X127303700Y-70358000D02*
X127303700Y-69950500D01*
X127303700Y-70358000D02*
X127303700Y-71983600D01*
D41*
X84226400Y-73152000D02*
X86090762Y-71287638D01*
X86090762Y-71287638D02*
X89590538Y-71287638D01*
D35*
X79613800Y-69748400D02*
X77012800Y-69748400D01*
X129796236Y-70058403D02*
X127603297Y-70058403D01*
D41*
X79105800Y-70662800D02*
X79105800Y-71536600D01*
X79105800Y-71536600D02*
X80721200Y-73152000D01*
D35*
X80528200Y-70662800D02*
X79613800Y-69748400D01*
D36*
X75492600Y-73249800D02*
X76403200Y-72339200D01*
D35*
X127303700Y-71983600D02*
X127303700Y-73508400D01*
D36*
X93182438Y-71288400D02*
X93182438Y-71358762D01*
D35*
X127603297Y-70058403D02*
X127303700Y-70358000D01*
D36*
X75492600Y-73304400D02*
X75492600Y-73249800D01*
D35*
X76235305Y-68970905D02*
X77012800Y-69748400D01*
D36*
X76403200Y-72339200D02*
X76403200Y-70358000D01*
D35*
X75129600Y-68970905D02*
X76235305Y-68970905D01*
X127303700Y-69950500D02*
X126796800Y-69443600D01*
D41*
X92405200Y-71272400D02*
X92421200Y-71288400D01*
D35*
X66594540Y-69926200D02*
X66594540Y-69951600D01*
X70078600Y-69926200D02*
X68021200Y-69926200D01*
X127303700Y-73508400D02*
X127353700Y-73558400D01*
D41*
X89590538Y-71287638D02*
X89611200Y-71308300D01*
D35*
X70662800Y-69342000D02*
X70078600Y-69926200D01*
%TO.N,-BATT*%
X125578700Y-70358000D02*
X124307600Y-70358000D01*
D42*
X129997200Y-75946000D02*
X129093724Y-75946000D01*
D35*
X71307705Y-70291705D02*
X71307705Y-70221095D01*
X124307600Y-70358000D02*
X124206000Y-70459600D01*
X74523600Y-71018400D02*
X74523600Y-70827095D01*
D36*
X75492600Y-70584095D02*
X75129600Y-70221095D01*
D41*
X129093724Y-75946000D02*
X129085847Y-75938123D01*
D42*
X135749796Y-75925676D02*
X134792724Y-75925676D01*
D41*
X134792724Y-75925676D02*
X134772400Y-75946000D01*
D42*
X123037600Y-74472800D02*
X123037600Y-72948800D01*
D35*
X68021200Y-72694800D02*
X66594540Y-72694800D01*
X74523600Y-70827095D02*
X75129600Y-70221095D01*
X71374000Y-70358000D02*
X71307705Y-70291705D01*
D36*
X75492600Y-71729600D02*
X75492600Y-70584095D01*
D42*
X123037600Y-72948800D02*
X121869200Y-71780400D01*
D35*
X75129600Y-70221095D02*
X71307705Y-70221095D01*
X68834000Y-72694800D02*
X68021200Y-72694800D01*
X71307705Y-70221095D02*
X68834000Y-72694800D01*
%TO.N,+5V*%
X119837200Y-74218800D02*
X116587100Y-70968700D01*
X119837200Y-76415200D02*
X119837200Y-74218800D01*
X114757200Y-70968700D02*
X114806900Y-71018400D01*
X114910700Y-70815200D02*
X114757200Y-70968700D01*
D38*
X120001600Y-76250800D02*
X119837200Y-76415200D01*
D35*
X114504300Y-70968700D02*
X113893600Y-70358000D01*
X116587100Y-70968700D02*
X114757200Y-70968700D01*
D38*
X142341600Y-77343000D02*
X140436600Y-77343000D01*
D35*
X114757200Y-70968700D02*
X114504300Y-70968700D01*
D38*
X140436600Y-77343000D02*
X140004800Y-77774800D01*
D35*
X112789037Y-70358000D02*
X112779633Y-70367404D01*
D38*
X121564400Y-76250800D02*
X120001600Y-76250800D01*
D46*
X113893600Y-70358000D02*
X112789037Y-70358000D01*
D36*
%TO.N,IO26{slash}BATT VOLT*%
X117754400Y-80137000D02*
X118291367Y-80673967D01*
X78587600Y-73304400D02*
X78689200Y-73406000D01*
X77317600Y-73304400D02*
X78587600Y-73304400D01*
X118291367Y-80673967D02*
X118338600Y-80673967D01*
X117754400Y-78384400D02*
X117754400Y-80137000D01*
X77317600Y-71729600D02*
X77317600Y-73304400D01*
D42*
%TO.N,Net-(R5-Pad2)*%
X133451600Y-76875638D02*
X134253644Y-76875638D01*
X134620000Y-77241994D02*
X134620000Y-78409245D01*
X134253644Y-76875638D02*
X134620000Y-77241994D01*
X134620000Y-78409245D02*
X133637706Y-79391539D01*
D35*
%TO.N,Net-(R7-Pad1)*%
X137532442Y-72623807D02*
X135638247Y-72623807D01*
D41*
X135638247Y-72623807D02*
X135612848Y-72598408D01*
%TO.N,Net-(R8-Pad1)*%
X126189100Y-74218800D02*
X125528700Y-73558400D01*
X136156962Y-76875638D02*
X135749796Y-76875638D01*
X126238000Y-74218800D02*
X126189100Y-74218800D01*
X137174900Y-75857700D02*
X136156962Y-76875638D01*
D42*
%TO.N,Net-(U3-Pad4)*%
X131885949Y-77838047D02*
X133439153Y-77838047D01*
D36*
X133439153Y-77838047D02*
X133451600Y-77825600D01*
D42*
%TO.N,Net-(U3-Pad6)*%
X133451600Y-75925676D02*
X131898396Y-75925676D01*
D41*
X131898396Y-75925676D02*
X131885949Y-75938123D01*
%TO.N,IO27{slash}BATT CHARGING*%
X139039600Y-78130400D02*
X138684000Y-78486000D01*
X130860800Y-74117200D02*
X131318000Y-74574400D01*
X130096236Y-72598408D02*
X130860800Y-73362972D01*
X131673600Y-74930000D02*
X136601200Y-74930000D01*
X138684000Y-78486000D02*
X138684000Y-80217167D01*
X138684000Y-80217167D02*
X138252200Y-80648967D01*
X129796236Y-72598408D02*
X130096236Y-72598408D01*
X139039600Y-75133200D02*
X139039600Y-75946000D01*
X139039600Y-75946000D02*
X139039600Y-78130400D01*
X130860800Y-73660000D02*
X130860800Y-74117200D01*
X131318000Y-74574400D02*
X131673600Y-74930000D01*
X130860800Y-73362972D02*
X130860800Y-73660000D01*
D40*
%TO.N,Net-(U4-Pad1)*%
X104666038Y-70289162D02*
X105613200Y-69342000D01*
X105613200Y-69342000D02*
X107137200Y-69342000D01*
D41*
X104666038Y-71374000D02*
X104666038Y-70289162D01*
%TO.N,Net-(R9-Pad1)*%
X113926879Y-73585132D02*
X112812096Y-73585132D01*
X91781500Y-73288400D02*
X91643200Y-73150100D01*
X94132400Y-73288400D02*
X94890100Y-73288400D01*
X94890100Y-73288400D02*
X95148400Y-73546700D01*
X94132400Y-73288400D02*
X91781500Y-73288400D01*
X112812096Y-73585132D02*
X112779633Y-73617595D01*
%TD*%
%TA.AperFunction,Conductor*%
%TO.N,GND*%
G36*
X130789242Y-76534158D02*
G01*
X130848227Y-76573671D01*
X130876485Y-76638802D01*
X130877449Y-76654356D01*
X130877449Y-77211225D01*
X130884204Y-77273407D01*
X130896569Y-77306390D01*
X130901235Y-77318836D01*
X130906418Y-77389643D01*
X130901236Y-77407293D01*
X130884204Y-77452725D01*
X130877449Y-77514907D01*
X130877449Y-78161187D01*
X130884204Y-78223369D01*
X130935334Y-78359758D01*
X130977131Y-78415527D01*
X131022688Y-78476314D01*
X131021300Y-78477354D01*
X131050240Y-78530353D01*
X131045175Y-78601168D01*
X131016292Y-78646154D01*
X130978843Y-78683668D01*
X130969831Y-78695079D01*
X130886294Y-78830602D01*
X130880150Y-78843780D01*
X130829891Y-78995305D01*
X130827025Y-79008671D01*
X130817534Y-79101309D01*
X130817206Y-79107724D01*
X130817206Y-79119424D01*
X130821681Y-79134663D01*
X130823071Y-79135868D01*
X130830754Y-79137539D01*
X131940706Y-79137539D01*
X132008827Y-79157541D01*
X132055320Y-79211197D01*
X132066706Y-79263539D01*
X132066706Y-79519539D01*
X132046704Y-79587660D01*
X131993048Y-79634153D01*
X131940706Y-79645539D01*
X130835321Y-79645539D01*
X130820082Y-79650014D01*
X130818877Y-79651404D01*
X130817206Y-79659087D01*
X130817206Y-79675305D01*
X130817543Y-79681821D01*
X130827281Y-79775671D01*
X130830174Y-79789067D01*
X130880694Y-79940492D01*
X130886859Y-79953654D01*
X130960814Y-80073165D01*
X130979651Y-80141617D01*
X130958489Y-80209386D01*
X130904048Y-80254957D01*
X130853669Y-80265467D01*
X129879100Y-80265467D01*
X129810979Y-80245465D01*
X129764486Y-80191809D01*
X129753100Y-80139467D01*
X129753100Y-78923066D01*
X129746345Y-78860884D01*
X129743573Y-78853488D01*
X129743571Y-78853482D01*
X129703330Y-78746140D01*
X129698147Y-78675333D01*
X129732068Y-78612964D01*
X129777082Y-78583929D01*
X129823901Y-78566377D01*
X129839496Y-78557839D01*
X129941571Y-78481338D01*
X129954132Y-78468777D01*
X130030633Y-78366702D01*
X130039171Y-78351107D01*
X130084325Y-78230659D01*
X130087952Y-78215404D01*
X130093478Y-78164539D01*
X130093847Y-78157725D01*
X130093847Y-78110162D01*
X130089372Y-78094923D01*
X130087982Y-78093718D01*
X130080299Y-78092047D01*
X128957847Y-78092047D01*
X128889726Y-78072045D01*
X128843233Y-78018389D01*
X128831847Y-77966047D01*
X128831847Y-77797591D01*
X128851849Y-77729470D01*
X128905505Y-77682977D01*
X128957847Y-77671591D01*
X129633981Y-77671591D01*
X129696163Y-77664836D01*
X129832552Y-77613706D01*
X129839739Y-77608320D01*
X129847607Y-77604012D01*
X129848434Y-77605523D01*
X129905039Y-77584373D01*
X129914101Y-77584047D01*
X130075731Y-77584047D01*
X130090970Y-77579572D01*
X130092175Y-77578182D01*
X130093846Y-77570499D01*
X130093846Y-77518372D01*
X130093476Y-77511551D01*
X130087952Y-77460689D01*
X130084327Y-77445441D01*
X130070294Y-77408009D01*
X130065111Y-77337201D01*
X130070291Y-77319558D01*
X130087592Y-77273407D01*
X130094347Y-77211225D01*
X130094347Y-76956180D01*
X130114349Y-76888059D01*
X130168005Y-76841566D01*
X130194148Y-76832934D01*
X130279488Y-76814794D01*
X130285519Y-76812109D01*
X130447922Y-76739803D01*
X130447924Y-76739802D01*
X130453952Y-76737118D01*
X130608453Y-76624866D01*
X130657813Y-76570046D01*
X130718259Y-76532806D01*
X130789242Y-76534158D01*
G37*
%TD.AperFunction*%
%TA.AperFunction,Conductor*%
G36*
X138275901Y-75646818D02*
G01*
X138300098Y-75670559D01*
X138300560Y-75670143D01*
X138300560Y-75670144D01*
X138373737Y-75751415D01*
X138404453Y-75815421D01*
X138406100Y-75835724D01*
X138406100Y-77533426D01*
X138386098Y-77601547D01*
X138331349Y-77648533D01*
X138233278Y-77692197D01*
X138233276Y-77692198D01*
X138227248Y-77694882D01*
X138221907Y-77698762D01*
X138221906Y-77698763D01*
X138217931Y-77701651D01*
X138072747Y-77807134D01*
X138068326Y-77812044D01*
X138068325Y-77812045D01*
X137980592Y-77909483D01*
X137944960Y-77949056D01*
X137849473Y-78114444D01*
X137790458Y-78296072D01*
X137789768Y-78302633D01*
X137789768Y-78302635D01*
X137784804Y-78349870D01*
X137757791Y-78415527D01*
X137699570Y-78456157D01*
X137659494Y-78462700D01*
X137204066Y-78462700D01*
X137141884Y-78469455D01*
X137005495Y-78520585D01*
X136888939Y-78607939D01*
X136801585Y-78724495D01*
X136750455Y-78860884D01*
X136743700Y-78923066D01*
X136743700Y-80139467D01*
X136723698Y-80207588D01*
X136670042Y-80254081D01*
X136617700Y-80265467D01*
X134597457Y-80265467D01*
X134529336Y-80245465D01*
X134482843Y-80191809D01*
X134472739Y-80121535D01*
X134490197Y-80073351D01*
X134564575Y-79952689D01*
X134564576Y-79952687D01*
X134568415Y-79946459D01*
X134623180Y-79781348D01*
X134633706Y-79678611D01*
X134633706Y-79555766D01*
X134653708Y-79487645D01*
X134670611Y-79466670D01*
X135167711Y-78969571D01*
X135168649Y-78968643D01*
X135169218Y-78968086D01*
X135231011Y-78907574D01*
X135253666Y-78872421D01*
X135261104Y-78862070D01*
X135282793Y-78834900D01*
X135282795Y-78834897D01*
X135287187Y-78829395D01*
X135295878Y-78811418D01*
X135301228Y-78800352D01*
X135308754Y-78786942D01*
X135322411Y-78765749D01*
X135322412Y-78765747D01*
X135326231Y-78759821D01*
X135340535Y-78720520D01*
X135345491Y-78708788D01*
X135363634Y-78671260D01*
X135411292Y-78618636D01*
X135477073Y-78600102D01*
X136333934Y-78600102D01*
X136396116Y-78593347D01*
X136532505Y-78542217D01*
X136649061Y-78454863D01*
X136736415Y-78338307D01*
X136787545Y-78201918D01*
X136794300Y-78139736D01*
X136794300Y-77511464D01*
X136788784Y-77460689D01*
X136788398Y-77457132D01*
X136788398Y-77457130D01*
X136787545Y-77449282D01*
X136784773Y-77441887D01*
X136767139Y-77394848D01*
X136761956Y-77324041D01*
X136767139Y-77306390D01*
X136784773Y-77259351D01*
X136784773Y-77259349D01*
X136787545Y-77251956D01*
X136794300Y-77189774D01*
X136794300Y-77186358D01*
X136794484Y-77182960D01*
X136795296Y-77183004D01*
X136814302Y-77118274D01*
X136831205Y-77097299D01*
X137125401Y-76803104D01*
X137187713Y-76769079D01*
X137214496Y-76766200D01*
X137270387Y-76766200D01*
X137276839Y-76764828D01*
X137276844Y-76764828D01*
X137394574Y-76739803D01*
X137457188Y-76726494D01*
X137463219Y-76723809D01*
X137625622Y-76651503D01*
X137625624Y-76651502D01*
X137631652Y-76648818D01*
X137659275Y-76628749D01*
X137712967Y-76589739D01*
X137786153Y-76536566D01*
X137813344Y-76506367D01*
X137909521Y-76399552D01*
X137909522Y-76399551D01*
X137913940Y-76394644D01*
X138009427Y-76229256D01*
X138068442Y-76047628D01*
X138088404Y-75857700D01*
X138083344Y-75809557D01*
X138078484Y-75763316D01*
X138091256Y-75693478D01*
X138139758Y-75641631D01*
X138208591Y-75624237D01*
X138275901Y-75646818D01*
G37*
%TD.AperFunction*%
%TA.AperFunction,Conductor*%
G36*
X116268139Y-71797202D02*
G01*
X116289113Y-71814105D01*
X118713282Y-74238274D01*
X118747308Y-74300586D01*
X118742243Y-74371401D01*
X118713361Y-74416386D01*
X118687895Y-74441897D01*
X118684055Y-74448127D01*
X118684054Y-74448128D01*
X118613923Y-74561902D01*
X118595085Y-74592462D01*
X118592781Y-74599409D01*
X118542824Y-74750026D01*
X118539403Y-74760339D01*
X118528700Y-74864800D01*
X118528700Y-77576706D01*
X118508698Y-77644827D01*
X118455042Y-77691320D01*
X118384768Y-77701424D01*
X118328639Y-77678642D01*
X118318935Y-77671591D01*
X118253792Y-77624262D01*
X118216494Y-77597163D01*
X118216493Y-77597162D01*
X118211152Y-77593282D01*
X118205124Y-77590598D01*
X118205122Y-77590597D01*
X118042719Y-77518291D01*
X118042718Y-77518291D01*
X118036688Y-77515606D01*
X117943287Y-77495753D01*
X117856344Y-77477272D01*
X117856339Y-77477272D01*
X117849887Y-77475900D01*
X117658913Y-77475900D01*
X117652461Y-77477272D01*
X117652456Y-77477272D01*
X117565513Y-77495753D01*
X117472112Y-77515606D01*
X117466082Y-77518291D01*
X117466081Y-77518291D01*
X117303678Y-77590597D01*
X117303676Y-77590598D01*
X117297648Y-77593282D01*
X117292307Y-77597162D01*
X117292306Y-77597163D01*
X117255008Y-77624262D01*
X117143147Y-77705534D01*
X117138726Y-77710444D01*
X117138725Y-77710445D01*
X117060259Y-77797591D01*
X117015360Y-77847456D01*
X116919873Y-78012844D01*
X116860858Y-78194472D01*
X116860168Y-78201033D01*
X116860168Y-78201035D01*
X116844985Y-78345493D01*
X116840896Y-78384400D01*
X116841586Y-78390965D01*
X116859738Y-78563668D01*
X116860858Y-78574328D01*
X116885975Y-78651630D01*
X116888003Y-78722596D01*
X116884126Y-78734790D01*
X116836855Y-78860884D01*
X116830100Y-78923066D01*
X116830100Y-80139467D01*
X116810098Y-80207588D01*
X116756442Y-80254081D01*
X116704100Y-80265467D01*
X116259945Y-80265467D01*
X116191824Y-80245465D01*
X116145331Y-80191809D01*
X116133945Y-80139467D01*
X116133945Y-76375479D01*
X116135692Y-76354572D01*
X116138212Y-76339593D01*
X116139021Y-76334787D01*
X116139174Y-76322235D01*
X116138484Y-76317412D01*
X116138390Y-76315977D01*
X116137622Y-76308420D01*
X116120368Y-76023122D01*
X116120368Y-76023120D01*
X116120138Y-76019321D01*
X116076746Y-75782519D01*
X116066130Y-75724582D01*
X116066129Y-75724579D01*
X116065441Y-75720823D01*
X115975163Y-75431095D01*
X115973273Y-75426894D01*
X115897967Y-75259565D01*
X115850621Y-75154361D01*
X115693630Y-74894657D01*
X115506480Y-74655769D01*
X115291900Y-74441181D01*
X115053019Y-74254022D01*
X115006078Y-74225644D01*
X114813486Y-74109213D01*
X114765539Y-74056853D01*
X114753510Y-73986883D01*
X114761745Y-73956797D01*
X114761406Y-73956687D01*
X114803784Y-73826263D01*
X114843858Y-73767658D01*
X114909255Y-73740021D01*
X114923617Y-73739200D01*
X115040966Y-73739200D01*
X115047482Y-73738863D01*
X115141332Y-73729125D01*
X115154728Y-73726232D01*
X115306153Y-73675712D01*
X115319315Y-73669547D01*
X115454692Y-73585774D01*
X115466090Y-73576740D01*
X115578563Y-73464071D01*
X115587575Y-73452660D01*
X115671112Y-73317137D01*
X115677256Y-73303959D01*
X115727515Y-73152434D01*
X115730381Y-73139068D01*
X115739872Y-73046430D01*
X115740200Y-73040015D01*
X115740200Y-72965815D01*
X115735725Y-72950576D01*
X115734335Y-72949371D01*
X115726652Y-72947700D01*
X114631485Y-72947700D01*
X114563364Y-72927698D01*
X114547184Y-72915345D01*
X114544899Y-72913288D01*
X114507653Y-72852846D01*
X114503200Y-72819643D01*
X114503200Y-72565700D01*
X114523202Y-72497579D01*
X114576858Y-72451086D01*
X114629200Y-72439700D01*
X115722085Y-72439700D01*
X115737324Y-72435225D01*
X115738529Y-72433835D01*
X115740200Y-72426152D01*
X115740200Y-72347434D01*
X115739863Y-72340918D01*
X115730125Y-72247068D01*
X115727232Y-72233672D01*
X115676712Y-72082247D01*
X115670547Y-72069085D01*
X115608924Y-71969502D01*
X115590087Y-71901050D01*
X115611249Y-71833280D01*
X115665690Y-71787710D01*
X115716069Y-71777200D01*
X116200018Y-71777200D01*
X116268139Y-71797202D01*
G37*
%TD.AperFunction*%
%TA.AperFunction,Conductor*%
G36*
X118524735Y-68905302D02*
G01*
X118571228Y-68958958D01*
X118581332Y-69029232D01*
X118576207Y-69050968D01*
X118542062Y-69153910D01*
X118539195Y-69167286D01*
X118529528Y-69261638D01*
X118529200Y-69268055D01*
X118529200Y-70543085D01*
X118533675Y-70558324D01*
X118535065Y-70559529D01*
X118542748Y-70561200D01*
X121127084Y-70561200D01*
X121142323Y-70556725D01*
X121143528Y-70555335D01*
X121145199Y-70547652D01*
X121145199Y-69268105D01*
X121144862Y-69261586D01*
X121134943Y-69165994D01*
X121132051Y-69152600D01*
X121098214Y-69051176D01*
X121095630Y-68980226D01*
X121131814Y-68919142D01*
X121195278Y-68887318D01*
X121217738Y-68885300D01*
X125852150Y-68885300D01*
X125920271Y-68905302D01*
X125966764Y-68958958D01*
X125976868Y-69029232D01*
X125967256Y-69062551D01*
X125965578Y-69066319D01*
X125962273Y-69072044D01*
X125903258Y-69253672D01*
X125902568Y-69260237D01*
X125902567Y-69260242D01*
X125902416Y-69261676D01*
X125902097Y-69262451D01*
X125901194Y-69266700D01*
X125900417Y-69266535D01*
X125875400Y-69327332D01*
X125817177Y-69367959D01*
X125777107Y-69374500D01*
X125229128Y-69374500D01*
X125225882Y-69374837D01*
X125225878Y-69374837D01*
X125131965Y-69384581D01*
X125131961Y-69384582D01*
X125125107Y-69385293D01*
X125118571Y-69387474D01*
X125118569Y-69387474D01*
X125004202Y-69425630D01*
X124960093Y-69440346D01*
X124831202Y-69520106D01*
X124814173Y-69530644D01*
X124747870Y-69549500D01*
X124316814Y-69549500D01*
X124315494Y-69549493D01*
X124314419Y-69549482D01*
X124225379Y-69548549D01*
X124218489Y-69550039D01*
X124214390Y-69550455D01*
X124201656Y-69551100D01*
X124110513Y-69551100D01*
X124104061Y-69552472D01*
X124104056Y-69552472D01*
X124017113Y-69570953D01*
X123923712Y-69590806D01*
X123917682Y-69593491D01*
X123917681Y-69593491D01*
X123755278Y-69665797D01*
X123755276Y-69665798D01*
X123749248Y-69668482D01*
X123743907Y-69672362D01*
X123743906Y-69672363D01*
X123698337Y-69705471D01*
X123594747Y-69780734D01*
X123590326Y-69785644D01*
X123590325Y-69785645D01*
X123500233Y-69885703D01*
X123466960Y-69922656D01*
X123371473Y-70088044D01*
X123312458Y-70269672D01*
X123311768Y-70276233D01*
X123311768Y-70276235D01*
X123298708Y-70400500D01*
X123292496Y-70459600D01*
X123293186Y-70466165D01*
X123308309Y-70610049D01*
X123312458Y-70649528D01*
X123371473Y-70831156D01*
X123374776Y-70836878D01*
X123374777Y-70836879D01*
X123403660Y-70886905D01*
X123466960Y-70996544D01*
X123471378Y-71001451D01*
X123471379Y-71001452D01*
X123590325Y-71133555D01*
X123594747Y-71138466D01*
X123676167Y-71197621D01*
X123739253Y-71243456D01*
X123749248Y-71250718D01*
X123755276Y-71253402D01*
X123755278Y-71253403D01*
X123882454Y-71310025D01*
X123923712Y-71328394D01*
X124009731Y-71346678D01*
X124104056Y-71366728D01*
X124104061Y-71366728D01*
X124110513Y-71368100D01*
X124301487Y-71368100D01*
X124307939Y-71366728D01*
X124307944Y-71366728D01*
X124427683Y-71341276D01*
X124498474Y-71346678D01*
X124555106Y-71389495D01*
X124579600Y-71456132D01*
X124573473Y-71504190D01*
X124545885Y-71587365D01*
X124543019Y-71600732D01*
X124533528Y-71693370D01*
X124533200Y-71699785D01*
X124533200Y-71711485D01*
X124537675Y-71726724D01*
X124539065Y-71727929D01*
X124546748Y-71729600D01*
X125706700Y-71729600D01*
X125774821Y-71749602D01*
X125821314Y-71803258D01*
X125832700Y-71855600D01*
X125832700Y-72111600D01*
X125812698Y-72179721D01*
X125759042Y-72226214D01*
X125706700Y-72237600D01*
X124551315Y-72237600D01*
X124536076Y-72242075D01*
X124534871Y-72243465D01*
X124533200Y-72251148D01*
X124533200Y-72267366D01*
X124533537Y-72273882D01*
X124543275Y-72367732D01*
X124546168Y-72381128D01*
X124596688Y-72532553D01*
X124602853Y-72545715D01*
X124686629Y-72681097D01*
X124695525Y-72692321D01*
X124722161Y-72758132D01*
X124708989Y-72827896D01*
X124695659Y-72848676D01*
X124694442Y-72850217D01*
X124689271Y-72855397D01*
X124681605Y-72867834D01*
X124602564Y-72996062D01*
X124597991Y-73003480D01*
X124543226Y-73168591D01*
X124542526Y-73175427D01*
X124542525Y-73175430D01*
X124539580Y-73204175D01*
X124532700Y-73271328D01*
X124532700Y-73845472D01*
X124533037Y-73848718D01*
X124533037Y-73848722D01*
X124539833Y-73914216D01*
X124543493Y-73949493D01*
X124545674Y-73956029D01*
X124545674Y-73956031D01*
X124553371Y-73979102D01*
X124598546Y-74114507D01*
X124690084Y-74262431D01*
X124695266Y-74267604D01*
X124808016Y-74380158D01*
X124808021Y-74380162D01*
X124813197Y-74385329D01*
X124819427Y-74389169D01*
X124819428Y-74389170D01*
X124940786Y-74463976D01*
X124961280Y-74476609D01*
X125126391Y-74531374D01*
X125133227Y-74532074D01*
X125133230Y-74532075D01*
X125184726Y-74537351D01*
X125229128Y-74541900D01*
X125302751Y-74541900D01*
X125370872Y-74561902D01*
X125411870Y-74604900D01*
X125498960Y-74755744D01*
X125503378Y-74760651D01*
X125503379Y-74760652D01*
X125591037Y-74858006D01*
X125626747Y-74897666D01*
X125645108Y-74911006D01*
X125769673Y-75001508D01*
X125781248Y-75009918D01*
X125787276Y-75012602D01*
X125787278Y-75012603D01*
X125938413Y-75079892D01*
X125955712Y-75087594D01*
X126049112Y-75107447D01*
X126136056Y-75125928D01*
X126136061Y-75125928D01*
X126142513Y-75127300D01*
X126333487Y-75127300D01*
X126339939Y-75125928D01*
X126339944Y-75125928D01*
X126426888Y-75107447D01*
X126520288Y-75087594D01*
X126537590Y-75079891D01*
X126574860Y-75063297D01*
X126645227Y-75053863D01*
X126709524Y-75083969D01*
X126747338Y-75144058D01*
X126751046Y-75190051D01*
X126750576Y-75192085D01*
X126750551Y-75199129D01*
X126750551Y-75199132D01*
X126750434Y-75232656D01*
X126750405Y-75233538D01*
X126750300Y-75234369D01*
X126750300Y-75271019D01*
X126750299Y-75271459D01*
X126749967Y-75366663D01*
X126749943Y-75373470D01*
X126750211Y-75374670D01*
X126750300Y-75376307D01*
X126750300Y-77805068D01*
X126730298Y-77873189D01*
X126676642Y-77919682D01*
X126606368Y-77929786D01*
X126598104Y-77928315D01*
X126515963Y-77910856D01*
X126515964Y-77910856D01*
X126509504Y-77909483D01*
X126318530Y-77909483D01*
X126312078Y-77910855D01*
X126312073Y-77910855D01*
X126229933Y-77928315D01*
X126131729Y-77949189D01*
X126125699Y-77951874D01*
X126125698Y-77951874D01*
X125963295Y-78024180D01*
X125963293Y-78024181D01*
X125957265Y-78026865D01*
X125802764Y-78139117D01*
X125674977Y-78281039D01*
X125625519Y-78366702D01*
X125612933Y-78388503D01*
X125579490Y-78446427D01*
X125520475Y-78628055D01*
X125519785Y-78634616D01*
X125519785Y-78634618D01*
X125503721Y-78787459D01*
X125500513Y-78817983D01*
X125501203Y-78824548D01*
X125511558Y-78923066D01*
X125520475Y-79007911D01*
X125579490Y-79189539D01*
X125674977Y-79354927D01*
X125802764Y-79496849D01*
X125957265Y-79609101D01*
X125963293Y-79611785D01*
X125963295Y-79611786D01*
X126125698Y-79684092D01*
X126131729Y-79686777D01*
X126225130Y-79706630D01*
X126312073Y-79725111D01*
X126312078Y-79725111D01*
X126318530Y-79726483D01*
X126337144Y-79726483D01*
X126405265Y-79746485D01*
X126426239Y-79763388D01*
X126699195Y-80036344D01*
X126733221Y-80098656D01*
X126736100Y-80125439D01*
X126736100Y-80139467D01*
X126716098Y-80207588D01*
X126662442Y-80254081D01*
X126610100Y-80265467D01*
X119973100Y-80265467D01*
X119904979Y-80245465D01*
X119858486Y-80191809D01*
X119847100Y-80139467D01*
X119847100Y-78923066D01*
X119840345Y-78860884D01*
X119833990Y-78843931D01*
X119828806Y-78773124D01*
X119862726Y-78710754D01*
X119924981Y-78676625D01*
X119951971Y-78673700D01*
X120437600Y-78673700D01*
X120440846Y-78673363D01*
X120440850Y-78673363D01*
X120536508Y-78663438D01*
X120536512Y-78663437D01*
X120543366Y-78662726D01*
X120549902Y-78660545D01*
X120549904Y-78660545D01*
X120704198Y-78609068D01*
X120711146Y-78606750D01*
X120861548Y-78513678D01*
X120906546Y-78468602D01*
X120981334Y-78393683D01*
X120986505Y-78388503D01*
X120999794Y-78366944D01*
X121075475Y-78244168D01*
X121075476Y-78244166D01*
X121079315Y-78237938D01*
X121126751Y-78094923D01*
X121132832Y-78076589D01*
X121132832Y-78076587D01*
X121134997Y-78070061D01*
X121145700Y-77965600D01*
X121145700Y-77385300D01*
X121165702Y-77317179D01*
X121219358Y-77270686D01*
X121271700Y-77259300D01*
X121614169Y-77259300D01*
X121617225Y-77259000D01*
X121617232Y-77259000D01*
X121675740Y-77253263D01*
X121761233Y-77244880D01*
X121767134Y-77243098D01*
X121767136Y-77243098D01*
X121861452Y-77214622D01*
X121950569Y-77187716D01*
X122125196Y-77094866D01*
X122211462Y-77024509D01*
X122273687Y-76973760D01*
X122273690Y-76973757D01*
X122278462Y-76969865D01*
X122282391Y-76965116D01*
X122400601Y-76822225D01*
X122400603Y-76822221D01*
X122404530Y-76817475D01*
X122498598Y-76643501D01*
X122557082Y-76454568D01*
X122563981Y-76388926D01*
X122577111Y-76264004D01*
X122577111Y-76264002D01*
X122577755Y-76257875D01*
X122559830Y-76060912D01*
X122555921Y-76047628D01*
X122511816Y-75897771D01*
X122503990Y-75871181D01*
X122500375Y-75864265D01*
X122415213Y-75701368D01*
X122412360Y-75695910D01*
X122288432Y-75541775D01*
X122136926Y-75414646D01*
X122131528Y-75411679D01*
X122131523Y-75411675D01*
X121969008Y-75322333D01*
X121969009Y-75322333D01*
X121963613Y-75319367D01*
X121957746Y-75317506D01*
X121957744Y-75317505D01*
X121780964Y-75261427D01*
X121780963Y-75261427D01*
X121775094Y-75259565D01*
X121621173Y-75242300D01*
X121271700Y-75242300D01*
X121203579Y-75222298D01*
X121157086Y-75168642D01*
X121145700Y-75116300D01*
X121145700Y-74864800D01*
X121144173Y-74850079D01*
X121135438Y-74765892D01*
X121135437Y-74765888D01*
X121134726Y-74759034D01*
X121130590Y-74746635D01*
X121081068Y-74598202D01*
X121078750Y-74591254D01*
X120985678Y-74440852D01*
X120860503Y-74315895D01*
X120835668Y-74300586D01*
X120709938Y-74223085D01*
X120710712Y-74221830D01*
X120663586Y-74180337D01*
X120648356Y-74136211D01*
X120646650Y-74136580D01*
X120646567Y-74136197D01*
X120637490Y-74094214D01*
X120635430Y-74081635D01*
X120631382Y-74045541D01*
X120631381Y-74045538D01*
X120630597Y-74038545D01*
X120619566Y-74006868D01*
X120615404Y-73992058D01*
X120609809Y-73966178D01*
X120609808Y-73966174D01*
X120608319Y-73959289D01*
X120605342Y-73952905D01*
X120605340Y-73952899D01*
X120589996Y-73919993D01*
X120585200Y-73908183D01*
X120570945Y-73867248D01*
X120567213Y-73861276D01*
X120567210Y-73861269D01*
X120553173Y-73838805D01*
X120545834Y-73825288D01*
X120534639Y-73801281D01*
X120534637Y-73801277D01*
X120531662Y-73794898D01*
X120505092Y-73760644D01*
X120497798Y-73750188D01*
X120497606Y-73749880D01*
X120474826Y-73713424D01*
X120458594Y-73697078D01*
X120446217Y-73684615D01*
X120445634Y-73683992D01*
X120445121Y-73683330D01*
X120419274Y-73657483D01*
X120390130Y-73628135D01*
X120349504Y-73587224D01*
X120349500Y-73587220D01*
X120347015Y-73584718D01*
X120345977Y-73584059D01*
X120344744Y-73582953D01*
X120050085Y-73288294D01*
X120016059Y-73225982D01*
X120021124Y-73155167D01*
X120063671Y-73098331D01*
X120130191Y-73073520D01*
X120139180Y-73073199D01*
X120434295Y-73073199D01*
X120440814Y-73072862D01*
X120536406Y-73062943D01*
X120549800Y-73060051D01*
X120703984Y-73008612D01*
X120717162Y-73002439D01*
X120855007Y-72917137D01*
X120866408Y-72908101D01*
X120980939Y-72793371D01*
X120989951Y-72781960D01*
X121075016Y-72643957D01*
X121081163Y-72630776D01*
X121107085Y-72552624D01*
X121147516Y-72494265D01*
X121213080Y-72467028D01*
X121282962Y-72479562D01*
X121300736Y-72490354D01*
X121366323Y-72538006D01*
X121397472Y-72560637D01*
X121412448Y-72571518D01*
X121418476Y-72574202D01*
X121418478Y-72574203D01*
X121562219Y-72638200D01*
X121586912Y-72649194D01*
X121605074Y-72653055D01*
X121667969Y-72687205D01*
X122217195Y-73236431D01*
X122251221Y-73298743D01*
X122254100Y-73325526D01*
X122254100Y-73979102D01*
X122237219Y-74042101D01*
X122203073Y-74101244D01*
X122144058Y-74282872D01*
X122143368Y-74289433D01*
X122143368Y-74289435D01*
X122127889Y-74436716D01*
X122124096Y-74472800D01*
X122124786Y-74479365D01*
X122143327Y-74655769D01*
X122144058Y-74662728D01*
X122203073Y-74844356D01*
X122298560Y-75009744D01*
X122302978Y-75014651D01*
X122302979Y-75014652D01*
X122361721Y-75079892D01*
X122426347Y-75151666D01*
X122470500Y-75183745D01*
X122574857Y-75259565D01*
X122580848Y-75263918D01*
X122586876Y-75266602D01*
X122586878Y-75266603D01*
X122749281Y-75338909D01*
X122755312Y-75341594D01*
X122826521Y-75356730D01*
X122935656Y-75379928D01*
X122935661Y-75379928D01*
X122942113Y-75381300D01*
X123133087Y-75381300D01*
X123139539Y-75379928D01*
X123139544Y-75379928D01*
X123248679Y-75356730D01*
X123319888Y-75341594D01*
X123325919Y-75338909D01*
X123488322Y-75266603D01*
X123488324Y-75266602D01*
X123494352Y-75263918D01*
X123500344Y-75259565D01*
X123604700Y-75183745D01*
X123648853Y-75151666D01*
X123713479Y-75079892D01*
X123772221Y-75014652D01*
X123772222Y-75014651D01*
X123776640Y-75009744D01*
X123872127Y-74844356D01*
X123931142Y-74662728D01*
X123931874Y-74655769D01*
X123950414Y-74479365D01*
X123951104Y-74472800D01*
X123947311Y-74436716D01*
X123931832Y-74289435D01*
X123931832Y-74289433D01*
X123931142Y-74282872D01*
X123872127Y-74101244D01*
X123837981Y-74042101D01*
X123821100Y-73979102D01*
X123821100Y-72957753D01*
X123821107Y-72956433D01*
X123821483Y-72920535D01*
X123822022Y-72869122D01*
X123820402Y-72861627D01*
X123813186Y-72828255D01*
X123811125Y-72815672D01*
X123808750Y-72794500D01*
X123806464Y-72774118D01*
X123804146Y-72767463D01*
X123804145Y-72767457D01*
X123795856Y-72743654D01*
X123791693Y-72728845D01*
X123786364Y-72704199D01*
X123786363Y-72704195D01*
X123784875Y-72697314D01*
X123767198Y-72659405D01*
X123762416Y-72647629D01*
X123748657Y-72608119D01*
X123731562Y-72580761D01*
X123724223Y-72567244D01*
X123713564Y-72544385D01*
X123713562Y-72544382D01*
X123710589Y-72538006D01*
X123705599Y-72531572D01*
X123684960Y-72504965D01*
X123677671Y-72494517D01*
X123655509Y-72459051D01*
X123627781Y-72431128D01*
X123627227Y-72430536D01*
X123626723Y-72429887D01*
X123601571Y-72404735D01*
X123531651Y-72334325D01*
X123530641Y-72333684D01*
X123529462Y-72332626D01*
X122772308Y-71575472D01*
X122741570Y-71525313D01*
X122721650Y-71464004D01*
X122703727Y-71408844D01*
X122686004Y-71378146D01*
X122634564Y-71289050D01*
X122608240Y-71243456D01*
X122603084Y-71237729D01*
X122484875Y-71106445D01*
X122484874Y-71106444D01*
X122480453Y-71101534D01*
X122342703Y-71001452D01*
X122331294Y-70993163D01*
X122331293Y-70993162D01*
X122325952Y-70989282D01*
X122319924Y-70986598D01*
X122319922Y-70986597D01*
X122157519Y-70914291D01*
X122157518Y-70914291D01*
X122151488Y-70911606D01*
X122035280Y-70886905D01*
X121971144Y-70873272D01*
X121971139Y-70873272D01*
X121964687Y-70871900D01*
X121773713Y-70871900D01*
X121767261Y-70873272D01*
X121767256Y-70873272D01*
X121703120Y-70886905D01*
X121586912Y-70911606D01*
X121580882Y-70914291D01*
X121580881Y-70914291D01*
X121418478Y-70986597D01*
X121418476Y-70986598D01*
X121412448Y-70989282D01*
X121294320Y-71075108D01*
X121293630Y-71075609D01*
X121226763Y-71099467D01*
X121157611Y-71083387D01*
X121140090Y-71071036D01*
X121131652Y-71069200D01*
X118547316Y-71069200D01*
X118532077Y-71073675D01*
X118530872Y-71075065D01*
X118529201Y-71082748D01*
X118529201Y-71463219D01*
X118509199Y-71531340D01*
X118455543Y-71577833D01*
X118385269Y-71587937D01*
X118320689Y-71558443D01*
X118314106Y-71552314D01*
X117165334Y-70403542D01*
X117164406Y-70402605D01*
X117106257Y-70343225D01*
X117106256Y-70343224D01*
X117101329Y-70338193D01*
X117064879Y-70314702D01*
X117054554Y-70307283D01*
X117020657Y-70280224D01*
X117012406Y-70276235D01*
X116990463Y-70265628D01*
X116977045Y-70258098D01*
X116948862Y-70239935D01*
X116942245Y-70237527D01*
X116942240Y-70237524D01*
X116908127Y-70225108D01*
X116896384Y-70220147D01*
X116863697Y-70204346D01*
X116863692Y-70204344D01*
X116857351Y-70201279D01*
X116850493Y-70199696D01*
X116850491Y-70199695D01*
X116824674Y-70193735D01*
X116809931Y-70189368D01*
X116778415Y-70177897D01*
X116771425Y-70177014D01*
X116771417Y-70177012D01*
X116735399Y-70172462D01*
X116722847Y-70170226D01*
X116687486Y-70162062D01*
X116687483Y-70162062D01*
X116680615Y-70160476D01*
X116673569Y-70160451D01*
X116673566Y-70160451D01*
X116640044Y-70160334D01*
X116639162Y-70160305D01*
X116638331Y-70160200D01*
X116601681Y-70160200D01*
X116601241Y-70160199D01*
X116502757Y-70159855D01*
X116502752Y-70159855D01*
X116499230Y-70159843D01*
X116498030Y-70160111D01*
X116496393Y-70160200D01*
X115593400Y-70160200D01*
X115525279Y-70140198D01*
X115504382Y-70123373D01*
X115489646Y-70108662D01*
X115460203Y-70079271D01*
X115400569Y-70042512D01*
X115318350Y-69991831D01*
X115318348Y-69991830D01*
X115312120Y-69987991D01*
X115189450Y-69947303D01*
X115131090Y-69906872D01*
X115114922Y-69880960D01*
X115104622Y-69858872D01*
X115031123Y-69701251D01*
X114926947Y-69552472D01*
X114902957Y-69518211D01*
X114902955Y-69518208D01*
X114899798Y-69513700D01*
X114737900Y-69351802D01*
X114733392Y-69348645D01*
X114733389Y-69348643D01*
X114634307Y-69279265D01*
X114550349Y-69220477D01*
X114545367Y-69218154D01*
X114545362Y-69218151D01*
X114346658Y-69125495D01*
X114293373Y-69078578D01*
X114273912Y-69010301D01*
X114294454Y-68942341D01*
X114348476Y-68896275D01*
X114399908Y-68885300D01*
X118456614Y-68885300D01*
X118524735Y-68905302D01*
G37*
%TD.AperFunction*%
%TA.AperFunction,Conductor*%
G36*
X142233236Y-68905302D02*
G01*
X142279729Y-68958958D01*
X142291115Y-69011300D01*
X142291115Y-73993587D01*
X142271113Y-74061708D01*
X142217457Y-74108201D01*
X142147183Y-74118305D01*
X142082603Y-74088811D01*
X142064481Y-74067445D01*
X142063615Y-74068092D01*
X141939674Y-73902114D01*
X141936222Y-73897491D01*
X141779871Y-73752963D01*
X141599801Y-73639347D01*
X141402041Y-73560449D01*
X141396381Y-73559323D01*
X141396377Y-73559322D01*
X141198882Y-73520038D01*
X141198880Y-73520038D01*
X141193215Y-73518911D01*
X141187440Y-73518835D01*
X141187436Y-73518835D01*
X141080761Y-73517439D01*
X140980316Y-73516124D01*
X140974619Y-73517103D01*
X140974618Y-73517103D01*
X140776164Y-73551203D01*
X140776161Y-73551204D01*
X140770474Y-73552181D01*
X140570716Y-73625875D01*
X140387734Y-73734739D01*
X140227654Y-73875125D01*
X140095838Y-74042333D01*
X140093149Y-74047444D01*
X140093147Y-74047447D01*
X140064843Y-74101244D01*
X139996700Y-74230762D01*
X139994986Y-74236283D01*
X139994984Y-74236287D01*
X139966368Y-74328446D01*
X139933561Y-74434102D01*
X139932404Y-74443876D01*
X139931286Y-74453324D01*
X139903416Y-74518622D01*
X139844668Y-74558486D01*
X139773693Y-74560260D01*
X139712523Y-74522826D01*
X139708738Y-74518622D01*
X139650853Y-74454334D01*
X139496352Y-74342082D01*
X139490324Y-74339398D01*
X139490322Y-74339397D01*
X139327919Y-74267091D01*
X139327918Y-74267091D01*
X139321888Y-74264406D01*
X139228488Y-74244553D01*
X139141544Y-74226072D01*
X139141539Y-74226072D01*
X139135087Y-74224700D01*
X138944113Y-74224700D01*
X138937661Y-74226072D01*
X138937656Y-74226072D01*
X138850712Y-74244553D01*
X138757312Y-74264406D01*
X138751282Y-74267091D01*
X138751281Y-74267091D01*
X138588878Y-74339397D01*
X138588876Y-74339398D01*
X138582848Y-74342082D01*
X138428347Y-74454334D01*
X138423929Y-74459241D01*
X138423925Y-74459245D01*
X138309586Y-74586232D01*
X138300560Y-74596256D01*
X138264465Y-74658774D01*
X138210355Y-74752496D01*
X138205073Y-74761644D01*
X138146058Y-74943272D01*
X138145368Y-74949833D01*
X138145368Y-74949835D01*
X138130889Y-75087594D01*
X138126096Y-75133200D01*
X138126786Y-75139765D01*
X138136016Y-75227584D01*
X138123244Y-75297422D01*
X138074742Y-75349269D01*
X138005909Y-75366663D01*
X137938599Y-75344082D01*
X137914401Y-75320341D01*
X137913940Y-75320756D01*
X137790575Y-75183745D01*
X137790574Y-75183744D01*
X137786153Y-75178834D01*
X137662461Y-75088966D01*
X137636994Y-75070463D01*
X137636993Y-75070462D01*
X137631652Y-75066582D01*
X137588764Y-75047487D01*
X137534669Y-75001508D01*
X137514339Y-74933470D01*
X137514704Y-74930000D01*
X137494742Y-74740072D01*
X137435727Y-74558444D01*
X137340240Y-74393056D01*
X137219583Y-74259052D01*
X137216875Y-74256045D01*
X137216874Y-74256044D01*
X137212453Y-74251134D01*
X137057952Y-74138882D01*
X137051924Y-74136198D01*
X137051922Y-74136197D01*
X136889519Y-74063891D01*
X136889518Y-74063891D01*
X136883488Y-74061206D01*
X136776877Y-74038545D01*
X136703144Y-74022872D01*
X136703139Y-74022872D01*
X136696687Y-74021500D01*
X136505713Y-74021500D01*
X136499261Y-74022872D01*
X136499256Y-74022872D01*
X136425523Y-74038545D01*
X136318912Y-74061206D01*
X136312882Y-74063891D01*
X136312881Y-74063891D01*
X136205909Y-74111518D01*
X136154660Y-74122411D01*
X135484848Y-74122411D01*
X135416727Y-74102409D01*
X135370234Y-74048753D01*
X135358848Y-73996411D01*
X135358848Y-73740411D01*
X135378850Y-73672290D01*
X135432506Y-73625797D01*
X135484848Y-73614411D01*
X136702732Y-73614411D01*
X136717971Y-73609936D01*
X136719176Y-73608546D01*
X136723194Y-73590075D01*
X136757220Y-73527763D01*
X136819532Y-73493737D01*
X136890348Y-73498802D01*
X136912432Y-73509599D01*
X136958790Y-73538175D01*
X136958793Y-73538176D01*
X136965022Y-73542016D01*
X137130133Y-73596781D01*
X137136969Y-73597481D01*
X137136972Y-73597482D01*
X137184312Y-73602332D01*
X137232870Y-73607307D01*
X137832014Y-73607307D01*
X137835260Y-73606970D01*
X137835264Y-73606970D01*
X137929177Y-73597226D01*
X137929181Y-73597225D01*
X137936035Y-73596514D01*
X137942571Y-73594333D01*
X137942573Y-73594333D01*
X138092369Y-73544357D01*
X138101049Y-73541461D01*
X138248973Y-73449923D01*
X138356043Y-73342666D01*
X138418324Y-73308587D01*
X138489144Y-73313590D01*
X138534233Y-73342511D01*
X138637071Y-73445170D01*
X138648482Y-73454182D01*
X138784005Y-73537719D01*
X138797183Y-73543863D01*
X138948708Y-73594122D01*
X138962074Y-73596988D01*
X139054712Y-73606479D01*
X139061127Y-73606807D01*
X139085327Y-73606807D01*
X139100566Y-73602332D01*
X139101771Y-73600942D01*
X139103442Y-73593259D01*
X139103442Y-71658922D01*
X139098967Y-71643683D01*
X139097577Y-71642478D01*
X139089894Y-71640807D01*
X139061176Y-71640807D01*
X139054660Y-71641144D01*
X138960810Y-71650882D01*
X138947414Y-71653775D01*
X138795989Y-71704295D01*
X138782827Y-71710460D01*
X138647450Y-71794233D01*
X138636052Y-71803267D01*
X138534549Y-71904947D01*
X138472266Y-71939026D01*
X138401446Y-71934023D01*
X138356358Y-71905102D01*
X138337021Y-71885798D01*
X138247945Y-71796878D01*
X138241714Y-71793037D01*
X138106092Y-71709438D01*
X138106090Y-71709437D01*
X138099862Y-71705598D01*
X137934751Y-71650833D01*
X137927915Y-71650133D01*
X137927912Y-71650132D01*
X137867629Y-71643956D01*
X137832014Y-71640307D01*
X137232870Y-71640307D01*
X137229624Y-71640644D01*
X137229620Y-71640644D01*
X137135707Y-71650388D01*
X137135703Y-71650389D01*
X137128849Y-71651100D01*
X137122313Y-71653281D01*
X137122311Y-71653281D01*
X137024277Y-71685988D01*
X136963835Y-71706153D01*
X136913149Y-71737519D01*
X136844699Y-71756355D01*
X136776929Y-71735193D01*
X136731358Y-71680753D01*
X136720848Y-71630373D01*
X136720848Y-71600521D01*
X136716373Y-71585282D01*
X136714983Y-71584077D01*
X136707300Y-71582406D01*
X135484848Y-71582406D01*
X135416727Y-71562404D01*
X135370234Y-71508748D01*
X135358848Y-71456406D01*
X135358848Y-71200406D01*
X135378850Y-71132285D01*
X135432506Y-71085792D01*
X135484848Y-71074406D01*
X136702732Y-71074406D01*
X136742402Y-71062758D01*
X136813399Y-71062758D01*
X136852365Y-71082898D01*
X136852797Y-71083329D01*
X136878978Y-71099467D01*
X136987725Y-71166500D01*
X137000880Y-71174609D01*
X137165991Y-71229374D01*
X137172827Y-71230074D01*
X137172830Y-71230075D01*
X137220170Y-71234925D01*
X137268728Y-71239900D01*
X137967872Y-71239900D01*
X137971118Y-71239563D01*
X137971122Y-71239563D01*
X138065035Y-71229819D01*
X138065039Y-71229818D01*
X138071893Y-71229107D01*
X138078429Y-71226926D01*
X138078431Y-71226926D01*
X138211195Y-71182632D01*
X138236907Y-71174054D01*
X138384831Y-71082516D01*
X138392074Y-71075261D01*
X138393838Y-71074295D01*
X138395741Y-71072787D01*
X138395999Y-71073113D01*
X138454354Y-71041181D01*
X138525175Y-71046182D01*
X138570270Y-71075108D01*
X138572931Y-71077764D01*
X138584340Y-71086775D01*
X138719863Y-71170312D01*
X138733041Y-71176456D01*
X138884566Y-71226715D01*
X138897932Y-71229581D01*
X138990570Y-71239072D01*
X138996985Y-71239400D01*
X139071185Y-71239400D01*
X139086424Y-71234925D01*
X139087629Y-71233535D01*
X139089300Y-71225852D01*
X139089300Y-71221285D01*
X139597300Y-71221285D01*
X139601775Y-71236524D01*
X139603165Y-71237729D01*
X139610848Y-71239400D01*
X139689566Y-71239400D01*
X139696082Y-71239063D01*
X139789932Y-71229325D01*
X139803335Y-71226430D01*
X139816126Y-71222163D01*
X139887075Y-71219579D01*
X139948159Y-71255764D01*
X139979982Y-71319229D01*
X139982000Y-71341686D01*
X139982001Y-71550534D01*
X139961999Y-71618655D01*
X139908344Y-71665148D01*
X139838070Y-71675253D01*
X139816335Y-71670128D01*
X139766180Y-71653493D01*
X139752810Y-71650626D01*
X139660172Y-71641135D01*
X139653757Y-71640807D01*
X139629557Y-71640807D01*
X139614318Y-71645282D01*
X139613113Y-71646672D01*
X139611442Y-71654355D01*
X139611442Y-73588692D01*
X139615917Y-73603931D01*
X139617307Y-73605136D01*
X139624990Y-73606807D01*
X139653708Y-73606807D01*
X139660224Y-73606470D01*
X139754074Y-73596732D01*
X139767470Y-73593839D01*
X139918895Y-73543319D01*
X139932057Y-73537154D01*
X140067434Y-73453381D01*
X140078832Y-73444347D01*
X140191305Y-73331678D01*
X140200317Y-73320267D01*
X140224371Y-73281244D01*
X140277143Y-73233751D01*
X140347215Y-73222327D01*
X140364623Y-73226612D01*
X140364709Y-73226251D01*
X140387649Y-73231705D01*
X140438514Y-73237231D01*
X140445328Y-73237600D01*
X141967885Y-73237599D01*
X141983124Y-73233124D01*
X141984329Y-73231734D01*
X141986000Y-73224051D01*
X141986000Y-70239715D01*
X141981525Y-70224476D01*
X141980135Y-70223271D01*
X141972452Y-70221600D01*
X140514800Y-70221601D01*
X140446679Y-70201599D01*
X140400186Y-70147943D01*
X140388800Y-70095601D01*
X140388800Y-69972634D01*
X140388463Y-69966118D01*
X140378725Y-69872268D01*
X140375832Y-69858872D01*
X140325312Y-69707447D01*
X140319147Y-69694285D01*
X140235374Y-69558908D01*
X140226340Y-69547510D01*
X140113671Y-69435037D01*
X140102260Y-69426025D01*
X139966737Y-69342488D01*
X139953559Y-69336344D01*
X139802034Y-69286085D01*
X139788668Y-69283219D01*
X139696030Y-69273728D01*
X139689615Y-69273400D01*
X139615415Y-69273400D01*
X139600176Y-69277875D01*
X139598971Y-69279265D01*
X139597300Y-69286948D01*
X139597300Y-71221285D01*
X139089300Y-71221285D01*
X139089300Y-69291515D01*
X139084825Y-69276276D01*
X139083435Y-69275071D01*
X139075752Y-69273400D01*
X138997034Y-69273400D01*
X138990518Y-69273737D01*
X138896668Y-69283475D01*
X138883272Y-69286368D01*
X138731847Y-69336888D01*
X138718685Y-69343053D01*
X138583308Y-69426826D01*
X138571906Y-69435864D01*
X138570233Y-69437539D01*
X138568807Y-69438319D01*
X138566173Y-69440407D01*
X138565816Y-69439956D01*
X138507951Y-69471619D01*
X138437131Y-69466616D01*
X138392046Y-69437699D01*
X138388985Y-69434644D01*
X138383803Y-69429471D01*
X138377572Y-69425630D01*
X138241950Y-69342031D01*
X138241948Y-69342030D01*
X138235720Y-69338191D01*
X138070609Y-69283426D01*
X138063773Y-69282726D01*
X138063770Y-69282725D01*
X138012274Y-69277449D01*
X137967872Y-69272900D01*
X137645213Y-69272900D01*
X137616905Y-69269524D01*
X137611618Y-69267600D01*
X137604641Y-69266719D01*
X137604630Y-69266716D01*
X137568602Y-69262165D01*
X137556050Y-69259929D01*
X137520689Y-69251765D01*
X137520686Y-69251765D01*
X137513818Y-69250179D01*
X137506772Y-69250154D01*
X137506769Y-69250154D01*
X137473247Y-69250037D01*
X137472365Y-69250008D01*
X137471534Y-69249903D01*
X137434884Y-69249903D01*
X137434444Y-69249902D01*
X137335960Y-69249558D01*
X137335955Y-69249558D01*
X137332433Y-69249546D01*
X137331233Y-69249814D01*
X137329596Y-69249903D01*
X135671149Y-69249903D01*
X135603028Y-69229901D01*
X135556967Y-69176229D01*
X135556127Y-69173644D01*
X135552822Y-69167919D01*
X135498771Y-69074300D01*
X135482033Y-69005304D01*
X135505254Y-68938213D01*
X135561061Y-68894326D01*
X135607890Y-68885300D01*
X142165115Y-68885300D01*
X142233236Y-68905302D01*
G37*
%TD.AperFunction*%
%TA.AperFunction,Conductor*%
G36*
X107185999Y-73046013D02*
G01*
X107232492Y-73099668D01*
X107243879Y-73152011D01*
X107243879Y-73687728D01*
X107223877Y-73755849D01*
X107170221Y-73802342D01*
X107117879Y-73813728D01*
X106969879Y-73813728D01*
X106901758Y-73793726D01*
X106855265Y-73740070D01*
X106843879Y-73687728D01*
X106843879Y-73152012D01*
X106863881Y-73083891D01*
X106917537Y-73037398D01*
X106969878Y-73026012D01*
X107036127Y-73026012D01*
X107117880Y-73026011D01*
X107185999Y-73046013D01*
G37*
%TD.AperFunction*%
%TA.AperFunction,Conductor*%
G36*
X98544921Y-71646902D02*
G01*
X98591414Y-71700558D01*
X98602800Y-71752900D01*
X98602800Y-72908285D01*
X98607275Y-72923524D01*
X98608665Y-72924729D01*
X98616348Y-72926400D01*
X98632566Y-72926400D01*
X98639082Y-72926063D01*
X98732932Y-72916325D01*
X98746328Y-72913432D01*
X98858392Y-72876044D01*
X98929341Y-72873460D01*
X98990425Y-72909643D01*
X98999093Y-72920001D01*
X99049501Y-72987261D01*
X99166057Y-73074615D01*
X99302446Y-73125745D01*
X99364628Y-73132500D01*
X101173168Y-73132500D01*
X101241289Y-73152502D01*
X101262263Y-73169405D01*
X101484705Y-73391847D01*
X101492249Y-73400137D01*
X101496362Y-73406618D01*
X101502139Y-73412043D01*
X101546029Y-73453258D01*
X101548871Y-73456013D01*
X101568593Y-73475735D01*
X101571717Y-73478158D01*
X101571721Y-73478162D01*
X101571786Y-73478212D01*
X101580807Y-73485917D01*
X101613041Y-73516186D01*
X101619989Y-73520005D01*
X101619991Y-73520007D01*
X101630794Y-73525946D01*
X101647321Y-73536802D01*
X101657060Y-73544357D01*
X101657062Y-73544358D01*
X101663322Y-73549214D01*
X101703902Y-73566774D01*
X101714551Y-73571992D01*
X101724233Y-73577315D01*
X101774291Y-73627661D01*
X101789183Y-73697078D01*
X101764180Y-73763527D01*
X101707223Y-73805910D01*
X101663530Y-73813728D01*
X97642972Y-73813728D01*
X97574851Y-73793726D01*
X97528358Y-73740070D01*
X97518254Y-73669796D01*
X97533078Y-73628882D01*
X97532417Y-73628574D01*
X97541656Y-73608759D01*
X97591915Y-73457234D01*
X97594781Y-73443868D01*
X97604272Y-73351230D01*
X97604600Y-73344815D01*
X97604600Y-73320615D01*
X97600125Y-73305376D01*
X97598735Y-73304171D01*
X97591052Y-73302500D01*
X96493600Y-73302500D01*
X96425479Y-73282498D01*
X96378986Y-73228842D01*
X96367600Y-73176500D01*
X96367600Y-72920500D01*
X96387602Y-72852379D01*
X96441258Y-72805886D01*
X96493600Y-72794500D01*
X97586483Y-72794500D01*
X97600021Y-72790525D01*
X97671018Y-72790525D01*
X97701636Y-72804161D01*
X97787863Y-72857312D01*
X97801041Y-72863456D01*
X97952566Y-72913715D01*
X97965932Y-72916581D01*
X98058570Y-72926072D01*
X98064985Y-72926400D01*
X98076685Y-72926400D01*
X98091924Y-72921925D01*
X98093129Y-72920535D01*
X98094800Y-72912852D01*
X98094800Y-71752900D01*
X98114802Y-71684779D01*
X98168458Y-71638286D01*
X98220800Y-71626900D01*
X98476800Y-71626900D01*
X98544921Y-71646902D01*
G37*
%TD.AperFunction*%
%TA.AperFunction,Conductor*%
G36*
X92173543Y-72151956D02*
G01*
X92303256Y-72179528D01*
X92303261Y-72179528D01*
X92309713Y-72180900D01*
X92334377Y-72180900D01*
X92402498Y-72200902D01*
X92435202Y-72231334D01*
X92469177Y-72276667D01*
X92585733Y-72364021D01*
X92594141Y-72367173D01*
X92710830Y-72410918D01*
X92767594Y-72453560D01*
X92792294Y-72520121D01*
X92777087Y-72589470D01*
X92726801Y-72639588D01*
X92666600Y-72654900D01*
X92289446Y-72654900D01*
X92221325Y-72634898D01*
X92182302Y-72595203D01*
X92165001Y-72567244D01*
X92113716Y-72484369D01*
X92006459Y-72377299D01*
X91972380Y-72315018D01*
X91977383Y-72244198D01*
X92006305Y-72199108D01*
X92026028Y-72179351D01*
X92088311Y-72145273D01*
X92141396Y-72145123D01*
X92173543Y-72151956D01*
G37*
%TD.AperFunction*%
%TA.AperFunction,Conductor*%
G36*
X133903431Y-68905302D02*
G01*
X133949924Y-68958958D01*
X133960028Y-69029232D01*
X133944429Y-69074300D01*
X133942103Y-69078329D01*
X133887073Y-69173644D01*
X133828058Y-69355272D01*
X133827368Y-69361833D01*
X133827368Y-69361835D01*
X133819157Y-69439956D01*
X133808096Y-69545200D01*
X133808861Y-69552472D01*
X133810314Y-69566299D01*
X133797542Y-69636138D01*
X133749041Y-69687985D01*
X133685004Y-69705471D01*
X132976657Y-69705471D01*
X132961418Y-69709946D01*
X132960213Y-69711336D01*
X132958542Y-69719019D01*
X132958542Y-72091407D01*
X132938540Y-72159528D01*
X132884884Y-72206021D01*
X132832542Y-72217407D01*
X132576542Y-72217407D01*
X132508421Y-72197405D01*
X132461928Y-72143749D01*
X132450542Y-72091407D01*
X132450542Y-69723587D01*
X132446067Y-69708348D01*
X132444677Y-69707143D01*
X132436994Y-69705472D01*
X131409873Y-69705472D01*
X131403052Y-69705842D01*
X131352190Y-69711366D01*
X131336938Y-69714992D01*
X131216488Y-69760147D01*
X131200893Y-69768685D01*
X131106301Y-69839578D01*
X131039795Y-69864426D01*
X130970412Y-69849373D01*
X130920182Y-69799199D01*
X130904736Y-69738752D01*
X130904736Y-69710269D01*
X130897981Y-69648087D01*
X130846851Y-69511698D01*
X130759497Y-69395142D01*
X130642941Y-69307788D01*
X130506552Y-69256658D01*
X130444370Y-69249903D01*
X127798685Y-69249903D01*
X127730564Y-69229901D01*
X127709590Y-69212998D01*
X127682892Y-69186300D01*
X127652154Y-69136142D01*
X127633368Y-69078325D01*
X127633367Y-69078324D01*
X127631327Y-69072044D01*
X127628023Y-69066321D01*
X127626345Y-69062553D01*
X127616908Y-68992186D01*
X127647013Y-68927888D01*
X127707100Y-68890073D01*
X127741450Y-68885300D01*
X133835310Y-68885300D01*
X133903431Y-68905302D01*
G37*
%TD.AperFunction*%
%TA.AperFunction,Conductor*%
G36*
X107185999Y-70446013D02*
G01*
X107232492Y-70499668D01*
X107243879Y-70552011D01*
X107243879Y-71483012D01*
X107223877Y-71551133D01*
X107170221Y-71597626D01*
X107117880Y-71609012D01*
X107043880Y-71609012D01*
X106969878Y-71609013D01*
X106901759Y-71589011D01*
X106855266Y-71535356D01*
X106843879Y-71483013D01*
X106843879Y-70552012D01*
X106863881Y-70483891D01*
X106917537Y-70437398D01*
X106969878Y-70426012D01*
X107043878Y-70426012D01*
X107117880Y-70426011D01*
X107185999Y-70446013D01*
G37*
%TD.AperFunction*%
%TD*%
M02*
