%TF.GenerationSoftware,KiCad,Pcbnew,(6.0.6-0)*%
%TF.CreationDate,2022-10-17T17:05:32+02:00*%
%TF.ProjectId,Battery Extension PCB,42617474-6572-4792-9045-7874656e7369,rev?*%
%TF.SameCoordinates,Original*%
%TF.FileFunction,Soldermask,Top*%
%TF.FilePolarity,Negative*%
%FSLAX46Y46*%
G04 Gerber Fmt 4.6, Leading zero omitted, Abs format (unit mm)*
G04 Created by KiCad (PCBNEW (6.0.6-0)) date 2022-10-17 17:05:32*
%MOMM*%
%LPD*%
G01*
G04 APERTURE LIST*
G04 Aperture macros list*
%AMRoundRect*
0 Rectangle with rounded corners*
0 $1 Rounding radius*
0 $2 $3 $4 $5 $6 $7 $8 $9 X,Y pos of 4 corners*
0 Add a 4 corners polygon primitive as box body*
4,1,4,$2,$3,$4,$5,$6,$7,$8,$9,$2,$3,0*
0 Add four circle primitives for the rounded corners*
1,1,$1+$1,$2,$3*
1,1,$1+$1,$4,$5*
1,1,$1+$1,$6,$7*
1,1,$1+$1,$8,$9*
0 Add four rect primitives between the rounded corners*
20,1,$1+$1,$2,$3,$4,$5,0*
20,1,$1+$1,$4,$5,$6,$7,0*
20,1,$1+$1,$6,$7,$8,$9,0*
20,1,$1+$1,$8,$9,$2,$3,0*%
G04 Aperture macros list end*
%ADD10R,2.000000X3.500000*%
%ADD11R,1.072009X0.532004*%
%ADD12RoundRect,0.140000X-0.140000X-0.170000X0.140000X-0.170000X0.140000X0.170000X-0.140000X0.170000X0*%
%ADD13R,3.000000X2.100000*%
%ADD14R,1.600000X0.800000*%
%ADD15RoundRect,0.135000X-0.135000X-0.185000X0.135000X-0.185000X0.135000X0.185000X-0.135000X0.185000X0*%
%ADD16RoundRect,0.250000X-0.400000X-1.450000X0.400000X-1.450000X0.400000X1.450000X-0.400000X1.450000X0*%
%ADD17R,3.500000X2.000000*%
%ADD18R,1.000000X0.550013*%
%ADD19RoundRect,0.225000X0.250000X-0.225000X0.250000X0.225000X-0.250000X0.225000X-0.250000X-0.225000X0*%
%ADD20R,1.900000X2.500000*%
%ADD21RoundRect,0.225000X-0.250000X0.225000X-0.250000X-0.225000X0.250000X-0.225000X0.250000X0.225000X0*%
%ADD22R,1.200000X0.600000*%
%ADD23R,2.500000X3.499873*%
%ADD24RoundRect,0.225000X0.225000X0.250000X-0.225000X0.250000X-0.225000X-0.250000X0.225000X-0.250000X0*%
%ADD25RoundRect,0.250000X0.550000X-1.500000X0.550000X1.500000X-0.550000X1.500000X-0.550000X-1.500000X0*%
%ADD26R,2.460000X2.310000*%
%ADD27RoundRect,0.100000X-0.687500X-0.100000X0.687500X-0.100000X0.687500X0.100000X-0.687500X0.100000X0*%
%ADD28RoundRect,0.135000X-0.185000X0.135000X-0.185000X-0.135000X0.185000X-0.135000X0.185000X0.135000X0*%
%ADD29R,0.700000X1.250013*%
%ADD30R,1.250013X0.700000*%
%ADD31RoundRect,0.135000X0.185000X-0.135000X0.185000X0.135000X-0.185000X0.135000X-0.185000X-0.135000X0*%
%ADD32RoundRect,0.135000X0.135000X0.185000X-0.135000X0.185000X-0.135000X-0.185000X0.135000X-0.185000X0*%
G04 APERTURE END LIST*
D10*
%TO.C,P3*%
X118338600Y-80721200D03*
%TD*%
D11*
%TO.C,U6*%
X133451600Y-75925676D03*
X133451600Y-76875638D03*
X133451600Y-77825600D03*
X135749796Y-77825600D03*
X135749796Y-76875638D03*
X135749796Y-75925676D03*
%TD*%
D12*
%TO.C,C5*%
X125961200Y-70358000D03*
X126921200Y-70358000D03*
%TD*%
D13*
%TO.C,U1*%
X72229676Y-66420994D03*
X72229676Y-72771006D03*
D14*
X75129600Y-68970905D03*
X75129600Y-70221095D03*
%TD*%
D10*
%TO.C,P7*%
X128244600Y-80721200D03*
%TD*%
D15*
%TO.C,R7*%
X137934942Y-72623807D03*
X138954942Y-72623807D03*
%TD*%
D16*
%TO.C,F1*%
X79105800Y-70662800D03*
X83555800Y-70662800D03*
%TD*%
D15*
%TO.C,R2*%
X80822800Y-73456800D03*
X81842800Y-73456800D03*
%TD*%
D17*
%TO.C,P2*%
X68021200Y-72694800D03*
%TD*%
D18*
%TO.C,U3*%
X129085847Y-75938123D03*
X129085847Y-76888085D03*
X129085847Y-77838047D03*
X131885949Y-77838047D03*
X131885949Y-76888085D03*
X131885949Y-75938123D03*
%TD*%
D17*
%TO.C,P13*%
X142240000Y-71729600D03*
%TD*%
D19*
%TO.C,C3*%
X114757200Y-72606200D03*
X114757200Y-71056200D03*
%TD*%
D15*
%TO.C,R5*%
X132215206Y-79391539D03*
X133235206Y-79391539D03*
%TD*%
D20*
%TO.C,U7*%
X100362762Y-71374000D03*
X104462838Y-71374000D03*
%TD*%
D17*
%TO.C,P1*%
X68021200Y-69926200D03*
%TD*%
D21*
%TO.C,C2*%
X98247200Y-70497400D03*
X98247200Y-72047400D03*
%TD*%
D22*
%TO.C,U5*%
X135612848Y-73868411D03*
X135612848Y-72598408D03*
X135612848Y-71328406D03*
X135612848Y-70058403D03*
X129796236Y-70058403D03*
X129796236Y-71328406D03*
X129796236Y-72598408D03*
X129796236Y-73868411D03*
D23*
X132704542Y-71963407D03*
%TD*%
D24*
%TO.C,C1*%
X139255800Y-70256400D03*
X137705800Y-70256400D03*
%TD*%
D25*
%TO.C,C6*%
X119837200Y-76415200D03*
X119837200Y-70815200D03*
%TD*%
D24*
%TO.C,C4*%
X127216200Y-71983600D03*
X125666200Y-71983600D03*
%TD*%
D26*
%TO.C,U4*%
X109906379Y-71342512D03*
D27*
X107043879Y-69067512D03*
X107043879Y-69717512D03*
X107043879Y-70367512D03*
X107043879Y-71017512D03*
X107043879Y-71667512D03*
X107043879Y-72317512D03*
X107043879Y-72967512D03*
X107043879Y-73617512D03*
X112768879Y-73617512D03*
X112768879Y-72967512D03*
X112768879Y-72317512D03*
X112768879Y-71667512D03*
X112768879Y-71017512D03*
X112768879Y-70367512D03*
X112768879Y-69717512D03*
X112768879Y-69067512D03*
%TD*%
D28*
%TO.C,R6*%
X96621600Y-71270400D03*
X96621600Y-72290400D03*
%TD*%
D17*
%TO.C,P12*%
X142240000Y-77343000D03*
%TD*%
D15*
%TO.C,R1*%
X83868800Y-73456800D03*
X84888800Y-73456800D03*
%TD*%
D29*
%TO.C,U8*%
X95082362Y-71288400D03*
X93182438Y-71288400D03*
X94132400Y-73288400D03*
%TD*%
D10*
%TO.C,P11*%
X138252200Y-80721200D03*
%TD*%
D30*
%TO.C,U2*%
X77387200Y-73390762D03*
X77387200Y-71490838D03*
X75387200Y-72440800D03*
%TD*%
D31*
%TO.C,R9*%
X91643200Y-73255600D03*
X91643200Y-72235600D03*
%TD*%
D32*
%TO.C,R3*%
X79806800Y-73456800D03*
X78786800Y-73456800D03*
%TD*%
D15*
%TO.C,R8*%
X126032800Y-73456800D03*
X127052800Y-73456800D03*
%TD*%
M02*
