%TF.GenerationSoftware,KiCad,Pcbnew,(6.0.6-0)*%
%TF.CreationDate,2022-10-02T14:33:38+02:00*%
%TF.ProjectId,Battery Extension PCB,42617474-6572-4792-9045-7874656e7369,rev?*%
%TF.SameCoordinates,Original*%
%TF.FileFunction,Legend,Bot*%
%TF.FilePolarity,Positive*%
%FSLAX46Y46*%
G04 Gerber Fmt 4.6, Leading zero omitted, Abs format (unit mm)*
G04 Created by KiCad (PCBNEW (6.0.6-0)) date 2022-10-02 14:33:38*
%MOMM*%
%LPD*%
G01*
G04 APERTURE LIST*
%ADD10C,0.150000*%
%ADD11R,2.000000X3.500000*%
%ADD12R,3.500000X2.000000*%
G04 APERTURE END LIST*
D10*
X100248404Y-70818180D02*
X100248404Y-69818180D01*
X99867452Y-69818180D01*
X99772214Y-69865800D01*
X99724595Y-69913419D01*
X99676976Y-70008657D01*
X99676976Y-70151514D01*
X99724595Y-70246752D01*
X99772214Y-70294371D01*
X99867452Y-70341990D01*
X100248404Y-70341990D01*
X98676976Y-70722942D02*
X98724595Y-70770561D01*
X98867452Y-70818180D01*
X98962690Y-70818180D01*
X99105547Y-70770561D01*
X99200785Y-70675323D01*
X99248404Y-70580085D01*
X99296023Y-70389609D01*
X99296023Y-70246752D01*
X99248404Y-70056276D01*
X99200785Y-69961038D01*
X99105547Y-69865800D01*
X98962690Y-69818180D01*
X98867452Y-69818180D01*
X98724595Y-69865800D01*
X98676976Y-69913419D01*
X97915071Y-70294371D02*
X97772214Y-70341990D01*
X97724595Y-70389609D01*
X97676976Y-70484847D01*
X97676976Y-70627704D01*
X97724595Y-70722942D01*
X97772214Y-70770561D01*
X97867452Y-70818180D01*
X98248404Y-70818180D01*
X98248404Y-69818180D01*
X97915071Y-69818180D01*
X97819833Y-69865800D01*
X97772214Y-69913419D01*
X97724595Y-70008657D01*
X97724595Y-70103895D01*
X97772214Y-70199133D01*
X97819833Y-70246752D01*
X97915071Y-70294371D01*
X98248404Y-70294371D01*
X96629357Y-70151514D02*
X96248404Y-70151514D01*
X96486500Y-70818180D02*
X96486500Y-69961038D01*
X96438880Y-69865800D01*
X96343642Y-69818180D01*
X96248404Y-69818180D01*
X95915071Y-70818180D02*
X95915071Y-70151514D01*
X95915071Y-69818180D02*
X95962690Y-69865800D01*
X95915071Y-69913419D01*
X95867452Y-69865800D01*
X95915071Y-69818180D01*
X95915071Y-69913419D01*
X95296023Y-70818180D02*
X95391261Y-70770561D01*
X95438880Y-70675323D01*
X95438880Y-69818180D01*
X94534119Y-70770561D02*
X94629357Y-70818180D01*
X94819833Y-70818180D01*
X94915071Y-70770561D01*
X94962690Y-70675323D01*
X94962690Y-70294371D01*
X94915071Y-70199133D01*
X94819833Y-70151514D01*
X94629357Y-70151514D01*
X94534119Y-70199133D01*
X94486500Y-70294371D01*
X94486500Y-70389609D01*
X94962690Y-70484847D01*
X94105547Y-70770561D02*
X94010309Y-70818180D01*
X93819833Y-70818180D01*
X93724595Y-70770561D01*
X93676976Y-70675323D01*
X93676976Y-70627704D01*
X93724595Y-70532466D01*
X93819833Y-70484847D01*
X93962690Y-70484847D01*
X94057928Y-70437228D01*
X94105547Y-70341990D01*
X94105547Y-70294371D01*
X94057928Y-70199133D01*
X93962690Y-70151514D01*
X93819833Y-70151514D01*
X93724595Y-70199133D01*
X93248404Y-70722942D02*
X93200785Y-70770561D01*
X93248404Y-70818180D01*
X93296023Y-70770561D01*
X93248404Y-70722942D01*
X93248404Y-70818180D01*
X93248404Y-70199133D02*
X93200785Y-70246752D01*
X93248404Y-70294371D01*
X93296023Y-70246752D01*
X93248404Y-70199133D01*
X93248404Y-70294371D01*
X100248404Y-72428180D02*
X100248404Y-71428180D01*
X99819833Y-72428180D02*
X99819833Y-71904371D01*
X99867452Y-71809133D01*
X99962690Y-71761514D01*
X100105547Y-71761514D01*
X100200785Y-71809133D01*
X100248404Y-71856752D01*
X99486500Y-71761514D02*
X99105547Y-71761514D01*
X99343642Y-71428180D02*
X99343642Y-72285323D01*
X99296023Y-72380561D01*
X99200785Y-72428180D01*
X99105547Y-72428180D01*
X98915071Y-71761514D02*
X98534119Y-71761514D01*
X98772214Y-71428180D02*
X98772214Y-72285323D01*
X98724595Y-72380561D01*
X98629357Y-72428180D01*
X98534119Y-72428180D01*
X98200785Y-71761514D02*
X98200785Y-72761514D01*
X98200785Y-71809133D02*
X98105547Y-71761514D01*
X97915071Y-71761514D01*
X97819833Y-71809133D01*
X97772214Y-71856752D01*
X97724595Y-71951990D01*
X97724595Y-72237704D01*
X97772214Y-72332942D01*
X97819833Y-72380561D01*
X97915071Y-72428180D01*
X98105547Y-72428180D01*
X98200785Y-72380561D01*
X97343642Y-72380561D02*
X97248404Y-72428180D01*
X97057928Y-72428180D01*
X96962690Y-72380561D01*
X96915071Y-72285323D01*
X96915071Y-72237704D01*
X96962690Y-72142466D01*
X97057928Y-72094847D01*
X97200785Y-72094847D01*
X97296023Y-72047228D01*
X97343642Y-71951990D01*
X97343642Y-71904371D01*
X97296023Y-71809133D01*
X97200785Y-71761514D01*
X97057928Y-71761514D01*
X96962690Y-71809133D01*
X96486500Y-72332942D02*
X96438880Y-72380561D01*
X96486500Y-72428180D01*
X96534119Y-72380561D01*
X96486500Y-72332942D01*
X96486500Y-72428180D01*
X96486500Y-71809133D02*
X96438880Y-71856752D01*
X96486500Y-71904371D01*
X96534119Y-71856752D01*
X96486500Y-71809133D01*
X96486500Y-71904371D01*
X95296023Y-71380561D02*
X96153166Y-72666276D01*
X94248404Y-71380561D02*
X95105547Y-72666276D01*
X93915071Y-72428180D02*
X93915071Y-71428180D01*
X93915071Y-71809133D02*
X93819833Y-71761514D01*
X93629357Y-71761514D01*
X93534119Y-71809133D01*
X93486500Y-71856752D01*
X93438880Y-71951990D01*
X93438880Y-72237704D01*
X93486500Y-72332942D01*
X93534119Y-72380561D01*
X93629357Y-72428180D01*
X93819833Y-72428180D01*
X93915071Y-72380561D01*
X93010309Y-72428180D02*
X93010309Y-71761514D01*
X93010309Y-71428180D02*
X93057928Y-71475800D01*
X93010309Y-71523419D01*
X92962690Y-71475800D01*
X93010309Y-71428180D01*
X93010309Y-71523419D01*
X92676976Y-71761514D02*
X92296023Y-71761514D01*
X92534119Y-71428180D02*
X92534119Y-72285323D01*
X92486500Y-72380561D01*
X92391261Y-72428180D01*
X92296023Y-72428180D01*
X91962690Y-72332942D02*
X91915071Y-72380561D01*
X91962690Y-72428180D01*
X92010309Y-72380561D01*
X91962690Y-72332942D01*
X91962690Y-72428180D01*
X91343642Y-72428180D02*
X91438880Y-72380561D01*
X91486500Y-72285323D01*
X91486500Y-71428180D01*
X91057928Y-71761514D02*
X90819833Y-72428180D01*
X90581738Y-71761514D02*
X90819833Y-72428180D01*
X90915071Y-72666276D01*
X90962690Y-72713895D01*
X91057928Y-72761514D01*
X89486500Y-71380561D02*
X90343642Y-72666276D01*
X89248404Y-71428180D02*
X88629357Y-71428180D01*
X88962690Y-71809133D01*
X88819833Y-71809133D01*
X88724595Y-71856752D01*
X88676976Y-71904371D01*
X88629357Y-71999609D01*
X88629357Y-72237704D01*
X88676976Y-72332942D01*
X88724595Y-72380561D01*
X88819833Y-72428180D01*
X89105547Y-72428180D01*
X89200785Y-72380561D01*
X89248404Y-72332942D01*
X88200785Y-71904371D02*
X87867452Y-71904371D01*
X87724595Y-72428180D02*
X88200785Y-72428180D01*
X88200785Y-71428180D01*
X87724595Y-71428180D01*
X86867452Y-72428180D02*
X86867452Y-71904371D01*
X86915071Y-71809133D01*
X87010309Y-71761514D01*
X87200785Y-71761514D01*
X87296023Y-71809133D01*
X86867452Y-72380561D02*
X86962690Y-72428180D01*
X87200785Y-72428180D01*
X87296023Y-72380561D01*
X87343642Y-72285323D01*
X87343642Y-72190085D01*
X87296023Y-72094847D01*
X87200785Y-72047228D01*
X86962690Y-72047228D01*
X86867452Y-71999609D01*
X86391261Y-71761514D02*
X86391261Y-72618657D01*
X86438880Y-72713895D01*
X86534119Y-72761514D01*
X86581738Y-72761514D01*
X86391261Y-71428180D02*
X86438880Y-71475800D01*
X86391261Y-71523419D01*
X86343642Y-71475800D01*
X86391261Y-71428180D01*
X86391261Y-71523419D01*
X86010309Y-71428180D02*
X85343642Y-71428180D01*
X86010309Y-72428180D01*
X85343642Y-72428180D01*
X84438880Y-71475800D02*
X84534119Y-71428180D01*
X84676976Y-71428180D01*
X84819833Y-71475800D01*
X84915071Y-71571038D01*
X84962690Y-71666276D01*
X85010309Y-71856752D01*
X85010309Y-71999609D01*
X84962690Y-72190085D01*
X84915071Y-72285323D01*
X84819833Y-72380561D01*
X84676976Y-72428180D01*
X84581738Y-72428180D01*
X84438880Y-72380561D01*
X84391261Y-72332942D01*
X84391261Y-71999609D01*
X84581738Y-71999609D01*
X84105547Y-71428180D02*
X83772214Y-72428180D01*
X83438880Y-71428180D01*
X141377414Y-78801980D02*
X141853604Y-78801980D01*
X141901223Y-79278171D01*
X141853604Y-79230552D01*
X141758366Y-79182933D01*
X141520271Y-79182933D01*
X141425033Y-79230552D01*
X141377414Y-79278171D01*
X141329795Y-79373409D01*
X141329795Y-79611504D01*
X141377414Y-79706742D01*
X141425033Y-79754361D01*
X141520271Y-79801980D01*
X141758366Y-79801980D01*
X141853604Y-79754361D01*
X141901223Y-79706742D01*
X141044080Y-78801980D02*
X140710747Y-79801980D01*
X140377414Y-78801980D01*
X129956861Y-77270180D02*
X129623528Y-78270180D01*
X129290195Y-77270180D01*
X128623528Y-77746371D02*
X128480671Y-77793990D01*
X128433052Y-77841609D01*
X128385433Y-77936847D01*
X128385433Y-78079704D01*
X128433052Y-78174942D01*
X128480671Y-78222561D01*
X128575909Y-78270180D01*
X128956861Y-78270180D01*
X128956861Y-77270180D01*
X128623528Y-77270180D01*
X128528290Y-77317800D01*
X128480671Y-77365419D01*
X128433052Y-77460657D01*
X128433052Y-77555895D01*
X128480671Y-77651133D01*
X128528290Y-77698752D01*
X128623528Y-77746371D01*
X128956861Y-77746371D01*
X127956861Y-77270180D02*
X127956861Y-78079704D01*
X127909242Y-78174942D01*
X127861623Y-78222561D01*
X127766385Y-78270180D01*
X127575909Y-78270180D01*
X127480671Y-78222561D01*
X127433052Y-78174942D01*
X127385433Y-78079704D01*
X127385433Y-77270180D01*
X126956861Y-78222561D02*
X126814004Y-78270180D01*
X126575909Y-78270180D01*
X126480671Y-78222561D01*
X126433052Y-78174942D01*
X126385433Y-78079704D01*
X126385433Y-77984466D01*
X126433052Y-77889228D01*
X126480671Y-77841609D01*
X126575909Y-77793990D01*
X126766385Y-77746371D01*
X126861623Y-77698752D01*
X126909242Y-77651133D01*
X126956861Y-77555895D01*
X126956861Y-77460657D01*
X126909242Y-77365419D01*
X126861623Y-77317800D01*
X126766385Y-77270180D01*
X126528290Y-77270180D01*
X126385433Y-77317800D01*
X133354195Y-70069000D02*
X133449433Y-70021380D01*
X133592290Y-70021380D01*
X133735147Y-70069000D01*
X133830385Y-70164238D01*
X133878004Y-70259476D01*
X133925623Y-70449952D01*
X133925623Y-70592809D01*
X133878004Y-70783285D01*
X133830385Y-70878523D01*
X133735147Y-70973761D01*
X133592290Y-71021380D01*
X133497052Y-71021380D01*
X133354195Y-70973761D01*
X133306576Y-70926142D01*
X133306576Y-70592809D01*
X133497052Y-70592809D01*
X132735147Y-71021380D02*
X132830385Y-70973761D01*
X132878004Y-70878523D01*
X132878004Y-70021380D01*
X132211338Y-71021380D02*
X132306576Y-70973761D01*
X132354195Y-70926142D01*
X132401814Y-70830904D01*
X132401814Y-70545190D01*
X132354195Y-70449952D01*
X132306576Y-70402333D01*
X132211338Y-70354714D01*
X132068480Y-70354714D01*
X131973242Y-70402333D01*
X131925623Y-70449952D01*
X131878004Y-70545190D01*
X131878004Y-70830904D01*
X131925623Y-70926142D01*
X131973242Y-70973761D01*
X132068480Y-71021380D01*
X132211338Y-71021380D01*
X131544671Y-70354714D02*
X131354195Y-71021380D01*
X131163719Y-70545190D01*
X130973242Y-71021380D01*
X130782766Y-70354714D01*
X130449433Y-70973761D02*
X130306576Y-71021380D01*
X130068480Y-71021380D01*
X129973242Y-70973761D01*
X129925623Y-70926142D01*
X129878004Y-70830904D01*
X129878004Y-70735666D01*
X129925623Y-70640428D01*
X129973242Y-70592809D01*
X130068480Y-70545190D01*
X130258957Y-70497571D01*
X130354195Y-70449952D01*
X130401814Y-70402333D01*
X130449433Y-70307095D01*
X130449433Y-70211857D01*
X130401814Y-70116619D01*
X130354195Y-70069000D01*
X130258957Y-70021380D01*
X130020861Y-70021380D01*
X129878004Y-70069000D01*
X129449433Y-71021380D02*
X129449433Y-70354714D01*
X129449433Y-70021380D02*
X129497052Y-70069000D01*
X129449433Y-70116619D01*
X129401814Y-70069000D01*
X129449433Y-70021380D01*
X129449433Y-70116619D01*
X128544671Y-70354714D02*
X128544671Y-71164238D01*
X128592290Y-71259476D01*
X128639909Y-71307095D01*
X128735147Y-71354714D01*
X128878004Y-71354714D01*
X128973242Y-71307095D01*
X128544671Y-70973761D02*
X128639909Y-71021380D01*
X128830385Y-71021380D01*
X128925623Y-70973761D01*
X128973242Y-70926142D01*
X129020861Y-70830904D01*
X129020861Y-70545190D01*
X128973242Y-70449952D01*
X128925623Y-70402333D01*
X128830385Y-70354714D01*
X128639909Y-70354714D01*
X128544671Y-70402333D01*
X128068480Y-70354714D02*
X128068480Y-71021380D01*
X128068480Y-70449952D02*
X128020861Y-70402333D01*
X127925623Y-70354714D01*
X127782766Y-70354714D01*
X127687528Y-70402333D01*
X127639909Y-70497571D01*
X127639909Y-71021380D01*
X126068480Y-70497571D02*
X125925623Y-70545190D01*
X125878004Y-70592809D01*
X125830385Y-70688047D01*
X125830385Y-70830904D01*
X125878004Y-70926142D01*
X125925623Y-70973761D01*
X126020861Y-71021380D01*
X126401814Y-71021380D01*
X126401814Y-70021380D01*
X126068480Y-70021380D01*
X125973242Y-70069000D01*
X125925623Y-70116619D01*
X125878004Y-70211857D01*
X125878004Y-70307095D01*
X125925623Y-70402333D01*
X125973242Y-70449952D01*
X126068480Y-70497571D01*
X126401814Y-70497571D01*
X124973242Y-71021380D02*
X124973242Y-70497571D01*
X125020861Y-70402333D01*
X125116100Y-70354714D01*
X125306576Y-70354714D01*
X125401814Y-70402333D01*
X124973242Y-70973761D02*
X125068480Y-71021380D01*
X125306576Y-71021380D01*
X125401814Y-70973761D01*
X125449433Y-70878523D01*
X125449433Y-70783285D01*
X125401814Y-70688047D01*
X125306576Y-70640428D01*
X125068480Y-70640428D01*
X124973242Y-70592809D01*
X124639909Y-70354714D02*
X124258957Y-70354714D01*
X124497052Y-70021380D02*
X124497052Y-70878523D01*
X124449433Y-70973761D01*
X124354195Y-71021380D01*
X124258957Y-71021380D01*
X124068480Y-70354714D02*
X123687528Y-70354714D01*
X123925623Y-70021380D02*
X123925623Y-70878523D01*
X123878004Y-70973761D01*
X123782766Y-71021380D01*
X123687528Y-71021380D01*
X122973242Y-70973761D02*
X123068480Y-71021380D01*
X123258957Y-71021380D01*
X123354195Y-70973761D01*
X123401814Y-70878523D01*
X123401814Y-70497571D01*
X123354195Y-70402333D01*
X123258957Y-70354714D01*
X123068480Y-70354714D01*
X122973242Y-70402333D01*
X122925623Y-70497571D01*
X122925623Y-70592809D01*
X123401814Y-70688047D01*
X122497052Y-71021380D02*
X122497052Y-70354714D01*
X122497052Y-70545190D02*
X122449433Y-70449952D01*
X122401814Y-70402333D01*
X122306576Y-70354714D01*
X122211338Y-70354714D01*
X121973242Y-70354714D02*
X121735147Y-71021380D01*
X121497052Y-70354714D02*
X121735147Y-71021380D01*
X121830385Y-71259476D01*
X121878004Y-71307095D01*
X121973242Y-71354714D01*
X120354195Y-70497571D02*
X120020861Y-70497571D01*
X119878004Y-71021380D02*
X120354195Y-71021380D01*
X120354195Y-70021380D01*
X119878004Y-70021380D01*
X119544671Y-71021380D02*
X119020861Y-70354714D01*
X119544671Y-70354714D02*
X119020861Y-71021380D01*
X118782766Y-70354714D02*
X118401814Y-70354714D01*
X118639909Y-70021380D02*
X118639909Y-70878523D01*
X118592290Y-70973761D01*
X118497052Y-71021380D01*
X118401814Y-71021380D01*
X117687528Y-70973761D02*
X117782766Y-71021380D01*
X117973242Y-71021380D01*
X118068480Y-70973761D01*
X118116100Y-70878523D01*
X118116100Y-70497571D01*
X118068480Y-70402333D01*
X117973242Y-70354714D01*
X117782766Y-70354714D01*
X117687528Y-70402333D01*
X117639909Y-70497571D01*
X117639909Y-70592809D01*
X118116100Y-70688047D01*
X117211338Y-70354714D02*
X117211338Y-71021380D01*
X117211338Y-70449952D02*
X117163719Y-70402333D01*
X117068480Y-70354714D01*
X116925623Y-70354714D01*
X116830385Y-70402333D01*
X116782766Y-70497571D01*
X116782766Y-71021380D01*
X116354195Y-70973761D02*
X116258957Y-71021380D01*
X116068480Y-71021380D01*
X115973242Y-70973761D01*
X115925623Y-70878523D01*
X115925623Y-70830904D01*
X115973242Y-70735666D01*
X116068480Y-70688047D01*
X116211338Y-70688047D01*
X116306576Y-70640428D01*
X116354195Y-70545190D01*
X116354195Y-70497571D01*
X116306576Y-70402333D01*
X116211338Y-70354714D01*
X116068480Y-70354714D01*
X115973242Y-70402333D01*
X115497052Y-71021380D02*
X115497052Y-70354714D01*
X115497052Y-70021380D02*
X115544671Y-70069000D01*
X115497052Y-70116619D01*
X115449433Y-70069000D01*
X115497052Y-70021380D01*
X115497052Y-70116619D01*
X114878004Y-71021380D02*
X114973242Y-70973761D01*
X115020861Y-70926142D01*
X115068480Y-70830904D01*
X115068480Y-70545190D01*
X115020861Y-70449952D01*
X114973242Y-70402333D01*
X114878004Y-70354714D01*
X114735147Y-70354714D01*
X114639909Y-70402333D01*
X114592290Y-70449952D01*
X114544671Y-70545190D01*
X114544671Y-70830904D01*
X114592290Y-70926142D01*
X114639909Y-70973761D01*
X114735147Y-71021380D01*
X114878004Y-71021380D01*
X114116100Y-70354714D02*
X114116100Y-71021380D01*
X114116100Y-70449952D02*
X114068480Y-70402333D01*
X113973242Y-70354714D01*
X113830385Y-70354714D01*
X113735147Y-70402333D01*
X113687528Y-70497571D01*
X113687528Y-71021380D01*
X133973242Y-71964714D02*
X133735147Y-72631380D01*
X133497052Y-71964714D01*
X132592290Y-72631380D02*
X133163719Y-72631380D01*
X132878004Y-72631380D02*
X132878004Y-71631380D01*
X132973242Y-71774238D01*
X133068480Y-71869476D01*
X133163719Y-71917095D01*
X132163719Y-72536142D02*
X132116100Y-72583761D01*
X132163719Y-72631380D01*
X132211338Y-72583761D01*
X132163719Y-72536142D01*
X132163719Y-72631380D01*
X131163719Y-72631380D02*
X131735147Y-72631380D01*
X131449433Y-72631380D02*
X131449433Y-71631380D01*
X131544671Y-71774238D01*
X131639909Y-71869476D01*
X131735147Y-71917095D01*
X73394628Y-72918628D02*
X72632723Y-72918628D01*
X71823200Y-72775771D02*
X71680342Y-72823390D01*
X71632723Y-72871009D01*
X71585104Y-72966247D01*
X71585104Y-73109104D01*
X71632723Y-73204342D01*
X71680342Y-73251961D01*
X71775580Y-73299580D01*
X72156533Y-73299580D01*
X72156533Y-72299580D01*
X71823200Y-72299580D01*
X71727961Y-72347200D01*
X71680342Y-72394819D01*
X71632723Y-72490057D01*
X71632723Y-72585295D01*
X71680342Y-72680533D01*
X71727961Y-72728152D01*
X71823200Y-72775771D01*
X72156533Y-72775771D01*
X71204152Y-73013866D02*
X70727961Y-73013866D01*
X71299390Y-73299580D02*
X70966057Y-72299580D01*
X70632723Y-73299580D01*
X70442247Y-72299580D02*
X69870819Y-72299580D01*
X70156533Y-73299580D02*
X70156533Y-72299580D01*
X69680342Y-72299580D02*
X69108914Y-72299580D01*
X69394628Y-73299580D02*
X69394628Y-72299580D01*
X73445428Y-70023028D02*
X72683523Y-70023028D01*
X73064476Y-70403980D02*
X73064476Y-69642076D01*
X71874000Y-69880171D02*
X71731142Y-69927790D01*
X71683523Y-69975409D01*
X71635904Y-70070647D01*
X71635904Y-70213504D01*
X71683523Y-70308742D01*
X71731142Y-70356361D01*
X71826380Y-70403980D01*
X72207333Y-70403980D01*
X72207333Y-69403980D01*
X71874000Y-69403980D01*
X71778761Y-69451600D01*
X71731142Y-69499219D01*
X71683523Y-69594457D01*
X71683523Y-69689695D01*
X71731142Y-69784933D01*
X71778761Y-69832552D01*
X71874000Y-69880171D01*
X72207333Y-69880171D01*
X71254952Y-70118266D02*
X70778761Y-70118266D01*
X71350190Y-70403980D02*
X71016857Y-69403980D01*
X70683523Y-70403980D01*
X70493047Y-69403980D02*
X69921619Y-69403980D01*
X70207333Y-70403980D02*
X70207333Y-69403980D01*
X69731142Y-69403980D02*
X69159714Y-69403980D01*
X69445428Y-70403980D02*
X69445428Y-69403980D01*
X141380595Y-69096000D02*
X141475833Y-69048380D01*
X141618690Y-69048380D01*
X141761547Y-69096000D01*
X141856785Y-69191238D01*
X141904404Y-69286476D01*
X141952023Y-69476952D01*
X141952023Y-69619809D01*
X141904404Y-69810285D01*
X141856785Y-69905523D01*
X141761547Y-70000761D01*
X141618690Y-70048380D01*
X141523452Y-70048380D01*
X141380595Y-70000761D01*
X141332976Y-69953142D01*
X141332976Y-69619809D01*
X141523452Y-69619809D01*
X140904404Y-70048380D02*
X140904404Y-69048380D01*
X140332976Y-70048380D01*
X140332976Y-69048380D01*
X139856785Y-70048380D02*
X139856785Y-69048380D01*
X139618690Y-69048380D01*
X139475833Y-69096000D01*
X139380595Y-69191238D01*
X139332976Y-69286476D01*
X139285357Y-69476952D01*
X139285357Y-69619809D01*
X139332976Y-69810285D01*
X139380595Y-69905523D01*
X139475833Y-70000761D01*
X139618690Y-70048380D01*
X139856785Y-70048380D01*
X138777071Y-76136371D02*
X138634214Y-76183990D01*
X138586595Y-76231609D01*
X138538976Y-76326847D01*
X138538976Y-76469704D01*
X138586595Y-76564942D01*
X138634214Y-76612561D01*
X138729452Y-76660180D01*
X139110404Y-76660180D01*
X139110404Y-75660180D01*
X138777071Y-75660180D01*
X138681833Y-75707800D01*
X138634214Y-75755419D01*
X138586595Y-75850657D01*
X138586595Y-75945895D01*
X138634214Y-76041133D01*
X138681833Y-76088752D01*
X138777071Y-76136371D01*
X139110404Y-76136371D01*
X138158023Y-76374466D02*
X137681833Y-76374466D01*
X138253261Y-76660180D02*
X137919928Y-75660180D01*
X137586595Y-76660180D01*
X137396119Y-75660180D02*
X136824690Y-75660180D01*
X137110404Y-76660180D02*
X137110404Y-75660180D01*
X136634214Y-75660180D02*
X136062785Y-75660180D01*
X136348500Y-76660180D02*
X136348500Y-75660180D01*
X138538976Y-78174942D02*
X138586595Y-78222561D01*
X138729452Y-78270180D01*
X138824690Y-78270180D01*
X138967547Y-78222561D01*
X139062785Y-78127323D01*
X139110404Y-78032085D01*
X139158023Y-77841609D01*
X139158023Y-77698752D01*
X139110404Y-77508276D01*
X139062785Y-77413038D01*
X138967547Y-77317800D01*
X138824690Y-77270180D01*
X138729452Y-77270180D01*
X138586595Y-77317800D01*
X138538976Y-77365419D01*
X138110404Y-78270180D02*
X138110404Y-77270180D01*
X138110404Y-77746371D02*
X137538976Y-77746371D01*
X137538976Y-78270180D02*
X137538976Y-77270180D01*
X136491357Y-78270180D02*
X136824690Y-77793990D01*
X137062785Y-78270180D02*
X137062785Y-77270180D01*
X136681833Y-77270180D01*
X136586595Y-77317800D01*
X136538976Y-77365419D01*
X136491357Y-77460657D01*
X136491357Y-77603514D01*
X136538976Y-77698752D01*
X136586595Y-77746371D01*
X136681833Y-77793990D01*
X137062785Y-77793990D01*
X135538976Y-77317800D02*
X135634214Y-77270180D01*
X135777071Y-77270180D01*
X135919928Y-77317800D01*
X136015166Y-77413038D01*
X136062785Y-77508276D01*
X136110404Y-77698752D01*
X136110404Y-77841609D01*
X136062785Y-78032085D01*
X136015166Y-78127323D01*
X135919928Y-78222561D01*
X135777071Y-78270180D01*
X135681833Y-78270180D01*
X135538976Y-78222561D01*
X135491357Y-78174942D01*
X135491357Y-77841609D01*
X135681833Y-77841609D01*
X119473071Y-76136371D02*
X119330214Y-76183990D01*
X119282595Y-76231609D01*
X119234976Y-76326847D01*
X119234976Y-76469704D01*
X119282595Y-76564942D01*
X119330214Y-76612561D01*
X119425452Y-76660180D01*
X119806404Y-76660180D01*
X119806404Y-75660180D01*
X119473071Y-75660180D01*
X119377833Y-75707800D01*
X119330214Y-75755419D01*
X119282595Y-75850657D01*
X119282595Y-75945895D01*
X119330214Y-76041133D01*
X119377833Y-76088752D01*
X119473071Y-76136371D01*
X119806404Y-76136371D01*
X118854023Y-76374466D02*
X118377833Y-76374466D01*
X118949261Y-76660180D02*
X118615928Y-75660180D01*
X118282595Y-76660180D01*
X118092119Y-75660180D02*
X117520690Y-75660180D01*
X117806404Y-76660180D02*
X117806404Y-75660180D01*
X117330214Y-75660180D02*
X116758785Y-75660180D01*
X117044500Y-76660180D02*
X117044500Y-75660180D01*
X119949261Y-77270180D02*
X119615928Y-78270180D01*
X119282595Y-77270180D01*
X118758785Y-77270180D02*
X118568309Y-77270180D01*
X118473071Y-77317800D01*
X118377833Y-77413038D01*
X118330214Y-77603514D01*
X118330214Y-77936847D01*
X118377833Y-78127323D01*
X118473071Y-78222561D01*
X118568309Y-78270180D01*
X118758785Y-78270180D01*
X118854023Y-78222561D01*
X118949261Y-78127323D01*
X118996880Y-77936847D01*
X118996880Y-77603514D01*
X118949261Y-77413038D01*
X118854023Y-77317800D01*
X118758785Y-77270180D01*
X117425452Y-78270180D02*
X117901642Y-78270180D01*
X117901642Y-77270180D01*
X117234976Y-77270180D02*
X116663547Y-77270180D01*
X116949261Y-78270180D02*
X116949261Y-77270180D01*
%LPC*%
D11*
%TO.C,P4*%
X138252200Y-80721200D03*
%TD*%
%TO.C,P14*%
X128244600Y-80721200D03*
%TD*%
D12*
%TO.C,P5*%
X142240000Y-77343000D03*
%TD*%
%TO.C,P6*%
X142240000Y-71729600D03*
%TD*%
%TO.C,P9*%
X66751200Y-72694800D03*
%TD*%
%TO.C,P8*%
X66751200Y-69926200D03*
%TD*%
D11*
%TO.C,P10*%
X118338600Y-80721200D03*
%TD*%
M02*
