%TF.GenerationSoftware,KiCad,Pcbnew,(6.0.6-0)*%
%TF.CreationDate,2022-09-08T19:57:57-07:00*%
%TF.ProjectId,Battery Extension PCB,42617474-6572-4792-9045-7874656e7369,rev?*%
%TF.SameCoordinates,Original*%
%TF.FileFunction,Copper,L2,Bot*%
%TF.FilePolarity,Positive*%
%FSLAX46Y46*%
G04 Gerber Fmt 4.6, Leading zero omitted, Abs format (unit mm)*
G04 Created by KiCad (PCBNEW (6.0.6-0)) date 2022-09-08 19:57:57*
%MOMM*%
%LPD*%
G01*
G04 APERTURE LIST*
%TA.AperFunction,ComponentPad*%
%ADD10C,2.500000*%
%TD*%
%TA.AperFunction,ViaPad*%
%ADD11C,1.300000*%
%TD*%
%TA.AperFunction,ViaPad*%
%ADD12C,0.800000*%
%TD*%
%TA.AperFunction,Conductor*%
%ADD13C,0.250000*%
%TD*%
%TA.AperFunction,Conductor*%
%ADD14C,1.000000*%
%TD*%
%TA.AperFunction,Conductor*%
%ADD15C,0.600000*%
%TD*%
%TA.AperFunction,Conductor*%
%ADD16C,0.200000*%
%TD*%
%TA.AperFunction,Conductor*%
%ADD17C,0.550000*%
%TD*%
G04 APERTURE END LIST*
D10*
%TO.P,H7,1*%
%TO.N,VBUS*%
X128270000Y-80848200D03*
%TD*%
%TO.P,H6,1*%
%TO.N,GND*%
X142824200Y-71729600D03*
%TD*%
%TO.P,H5,1*%
%TO.N,+5V*%
X142824200Y-77470000D03*
%TD*%
%TO.P,H4,1*%
%TO.N,IO27{slash}BATT CHARGING*%
X138201400Y-80848200D03*
%TD*%
%TO.P,H3,1*%
%TO.N,IO26{slash}BATT VOLT*%
X118338600Y-80848200D03*
%TD*%
%TO.P,H2,1*%
%TO.N,-BATT*%
X66268600Y-72694800D03*
%TD*%
%TO.P,H1,1*%
%TO.N,+BATT*%
X66268600Y-69951600D03*
%TD*%
D11*
%TO.N,*%
X75234800Y-65176400D03*
X140512800Y-79552800D03*
D12*
%TO.N,GND*%
X118110000Y-74371200D03*
X130810000Y-79044800D03*
X136799194Y-71328406D03*
X117246400Y-73355200D03*
X114503200Y-69443600D03*
X121818400Y-69443600D03*
X121513600Y-74066400D03*
X108813600Y-69189600D03*
X106832400Y-69189600D03*
X134513194Y-71328406D03*
X135940800Y-79146400D03*
X131318000Y-69545200D03*
X120396000Y-73050400D03*
X117906800Y-69494400D03*
X116484400Y-69443600D03*
X124155200Y-73050400D03*
X138627989Y-73868411D03*
X107696000Y-69189600D03*
%TO.N,VBUS*%
X128727200Y-74117200D03*
X134721600Y-69545200D03*
X94488000Y-71932800D03*
%TO.N,+BATT*%
X81788000Y-70662800D03*
X126796800Y-69443600D03*
%TO.N,-BATT*%
X74574400Y-71170800D03*
X123037600Y-74472800D03*
X124206000Y-70459600D03*
X129997200Y-75946000D03*
X134772400Y-75946000D03*
X121869200Y-71780400D03*
%TO.N,+5V*%
X121564400Y-76250800D03*
%TO.N,IO26{slash}BATT VOLT*%
X78689200Y-73406000D03*
%TO.N,Net-(R8-Pad1)*%
X136906000Y-76454000D03*
X125628400Y-74676000D03*
%TO.N,IO27{slash}BATT CHARGING*%
X139039600Y-76149200D03*
X136601200Y-74930000D03*
%TO.N,Net-(R4-Pad2)*%
X91033600Y-73546700D03*
X111793279Y-73585132D03*
%TD*%
D13*
%TO.N,Net-(R4-Pad2)*%
X111793279Y-73585132D02*
X111754847Y-73546700D01*
X111754847Y-73546700D02*
X91033600Y-73546700D01*
D14*
%TO.N,GND*%
X116484400Y-69443600D02*
X117856000Y-69443600D01*
X109067600Y-69443600D02*
X114503200Y-69443600D01*
D15*
X131470400Y-79705200D02*
X135382000Y-79705200D01*
D14*
X108813600Y-69189600D02*
X107696000Y-69189600D01*
X114503200Y-69443600D02*
X116484400Y-69443600D01*
D15*
X135382000Y-79705200D02*
X135940800Y-79146400D01*
X117246400Y-73355200D02*
X120091200Y-73355200D01*
D14*
X107696000Y-69189600D02*
X106832400Y-69189600D01*
D15*
X131318000Y-69545200D02*
X127812800Y-73050400D01*
D14*
X117856000Y-69443600D02*
X117906800Y-69494400D01*
D15*
X120091200Y-73355200D02*
X120396000Y-73050400D01*
X124155200Y-73050400D02*
X120396000Y-73050400D01*
D14*
X108813600Y-69189600D02*
X109067600Y-69443600D01*
D15*
X130810000Y-79044800D02*
X131470400Y-79705200D01*
X127812800Y-73050400D02*
X124155200Y-73050400D01*
D16*
%TO.N,VBUS*%
X114808000Y-72288400D02*
X122224800Y-79705200D01*
X103936800Y-71729600D02*
X104495600Y-72288400D01*
X94488000Y-71932800D02*
X94691200Y-71729600D01*
X94691200Y-71729600D02*
X103936800Y-71729600D01*
X127301233Y-79705200D02*
X128270000Y-80673967D01*
D15*
X134721600Y-69545200D02*
X133299200Y-69545200D01*
X133299200Y-69545200D02*
X128727200Y-74117200D01*
D16*
X104495600Y-72288400D02*
X114808000Y-72288400D01*
X122224800Y-79705200D02*
X127301233Y-79705200D01*
D15*
%TO.N,+BATT*%
X83210400Y-69240400D02*
X104601293Y-69240400D01*
X81788000Y-70662800D02*
X83210400Y-69240400D01*
X122798202Y-70494401D02*
X123849003Y-69443600D01*
X105855294Y-70494401D02*
X122798202Y-70494401D01*
X104601293Y-69240400D02*
X105855294Y-70494401D01*
X123849003Y-69443600D02*
X126796800Y-69443600D01*
%TO.N,-BATT*%
X82753200Y-71678800D02*
X75082400Y-71678800D01*
X121869200Y-71780400D02*
X121513600Y-71424800D01*
X103936800Y-70408800D02*
X84023200Y-70408800D01*
X75082400Y-71678800D02*
X74574400Y-71170800D01*
X122885200Y-71780400D02*
X121869200Y-71780400D01*
X104952800Y-71424800D02*
X103936800Y-70408800D01*
D17*
X124714000Y-76200000D02*
X123037600Y-74523600D01*
X123037600Y-74523600D02*
X123037600Y-74472800D01*
D15*
X121513600Y-71424800D02*
X104952800Y-71424800D01*
X124206000Y-70459600D02*
X122885200Y-71780400D01*
D17*
X134772400Y-75946000D02*
X129997200Y-75946000D01*
X129997200Y-75946000D02*
X129743200Y-76200000D01*
X129743200Y-76200000D02*
X124714000Y-76200000D01*
D15*
X84023200Y-70408800D02*
X82753200Y-71678800D01*
D14*
%TO.N,+5V*%
X121818400Y-76250800D02*
X121564400Y-76250800D01*
D15*
X141870230Y-77774800D02*
X142499615Y-77145415D01*
D14*
X123342400Y-77774800D02*
X121818400Y-76250800D01*
X123342400Y-77774800D02*
X141870230Y-77774800D01*
D16*
%TO.N,IO26{slash}BATT VOLT*%
X78689200Y-73406000D02*
X79248000Y-72847200D01*
X118338600Y-77038200D02*
X118338600Y-80673967D01*
X79248000Y-72847200D02*
X114147600Y-72847200D01*
X114147600Y-72847200D02*
X118338600Y-77038200D01*
D13*
%TO.N,Net-(R8-Pad1)*%
X129336800Y-75133200D02*
X126085600Y-75133200D01*
X126085600Y-75133200D02*
X125628400Y-74676000D01*
X129946400Y-74523600D02*
X129336800Y-75133200D01*
X134975600Y-74523600D02*
X129946400Y-74523600D01*
X136906000Y-76454000D02*
X134975600Y-74523600D01*
%TO.N,IO27{slash}BATT CHARGING*%
X137820400Y-76149200D02*
X139039600Y-76149200D01*
X136601200Y-74930000D02*
X137820400Y-76149200D01*
%TD*%
%TA.AperFunction,Conductor*%
%TO.N,GND*%
G36*
X132579640Y-68905302D02*
G01*
X132626133Y-68958958D01*
X132636237Y-69029232D01*
X132606743Y-69093812D01*
X132600614Y-69100395D01*
X130536773Y-71164235D01*
X128475288Y-73225720D01*
X128437442Y-73251732D01*
X128276478Y-73323397D01*
X128276476Y-73323398D01*
X128270448Y-73326082D01*
X128115947Y-73438334D01*
X128111526Y-73443244D01*
X128111525Y-73443245D01*
X128064836Y-73495099D01*
X127988160Y-73580256D01*
X127892673Y-73745644D01*
X127833658Y-73927272D01*
X127832968Y-73933833D01*
X127832968Y-73933835D01*
X127826723Y-73993251D01*
X127813696Y-74117200D01*
X127814386Y-74123765D01*
X127831109Y-74282872D01*
X127833658Y-74307128D01*
X127835697Y-74313403D01*
X127835698Y-74313408D01*
X127842637Y-74334762D01*
X127844666Y-74405729D01*
X127808005Y-74466528D01*
X127744293Y-74497854D01*
X127722805Y-74499700D01*
X126617914Y-74499700D01*
X126549793Y-74479698D01*
X126503300Y-74426042D01*
X126498081Y-74412636D01*
X126481935Y-74362945D01*
X126462927Y-74304444D01*
X126450473Y-74282872D01*
X126370741Y-74144774D01*
X126367440Y-74139056D01*
X126347205Y-74116582D01*
X126244075Y-74002045D01*
X126244074Y-74002044D01*
X126239653Y-73997134D01*
X126110779Y-73903501D01*
X126090494Y-73888763D01*
X126090493Y-73888762D01*
X126085152Y-73884882D01*
X126079124Y-73882198D01*
X126079122Y-73882197D01*
X125916719Y-73809891D01*
X125916718Y-73809891D01*
X125910688Y-73807206D01*
X125817287Y-73787353D01*
X125730344Y-73768872D01*
X125730339Y-73768872D01*
X125723887Y-73767500D01*
X125532913Y-73767500D01*
X125526461Y-73768872D01*
X125526456Y-73768872D01*
X125439513Y-73787353D01*
X125346112Y-73807206D01*
X125340082Y-73809891D01*
X125340081Y-73809891D01*
X125177678Y-73882197D01*
X125177676Y-73882198D01*
X125171648Y-73884882D01*
X125166307Y-73888762D01*
X125166306Y-73888763D01*
X125146021Y-73903501D01*
X125017147Y-73997134D01*
X125012726Y-74002044D01*
X125012725Y-74002045D01*
X124909596Y-74116582D01*
X124889360Y-74139056D01*
X124886059Y-74144774D01*
X124806328Y-74282872D01*
X124793873Y-74304444D01*
X124734858Y-74486072D01*
X124734168Y-74492633D01*
X124734168Y-74492635D01*
X124727853Y-74552721D01*
X124714896Y-74676000D01*
X124715586Y-74682565D01*
X124726663Y-74787957D01*
X124713891Y-74857795D01*
X124665389Y-74909642D01*
X124596556Y-74927036D01*
X124529246Y-74904455D01*
X124512258Y-74890222D01*
X123963719Y-74341683D01*
X123931690Y-74282694D01*
X123931142Y-74282872D01*
X123872127Y-74101244D01*
X123854064Y-74069957D01*
X123779941Y-73941574D01*
X123776640Y-73935856D01*
X123766746Y-73924867D01*
X123653275Y-73798845D01*
X123653274Y-73798844D01*
X123648853Y-73793934D01*
X123494352Y-73681682D01*
X123488324Y-73678998D01*
X123488322Y-73678997D01*
X123325919Y-73606691D01*
X123325918Y-73606691D01*
X123319888Y-73604006D01*
X123208154Y-73580256D01*
X123139544Y-73565672D01*
X123139539Y-73565672D01*
X123133087Y-73564300D01*
X122942113Y-73564300D01*
X122935661Y-73565672D01*
X122935656Y-73565672D01*
X122867046Y-73580256D01*
X122755312Y-73604006D01*
X122749282Y-73606691D01*
X122749281Y-73606691D01*
X122586878Y-73678997D01*
X122586876Y-73678998D01*
X122580848Y-73681682D01*
X122426347Y-73793934D01*
X122421926Y-73798844D01*
X122421925Y-73798845D01*
X122308455Y-73924867D01*
X122298560Y-73935856D01*
X122295259Y-73941574D01*
X122221137Y-74069957D01*
X122203073Y-74101244D01*
X122144058Y-74282872D01*
X122143368Y-74289433D01*
X122143368Y-74289435D01*
X122131876Y-74398774D01*
X122124096Y-74472800D01*
X122144058Y-74662728D01*
X122203073Y-74844356D01*
X122206376Y-74850078D01*
X122206377Y-74850079D01*
X122229554Y-74890222D01*
X122298560Y-75009744D01*
X122426347Y-75151666D01*
X122426490Y-75151770D01*
X122462476Y-75210184D01*
X122461124Y-75281168D01*
X122421609Y-75340152D01*
X122356478Y-75368409D01*
X122280225Y-75353788D01*
X122223014Y-75322336D01*
X122223012Y-75322335D01*
X122217613Y-75319367D01*
X122212531Y-75317755D01*
X122207837Y-75315238D01*
X122118869Y-75288038D01*
X122117841Y-75287718D01*
X122029094Y-75259565D01*
X122023798Y-75258971D01*
X122018702Y-75257413D01*
X121926143Y-75248010D01*
X121925007Y-75247889D01*
X121891392Y-75244119D01*
X121878670Y-75242692D01*
X121878666Y-75242692D01*
X121875173Y-75242300D01*
X121871646Y-75242300D01*
X121870661Y-75242245D01*
X121864981Y-75241798D01*
X121835575Y-75238811D01*
X121828063Y-75238048D01*
X121828061Y-75238048D01*
X121821938Y-75237426D01*
X121779659Y-75241423D01*
X121776291Y-75241741D01*
X121764433Y-75242300D01*
X121514631Y-75242300D01*
X121511575Y-75242600D01*
X121511568Y-75242600D01*
X121456315Y-75248018D01*
X121367567Y-75256720D01*
X121361666Y-75258502D01*
X121361664Y-75258502D01*
X121295667Y-75278428D01*
X121178231Y-75313884D01*
X121003604Y-75406734D01*
X120930384Y-75466451D01*
X120855113Y-75527840D01*
X120855110Y-75527843D01*
X120850338Y-75531735D01*
X120846411Y-75536482D01*
X120846409Y-75536484D01*
X120728199Y-75679375D01*
X120728197Y-75679379D01*
X120724270Y-75684125D01*
X120630202Y-75858099D01*
X120571718Y-76047032D01*
X120551045Y-76243725D01*
X120556644Y-76305243D01*
X120563036Y-76375479D01*
X120568970Y-76440688D01*
X120570708Y-76446594D01*
X120570709Y-76446598D01*
X120580160Y-76478709D01*
X120624810Y-76630419D01*
X120627663Y-76635877D01*
X120627665Y-76635881D01*
X120659601Y-76696968D01*
X120716440Y-76805690D01*
X120840368Y-76959825D01*
X120991874Y-77086954D01*
X120997272Y-77089921D01*
X120997277Y-77089925D01*
X121140580Y-77168705D01*
X121165187Y-77182233D01*
X121171054Y-77184094D01*
X121171056Y-77184095D01*
X121347835Y-77240173D01*
X121347839Y-77240174D01*
X121353706Y-77242035D01*
X121355458Y-77242232D01*
X121417027Y-77275662D01*
X122585549Y-78444184D01*
X122594651Y-78454327D01*
X122618368Y-78483825D01*
X122656846Y-78516112D01*
X122660462Y-78519267D01*
X122662288Y-78520923D01*
X122664474Y-78523109D01*
X122666854Y-78525064D01*
X122666864Y-78525073D01*
X122697668Y-78550376D01*
X122698683Y-78551218D01*
X122769874Y-78610954D01*
X122774548Y-78613523D01*
X122778661Y-78616902D01*
X122784098Y-78619817D01*
X122784099Y-78619818D01*
X122860447Y-78660755D01*
X122861577Y-78661368D01*
X122943187Y-78706233D01*
X122948269Y-78707845D01*
X122952963Y-78710362D01*
X123041931Y-78737562D01*
X123042959Y-78737882D01*
X123131706Y-78766035D01*
X123137002Y-78766629D01*
X123142098Y-78768187D01*
X123234622Y-78777585D01*
X123235742Y-78777705D01*
X123269064Y-78781442D01*
X123282130Y-78782908D01*
X123282134Y-78782908D01*
X123285627Y-78783300D01*
X123289154Y-78783300D01*
X123290157Y-78783356D01*
X123295841Y-78783803D01*
X123321257Y-78786385D01*
X123332736Y-78787551D01*
X123332738Y-78787551D01*
X123338862Y-78788173D01*
X123384501Y-78783859D01*
X123396357Y-78783300D01*
X139399836Y-78783300D01*
X139467957Y-78803302D01*
X139514450Y-78856958D01*
X139524554Y-78927232D01*
X139511344Y-78967967D01*
X139454138Y-79076698D01*
X139437900Y-79107562D01*
X139436186Y-79113083D01*
X139436184Y-79113087D01*
X139410284Y-79196500D01*
X139374761Y-79310902D01*
X139374713Y-79311308D01*
X139341807Y-79372247D01*
X139279655Y-79406563D01*
X139208816Y-79401829D01*
X139180476Y-79387096D01*
X139100251Y-79331441D01*
X139100248Y-79331439D01*
X139096409Y-79328776D01*
X139092216Y-79326708D01*
X138866181Y-79215240D01*
X138866178Y-79215239D01*
X138861993Y-79213175D01*
X138822906Y-79200663D01*
X138617523Y-79134920D01*
X138613065Y-79133493D01*
X138355093Y-79091479D01*
X138241342Y-79089990D01*
X138098422Y-79088119D01*
X138098419Y-79088119D01*
X138093745Y-79088058D01*
X137834762Y-79123304D01*
X137830276Y-79124612D01*
X137830274Y-79124612D01*
X137786548Y-79137357D01*
X137583833Y-79196443D01*
X137579580Y-79198403D01*
X137579579Y-79198404D01*
X137543059Y-79215240D01*
X137346472Y-79305868D01*
X137307467Y-79331441D01*
X137131804Y-79446610D01*
X137131799Y-79446614D01*
X137127891Y-79449176D01*
X136932894Y-79623218D01*
X136765763Y-79824170D01*
X136763334Y-79828173D01*
X136643276Y-80026023D01*
X136630171Y-80047619D01*
X136628362Y-80051933D01*
X136571224Y-80188192D01*
X136526435Y-80243279D01*
X136455027Y-80265467D01*
X130016455Y-80265467D01*
X129948334Y-80245465D01*
X129901841Y-80191809D01*
X129899022Y-80185134D01*
X129898387Y-80183499D01*
X129861647Y-80089023D01*
X129731951Y-79862102D01*
X129570138Y-79656843D01*
X129379763Y-79477757D01*
X129182307Y-79340776D01*
X129168851Y-79331441D01*
X129168848Y-79331439D01*
X129165009Y-79328776D01*
X129160816Y-79326708D01*
X128934781Y-79215240D01*
X128934778Y-79215239D01*
X128930593Y-79213175D01*
X128891506Y-79200663D01*
X128686123Y-79134920D01*
X128681665Y-79133493D01*
X128423693Y-79091479D01*
X128309942Y-79089990D01*
X128167022Y-79088119D01*
X128167019Y-79088119D01*
X128162345Y-79088058D01*
X127903362Y-79123304D01*
X127699408Y-79182751D01*
X127628413Y-79182610D01*
X127608744Y-79174163D01*
X127608109Y-79173676D01*
X127600482Y-79170517D01*
X127600479Y-79170515D01*
X127489658Y-79124612D01*
X127460084Y-79112362D01*
X127451897Y-79111284D01*
X127451896Y-79111284D01*
X127440691Y-79109809D01*
X127384717Y-79102440D01*
X127341118Y-79096700D01*
X127341115Y-79096700D01*
X127341107Y-79096699D01*
X127309422Y-79092528D01*
X127301233Y-79091450D01*
X127269540Y-79095622D01*
X127253097Y-79096700D01*
X122529039Y-79096700D01*
X122460918Y-79076698D01*
X122439944Y-79059795D01*
X115828544Y-72448395D01*
X115794518Y-72386083D01*
X115799583Y-72315268D01*
X115842130Y-72258432D01*
X115908650Y-72233621D01*
X115917639Y-72233300D01*
X121008891Y-72233300D01*
X121077012Y-72253302D01*
X121118009Y-72296298D01*
X121130160Y-72317344D01*
X121134578Y-72322251D01*
X121134579Y-72322252D01*
X121226709Y-72424573D01*
X121257947Y-72459266D01*
X121353104Y-72528402D01*
X121386973Y-72553009D01*
X121412448Y-72571518D01*
X121418476Y-72574202D01*
X121418478Y-72574203D01*
X121546568Y-72631232D01*
X121586912Y-72649194D01*
X121680312Y-72669047D01*
X121767256Y-72687528D01*
X121767261Y-72687528D01*
X121773713Y-72688900D01*
X121964687Y-72688900D01*
X121971139Y-72687528D01*
X121971144Y-72687528D01*
X122058088Y-72669047D01*
X122151488Y-72649194D01*
X122191832Y-72631232D01*
X122262445Y-72599793D01*
X122313694Y-72588900D01*
X122875986Y-72588900D01*
X122877306Y-72588907D01*
X122967421Y-72589851D01*
X123009797Y-72580689D01*
X123022363Y-72578631D01*
X123065455Y-72573797D01*
X123072106Y-72571481D01*
X123072110Y-72571480D01*
X123097130Y-72562767D01*
X123111942Y-72558604D01*
X123137819Y-72553009D01*
X123144710Y-72551519D01*
X123184013Y-72533192D01*
X123195789Y-72528410D01*
X123236752Y-72514145D01*
X123242727Y-72510411D01*
X123242730Y-72510410D01*
X123265195Y-72496373D01*
X123278712Y-72489034D01*
X123302714Y-72477841D01*
X123302715Y-72477840D01*
X123309102Y-72474862D01*
X123330668Y-72458134D01*
X123343353Y-72448294D01*
X123353812Y-72440998D01*
X123384604Y-72421758D01*
X123384607Y-72421756D01*
X123390576Y-72418026D01*
X123398683Y-72409976D01*
X123419379Y-72389424D01*
X123420004Y-72388839D01*
X123420670Y-72388322D01*
X123446660Y-72362332D01*
X123519282Y-72290215D01*
X123519940Y-72289178D01*
X123521043Y-72287949D01*
X124457912Y-71351080D01*
X124495758Y-71325068D01*
X124500691Y-71322872D01*
X124586580Y-71284632D01*
X124656722Y-71253403D01*
X124656724Y-71253402D01*
X124662752Y-71250718D01*
X124681218Y-71237302D01*
X124781785Y-71164235D01*
X124817253Y-71138466D01*
X124945040Y-70996544D01*
X125028023Y-70852814D01*
X125037223Y-70836879D01*
X125037224Y-70836878D01*
X125040527Y-70831156D01*
X125099542Y-70649528D01*
X125109058Y-70558993D01*
X125118814Y-70466165D01*
X125119504Y-70459600D01*
X125112322Y-70391270D01*
X125125094Y-70321433D01*
X125173596Y-70269586D01*
X125237632Y-70252100D01*
X126352306Y-70252100D01*
X126403555Y-70262993D01*
X126503884Y-70307662D01*
X126514512Y-70312394D01*
X126607913Y-70332247D01*
X126694856Y-70350728D01*
X126694861Y-70350728D01*
X126701313Y-70352100D01*
X126892287Y-70352100D01*
X126898739Y-70350728D01*
X126898744Y-70350728D01*
X126985687Y-70332247D01*
X127079088Y-70312394D01*
X127089685Y-70307676D01*
X127247522Y-70237403D01*
X127247524Y-70237402D01*
X127253552Y-70234718D01*
X127408053Y-70122466D01*
X127449508Y-70076426D01*
X127531421Y-69985452D01*
X127531422Y-69985451D01*
X127535840Y-69980544D01*
X127631327Y-69815156D01*
X127690342Y-69633528D01*
X127710304Y-69443600D01*
X127709050Y-69431669D01*
X127691032Y-69260235D01*
X127691032Y-69260233D01*
X127690342Y-69253672D01*
X127631327Y-69072044D01*
X127628022Y-69066319D01*
X127626344Y-69062551D01*
X127616909Y-68992184D01*
X127647014Y-68927886D01*
X127707102Y-68890072D01*
X127741450Y-68885300D01*
X132511519Y-68885300D01*
X132579640Y-68905302D01*
G37*
%TD.AperFunction*%
%TA.AperFunction,Conductor*%
G36*
X142233236Y-68905302D02*
G01*
X142279729Y-68958958D01*
X142291115Y-69011300D01*
X142291115Y-69959752D01*
X142271113Y-70027873D01*
X142217457Y-70074366D01*
X142209237Y-70077774D01*
X142202568Y-70080267D01*
X141973758Y-70185751D01*
X141965606Y-70190270D01*
X141786553Y-70307662D01*
X141777416Y-70318403D01*
X141781989Y-70328179D01*
X142254210Y-70800400D01*
X142288236Y-70862712D01*
X142291115Y-70889495D01*
X142291115Y-71251535D01*
X142271113Y-71319656D01*
X142217457Y-71366149D01*
X142147183Y-71376253D01*
X142082603Y-71346759D01*
X142076020Y-71340630D01*
X141425521Y-70690131D01*
X141412213Y-70682864D01*
X141402174Y-70689986D01*
X141391961Y-70702266D01*
X141386546Y-70709858D01*
X141255846Y-70925246D01*
X141251608Y-70933563D01*
X141154181Y-71165899D01*
X141151220Y-71174749D01*
X141089206Y-71418931D01*
X141087584Y-71428128D01*
X141062343Y-71678798D01*
X141062098Y-71688123D01*
X141074187Y-71939775D01*
X141075324Y-71949035D01*
X141124474Y-72196135D01*
X141126968Y-72205128D01*
X141212100Y-72442239D01*
X141215900Y-72450774D01*
X141335146Y-72672701D01*
X141340157Y-72680568D01*
X141403646Y-72765590D01*
X141414904Y-72774039D01*
X141427323Y-72767267D01*
X142076020Y-72118570D01*
X142138332Y-72084544D01*
X142209147Y-72089609D01*
X142265983Y-72132156D01*
X142290794Y-72198676D01*
X142291115Y-72207665D01*
X142291115Y-72569705D01*
X142271113Y-72637826D01*
X142254210Y-72658800D01*
X141786470Y-73126540D01*
X141779812Y-73138733D01*
X141788525Y-73150253D01*
X141886218Y-73221884D01*
X141894128Y-73226827D01*
X142117090Y-73344133D01*
X142125652Y-73347856D01*
X142206656Y-73376144D01*
X142264374Y-73417486D01*
X142290577Y-73483470D01*
X142291115Y-73495099D01*
X142291115Y-75699617D01*
X142271113Y-75767738D01*
X142217457Y-75814231D01*
X142210499Y-75817116D01*
X142206633Y-75818243D01*
X141969272Y-75927668D01*
X141930643Y-75952994D01*
X141754604Y-76068410D01*
X141754599Y-76068414D01*
X141750691Y-76070976D01*
X141555694Y-76245018D01*
X141388563Y-76445970D01*
X141386134Y-76449973D01*
X141278633Y-76627130D01*
X141252971Y-76669419D01*
X141251169Y-76673716D01*
X141251163Y-76673728D01*
X141244750Y-76689023D01*
X141199963Y-76744110D01*
X141128552Y-76766300D01*
X139950600Y-76766300D01*
X139882479Y-76746298D01*
X139835986Y-76692642D01*
X139825882Y-76622368D01*
X139841481Y-76577300D01*
X139870823Y-76526479D01*
X139870824Y-76526478D01*
X139874127Y-76520756D01*
X139933142Y-76339128D01*
X139936704Y-76305243D01*
X139952414Y-76155765D01*
X139953104Y-76149200D01*
X139945210Y-76074093D01*
X139933832Y-75965835D01*
X139933832Y-75965833D01*
X139933142Y-75959272D01*
X139874127Y-75777644D01*
X139778640Y-75612256D01*
X139650853Y-75470334D01*
X139496352Y-75358082D01*
X139490324Y-75355398D01*
X139490322Y-75355397D01*
X139327919Y-75283091D01*
X139327918Y-75283091D01*
X139321888Y-75280406D01*
X139220805Y-75258920D01*
X139141544Y-75242072D01*
X139141539Y-75242072D01*
X139135087Y-75240700D01*
X138944113Y-75240700D01*
X138937661Y-75242072D01*
X138937656Y-75242072D01*
X138858395Y-75258920D01*
X138757312Y-75280406D01*
X138751282Y-75283091D01*
X138751281Y-75283091D01*
X138588878Y-75355397D01*
X138588876Y-75355398D01*
X138582848Y-75358082D01*
X138577507Y-75361962D01*
X138577506Y-75361963D01*
X138513183Y-75408697D01*
X138428347Y-75470334D01*
X138423932Y-75475237D01*
X138419020Y-75479660D01*
X138417895Y-75478411D01*
X138364586Y-75511251D01*
X138331400Y-75515700D01*
X138134995Y-75515700D01*
X138066874Y-75495698D01*
X138045900Y-75478795D01*
X137548322Y-74981217D01*
X137514296Y-74918905D01*
X137512107Y-74905292D01*
X137495432Y-74746635D01*
X137495432Y-74746633D01*
X137494742Y-74740072D01*
X137435727Y-74558444D01*
X137340240Y-74393056D01*
X137260454Y-74304444D01*
X137216875Y-74256045D01*
X137216874Y-74256044D01*
X137212453Y-74251134D01*
X137057952Y-74138882D01*
X137051924Y-74136198D01*
X137051922Y-74136197D01*
X136889519Y-74063891D01*
X136889518Y-74063891D01*
X136883488Y-74061206D01*
X136763601Y-74035723D01*
X136703144Y-74022872D01*
X136703139Y-74022872D01*
X136696687Y-74021500D01*
X136505713Y-74021500D01*
X136499261Y-74022872D01*
X136499256Y-74022872D01*
X136438799Y-74035723D01*
X136318912Y-74061206D01*
X136312882Y-74063891D01*
X136312881Y-74063891D01*
X136150478Y-74136197D01*
X136150476Y-74136198D01*
X136144448Y-74138882D01*
X135989947Y-74251134D01*
X135893579Y-74358162D01*
X135833136Y-74395400D01*
X135762152Y-74394048D01*
X135710850Y-74362945D01*
X135479252Y-74131347D01*
X135471712Y-74123061D01*
X135467600Y-74116582D01*
X135457960Y-74107529D01*
X135417949Y-74069957D01*
X135415107Y-74067202D01*
X135395370Y-74047465D01*
X135392173Y-74044985D01*
X135383151Y-74037280D01*
X135356700Y-74012441D01*
X135350921Y-74007014D01*
X135343975Y-74003195D01*
X135343972Y-74003193D01*
X135333166Y-73997252D01*
X135316647Y-73986401D01*
X135316183Y-73986041D01*
X135300641Y-73973986D01*
X135293372Y-73970841D01*
X135293368Y-73970838D01*
X135260063Y-73956426D01*
X135249413Y-73951209D01*
X135210660Y-73929905D01*
X135200406Y-73927272D01*
X135196254Y-73926206D01*
X135191037Y-73924867D01*
X135172334Y-73918463D01*
X135161020Y-73913567D01*
X135161019Y-73913567D01*
X135153745Y-73910419D01*
X135145922Y-73909180D01*
X135145912Y-73909177D01*
X135110076Y-73903501D01*
X135098456Y-73901095D01*
X135063311Y-73892072D01*
X135063310Y-73892072D01*
X135055630Y-73890100D01*
X135035376Y-73890100D01*
X135015665Y-73888549D01*
X135003486Y-73886620D01*
X134995657Y-73885380D01*
X134987765Y-73886126D01*
X134951639Y-73889541D01*
X134939781Y-73890100D01*
X130401882Y-73890100D01*
X130333761Y-73870098D01*
X130287268Y-73816442D01*
X130277164Y-73746168D01*
X130306658Y-73681588D01*
X130312787Y-73675005D01*
X133597187Y-70390605D01*
X133659499Y-70356579D01*
X133686282Y-70353700D01*
X134277106Y-70353700D01*
X134328355Y-70364593D01*
X134370963Y-70383563D01*
X134439312Y-70413994D01*
X134532713Y-70433847D01*
X134619656Y-70452328D01*
X134619661Y-70452328D01*
X134626113Y-70453700D01*
X134817087Y-70453700D01*
X134823539Y-70452328D01*
X134823544Y-70452328D01*
X134910487Y-70433847D01*
X135003888Y-70413994D01*
X135056421Y-70390605D01*
X135172322Y-70339003D01*
X135172324Y-70339002D01*
X135178352Y-70336318D01*
X135189555Y-70328179D01*
X135279275Y-70262993D01*
X135332853Y-70224066D01*
X135367352Y-70185751D01*
X135456221Y-70087052D01*
X135456222Y-70087051D01*
X135460640Y-70082144D01*
X135556127Y-69916756D01*
X135615142Y-69735128D01*
X135619786Y-69690948D01*
X135634414Y-69551765D01*
X135635104Y-69545200D01*
X135615142Y-69355272D01*
X135556127Y-69173644D01*
X135552823Y-69167921D01*
X135498771Y-69074300D01*
X135482033Y-69005304D01*
X135505254Y-68938213D01*
X135561061Y-68894326D01*
X135607890Y-68885300D01*
X142165115Y-68885300D01*
X142233236Y-68905302D01*
G37*
%TD.AperFunction*%
%TA.AperFunction,Conductor*%
G36*
X123027842Y-68905302D02*
G01*
X123074335Y-68958958D01*
X123084439Y-69029232D01*
X123054945Y-69093812D01*
X123048816Y-69100395D01*
X122500215Y-69648996D01*
X122437903Y-69683022D01*
X122411120Y-69685901D01*
X106242376Y-69685901D01*
X106174255Y-69665899D01*
X106153280Y-69648996D01*
X105604680Y-69100395D01*
X105570655Y-69038083D01*
X105575720Y-68967267D01*
X105618267Y-68910432D01*
X105684787Y-68885621D01*
X105693776Y-68885300D01*
X122959721Y-68885300D01*
X123027842Y-68905302D01*
G37*
%TD.AperFunction*%
%TD*%
M02*
