%TF.GenerationSoftware,KiCad,Pcbnew,(6.0.6-0)*%
%TF.CreationDate,2022-08-06T20:43:02+02:00*%
%TF.ProjectId,GlowSign Aluminum CB square cutout,476c6f77-5369-4676-9e20-416c756d696e,rev?*%
%TF.SameCoordinates,Original*%
%TF.FileFunction,Legend,Top*%
%TF.FilePolarity,Positive*%
%FSLAX46Y46*%
G04 Gerber Fmt 4.6, Leading zero omitted, Abs format (unit mm)*
G04 Created by KiCad (PCBNEW (6.0.6-0)) date 2022-08-06 20:43:02*
%MOMM*%
%LPD*%
G01*
G04 APERTURE LIST*
G04 Aperture macros list*
%AMFreePoly0*
4,1,112,3.105582,3.191654,3.458980,3.129341,3.803230,3.028022,4.134041,2.888962,4.447289,2.713894,4.739071,2.504999,5.005748,2.264881,5.243998,1.996534,5.450851,1.703301,5.623729,1.388838,5.760476,1.057065,5.859388,0.712116,5.919233,0.358291,5.939265,0.000000,5.938012,-0.089748,5.907984,-0.447339,5.838283,-0.799355,5.729777,-1.141408,5.583820,-1.469234,5.402230,-1.778747,
5.187270,-2.066090,4.941620,-2.327680,4.668342,-2.560258,4.370841,-2.760925,4.052827,-2.927179,3.718263,-3.056948,3.371318,-3.148614,3.016317,-3.201036,2.657686,-3.213560,2.299893,-3.186029,1.947399,-3.118788,1.604597,-3.012673,1.275760,-2.869007,0.964987,-2.689582,0.676150,-2.476634,0.412851,-2.232816,0.178371,-1.961168,-0.024367,-1.665076,-0.192837,-1.348230,-0.324939,-1.014580,
-0.419026,-0.668283,-0.473925,-0.313657,-0.481420,-0.134825,-0.481581,-0.134460,-0.499164,0.000000,0.505984,0.000000,0.524968,-0.289640,0.581595,-0.574324,0.674897,-0.849181,0.803276,-1.109508,0.964536,-1.350851,1.155919,-1.569081,1.374149,-1.760464,1.615492,-1.921724,1.875819,-2.050103,2.150676,-2.143405,2.435360,-2.200032,2.725000,-2.219016,3.014640,-2.200032,3.299324,-2.143405,
3.574181,-2.050103,3.834508,-1.921724,4.075851,-1.760464,4.294081,-1.569081,4.485464,-1.350851,4.646724,-1.109508,4.775103,-0.849181,4.868405,-0.574324,4.925032,-0.289640,4.944016,0.000000,4.925032,0.289640,4.868405,0.574324,4.775103,0.849181,4.646724,1.109508,4.485464,1.350851,4.294081,1.569081,4.075851,1.760464,3.834508,1.921724,3.574181,2.050103,3.299324,2.143405,
3.014640,2.200032,2.725000,2.219016,2.435360,2.200032,2.150676,2.143405,1.875819,2.050103,1.615492,1.921724,1.374149,1.760464,1.155919,1.569081,0.964536,1.350851,0.803276,1.109508,0.674897,0.849181,0.581595,0.574324,0.524968,0.289640,0.505984,0.000000,-0.499164,0.000000,-0.499963,0.006109,-0.484897,0.102868,-0.463920,0.402854,-0.399140,0.755809,-0.295421,1.099343,
-0.154055,1.429175,0.023196,1.741194,0.234123,2.031510,0.476097,2.296505,0.746101,2.532875,1.040770,2.737676,1.356433,2.908354,1.689153,3.042782,2.034784,3.139284,2.389018,3.196657,2.747440,3.214187,3.105582,3.191654,3.105582,3.191654,$1*%
G04 Aperture macros list end*
%ADD10C,0.150000*%
%ADD11C,0.400000*%
%ADD12C,0.010000*%
%ADD13FreePoly0,0.000000*%
%ADD14R,10.000000X6.000000*%
%ADD15R,6.000000X10.000000*%
G04 APERTURE END LIST*
D10*
X183574376Y-82182704D02*
X183574376Y-81382704D01*
X183879138Y-81382704D01*
X183955328Y-81420800D01*
X183993423Y-81458895D01*
X184031519Y-81535085D01*
X184031519Y-81649371D01*
X183993423Y-81725561D01*
X183955328Y-81763657D01*
X183879138Y-81801752D01*
X183574376Y-81801752D01*
X184831519Y-82106514D02*
X184793423Y-82144609D01*
X184679138Y-82182704D01*
X184602947Y-82182704D01*
X184488661Y-82144609D01*
X184412471Y-82068419D01*
X184374376Y-81992228D01*
X184336280Y-81839847D01*
X184336280Y-81725561D01*
X184374376Y-81573180D01*
X184412471Y-81496990D01*
X184488661Y-81420800D01*
X184602947Y-81382704D01*
X184679138Y-81382704D01*
X184793423Y-81420800D01*
X184831519Y-81458895D01*
X185441042Y-81763657D02*
X185555328Y-81801752D01*
X185593423Y-81839847D01*
X185631519Y-81916038D01*
X185631519Y-82030323D01*
X185593423Y-82106514D01*
X185555328Y-82144609D01*
X185479138Y-82182704D01*
X185174376Y-82182704D01*
X185174376Y-81382704D01*
X185441042Y-81382704D01*
X185517233Y-81420800D01*
X185555328Y-81458895D01*
X185593423Y-81535085D01*
X185593423Y-81611276D01*
X185555328Y-81687466D01*
X185517233Y-81725561D01*
X185441042Y-81763657D01*
X185174376Y-81763657D01*
X186469614Y-81649371D02*
X186774376Y-81649371D01*
X186583900Y-82182704D02*
X186583900Y-81496990D01*
X186621995Y-81420800D01*
X186698185Y-81382704D01*
X186774376Y-81382704D01*
X187041042Y-82182704D02*
X187041042Y-81649371D01*
X187041042Y-81382704D02*
X187002947Y-81420800D01*
X187041042Y-81458895D01*
X187079138Y-81420800D01*
X187041042Y-81382704D01*
X187041042Y-81458895D01*
X187536280Y-82182704D02*
X187460090Y-82144609D01*
X187421995Y-82068419D01*
X187421995Y-81382704D01*
X188145804Y-82144609D02*
X188069614Y-82182704D01*
X187917233Y-82182704D01*
X187841042Y-82144609D01*
X187802947Y-82068419D01*
X187802947Y-81763657D01*
X187841042Y-81687466D01*
X187917233Y-81649371D01*
X188069614Y-81649371D01*
X188145804Y-81687466D01*
X188183900Y-81763657D01*
X188183900Y-81839847D01*
X187802947Y-81916038D01*
X188488661Y-82144609D02*
X188564852Y-82182704D01*
X188717233Y-82182704D01*
X188793423Y-82144609D01*
X188831519Y-82068419D01*
X188831519Y-82030323D01*
X188793423Y-81954133D01*
X188717233Y-81916038D01*
X188602947Y-81916038D01*
X188526757Y-81877942D01*
X188488661Y-81801752D01*
X188488661Y-81763657D01*
X188526757Y-81687466D01*
X188602947Y-81649371D01*
X188717233Y-81649371D01*
X188793423Y-81687466D01*
X189174376Y-82106514D02*
X189212471Y-82144609D01*
X189174376Y-82182704D01*
X189136280Y-82144609D01*
X189174376Y-82106514D01*
X189174376Y-82182704D01*
X189174376Y-81687466D02*
X189212471Y-81725561D01*
X189174376Y-81763657D01*
X189136280Y-81725561D01*
X189174376Y-81687466D01*
X189174376Y-81763657D01*
X183574376Y-83470704D02*
X183574376Y-82670704D01*
X183917233Y-83470704D02*
X183917233Y-83051657D01*
X183879138Y-82975466D01*
X183802947Y-82937371D01*
X183688661Y-82937371D01*
X183612471Y-82975466D01*
X183574376Y-83013561D01*
X184183900Y-82937371D02*
X184488661Y-82937371D01*
X184298185Y-82670704D02*
X184298185Y-83356419D01*
X184336280Y-83432609D01*
X184412471Y-83470704D01*
X184488661Y-83470704D01*
X184641042Y-82937371D02*
X184945804Y-82937371D01*
X184755328Y-82670704D02*
X184755328Y-83356419D01*
X184793423Y-83432609D01*
X184869614Y-83470704D01*
X184945804Y-83470704D01*
X185212471Y-82937371D02*
X185212471Y-83737371D01*
X185212471Y-82975466D02*
X185288661Y-82937371D01*
X185441042Y-82937371D01*
X185517233Y-82975466D01*
X185555328Y-83013561D01*
X185593423Y-83089752D01*
X185593423Y-83318323D01*
X185555328Y-83394514D01*
X185517233Y-83432609D01*
X185441042Y-83470704D01*
X185288661Y-83470704D01*
X185212471Y-83432609D01*
X185898185Y-83432609D02*
X185974376Y-83470704D01*
X186126757Y-83470704D01*
X186202947Y-83432609D01*
X186241042Y-83356419D01*
X186241042Y-83318323D01*
X186202947Y-83242133D01*
X186126757Y-83204038D01*
X186012471Y-83204038D01*
X185936280Y-83165942D01*
X185898185Y-83089752D01*
X185898185Y-83051657D01*
X185936280Y-82975466D01*
X186012471Y-82937371D01*
X186126757Y-82937371D01*
X186202947Y-82975466D01*
X186583900Y-83394514D02*
X186621995Y-83432609D01*
X186583900Y-83470704D01*
X186545804Y-83432609D01*
X186583900Y-83394514D01*
X186583900Y-83470704D01*
X186583900Y-82975466D02*
X186621995Y-83013561D01*
X186583900Y-83051657D01*
X186545804Y-83013561D01*
X186583900Y-82975466D01*
X186583900Y-83051657D01*
X187536280Y-82632609D02*
X186850566Y-83661180D01*
X188374376Y-82632609D02*
X187688661Y-83661180D01*
X188641042Y-83470704D02*
X188641042Y-82670704D01*
X188641042Y-82975466D02*
X188717233Y-82937371D01*
X188869614Y-82937371D01*
X188945804Y-82975466D01*
X188983900Y-83013561D01*
X189021995Y-83089752D01*
X189021995Y-83318323D01*
X188983900Y-83394514D01*
X188945804Y-83432609D01*
X188869614Y-83470704D01*
X188717233Y-83470704D01*
X188641042Y-83432609D01*
X189364852Y-83470704D02*
X189364852Y-82937371D01*
X189364852Y-82670704D02*
X189326757Y-82708800D01*
X189364852Y-82746895D01*
X189402947Y-82708800D01*
X189364852Y-82670704D01*
X189364852Y-82746895D01*
X189631519Y-82937371D02*
X189936280Y-82937371D01*
X189745804Y-82670704D02*
X189745804Y-83356419D01*
X189783900Y-83432609D01*
X189860090Y-83470704D01*
X189936280Y-83470704D01*
X190202947Y-83394514D02*
X190241042Y-83432609D01*
X190202947Y-83470704D01*
X190164852Y-83432609D01*
X190202947Y-83394514D01*
X190202947Y-83470704D01*
X190698185Y-83470704D02*
X190621995Y-83432609D01*
X190583900Y-83356419D01*
X190583900Y-82670704D01*
X190926757Y-82937371D02*
X191117233Y-83470704D01*
X191307709Y-82937371D02*
X191117233Y-83470704D01*
X191041042Y-83661180D01*
X191002947Y-83699276D01*
X190926757Y-83737371D01*
X192183900Y-82632609D02*
X191498185Y-83661180D01*
X183498185Y-83958704D02*
X183993423Y-83958704D01*
X183726757Y-84263466D01*
X183841042Y-84263466D01*
X183917233Y-84301561D01*
X183955328Y-84339657D01*
X183993423Y-84415847D01*
X183993423Y-84606323D01*
X183955328Y-84682514D01*
X183917233Y-84720609D01*
X183841042Y-84758704D01*
X183612471Y-84758704D01*
X183536280Y-84720609D01*
X183498185Y-84682514D01*
X184336280Y-84758704D02*
X184336280Y-83958704D01*
X184336280Y-84263466D02*
X184412471Y-84225371D01*
X184564852Y-84225371D01*
X184641042Y-84263466D01*
X184679138Y-84301561D01*
X184717233Y-84377752D01*
X184717233Y-84606323D01*
X184679138Y-84682514D01*
X184641042Y-84720609D01*
X184564852Y-84758704D01*
X184412471Y-84758704D01*
X184336280Y-84720609D01*
X184983900Y-84225371D02*
X185402947Y-84225371D01*
X184983900Y-84758704D01*
X185402947Y-84758704D01*
X186050566Y-84225371D02*
X186050566Y-84872990D01*
X186012471Y-84949180D01*
X185974376Y-84987276D01*
X185898185Y-85025371D01*
X185783900Y-85025371D01*
X185707709Y-84987276D01*
X186050566Y-84720609D02*
X185974376Y-84758704D01*
X185821995Y-84758704D01*
X185745804Y-84720609D01*
X185707709Y-84682514D01*
X185669614Y-84606323D01*
X185669614Y-84377752D01*
X185707709Y-84301561D01*
X185745804Y-84263466D01*
X185821995Y-84225371D01*
X185974376Y-84225371D01*
X186050566Y-84263466D01*
X186431519Y-84758704D02*
X186431519Y-83958704D01*
X186698185Y-84530133D01*
X186964852Y-83958704D01*
X186964852Y-84758704D01*
X187231519Y-83958704D02*
X187498185Y-84758704D01*
X187764852Y-83958704D01*
X188031519Y-84758704D02*
X188031519Y-83958704D01*
X188221995Y-83958704D01*
X188336280Y-83996800D01*
X188412471Y-84072990D01*
X188450566Y-84149180D01*
X188488661Y-84301561D01*
X188488661Y-84415847D01*
X188450566Y-84568228D01*
X188412471Y-84644419D01*
X188336280Y-84720609D01*
X188221995Y-84758704D01*
X188031519Y-84758704D01*
X183929919Y-101089314D02*
X183891823Y-101127409D01*
X183777538Y-101165504D01*
X183701347Y-101165504D01*
X183587061Y-101127409D01*
X183510871Y-101051219D01*
X183472776Y-100975028D01*
X183434680Y-100822647D01*
X183434680Y-100708361D01*
X183472776Y-100555980D01*
X183510871Y-100479790D01*
X183587061Y-100403600D01*
X183701347Y-100365504D01*
X183777538Y-100365504D01*
X183891823Y-100403600D01*
X183929919Y-100441695D01*
X184387061Y-101165504D02*
X184310871Y-101127409D01*
X184272776Y-101089314D01*
X184234680Y-101013123D01*
X184234680Y-100784552D01*
X184272776Y-100708361D01*
X184310871Y-100670266D01*
X184387061Y-100632171D01*
X184501347Y-100632171D01*
X184577538Y-100670266D01*
X184615633Y-100708361D01*
X184653728Y-100784552D01*
X184653728Y-101013123D01*
X184615633Y-101089314D01*
X184577538Y-101127409D01*
X184501347Y-101165504D01*
X184387061Y-101165504D01*
X184920395Y-100632171D02*
X185110871Y-101165504D01*
X185301347Y-100632171D01*
X185910871Y-101127409D02*
X185834680Y-101165504D01*
X185682300Y-101165504D01*
X185606109Y-101127409D01*
X185568014Y-101051219D01*
X185568014Y-100746457D01*
X185606109Y-100670266D01*
X185682300Y-100632171D01*
X185834680Y-100632171D01*
X185910871Y-100670266D01*
X185948966Y-100746457D01*
X185948966Y-100822647D01*
X185568014Y-100898838D01*
X186291823Y-101165504D02*
X186291823Y-100632171D01*
X186291823Y-100784552D02*
X186329919Y-100708361D01*
X186368014Y-100670266D01*
X186444204Y-100632171D01*
X186520395Y-100632171D01*
X187396585Y-101165504D02*
X187396585Y-100365504D01*
X187701347Y-100365504D01*
X187777538Y-100403600D01*
X187815633Y-100441695D01*
X187853728Y-100517885D01*
X187853728Y-100632171D01*
X187815633Y-100708361D01*
X187777538Y-100746457D01*
X187701347Y-100784552D01*
X187396585Y-100784552D01*
X188653728Y-101089314D02*
X188615633Y-101127409D01*
X188501347Y-101165504D01*
X188425157Y-101165504D01*
X188310871Y-101127409D01*
X188234680Y-101051219D01*
X188196585Y-100975028D01*
X188158490Y-100822647D01*
X188158490Y-100708361D01*
X188196585Y-100555980D01*
X188234680Y-100479790D01*
X188310871Y-100403600D01*
X188425157Y-100365504D01*
X188501347Y-100365504D01*
X188615633Y-100403600D01*
X188653728Y-100441695D01*
X189263252Y-100746457D02*
X189377538Y-100784552D01*
X189415633Y-100822647D01*
X189453728Y-100898838D01*
X189453728Y-101013123D01*
X189415633Y-101089314D01*
X189377538Y-101127409D01*
X189301347Y-101165504D01*
X188996585Y-101165504D01*
X188996585Y-100365504D01*
X189263252Y-100365504D01*
X189339442Y-100403600D01*
X189377538Y-100441695D01*
X189415633Y-100517885D01*
X189415633Y-100594076D01*
X189377538Y-100670266D01*
X189339442Y-100708361D01*
X189263252Y-100746457D01*
X188996585Y-100746457D01*
X190329919Y-100632171D02*
X190520395Y-101165504D01*
X190710871Y-100632171D01*
X191434680Y-101165504D02*
X190977538Y-101165504D01*
X191206109Y-101165504D02*
X191206109Y-100365504D01*
X191129919Y-100479790D01*
X191053728Y-100555980D01*
X190977538Y-100594076D01*
X191777538Y-101089314D02*
X191815633Y-101127409D01*
X191777538Y-101165504D01*
X191739442Y-101127409D01*
X191777538Y-101089314D01*
X191777538Y-101165504D01*
X192310871Y-100365504D02*
X192387061Y-100365504D01*
X192463252Y-100403600D01*
X192501347Y-100441695D01*
X192539442Y-100517885D01*
X192577538Y-100670266D01*
X192577538Y-100860742D01*
X192539442Y-101013123D01*
X192501347Y-101089314D01*
X192463252Y-101127409D01*
X192387061Y-101165504D01*
X192310871Y-101165504D01*
X192234680Y-101127409D01*
X192196585Y-101089314D01*
X192158490Y-101013123D01*
X192120395Y-100860742D01*
X192120395Y-100670266D01*
X192158490Y-100517885D01*
X192196585Y-100441695D01*
X192234680Y-100403600D01*
X192310871Y-100365504D01*
X183434680Y-102415409D02*
X183548966Y-102453504D01*
X183739442Y-102453504D01*
X183815633Y-102415409D01*
X183853728Y-102377314D01*
X183891823Y-102301123D01*
X183891823Y-102224933D01*
X183853728Y-102148742D01*
X183815633Y-102110647D01*
X183739442Y-102072552D01*
X183587061Y-102034457D01*
X183510871Y-101996361D01*
X183472776Y-101958266D01*
X183434680Y-101882076D01*
X183434680Y-101805885D01*
X183472776Y-101729695D01*
X183510871Y-101691600D01*
X183587061Y-101653504D01*
X183777538Y-101653504D01*
X183891823Y-101691600D01*
X184577538Y-101920171D02*
X184577538Y-102720171D01*
X184577538Y-102415409D02*
X184501347Y-102453504D01*
X184348966Y-102453504D01*
X184272776Y-102415409D01*
X184234680Y-102377314D01*
X184196585Y-102301123D01*
X184196585Y-102072552D01*
X184234680Y-101996361D01*
X184272776Y-101958266D01*
X184348966Y-101920171D01*
X184501347Y-101920171D01*
X184577538Y-101958266D01*
X185301347Y-101920171D02*
X185301347Y-102453504D01*
X184958490Y-101920171D02*
X184958490Y-102339219D01*
X184996585Y-102415409D01*
X185072776Y-102453504D01*
X185187061Y-102453504D01*
X185263252Y-102415409D01*
X185301347Y-102377314D01*
X186025157Y-102453504D02*
X186025157Y-102034457D01*
X185987061Y-101958266D01*
X185910871Y-101920171D01*
X185758490Y-101920171D01*
X185682300Y-101958266D01*
X186025157Y-102415409D02*
X185948966Y-102453504D01*
X185758490Y-102453504D01*
X185682300Y-102415409D01*
X185644204Y-102339219D01*
X185644204Y-102263028D01*
X185682300Y-102186838D01*
X185758490Y-102148742D01*
X185948966Y-102148742D01*
X186025157Y-102110647D01*
X186406109Y-102453504D02*
X186406109Y-101920171D01*
X186406109Y-102072552D02*
X186444204Y-101996361D01*
X186482300Y-101958266D01*
X186558490Y-101920171D01*
X186634680Y-101920171D01*
X187206109Y-102415409D02*
X187129919Y-102453504D01*
X186977538Y-102453504D01*
X186901347Y-102415409D01*
X186863252Y-102339219D01*
X186863252Y-102034457D01*
X186901347Y-101958266D01*
X186977538Y-101920171D01*
X187129919Y-101920171D01*
X187206109Y-101958266D01*
X187244204Y-102034457D01*
X187244204Y-102110647D01*
X186863252Y-102186838D01*
X188501347Y-102415409D02*
X188425157Y-102453504D01*
X188272776Y-102453504D01*
X188196585Y-102415409D01*
X188158490Y-102339219D01*
X188158490Y-102034457D01*
X188196585Y-101958266D01*
X188272776Y-101920171D01*
X188425157Y-101920171D01*
X188501347Y-101958266D01*
X188539442Y-102034457D01*
X188539442Y-102110647D01*
X188158490Y-102186838D01*
X189225157Y-102453504D02*
X189225157Y-101653504D01*
X189225157Y-102415409D02*
X189148966Y-102453504D01*
X188996585Y-102453504D01*
X188920395Y-102415409D01*
X188882300Y-102377314D01*
X188844204Y-102301123D01*
X188844204Y-102072552D01*
X188882300Y-101996361D01*
X188920395Y-101958266D01*
X188996585Y-101920171D01*
X189148966Y-101920171D01*
X189225157Y-101958266D01*
X189606109Y-102453504D02*
X189606109Y-101920171D01*
X189606109Y-101653504D02*
X189568014Y-101691600D01*
X189606109Y-101729695D01*
X189644204Y-101691600D01*
X189606109Y-101653504D01*
X189606109Y-101729695D01*
X189872776Y-101920171D02*
X190177538Y-101920171D01*
X189987061Y-101653504D02*
X189987061Y-102339219D01*
X190025157Y-102415409D01*
X190101347Y-102453504D01*
X190177538Y-102453504D01*
X190444204Y-102453504D02*
X190444204Y-101920171D01*
X190444204Y-101653504D02*
X190406109Y-101691600D01*
X190444204Y-101729695D01*
X190482300Y-101691600D01*
X190444204Y-101653504D01*
X190444204Y-101729695D01*
X190939442Y-102453504D02*
X190863252Y-102415409D01*
X190825157Y-102377314D01*
X190787061Y-102301123D01*
X190787061Y-102072552D01*
X190825157Y-101996361D01*
X190863252Y-101958266D01*
X190939442Y-101920171D01*
X191053728Y-101920171D01*
X191129919Y-101958266D01*
X191168014Y-101996361D01*
X191206109Y-102072552D01*
X191206109Y-102301123D01*
X191168014Y-102377314D01*
X191129919Y-102415409D01*
X191053728Y-102453504D01*
X190939442Y-102453504D01*
X191548966Y-101920171D02*
X191548966Y-102453504D01*
X191548966Y-101996361D02*
X191587061Y-101958266D01*
X191663252Y-101920171D01*
X191777538Y-101920171D01*
X191853728Y-101958266D01*
X191891823Y-102034457D01*
X191891823Y-102453504D01*
X183891833Y-109835904D02*
X183891833Y-109035904D01*
X183891833Y-109797809D02*
X183815642Y-109835904D01*
X183663261Y-109835904D01*
X183587071Y-109797809D01*
X183548976Y-109759714D01*
X183510880Y-109683523D01*
X183510880Y-109454952D01*
X183548976Y-109378761D01*
X183587071Y-109340666D01*
X183663261Y-109302571D01*
X183815642Y-109302571D01*
X183891833Y-109340666D01*
X184577547Y-109797809D02*
X184501357Y-109835904D01*
X184348976Y-109835904D01*
X184272785Y-109797809D01*
X184234690Y-109721619D01*
X184234690Y-109416857D01*
X184272785Y-109340666D01*
X184348976Y-109302571D01*
X184501357Y-109302571D01*
X184577547Y-109340666D01*
X184615642Y-109416857D01*
X184615642Y-109493047D01*
X184234690Y-109569238D01*
X184920404Y-109797809D02*
X184996595Y-109835904D01*
X185148976Y-109835904D01*
X185225166Y-109797809D01*
X185263261Y-109721619D01*
X185263261Y-109683523D01*
X185225166Y-109607333D01*
X185148976Y-109569238D01*
X185034690Y-109569238D01*
X184958500Y-109531142D01*
X184920404Y-109454952D01*
X184920404Y-109416857D01*
X184958500Y-109340666D01*
X185034690Y-109302571D01*
X185148976Y-109302571D01*
X185225166Y-109340666D01*
X185606119Y-109835904D02*
X185606119Y-109302571D01*
X185606119Y-109035904D02*
X185568023Y-109074000D01*
X185606119Y-109112095D01*
X185644214Y-109074000D01*
X185606119Y-109035904D01*
X185606119Y-109112095D01*
X186329928Y-109302571D02*
X186329928Y-109950190D01*
X186291833Y-110026380D01*
X186253738Y-110064476D01*
X186177547Y-110102571D01*
X186063261Y-110102571D01*
X185987071Y-110064476D01*
X186329928Y-109797809D02*
X186253738Y-109835904D01*
X186101357Y-109835904D01*
X186025166Y-109797809D01*
X185987071Y-109759714D01*
X185948976Y-109683523D01*
X185948976Y-109454952D01*
X185987071Y-109378761D01*
X186025166Y-109340666D01*
X186101357Y-109302571D01*
X186253738Y-109302571D01*
X186329928Y-109340666D01*
X186710880Y-109302571D02*
X186710880Y-109835904D01*
X186710880Y-109378761D02*
X186748976Y-109340666D01*
X186825166Y-109302571D01*
X186939452Y-109302571D01*
X187015642Y-109340666D01*
X187053738Y-109416857D01*
X187053738Y-109835904D01*
X187739452Y-109797809D02*
X187663261Y-109835904D01*
X187510880Y-109835904D01*
X187434690Y-109797809D01*
X187396595Y-109721619D01*
X187396595Y-109416857D01*
X187434690Y-109340666D01*
X187510880Y-109302571D01*
X187663261Y-109302571D01*
X187739452Y-109340666D01*
X187777547Y-109416857D01*
X187777547Y-109493047D01*
X187396595Y-109569238D01*
X188463261Y-109835904D02*
X188463261Y-109035904D01*
X188463261Y-109797809D02*
X188387071Y-109835904D01*
X188234690Y-109835904D01*
X188158500Y-109797809D01*
X188120404Y-109759714D01*
X188082309Y-109683523D01*
X188082309Y-109454952D01*
X188120404Y-109378761D01*
X188158500Y-109340666D01*
X188234690Y-109302571D01*
X188387071Y-109302571D01*
X188463261Y-109340666D01*
X189453738Y-109835904D02*
X189453738Y-109035904D01*
X189453738Y-109340666D02*
X189529928Y-109302571D01*
X189682309Y-109302571D01*
X189758500Y-109340666D01*
X189796595Y-109378761D01*
X189834690Y-109454952D01*
X189834690Y-109683523D01*
X189796595Y-109759714D01*
X189758500Y-109797809D01*
X189682309Y-109835904D01*
X189529928Y-109835904D01*
X189453738Y-109797809D01*
X190101357Y-109302571D02*
X190291833Y-109835904D01*
X190482309Y-109302571D02*
X190291833Y-109835904D01*
X190215642Y-110026380D01*
X190177547Y-110064476D01*
X190101357Y-110102571D01*
D11*
X185146361Y-96692400D02*
X184908266Y-96573352D01*
X184551123Y-96573352D01*
X184193980Y-96692400D01*
X183955885Y-96930495D01*
X183836838Y-97168590D01*
X183717790Y-97644780D01*
X183717790Y-98001923D01*
X183836838Y-98478114D01*
X183955885Y-98716209D01*
X184193980Y-98954304D01*
X184551123Y-99073352D01*
X184789219Y-99073352D01*
X185146361Y-98954304D01*
X185265409Y-98835257D01*
X185265409Y-98001923D01*
X184789219Y-98001923D01*
X186693980Y-99073352D02*
X186455885Y-98954304D01*
X186336838Y-98716209D01*
X186336838Y-96573352D01*
X188003504Y-99073352D02*
X187765409Y-98954304D01*
X187646361Y-98835257D01*
X187527314Y-98597161D01*
X187527314Y-97882876D01*
X187646361Y-97644780D01*
X187765409Y-97525733D01*
X188003504Y-97406685D01*
X188360647Y-97406685D01*
X188598742Y-97525733D01*
X188717790Y-97644780D01*
X188836838Y-97882876D01*
X188836838Y-98597161D01*
X188717790Y-98835257D01*
X188598742Y-98954304D01*
X188360647Y-99073352D01*
X188003504Y-99073352D01*
X189670171Y-97406685D02*
X190146361Y-99073352D01*
X190622552Y-97882876D01*
X191098742Y-99073352D01*
X191574933Y-97406685D01*
X192408266Y-98954304D02*
X192765409Y-99073352D01*
X193360647Y-99073352D01*
X193598742Y-98954304D01*
X193717790Y-98835257D01*
X193836838Y-98597161D01*
X193836838Y-98359066D01*
X193717790Y-98120971D01*
X193598742Y-98001923D01*
X193360647Y-97882876D01*
X192884457Y-97763828D01*
X192646361Y-97644780D01*
X192527314Y-97525733D01*
X192408266Y-97287638D01*
X192408266Y-97049542D01*
X192527314Y-96811447D01*
X192646361Y-96692400D01*
X192884457Y-96573352D01*
X193479695Y-96573352D01*
X193836838Y-96692400D01*
X194908266Y-99073352D02*
X194908266Y-97406685D01*
X194908266Y-96573352D02*
X194789219Y-96692400D01*
X194908266Y-96811447D01*
X195027314Y-96692400D01*
X194908266Y-96573352D01*
X194908266Y-96811447D01*
X197170171Y-97406685D02*
X197170171Y-99430495D01*
X197051123Y-99668590D01*
X196932076Y-99787638D01*
X196693980Y-99906685D01*
X196336838Y-99906685D01*
X196098742Y-99787638D01*
X197170171Y-98954304D02*
X196932076Y-99073352D01*
X196455885Y-99073352D01*
X196217790Y-98954304D01*
X196098742Y-98835257D01*
X195979695Y-98597161D01*
X195979695Y-97882876D01*
X196098742Y-97644780D01*
X196217790Y-97525733D01*
X196455885Y-97406685D01*
X196932076Y-97406685D01*
X197170171Y-97525733D01*
X198360647Y-97406685D02*
X198360647Y-99073352D01*
X198360647Y-97644780D02*
X198479695Y-97525733D01*
X198717790Y-97406685D01*
X199074933Y-97406685D01*
X199313028Y-97525733D01*
X199432076Y-97763828D01*
X199432076Y-99073352D01*
%TO.C,G\u002A\u002A\u002A*%
G36*
X185656791Y-77995210D02*
G01*
X185656791Y-80409330D01*
X183242670Y-80409330D01*
X183242670Y-80047212D01*
X183604788Y-80047212D01*
X185294673Y-80047212D01*
X185294673Y-78357328D01*
X183604788Y-78357328D01*
X183604788Y-80047212D01*
X183242670Y-80047212D01*
X183242670Y-77995210D01*
X185656791Y-77995210D01*
G37*
G36*
X191864530Y-78340084D02*
G01*
X191519656Y-78340084D01*
X191519656Y-77995210D01*
X191864530Y-77995210D01*
X191864530Y-78340084D01*
G37*
G36*
X187036289Y-75581089D02*
G01*
X186691414Y-75581089D01*
X186691414Y-75236214D01*
X187036289Y-75236214D01*
X187036289Y-75581089D01*
G37*
G36*
X189450410Y-74891340D02*
G01*
X189105535Y-74891340D01*
X189105535Y-74546466D01*
X189450410Y-74546466D01*
X189450410Y-74891340D01*
G37*
G36*
X189105535Y-74201591D02*
G01*
X188760661Y-74201591D01*
X188760661Y-73856717D01*
X189105535Y-73856717D01*
X189105535Y-74201591D01*
G37*
G36*
X188070912Y-73166968D02*
G01*
X187036289Y-73166968D01*
X187036289Y-73511842D01*
X186691414Y-73511842D01*
X186691414Y-72822094D01*
X187726038Y-72822094D01*
X187726038Y-72477219D01*
X188070912Y-72477219D01*
X188070912Y-73166968D01*
G37*
G36*
X187726038Y-72477219D02*
G01*
X187381163Y-72477219D01*
X187381163Y-72132345D01*
X186346540Y-72132345D01*
X186346540Y-72822094D01*
X186001666Y-72822094D01*
X186001666Y-71787470D01*
X187726038Y-71787470D01*
X187726038Y-72477219D01*
G37*
G36*
X188415786Y-72477219D02*
G01*
X188070912Y-72477219D01*
X188070912Y-72132345D01*
X188415786Y-72132345D01*
X188415786Y-72477219D01*
G37*
G36*
X189795284Y-75236214D02*
G01*
X189795284Y-74891340D01*
X190140158Y-74891340D01*
X190140158Y-74546466D01*
X190485033Y-74546466D01*
X190485033Y-74891340D01*
X190829907Y-74891340D01*
X190829907Y-74546466D01*
X191864530Y-74546466D01*
X191864530Y-74891340D01*
X191519656Y-74891340D01*
X191519656Y-75236214D01*
X190829907Y-75236214D01*
X190829907Y-75581089D01*
X191519656Y-75581089D01*
X191519656Y-75236214D01*
X191864530Y-75236214D01*
X191864530Y-76270838D01*
X191519656Y-76270838D01*
X191519656Y-75925963D01*
X190485033Y-75925963D01*
X190485033Y-75236214D01*
X189795284Y-75236214D01*
G37*
G36*
X183932419Y-76960586D02*
G01*
X183587545Y-76960586D01*
X183587545Y-77650335D01*
X183242670Y-77650335D01*
X183242670Y-74546466D01*
X183587545Y-74546466D01*
X183587545Y-74891340D01*
X183932419Y-74891340D01*
X183932419Y-75236214D01*
X183587545Y-75236214D01*
X183587545Y-76615712D01*
X183932419Y-76615712D01*
X183932419Y-76270838D01*
X184967042Y-76270838D01*
X184967042Y-76615712D01*
X184277294Y-76615712D01*
X184277294Y-76960586D01*
X185311917Y-76960586D01*
X185311917Y-76615712D01*
X185656791Y-76615712D01*
X185656791Y-76270838D01*
X185311917Y-76270838D01*
X185311917Y-75925963D01*
X186001666Y-75925963D01*
X186001666Y-76615712D01*
X186346540Y-76615712D01*
X186346540Y-77650335D01*
X186691414Y-77650335D01*
X186691414Y-76615712D01*
X187036289Y-76615712D01*
X187036289Y-77305461D01*
X187381163Y-77305461D01*
X187381163Y-76960586D01*
X187726038Y-76960586D01*
X187726038Y-77650335D01*
X187381163Y-77650335D01*
X187381163Y-77995210D01*
X187036289Y-77995210D01*
X187036289Y-78340084D01*
X186691414Y-78340084D01*
X186691414Y-77995210D01*
X187036289Y-77995210D01*
X187036289Y-77650335D01*
X186691414Y-77650335D01*
X186691414Y-77995210D01*
X186346540Y-77995210D01*
X186346540Y-78684958D01*
X186691414Y-78684958D01*
X186691414Y-79029833D01*
X186346540Y-79029833D01*
X186346540Y-79374707D01*
X186001666Y-79374707D01*
X186001666Y-77650335D01*
X184277294Y-77650335D01*
X184277294Y-77305461D01*
X185311917Y-77305461D01*
X186001666Y-77305461D01*
X186001666Y-76960586D01*
X185311917Y-76960586D01*
X185311917Y-77305461D01*
X184277294Y-77305461D01*
X183932419Y-77305461D01*
X183932419Y-76960586D01*
G37*
G36*
X189450410Y-76270838D02*
G01*
X189450410Y-75581089D01*
X189795284Y-75581089D01*
X189795284Y-75925963D01*
X190140158Y-75925963D01*
X190140158Y-76270838D01*
X189450410Y-76270838D01*
X189450410Y-76615712D01*
X189795284Y-76615712D01*
X189795284Y-76960586D01*
X190140158Y-76960586D01*
X190140158Y-76270838D01*
X190485033Y-76270838D01*
X190485033Y-76615712D01*
X191174782Y-76615712D01*
X191174782Y-76270838D01*
X191519656Y-76270838D01*
X191519656Y-76615712D01*
X191864530Y-76615712D01*
X191864530Y-77305461D01*
X191519656Y-77305461D01*
X191519656Y-77995210D01*
X190829907Y-77995210D01*
X190829907Y-77305461D01*
X191174782Y-77305461D01*
X191519656Y-77305461D01*
X191519656Y-76960586D01*
X191174782Y-76960586D01*
X191174782Y-77305461D01*
X190829907Y-77305461D01*
X190485033Y-77305461D01*
X190485033Y-79029833D01*
X189795284Y-79029833D01*
X189795284Y-79374707D01*
X189450410Y-79374707D01*
X189450410Y-79719582D01*
X188760661Y-79719582D01*
X188760661Y-79374707D01*
X189105535Y-79374707D01*
X189450410Y-79374707D01*
X189450410Y-79029833D01*
X189105535Y-79029833D01*
X189105535Y-79374707D01*
X188760661Y-79374707D01*
X188760661Y-79029833D01*
X188415786Y-79029833D01*
X188415786Y-79374707D01*
X188070912Y-79374707D01*
X188070912Y-80409330D01*
X186001666Y-80409330D01*
X186001666Y-80064456D01*
X186346540Y-80064456D01*
X186346540Y-79719582D01*
X186691414Y-79719582D01*
X186691414Y-80064456D01*
X187036289Y-80064456D01*
X187036289Y-79719582D01*
X187381163Y-79719582D01*
X187726038Y-79719582D01*
X187726038Y-79374707D01*
X187381163Y-79374707D01*
X187381163Y-79719582D01*
X187036289Y-79719582D01*
X187036289Y-79374707D01*
X187381163Y-79374707D01*
X187381163Y-79029833D01*
X187726038Y-79029833D01*
X188070912Y-79029833D01*
X188415786Y-79029833D01*
X188415786Y-78684958D01*
X189105535Y-78684958D01*
X190140158Y-78684958D01*
X190140158Y-77650335D01*
X189105535Y-77650335D01*
X189105535Y-78684958D01*
X188415786Y-78684958D01*
X188070912Y-78684958D01*
X188070912Y-79029833D01*
X187726038Y-79029833D01*
X187726038Y-78340084D01*
X187381163Y-78340084D01*
X187381163Y-79029833D01*
X187036289Y-79029833D01*
X187036289Y-78340084D01*
X187381163Y-78340084D01*
X187381163Y-77995210D01*
X188070912Y-77995210D01*
X188070912Y-78340084D01*
X188760661Y-78340084D01*
X188760661Y-77995210D01*
X188415786Y-77995210D01*
X188415786Y-77650335D01*
X188760661Y-77650335D01*
X188760661Y-77305461D01*
X189105535Y-77305461D01*
X189450410Y-77305461D01*
X190140158Y-77305461D01*
X190485033Y-77305461D01*
X190485033Y-76960586D01*
X190140158Y-76960586D01*
X190140158Y-77305461D01*
X189450410Y-77305461D01*
X189450410Y-76960586D01*
X189105535Y-76960586D01*
X189105535Y-77305461D01*
X188760661Y-77305461D01*
X188760661Y-76960586D01*
X189105535Y-76960586D01*
X189105535Y-76270838D01*
X189450410Y-76270838D01*
G37*
G36*
X188760661Y-76960586D02*
G01*
X188415786Y-76960586D01*
X188415786Y-77305461D01*
X188070912Y-77305461D01*
X188070912Y-76615712D01*
X188415786Y-76615712D01*
X188415786Y-76270838D01*
X188760661Y-76270838D01*
X188760661Y-76960586D01*
G37*
G36*
X186691414Y-74891340D02*
G01*
X186346540Y-74891340D01*
X186346540Y-75236214D01*
X186001666Y-75236214D01*
X186001666Y-75581089D01*
X185311917Y-75581089D01*
X185311917Y-75925963D01*
X184277294Y-75925963D01*
X184277294Y-75581089D01*
X184967042Y-75581089D01*
X184967042Y-75236214D01*
X185656791Y-75236214D01*
X185656791Y-74891340D01*
X184622168Y-74891340D01*
X184622168Y-75236214D01*
X184277294Y-75236214D01*
X184277294Y-74546466D01*
X186691414Y-74546466D01*
X186691414Y-74891340D01*
G37*
G36*
X186691414Y-75925963D02*
G01*
X186346540Y-75925963D01*
X186346540Y-75581089D01*
X186691414Y-75581089D01*
X186691414Y-75925963D01*
G37*
G36*
X188070912Y-74201591D02*
G01*
X188070912Y-73856717D01*
X187726038Y-73856717D01*
X187726038Y-74201591D01*
X187381163Y-74201591D01*
X187381163Y-73856717D01*
X187726038Y-73856717D01*
X187726038Y-73511842D01*
X188070912Y-73511842D01*
X188070912Y-73166968D01*
X188415786Y-73166968D01*
X188415786Y-74201591D01*
X188070912Y-74201591D01*
X188070912Y-74546466D01*
X188415786Y-74546466D01*
X188415786Y-74201591D01*
X188760661Y-74201591D01*
X188760661Y-74891340D01*
X189105535Y-74891340D01*
X189105535Y-75236214D01*
X189450410Y-75236214D01*
X189450410Y-75581089D01*
X188760661Y-75581089D01*
X188760661Y-75925963D01*
X188070912Y-75925963D01*
X188070912Y-76615712D01*
X187381163Y-76615712D01*
X187381163Y-76270838D01*
X187726038Y-76270838D01*
X187726038Y-75925963D01*
X188070912Y-75925963D01*
X188070912Y-75581089D01*
X188415786Y-75581089D01*
X188415786Y-75236214D01*
X187726038Y-75236214D01*
X187726038Y-75925963D01*
X187036289Y-75925963D01*
X187036289Y-75581089D01*
X187381163Y-75581089D01*
X187381163Y-74891340D01*
X187726038Y-74891340D01*
X187726038Y-74201591D01*
X188070912Y-74201591D01*
G37*
G36*
X189450410Y-80409330D02*
G01*
X188760661Y-80409330D01*
X188760661Y-80064456D01*
X189450410Y-80064456D01*
X189450410Y-80409330D01*
G37*
G36*
X191864530Y-80409330D02*
G01*
X191519656Y-80409330D01*
X191519656Y-80064456D01*
X190829907Y-80064456D01*
X190829907Y-80409330D01*
X190485033Y-80409330D01*
X190485033Y-80064456D01*
X190829907Y-80064456D01*
X190829907Y-79719582D01*
X190485033Y-79719582D01*
X190485033Y-80064456D01*
X189795284Y-80064456D01*
X189795284Y-79719582D01*
X190140158Y-79719582D01*
X190140158Y-79374707D01*
X191174782Y-79374707D01*
X191174782Y-78684958D01*
X191864530Y-78684958D01*
X191864530Y-80409330D01*
G37*
G36*
X185656791Y-71787470D02*
G01*
X185656791Y-74201591D01*
X183242670Y-74201591D01*
X183242670Y-73839473D01*
X183604788Y-73839473D01*
X185294673Y-73839473D01*
X185294673Y-72149588D01*
X183604788Y-72149588D01*
X183604788Y-73839473D01*
X183242670Y-73839473D01*
X183242670Y-71787470D01*
X185656791Y-71787470D01*
G37*
G36*
X186346540Y-74201591D02*
G01*
X186001666Y-74201591D01*
X186001666Y-73856717D01*
X186346540Y-73856717D01*
X186346540Y-74201591D01*
G37*
G36*
X187036289Y-74201591D02*
G01*
X186691414Y-74201591D01*
X186691414Y-73856717D01*
X187036289Y-73856717D01*
X187036289Y-74201591D01*
G37*
G36*
X191864530Y-71787470D02*
G01*
X191864530Y-74201591D01*
X189450410Y-74201591D01*
X189450410Y-73839473D01*
X189812528Y-73839473D01*
X191502412Y-73839473D01*
X191502412Y-72149588D01*
X189812528Y-72149588D01*
X189812528Y-73839473D01*
X189450410Y-73839473D01*
X189450410Y-71787470D01*
X191864530Y-71787470D01*
G37*
G36*
X186346540Y-73511842D02*
G01*
X186001666Y-73511842D01*
X186001666Y-73166968D01*
X186346540Y-73166968D01*
X186346540Y-73511842D01*
G37*
G36*
X189105535Y-73511842D02*
G01*
X188760661Y-73511842D01*
X188760661Y-72477219D01*
X189105535Y-72477219D01*
X189105535Y-73511842D01*
G37*
G36*
X184967042Y-79719582D02*
G01*
X183932419Y-79719582D01*
X183932419Y-78684958D01*
X184967042Y-78684958D01*
X184967042Y-79719582D01*
G37*
G36*
X189795284Y-78340084D02*
G01*
X189450410Y-78340084D01*
X189450410Y-77995210D01*
X189795284Y-77995210D01*
X189795284Y-78340084D01*
G37*
G36*
X189105535Y-76270838D02*
G01*
X188760661Y-76270838D01*
X188760661Y-75925963D01*
X189105535Y-75925963D01*
X189105535Y-76270838D01*
G37*
G36*
X184967042Y-73511842D02*
G01*
X183932419Y-73511842D01*
X183932419Y-72477219D01*
X184967042Y-72477219D01*
X184967042Y-73511842D01*
G37*
G36*
X191174782Y-73511842D02*
G01*
X190140158Y-73511842D01*
X190140158Y-72477219D01*
X191174782Y-72477219D01*
X191174782Y-73511842D01*
G37*
%TO.C,logo*%
G36*
X193245402Y-112631882D02*
G01*
X193266178Y-112644601D01*
X193277845Y-112671698D01*
X193279236Y-112677027D01*
X193278665Y-112717065D01*
X193259759Y-112748898D01*
X193228999Y-112768691D01*
X193192867Y-112772613D01*
X193157845Y-112756830D01*
X193152513Y-112751957D01*
X193133193Y-112717667D01*
X193134409Y-112681069D01*
X193152899Y-112649545D01*
X193185400Y-112630476D01*
X193207324Y-112627947D01*
X193245402Y-112631882D01*
G37*
G36*
X189032351Y-111836854D02*
G01*
X189072381Y-111842474D01*
X189096172Y-111855586D01*
X189109327Y-111873694D01*
X189122389Y-111917259D01*
X189115166Y-111956640D01*
X189092668Y-111988379D01*
X189059906Y-112009019D01*
X189021889Y-112015102D01*
X188983627Y-112003170D01*
X188956734Y-111979000D01*
X188936618Y-111941269D01*
X188936606Y-111906350D01*
X188949956Y-111864647D01*
X188972808Y-111842701D01*
X189011184Y-111836141D01*
X189032351Y-111836854D01*
G37*
G36*
X189074940Y-111306362D02*
G01*
X189110140Y-111333826D01*
X189130282Y-111376396D01*
X189130906Y-111430560D01*
X189130710Y-111431624D01*
X189118275Y-111466715D01*
X189092054Y-111488514D01*
X189078507Y-111494770D01*
X189045441Y-111507598D01*
X189022875Y-111510744D01*
X188997713Y-111504700D01*
X188980289Y-111498467D01*
X188948212Y-111474112D01*
X188928698Y-111433410D01*
X188924886Y-111383918D01*
X188926955Y-111370032D01*
X188944080Y-111334083D01*
X188977216Y-111310796D01*
X189029146Y-111297514D01*
X189074940Y-111306362D01*
G37*
G36*
X184646251Y-111047254D02*
G01*
X184673302Y-111064744D01*
X184690757Y-111098604D01*
X184697856Y-111143165D01*
X184694345Y-111187648D01*
X184679969Y-111221276D01*
X184677061Y-111224519D01*
X184646037Y-111241494D01*
X184602069Y-111250309D01*
X184556986Y-111249622D01*
X184528222Y-111241407D01*
X184498726Y-111213474D01*
X184482644Y-111172004D01*
X184480549Y-111125718D01*
X184493017Y-111083338D01*
X184516041Y-111056511D01*
X184555389Y-111040753D01*
X184602375Y-111037855D01*
X184646251Y-111047254D01*
G37*
G36*
X184386265Y-111047016D02*
G01*
X184422651Y-111073829D01*
X184439592Y-111116439D01*
X184435903Y-111173147D01*
X184433237Y-111183716D01*
X184410184Y-111224134D01*
X184371090Y-111248588D01*
X184321538Y-111254995D01*
X184272632Y-111243619D01*
X184245118Y-111220374D01*
X184225992Y-111181945D01*
X184219359Y-111138483D01*
X184221955Y-111118248D01*
X184240682Y-111072939D01*
X184271863Y-111047300D01*
X184320135Y-111037924D01*
X184331616Y-111037700D01*
X184386265Y-111047016D01*
G37*
G36*
X183860105Y-113835941D02*
G01*
X183892614Y-113865559D01*
X183907056Y-113912683D01*
X183907640Y-113926452D01*
X183899239Y-113974322D01*
X183873146Y-114004252D01*
X183828028Y-114017472D01*
X183807787Y-114018378D01*
X183767160Y-114013982D01*
X183741760Y-113998359D01*
X183734924Y-113989824D01*
X183715286Y-113943858D01*
X183716619Y-113898553D01*
X183736165Y-113859840D01*
X183771164Y-113833649D01*
X183811282Y-113825662D01*
X183860105Y-113835941D01*
G37*
G36*
X186810499Y-112771210D02*
G01*
X186816550Y-112773279D01*
X186853646Y-112790447D01*
X186874740Y-112814688D01*
X186884361Y-112838431D01*
X186893553Y-112896732D01*
X186882515Y-112947100D01*
X186852874Y-112984765D01*
X186830028Y-112998008D01*
X186799605Y-113010034D01*
X186778105Y-113013877D01*
X186753440Y-113009967D01*
X186724072Y-113001766D01*
X186682181Y-112977519D01*
X186656066Y-112936546D01*
X186648305Y-112884169D01*
X186652427Y-112853991D01*
X186665767Y-112817377D01*
X186690261Y-112792949D01*
X186714022Y-112779703D01*
X186748935Y-112764836D01*
X186776278Y-112762307D01*
X186810499Y-112771210D01*
G37*
G36*
X185574224Y-111299864D02*
G01*
X185614390Y-111319231D01*
X185643329Y-111354245D01*
X185654918Y-111401896D01*
X185654934Y-111403861D01*
X185648058Y-111442389D01*
X185632450Y-111473061D01*
X185599998Y-111496030D01*
X185556931Y-111508064D01*
X185516837Y-111505577D01*
X185513609Y-111504429D01*
X185473474Y-111478902D01*
X185453149Y-111439614D01*
X185449370Y-111402802D01*
X185453073Y-111362656D01*
X185467542Y-111335763D01*
X185484697Y-111320122D01*
X185528952Y-111299157D01*
X185574224Y-111299864D01*
G37*
G36*
X187573443Y-111566153D02*
G01*
X187612156Y-111585699D01*
X187638347Y-111620698D01*
X187646335Y-111660816D01*
X187636055Y-111709639D01*
X187606438Y-111742148D01*
X187559313Y-111756590D01*
X187545544Y-111757174D01*
X187499199Y-111749514D01*
X187474882Y-111733679D01*
X187457452Y-111699321D01*
X187452922Y-111656296D01*
X187460785Y-111614960D01*
X187480535Y-111585666D01*
X187482173Y-111584458D01*
X187528139Y-111564820D01*
X187573443Y-111566153D01*
G37*
G36*
X183593989Y-111837864D02*
G01*
X183620551Y-111849102D01*
X183625472Y-111854114D01*
X183640185Y-111888988D01*
X183641123Y-111932929D01*
X183628866Y-111973690D01*
X183619144Y-111987794D01*
X183586260Y-112007984D01*
X183544617Y-112013720D01*
X183505801Y-112004446D01*
X183491025Y-111993959D01*
X183466331Y-111953260D01*
X183461807Y-111906458D01*
X183472468Y-111873694D01*
X183490060Y-111851736D01*
X183516711Y-111840707D01*
X183549444Y-111836854D01*
X183593989Y-111837864D01*
G37*
G36*
X184637087Y-111841895D02*
G01*
X184658316Y-111854450D01*
X184675266Y-111886621D01*
X184678840Y-111928103D01*
X184669694Y-111967923D01*
X184649951Y-111994129D01*
X184606136Y-112011830D01*
X184560715Y-112009386D01*
X184524332Y-111988433D01*
X184504151Y-111953301D01*
X184499244Y-111910697D01*
X184509792Y-111871536D01*
X184522132Y-111855523D01*
X184554771Y-111839581D01*
X184597049Y-111835007D01*
X184637087Y-111841895D01*
G37*
G36*
X183821222Y-111038047D02*
G01*
X183864000Y-111046817D01*
X183894297Y-111062910D01*
X183894792Y-111063395D01*
X183916523Y-111101179D01*
X183922202Y-111148023D01*
X183912323Y-111193929D01*
X183887375Y-111228894D01*
X183886636Y-111229484D01*
X183839553Y-111252440D01*
X183789506Y-111253828D01*
X183744294Y-111233896D01*
X183733611Y-111224576D01*
X183710129Y-111185405D01*
X183703295Y-111137943D01*
X183712490Y-111091227D01*
X183737094Y-111054295D01*
X183745755Y-111047533D01*
X183777846Y-111037864D01*
X183821222Y-111038047D01*
G37*
G36*
X192743694Y-111045643D02*
G01*
X192778997Y-111070205D01*
X192796148Y-111112492D01*
X192798282Y-111141066D01*
X192787898Y-111191881D01*
X192760510Y-111229875D01*
X192721766Y-111252524D01*
X192677313Y-111257304D01*
X192632801Y-111241691D01*
X192611406Y-111224576D01*
X192587274Y-111189200D01*
X192579880Y-111143260D01*
X192579871Y-111141066D01*
X192588262Y-111089369D01*
X192614213Y-111055954D01*
X192658888Y-111039720D01*
X192689077Y-111037700D01*
X192743694Y-111045643D01*
G37*
G36*
X186564791Y-111845075D02*
G01*
X186594059Y-111875486D01*
X186605594Y-111922446D01*
X186605667Y-111927053D01*
X186594799Y-111968782D01*
X186566501Y-111998185D01*
X186527236Y-112012400D01*
X186483464Y-112008561D01*
X186454353Y-111994129D01*
X186434921Y-111973470D01*
X186426746Y-111942039D01*
X186425799Y-111917494D01*
X186431286Y-111873762D01*
X186450449Y-111847782D01*
X186487336Y-111835997D01*
X186520584Y-111834260D01*
X186564791Y-111845075D01*
G37*
G36*
X188552059Y-111307490D02*
G01*
X188552820Y-111307776D01*
X188585602Y-111324234D01*
X188602851Y-111346878D01*
X188609194Y-111383621D01*
X188609719Y-111405082D01*
X188599593Y-111455570D01*
X188570675Y-111490146D01*
X188525807Y-111506766D01*
X188471916Y-111504247D01*
X188437357Y-111485581D01*
X188414234Y-111450544D01*
X188404743Y-111406744D01*
X188411081Y-111361787D01*
X188423640Y-111337074D01*
X188457031Y-111310025D01*
X188502785Y-111299495D01*
X188552059Y-111307490D01*
G37*
G36*
X192988437Y-112101909D02*
G01*
X193018193Y-112131960D01*
X193029512Y-112178320D01*
X193029542Y-112181150D01*
X193024266Y-112221658D01*
X193005958Y-112247332D01*
X193000988Y-112251084D01*
X192956799Y-112269325D01*
X192914236Y-112263506D01*
X192888217Y-112245388D01*
X192867284Y-112209556D01*
X192864832Y-112168965D01*
X192878273Y-112130874D01*
X192905022Y-112102540D01*
X192942490Y-112091219D01*
X192943173Y-112091215D01*
X192988437Y-112101909D01*
G37*
G36*
X187087325Y-113308461D02*
G01*
X187114374Y-113325954D01*
X187130900Y-113358825D01*
X187137646Y-113403003D01*
X187134441Y-113447659D01*
X187121119Y-113481960D01*
X187116882Y-113486973D01*
X187087763Y-113502578D01*
X187045129Y-113511456D01*
X187000615Y-113512150D01*
X186970225Y-113505320D01*
X186941785Y-113480562D01*
X186925340Y-113441222D01*
X186921480Y-113395743D01*
X186930796Y-113352570D01*
X186953877Y-113320145D01*
X186957113Y-113317715D01*
X186996463Y-113301955D01*
X187043450Y-113299058D01*
X187087325Y-113308461D01*
G37*
G36*
X188047873Y-111047016D02*
G01*
X188084260Y-111073829D01*
X188101201Y-111116439D01*
X188097512Y-111173147D01*
X188094845Y-111183716D01*
X188071792Y-111224134D01*
X188032698Y-111248588D01*
X187983146Y-111254995D01*
X187934241Y-111243619D01*
X187906727Y-111220374D01*
X187887601Y-111181945D01*
X187880967Y-111138483D01*
X187883564Y-111118248D01*
X187902291Y-111072939D01*
X187933472Y-111047300D01*
X187981743Y-111037924D01*
X187993224Y-111037700D01*
X188047873Y-111047016D01*
G37*
G36*
X192990755Y-111041359D02*
G01*
X193028856Y-111062719D01*
X193029542Y-111063395D01*
X193051272Y-111101179D01*
X193056952Y-111148023D01*
X193047073Y-111193929D01*
X193022125Y-111228894D01*
X193021385Y-111229484D01*
X192974303Y-111252440D01*
X192924256Y-111253828D01*
X192879044Y-111233896D01*
X192868361Y-111224576D01*
X192842532Y-111182102D01*
X192837953Y-111132619D01*
X192854873Y-111083926D01*
X192863454Y-111071552D01*
X192898053Y-111046267D01*
X192943821Y-111036039D01*
X192990755Y-111041359D01*
G37*
G36*
X187046554Y-112096377D02*
G01*
X187090267Y-112113941D01*
X187112714Y-112145813D01*
X187114525Y-112192903D01*
X187114363Y-112193955D01*
X187097308Y-112239118D01*
X187066765Y-112265187D01*
X187028199Y-112270422D01*
X186987074Y-112253082D01*
X186971244Y-112239549D01*
X186944914Y-112201434D01*
X186944045Y-112164002D01*
X186968661Y-112125455D01*
X186972680Y-112121315D01*
X187001454Y-112098764D01*
X187030671Y-112094051D01*
X187046554Y-112096377D01*
G37*
G36*
X189786778Y-111047395D02*
G01*
X189822711Y-111075313D01*
X189839439Y-111119699D01*
X189838909Y-111159622D01*
X189821530Y-111208949D01*
X189788288Y-111242022D01*
X189744822Y-111256656D01*
X189696771Y-111250662D01*
X189658740Y-111229484D01*
X189633455Y-111194884D01*
X189623227Y-111149117D01*
X189628548Y-111102182D01*
X189649907Y-111064081D01*
X189650584Y-111063395D01*
X189684125Y-111043682D01*
X189733162Y-111037700D01*
X189786778Y-111047395D01*
G37*
G36*
X190014516Y-111566153D02*
G01*
X190053229Y-111585699D01*
X190079420Y-111620698D01*
X190087407Y-111660816D01*
X190077128Y-111709639D01*
X190047510Y-111742148D01*
X190000386Y-111756590D01*
X189986617Y-111757174D01*
X189940272Y-111749514D01*
X189915954Y-111733679D01*
X189898524Y-111699321D01*
X189893994Y-111656296D01*
X189901857Y-111614960D01*
X189921608Y-111585666D01*
X189923245Y-111584458D01*
X189969211Y-111564820D01*
X190014516Y-111566153D01*
G37*
G36*
X193241336Y-112101594D02*
G01*
X193273149Y-112127712D01*
X193292252Y-112162048D01*
X193293603Y-112191432D01*
X193273337Y-112233769D01*
X193240214Y-112260607D01*
X193200776Y-112269567D01*
X193161563Y-112258271D01*
X193145172Y-112245388D01*
X193123716Y-112208853D01*
X193121555Y-112168022D01*
X193135982Y-112130041D01*
X193164291Y-112102057D01*
X193203571Y-112091215D01*
X193241336Y-112101594D01*
G37*
G36*
X188799720Y-112098322D02*
G01*
X188832896Y-112121376D01*
X188851819Y-112159898D01*
X188854023Y-112181150D01*
X188843433Y-112225532D01*
X188815818Y-112255847D01*
X188777417Y-112268943D01*
X188734467Y-112261672D01*
X188715557Y-112251084D01*
X188694506Y-112227113D01*
X188687157Y-112189950D01*
X188687003Y-112181150D01*
X188692278Y-112140641D01*
X188710586Y-112114968D01*
X188715557Y-112111216D01*
X188758528Y-112093885D01*
X188799720Y-112098322D01*
G37*
G36*
X193245444Y-111041850D02*
G01*
X193282070Y-111056601D01*
X193308437Y-111089935D01*
X193317455Y-111137699D01*
X193310677Y-111185001D01*
X193287801Y-111224755D01*
X193248762Y-111248613D01*
X193198961Y-111254656D01*
X193148197Y-111242794D01*
X193118240Y-111218256D01*
X193101399Y-111178981D01*
X193098543Y-111132824D01*
X193110544Y-111087641D01*
X193128044Y-111061027D01*
X193157717Y-111044360D01*
X193200417Y-111037865D01*
X193245444Y-111041850D01*
G37*
G36*
X184379778Y-112113781D02*
G01*
X184391245Y-112123981D01*
X184414669Y-112162356D01*
X184413610Y-112203077D01*
X184388417Y-112241883D01*
X184381036Y-112248600D01*
X184347016Y-112267535D01*
X184308503Y-112266295D01*
X184284567Y-112258254D01*
X184255702Y-112233919D01*
X184244451Y-112193349D01*
X184248192Y-112155059D01*
X184267324Y-112115770D01*
X184299616Y-112094928D01*
X184339092Y-112093833D01*
X184379778Y-112113781D01*
G37*
G36*
X190044405Y-110514238D02*
G01*
X190084019Y-110545058D01*
X190108142Y-110590856D01*
X190113103Y-110627588D01*
X190101928Y-110680248D01*
X190071231Y-110720059D01*
X190025253Y-110743947D01*
X189968236Y-110748839D01*
X189949550Y-110746130D01*
X189912232Y-110726661D01*
X189884360Y-110688764D01*
X189870283Y-110639192D01*
X189869404Y-110621627D01*
X189876949Y-110568701D01*
X189900681Y-110532958D01*
X189939079Y-110511163D01*
X189994393Y-110501803D01*
X190044405Y-110514238D01*
G37*
G36*
X189771760Y-114896729D02*
G01*
X189784801Y-114904304D01*
X189800998Y-114932287D01*
X189803284Y-114969655D01*
X189791685Y-115004207D01*
X189784568Y-115013161D01*
X189753879Y-115029436D01*
X189716195Y-115031984D01*
X189683720Y-115020749D01*
X189675910Y-115013633D01*
X189664176Y-114985333D01*
X189661273Y-114947835D01*
X189667301Y-114913986D01*
X189675042Y-114900971D01*
X189700576Y-114890083D01*
X189737058Y-114888798D01*
X189771760Y-114896729D01*
G37*
G36*
X184605482Y-112096377D02*
G01*
X184649195Y-112113941D01*
X184671641Y-112145813D01*
X184673453Y-112192903D01*
X184673291Y-112193955D01*
X184656235Y-112239118D01*
X184625693Y-112265187D01*
X184587127Y-112270422D01*
X184546001Y-112253082D01*
X184530172Y-112239549D01*
X184503841Y-112201434D01*
X184502973Y-112164002D01*
X184527589Y-112125455D01*
X184531608Y-112121315D01*
X184560382Y-112098764D01*
X184589598Y-112094051D01*
X184605482Y-112096377D01*
G37*
G36*
X187577741Y-111300619D02*
G01*
X187617097Y-111319072D01*
X187642455Y-111352517D01*
X187653308Y-111394078D01*
X187649149Y-111436878D01*
X187629473Y-111474040D01*
X187593772Y-111498689D01*
X187592370Y-111499191D01*
X187563438Y-111508695D01*
X187543923Y-111510709D01*
X187519594Y-111505627D01*
X187505010Y-111501607D01*
X187471067Y-111480590D01*
X187450819Y-111444983D01*
X187444595Y-111402140D01*
X187452720Y-111359414D01*
X187475523Y-111324161D01*
X187496467Y-111309617D01*
X187545776Y-111298307D01*
X187577741Y-111300619D01*
G37*
G36*
X193519067Y-112107143D02*
G01*
X193540876Y-112127686D01*
X193548813Y-112164304D01*
X193549292Y-112182749D01*
X193539740Y-112230112D01*
X193514580Y-112260425D01*
X193479054Y-112271655D01*
X193438402Y-112261769D01*
X193406531Y-112238113D01*
X193383980Y-112209339D01*
X193379267Y-112180122D01*
X193381592Y-112164238D01*
X193399289Y-112120448D01*
X193431342Y-112097939D01*
X193478104Y-112096256D01*
X193519067Y-112107143D01*
G37*
G36*
X192978898Y-112633856D02*
G01*
X192997383Y-112643636D01*
X193011661Y-112669245D01*
X193016197Y-112705980D01*
X193010549Y-112741014D01*
X193001277Y-112756729D01*
X192973401Y-112770269D01*
X192937300Y-112771708D01*
X192904524Y-112762015D01*
X192888669Y-112747295D01*
X192874922Y-112702339D01*
X192881772Y-112663926D01*
X192906718Y-112637278D01*
X192946032Y-112627609D01*
X192978898Y-112633856D01*
G37*
G36*
X188298696Y-114103099D02*
G01*
X188319924Y-114115654D01*
X188336874Y-114147825D01*
X188340448Y-114189307D01*
X188331302Y-114229127D01*
X188311559Y-114255333D01*
X188267744Y-114273034D01*
X188222323Y-114270590D01*
X188185940Y-114249637D01*
X188165759Y-114214505D01*
X188160853Y-114171901D01*
X188171401Y-114132740D01*
X188183740Y-114116727D01*
X188216380Y-114100785D01*
X188258657Y-114096211D01*
X188298696Y-114103099D01*
G37*
G36*
X190998639Y-111839748D02*
G01*
X191024620Y-111858910D01*
X191036404Y-111895797D01*
X191038141Y-111929045D01*
X191027373Y-111970575D01*
X190999635Y-111999825D01*
X190961773Y-112014157D01*
X190920634Y-112010934D01*
X190883968Y-111988433D01*
X190862555Y-111950395D01*
X190860875Y-111904861D01*
X190878272Y-111862815D01*
X190898932Y-111843382D01*
X190930362Y-111835208D01*
X190954907Y-111834260D01*
X190998639Y-111839748D01*
G37*
G36*
X183852373Y-112637408D02*
G01*
X183876160Y-112665997D01*
X183881945Y-112700487D01*
X183874587Y-112742564D01*
X183850824Y-112765583D01*
X183811282Y-112772146D01*
X183778015Y-112767445D01*
X183756037Y-112756729D01*
X183743574Y-112729614D01*
X183741580Y-112692512D01*
X183749615Y-112658248D01*
X183759930Y-112643636D01*
X183787692Y-112630961D01*
X183811282Y-112627609D01*
X183852373Y-112637408D01*
G37*
G36*
X183600081Y-111573713D02*
G01*
X183624990Y-111590153D01*
X183645846Y-111627207D01*
X183650685Y-111660816D01*
X183640405Y-111709639D01*
X183610788Y-111742148D01*
X183563663Y-111756590D01*
X183549894Y-111757174D01*
X183503550Y-111749514D01*
X183479232Y-111733679D01*
X183464808Y-111705152D01*
X183458041Y-111666976D01*
X183457969Y-111663016D01*
X183468180Y-111613061D01*
X183497279Y-111579577D01*
X183542961Y-111564923D01*
X183554327Y-111564458D01*
X183600081Y-111573713D01*
G37*
G36*
X185599524Y-111843723D02*
G01*
X185630170Y-111871446D01*
X185641981Y-111916431D01*
X185642086Y-111921994D01*
X185631363Y-111966617D01*
X185603293Y-111997905D01*
X185564025Y-112012929D01*
X185519707Y-112008756D01*
X185490772Y-111994129D01*
X185469667Y-111970042D01*
X185462356Y-111932685D01*
X185462218Y-111924384D01*
X185470165Y-111875956D01*
X185495017Y-111846568D01*
X185538292Y-111834681D01*
X185551078Y-111834260D01*
X185599524Y-111843723D01*
G37*
G36*
X184096822Y-113827502D02*
G01*
X184136041Y-113845662D01*
X184156833Y-113874058D01*
X184165622Y-113914915D01*
X184162058Y-113957794D01*
X184145793Y-113992255D01*
X184141100Y-113997115D01*
X184105202Y-114014529D01*
X184060066Y-114017494D01*
X184017451Y-114006371D01*
X183997574Y-113992682D01*
X183976718Y-113955629D01*
X183971879Y-113922020D01*
X183982653Y-113875990D01*
X184011022Y-113843055D01*
X184051055Y-113825973D01*
X184096822Y-113827502D01*
G37*
G36*
X189773406Y-114363992D02*
G01*
X189802913Y-114393701D01*
X189817182Y-114434033D01*
X189817605Y-114442353D01*
X189807059Y-114486574D01*
X189779676Y-114516806D01*
X189741837Y-114530064D01*
X189699926Y-114523365D01*
X189675688Y-114508697D01*
X189651676Y-114475352D01*
X189647292Y-114436166D01*
X189659876Y-114398085D01*
X189686770Y-114368056D01*
X189725313Y-114353025D01*
X189735518Y-114352419D01*
X189773406Y-114363992D01*
G37*
G36*
X183582091Y-113561823D02*
G01*
X183621447Y-113580276D01*
X183646805Y-113613721D01*
X183657658Y-113655281D01*
X183653499Y-113698081D01*
X183633823Y-113735244D01*
X183598122Y-113759893D01*
X183596720Y-113760395D01*
X183567189Y-113769463D01*
X183549666Y-113772595D01*
X183549198Y-113772521D01*
X183531734Y-113768966D01*
X183511896Y-113765115D01*
X183483951Y-113748361D01*
X183461662Y-113716156D01*
X183448140Y-113663802D01*
X183456784Y-113617735D01*
X183484130Y-113582393D01*
X183526717Y-113562214D01*
X183581080Y-113561637D01*
X183582091Y-113561823D01*
G37*
G36*
X193515967Y-111043621D02*
G01*
X193545347Y-111059078D01*
X193546365Y-111060184D01*
X193573011Y-111107745D01*
X193575028Y-111162130D01*
X193568818Y-111186448D01*
X193543260Y-111227620D01*
X193502450Y-111251031D01*
X193451185Y-111254991D01*
X193406947Y-111243459D01*
X193378716Y-111219587D01*
X193362254Y-111180941D01*
X193358148Y-111135884D01*
X193366983Y-111092775D01*
X193389346Y-111059977D01*
X193393836Y-111056511D01*
X193429614Y-111042083D01*
X193473857Y-111037871D01*
X193515967Y-111043621D01*
G37*
G36*
X189032351Y-114098057D02*
G01*
X189072381Y-114103678D01*
X189096172Y-114116789D01*
X189109327Y-114134898D01*
X189122389Y-114178463D01*
X189115166Y-114217844D01*
X189092668Y-114249583D01*
X189059906Y-114270223D01*
X189021889Y-114276306D01*
X188983627Y-114264373D01*
X188956734Y-114240204D01*
X188936618Y-114202473D01*
X188936606Y-114167554D01*
X188949956Y-114125851D01*
X188972808Y-114103905D01*
X189011184Y-114097345D01*
X189032351Y-114098057D01*
G37*
G36*
X183600081Y-113834917D02*
G01*
X183624990Y-113851357D01*
X183645846Y-113888411D01*
X183650685Y-113922020D01*
X183640405Y-113970843D01*
X183610788Y-114003351D01*
X183563663Y-114017794D01*
X183549894Y-114018378D01*
X183503550Y-114010718D01*
X183479232Y-113994883D01*
X183464808Y-113966356D01*
X183458041Y-113928180D01*
X183457969Y-113924220D01*
X183468180Y-113874264D01*
X183497279Y-113840781D01*
X183542961Y-113826126D01*
X183554327Y-113825662D01*
X183600081Y-113834917D01*
G37*
G36*
X188294741Y-113569032D02*
G01*
X188326240Y-113587049D01*
X188345846Y-113619117D01*
X188353580Y-113662075D01*
X188349140Y-113705130D01*
X188332227Y-113737492D01*
X188330478Y-113739159D01*
X188289192Y-113761327D01*
X188237703Y-113768077D01*
X188214961Y-113765451D01*
X188180076Y-113746793D01*
X188157169Y-113711961D01*
X188148108Y-113668403D01*
X188154758Y-113623566D01*
X188171721Y-113592905D01*
X188205007Y-113570099D01*
X188249415Y-113562012D01*
X188294741Y-113569032D01*
G37*
G36*
X185589963Y-110510006D02*
G01*
X185596014Y-110512075D01*
X185633110Y-110529244D01*
X185654204Y-110553484D01*
X185663825Y-110577227D01*
X185673016Y-110635528D01*
X185661979Y-110685896D01*
X185632338Y-110723561D01*
X185609492Y-110736804D01*
X185579069Y-110748830D01*
X185557569Y-110752673D01*
X185532904Y-110748763D01*
X185503536Y-110740562D01*
X185461645Y-110716315D01*
X185435529Y-110675342D01*
X185427769Y-110622965D01*
X185431891Y-110592787D01*
X185445231Y-110556173D01*
X185469725Y-110531745D01*
X185493486Y-110518499D01*
X185528399Y-110503632D01*
X185555741Y-110501103D01*
X185589963Y-110510006D01*
G37*
G36*
X192730168Y-112637408D02*
G01*
X192753954Y-112665997D01*
X192759739Y-112700487D01*
X192752382Y-112742564D01*
X192728618Y-112765583D01*
X192689077Y-112772146D01*
X192655809Y-112767445D01*
X192633831Y-112756729D01*
X192621368Y-112729614D01*
X192619375Y-112692512D01*
X192627409Y-112658248D01*
X192637725Y-112643636D01*
X192665487Y-112630961D01*
X192689077Y-112627609D01*
X192730168Y-112637408D01*
G37*
G36*
X191258608Y-111045865D02*
G01*
X191293573Y-111070813D01*
X191294163Y-111071552D01*
X191317770Y-111117779D01*
X191319816Y-111163032D01*
X191304262Y-111203348D01*
X191275068Y-111234769D01*
X191236195Y-111253333D01*
X191191604Y-111255079D01*
X191145256Y-111236047D01*
X191136232Y-111229484D01*
X191110947Y-111194884D01*
X191100719Y-111149117D01*
X191106039Y-111102182D01*
X191127398Y-111064081D01*
X191128075Y-111063395D01*
X191165858Y-111041665D01*
X191212703Y-111035985D01*
X191258608Y-111045865D01*
G37*
G36*
X188307861Y-113308461D02*
G01*
X188334910Y-113325954D01*
X188351436Y-113358825D01*
X188358182Y-113403003D01*
X188354978Y-113447659D01*
X188341655Y-113481960D01*
X188337418Y-113486973D01*
X188308299Y-113502578D01*
X188265666Y-113511456D01*
X188221151Y-113512150D01*
X188190761Y-113505320D01*
X188162321Y-113480562D01*
X188145876Y-113441222D01*
X188142017Y-113395743D01*
X188151332Y-113352570D01*
X188174413Y-113320145D01*
X188177650Y-113317715D01*
X188216999Y-113301955D01*
X188263986Y-113299058D01*
X188307861Y-113308461D01*
G37*
G36*
X190533544Y-113827502D02*
G01*
X190572763Y-113845662D01*
X190593555Y-113874058D01*
X190602344Y-113914915D01*
X190598780Y-113957794D01*
X190582516Y-113992255D01*
X190577822Y-113997115D01*
X190541924Y-114014529D01*
X190496789Y-114017494D01*
X190454174Y-114006371D01*
X190434297Y-113992682D01*
X190413440Y-113955629D01*
X190408601Y-113922020D01*
X190419375Y-113875990D01*
X190447744Y-113843055D01*
X190487777Y-113825973D01*
X190533544Y-113827502D01*
G37*
G36*
X187322228Y-112098322D02*
G01*
X187355405Y-112121376D01*
X187374328Y-112159898D01*
X187376532Y-112181150D01*
X187365941Y-112225532D01*
X187338327Y-112255847D01*
X187299926Y-112268943D01*
X187256976Y-112261672D01*
X187238066Y-112251084D01*
X187217015Y-112227113D01*
X187209666Y-112189950D01*
X187209512Y-112181150D01*
X187214787Y-112140641D01*
X187233095Y-112114968D01*
X187238066Y-112111216D01*
X187281036Y-112093885D01*
X187322228Y-112098322D01*
G37*
G36*
X189082086Y-113306846D02*
G01*
X189117388Y-113331409D01*
X189134540Y-113373696D01*
X189136674Y-113402270D01*
X189126289Y-113453085D01*
X189098901Y-113491079D01*
X189060157Y-113513728D01*
X189015705Y-113518508D01*
X188971192Y-113502895D01*
X188949798Y-113485780D01*
X188925666Y-113450404D01*
X188918272Y-113404464D01*
X188918262Y-113402270D01*
X188926653Y-113350573D01*
X188952604Y-113317158D01*
X188997279Y-113300924D01*
X189027468Y-113298904D01*
X189082086Y-113306846D01*
G37*
G36*
X192479178Y-111840627D02*
G01*
X192507801Y-111861747D01*
X192519869Y-111900650D01*
X192520771Y-111920627D01*
X192509747Y-111964782D01*
X192480940Y-111996820D01*
X192440749Y-112013313D01*
X192395576Y-112010832D01*
X192371611Y-112000541D01*
X192350428Y-111975074D01*
X192340280Y-111936221D01*
X192342545Y-111894406D01*
X192353891Y-111866323D01*
X192373334Y-111845005D01*
X192400688Y-111835776D01*
X192430845Y-111834260D01*
X192479178Y-111840627D01*
G37*
G36*
X185596195Y-113834732D02*
G01*
X185630325Y-113863989D01*
X185647318Y-113897839D01*
X185648431Y-113931172D01*
X185638313Y-113969630D01*
X185620976Y-114000528D01*
X185612375Y-114008284D01*
X185586984Y-114015460D01*
X185549739Y-114017696D01*
X185513562Y-114014963D01*
X185493048Y-114008545D01*
X185471467Y-113983584D01*
X185454716Y-113947123D01*
X185449370Y-113918173D01*
X185457039Y-113891046D01*
X185475534Y-113860108D01*
X185475998Y-113859514D01*
X185512277Y-113830983D01*
X185554594Y-113823226D01*
X185596195Y-113834732D01*
G37*
G36*
X193501173Y-112367767D02*
G01*
X193530405Y-112393946D01*
X193543253Y-112436128D01*
X193543452Y-112442877D01*
X193536740Y-112484215D01*
X193514320Y-112507221D01*
X193472766Y-112515108D01*
X193466365Y-112515191D01*
X193431161Y-112511143D01*
X193406384Y-112501250D01*
X193404696Y-112499774D01*
X193391547Y-112472529D01*
X193388885Y-112435459D01*
X193395883Y-112399555D01*
X193411714Y-112375808D01*
X193414130Y-112374318D01*
X193460701Y-112360315D01*
X193501173Y-112367767D01*
G37*
G36*
X185589963Y-112771210D02*
G01*
X185596014Y-112773279D01*
X185633110Y-112790447D01*
X185654204Y-112814688D01*
X185663825Y-112838431D01*
X185673016Y-112896732D01*
X185661979Y-112947100D01*
X185632338Y-112984765D01*
X185609492Y-112998008D01*
X185579069Y-113010034D01*
X185557569Y-113013877D01*
X185532904Y-113009967D01*
X185503536Y-113001766D01*
X185461645Y-112977519D01*
X185435529Y-112936546D01*
X185427769Y-112884169D01*
X185431891Y-112853991D01*
X185445231Y-112817377D01*
X185469725Y-112792949D01*
X185493486Y-112779703D01*
X185528399Y-112764836D01*
X185555741Y-112762307D01*
X185589963Y-112771210D01*
G37*
G36*
X187597000Y-113307069D02*
G01*
X187631965Y-113332016D01*
X187632555Y-113332756D01*
X187652587Y-113372638D01*
X187659183Y-113410426D01*
X187648294Y-113457926D01*
X187619569Y-113493038D01*
X187578917Y-113513195D01*
X187532247Y-113515825D01*
X187485469Y-113498359D01*
X187474623Y-113490688D01*
X187449338Y-113456088D01*
X187439110Y-113410321D01*
X187444430Y-113363386D01*
X187465790Y-113325285D01*
X187466467Y-113324599D01*
X187504250Y-113302869D01*
X187551094Y-113297189D01*
X187597000Y-113307069D01*
G37*
G36*
X187087325Y-111047257D02*
G01*
X187114374Y-111064750D01*
X187130900Y-111097621D01*
X187137646Y-111141799D01*
X187134441Y-111186455D01*
X187121119Y-111220757D01*
X187116882Y-111225770D01*
X187087763Y-111241375D01*
X187045129Y-111250252D01*
X187000615Y-111250946D01*
X186970225Y-111244116D01*
X186941785Y-111219358D01*
X186925340Y-111180018D01*
X186921480Y-111134539D01*
X186930796Y-111091366D01*
X186953877Y-111058941D01*
X186957113Y-111056511D01*
X186996463Y-111040751D01*
X187043450Y-111037855D01*
X187087325Y-111047257D01*
G37*
G36*
X184634640Y-112367185D02*
G01*
X184650240Y-112376435D01*
X184661568Y-112401798D01*
X184665196Y-112439239D01*
X184661124Y-112476321D01*
X184650240Y-112499774D01*
X184622996Y-112512923D01*
X184585925Y-112515585D01*
X184550021Y-112508587D01*
X184526274Y-112492756D01*
X184524784Y-112490340D01*
X184512486Y-112447958D01*
X184516904Y-112406272D01*
X184531674Y-112381207D01*
X184560389Y-112366362D01*
X184598866Y-112361521D01*
X184634640Y-112367185D01*
G37*
G36*
X184101184Y-112099396D02*
G01*
X184123193Y-112111216D01*
X184145779Y-112140984D01*
X184153305Y-112181161D01*
X184145771Y-112221335D01*
X184123193Y-112251084D01*
X184079004Y-112269325D01*
X184036441Y-112263506D01*
X184010422Y-112245388D01*
X183986763Y-112207737D01*
X183984037Y-112168968D01*
X183998179Y-112133914D01*
X184025127Y-112107410D01*
X184060816Y-112094293D01*
X184101184Y-112099396D01*
G37*
G36*
X190020256Y-112098322D02*
G01*
X190053432Y-112121376D01*
X190072355Y-112159898D01*
X190074560Y-112181150D01*
X190063969Y-112225532D01*
X190036354Y-112255847D01*
X189997953Y-112268943D01*
X189955003Y-112261672D01*
X189936093Y-112251084D01*
X189915042Y-112227113D01*
X189907694Y-112189950D01*
X189907539Y-112181150D01*
X189912815Y-112140641D01*
X189931123Y-112114968D01*
X189936093Y-112111216D01*
X189979064Y-112093885D01*
X190020256Y-112098322D01*
G37*
G36*
X193514882Y-111841895D02*
G01*
X193536110Y-111854450D01*
X193553060Y-111886621D01*
X193556634Y-111928103D01*
X193547489Y-111967923D01*
X193527745Y-111994129D01*
X193483930Y-112011830D01*
X193438509Y-112009386D01*
X193402127Y-111988433D01*
X193381946Y-111953301D01*
X193377039Y-111910697D01*
X193387587Y-111871536D01*
X193399926Y-111855523D01*
X193432566Y-111839581D01*
X193474843Y-111835007D01*
X193514882Y-111841895D01*
G37*
G36*
X190546690Y-114099240D02*
G01*
X190571986Y-114112914D01*
X190581317Y-114124018D01*
X190599783Y-114167603D01*
X190597360Y-114208797D01*
X190578459Y-114243381D01*
X190547486Y-114267134D01*
X190508853Y-114275835D01*
X190466966Y-114265263D01*
X190447283Y-114252333D01*
X190424939Y-114221950D01*
X190418879Y-114181323D01*
X190424737Y-114134818D01*
X190444857Y-114107786D01*
X190483061Y-114096452D01*
X190505804Y-114095464D01*
X190546690Y-114099240D01*
G37*
G36*
X193518851Y-111312094D02*
G01*
X193552810Y-111341858D01*
X193568386Y-111388660D01*
X193569147Y-111403861D01*
X193558295Y-111453113D01*
X193528406Y-111488075D01*
X193483484Y-111505835D01*
X193431147Y-111504247D01*
X193395828Y-111484966D01*
X193372122Y-111446953D01*
X193363583Y-111396569D01*
X193373586Y-111348408D01*
X193403024Y-111316784D01*
X193451043Y-111302467D01*
X193468763Y-111301663D01*
X193518851Y-111312094D01*
G37*
G36*
X188047873Y-113308219D02*
G01*
X188084260Y-113335033D01*
X188101201Y-113377643D01*
X188097512Y-113434351D01*
X188094845Y-113444920D01*
X188071792Y-113485338D01*
X188032698Y-113509791D01*
X187983146Y-113516199D01*
X187934241Y-113504823D01*
X187906727Y-113481578D01*
X187887601Y-113443149D01*
X187880967Y-113399687D01*
X187883564Y-113379452D01*
X187902291Y-113334143D01*
X187933472Y-113308504D01*
X187981743Y-113299128D01*
X187993224Y-113298904D01*
X188047873Y-113308219D01*
G37*
G36*
X184353687Y-113561068D02*
G01*
X184393854Y-113580434D01*
X184422793Y-113615449D01*
X184434382Y-113663100D01*
X184434398Y-113665065D01*
X184427522Y-113703593D01*
X184411914Y-113734265D01*
X184379461Y-113757234D01*
X184336395Y-113769268D01*
X184296301Y-113766781D01*
X184293073Y-113765633D01*
X184252938Y-113740106D01*
X184232613Y-113700818D01*
X184228834Y-113664006D01*
X184232537Y-113623860D01*
X184247006Y-113596967D01*
X184264161Y-113581326D01*
X184308415Y-113560361D01*
X184353687Y-113561068D01*
G37*
G36*
X185826018Y-112096377D02*
G01*
X185869731Y-112113941D01*
X185892177Y-112145813D01*
X185893989Y-112192903D01*
X185893827Y-112193955D01*
X185876772Y-112239118D01*
X185846229Y-112265187D01*
X185807663Y-112270422D01*
X185766537Y-112253082D01*
X185750708Y-112239549D01*
X185724377Y-112201434D01*
X185723509Y-112164002D01*
X185748125Y-112125455D01*
X185752144Y-112121315D01*
X185780918Y-112098764D01*
X185810135Y-112094051D01*
X185826018Y-112096377D01*
G37*
G36*
X183598360Y-113037438D02*
G01*
X183637826Y-113061958D01*
X183664502Y-113102312D01*
X183669711Y-113140322D01*
X183663099Y-113184048D01*
X183647464Y-113223124D01*
X183625600Y-113247185D01*
X183625398Y-113247294D01*
X183584669Y-113259176D01*
X183537085Y-113259502D01*
X183493881Y-113249169D01*
X183471143Y-113234992D01*
X183442039Y-113189217D01*
X183436856Y-113134964D01*
X183444271Y-113102339D01*
X183469234Y-113061669D01*
X183507567Y-113037294D01*
X183552774Y-113029217D01*
X183598360Y-113037438D01*
G37*
G36*
X186804613Y-112101594D02*
G01*
X186836427Y-112127712D01*
X186855530Y-112162048D01*
X186856881Y-112191432D01*
X186835488Y-112236022D01*
X186799751Y-112262334D01*
X186754931Y-112267335D01*
X186734145Y-112262168D01*
X186701560Y-112239389D01*
X186685781Y-112205218D01*
X186685502Y-112166486D01*
X186699416Y-112130025D01*
X186726215Y-112102667D01*
X186764593Y-112091246D01*
X186766848Y-112091215D01*
X186804613Y-112101594D01*
G37*
G36*
X188552869Y-114363992D02*
G01*
X188582377Y-114393701D01*
X188596646Y-114434033D01*
X188597068Y-114442353D01*
X188586523Y-114486574D01*
X188559140Y-114516806D01*
X188521301Y-114530064D01*
X188479389Y-114523365D01*
X188455152Y-114508697D01*
X188431140Y-114475352D01*
X188426756Y-114436166D01*
X188439340Y-114398085D01*
X188466234Y-114368056D01*
X188504776Y-114353025D01*
X188514981Y-114352419D01*
X188552869Y-114363992D01*
G37*
G36*
X186827337Y-113308219D02*
G01*
X186863724Y-113335033D01*
X186880664Y-113377643D01*
X186876976Y-113434351D01*
X186874309Y-113444920D01*
X186851256Y-113485338D01*
X186812162Y-113509791D01*
X186762610Y-113516199D01*
X186713705Y-113504823D01*
X186686190Y-113481578D01*
X186667065Y-113443149D01*
X186660431Y-113399687D01*
X186663028Y-113379452D01*
X186681755Y-113334143D01*
X186712935Y-113308504D01*
X186761207Y-113299128D01*
X186772688Y-113298904D01*
X186827337Y-113308219D01*
G37*
G36*
X185596195Y-111573528D02*
G01*
X185630325Y-111602786D01*
X185647318Y-111636635D01*
X185648431Y-111669968D01*
X185638313Y-111708426D01*
X185620976Y-111739324D01*
X185612375Y-111747080D01*
X185586984Y-111754257D01*
X185549739Y-111756492D01*
X185513562Y-111753759D01*
X185493048Y-111747341D01*
X185471467Y-111722381D01*
X185454716Y-111685919D01*
X185449370Y-111656969D01*
X185457039Y-111629842D01*
X185475534Y-111598904D01*
X185475998Y-111598310D01*
X185512277Y-111569779D01*
X185554594Y-111562022D01*
X185596195Y-111573528D01*
G37*
G36*
X187597033Y-114101831D02*
G01*
X187625657Y-114122951D01*
X187637725Y-114161854D01*
X187638626Y-114181831D01*
X187627602Y-114225986D01*
X187598795Y-114258024D01*
X187558605Y-114274517D01*
X187513431Y-114272036D01*
X187489467Y-114261745D01*
X187468283Y-114236278D01*
X187458136Y-114197425D01*
X187460401Y-114155610D01*
X187471746Y-114127527D01*
X187491189Y-114106209D01*
X187518544Y-114096980D01*
X187548700Y-114095464D01*
X187597033Y-114101831D01*
G37*
G36*
X184378988Y-114104927D02*
G01*
X184409634Y-114132650D01*
X184421445Y-114177635D01*
X184421550Y-114183198D01*
X184410827Y-114227821D01*
X184382757Y-114259109D01*
X184343489Y-114274132D01*
X184299170Y-114269959D01*
X184270236Y-114255333D01*
X184249131Y-114231246D01*
X184241820Y-114193889D01*
X184241682Y-114185588D01*
X184249629Y-114137160D01*
X184274481Y-114107772D01*
X184317756Y-114095885D01*
X184330542Y-114095464D01*
X184378988Y-114104927D01*
G37*
G36*
X184372210Y-112636309D02*
G01*
X184392245Y-112651769D01*
X184406542Y-112688254D01*
X184400565Y-112723086D01*
X184379578Y-112751776D01*
X184348844Y-112769838D01*
X184313628Y-112772784D01*
X184279194Y-112756126D01*
X184274719Y-112751957D01*
X184256879Y-112717668D01*
X184258854Y-112676955D01*
X184271886Y-112650538D01*
X184298746Y-112632806D01*
X184336062Y-112628103D01*
X184372210Y-112636309D01*
G37*
G36*
X190992768Y-111307829D02*
G01*
X191024267Y-111325846D01*
X191043874Y-111357913D01*
X191051607Y-111400871D01*
X191047168Y-111443927D01*
X191030254Y-111476288D01*
X191028505Y-111477955D01*
X190987220Y-111500123D01*
X190935730Y-111506873D01*
X190912988Y-111504247D01*
X190878103Y-111485589D01*
X190855197Y-111450757D01*
X190846135Y-111407199D01*
X190852785Y-111362363D01*
X190869748Y-111331702D01*
X190903034Y-111308895D01*
X190947442Y-111300808D01*
X190992768Y-111307829D01*
G37*
G36*
X188037268Y-111573528D02*
G01*
X188071397Y-111602786D01*
X188088390Y-111636635D01*
X188089504Y-111669968D01*
X188079385Y-111708426D01*
X188062048Y-111739324D01*
X188053447Y-111747080D01*
X188028056Y-111754257D01*
X187990811Y-111756492D01*
X187954634Y-111753759D01*
X187934121Y-111747341D01*
X187912539Y-111722381D01*
X187895788Y-111685919D01*
X187890442Y-111656969D01*
X187898112Y-111629842D01*
X187916606Y-111598904D01*
X187917070Y-111598310D01*
X187953350Y-111569779D01*
X187995667Y-111562022D01*
X188037268Y-111573528D01*
G37*
G36*
X187345706Y-113308599D02*
G01*
X187381638Y-113336517D01*
X187398367Y-113380903D01*
X187397837Y-113420826D01*
X187380458Y-113470153D01*
X187347216Y-113503226D01*
X187303750Y-113517860D01*
X187255699Y-113511866D01*
X187217668Y-113490688D01*
X187192383Y-113456088D01*
X187182155Y-113410321D01*
X187187475Y-113363386D01*
X187208835Y-113325285D01*
X187209512Y-113324599D01*
X187243053Y-113304886D01*
X187292089Y-113298904D01*
X187345706Y-113308599D01*
G37*
G36*
X186794760Y-113561068D02*
G01*
X186834927Y-113580434D01*
X186863866Y-113615449D01*
X186875454Y-113663100D01*
X186875470Y-113665065D01*
X186868594Y-113703593D01*
X186852987Y-113734265D01*
X186820534Y-113757234D01*
X186777467Y-113769268D01*
X186737373Y-113766781D01*
X186734145Y-113765633D01*
X186694010Y-113740106D01*
X186673686Y-113700818D01*
X186669906Y-113664006D01*
X186673609Y-113623860D01*
X186688078Y-113596967D01*
X186705233Y-113581326D01*
X186749488Y-113560361D01*
X186794760Y-113561068D01*
G37*
G36*
X190548337Y-114632706D02*
G01*
X190577293Y-114660413D01*
X190588343Y-114699726D01*
X190578418Y-114745026D01*
X190575170Y-114751544D01*
X190553065Y-114769062D01*
X190517798Y-114776678D01*
X190480083Y-114773984D01*
X190450637Y-114760571D01*
X190446576Y-114756439D01*
X190434224Y-114729078D01*
X190430014Y-114699308D01*
X190439123Y-114655249D01*
X190466219Y-114629482D01*
X190504541Y-114622222D01*
X190548337Y-114632706D01*
G37*
G36*
X187046554Y-114357581D02*
G01*
X187090267Y-114375145D01*
X187112714Y-114407017D01*
X187114525Y-114454107D01*
X187114363Y-114455159D01*
X187097308Y-114500322D01*
X187066765Y-114526391D01*
X187028199Y-114531625D01*
X186987074Y-114514285D01*
X186971244Y-114500752D01*
X186944914Y-114462638D01*
X186944045Y-114425206D01*
X186968661Y-114386659D01*
X186972680Y-114382519D01*
X187001454Y-114359968D01*
X187030671Y-114355255D01*
X187046554Y-114357581D01*
G37*
G36*
X185359237Y-110517695D02*
G01*
X185385848Y-110537354D01*
X185404857Y-110571983D01*
X185411868Y-110618821D01*
X185406953Y-110667395D01*
X185390184Y-110707230D01*
X185384631Y-110714084D01*
X185360960Y-110734396D01*
X185342876Y-110742377D01*
X185317608Y-110744765D01*
X185301621Y-110747314D01*
X185266992Y-110748695D01*
X185248360Y-110746421D01*
X185211925Y-110727015D01*
X185185210Y-110690322D01*
X185170862Y-110643755D01*
X185171527Y-110594731D01*
X185182652Y-110562333D01*
X185214844Y-110526284D01*
X185260161Y-110506194D01*
X185310869Y-110503014D01*
X185359237Y-110517695D01*
G37*
G36*
X185606801Y-111047016D02*
G01*
X185643188Y-111073829D01*
X185660128Y-111116439D01*
X185656440Y-111173147D01*
X185653773Y-111183716D01*
X185630720Y-111224134D01*
X185591626Y-111248588D01*
X185542074Y-111254995D01*
X185493168Y-111243619D01*
X185465654Y-111220374D01*
X185446529Y-111181945D01*
X185439895Y-111138483D01*
X185442492Y-111118248D01*
X185461219Y-111072939D01*
X185492399Y-111047300D01*
X185540671Y-111037924D01*
X185552152Y-111037700D01*
X185606801Y-111047016D01*
G37*
G36*
X188557567Y-111839748D02*
G01*
X188583547Y-111858910D01*
X188595332Y-111895797D01*
X188597068Y-111929045D01*
X188586301Y-111970575D01*
X188558562Y-111999825D01*
X188520700Y-112014157D01*
X188479561Y-112010934D01*
X188442895Y-111988433D01*
X188421483Y-111950395D01*
X188419803Y-111904861D01*
X188437200Y-111862815D01*
X188457859Y-111843382D01*
X188489290Y-111835208D01*
X188513835Y-111834260D01*
X188557567Y-111839748D01*
G37*
G36*
X185584077Y-112101594D02*
G01*
X185615891Y-112127712D01*
X185634993Y-112162048D01*
X185636345Y-112191432D01*
X185614952Y-112236022D01*
X185579215Y-112262334D01*
X185534395Y-112267335D01*
X185513609Y-112262168D01*
X185481024Y-112239389D01*
X185465245Y-112205218D01*
X185464966Y-112166486D01*
X185478880Y-112130025D01*
X185505679Y-112102667D01*
X185544056Y-112091246D01*
X185546312Y-112091215D01*
X185584077Y-112101594D01*
G37*
G36*
X189528397Y-113308461D02*
G01*
X189555446Y-113325954D01*
X189571973Y-113358825D01*
X189578718Y-113403003D01*
X189575514Y-113447659D01*
X189562192Y-113481960D01*
X189557955Y-113486973D01*
X189528836Y-113502578D01*
X189486202Y-113511456D01*
X189441687Y-113512150D01*
X189411297Y-113505320D01*
X189382857Y-113480562D01*
X189366412Y-113441222D01*
X189362553Y-113395743D01*
X189371868Y-113352570D01*
X189394949Y-113320145D01*
X189398186Y-113317715D01*
X189437536Y-113301955D01*
X189484522Y-113299058D01*
X189528397Y-113308461D01*
G37*
G36*
X186827389Y-113039438D02*
G01*
X186865768Y-113069104D01*
X186885806Y-113116077D01*
X186888318Y-113144731D01*
X186878327Y-113199384D01*
X186849105Y-113237277D01*
X186801780Y-113257328D01*
X186767781Y-113260361D01*
X186727009Y-113257074D01*
X186700383Y-113244252D01*
X186683686Y-113226509D01*
X186659020Y-113178153D01*
X186655835Y-113128902D01*
X186671642Y-113084279D01*
X186703953Y-113049805D01*
X186750277Y-113031000D01*
X186772688Y-113029101D01*
X186827389Y-113039438D01*
G37*
G36*
X188799720Y-114359526D02*
G01*
X188832896Y-114382580D01*
X188851819Y-114421102D01*
X188854023Y-114442353D01*
X188843433Y-114486736D01*
X188815818Y-114517051D01*
X188777417Y-114530147D01*
X188734467Y-114522875D01*
X188715557Y-114512288D01*
X188694506Y-114488317D01*
X188687157Y-114451154D01*
X188687003Y-114442353D01*
X188692278Y-114401845D01*
X188710586Y-114376171D01*
X188715557Y-114372419D01*
X188758528Y-114355089D01*
X188799720Y-114359526D01*
G37*
G36*
X184649510Y-111583480D02*
G01*
X184677067Y-111616067D01*
X184687884Y-111660476D01*
X184686383Y-111680041D01*
X184675418Y-111715121D01*
X184658578Y-111739880D01*
X184657071Y-111741072D01*
X184620098Y-111755336D01*
X184575437Y-111756008D01*
X184534891Y-111743952D01*
X184517330Y-111730839D01*
X184497197Y-111692495D01*
X184494010Y-111647799D01*
X184507349Y-111606961D01*
X184523186Y-111588498D01*
X184566891Y-111566510D01*
X184610892Y-111565899D01*
X184649510Y-111583480D01*
G37*
G36*
X190999067Y-111570150D02*
G01*
X191007310Y-111574290D01*
X191035109Y-111606404D01*
X191048183Y-111649766D01*
X191045413Y-111694589D01*
X191025679Y-111731089D01*
X191025293Y-111731478D01*
X190990825Y-111751130D01*
X190947215Y-111757423D01*
X190905327Y-111750194D01*
X190879535Y-111733679D01*
X190862106Y-111699321D01*
X190857575Y-111656296D01*
X190865438Y-111614960D01*
X190885189Y-111585666D01*
X190886827Y-111584458D01*
X190921489Y-111569959D01*
X190963178Y-111564829D01*
X190999067Y-111570150D01*
G37*
G36*
X189519232Y-114103099D02*
G01*
X189540460Y-114115654D01*
X189557410Y-114147825D01*
X189560984Y-114189307D01*
X189551839Y-114229127D01*
X189532095Y-114255333D01*
X189488280Y-114273034D01*
X189442859Y-114270590D01*
X189406477Y-114249637D01*
X189386296Y-114214505D01*
X189381389Y-114171901D01*
X189391937Y-114132740D01*
X189404276Y-114116727D01*
X189436916Y-114100785D01*
X189479193Y-114096211D01*
X189519232Y-114103099D01*
G37*
G36*
X192036246Y-111843723D02*
G01*
X192066892Y-111871446D01*
X192078703Y-111916431D01*
X192078808Y-111921994D01*
X192068085Y-111966617D01*
X192040016Y-111997905D01*
X192000747Y-112012929D01*
X191956429Y-112008756D01*
X191927494Y-111994129D01*
X191906390Y-111970042D01*
X191899079Y-111932685D01*
X191898940Y-111924384D01*
X191906887Y-111875956D01*
X191931739Y-111846568D01*
X191975014Y-111834681D01*
X191987801Y-111834260D01*
X192036246Y-111843723D01*
G37*
G36*
X186816731Y-113834732D02*
G01*
X186850861Y-113863989D01*
X186867854Y-113897839D01*
X186868968Y-113931172D01*
X186858849Y-113969630D01*
X186841512Y-114000528D01*
X186832911Y-114008284D01*
X186807520Y-114015460D01*
X186770275Y-114017696D01*
X186734098Y-114014963D01*
X186713585Y-114008545D01*
X186692003Y-113983584D01*
X186675252Y-113947123D01*
X186669906Y-113918173D01*
X186677575Y-113891046D01*
X186696070Y-113860108D01*
X186696534Y-113859514D01*
X186732813Y-113830983D01*
X186775131Y-113823226D01*
X186816731Y-113834732D01*
G37*
G36*
X185606852Y-110778234D02*
G01*
X185645232Y-110807900D01*
X185665270Y-110854874D01*
X185667782Y-110883527D01*
X185657790Y-110938180D01*
X185628569Y-110976073D01*
X185581244Y-110996124D01*
X185547245Y-110999157D01*
X185506473Y-110995870D01*
X185479847Y-110983048D01*
X185463150Y-110965305D01*
X185438483Y-110916949D01*
X185435298Y-110867699D01*
X185451106Y-110823075D01*
X185483417Y-110788601D01*
X185529741Y-110769796D01*
X185552152Y-110767897D01*
X185606852Y-110778234D01*
G37*
G36*
X188296717Y-113835906D02*
G01*
X188327494Y-113860989D01*
X188345933Y-113900650D01*
X188348190Y-113945088D01*
X188334879Y-113984449D01*
X188318680Y-114002276D01*
X188289229Y-114013390D01*
X188248502Y-114017875D01*
X188209575Y-114015121D01*
X188189956Y-114008284D01*
X188170353Y-113983883D01*
X188156932Y-113946070D01*
X188153423Y-113907013D01*
X188155268Y-113895133D01*
X188176393Y-113856697D01*
X188212013Y-113833021D01*
X188254624Y-113825595D01*
X188296717Y-113835906D01*
G37*
G36*
X186549122Y-111304375D02*
G01*
X186587229Y-111324068D01*
X186598874Y-111336570D01*
X186615644Y-111379311D01*
X186615629Y-111427478D01*
X186599078Y-111469118D01*
X186596032Y-111473061D01*
X186563579Y-111496030D01*
X186520512Y-111508064D01*
X186480418Y-111505577D01*
X186477190Y-111504429D01*
X186436539Y-111478279D01*
X186416328Y-111438146D01*
X186413148Y-111405082D01*
X186416044Y-111361366D01*
X186427373Y-111334075D01*
X186451710Y-111314228D01*
X186462483Y-111308250D01*
X186503773Y-111298320D01*
X186549122Y-111304375D01*
G37*
G36*
X192496559Y-111319400D02*
G01*
X192523824Y-111355615D01*
X192532859Y-111404389D01*
X192527322Y-111440658D01*
X192509894Y-111477206D01*
X192478472Y-111497759D01*
X192474887Y-111499061D01*
X192445669Y-111508663D01*
X192426041Y-111510700D01*
X192401677Y-111505588D01*
X192387257Y-111501595D01*
X192352676Y-111479708D01*
X192331658Y-111440879D01*
X192327625Y-111391778D01*
X192328273Y-111386655D01*
X192340896Y-111340947D01*
X192365607Y-111313917D01*
X192401739Y-111300697D01*
X192454663Y-111299756D01*
X192496559Y-111319400D01*
G37*
G36*
X184112960Y-111041359D02*
G01*
X184151061Y-111062719D01*
X184151747Y-111063395D01*
X184173478Y-111101179D01*
X184179157Y-111148023D01*
X184169278Y-111193929D01*
X184144330Y-111228894D01*
X184143591Y-111229484D01*
X184096508Y-111252440D01*
X184046461Y-111253828D01*
X184001249Y-111233896D01*
X183990566Y-111224576D01*
X183964738Y-111182102D01*
X183960159Y-111132619D01*
X183977079Y-111083926D01*
X183985659Y-111071552D01*
X184020259Y-111046267D01*
X184066026Y-111036039D01*
X184112960Y-111041359D01*
G37*
G36*
X188817536Y-113307069D02*
G01*
X188852501Y-113332016D01*
X188853091Y-113332756D01*
X188876698Y-113378983D01*
X188878744Y-113424236D01*
X188863189Y-113464552D01*
X188833996Y-113495973D01*
X188795123Y-113514537D01*
X188750532Y-113516283D01*
X188704183Y-113497251D01*
X188695159Y-113490688D01*
X188669874Y-113456088D01*
X188659646Y-113410321D01*
X188664966Y-113363386D01*
X188686326Y-113325285D01*
X188687003Y-113324599D01*
X188724786Y-113302869D01*
X188771631Y-113297189D01*
X188817536Y-113307069D01*
G37*
G36*
X186554033Y-113302563D02*
G01*
X186592134Y-113323923D01*
X186592820Y-113324599D01*
X186614550Y-113362383D01*
X186620230Y-113409227D01*
X186610350Y-113455132D01*
X186585402Y-113490098D01*
X186584663Y-113490688D01*
X186537580Y-113513644D01*
X186487533Y-113515032D01*
X186442322Y-113495100D01*
X186431639Y-113485780D01*
X186405810Y-113443306D01*
X186401231Y-113393823D01*
X186418151Y-113345130D01*
X186426731Y-113332756D01*
X186461331Y-113307471D01*
X186507098Y-113297243D01*
X186554033Y-113302563D01*
G37*
G36*
X184633132Y-111307829D02*
G01*
X184664631Y-111325846D01*
X184684238Y-111357913D01*
X184691972Y-111400871D01*
X184687532Y-111443927D01*
X184670618Y-111476288D01*
X184668869Y-111477955D01*
X184627584Y-111500123D01*
X184576095Y-111506873D01*
X184553352Y-111504247D01*
X184518467Y-111485589D01*
X184495561Y-111450757D01*
X184486499Y-111407199D01*
X184493150Y-111362363D01*
X184510113Y-111331702D01*
X184543398Y-111308895D01*
X184587806Y-111300808D01*
X184633132Y-111307829D01*
G37*
G36*
X191007314Y-111047395D02*
G01*
X191043247Y-111075313D01*
X191059975Y-111119699D01*
X191059445Y-111159622D01*
X191042067Y-111208949D01*
X191008824Y-111242022D01*
X190965358Y-111256656D01*
X190917308Y-111250662D01*
X190879277Y-111229484D01*
X190853992Y-111194884D01*
X190843764Y-111149117D01*
X190849084Y-111102182D01*
X190870443Y-111064081D01*
X190871120Y-111063395D01*
X190904661Y-111043682D01*
X190953698Y-111037700D01*
X191007314Y-111047395D01*
G37*
G36*
X190055487Y-111319400D02*
G01*
X190082752Y-111355615D01*
X190091786Y-111404389D01*
X190086250Y-111440658D01*
X190068822Y-111477206D01*
X190037400Y-111497759D01*
X190033815Y-111499061D01*
X190004596Y-111508663D01*
X189984968Y-111510700D01*
X189960605Y-111505588D01*
X189946185Y-111501595D01*
X189911603Y-111479708D01*
X189890585Y-111440879D01*
X189886552Y-111391778D01*
X189887201Y-111386655D01*
X189899824Y-111340947D01*
X189924534Y-111313917D01*
X189960666Y-111300697D01*
X190013591Y-111299756D01*
X190055487Y-111319400D01*
G37*
G36*
X183585027Y-114357316D02*
G01*
X183617570Y-114380518D01*
X183635796Y-114420454D01*
X183637837Y-114442353D01*
X183627634Y-114489156D01*
X183599340Y-114520373D01*
X183556426Y-114532267D01*
X183554327Y-114532288D01*
X183523648Y-114525027D01*
X183499371Y-114512288D01*
X183476785Y-114482519D01*
X183469259Y-114442342D01*
X183476793Y-114402168D01*
X183499371Y-114372419D01*
X183543762Y-114353674D01*
X183585027Y-114357316D01*
G37*
G36*
X188304880Y-113039438D02*
G01*
X188343259Y-113069104D01*
X188363297Y-113116077D01*
X188365809Y-113144731D01*
X188355472Y-113199431D01*
X188325806Y-113237810D01*
X188278833Y-113257849D01*
X188250179Y-113260361D01*
X188203785Y-113253825D01*
X188168607Y-113231292D01*
X188166085Y-113228825D01*
X188142170Y-113194018D01*
X188134583Y-113148876D01*
X188134550Y-113144731D01*
X188144887Y-113090030D01*
X188174552Y-113051651D01*
X188221526Y-113031613D01*
X188250179Y-113029101D01*
X188304880Y-113039438D01*
G37*
G36*
X188566242Y-111047395D02*
G01*
X188602175Y-111075313D01*
X188618903Y-111119699D01*
X188618373Y-111159622D01*
X188600994Y-111208949D01*
X188567752Y-111242022D01*
X188524286Y-111256656D01*
X188476235Y-111250662D01*
X188438204Y-111229484D01*
X188412919Y-111194884D01*
X188402691Y-111149117D01*
X188408011Y-111102182D01*
X188429371Y-111064081D01*
X188430048Y-111063395D01*
X188463589Y-111043682D01*
X188512626Y-111037700D01*
X188566242Y-111047395D01*
G37*
G36*
X192719776Y-112096112D02*
G01*
X192752320Y-112119314D01*
X192770545Y-112159250D01*
X192772587Y-112181150D01*
X192762384Y-112227952D01*
X192734089Y-112259169D01*
X192691176Y-112271063D01*
X192689077Y-112271084D01*
X192658397Y-112263823D01*
X192634120Y-112251084D01*
X192613069Y-112227113D01*
X192605721Y-112189950D01*
X192605566Y-112181150D01*
X192610842Y-112140641D01*
X192629150Y-112114968D01*
X192634120Y-112111216D01*
X192678511Y-112092471D01*
X192719776Y-112096112D01*
G37*
G36*
X192020799Y-112101594D02*
G01*
X192052613Y-112127712D01*
X192071716Y-112162048D01*
X192073067Y-112191432D01*
X192053350Y-112231657D01*
X192020507Y-112258925D01*
X191981467Y-112270691D01*
X191943161Y-112264409D01*
X191920203Y-112247589D01*
X191900987Y-112210307D01*
X191900650Y-112168774D01*
X191916277Y-112130245D01*
X191944953Y-112101975D01*
X191983034Y-112091215D01*
X192020799Y-112101594D01*
G37*
G36*
X186537894Y-111566298D02*
G01*
X186577113Y-111584458D01*
X186597906Y-111612854D01*
X186606694Y-111653711D01*
X186603130Y-111696590D01*
X186586866Y-111731051D01*
X186582172Y-111735911D01*
X186546274Y-111753325D01*
X186501139Y-111756290D01*
X186458524Y-111745168D01*
X186438647Y-111731478D01*
X186417790Y-111694425D01*
X186412951Y-111660816D01*
X186423725Y-111614786D01*
X186452094Y-111581851D01*
X186492127Y-111564769D01*
X186537894Y-111566298D01*
G37*
G36*
X183612597Y-112778003D02*
G01*
X183652228Y-112807485D01*
X183673203Y-112854329D01*
X183676381Y-112887776D01*
X183665257Y-112941054D01*
X183634640Y-112981204D01*
X183588658Y-113005208D01*
X183531442Y-113010046D01*
X183512828Y-113007334D01*
X183474208Y-112988018D01*
X183447520Y-112951986D01*
X183434411Y-112906070D01*
X183436526Y-112857100D01*
X183455513Y-112811908D01*
X183463287Y-112801770D01*
X183487361Y-112778905D01*
X183514373Y-112768728D01*
X183555438Y-112767007D01*
X183612597Y-112778003D01*
G37*
G36*
X188040596Y-111843723D02*
G01*
X188071242Y-111871446D01*
X188083053Y-111916431D01*
X188083159Y-111921994D01*
X188072436Y-111966617D01*
X188044366Y-111997905D01*
X188005097Y-112012929D01*
X187960779Y-112008756D01*
X187931844Y-111994129D01*
X187910740Y-111970042D01*
X187903429Y-111932685D01*
X187903290Y-111924384D01*
X187911237Y-111875956D01*
X187936089Y-111846568D01*
X187979364Y-111834681D01*
X187992151Y-111834260D01*
X188040596Y-111843723D01*
G37*
G36*
X188015296Y-111299864D02*
G01*
X188055463Y-111319231D01*
X188084402Y-111354245D01*
X188095990Y-111401896D01*
X188096006Y-111403861D01*
X188089131Y-111442389D01*
X188073523Y-111473061D01*
X188041070Y-111496030D01*
X187998003Y-111508064D01*
X187957909Y-111505577D01*
X187954681Y-111504429D01*
X187914546Y-111478902D01*
X187894222Y-111439614D01*
X187890442Y-111402802D01*
X187894145Y-111362656D01*
X187908614Y-111335763D01*
X187925770Y-111320122D01*
X187970024Y-111299157D01*
X188015296Y-111299864D01*
G37*
G36*
X183841982Y-112096112D02*
G01*
X183874525Y-112119314D01*
X183892751Y-112159250D01*
X183894792Y-112181150D01*
X183889517Y-112221658D01*
X183871209Y-112247332D01*
X183866238Y-112251084D01*
X183822049Y-112269325D01*
X183779486Y-112263506D01*
X183753467Y-112245388D01*
X183732418Y-112209768D01*
X183727736Y-112168053D01*
X183739213Y-112130055D01*
X183756326Y-112111216D01*
X183800716Y-112092471D01*
X183841982Y-112096112D01*
G37*
G36*
X185584077Y-114362797D02*
G01*
X185615891Y-114388916D01*
X185634993Y-114423251D01*
X185636345Y-114452636D01*
X185614952Y-114497226D01*
X185579215Y-114523538D01*
X185534395Y-114528539D01*
X185513609Y-114523372D01*
X185481024Y-114500593D01*
X185465245Y-114466422D01*
X185464966Y-114427689D01*
X185478880Y-114391228D01*
X185505679Y-114363871D01*
X185544056Y-114352449D01*
X185546312Y-114352419D01*
X185584077Y-114362797D01*
G37*
G36*
X185331179Y-114363113D02*
G01*
X185360934Y-114393164D01*
X185372254Y-114439524D01*
X185372283Y-114442353D01*
X185367008Y-114482862D01*
X185348700Y-114508536D01*
X185343729Y-114512288D01*
X185299540Y-114530529D01*
X185256977Y-114524710D01*
X185230958Y-114506592D01*
X185210026Y-114470759D01*
X185207573Y-114430169D01*
X185221015Y-114392078D01*
X185247763Y-114363744D01*
X185285231Y-114352422D01*
X185285914Y-114352419D01*
X185331179Y-114363113D01*
G37*
G36*
X183608311Y-113307731D02*
G01*
X183644214Y-113334296D01*
X183661665Y-113378721D01*
X183663533Y-113404692D01*
X183652971Y-113454564D01*
X183625177Y-113491766D01*
X183585992Y-113513765D01*
X183541252Y-113518029D01*
X183496799Y-113502023D01*
X183476656Y-113485780D01*
X183452524Y-113450404D01*
X183445131Y-113404464D01*
X183445121Y-113402270D01*
X183453562Y-113350512D01*
X183479614Y-113317054D01*
X183524367Y-113300855D01*
X183553826Y-113298904D01*
X183608311Y-113307731D01*
G37*
G36*
X192037073Y-111574673D02*
G01*
X192069662Y-111603979D01*
X192083579Y-111650370D01*
X192083948Y-111660816D01*
X192073699Y-111710083D01*
X192044526Y-111742895D01*
X191998787Y-111756850D01*
X191989339Y-111757174D01*
X191951613Y-111752876D01*
X191922340Y-111742394D01*
X191920374Y-111741072D01*
X191903344Y-111717863D01*
X191891606Y-111683118D01*
X191891062Y-111680041D01*
X191893768Y-111629702D01*
X191917128Y-111591000D01*
X191957394Y-111568412D01*
X191987815Y-111564458D01*
X192037073Y-111574673D01*
G37*
G36*
X188566242Y-113308599D02*
G01*
X188602175Y-113336517D01*
X188618903Y-113380903D01*
X188618373Y-113420826D01*
X188600994Y-113470153D01*
X188567752Y-113503226D01*
X188524286Y-113517860D01*
X188476235Y-113511866D01*
X188438204Y-113490688D01*
X188412919Y-113456088D01*
X188402691Y-113410321D01*
X188408011Y-113363386D01*
X188429371Y-113325285D01*
X188430048Y-113324599D01*
X188463589Y-113304886D01*
X188512626Y-113298904D01*
X188566242Y-113308599D01*
G37*
G36*
X187322228Y-114359526D02*
G01*
X187355405Y-114382580D01*
X187374328Y-114421102D01*
X187376532Y-114442353D01*
X187365941Y-114486736D01*
X187338327Y-114517051D01*
X187299926Y-114530147D01*
X187256976Y-114522875D01*
X187238066Y-114512288D01*
X187217015Y-114488317D01*
X187209666Y-114451154D01*
X187209512Y-114442353D01*
X187214787Y-114401845D01*
X187233095Y-114376171D01*
X187238066Y-114372419D01*
X187281036Y-114355089D01*
X187322228Y-114359526D01*
G37*
G36*
X187345706Y-111047395D02*
G01*
X187381638Y-111075313D01*
X187398367Y-111119699D01*
X187397837Y-111159622D01*
X187380458Y-111208949D01*
X187347216Y-111242022D01*
X187303750Y-111256656D01*
X187255699Y-111250662D01*
X187217668Y-111229484D01*
X187192383Y-111194884D01*
X187182155Y-111149117D01*
X187187475Y-111102182D01*
X187208835Y-111064081D01*
X187209512Y-111063395D01*
X187243053Y-111043682D01*
X187292089Y-111037700D01*
X187345706Y-111047395D01*
G37*
G36*
X189082086Y-111045643D02*
G01*
X189117388Y-111070205D01*
X189134540Y-111112492D01*
X189136674Y-111141066D01*
X189126289Y-111191881D01*
X189098901Y-111229875D01*
X189060157Y-111252524D01*
X189015705Y-111257304D01*
X188971192Y-111241691D01*
X188949798Y-111224576D01*
X188925666Y-111189200D01*
X188918272Y-111143260D01*
X188918262Y-111141066D01*
X188926653Y-111089369D01*
X188952604Y-111055954D01*
X188997279Y-111039720D01*
X189027468Y-111037700D01*
X189082086Y-111045643D01*
G37*
G36*
X192455588Y-111566153D02*
G01*
X192494301Y-111585699D01*
X192520492Y-111620698D01*
X192528480Y-111660816D01*
X192518200Y-111709639D01*
X192488582Y-111742148D01*
X192441458Y-111756590D01*
X192427689Y-111757174D01*
X192381344Y-111749514D01*
X192357026Y-111733679D01*
X192339597Y-111699321D01*
X192335066Y-111656296D01*
X192342930Y-111614960D01*
X192362680Y-111585666D01*
X192364318Y-111584458D01*
X192410284Y-111564820D01*
X192455588Y-111566153D01*
G37*
G36*
X193515296Y-111575254D02*
G01*
X193549361Y-111603802D01*
X193566172Y-111644338D01*
X193562281Y-111691098D01*
X193554376Y-111709839D01*
X193533802Y-111739472D01*
X193506937Y-111753414D01*
X193466365Y-111756780D01*
X193431965Y-111754243D01*
X193408469Y-111748060D01*
X193407262Y-111747341D01*
X193382440Y-111717850D01*
X193368976Y-111676877D01*
X193369916Y-111643559D01*
X193390896Y-111596732D01*
X193426146Y-111570925D01*
X193467424Y-111564458D01*
X193515296Y-111575254D01*
G37*
G36*
X190020256Y-114359526D02*
G01*
X190053432Y-114382580D01*
X190072355Y-114421102D01*
X190074560Y-114442353D01*
X190063969Y-114486736D01*
X190036354Y-114517051D01*
X189997953Y-114530147D01*
X189955003Y-114522875D01*
X189936093Y-114512288D01*
X189915042Y-114488317D01*
X189907694Y-114451154D01*
X189907539Y-114442353D01*
X189912815Y-114401845D01*
X189931123Y-114376171D01*
X189936093Y-114372419D01*
X189979064Y-114355089D01*
X190020256Y-114359526D01*
G37*
G36*
X184646251Y-113308458D02*
G01*
X184673302Y-113325948D01*
X184690757Y-113359808D01*
X184697856Y-113404368D01*
X184694345Y-113448852D01*
X184679969Y-113482480D01*
X184677061Y-113485723D01*
X184646037Y-113502698D01*
X184602069Y-113511513D01*
X184556986Y-113510826D01*
X184528222Y-113502611D01*
X184498726Y-113474678D01*
X184482644Y-113433208D01*
X184480549Y-113386922D01*
X184493017Y-113344541D01*
X184516041Y-113317715D01*
X184555389Y-113301957D01*
X184602375Y-113299059D01*
X184646251Y-113308458D01*
G37*
G36*
X185606801Y-113308219D02*
G01*
X185643188Y-113335033D01*
X185660128Y-113377643D01*
X185656440Y-113434351D01*
X185653773Y-113444920D01*
X185630720Y-113485338D01*
X185591626Y-113509791D01*
X185542074Y-113516199D01*
X185493168Y-113504823D01*
X185465654Y-113481578D01*
X185446529Y-113443149D01*
X185439895Y-113399687D01*
X185442492Y-113379452D01*
X185461219Y-113334143D01*
X185492399Y-113308504D01*
X185540671Y-113299128D01*
X185552152Y-113298904D01*
X185606801Y-113308219D01*
G37*
G36*
X189517253Y-113835906D02*
G01*
X189548030Y-113860989D01*
X189566469Y-113900650D01*
X189568726Y-113945088D01*
X189555416Y-113984449D01*
X189539216Y-114002276D01*
X189509765Y-114013390D01*
X189469038Y-114017875D01*
X189430111Y-114015121D01*
X189410492Y-114008284D01*
X189390889Y-113983883D01*
X189377468Y-113946070D01*
X189373959Y-113907013D01*
X189375804Y-113895133D01*
X189396929Y-113856697D01*
X189432550Y-113833021D01*
X189475160Y-113825595D01*
X189517253Y-113835906D01*
G37*
G36*
X190554644Y-113567245D02*
G01*
X190584190Y-113588955D01*
X190605857Y-113615724D01*
X190612627Y-113643876D01*
X190610287Y-113674233D01*
X190601755Y-113711765D01*
X190589344Y-113739594D01*
X190586071Y-113743632D01*
X190557274Y-113759570D01*
X190517335Y-113768566D01*
X190480463Y-113767860D01*
X190472840Y-113765633D01*
X190432189Y-113739483D01*
X190411978Y-113699350D01*
X190408798Y-113666285D01*
X190411749Y-113622379D01*
X190423082Y-113595047D01*
X190447134Y-113575490D01*
X190455936Y-113570630D01*
X190506659Y-113556522D01*
X190554644Y-113567245D01*
G37*
G36*
X185574224Y-113561068D02*
G01*
X185614390Y-113580434D01*
X185643329Y-113615449D01*
X185654918Y-113663100D01*
X185654934Y-113665065D01*
X185648058Y-113703593D01*
X185632450Y-113734265D01*
X185599998Y-113757234D01*
X185556931Y-113769268D01*
X185516837Y-113766781D01*
X185513609Y-113765633D01*
X185473474Y-113740106D01*
X185453149Y-113700818D01*
X185449370Y-113664006D01*
X185453073Y-113623860D01*
X185467542Y-113596967D01*
X185484697Y-113581326D01*
X185528952Y-113560361D01*
X185574224Y-113561068D01*
G37*
G36*
X190038072Y-111045865D02*
G01*
X190073037Y-111070813D01*
X190073627Y-111071552D01*
X190097234Y-111117779D01*
X190099280Y-111163032D01*
X190083726Y-111203348D01*
X190054532Y-111234769D01*
X190015659Y-111253333D01*
X189971068Y-111255079D01*
X189924719Y-111236047D01*
X189915695Y-111229484D01*
X189890410Y-111194884D01*
X189880182Y-111149117D01*
X189885503Y-111102182D01*
X189906862Y-111064081D01*
X189907539Y-111063395D01*
X189945322Y-111041665D01*
X189992167Y-111035985D01*
X190038072Y-111045865D01*
G37*
G36*
X188303004Y-112771482D02*
G01*
X188343449Y-112798877D01*
X188368486Y-112843881D01*
X188370437Y-112851190D01*
X188373728Y-112909938D01*
X188356191Y-112957913D01*
X188321564Y-112991879D01*
X188273584Y-113008600D01*
X188215987Y-113004841D01*
X188198835Y-112999744D01*
X188159877Y-112974330D01*
X188136230Y-112935013D01*
X188128043Y-112888635D01*
X188135468Y-112842041D01*
X188158656Y-112802075D01*
X188193928Y-112777088D01*
X188251661Y-112763588D01*
X188303004Y-112771482D01*
G37*
G36*
X183593989Y-114099068D02*
G01*
X183620551Y-114110306D01*
X183625472Y-114115318D01*
X183640185Y-114150192D01*
X183641123Y-114194133D01*
X183628866Y-114234894D01*
X183619144Y-114248998D01*
X183586260Y-114269188D01*
X183544617Y-114274924D01*
X183505801Y-114265650D01*
X183491025Y-114255163D01*
X183466331Y-114214464D01*
X183461807Y-114167661D01*
X183472468Y-114134898D01*
X183490060Y-114112940D01*
X183516711Y-114101910D01*
X183549444Y-114098057D01*
X183593989Y-114099068D01*
G37*
G36*
X190537906Y-114360599D02*
G01*
X190559915Y-114372419D01*
X190582501Y-114402188D01*
X190590027Y-114442365D01*
X190582493Y-114482539D01*
X190559915Y-114512288D01*
X190515727Y-114530529D01*
X190473164Y-114524710D01*
X190447144Y-114506592D01*
X190423485Y-114468941D01*
X190420759Y-114430171D01*
X190434901Y-114395117D01*
X190461849Y-114368614D01*
X190497539Y-114355497D01*
X190537906Y-114360599D01*
G37*
G36*
X185331179Y-112101909D02*
G01*
X185360934Y-112131960D01*
X185372254Y-112178320D01*
X185372283Y-112181150D01*
X185367008Y-112221658D01*
X185348700Y-112247332D01*
X185343729Y-112251084D01*
X185299540Y-112269325D01*
X185256977Y-112263506D01*
X185230958Y-112245388D01*
X185210026Y-112209556D01*
X185207573Y-112168965D01*
X185221015Y-112130874D01*
X185247763Y-112102540D01*
X185285231Y-112091219D01*
X185285914Y-112091215D01*
X185331179Y-112101909D01*
G37*
G36*
X190038106Y-111840627D02*
G01*
X190066729Y-111861747D01*
X190078797Y-111900650D01*
X190079699Y-111920627D01*
X190068674Y-111964782D01*
X190039867Y-111996820D01*
X189999677Y-112013313D01*
X189954503Y-112010832D01*
X189930539Y-112000541D01*
X189909355Y-111975074D01*
X189899208Y-111936221D01*
X189901473Y-111894406D01*
X189912818Y-111866323D01*
X189932261Y-111845005D01*
X189959616Y-111835776D01*
X189989772Y-111834260D01*
X190038106Y-111840627D01*
G37*
G36*
X185333497Y-113302563D02*
G01*
X185371598Y-113323923D01*
X185372283Y-113324599D01*
X185394014Y-113362383D01*
X185399694Y-113409227D01*
X185389814Y-113455132D01*
X185364866Y-113490098D01*
X185364127Y-113490688D01*
X185317044Y-113513644D01*
X185266997Y-113515032D01*
X185221786Y-113495100D01*
X185211103Y-113485780D01*
X185185274Y-113443306D01*
X185180695Y-113393823D01*
X185197615Y-113345130D01*
X185206195Y-113332756D01*
X185240795Y-113307471D01*
X185286562Y-113297243D01*
X185333497Y-113302563D01*
G37*
G36*
X190289096Y-114898612D02*
G01*
X190312882Y-114927201D01*
X190318667Y-114961691D01*
X190311310Y-115003768D01*
X190287546Y-115026787D01*
X190248004Y-115033350D01*
X190214737Y-115028649D01*
X190192759Y-115017933D01*
X190180296Y-114990818D01*
X190178303Y-114953715D01*
X190186337Y-114919451D01*
X190196653Y-114904840D01*
X190224414Y-114892165D01*
X190248004Y-114888813D01*
X190289096Y-114898612D01*
G37*
G36*
X190278704Y-114357316D02*
G01*
X190311248Y-114380518D01*
X190329473Y-114420454D01*
X190331515Y-114442353D01*
X190321312Y-114489156D01*
X190293017Y-114520373D01*
X190250103Y-114532267D01*
X190248004Y-114532288D01*
X190217325Y-114525027D01*
X190193048Y-114512288D01*
X190171997Y-114488317D01*
X190164649Y-114451154D01*
X190164494Y-114442353D01*
X190169770Y-114401845D01*
X190188078Y-114376171D01*
X190193048Y-114372419D01*
X190237439Y-114353674D01*
X190278704Y-114357316D01*
G37*
G36*
X191770219Y-111041359D02*
G01*
X191808320Y-111062719D01*
X191809006Y-111063395D01*
X191830736Y-111101179D01*
X191836416Y-111148023D01*
X191826536Y-111193929D01*
X191801589Y-111228894D01*
X191800849Y-111229484D01*
X191753766Y-111252440D01*
X191703719Y-111253828D01*
X191658508Y-111233896D01*
X191647825Y-111224576D01*
X191621996Y-111182102D01*
X191617417Y-111132619D01*
X191634337Y-111083926D01*
X191642918Y-111071552D01*
X191677517Y-111046267D01*
X191723285Y-111036039D01*
X191770219Y-111041359D01*
G37*
G36*
X188267091Y-112096377D02*
G01*
X188310803Y-112113941D01*
X188333250Y-112145813D01*
X188335061Y-112192903D01*
X188334900Y-112193955D01*
X188317844Y-112239118D01*
X188287301Y-112265187D01*
X188248735Y-112270422D01*
X188207610Y-112253082D01*
X188191780Y-112239549D01*
X188165450Y-112201434D01*
X188164581Y-112164002D01*
X188189197Y-112125455D01*
X188193216Y-112121315D01*
X188221990Y-112098764D01*
X188251207Y-112094051D01*
X188267091Y-112096377D01*
G37*
G36*
X190549683Y-113302563D02*
G01*
X190587784Y-113323923D01*
X190588470Y-113324599D01*
X190610200Y-113362383D01*
X190615880Y-113409227D01*
X190606000Y-113455132D01*
X190581052Y-113490098D01*
X190580313Y-113490688D01*
X190533230Y-113513644D01*
X190483183Y-113515032D01*
X190437972Y-113495100D01*
X190427289Y-113485780D01*
X190401460Y-113443306D01*
X190396881Y-113393823D01*
X190413801Y-113345130D01*
X190422381Y-113332756D01*
X190456981Y-113307471D01*
X190502748Y-113297243D01*
X190549683Y-113302563D01*
G37*
G36*
X189773406Y-112102788D02*
G01*
X189802913Y-112132498D01*
X189817182Y-112172829D01*
X189817605Y-112181150D01*
X189807059Y-112225371D01*
X189779676Y-112255602D01*
X189741837Y-112268860D01*
X189699926Y-112262162D01*
X189675688Y-112247493D01*
X189651676Y-112214148D01*
X189647292Y-112174962D01*
X189659876Y-112136881D01*
X189686770Y-112106852D01*
X189725313Y-112091821D01*
X189735518Y-112091215D01*
X189773406Y-112102788D01*
G37*
G36*
X190278704Y-112096112D02*
G01*
X190311248Y-112119314D01*
X190329473Y-112159250D01*
X190331515Y-112181150D01*
X190321312Y-112227952D01*
X190293017Y-112259169D01*
X190250103Y-112271063D01*
X190248004Y-112271084D01*
X190217325Y-112263823D01*
X190193048Y-112251084D01*
X190171997Y-112227113D01*
X190164649Y-112189950D01*
X190164494Y-112181150D01*
X190169770Y-112140641D01*
X190188078Y-112114968D01*
X190193048Y-112111216D01*
X190237439Y-112092471D01*
X190278704Y-112096112D01*
G37*
G36*
X185599524Y-114104927D02*
G01*
X185630170Y-114132650D01*
X185641981Y-114177635D01*
X185642086Y-114183198D01*
X185631363Y-114227821D01*
X185603293Y-114259109D01*
X185564025Y-114274132D01*
X185519707Y-114269959D01*
X185490772Y-114255333D01*
X185469667Y-114231246D01*
X185462356Y-114193889D01*
X185462218Y-114185588D01*
X185470165Y-114137160D01*
X185495017Y-114107772D01*
X185538292Y-114095885D01*
X185551078Y-114095464D01*
X185599524Y-114104927D01*
G37*
G36*
X184112625Y-112635238D02*
G01*
X184137109Y-112660607D01*
X184144921Y-112697116D01*
X184135729Y-112731577D01*
X184111979Y-112757944D01*
X184077898Y-112771141D01*
X184042617Y-112770078D01*
X184015266Y-112753663D01*
X184010470Y-112746541D01*
X183999322Y-112705807D01*
X184005881Y-112666894D01*
X184028239Y-112639045D01*
X184033262Y-112636180D01*
X184076375Y-112625573D01*
X184112625Y-112635238D01*
G37*
G36*
X186820060Y-114104927D02*
G01*
X186850706Y-114132650D01*
X186862517Y-114177635D01*
X186862622Y-114183198D01*
X186851899Y-114227821D01*
X186823829Y-114259109D01*
X186784561Y-114274132D01*
X186740243Y-114269959D01*
X186711308Y-114255333D01*
X186690204Y-114231246D01*
X186682893Y-114193889D01*
X186682754Y-114185588D01*
X186690701Y-114137160D01*
X186715553Y-114107772D01*
X186758828Y-114095885D01*
X186771615Y-114095464D01*
X186820060Y-114104927D01*
G37*
G36*
X184605482Y-114357581D02*
G01*
X184649195Y-114375145D01*
X184671641Y-114407017D01*
X184673453Y-114454107D01*
X184673291Y-114455159D01*
X184656235Y-114500322D01*
X184625693Y-114526391D01*
X184587127Y-114531625D01*
X184546001Y-114514285D01*
X184530172Y-114500752D01*
X184503841Y-114462638D01*
X184502973Y-114425206D01*
X184527589Y-114386659D01*
X184531608Y-114382519D01*
X184560382Y-114359968D01*
X184589598Y-114355255D01*
X184605482Y-114357581D01*
G37*
G36*
X191523158Y-111045643D02*
G01*
X191558460Y-111070205D01*
X191575612Y-111112492D01*
X191577746Y-111141066D01*
X191567362Y-111191881D01*
X191539974Y-111229875D01*
X191501230Y-111252524D01*
X191456777Y-111257304D01*
X191412264Y-111241691D01*
X191390870Y-111224576D01*
X191366738Y-111189200D01*
X191359344Y-111143260D01*
X191359335Y-111141066D01*
X191367726Y-111089369D01*
X191393676Y-111055954D01*
X191438352Y-111039720D01*
X191468540Y-111037700D01*
X191523158Y-111045643D01*
G37*
G36*
X192010946Y-111299864D02*
G01*
X192051113Y-111319231D01*
X192080052Y-111354245D01*
X192091640Y-111401896D01*
X192091656Y-111403861D01*
X192084781Y-111442389D01*
X192069173Y-111473061D01*
X192036720Y-111496030D01*
X191993653Y-111508064D01*
X191953559Y-111505577D01*
X191950331Y-111504429D01*
X191910196Y-111478902D01*
X191889872Y-111439614D01*
X191886092Y-111402802D01*
X191889795Y-111362656D01*
X191904264Y-111335763D01*
X191921420Y-111320122D01*
X191965674Y-111299157D01*
X192010946Y-111299864D01*
G37*
G36*
X187597033Y-111840627D02*
G01*
X187625657Y-111861747D01*
X187637725Y-111900650D01*
X187638626Y-111920627D01*
X187627602Y-111964782D01*
X187598795Y-111996820D01*
X187558605Y-112013313D01*
X187513431Y-112010832D01*
X187489467Y-112000541D01*
X187468283Y-111975074D01*
X187458136Y-111936221D01*
X187460401Y-111894406D01*
X187471746Y-111866323D01*
X187491189Y-111845005D01*
X187518544Y-111835776D01*
X187548700Y-111834260D01*
X187597033Y-111840627D01*
G37*
G36*
X183582091Y-111300619D02*
G01*
X183621447Y-111319072D01*
X183646805Y-111352517D01*
X183657658Y-111394078D01*
X183653499Y-111436878D01*
X183633823Y-111474040D01*
X183598122Y-111498689D01*
X183596720Y-111499191D01*
X183567189Y-111508259D01*
X183549666Y-111511391D01*
X183549198Y-111511317D01*
X183531734Y-111507762D01*
X183511896Y-111503911D01*
X183483951Y-111487158D01*
X183461662Y-111454952D01*
X183448140Y-111402598D01*
X183456784Y-111356531D01*
X183484130Y-111321189D01*
X183526717Y-111301011D01*
X183581080Y-111300433D01*
X183582091Y-111300619D01*
G37*
G36*
X190993942Y-112102788D02*
G01*
X191023449Y-112132498D01*
X191037718Y-112172829D01*
X191038141Y-112181150D01*
X191027595Y-112225371D01*
X191000212Y-112255602D01*
X190962374Y-112268860D01*
X190920462Y-112262162D01*
X190896224Y-112247493D01*
X190872212Y-112214148D01*
X190867828Y-112174962D01*
X190880413Y-112136881D01*
X190907306Y-112106852D01*
X190945849Y-112091821D01*
X190956054Y-112091215D01*
X190993942Y-112102788D01*
G37*
G36*
X188536159Y-111567331D02*
G01*
X188576182Y-111585566D01*
X188583720Y-111592576D01*
X188605119Y-111631844D01*
X188608595Y-111677535D01*
X188594111Y-111719202D01*
X188584221Y-111731478D01*
X188549752Y-111751130D01*
X188506142Y-111757423D01*
X188464255Y-111750194D01*
X188438463Y-111733679D01*
X188421033Y-111699321D01*
X188416503Y-111656296D01*
X188424366Y-111614960D01*
X188444117Y-111585666D01*
X188445754Y-111584458D01*
X188489324Y-111566764D01*
X188536159Y-111567331D01*
G37*
G36*
X188224484Y-115955528D02*
G01*
X188272663Y-115964525D01*
X188319512Y-115977943D01*
X188379999Y-116001798D01*
X188446269Y-116032447D01*
X188510462Y-116066249D01*
X188564723Y-116099562D01*
X188566197Y-116100572D01*
X188647745Y-116162690D01*
X188725371Y-116234950D01*
X188801246Y-116320067D01*
X188877539Y-116420755D01*
X188956419Y-116539728D01*
X189040055Y-116679702D01*
X189067039Y-116727340D01*
X189116710Y-116813690D01*
X189158138Y-116879604D01*
X189193877Y-116927961D01*
X189226480Y-116961643D01*
X189258501Y-116983529D01*
X189292494Y-116996501D01*
X189308881Y-117000154D01*
X189381391Y-117024334D01*
X189437448Y-117064624D01*
X189475183Y-117117328D01*
X189492726Y-117178746D01*
X189488209Y-117245180D01*
X189463647Y-117306363D01*
X189390445Y-117413669D01*
X189296843Y-117518421D01*
X189188082Y-117616361D01*
X189069399Y-117703229D01*
X188946035Y-117774765D01*
X188823800Y-117826518D01*
X188784002Y-117836562D01*
X188727449Y-117846501D01*
X188663048Y-117854905D01*
X188623376Y-117858695D01*
X188536188Y-117868490D01*
X188467163Y-117882105D01*
X188427866Y-117895198D01*
X188373917Y-117927019D01*
X188322428Y-117970930D01*
X188281487Y-118019250D01*
X188263609Y-118051167D01*
X188257793Y-118068640D01*
X188258720Y-118084363D01*
X188269197Y-118103063D01*
X188292030Y-118129465D01*
X188330024Y-118168293D01*
X188337764Y-118176041D01*
X188446764Y-118301847D01*
X188532094Y-118437415D01*
X188593730Y-118582457D01*
X188631650Y-118736682D01*
X188645830Y-118899802D01*
X188636247Y-119071526D01*
X188602879Y-119251566D01*
X188545703Y-119439631D01*
X188464695Y-119635432D01*
X188455151Y-119655702D01*
X188422793Y-119722600D01*
X188391699Y-119784013D01*
X188360147Y-119842572D01*
X188326414Y-119900910D01*
X188288779Y-119961656D01*
X188245519Y-120027442D01*
X188194912Y-120100899D01*
X188135236Y-120184660D01*
X188064769Y-120281354D01*
X187981788Y-120393613D01*
X187902495Y-120500067D01*
X187791442Y-120650603D01*
X187696237Y-120783740D01*
X187615771Y-120901387D01*
X187548936Y-121005451D01*
X187494624Y-121097840D01*
X187451725Y-121180462D01*
X187419131Y-121255225D01*
X187395734Y-121324035D01*
X187380425Y-121388802D01*
X187378051Y-121402577D01*
X187372749Y-121492114D01*
X187388174Y-121566686D01*
X187424399Y-121626611D01*
X187430307Y-121632999D01*
X187456983Y-121655962D01*
X187489868Y-121673562D01*
X187534534Y-121687821D01*
X187596552Y-121700761D01*
X187634780Y-121707203D01*
X187681507Y-121725606D01*
X187727540Y-121761752D01*
X187765638Y-121808536D01*
X187788267Y-121857757D01*
X187793661Y-121924411D01*
X187776692Y-121990428D01*
X187740155Y-122049941D01*
X187686846Y-122097084D01*
X187669457Y-122107183D01*
X187661105Y-122109933D01*
X187646290Y-122112392D01*
X187623716Y-122114574D01*
X187592092Y-122116493D01*
X187550122Y-122118161D01*
X187496512Y-122119593D01*
X187429970Y-122120801D01*
X187349201Y-122121800D01*
X187252911Y-122122603D01*
X187139807Y-122123223D01*
X187008594Y-122123674D01*
X186857979Y-122123970D01*
X186686668Y-122124124D01*
X186493368Y-122124149D01*
X186276783Y-122124059D01*
X186069912Y-122123900D01*
X185870538Y-122123637D01*
X185677694Y-122123222D01*
X185493007Y-122122665D01*
X185318104Y-122121978D01*
X185154614Y-122121174D01*
X185004163Y-122120263D01*
X184868380Y-122119258D01*
X184748891Y-122118171D01*
X184647324Y-122117012D01*
X184565307Y-122115795D01*
X184504468Y-122114530D01*
X184466433Y-122113230D01*
X184453669Y-122112204D01*
X184332588Y-122075156D01*
X184215305Y-122014159D01*
X184103127Y-121930838D01*
X183997356Y-121826817D01*
X183899297Y-121703722D01*
X183810254Y-121563177D01*
X183731531Y-121406808D01*
X183664431Y-121236239D01*
X183613286Y-121065050D01*
X183581672Y-120922573D01*
X183558032Y-120775892D01*
X183542769Y-120630476D01*
X183536286Y-120491793D01*
X183538987Y-120365310D01*
X183551275Y-120256496D01*
X183552963Y-120247239D01*
X183572905Y-120155330D01*
X183602131Y-120040758D01*
X183640311Y-119904690D01*
X183687113Y-119748292D01*
X183742206Y-119572730D01*
X183760070Y-119517214D01*
X183790094Y-119422560D01*
X183821491Y-119320387D01*
X183851834Y-119218815D01*
X183878696Y-119125959D01*
X183898384Y-119054695D01*
X183918445Y-118978480D01*
X183932676Y-118919586D01*
X183942064Y-118870562D01*
X183947590Y-118823952D01*
X183950238Y-118772304D01*
X183950991Y-118708164D01*
X183950931Y-118656415D01*
X183949538Y-118560627D01*
X183945512Y-118482496D01*
X183938165Y-118414054D01*
X183926810Y-118347336D01*
X183922377Y-118325795D01*
X183880433Y-118161022D01*
X183829346Y-118018942D01*
X183768437Y-117897988D01*
X183697029Y-117796593D01*
X183689740Y-117787996D01*
X183649817Y-117736531D01*
X183610438Y-117677443D01*
X183582913Y-117628790D01*
X183563118Y-117586758D01*
X183550885Y-117551955D01*
X183544447Y-117515545D01*
X183542037Y-117468693D01*
X183541805Y-117423226D01*
X183546089Y-117337592D01*
X183560307Y-117269092D01*
X183587288Y-117210168D01*
X183629858Y-117153261D01*
X183651598Y-117129668D01*
X183729911Y-117066200D01*
X183821736Y-117023128D01*
X183924066Y-117001161D01*
X184033897Y-117001010D01*
X184126451Y-117017407D01*
X184259905Y-117064412D01*
X184386229Y-117133793D01*
X184502333Y-117222550D01*
X184605124Y-117327682D01*
X184691511Y-117446190D01*
X184758404Y-117575072D01*
X184789286Y-117660715D01*
X184804249Y-117735050D01*
X184811596Y-117829407D01*
X184811640Y-117939368D01*
X184804699Y-118060514D01*
X184791087Y-118188428D01*
X184771120Y-118318691D01*
X184745113Y-118446884D01*
X184728301Y-118515090D01*
X184703534Y-118605260D01*
X184678339Y-118687925D01*
X184651152Y-118766504D01*
X184620408Y-118844419D01*
X184584542Y-118925092D01*
X184541990Y-119011942D01*
X184491187Y-119108391D01*
X184430569Y-119217861D01*
X184358571Y-119343771D01*
X184314941Y-119418891D01*
X184227151Y-119573843D01*
X184154488Y-119712362D01*
X184095646Y-119837767D01*
X184049317Y-119953376D01*
X184014196Y-120062509D01*
X183988975Y-120168486D01*
X183972348Y-120274626D01*
X183970054Y-120295072D01*
X183963511Y-120408821D01*
X183967855Y-120515713D01*
X183982299Y-120612337D01*
X184006056Y-120695282D01*
X184038340Y-120761137D01*
X184078363Y-120806490D01*
X184089855Y-120814452D01*
X184150076Y-120837280D01*
X184212968Y-120836851D01*
X184273470Y-120814413D01*
X184326519Y-120771213D01*
X184341682Y-120752399D01*
X184359551Y-120725140D01*
X184371415Y-120697934D01*
X184379102Y-120663678D01*
X184384439Y-120615268D01*
X184387388Y-120574754D01*
X184409843Y-120401479D01*
X184455031Y-120216344D01*
X184522928Y-120019425D01*
X184613511Y-119810797D01*
X184628034Y-119780593D01*
X184761037Y-119530618D01*
X184907491Y-119301122D01*
X185069232Y-119090083D01*
X185248092Y-118895482D01*
X185445907Y-118715298D01*
X185664510Y-118547510D01*
X185870727Y-118411466D01*
X185992853Y-118335957D01*
X186095583Y-118271977D01*
X186181517Y-118217771D01*
X186253254Y-118171583D01*
X186313393Y-118131658D01*
X186364533Y-118096241D01*
X186409275Y-118063576D01*
X186450217Y-118031908D01*
X186489958Y-117999482D01*
X186525845Y-117969061D01*
X186620553Y-117884310D01*
X186696664Y-117807955D01*
X186757910Y-117735684D01*
X186808025Y-117663182D01*
X186841427Y-117604388D01*
X186872315Y-117540919D01*
X186895651Y-117480928D01*
X186912835Y-117418359D01*
X186925262Y-117347152D01*
X186934332Y-117261252D01*
X186940203Y-117176307D01*
X186945854Y-117097017D01*
X186953229Y-117017544D01*
X186961498Y-116945619D01*
X186969834Y-116888972D01*
X186972572Y-116874385D01*
X187017009Y-116703612D01*
X187077100Y-116546470D01*
X187151590Y-116404855D01*
X187239219Y-116280660D01*
X187338733Y-116175779D01*
X187448872Y-116092107D01*
X187517001Y-116054102D01*
X187562094Y-116029748D01*
X187588180Y-116008666D01*
X187600679Y-115986161D01*
X187602199Y-115980297D01*
X187628807Y-115894136D01*
X187670522Y-115802732D01*
X187724478Y-115709502D01*
X187787806Y-115617862D01*
X187857640Y-115531227D01*
X187931112Y-115453013D01*
X188005356Y-115386638D01*
X188077504Y-115335515D01*
X188144690Y-115303062D01*
X188177803Y-115294518D01*
X188224484Y-115286943D01*
X188224484Y-115955528D01*
G37*
G36*
X185826018Y-114357581D02*
G01*
X185869731Y-114375145D01*
X185892177Y-114407017D01*
X185893989Y-114454107D01*
X185893827Y-114455159D01*
X185876772Y-114500322D01*
X185846229Y-114526391D01*
X185807663Y-114531625D01*
X185766537Y-114514285D01*
X185750708Y-114500752D01*
X185724377Y-114462638D01*
X185723509Y-114425206D01*
X185748125Y-114386659D01*
X185752144Y-114382519D01*
X185780918Y-114359968D01*
X185810135Y-114355255D01*
X185826018Y-114357581D01*
G37*
G36*
X190017804Y-114891278D02*
G01*
X190044625Y-114912879D01*
X190059003Y-114950657D01*
X190059377Y-114953980D01*
X190057853Y-114988959D01*
X190048511Y-115014491D01*
X190048168Y-115014918D01*
X190023095Y-115028605D01*
X189986760Y-115032843D01*
X189951928Y-115027287D01*
X189935804Y-115017933D01*
X189924998Y-114994984D01*
X189920389Y-114961097D01*
X189920387Y-114960414D01*
X189929832Y-114920420D01*
X189953693Y-114895359D01*
X189985255Y-114885541D01*
X190017804Y-114891278D01*
G37*
G36*
X189076291Y-111574737D02*
G01*
X189108800Y-111604355D01*
X189123243Y-111651480D01*
X189123826Y-111665248D01*
X189115425Y-111713118D01*
X189089333Y-111743048D01*
X189044214Y-111756268D01*
X189023973Y-111757174D01*
X188983346Y-111752778D01*
X188957946Y-111737155D01*
X188951110Y-111728620D01*
X188931472Y-111682654D01*
X188932805Y-111637349D01*
X188952351Y-111598636D01*
X188987350Y-111572445D01*
X189027468Y-111564458D01*
X189076291Y-111574737D01*
G37*
G36*
X186827337Y-111047016D02*
G01*
X186863724Y-111073829D01*
X186880664Y-111116439D01*
X186876976Y-111173147D01*
X186874309Y-111183716D01*
X186851256Y-111224134D01*
X186812162Y-111248588D01*
X186762610Y-111254995D01*
X186713705Y-111243619D01*
X186686190Y-111220374D01*
X186667065Y-111181945D01*
X186660431Y-111138483D01*
X186663028Y-111118248D01*
X186681755Y-111072939D01*
X186712935Y-111047300D01*
X186761207Y-111037924D01*
X186772688Y-111037700D01*
X186827337Y-111047016D01*
G37*
G36*
X189515277Y-113569032D02*
G01*
X189546776Y-113587049D01*
X189566382Y-113619117D01*
X189574116Y-113662075D01*
X189569677Y-113705130D01*
X189552763Y-113737492D01*
X189551014Y-113739159D01*
X189509729Y-113761327D01*
X189458239Y-113768077D01*
X189435497Y-113765451D01*
X189400612Y-113746793D01*
X189377705Y-113711961D01*
X189368644Y-113668403D01*
X189375294Y-113623566D01*
X189392257Y-113592905D01*
X189425543Y-113570099D01*
X189469951Y-113562012D01*
X189515277Y-113569032D01*
G37*
%TO.C,OSHW logo*%
G36*
X201901126Y-78556155D02*
G01*
X201967058Y-78580484D01*
X202020473Y-78623517D01*
X202041364Y-78653809D01*
X202064139Y-78709394D01*
X202063666Y-78749586D01*
X202039762Y-78776617D01*
X202030917Y-78781213D01*
X201992730Y-78795544D01*
X201973228Y-78791872D01*
X201966622Y-78767807D01*
X201966286Y-78754514D01*
X201954192Y-78705610D01*
X201922671Y-78671399D01*
X201878859Y-78654876D01*
X201829895Y-78659034D01*
X201790094Y-78680627D01*
X201776650Y-78692944D01*
X201767121Y-78707887D01*
X201760685Y-78730475D01*
X201756517Y-78765728D01*
X201753797Y-78818666D01*
X201751702Y-78894307D01*
X201751160Y-78918257D01*
X201749181Y-79000190D01*
X201746931Y-79057855D01*
X201743557Y-79096008D01*
X201738206Y-79119404D01*
X201730024Y-79132798D01*
X201718159Y-79140945D01*
X201710562Y-79144544D01*
X201678302Y-79156852D01*
X201659311Y-79160914D01*
X201653036Y-79147348D01*
X201649206Y-79106334D01*
X201647800Y-79037399D01*
X201648798Y-78940069D01*
X201649108Y-78925057D01*
X201651301Y-78836259D01*
X201653893Y-78771419D01*
X201657582Y-78725467D01*
X201663064Y-78693335D01*
X201671035Y-78669953D01*
X201682193Y-78650252D01*
X201688030Y-78641810D01*
X201721496Y-78604457D01*
X201758927Y-78575403D01*
X201763509Y-78572867D01*
X201830626Y-78552843D01*
X201901126Y-78556155D01*
G37*
D12*
X201901126Y-78556155D02*
X201967058Y-78580484D01*
X202020473Y-78623517D01*
X202041364Y-78653809D01*
X202064139Y-78709394D01*
X202063666Y-78749586D01*
X202039762Y-78776617D01*
X202030917Y-78781213D01*
X201992730Y-78795544D01*
X201973228Y-78791872D01*
X201966622Y-78767807D01*
X201966286Y-78754514D01*
X201954192Y-78705610D01*
X201922671Y-78671399D01*
X201878859Y-78654876D01*
X201829895Y-78659034D01*
X201790094Y-78680627D01*
X201776650Y-78692944D01*
X201767121Y-78707887D01*
X201760685Y-78730475D01*
X201756517Y-78765728D01*
X201753797Y-78818666D01*
X201751702Y-78894307D01*
X201751160Y-78918257D01*
X201749181Y-79000190D01*
X201746931Y-79057855D01*
X201743557Y-79096008D01*
X201738206Y-79119404D01*
X201730024Y-79132798D01*
X201718159Y-79140945D01*
X201710562Y-79144544D01*
X201678302Y-79156852D01*
X201659311Y-79160914D01*
X201653036Y-79147348D01*
X201649206Y-79106334D01*
X201647800Y-79037399D01*
X201648798Y-78940069D01*
X201649108Y-78925057D01*
X201651301Y-78836259D01*
X201653893Y-78771419D01*
X201657582Y-78725467D01*
X201663064Y-78693335D01*
X201671035Y-78669953D01*
X201682193Y-78650252D01*
X201688030Y-78641810D01*
X201721496Y-78604457D01*
X201758927Y-78575403D01*
X201763509Y-78572867D01*
X201830626Y-78552843D01*
X201901126Y-78556155D01*
G36*
X198664877Y-78756733D02*
G01*
X198667650Y-78709358D01*
X198671588Y-78675690D01*
X198677049Y-78651898D01*
X198684392Y-78634153D01*
X198693977Y-78618624D01*
X198698087Y-78612781D01*
X198752605Y-78557585D01*
X198821536Y-78526290D01*
X198901272Y-78517565D01*
X198970944Y-78526318D01*
X199026401Y-78553968D01*
X199075348Y-78604880D01*
X199088829Y-78623738D01*
X199103514Y-78648415D01*
X199113042Y-78675216D01*
X199118493Y-78710987D01*
X199120947Y-78762569D01*
X199121486Y-78830667D01*
X199119052Y-78923988D01*
X199110594Y-78994057D01*
X199094374Y-79046331D01*
X199068654Y-79086269D01*
X199031697Y-79119329D01*
X199028982Y-79121286D01*
X198992560Y-79141308D01*
X198948702Y-79151215D01*
X198892924Y-79153657D01*
X198802248Y-79153657D01*
X198802210Y-79241683D01*
X198801366Y-79290708D01*
X198796224Y-79319465D01*
X198782787Y-79336711D01*
X198757058Y-79351208D01*
X198750879Y-79354169D01*
X198721964Y-79368048D01*
X198699576Y-79376814D01*
X198682929Y-79377571D01*
X198671236Y-79367423D01*
X198663710Y-79343473D01*
X198659566Y-79302826D01*
X198658015Y-79242586D01*
X198658271Y-79159855D01*
X198659549Y-79051739D01*
X198659948Y-79019400D01*
X198661385Y-78907924D01*
X198662672Y-78835003D01*
X198802171Y-78835003D01*
X198802955Y-78896899D01*
X198806440Y-78937397D01*
X198814324Y-78964108D01*
X198828305Y-78984644D01*
X198837797Y-78994660D01*
X198876604Y-79023967D01*
X198910963Y-79026352D01*
X198946416Y-79002150D01*
X198947314Y-79001257D01*
X198961739Y-78982553D01*
X198970513Y-78957132D01*
X198974939Y-78917984D01*
X198976318Y-78858097D01*
X198976343Y-78844830D01*
X198973012Y-78762301D01*
X198962169Y-78705091D01*
X198942540Y-78670166D01*
X198912850Y-78654494D01*
X198895691Y-78652914D01*
X198854966Y-78660326D01*
X198827032Y-78684730D01*
X198810217Y-78729380D01*
X198802850Y-78797530D01*
X198802171Y-78835003D01*
X198662672Y-78835003D01*
X198662908Y-78821645D01*
X198664877Y-78756733D01*
G37*
X198664877Y-78756733D02*
X198667650Y-78709358D01*
X198671588Y-78675690D01*
X198677049Y-78651898D01*
X198684392Y-78634153D01*
X198693977Y-78618624D01*
X198698087Y-78612781D01*
X198752605Y-78557585D01*
X198821536Y-78526290D01*
X198901272Y-78517565D01*
X198970944Y-78526318D01*
X199026401Y-78553968D01*
X199075348Y-78604880D01*
X199088829Y-78623738D01*
X199103514Y-78648415D01*
X199113042Y-78675216D01*
X199118493Y-78710987D01*
X199120947Y-78762569D01*
X199121486Y-78830667D01*
X199119052Y-78923988D01*
X199110594Y-78994057D01*
X199094374Y-79046331D01*
X199068654Y-79086269D01*
X199031697Y-79119329D01*
X199028982Y-79121286D01*
X198992560Y-79141308D01*
X198948702Y-79151215D01*
X198892924Y-79153657D01*
X198802248Y-79153657D01*
X198802210Y-79241683D01*
X198801366Y-79290708D01*
X198796224Y-79319465D01*
X198782787Y-79336711D01*
X198757058Y-79351208D01*
X198750879Y-79354169D01*
X198721964Y-79368048D01*
X198699576Y-79376814D01*
X198682929Y-79377571D01*
X198671236Y-79367423D01*
X198663710Y-79343473D01*
X198659566Y-79302826D01*
X198658015Y-79242586D01*
X198658271Y-79159855D01*
X198659549Y-79051739D01*
X198659948Y-79019400D01*
X198661385Y-78907924D01*
X198662672Y-78835003D01*
X198802171Y-78835003D01*
X198802955Y-78896899D01*
X198806440Y-78937397D01*
X198814324Y-78964108D01*
X198828305Y-78984644D01*
X198837797Y-78994660D01*
X198876604Y-79023967D01*
X198910963Y-79026352D01*
X198946416Y-79002150D01*
X198947314Y-79001257D01*
X198961739Y-78982553D01*
X198970513Y-78957132D01*
X198974939Y-78917984D01*
X198976318Y-78858097D01*
X198976343Y-78844830D01*
X198973012Y-78762301D01*
X198962169Y-78705091D01*
X198942540Y-78670166D01*
X198912850Y-78654494D01*
X198895691Y-78652914D01*
X198854966Y-78660326D01*
X198827032Y-78684730D01*
X198810217Y-78729380D01*
X198802850Y-78797530D01*
X198802171Y-78835003D01*
X198662672Y-78835003D01*
X198662908Y-78821645D01*
X198664877Y-78756733D01*
G36*
X198108296Y-78714559D02*
G01*
X198113268Y-78678349D01*
X198121913Y-78651699D01*
X198135205Y-78628122D01*
X198138143Y-78623738D01*
X198187513Y-78564649D01*
X198241309Y-78530347D01*
X198306802Y-78516731D01*
X198329042Y-78516065D01*
X198412315Y-78528362D01*
X198480345Y-78564133D01*
X198530551Y-78621701D01*
X198548385Y-78658712D01*
X198562263Y-78714282D01*
X198569367Y-78784496D01*
X198570040Y-78861127D01*
X198564627Y-78935952D01*
X198553470Y-79000742D01*
X198536914Y-79047273D01*
X198531826Y-79055287D01*
X198471555Y-79115107D01*
X198399969Y-79150935D01*
X198322292Y-79161420D01*
X198243748Y-79145210D01*
X198221889Y-79135492D01*
X198179322Y-79105543D01*
X198141963Y-79065833D01*
X198138432Y-79060797D01*
X198124081Y-79036524D01*
X198114594Y-79010578D01*
X198108990Y-78976422D01*
X198106286Y-78927519D01*
X198105499Y-78857335D01*
X198105486Y-78841600D01*
X198105522Y-78836592D01*
X198250629Y-78836592D01*
X198251473Y-78902830D01*
X198254796Y-78946786D01*
X198261783Y-78975179D01*
X198273616Y-78994725D01*
X198279657Y-79001257D01*
X198314386Y-79026080D01*
X198348103Y-79024948D01*
X198382195Y-79003416D01*
X198402529Y-78980429D01*
X198414571Y-78946878D01*
X198421334Y-78893969D01*
X198421798Y-78887799D01*
X198422952Y-78791913D01*
X198410888Y-78720699D01*
X198385770Y-78674594D01*
X198347760Y-78654035D01*
X198334192Y-78652914D01*
X198298564Y-78658552D01*
X198274194Y-78678086D01*
X198259293Y-78715442D01*
X198252075Y-78774550D01*
X198250629Y-78836592D01*
X198105522Y-78836592D01*
X198106026Y-78766813D01*
X198108296Y-78714559D01*
G37*
X198108296Y-78714559D02*
X198113268Y-78678349D01*
X198121913Y-78651699D01*
X198135205Y-78628122D01*
X198138143Y-78623738D01*
X198187513Y-78564649D01*
X198241309Y-78530347D01*
X198306802Y-78516731D01*
X198329042Y-78516065D01*
X198412315Y-78528362D01*
X198480345Y-78564133D01*
X198530551Y-78621701D01*
X198548385Y-78658712D01*
X198562263Y-78714282D01*
X198569367Y-78784496D01*
X198570040Y-78861127D01*
X198564627Y-78935952D01*
X198553470Y-79000742D01*
X198536914Y-79047273D01*
X198531826Y-79055287D01*
X198471555Y-79115107D01*
X198399969Y-79150935D01*
X198322292Y-79161420D01*
X198243748Y-79145210D01*
X198221889Y-79135492D01*
X198179322Y-79105543D01*
X198141963Y-79065833D01*
X198138432Y-79060797D01*
X198124081Y-79036524D01*
X198114594Y-79010578D01*
X198108990Y-78976422D01*
X198106286Y-78927519D01*
X198105499Y-78857335D01*
X198105486Y-78841600D01*
X198105522Y-78836592D01*
X198250629Y-78836592D01*
X198251473Y-78902830D01*
X198254796Y-78946786D01*
X198261783Y-78975179D01*
X198273616Y-78994725D01*
X198279657Y-79001257D01*
X198314386Y-79026080D01*
X198348103Y-79024948D01*
X198382195Y-79003416D01*
X198402529Y-78980429D01*
X198414571Y-78946878D01*
X198421334Y-78893969D01*
X198421798Y-78887799D01*
X198422952Y-78791913D01*
X198410888Y-78720699D01*
X198385770Y-78674594D01*
X198347760Y-78654035D01*
X198334192Y-78652914D01*
X198298564Y-78658552D01*
X198274194Y-78678086D01*
X198259293Y-78715442D01*
X198252075Y-78774550D01*
X198250629Y-78836592D01*
X198105522Y-78836592D01*
X198106026Y-78766813D01*
X198108296Y-78714559D01*
G36*
X201410944Y-78557368D02*
G01*
X201467816Y-78578487D01*
X201468467Y-78578893D01*
X201503640Y-78604780D01*
X201529607Y-78635033D01*
X201547870Y-78674458D01*
X201559932Y-78727862D01*
X201567296Y-78800051D01*
X201571464Y-78895832D01*
X201571829Y-78909478D01*
X201577076Y-79115242D01*
X201532916Y-79138078D01*
X201500963Y-79153510D01*
X201481670Y-79160823D01*
X201480778Y-79160914D01*
X201477439Y-79147422D01*
X201474787Y-79111026D01*
X201473156Y-79057852D01*
X201472800Y-79014793D01*
X201472792Y-78945041D01*
X201469603Y-78901237D01*
X201458488Y-78880344D01*
X201434701Y-78879325D01*
X201393496Y-78895141D01*
X201331286Y-78924215D01*
X201285541Y-78948363D01*
X201262013Y-78969313D01*
X201255096Y-78992147D01*
X201255086Y-78993277D01*
X201266499Y-79032612D01*
X201300292Y-79053862D01*
X201352009Y-79056939D01*
X201389261Y-79056406D01*
X201408903Y-79067135D01*
X201421152Y-79092905D01*
X201428202Y-79125737D01*
X201418042Y-79144366D01*
X201414217Y-79147032D01*
X201378201Y-79157740D01*
X201327766Y-79159256D01*
X201275826Y-79152159D01*
X201239022Y-79139188D01*
X201188138Y-79095985D01*
X201159214Y-79035846D01*
X201153486Y-78988862D01*
X201157857Y-78946482D01*
X201173675Y-78911888D01*
X201204997Y-78881163D01*
X201255878Y-78850390D01*
X201330376Y-78815652D01*
X201334914Y-78813688D01*
X201402021Y-78782687D01*
X201443432Y-78757262D01*
X201461181Y-78734414D01*
X201457307Y-78711145D01*
X201433843Y-78684456D01*
X201426827Y-78678314D01*
X201379830Y-78654500D01*
X201331133Y-78655503D01*
X201288722Y-78678851D01*
X201260584Y-78722075D01*
X201257969Y-78730560D01*
X201232508Y-78771708D01*
X201200201Y-78791528D01*
X201153486Y-78811170D01*
X201153486Y-78760350D01*
X201167696Y-78686482D01*
X201209875Y-78618727D01*
X201231824Y-78596061D01*
X201281717Y-78566969D01*
X201345167Y-78553800D01*
X201410944Y-78557368D01*
G37*
X201410944Y-78557368D02*
X201467816Y-78578487D01*
X201468467Y-78578893D01*
X201503640Y-78604780D01*
X201529607Y-78635033D01*
X201547870Y-78674458D01*
X201559932Y-78727862D01*
X201567296Y-78800051D01*
X201571464Y-78895832D01*
X201571829Y-78909478D01*
X201577076Y-79115242D01*
X201532916Y-79138078D01*
X201500963Y-79153510D01*
X201481670Y-79160823D01*
X201480778Y-79160914D01*
X201477439Y-79147422D01*
X201474787Y-79111026D01*
X201473156Y-79057852D01*
X201472800Y-79014793D01*
X201472792Y-78945041D01*
X201469603Y-78901237D01*
X201458488Y-78880344D01*
X201434701Y-78879325D01*
X201393496Y-78895141D01*
X201331286Y-78924215D01*
X201285541Y-78948363D01*
X201262013Y-78969313D01*
X201255096Y-78992147D01*
X201255086Y-78993277D01*
X201266499Y-79032612D01*
X201300292Y-79053862D01*
X201352009Y-79056939D01*
X201389261Y-79056406D01*
X201408903Y-79067135D01*
X201421152Y-79092905D01*
X201428202Y-79125737D01*
X201418042Y-79144366D01*
X201414217Y-79147032D01*
X201378201Y-79157740D01*
X201327766Y-79159256D01*
X201275826Y-79152159D01*
X201239022Y-79139188D01*
X201188138Y-79095985D01*
X201159214Y-79035846D01*
X201153486Y-78988862D01*
X201157857Y-78946482D01*
X201173675Y-78911888D01*
X201204997Y-78881163D01*
X201255878Y-78850390D01*
X201330376Y-78815652D01*
X201334914Y-78813688D01*
X201402021Y-78782687D01*
X201443432Y-78757262D01*
X201461181Y-78734414D01*
X201457307Y-78711145D01*
X201433843Y-78684456D01*
X201426827Y-78678314D01*
X201379830Y-78654500D01*
X201331133Y-78655503D01*
X201288722Y-78678851D01*
X201260584Y-78722075D01*
X201257969Y-78730560D01*
X201232508Y-78771708D01*
X201200201Y-78791528D01*
X201153486Y-78811170D01*
X201153486Y-78760350D01*
X201167696Y-78686482D01*
X201209875Y-78618727D01*
X201231824Y-78596061D01*
X201281717Y-78566969D01*
X201345167Y-78553800D01*
X201410944Y-78557368D01*
G36*
X204239396Y-78701784D02*
G01*
X204253084Y-78653095D01*
X204275296Y-78617249D01*
X204307774Y-78588913D01*
X204321933Y-78579755D01*
X204386253Y-78555907D01*
X204456673Y-78554406D01*
X204524795Y-78573366D01*
X204582221Y-78610897D01*
X204609919Y-78644496D01*
X204631862Y-78705464D01*
X204633605Y-78753708D01*
X204629657Y-78818216D01*
X204480886Y-78883334D01*
X204408549Y-78916602D01*
X204361284Y-78943364D01*
X204336707Y-78966544D01*
X204332437Y-78989067D01*
X204346089Y-79013855D01*
X204361143Y-79030286D01*
X204404946Y-79056635D01*
X204452589Y-79058481D01*
X204496345Y-79037946D01*
X204528489Y-78997152D01*
X204534238Y-78982747D01*
X204561776Y-78937756D01*
X204593458Y-78918582D01*
X204636914Y-78902179D01*
X204636914Y-78964366D01*
X204633072Y-79006683D01*
X204618023Y-79042369D01*
X204586480Y-79083343D01*
X204581792Y-79088667D01*
X204546706Y-79125120D01*
X204516547Y-79144683D01*
X204478815Y-79153683D01*
X204447535Y-79156630D01*
X204391585Y-79157365D01*
X204351755Y-79148060D01*
X204326908Y-79134246D01*
X204287856Y-79103867D01*
X204260825Y-79071013D01*
X204243717Y-79029694D01*
X204234438Y-78973921D01*
X204230893Y-78897705D01*
X204230610Y-78859022D01*
X204231572Y-78812647D01*
X204319207Y-78812647D01*
X204320223Y-78837526D01*
X204322756Y-78841600D01*
X204339474Y-78836065D01*
X204375449Y-78821417D01*
X204423531Y-78800590D01*
X204433586Y-78796114D01*
X204494352Y-78765214D01*
X204527832Y-78738057D01*
X204535190Y-78712620D01*
X204517591Y-78686881D01*
X204503056Y-78675509D01*
X204450610Y-78652764D01*
X204401522Y-78656522D01*
X204360427Y-78684284D01*
X204331958Y-78733552D01*
X204322831Y-78772657D01*
X204319207Y-78812647D01*
X204231572Y-78812647D01*
X204232485Y-78768649D01*
X204239396Y-78701784D01*
G37*
X204239396Y-78701784D02*
X204253084Y-78653095D01*
X204275296Y-78617249D01*
X204307774Y-78588913D01*
X204321933Y-78579755D01*
X204386253Y-78555907D01*
X204456673Y-78554406D01*
X204524795Y-78573366D01*
X204582221Y-78610897D01*
X204609919Y-78644496D01*
X204631862Y-78705464D01*
X204633605Y-78753708D01*
X204629657Y-78818216D01*
X204480886Y-78883334D01*
X204408549Y-78916602D01*
X204361284Y-78943364D01*
X204336707Y-78966544D01*
X204332437Y-78989067D01*
X204346089Y-79013855D01*
X204361143Y-79030286D01*
X204404946Y-79056635D01*
X204452589Y-79058481D01*
X204496345Y-79037946D01*
X204528489Y-78997152D01*
X204534238Y-78982747D01*
X204561776Y-78937756D01*
X204593458Y-78918582D01*
X204636914Y-78902179D01*
X204636914Y-78964366D01*
X204633072Y-79006683D01*
X204618023Y-79042369D01*
X204586480Y-79083343D01*
X204581792Y-79088667D01*
X204546706Y-79125120D01*
X204516547Y-79144683D01*
X204478815Y-79153683D01*
X204447535Y-79156630D01*
X204391585Y-79157365D01*
X204351755Y-79148060D01*
X204326908Y-79134246D01*
X204287856Y-79103867D01*
X204260825Y-79071013D01*
X204243717Y-79029694D01*
X204234438Y-78973921D01*
X204230893Y-78897705D01*
X204230610Y-78859022D01*
X204231572Y-78812647D01*
X204319207Y-78812647D01*
X204320223Y-78837526D01*
X204322756Y-78841600D01*
X204339474Y-78836065D01*
X204375449Y-78821417D01*
X204423531Y-78800590D01*
X204433586Y-78796114D01*
X204494352Y-78765214D01*
X204527832Y-78738057D01*
X204535190Y-78712620D01*
X204517591Y-78686881D01*
X204503056Y-78675509D01*
X204450610Y-78652764D01*
X204401522Y-78656522D01*
X204360427Y-78684284D01*
X204331958Y-78733552D01*
X204322831Y-78772657D01*
X204319207Y-78812647D01*
X204231572Y-78812647D01*
X204232485Y-78768649D01*
X204239396Y-78701784D01*
G36*
X199242750Y-78642612D02*
G01*
X199276656Y-78593702D01*
X199337853Y-78544278D01*
X199405263Y-78519759D01*
X199474080Y-78518197D01*
X199539503Y-78537639D01*
X199596727Y-78576135D01*
X199640949Y-78631735D01*
X199667367Y-78702486D01*
X199672710Y-78754562D01*
X199672103Y-78776293D01*
X199667022Y-78792931D01*
X199653055Y-78807837D01*
X199625789Y-78824373D01*
X199580812Y-78845898D01*
X199513711Y-78875774D01*
X199513371Y-78875924D01*
X199451607Y-78904213D01*
X199400959Y-78929333D01*
X199366604Y-78948579D01*
X199353718Y-78959248D01*
X199353714Y-78959334D01*
X199365072Y-78982566D01*
X199391631Y-79008174D01*
X199422123Y-79026621D01*
X199437570Y-79030286D01*
X199479715Y-79017612D01*
X199516008Y-78985871D01*
X199533717Y-78950972D01*
X199550752Y-78925245D01*
X199584122Y-78895946D01*
X199623349Y-78870635D01*
X199657956Y-78856871D01*
X199665193Y-78856114D01*
X199673339Y-78868560D01*
X199673830Y-78900372D01*
X199667843Y-78943266D01*
X199656557Y-78988958D01*
X199641150Y-79029161D01*
X199640371Y-79030722D01*
X199594004Y-79095462D01*
X199533911Y-79139497D01*
X199465665Y-79161111D01*
X199394838Y-79158585D01*
X199327004Y-79130204D01*
X199323988Y-79128208D01*
X199270627Y-79079848D01*
X199235540Y-79016752D01*
X199216122Y-78933787D01*
X199213516Y-78910478D01*
X199208901Y-78800455D01*
X199214433Y-78749148D01*
X199353714Y-78749148D01*
X199355524Y-78781153D01*
X199365422Y-78790493D01*
X199390098Y-78783505D01*
X199428995Y-78766987D01*
X199472475Y-78746281D01*
X199473556Y-78745733D01*
X199510409Y-78726349D01*
X199525200Y-78713413D01*
X199521553Y-78699851D01*
X199506195Y-78682032D01*
X199467123Y-78656245D01*
X199425046Y-78654350D01*
X199387303Y-78673117D01*
X199361234Y-78709315D01*
X199353714Y-78749148D01*
X199214433Y-78749148D01*
X199218394Y-78712427D01*
X199242750Y-78642612D01*
G37*
X199242750Y-78642612D02*
X199276656Y-78593702D01*
X199337853Y-78544278D01*
X199405263Y-78519759D01*
X199474080Y-78518197D01*
X199539503Y-78537639D01*
X199596727Y-78576135D01*
X199640949Y-78631735D01*
X199667367Y-78702486D01*
X199672710Y-78754562D01*
X199672103Y-78776293D01*
X199667022Y-78792931D01*
X199653055Y-78807837D01*
X199625789Y-78824373D01*
X199580812Y-78845898D01*
X199513711Y-78875774D01*
X199513371Y-78875924D01*
X199451607Y-78904213D01*
X199400959Y-78929333D01*
X199366604Y-78948579D01*
X199353718Y-78959248D01*
X199353714Y-78959334D01*
X199365072Y-78982566D01*
X199391631Y-79008174D01*
X199422123Y-79026621D01*
X199437570Y-79030286D01*
X199479715Y-79017612D01*
X199516008Y-78985871D01*
X199533717Y-78950972D01*
X199550752Y-78925245D01*
X199584122Y-78895946D01*
X199623349Y-78870635D01*
X199657956Y-78856871D01*
X199665193Y-78856114D01*
X199673339Y-78868560D01*
X199673830Y-78900372D01*
X199667843Y-78943266D01*
X199656557Y-78988958D01*
X199641150Y-79029161D01*
X199640371Y-79030722D01*
X199594004Y-79095462D01*
X199533911Y-79139497D01*
X199465665Y-79161111D01*
X199394838Y-79158585D01*
X199327004Y-79130204D01*
X199323988Y-79128208D01*
X199270627Y-79079848D01*
X199235540Y-79016752D01*
X199216122Y-78933787D01*
X199213516Y-78910478D01*
X199208901Y-78800455D01*
X199214433Y-78749148D01*
X199353714Y-78749148D01*
X199355524Y-78781153D01*
X199365422Y-78790493D01*
X199390098Y-78783505D01*
X199428995Y-78766987D01*
X199472475Y-78746281D01*
X199473556Y-78745733D01*
X199510409Y-78726349D01*
X199525200Y-78713413D01*
X199521553Y-78699851D01*
X199506195Y-78682032D01*
X199467123Y-78656245D01*
X199425046Y-78654350D01*
X199387303Y-78673117D01*
X199361234Y-78709315D01*
X199353714Y-78749148D01*
X199214433Y-78749148D01*
X199218394Y-78712427D01*
X199242750Y-78642612D01*
G36*
X203516076Y-78562735D02*
G01*
X203557867Y-78581744D01*
X203590669Y-78604778D01*
X203614703Y-78630533D01*
X203631297Y-78663758D01*
X203641777Y-78709200D01*
X203647471Y-78771607D01*
X203649707Y-78855727D01*
X203649943Y-78911121D01*
X203649943Y-79127226D01*
X203612974Y-79144070D01*
X203583856Y-79156381D01*
X203569431Y-79160914D01*
X203566672Y-79147425D01*
X203564482Y-79111053D01*
X203563142Y-79057942D01*
X203562857Y-79015772D01*
X203561634Y-78954847D01*
X203558336Y-78906515D01*
X203553521Y-78876918D01*
X203549696Y-78870629D01*
X203523983Y-78877052D01*
X203483618Y-78893525D01*
X203436879Y-78915858D01*
X203392045Y-78939857D01*
X203357393Y-78961330D01*
X203341202Y-78976085D01*
X203341138Y-78976245D01*
X203342530Y-79003552D01*
X203355018Y-79029619D01*
X203376943Y-79050792D01*
X203408943Y-79057874D01*
X203436292Y-79057049D01*
X203475026Y-79056442D01*
X203495358Y-79065516D01*
X203507569Y-79089492D01*
X203509109Y-79094013D01*
X203514403Y-79128206D01*
X203500247Y-79148968D01*
X203463348Y-79158862D01*
X203423489Y-79160692D01*
X203351762Y-79147127D01*
X203314632Y-79127755D01*
X203268776Y-79082245D01*
X203244456Y-79026383D01*
X203242273Y-78967357D01*
X203262829Y-78912353D01*
X203293749Y-78877886D01*
X203324620Y-78858589D01*
X203373142Y-78834159D01*
X203429685Y-78809385D01*
X203439110Y-78805599D01*
X203501219Y-78778191D01*
X203537022Y-78754034D01*
X203548537Y-78730019D01*
X203537780Y-78703035D01*
X203519314Y-78681943D01*
X203475669Y-78655972D01*
X203427646Y-78654024D01*
X203383606Y-78674037D01*
X203351909Y-78713951D01*
X203347749Y-78724248D01*
X203323527Y-78762124D01*
X203288165Y-78790242D01*
X203243543Y-78813317D01*
X203243543Y-78747885D01*
X203246169Y-78707906D01*
X203257430Y-78676397D01*
X203282399Y-78642778D01*
X203306369Y-78616884D01*
X203343641Y-78580217D01*
X203372601Y-78560521D01*
X203403705Y-78552620D01*
X203438913Y-78551314D01*
X203516076Y-78562735D01*
G37*
X203516076Y-78562735D02*
X203557867Y-78581744D01*
X203590669Y-78604778D01*
X203614703Y-78630533D01*
X203631297Y-78663758D01*
X203641777Y-78709200D01*
X203647471Y-78771607D01*
X203649707Y-78855727D01*
X203649943Y-78911121D01*
X203649943Y-79127226D01*
X203612974Y-79144070D01*
X203583856Y-79156381D01*
X203569431Y-79160914D01*
X203566672Y-79147425D01*
X203564482Y-79111053D01*
X203563142Y-79057942D01*
X203562857Y-79015772D01*
X203561634Y-78954847D01*
X203558336Y-78906515D01*
X203553521Y-78876918D01*
X203549696Y-78870629D01*
X203523983Y-78877052D01*
X203483618Y-78893525D01*
X203436879Y-78915858D01*
X203392045Y-78939857D01*
X203357393Y-78961330D01*
X203341202Y-78976085D01*
X203341138Y-78976245D01*
X203342530Y-79003552D01*
X203355018Y-79029619D01*
X203376943Y-79050792D01*
X203408943Y-79057874D01*
X203436292Y-79057049D01*
X203475026Y-79056442D01*
X203495358Y-79065516D01*
X203507569Y-79089492D01*
X203509109Y-79094013D01*
X203514403Y-79128206D01*
X203500247Y-79148968D01*
X203463348Y-79158862D01*
X203423489Y-79160692D01*
X203351762Y-79147127D01*
X203314632Y-79127755D01*
X203268776Y-79082245D01*
X203244456Y-79026383D01*
X203242273Y-78967357D01*
X203262829Y-78912353D01*
X203293749Y-78877886D01*
X203324620Y-78858589D01*
X203373142Y-78834159D01*
X203429685Y-78809385D01*
X203439110Y-78805599D01*
X203501219Y-78778191D01*
X203537022Y-78754034D01*
X203548537Y-78730019D01*
X203537780Y-78703035D01*
X203519314Y-78681943D01*
X203475669Y-78655972D01*
X203427646Y-78654024D01*
X203383606Y-78674037D01*
X203351909Y-78713951D01*
X203347749Y-78724248D01*
X203323527Y-78762124D01*
X203288165Y-78790242D01*
X203243543Y-78813317D01*
X203243543Y-78747885D01*
X203246169Y-78707906D01*
X203257430Y-78676397D01*
X203282399Y-78642778D01*
X203306369Y-78616884D01*
X203343641Y-78580217D01*
X203372601Y-78560521D01*
X203403705Y-78552620D01*
X203438913Y-78551314D01*
X203516076Y-78562735D01*
G36*
X201475110Y-73848748D02*
G01*
X201553654Y-73849178D01*
X201610498Y-73850342D01*
X201649305Y-73852607D01*
X201673738Y-73856340D01*
X201687462Y-73861906D01*
X201694140Y-73869673D01*
X201697436Y-73880005D01*
X201697756Y-73881343D01*
X201702762Y-73905479D01*
X201712029Y-73953101D01*
X201724592Y-74019141D01*
X201739487Y-74098528D01*
X201755751Y-74186196D01*
X201756319Y-74189275D01*
X201772610Y-74275189D01*
X201787852Y-74351096D01*
X201801061Y-74412445D01*
X201811254Y-74454682D01*
X201817448Y-74473255D01*
X201817743Y-74473584D01*
X201835988Y-74482653D01*
X201873605Y-74497767D01*
X201922471Y-74515662D01*
X201922743Y-74515758D01*
X201984293Y-74538893D01*
X202056857Y-74568365D01*
X202125257Y-74597997D01*
X202128494Y-74599462D01*
X202239902Y-74650026D01*
X202486599Y-74481560D01*
X202562277Y-74430203D01*
X202630831Y-74384289D01*
X202688288Y-74346430D01*
X202730676Y-74319237D01*
X202754025Y-74305321D01*
X202756242Y-74304289D01*
X202773210Y-74308884D01*
X202804901Y-74331055D01*
X202852552Y-74371847D01*
X202917398Y-74432305D01*
X202983597Y-74496627D01*
X203047414Y-74560012D01*
X203104529Y-74617851D01*
X203151505Y-74666575D01*
X203184903Y-74702610D01*
X203201285Y-74722384D01*
X203201894Y-74723402D01*
X203203705Y-74736972D01*
X203196883Y-74759133D01*
X203179740Y-74792878D01*
X203150593Y-74841200D01*
X203107755Y-74907092D01*
X203050648Y-74991917D01*
X202999966Y-75066577D01*
X202954661Y-75133540D01*
X202917350Y-75188916D01*
X202890652Y-75228820D01*
X202877185Y-75249362D01*
X202876337Y-75250756D01*
X202877981Y-75270438D01*
X202890445Y-75308693D01*
X202911248Y-75358289D01*
X202918662Y-75374128D01*
X202951014Y-75444690D01*
X202985528Y-75524753D01*
X203013565Y-75594029D01*
X203033768Y-75645445D01*
X203049815Y-75684519D01*
X203059088Y-75704941D01*
X203060241Y-75706514D01*
X203077296Y-75709121D01*
X203117498Y-75716263D01*
X203175502Y-75726923D01*
X203245963Y-75740085D01*
X203323535Y-75754733D01*
X203402872Y-75769849D01*
X203478631Y-75784418D01*
X203545464Y-75797422D01*
X203598028Y-75807845D01*
X203630976Y-75814670D01*
X203639057Y-75816599D01*
X203647405Y-75821362D01*
X203653706Y-75832118D01*
X203658245Y-75852498D01*
X203661304Y-75886134D01*
X203663167Y-75936655D01*
X203664118Y-76007692D01*
X203664440Y-76102876D01*
X203664457Y-76141892D01*
X203664457Y-76459199D01*
X203588257Y-76474239D01*
X203545863Y-76482395D01*
X203482600Y-76494299D01*
X203406162Y-76508516D01*
X203324243Y-76523610D01*
X203301600Y-76527755D01*
X203226006Y-76542453D01*
X203160153Y-76556905D01*
X203109566Y-76569775D01*
X203079774Y-76579722D01*
X203074812Y-76582687D01*
X203062626Y-76603683D01*
X203045153Y-76644367D01*
X203025777Y-76696722D01*
X203021934Y-76708000D01*
X202996539Y-76777923D01*
X202965017Y-76856818D01*
X202934169Y-76927666D01*
X202934017Y-76927995D01*
X202882647Y-77039133D01*
X203051599Y-77287653D01*
X203220552Y-77536172D01*
X203003629Y-77753458D01*
X202938019Y-77818126D01*
X202878179Y-77875133D01*
X202827467Y-77921433D01*
X202789246Y-77953984D01*
X202766875Y-77969743D01*
X202763666Y-77970743D01*
X202744826Y-77962869D01*
X202706380Y-77940978D01*
X202652530Y-77907667D01*
X202587476Y-77865531D01*
X202517140Y-77818343D01*
X202445755Y-77770210D01*
X202382108Y-77728328D01*
X202330241Y-77695271D01*
X202294195Y-77673618D01*
X202278067Y-77665943D01*
X202258389Y-77672437D01*
X202221075Y-77689550D01*
X202173821Y-77713726D01*
X202168812Y-77716413D01*
X202105177Y-77748327D01*
X202061541Y-77763979D01*
X202034402Y-77764145D01*
X202020257Y-77749604D01*
X202020175Y-77749400D01*
X202013105Y-77732179D01*
X201996242Y-77691299D01*
X201970895Y-77629925D01*
X201938371Y-77551219D01*
X201899978Y-77458347D01*
X201857022Y-77354472D01*
X201815422Y-77253902D01*
X201769704Y-77142916D01*
X201727726Y-77040103D01*
X201690748Y-76948615D01*
X201660027Y-76871601D01*
X201636822Y-76812215D01*
X201622390Y-76773609D01*
X201617943Y-76759200D01*
X201629096Y-76742672D01*
X201658269Y-76716330D01*
X201697171Y-76687287D01*
X201807957Y-76595439D01*
X201894551Y-76490159D01*
X201955916Y-76373666D01*
X201991015Y-76248176D01*
X201998808Y-76115907D01*
X201993143Y-76054857D01*
X201962278Y-75928195D01*
X201909120Y-75816341D01*
X201836967Y-75720401D01*
X201749117Y-75641476D01*
X201648865Y-75580670D01*
X201539510Y-75539087D01*
X201424347Y-75517828D01*
X201306675Y-75517999D01*
X201189790Y-75540701D01*
X201076989Y-75587038D01*
X200971569Y-75658113D01*
X200927568Y-75698311D01*
X200843179Y-75801529D01*
X200784422Y-75914325D01*
X200750904Y-76033410D01*
X200742235Y-76155495D01*
X200758023Y-76277293D01*
X200797878Y-76395516D01*
X200861407Y-76506875D01*
X200948221Y-76608084D01*
X201045229Y-76687287D01*
X201085637Y-76717562D01*
X201114182Y-76743619D01*
X201124457Y-76759225D01*
X201119077Y-76776243D01*
X201103775Y-76816900D01*
X201079812Y-76878042D01*
X201048444Y-76956519D01*
X201010932Y-77049180D01*
X200968533Y-77152872D01*
X200926863Y-77253926D01*
X200880890Y-77365007D01*
X200838307Y-77467941D01*
X200800421Y-77559565D01*
X200768540Y-77636716D01*
X200743971Y-77696231D01*
X200728020Y-77734944D01*
X200722110Y-77749400D01*
X200708148Y-77764085D01*
X200681140Y-77764042D01*
X200637613Y-77748499D01*
X200574090Y-77716684D01*
X200573588Y-77716413D01*
X200525760Y-77691723D01*
X200487097Y-77673738D01*
X200465295Y-77666014D01*
X200464333Y-77665943D01*
X200447921Y-77673778D01*
X200411687Y-77695565D01*
X200359674Y-77728728D01*
X200295925Y-77770691D01*
X200225260Y-77818343D01*
X200153316Y-77866591D01*
X200088474Y-77908551D01*
X200034935Y-77941627D01*
X199996897Y-77963221D01*
X199978733Y-77970743D01*
X199962008Y-77960857D01*
X199928380Y-77933226D01*
X199881210Y-77890895D01*
X199823858Y-77836905D01*
X199759684Y-77774299D01*
X199738697Y-77753383D01*
X199521699Y-77536023D01*
X199686868Y-77293620D01*
X199737064Y-77219181D01*
X199781119Y-77152372D01*
X199816562Y-77097065D01*
X199840919Y-77057129D01*
X199851722Y-77036436D01*
X199852038Y-77034963D01*
X199846343Y-77015458D01*
X199831026Y-76976222D01*
X199808737Y-76923830D01*
X199793093Y-76888755D01*
X199763841Y-76821601D01*
X199736294Y-76753758D01*
X199714937Y-76696434D01*
X199709135Y-76678972D01*
X199692652Y-76632338D01*
X199676540Y-76596305D01*
X199667690Y-76582687D01*
X199648160Y-76574352D01*
X199605534Y-76562537D01*
X199545345Y-76548581D01*
X199473122Y-76533822D01*
X199440800Y-76527755D01*
X199358722Y-76512673D01*
X199279995Y-76498069D01*
X199212309Y-76485380D01*
X199163360Y-76476042D01*
X199154143Y-76474239D01*
X199077943Y-76459199D01*
X199077943Y-76141892D01*
X199078114Y-76037554D01*
X199078816Y-75958613D01*
X199080334Y-75901438D01*
X199082949Y-75862399D01*
X199086946Y-75837865D01*
X199092609Y-75824205D01*
X199100220Y-75817789D01*
X199103343Y-75816599D01*
X199122178Y-75812380D01*
X199163788Y-75803962D01*
X199222830Y-75792361D01*
X199293957Y-75778595D01*
X199371825Y-75763680D01*
X199451087Y-75748632D01*
X199526398Y-75734469D01*
X199592413Y-75722206D01*
X199643787Y-75712861D01*
X199675175Y-75707450D01*
X199682159Y-75706514D01*
X199688485Y-75693996D01*
X199702490Y-75660646D01*
X199721555Y-75612777D01*
X199728834Y-75594029D01*
X199758196Y-75521595D01*
X199792771Y-75441570D01*
X199823737Y-75374128D01*
X199846523Y-75322559D01*
X199861682Y-75280185D01*
X199866742Y-75254234D01*
X199865936Y-75250756D01*
X199855241Y-75234336D01*
X199830820Y-75197817D01*
X199795295Y-75145087D01*
X199751287Y-75080035D01*
X199701417Y-75006551D01*
X199691556Y-74992045D01*
X199633692Y-74906104D01*
X199591156Y-74840661D01*
X199562254Y-74792704D01*
X199545290Y-74759220D01*
X199538567Y-74737195D01*
X199540390Y-74723617D01*
X199540436Y-74723531D01*
X199554786Y-74705697D01*
X199586523Y-74671217D01*
X199632210Y-74623668D01*
X199688404Y-74566622D01*
X199751668Y-74503655D01*
X199758802Y-74496627D01*
X199838530Y-74419420D01*
X199900057Y-74362730D01*
X199944621Y-74325510D01*
X199973457Y-74306715D01*
X199986158Y-74304289D01*
X200004694Y-74314871D01*
X200043161Y-74339316D01*
X200097586Y-74375012D01*
X200163998Y-74419347D01*
X200238425Y-74469711D01*
X200255801Y-74481560D01*
X200502497Y-74650026D01*
X200613906Y-74599462D01*
X200681657Y-74569995D01*
X200754383Y-74540359D01*
X200816903Y-74516730D01*
X200819657Y-74515758D01*
X200868560Y-74497857D01*
X200906257Y-74482720D01*
X200924625Y-74473610D01*
X200924656Y-74473584D01*
X200930485Y-74457117D01*
X200940392Y-74416619D01*
X200953395Y-74356642D01*
X200968509Y-74281740D01*
X200984752Y-74196464D01*
X200986081Y-74189275D01*
X201002375Y-74101414D01*
X201017333Y-74021660D01*
X201029991Y-73955081D01*
X201039386Y-73906747D01*
X201044554Y-73881725D01*
X201044644Y-73881343D01*
X201047789Y-73870699D01*
X201053904Y-73862662D01*
X201066653Y-73856867D01*
X201089700Y-73852947D01*
X201126709Y-73850535D01*
X201181344Y-73849265D01*
X201257267Y-73848771D01*
X201358144Y-73848686D01*
X201371200Y-73848686D01*
X201475110Y-73848748D01*
G37*
X201475110Y-73848748D02*
X201553654Y-73849178D01*
X201610498Y-73850342D01*
X201649305Y-73852607D01*
X201673738Y-73856340D01*
X201687462Y-73861906D01*
X201694140Y-73869673D01*
X201697436Y-73880005D01*
X201697756Y-73881343D01*
X201702762Y-73905479D01*
X201712029Y-73953101D01*
X201724592Y-74019141D01*
X201739487Y-74098528D01*
X201755751Y-74186196D01*
X201756319Y-74189275D01*
X201772610Y-74275189D01*
X201787852Y-74351096D01*
X201801061Y-74412445D01*
X201811254Y-74454682D01*
X201817448Y-74473255D01*
X201817743Y-74473584D01*
X201835988Y-74482653D01*
X201873605Y-74497767D01*
X201922471Y-74515662D01*
X201922743Y-74515758D01*
X201984293Y-74538893D01*
X202056857Y-74568365D01*
X202125257Y-74597997D01*
X202128494Y-74599462D01*
X202239902Y-74650026D01*
X202486599Y-74481560D01*
X202562277Y-74430203D01*
X202630831Y-74384289D01*
X202688288Y-74346430D01*
X202730676Y-74319237D01*
X202754025Y-74305321D01*
X202756242Y-74304289D01*
X202773210Y-74308884D01*
X202804901Y-74331055D01*
X202852552Y-74371847D01*
X202917398Y-74432305D01*
X202983597Y-74496627D01*
X203047414Y-74560012D01*
X203104529Y-74617851D01*
X203151505Y-74666575D01*
X203184903Y-74702610D01*
X203201285Y-74722384D01*
X203201894Y-74723402D01*
X203203705Y-74736972D01*
X203196883Y-74759133D01*
X203179740Y-74792878D01*
X203150593Y-74841200D01*
X203107755Y-74907092D01*
X203050648Y-74991917D01*
X202999966Y-75066577D01*
X202954661Y-75133540D01*
X202917350Y-75188916D01*
X202890652Y-75228820D01*
X202877185Y-75249362D01*
X202876337Y-75250756D01*
X202877981Y-75270438D01*
X202890445Y-75308693D01*
X202911248Y-75358289D01*
X202918662Y-75374128D01*
X202951014Y-75444690D01*
X202985528Y-75524753D01*
X203013565Y-75594029D01*
X203033768Y-75645445D01*
X203049815Y-75684519D01*
X203059088Y-75704941D01*
X203060241Y-75706514D01*
X203077296Y-75709121D01*
X203117498Y-75716263D01*
X203175502Y-75726923D01*
X203245963Y-75740085D01*
X203323535Y-75754733D01*
X203402872Y-75769849D01*
X203478631Y-75784418D01*
X203545464Y-75797422D01*
X203598028Y-75807845D01*
X203630976Y-75814670D01*
X203639057Y-75816599D01*
X203647405Y-75821362D01*
X203653706Y-75832118D01*
X203658245Y-75852498D01*
X203661304Y-75886134D01*
X203663167Y-75936655D01*
X203664118Y-76007692D01*
X203664440Y-76102876D01*
X203664457Y-76141892D01*
X203664457Y-76459199D01*
X203588257Y-76474239D01*
X203545863Y-76482395D01*
X203482600Y-76494299D01*
X203406162Y-76508516D01*
X203324243Y-76523610D01*
X203301600Y-76527755D01*
X203226006Y-76542453D01*
X203160153Y-76556905D01*
X203109566Y-76569775D01*
X203079774Y-76579722D01*
X203074812Y-76582687D01*
X203062626Y-76603683D01*
X203045153Y-76644367D01*
X203025777Y-76696722D01*
X203021934Y-76708000D01*
X202996539Y-76777923D01*
X202965017Y-76856818D01*
X202934169Y-76927666D01*
X202934017Y-76927995D01*
X202882647Y-77039133D01*
X203051599Y-77287653D01*
X203220552Y-77536172D01*
X203003629Y-77753458D01*
X202938019Y-77818126D01*
X202878179Y-77875133D01*
X202827467Y-77921433D01*
X202789246Y-77953984D01*
X202766875Y-77969743D01*
X202763666Y-77970743D01*
X202744826Y-77962869D01*
X202706380Y-77940978D01*
X202652530Y-77907667D01*
X202587476Y-77865531D01*
X202517140Y-77818343D01*
X202445755Y-77770210D01*
X202382108Y-77728328D01*
X202330241Y-77695271D01*
X202294195Y-77673618D01*
X202278067Y-77665943D01*
X202258389Y-77672437D01*
X202221075Y-77689550D01*
X202173821Y-77713726D01*
X202168812Y-77716413D01*
X202105177Y-77748327D01*
X202061541Y-77763979D01*
X202034402Y-77764145D01*
X202020257Y-77749604D01*
X202020175Y-77749400D01*
X202013105Y-77732179D01*
X201996242Y-77691299D01*
X201970895Y-77629925D01*
X201938371Y-77551219D01*
X201899978Y-77458347D01*
X201857022Y-77354472D01*
X201815422Y-77253902D01*
X201769704Y-77142916D01*
X201727726Y-77040103D01*
X201690748Y-76948615D01*
X201660027Y-76871601D01*
X201636822Y-76812215D01*
X201622390Y-76773609D01*
X201617943Y-76759200D01*
X201629096Y-76742672D01*
X201658269Y-76716330D01*
X201697171Y-76687287D01*
X201807957Y-76595439D01*
X201894551Y-76490159D01*
X201955916Y-76373666D01*
X201991015Y-76248176D01*
X201998808Y-76115907D01*
X201993143Y-76054857D01*
X201962278Y-75928195D01*
X201909120Y-75816341D01*
X201836967Y-75720401D01*
X201749117Y-75641476D01*
X201648865Y-75580670D01*
X201539510Y-75539087D01*
X201424347Y-75517828D01*
X201306675Y-75517999D01*
X201189790Y-75540701D01*
X201076989Y-75587038D01*
X200971569Y-75658113D01*
X200927568Y-75698311D01*
X200843179Y-75801529D01*
X200784422Y-75914325D01*
X200750904Y-76033410D01*
X200742235Y-76155495D01*
X200758023Y-76277293D01*
X200797878Y-76395516D01*
X200861407Y-76506875D01*
X200948221Y-76608084D01*
X201045229Y-76687287D01*
X201085637Y-76717562D01*
X201114182Y-76743619D01*
X201124457Y-76759225D01*
X201119077Y-76776243D01*
X201103775Y-76816900D01*
X201079812Y-76878042D01*
X201048444Y-76956519D01*
X201010932Y-77049180D01*
X200968533Y-77152872D01*
X200926863Y-77253926D01*
X200880890Y-77365007D01*
X200838307Y-77467941D01*
X200800421Y-77559565D01*
X200768540Y-77636716D01*
X200743971Y-77696231D01*
X200728020Y-77734944D01*
X200722110Y-77749400D01*
X200708148Y-77764085D01*
X200681140Y-77764042D01*
X200637613Y-77748499D01*
X200574090Y-77716684D01*
X200573588Y-77716413D01*
X200525760Y-77691723D01*
X200487097Y-77673738D01*
X200465295Y-77666014D01*
X200464333Y-77665943D01*
X200447921Y-77673778D01*
X200411687Y-77695565D01*
X200359674Y-77728728D01*
X200295925Y-77770691D01*
X200225260Y-77818343D01*
X200153316Y-77866591D01*
X200088474Y-77908551D01*
X200034935Y-77941627D01*
X199996897Y-77963221D01*
X199978733Y-77970743D01*
X199962008Y-77960857D01*
X199928380Y-77933226D01*
X199881210Y-77890895D01*
X199823858Y-77836905D01*
X199759684Y-77774299D01*
X199738697Y-77753383D01*
X199521699Y-77536023D01*
X199686868Y-77293620D01*
X199737064Y-77219181D01*
X199781119Y-77152372D01*
X199816562Y-77097065D01*
X199840919Y-77057129D01*
X199851722Y-77036436D01*
X199852038Y-77034963D01*
X199846343Y-77015458D01*
X199831026Y-76976222D01*
X199808737Y-76923830D01*
X199793093Y-76888755D01*
X199763841Y-76821601D01*
X199736294Y-76753758D01*
X199714937Y-76696434D01*
X199709135Y-76678972D01*
X199692652Y-76632338D01*
X199676540Y-76596305D01*
X199667690Y-76582687D01*
X199648160Y-76574352D01*
X199605534Y-76562537D01*
X199545345Y-76548581D01*
X199473122Y-76533822D01*
X199440800Y-76527755D01*
X199358722Y-76512673D01*
X199279995Y-76498069D01*
X199212309Y-76485380D01*
X199163360Y-76476042D01*
X199154143Y-76474239D01*
X199077943Y-76459199D01*
X199077943Y-76141892D01*
X199078114Y-76037554D01*
X199078816Y-75958613D01*
X199080334Y-75901438D01*
X199082949Y-75862399D01*
X199086946Y-75837865D01*
X199092609Y-75824205D01*
X199100220Y-75817789D01*
X199103343Y-75816599D01*
X199122178Y-75812380D01*
X199163788Y-75803962D01*
X199222830Y-75792361D01*
X199293957Y-75778595D01*
X199371825Y-75763680D01*
X199451087Y-75748632D01*
X199526398Y-75734469D01*
X199592413Y-75722206D01*
X199643787Y-75712861D01*
X199675175Y-75707450D01*
X199682159Y-75706514D01*
X199688485Y-75693996D01*
X199702490Y-75660646D01*
X199721555Y-75612777D01*
X199728834Y-75594029D01*
X199758196Y-75521595D01*
X199792771Y-75441570D01*
X199823737Y-75374128D01*
X199846523Y-75322559D01*
X199861682Y-75280185D01*
X199866742Y-75254234D01*
X199865936Y-75250756D01*
X199855241Y-75234336D01*
X199830820Y-75197817D01*
X199795295Y-75145087D01*
X199751287Y-75080035D01*
X199701417Y-75006551D01*
X199691556Y-74992045D01*
X199633692Y-74906104D01*
X199591156Y-74840661D01*
X199562254Y-74792704D01*
X199545290Y-74759220D01*
X199538567Y-74737195D01*
X199540390Y-74723617D01*
X199540436Y-74723531D01*
X199554786Y-74705697D01*
X199586523Y-74671217D01*
X199632210Y-74623668D01*
X199688404Y-74566622D01*
X199751668Y-74503655D01*
X199758802Y-74496627D01*
X199838530Y-74419420D01*
X199900057Y-74362730D01*
X199944621Y-74325510D01*
X199973457Y-74306715D01*
X199986158Y-74304289D01*
X200004694Y-74314871D01*
X200043161Y-74339316D01*
X200097586Y-74375012D01*
X200163998Y-74419347D01*
X200238425Y-74469711D01*
X200255801Y-74481560D01*
X200502497Y-74650026D01*
X200613906Y-74599462D01*
X200681657Y-74569995D01*
X200754383Y-74540359D01*
X200816903Y-74516730D01*
X200819657Y-74515758D01*
X200868560Y-74497857D01*
X200906257Y-74482720D01*
X200924625Y-74473610D01*
X200924656Y-74473584D01*
X200930485Y-74457117D01*
X200940392Y-74416619D01*
X200953395Y-74356642D01*
X200968509Y-74281740D01*
X200984752Y-74196464D01*
X200986081Y-74189275D01*
X201002375Y-74101414D01*
X201017333Y-74021660D01*
X201029991Y-73955081D01*
X201039386Y-73906747D01*
X201044554Y-73881725D01*
X201044644Y-73881343D01*
X201047789Y-73870699D01*
X201053904Y-73862662D01*
X201066653Y-73856867D01*
X201089700Y-73852947D01*
X201126709Y-73850535D01*
X201181344Y-73849265D01*
X201257267Y-73848771D01*
X201358144Y-73848686D01*
X201371200Y-73848686D01*
X201475110Y-73848748D01*
G36*
X200087293Y-78534180D02*
G01*
X200133872Y-78561123D01*
X200166257Y-78587866D01*
X200189942Y-78615884D01*
X200206259Y-78650148D01*
X200216539Y-78695627D01*
X200222114Y-78757292D01*
X200224316Y-78840111D01*
X200224571Y-78899646D01*
X200224571Y-79118791D01*
X200162886Y-79146444D01*
X200101200Y-79174097D01*
X200093943Y-78934070D01*
X200090944Y-78844428D01*
X200087798Y-78779362D01*
X200083901Y-78734426D01*
X200078647Y-78705170D01*
X200071431Y-78687148D01*
X200061650Y-78675911D01*
X200058512Y-78673479D01*
X200010961Y-78654483D01*
X199962897Y-78662000D01*
X199934286Y-78681943D01*
X199922647Y-78696075D01*
X199914591Y-78714620D01*
X199909471Y-78742734D01*
X199906641Y-78785573D01*
X199905456Y-78848295D01*
X199905257Y-78913661D01*
X199905218Y-78995668D01*
X199903814Y-79053716D01*
X199899114Y-79092865D01*
X199889187Y-79118180D01*
X199872103Y-79134723D01*
X199845932Y-79147556D01*
X199810975Y-79160891D01*
X199772796Y-79175407D01*
X199777341Y-78917789D01*
X199779171Y-78824919D01*
X199781312Y-78756289D01*
X199784381Y-78707111D01*
X199788994Y-78672598D01*
X199795768Y-78647962D01*
X199805319Y-78628416D01*
X199816834Y-78611170D01*
X199872390Y-78556080D01*
X199940180Y-78524222D01*
X200013913Y-78516591D01*
X200087293Y-78534180D01*
G37*
X200087293Y-78534180D02*
X200133872Y-78561123D01*
X200166257Y-78587866D01*
X200189942Y-78615884D01*
X200206259Y-78650148D01*
X200216539Y-78695627D01*
X200222114Y-78757292D01*
X200224316Y-78840111D01*
X200224571Y-78899646D01*
X200224571Y-79118791D01*
X200162886Y-79146444D01*
X200101200Y-79174097D01*
X200093943Y-78934070D01*
X200090944Y-78844428D01*
X200087798Y-78779362D01*
X200083901Y-78734426D01*
X200078647Y-78705170D01*
X200071431Y-78687148D01*
X200061650Y-78675911D01*
X200058512Y-78673479D01*
X200010961Y-78654483D01*
X199962897Y-78662000D01*
X199934286Y-78681943D01*
X199922647Y-78696075D01*
X199914591Y-78714620D01*
X199909471Y-78742734D01*
X199906641Y-78785573D01*
X199905456Y-78848295D01*
X199905257Y-78913661D01*
X199905218Y-78995668D01*
X199903814Y-79053716D01*
X199899114Y-79092865D01*
X199889187Y-79118180D01*
X199872103Y-79134723D01*
X199845932Y-79147556D01*
X199810975Y-79160891D01*
X199772796Y-79175407D01*
X199777341Y-78917789D01*
X199779171Y-78824919D01*
X199781312Y-78756289D01*
X199784381Y-78707111D01*
X199788994Y-78672598D01*
X199795768Y-78647962D01*
X199805319Y-78628416D01*
X199816834Y-78611170D01*
X199872390Y-78556080D01*
X199940180Y-78524222D01*
X200013913Y-78516591D01*
X200087293Y-78534180D01*
G36*
X204023800Y-78565152D02*
G01*
X204041148Y-78572734D01*
X204082556Y-78605528D01*
X204117965Y-78652947D01*
X204139864Y-78703551D01*
X204143429Y-78728498D01*
X204131479Y-78763327D01*
X204105267Y-78781757D01*
X204077164Y-78792916D01*
X204064295Y-78794972D01*
X204058029Y-78780049D01*
X204045656Y-78747575D01*
X204040228Y-78732902D01*
X204009790Y-78682144D01*
X203965720Y-78656827D01*
X203909210Y-78657606D01*
X203905025Y-78658603D01*
X203874855Y-78672907D01*
X203852676Y-78700793D01*
X203837527Y-78745687D01*
X203828450Y-78811015D01*
X203824486Y-78900204D01*
X203824114Y-78947661D01*
X203823930Y-79022471D01*
X203822722Y-79073469D01*
X203819509Y-79105871D01*
X203813309Y-79124895D01*
X203803140Y-79135756D01*
X203788019Y-79143672D01*
X203787146Y-79144070D01*
X203758028Y-79156381D01*
X203743603Y-79160914D01*
X203741386Y-79147209D01*
X203739489Y-79109325D01*
X203738047Y-79052115D01*
X203737198Y-78980427D01*
X203737029Y-78927965D01*
X203737892Y-78826447D01*
X203741270Y-78749432D01*
X203748342Y-78692423D01*
X203760288Y-78650926D01*
X203778290Y-78620443D01*
X203803527Y-78596480D01*
X203828447Y-78579755D01*
X203888371Y-78557497D01*
X203958111Y-78552476D01*
X204023800Y-78565152D01*
G37*
X204023800Y-78565152D02*
X204041148Y-78572734D01*
X204082556Y-78605528D01*
X204117965Y-78652947D01*
X204139864Y-78703551D01*
X204143429Y-78728498D01*
X204131479Y-78763327D01*
X204105267Y-78781757D01*
X204077164Y-78792916D01*
X204064295Y-78794972D01*
X204058029Y-78780049D01*
X204045656Y-78747575D01*
X204040228Y-78732902D01*
X204009790Y-78682144D01*
X203965720Y-78656827D01*
X203909210Y-78657606D01*
X203905025Y-78658603D01*
X203874855Y-78672907D01*
X203852676Y-78700793D01*
X203837527Y-78745687D01*
X203828450Y-78811015D01*
X203824486Y-78900204D01*
X203824114Y-78947661D01*
X203823930Y-79022471D01*
X203822722Y-79073469D01*
X203819509Y-79105871D01*
X203813309Y-79124895D01*
X203803140Y-79135756D01*
X203788019Y-79143672D01*
X203787146Y-79144070D01*
X203758028Y-79156381D01*
X203743603Y-79160914D01*
X203741386Y-79147209D01*
X203739489Y-79109325D01*
X203738047Y-79052115D01*
X203737198Y-78980427D01*
X203737029Y-78927965D01*
X203737892Y-78826447D01*
X203741270Y-78749432D01*
X203748342Y-78692423D01*
X203760288Y-78650926D01*
X203778290Y-78620443D01*
X203803527Y-78596480D01*
X203828447Y-78579755D01*
X203888371Y-78557497D01*
X203958111Y-78552476D01*
X204023800Y-78565152D01*
G36*
X203151033Y-78565063D02*
G01*
X203153248Y-78603250D01*
X203154984Y-78661286D01*
X203156099Y-78734580D01*
X203156457Y-78811455D01*
X203156457Y-79071596D01*
X203110526Y-79117527D01*
X203078875Y-79145829D01*
X203051090Y-79157293D01*
X203013115Y-79156568D01*
X202998040Y-79154721D01*
X202950926Y-79149348D01*
X202911956Y-79146269D01*
X202902457Y-79145985D01*
X202870433Y-79147845D01*
X202824632Y-79152514D01*
X202806874Y-79154721D01*
X202763257Y-79158135D01*
X202733945Y-79150720D01*
X202704880Y-79127827D01*
X202694388Y-79117527D01*
X202648457Y-79071596D01*
X202648457Y-78585002D01*
X202685426Y-78568158D01*
X202717259Y-78555682D01*
X202735883Y-78551314D01*
X202740658Y-78565118D01*
X202745121Y-78603686D01*
X202748975Y-78662756D01*
X202751922Y-78738063D01*
X202753343Y-78801686D01*
X202757314Y-79052057D01*
X202791959Y-79056956D01*
X202823468Y-79053531D01*
X202838908Y-79042441D01*
X202843223Y-79021708D01*
X202846908Y-78977545D01*
X202849669Y-78915546D01*
X202851212Y-78841309D01*
X202851435Y-78803106D01*
X202851657Y-78583183D01*
X202897366Y-78567249D01*
X202929718Y-78556415D01*
X202947315Y-78551362D01*
X202947823Y-78551314D01*
X202949588Y-78565048D01*
X202951529Y-78603130D01*
X202953482Y-78660882D01*
X202955284Y-78733627D01*
X202956543Y-78801686D01*
X202960514Y-79052057D01*
X203047600Y-79052057D01*
X203051596Y-78823640D01*
X203055592Y-78595222D01*
X203098047Y-78573268D01*
X203129392Y-78558193D01*
X203147944Y-78551351D01*
X203148479Y-78551314D01*
X203151033Y-78565063D01*
G37*
X203151033Y-78565063D02*
X203153248Y-78603250D01*
X203154984Y-78661286D01*
X203156099Y-78734580D01*
X203156457Y-78811455D01*
X203156457Y-79071596D01*
X203110526Y-79117527D01*
X203078875Y-79145829D01*
X203051090Y-79157293D01*
X203013115Y-79156568D01*
X202998040Y-79154721D01*
X202950926Y-79149348D01*
X202911956Y-79146269D01*
X202902457Y-79145985D01*
X202870433Y-79147845D01*
X202824632Y-79152514D01*
X202806874Y-79154721D01*
X202763257Y-79158135D01*
X202733945Y-79150720D01*
X202704880Y-79127827D01*
X202694388Y-79117527D01*
X202648457Y-79071596D01*
X202648457Y-78585002D01*
X202685426Y-78568158D01*
X202717259Y-78555682D01*
X202735883Y-78551314D01*
X202740658Y-78565118D01*
X202745121Y-78603686D01*
X202748975Y-78662756D01*
X202751922Y-78738063D01*
X202753343Y-78801686D01*
X202757314Y-79052057D01*
X202791959Y-79056956D01*
X202823468Y-79053531D01*
X202838908Y-79042441D01*
X202843223Y-79021708D01*
X202846908Y-78977545D01*
X202849669Y-78915546D01*
X202851212Y-78841309D01*
X202851435Y-78803106D01*
X202851657Y-78583183D01*
X202897366Y-78567249D01*
X202929718Y-78556415D01*
X202947315Y-78551362D01*
X202947823Y-78551314D01*
X202949588Y-78565048D01*
X202951529Y-78603130D01*
X202953482Y-78660882D01*
X202955284Y-78733627D01*
X202956543Y-78801686D01*
X202960514Y-79052057D01*
X203047600Y-79052057D01*
X203051596Y-78823640D01*
X203055592Y-78595222D01*
X203098047Y-78573268D01*
X203129392Y-78558193D01*
X203147944Y-78551351D01*
X203148479Y-78551314D01*
X203151033Y-78565063D01*
G36*
X202155926Y-78696486D02*
G01*
X202178335Y-78645000D01*
X202213324Y-78604843D01*
X202240575Y-78584261D01*
X202290107Y-78562025D01*
X202347516Y-78551704D01*
X202400882Y-78554467D01*
X202430743Y-78565612D01*
X202442461Y-78568783D01*
X202450237Y-78556957D01*
X202455665Y-78525266D01*
X202459771Y-78476993D01*
X202464267Y-78423229D01*
X202470513Y-78390882D01*
X202481876Y-78372385D01*
X202501728Y-78360170D01*
X202514200Y-78354762D01*
X202561371Y-78335001D01*
X202561317Y-78671758D01*
X202561133Y-78780237D01*
X202560419Y-78863687D01*
X202558875Y-78926104D01*
X202556201Y-78971485D01*
X202552094Y-79003829D01*
X202546255Y-79027133D01*
X202538382Y-79045395D01*
X202532421Y-79055818D01*
X202483055Y-79112345D01*
X202420464Y-79147777D01*
X202351213Y-79160490D01*
X202281868Y-79148863D01*
X202240575Y-79127968D01*
X202197225Y-79091822D01*
X202167681Y-79047676D01*
X202149855Y-78989862D01*
X202141663Y-78912713D01*
X202140502Y-78856114D01*
X202140658Y-78852047D01*
X202242057Y-78852047D01*
X202242676Y-78916950D01*
X202245514Y-78959914D01*
X202252040Y-78988022D01*
X202263723Y-79008353D01*
X202277683Y-79023688D01*
X202324565Y-79053290D01*
X202374901Y-79055819D01*
X202422476Y-79031105D01*
X202426179Y-79027756D01*
X202441983Y-79010335D01*
X202451893Y-78989609D01*
X202457258Y-78958762D01*
X202459428Y-78910977D01*
X202459771Y-78858148D01*
X202459027Y-78791781D01*
X202455948Y-78747506D01*
X202449261Y-78718409D01*
X202437696Y-78697573D01*
X202428213Y-78686507D01*
X202384160Y-78658598D01*
X202333424Y-78655243D01*
X202284996Y-78676559D01*
X202275650Y-78684473D01*
X202259740Y-78702047D01*
X202249810Y-78722987D01*
X202244478Y-78754182D01*
X202242363Y-78802522D01*
X202242057Y-78852047D01*
X202140658Y-78852047D01*
X202144010Y-78764968D01*
X202155926Y-78696486D01*
G37*
X202155926Y-78696486D02*
X202178335Y-78645000D01*
X202213324Y-78604843D01*
X202240575Y-78584261D01*
X202290107Y-78562025D01*
X202347516Y-78551704D01*
X202400882Y-78554467D01*
X202430743Y-78565612D01*
X202442461Y-78568783D01*
X202450237Y-78556957D01*
X202455665Y-78525266D01*
X202459771Y-78476993D01*
X202464267Y-78423229D01*
X202470513Y-78390882D01*
X202481876Y-78372385D01*
X202501728Y-78360170D01*
X202514200Y-78354762D01*
X202561371Y-78335001D01*
X202561317Y-78671758D01*
X202561133Y-78780237D01*
X202560419Y-78863687D01*
X202558875Y-78926104D01*
X202556201Y-78971485D01*
X202552094Y-79003829D01*
X202546255Y-79027133D01*
X202538382Y-79045395D01*
X202532421Y-79055818D01*
X202483055Y-79112345D01*
X202420464Y-79147777D01*
X202351213Y-79160490D01*
X202281868Y-79148863D01*
X202240575Y-79127968D01*
X202197225Y-79091822D01*
X202167681Y-79047676D01*
X202149855Y-78989862D01*
X202141663Y-78912713D01*
X202140502Y-78856114D01*
X202140658Y-78852047D01*
X202242057Y-78852047D01*
X202242676Y-78916950D01*
X202245514Y-78959914D01*
X202252040Y-78988022D01*
X202263723Y-79008353D01*
X202277683Y-79023688D01*
X202324565Y-79053290D01*
X202374901Y-79055819D01*
X202422476Y-79031105D01*
X202426179Y-79027756D01*
X202441983Y-79010335D01*
X202451893Y-78989609D01*
X202457258Y-78958762D01*
X202459428Y-78910977D01*
X202459771Y-78858148D01*
X202459027Y-78791781D01*
X202455948Y-78747506D01*
X202449261Y-78718409D01*
X202437696Y-78697573D01*
X202428213Y-78686507D01*
X202384160Y-78658598D01*
X202333424Y-78655243D01*
X202284996Y-78676559D01*
X202275650Y-78684473D01*
X202259740Y-78702047D01*
X202249810Y-78722987D01*
X202244478Y-78754182D01*
X202242363Y-78802522D01*
X202242057Y-78852047D01*
X202140658Y-78852047D01*
X202144010Y-78764968D01*
X202155926Y-78696486D01*
G36*
X200747086Y-78457689D02*
G01*
X200751339Y-78517013D01*
X200756225Y-78551972D01*
X200762995Y-78567220D01*
X200772902Y-78567415D01*
X200776114Y-78565595D01*
X200818844Y-78552415D01*
X200874427Y-78553185D01*
X200930937Y-78566733D01*
X200966282Y-78584261D01*
X201002521Y-78612261D01*
X201029013Y-78643949D01*
X201047199Y-78684213D01*
X201058522Y-78737943D01*
X201064422Y-78810026D01*
X201066343Y-78905351D01*
X201066377Y-78923637D01*
X201066400Y-79129046D01*
X201020691Y-79144980D01*
X200988227Y-79155820D01*
X200970415Y-79160868D01*
X200969891Y-79160914D01*
X200968137Y-79147228D01*
X200966644Y-79109476D01*
X200965526Y-79052624D01*
X200964897Y-78981634D01*
X200964800Y-78938473D01*
X200964598Y-78853373D01*
X200963558Y-78792381D01*
X200961031Y-78750577D01*
X200956364Y-78723042D01*
X200948907Y-78704856D01*
X200938011Y-78691098D01*
X200931207Y-78684473D01*
X200884472Y-78657775D01*
X200833472Y-78655775D01*
X200787201Y-78678355D01*
X200778644Y-78686507D01*
X200766093Y-78701836D01*
X200757388Y-78720018D01*
X200751831Y-78746309D01*
X200748726Y-78785962D01*
X200747376Y-78844232D01*
X200747086Y-78924573D01*
X200747086Y-79129046D01*
X200701377Y-79144980D01*
X200668913Y-79155820D01*
X200651101Y-79160868D01*
X200650577Y-79160914D01*
X200649237Y-79147023D01*
X200648028Y-79107839D01*
X200647001Y-79047100D01*
X200646202Y-78968541D01*
X200645681Y-78875898D01*
X200645486Y-78772909D01*
X200645486Y-78375742D01*
X200692657Y-78355844D01*
X200739829Y-78335947D01*
X200747086Y-78457689D01*
G37*
X200747086Y-78457689D02*
X200751339Y-78517013D01*
X200756225Y-78551972D01*
X200762995Y-78567220D01*
X200772902Y-78567415D01*
X200776114Y-78565595D01*
X200818844Y-78552415D01*
X200874427Y-78553185D01*
X200930937Y-78566733D01*
X200966282Y-78584261D01*
X201002521Y-78612261D01*
X201029013Y-78643949D01*
X201047199Y-78684213D01*
X201058522Y-78737943D01*
X201064422Y-78810026D01*
X201066343Y-78905351D01*
X201066377Y-78923637D01*
X201066400Y-79129046D01*
X201020691Y-79144980D01*
X200988227Y-79155820D01*
X200970415Y-79160868D01*
X200969891Y-79160914D01*
X200968137Y-79147228D01*
X200966644Y-79109476D01*
X200965526Y-79052624D01*
X200964897Y-78981634D01*
X200964800Y-78938473D01*
X200964598Y-78853373D01*
X200963558Y-78792381D01*
X200961031Y-78750577D01*
X200956364Y-78723042D01*
X200948907Y-78704856D01*
X200938011Y-78691098D01*
X200931207Y-78684473D01*
X200884472Y-78657775D01*
X200833472Y-78655775D01*
X200787201Y-78678355D01*
X200778644Y-78686507D01*
X200766093Y-78701836D01*
X200757388Y-78720018D01*
X200751831Y-78746309D01*
X200748726Y-78785962D01*
X200747376Y-78844232D01*
X200747086Y-78924573D01*
X200747086Y-79129046D01*
X200701377Y-79144980D01*
X200668913Y-79155820D01*
X200651101Y-79160868D01*
X200650577Y-79160914D01*
X200649237Y-79147023D01*
X200648028Y-79107839D01*
X200647001Y-79047100D01*
X200646202Y-78968541D01*
X200645681Y-78875898D01*
X200645486Y-78772909D01*
X200645486Y-78375742D01*
X200692657Y-78355844D01*
X200739829Y-78335947D01*
X200747086Y-78457689D01*
%TD*%
%LPC*%
D13*
%TO.C,U3*%
X76022200Y-126898400D03*
%TD*%
D14*
%TO.C,P5*%
X131180800Y-130546283D03*
%TD*%
D15*
%TO.C,P2*%
X79163100Y-79564200D03*
%TD*%
D14*
%TO.C,P3*%
X131180800Y-63541083D03*
%TD*%
D15*
%TO.C,P4*%
X228107200Y-110886683D03*
%TD*%
%TO.C,P6*%
X228108700Y-79564200D03*
%TD*%
D13*
%TO.C,U2*%
X222631000Y-67259200D03*
%TD*%
%TO.C,U4*%
X222621030Y-126895860D03*
%TD*%
D15*
%TO.C,P1*%
X79161600Y-110886683D03*
%TD*%
D13*
%TO.C,U1*%
X76022200Y-67259200D03*
%TD*%
M02*
