%TF.GenerationSoftware,KiCad,Pcbnew,(6.0.4-0)*%
%TF.CreationDate,2022-05-03T11:23:51+02:00*%
%TF.ProjectId,AluminumCover,416c756d-696e-4756-9d43-6f7665722e6b,rev?*%
%TF.SameCoordinates,Original*%
%TF.FileFunction,Soldermask,Top*%
%TF.FilePolarity,Negative*%
%FSLAX46Y46*%
G04 Gerber Fmt 4.6, Leading zero omitted, Abs format (unit mm)*
G04 Created by KiCad (PCBNEW (6.0.4-0)) date 2022-05-03 11:23:51*
%MOMM*%
%LPD*%
G01*
G04 APERTURE LIST*
%ADD10C,0.200000*%
G04 APERTURE END LIST*
D10*
X197210000Y-104670000D02*
X210130000Y-104670000D01*
X210130000Y-104670000D02*
X210130000Y-121050000D01*
X210130000Y-121050000D02*
X197210000Y-121050000D01*
X197210000Y-121050000D02*
X197210000Y-104670000D01*
G36*
X197210000Y-104670000D02*
G01*
X210130000Y-104670000D01*
X210130000Y-121050000D01*
X197210000Y-121050000D01*
X197210000Y-104670000D01*
G37*
X197260000Y-68630000D02*
X210180000Y-68630000D01*
X210180000Y-68630000D02*
X210180000Y-85010000D01*
X210180000Y-85010000D02*
X197260000Y-85010000D01*
X197260000Y-85010000D02*
X197260000Y-68630000D01*
G36*
X197260000Y-68630000D02*
G01*
X210180000Y-68630000D01*
X210180000Y-85010000D01*
X197260000Y-85010000D01*
X197260000Y-68630000D01*
G37*
X92650000Y-103990000D02*
X105570000Y-103990000D01*
X105570000Y-103990000D02*
X105570000Y-120370000D01*
X105570000Y-120370000D02*
X92650000Y-120370000D01*
X92650000Y-120370000D02*
X92650000Y-103990000D01*
G36*
X92650000Y-103990000D02*
G01*
X105570000Y-103990000D01*
X105570000Y-120370000D01*
X92650000Y-120370000D01*
X92650000Y-103990000D01*
G37*
X92700000Y-67950000D02*
X105620000Y-67950000D01*
X105620000Y-67950000D02*
X105620000Y-84330000D01*
X105620000Y-84330000D02*
X92700000Y-84330000D01*
X92700000Y-84330000D02*
X92700000Y-67950000D01*
G36*
X92700000Y-67950000D02*
G01*
X105620000Y-67950000D01*
X105620000Y-84330000D01*
X92700000Y-84330000D01*
X92700000Y-67950000D01*
G37*
M02*
