%TF.GenerationSoftware,KiCad,Pcbnew,(6.0.4-0)*%
%TF.CreationDate,2022-05-03T11:23:51+02:00*%
%TF.ProjectId,AluminumCover,416c756d-696e-4756-9d43-6f7665722e6b,rev?*%
%TF.SameCoordinates,Original*%
%TF.FileFunction,Profile,NP*%
%FSLAX46Y46*%
G04 Gerber Fmt 4.6, Leading zero omitted, Abs format (unit mm)*
G04 Created by KiCad (PCBNEW (6.0.4-0)) date 2022-05-03 11:23:51*
%MOMM*%
%LPD*%
G01*
G04 APERTURE LIST*
%ADD10C,0.100000*%
%TA.AperFunction,Profile*%
%ADD11C,0.100000*%
%TD*%
G04 APERTURE END LIST*
D10*
X158720606Y-113155984D02*
X158723970Y-113264933D01*
X158734081Y-113370651D01*
X158750963Y-113473078D01*
X158774642Y-113572156D01*
X158805144Y-113667823D01*
X158856470Y-113789974D01*
X158920030Y-113905818D01*
X158995884Y-114015215D01*
X159060880Y-114092947D01*
X159108084Y-114142680D01*
D11*
X163769522Y-93641545D02*
X163845675Y-93703840D01*
X216020000Y-130990000D02*
X86020000Y-130990000D01*
D10*
X137947151Y-91956335D02*
X137874700Y-91871400D01*
X137805436Y-91792260D01*
X137736644Y-91714861D01*
X137660259Y-91629865D01*
X137540100Y-88091137D02*
X137624935Y-88009910D01*
X137712124Y-87933931D01*
X137801681Y-87863197D01*
X137893618Y-87797707D01*
X137987950Y-87737462D01*
X138084689Y-87682460D01*
X138183849Y-87632700D01*
X138285444Y-87588181D01*
X138389487Y-87548903D01*
X138495990Y-87514865D01*
X138604969Y-87486066D01*
X138716435Y-87462505D01*
X138830403Y-87444181D01*
X138946885Y-87431093D01*
X139065896Y-87423242D01*
X139187449Y-87420625D01*
D11*
X221020000Y-65990000D02*
X221020000Y-125990000D01*
X163639506Y-77757873D02*
X163639506Y-81226105D01*
D10*
X143963619Y-92206938D02*
X143963135Y-92333185D01*
X143961683Y-92459014D01*
X143959264Y-92584424D01*
X143955878Y-92709414D01*
X143951525Y-92833985D01*
X143946205Y-92958138D01*
X143939919Y-93081872D01*
X143932666Y-93205187D01*
X143924447Y-93328083D01*
X143915261Y-93450561D01*
X143905110Y-93572621D01*
X143893993Y-93694262D01*
X143881910Y-93815485D01*
X143868862Y-93936291D01*
X143854849Y-94056678D01*
X143839871Y-94176647D01*
X143823928Y-94296199D01*
X143807020Y-94415333D01*
X143789148Y-94534049D01*
X143770312Y-94652348D01*
X143750511Y-94770230D01*
X143729747Y-94887695D01*
X143708019Y-95004742D01*
X143685327Y-95121372D01*
X143661672Y-95237586D01*
X143637054Y-95353383D01*
X143611473Y-95468763D01*
X143584929Y-95583726D01*
X143557422Y-95698273D01*
X143528953Y-95812404D01*
X143499522Y-95926118D01*
X143469129Y-96039417D01*
X143521848Y-102709678D02*
X143631242Y-102505215D01*
X143742380Y-102302934D01*
X143855262Y-102102832D01*
X143969887Y-101904910D01*
X144086255Y-101709167D01*
X144204366Y-101515603D01*
X144324219Y-101324218D01*
X144445815Y-101135010D01*
X144569154Y-100947980D01*
X144694234Y-100763128D01*
X144821057Y-100580452D01*
X144949621Y-100399953D01*
X145079926Y-100221630D01*
X145211974Y-100045482D01*
X145345762Y-99871510D01*
X145481291Y-99699713D01*
X145618562Y-99530090D01*
X145757573Y-99362642D01*
X145898324Y-99197367D01*
X146040816Y-99034265D01*
X146185047Y-98873337D01*
X146331019Y-98714581D01*
X146478731Y-98557997D01*
X146628182Y-98403585D01*
X146779372Y-98251344D01*
X146932302Y-98101274D01*
X147086971Y-97953375D01*
X147243378Y-97807646D01*
X147401525Y-97664087D01*
X147561409Y-97522697D01*
X147723032Y-97383477D01*
X147886394Y-97246425D01*
X156052415Y-90689891D02*
X156112261Y-90560619D01*
X156168250Y-90430408D01*
X156220380Y-90299260D01*
X156268652Y-90167178D01*
X156313064Y-90034163D01*
X156353616Y-89900218D01*
X156390308Y-89765344D01*
X156423140Y-89629544D01*
X156452110Y-89492819D01*
X156477220Y-89355173D01*
X156498467Y-89216606D01*
X156515852Y-89077122D01*
X156529375Y-88936722D01*
X156539034Y-88795408D01*
X156544830Y-88653182D01*
X156546763Y-88510047D01*
X169931150Y-87420625D02*
X170039330Y-87425599D01*
X170143716Y-87440573D01*
X170244385Y-87465620D01*
X170341415Y-87500813D01*
X170434881Y-87546226D01*
X170524862Y-87601932D01*
X170611434Y-87668006D01*
X170694674Y-87744522D01*
X161363222Y-108005198D02*
X161295972Y-108093355D01*
X161229320Y-108181369D01*
X161163266Y-108269239D01*
X161097810Y-108356965D01*
X161032952Y-108444546D01*
X160968693Y-108531984D01*
X160905032Y-108619277D01*
X160841969Y-108706426D01*
X160779505Y-108793431D01*
X160717639Y-108880292D01*
X160656373Y-108967008D01*
X160595705Y-109053580D01*
X160535636Y-109140008D01*
X160476166Y-109226291D01*
X160417296Y-109312430D01*
X160359024Y-109398425D01*
X160301352Y-109484275D01*
X160244280Y-109569981D01*
X160187807Y-109655542D01*
X160131934Y-109740959D01*
X160076661Y-109826232D01*
X160021988Y-109911359D01*
X159967915Y-109996343D01*
X159914442Y-110081181D01*
X159809297Y-110250425D01*
X159706553Y-110419090D01*
X159606213Y-110587176D01*
X159508276Y-110754683D01*
X160856731Y-116386103D02*
X160773490Y-116462618D01*
X160686918Y-116528692D01*
X160596938Y-116584398D01*
X160503471Y-116629811D01*
X160406442Y-116665004D01*
X160305772Y-116690051D01*
X160201385Y-116705025D01*
X160093205Y-116710000D01*
X151795025Y-94636528D02*
X151899502Y-94574336D01*
X152001781Y-94512868D01*
X152101861Y-94452123D01*
X152199739Y-94392101D01*
X152295415Y-94332801D01*
X152388887Y-94274223D01*
X152480153Y-94216368D01*
X152569212Y-94159234D01*
X152656063Y-94102822D01*
X152740704Y-94047132D01*
X152863518Y-93964948D01*
X152981352Y-93884387D01*
X153094201Y-93805447D01*
X153202059Y-93728128D01*
X170357489Y-89672478D02*
X170271243Y-89777758D01*
X170180954Y-89882555D01*
X170086614Y-89986865D01*
X169988217Y-90090688D01*
X169885757Y-90194021D01*
X169779229Y-90296862D01*
X169668626Y-90399210D01*
X169553942Y-90501062D01*
X169435171Y-90602418D01*
X169312306Y-90703274D01*
X169185343Y-90803629D01*
X169054274Y-90903481D01*
X168919095Y-91002828D01*
X168779797Y-91101669D01*
X168636377Y-91200001D01*
X168488827Y-91297823D01*
X142252403Y-99146090D02*
X142161267Y-99309126D01*
X142070131Y-99471409D01*
X141978995Y-99632939D01*
X141887861Y-99793715D01*
X141796726Y-99953738D01*
X141705593Y-100113008D01*
X141614461Y-100271524D01*
X141523331Y-100429286D01*
X141432202Y-100586295D01*
X141341075Y-100742550D01*
X141249950Y-100898053D01*
X141158828Y-101052801D01*
X141067708Y-101206796D01*
X140976590Y-101360038D01*
X140885476Y-101512526D01*
X140794365Y-101664261D01*
D11*
X160093205Y-116710000D02*
X142876770Y-116710000D01*
D10*
X167354399Y-83835791D02*
X167425427Y-83938483D01*
X167495403Y-84041012D01*
X167564328Y-84143379D01*
X167632202Y-84245583D01*
X167699024Y-84347625D01*
X167764794Y-84449505D01*
X167829513Y-84551222D01*
X167893181Y-84652777D01*
X167955797Y-84754169D01*
X168017361Y-84855399D01*
X168077874Y-84956468D01*
X168137336Y-85057374D01*
X168195746Y-85158118D01*
X168253105Y-85258701D01*
X168309412Y-85359121D01*
X168364668Y-85459380D01*
X142468145Y-88919098D02*
X142560692Y-89013591D01*
X142650249Y-89108611D01*
X142736821Y-89204157D01*
X142820410Y-89300232D01*
X142901019Y-89396834D01*
X142978653Y-89493965D01*
X143053314Y-89591626D01*
X143125006Y-89689816D01*
X143193732Y-89788537D01*
X143259495Y-89887790D01*
X143322300Y-89987574D01*
X143382148Y-90087890D01*
X143439045Y-90188739D01*
X143492992Y-90290122D01*
X143543994Y-90392039D01*
X143592053Y-90494491D01*
X143637174Y-90597478D01*
X143679359Y-90701001D01*
X143718613Y-90805061D01*
X143754937Y-90909657D01*
X143788336Y-91014792D01*
X143818813Y-91120465D01*
X143846372Y-91226677D01*
X143871015Y-91333429D01*
X143892747Y-91440720D01*
X143911570Y-91548553D01*
X143927487Y-91656927D01*
X143940504Y-91765842D01*
X143950621Y-91875301D01*
X143957844Y-91985302D01*
X143962176Y-92095848D01*
X143963619Y-92206938D01*
X159108084Y-114142680D02*
X159183154Y-114212479D01*
X159261976Y-114275303D01*
X159372803Y-114348258D01*
X159490047Y-114408912D01*
X159613565Y-114457322D01*
X159710234Y-114485629D01*
X159810291Y-114507104D01*
X159913673Y-114521771D01*
X160020321Y-114529656D01*
X160093205Y-114531156D01*
D11*
X163639524Y-77757873D02*
G75*
G03*
X163446870Y-77614060I-150024J-27D01*
G01*
X163639497Y-81226105D02*
G75*
G03*
X163756396Y-81372405I150003J5D01*
G01*
D10*
X139409762Y-108933886D02*
X139481754Y-109049175D01*
X139558378Y-109154332D01*
X139639637Y-109249092D01*
X139725538Y-109333191D01*
X139816084Y-109406366D01*
X139911281Y-109468355D01*
X140011134Y-109518892D01*
X140115648Y-109557715D01*
X140224828Y-109584560D01*
X140338679Y-109599164D01*
X140417177Y-109601969D01*
X171018000Y-88510047D02*
X171004602Y-88610869D01*
X170972524Y-88714205D01*
X170926787Y-88821916D01*
X170873150Y-88927556D01*
X170862838Y-88946387D01*
X168364668Y-85459380D02*
X168419727Y-85559741D01*
X168474054Y-85658032D01*
X168527647Y-85754250D01*
X168580507Y-85848395D01*
X168632634Y-85940464D01*
X168684027Y-86030456D01*
X168734687Y-86118370D01*
X168809301Y-86246342D01*
X168882266Y-86369629D01*
X168953580Y-86488226D01*
X169023245Y-86602130D01*
X169091259Y-86711334D01*
X169157624Y-86815835D01*
X157492310Y-84357585D02*
X157551794Y-84242299D01*
X157612941Y-84129210D01*
X157675752Y-84018314D01*
X157740226Y-83909612D01*
X157806363Y-83803101D01*
X157874165Y-83698780D01*
X157943630Y-83596648D01*
X158014760Y-83496702D01*
X158087554Y-83398942D01*
X158162013Y-83303365D01*
X158238137Y-83209971D01*
X158315926Y-83118757D01*
X158395381Y-83029723D01*
X158476501Y-82942867D01*
X158559286Y-82858187D01*
X158643738Y-82775682D01*
X158729855Y-82695350D01*
X158817640Y-82617190D01*
X158907090Y-82541200D01*
X158998208Y-82467379D01*
X159090992Y-82395725D01*
X159185444Y-82326237D01*
X159281563Y-82258914D01*
X159379349Y-82193752D01*
X159478804Y-82130753D01*
X159579926Y-82069913D01*
X159682717Y-82011231D01*
X159787176Y-81954705D01*
X159893304Y-81900335D01*
X160001101Y-81848119D01*
X160110566Y-81798055D01*
X160221702Y-81750142D01*
D11*
X81020000Y-125990000D02*
X81020000Y-65990000D01*
D10*
X166098957Y-98368422D02*
X166098221Y-98472378D01*
X166096014Y-98576578D01*
X166092334Y-98681022D01*
X166087182Y-98785710D01*
X166080555Y-98890642D01*
X166072454Y-98995820D01*
X166062878Y-99101241D01*
X166051826Y-99206908D01*
X166039296Y-99312820D01*
X166025290Y-99418977D01*
X166009805Y-99525379D01*
X165992841Y-99632027D01*
X165974398Y-99738921D01*
X165954474Y-99846061D01*
X165933069Y-99953447D01*
X165910183Y-100061079D01*
X165885813Y-100168958D01*
X165859960Y-100277084D01*
X165832624Y-100385456D01*
X165803802Y-100494076D01*
X165773495Y-100602943D01*
X165741701Y-100712058D01*
X165708421Y-100821420D01*
X165673653Y-100931029D01*
X165637396Y-101040887D01*
X165599650Y-101150993D01*
X165560415Y-101261348D01*
X165519688Y-101371951D01*
X165477471Y-101482803D01*
X165433761Y-101593904D01*
X165388558Y-101705253D01*
X165341862Y-101816853D01*
X139187449Y-87420625D02*
X139298285Y-87422070D01*
X139408578Y-87426409D01*
X139518330Y-87433644D01*
X139627540Y-87443780D01*
X139736209Y-87456820D01*
X139844338Y-87472767D01*
X139951927Y-87491624D01*
X140058978Y-87513395D01*
X140165490Y-87538084D01*
X140271465Y-87565694D01*
X140376902Y-87596228D01*
X140481803Y-87629690D01*
X140586169Y-87666083D01*
X140689999Y-87705411D01*
X140793294Y-87747678D01*
X140896056Y-87792886D01*
X140998284Y-87841039D01*
X141099980Y-87892140D01*
X141201144Y-87946194D01*
X141301776Y-88003203D01*
X141401878Y-88063171D01*
X141501449Y-88126102D01*
X141600491Y-88191998D01*
X141699004Y-88260864D01*
X141796989Y-88332702D01*
X141894446Y-88407517D01*
X141991376Y-88485311D01*
X142087780Y-88566088D01*
X142183658Y-88649852D01*
X142279011Y-88736606D01*
X142373840Y-88826353D01*
X142468145Y-88919098D01*
X165849355Y-82328546D02*
X165966028Y-82416594D01*
X166079665Y-82505469D01*
X166190272Y-82595170D01*
X166297851Y-82685694D01*
X166402409Y-82777041D01*
X166503949Y-82869210D01*
X166602476Y-82962198D01*
X166697995Y-83056006D01*
X166790510Y-83150631D01*
X166880026Y-83246072D01*
X166966548Y-83342328D01*
X167050079Y-83439398D01*
X167130626Y-83537281D01*
X167208191Y-83635975D01*
X167282781Y-83735478D01*
X167354399Y-83835791D01*
X169523099Y-87253176D02*
X169606742Y-87314969D01*
X169706347Y-87369945D01*
X169810000Y-87405909D01*
X169917461Y-87420437D01*
X169931150Y-87420625D01*
X137174057Y-105180701D02*
X137213458Y-105025155D01*
X137255262Y-104864769D01*
X137299469Y-104699542D01*
X137346080Y-104529472D01*
X137395096Y-104354559D01*
X137446518Y-104174800D01*
X137500348Y-103990196D01*
X137556586Y-103800743D01*
X137585608Y-103704199D01*
X137615233Y-103606442D01*
X137645461Y-103507472D01*
X137676291Y-103407290D01*
X137707724Y-103305895D01*
X137739760Y-103203287D01*
X137772399Y-103099466D01*
X137805641Y-102994432D01*
X137839487Y-102888184D01*
X137873936Y-102780723D01*
X137908989Y-102672048D01*
X137944646Y-102562158D01*
X137980906Y-102451055D01*
X138017771Y-102338738D01*
X138055240Y-102225206D01*
X138093313Y-102110460D01*
D11*
X160221711Y-81750164D02*
G75*
G03*
X160309946Y-81646124I-57811J138464D01*
G01*
D10*
X143469129Y-96039417D02*
X143437887Y-96152446D01*
X143406206Y-96264443D01*
X143374086Y-96375409D01*
X143341527Y-96485343D01*
X143308529Y-96594247D01*
X143275093Y-96702120D01*
X143241218Y-96808963D01*
X143206905Y-96914775D01*
X143172154Y-97019558D01*
X143136965Y-97123312D01*
X143101339Y-97226036D01*
X143065275Y-97327732D01*
X143028773Y-97428399D01*
X142991835Y-97528038D01*
X142954459Y-97626649D01*
X142916647Y-97724233D01*
X142878399Y-97820790D01*
X142839713Y-97916320D01*
X142800592Y-98010823D01*
X142761035Y-98104300D01*
X142721041Y-98196751D01*
X142639748Y-98378576D01*
X142556714Y-98556302D01*
X142471940Y-98729930D01*
X142385427Y-98899463D01*
X142297178Y-99064903D01*
X142252403Y-99146090D01*
X160093205Y-114531156D02*
X160201385Y-114536130D01*
X160305772Y-114551104D01*
X160406442Y-114576151D01*
X160503471Y-114611344D01*
X160596938Y-114656757D01*
X160686918Y-114712464D01*
X160773490Y-114778538D01*
X160856731Y-114855054D01*
X137660259Y-91629865D02*
X137574427Y-91531374D01*
X137492665Y-91430607D01*
X137414972Y-91327563D01*
X137341345Y-91222242D01*
X137271783Y-91114644D01*
X137206285Y-91004769D01*
X137144848Y-90892617D01*
X137087472Y-90778188D01*
X168488827Y-91297823D02*
X168341074Y-91391402D01*
X168194316Y-91478791D01*
X168048548Y-91560011D01*
X167903765Y-91635082D01*
X167759964Y-91704026D01*
X167617142Y-91766864D01*
X167475293Y-91823617D01*
X167334415Y-91874306D01*
X167194502Y-91918953D01*
X167055552Y-91957578D01*
X166917560Y-91990203D01*
X166780522Y-92016849D01*
X166644434Y-92037537D01*
X166509292Y-92052287D01*
X166375093Y-92061122D01*
X166241832Y-92064063D01*
X153202059Y-93728128D02*
X153310972Y-93647802D01*
X153425538Y-93560735D01*
X153505054Y-93498951D01*
X153587079Y-93434178D01*
X153671612Y-93366419D01*
X153758650Y-93295678D01*
X153848193Y-93221957D01*
X153940239Y-93145258D01*
X154034787Y-93065586D01*
X154131835Y-92982943D01*
X154231382Y-92897331D01*
X154333425Y-92808755D01*
X154437965Y-92717216D01*
X154544999Y-92622717D01*
X154654526Y-92525263D01*
X170862838Y-88946387D02*
X170807106Y-89042698D01*
X170742873Y-89145330D01*
X170685317Y-89231998D01*
X170622241Y-89322733D01*
X170553609Y-89417545D01*
X170479385Y-89516444D01*
X170399535Y-89619440D01*
X170357489Y-89672478D01*
X141623182Y-108881594D02*
X141676122Y-108791770D01*
X141720873Y-108695102D01*
X141748630Y-108601416D01*
D11*
X86020000Y-60990000D02*
G75*
G03*
X81020000Y-65990000I0J-5000000D01*
G01*
D10*
X138093313Y-102110460D02*
X138131497Y-101995354D01*
X138169085Y-101881440D01*
X138206077Y-101768719D01*
X138242472Y-101657190D01*
X138278270Y-101546855D01*
X138313472Y-101437712D01*
X138348077Y-101329762D01*
X138382084Y-101223005D01*
X138415495Y-101117442D01*
X138448308Y-101013072D01*
X138480523Y-100909896D01*
X138512140Y-100807914D01*
X138543160Y-100707126D01*
X138573581Y-100607531D01*
X138603404Y-100509132D01*
X138632629Y-100411926D01*
X138661255Y-100315916D01*
X138716711Y-100127479D01*
X138769771Y-99943822D01*
X138820434Y-99764947D01*
X138868697Y-99590855D01*
X138914561Y-99421547D01*
X138958024Y-99257024D01*
X138999084Y-99097288D01*
X139018713Y-99019216D01*
X159508276Y-110754683D02*
X159413937Y-110921725D01*
X159325484Y-111086537D01*
X159242943Y-111249112D01*
X159166342Y-111409444D01*
X159095709Y-111567525D01*
X159031073Y-111723350D01*
X158972460Y-111876910D01*
X158919898Y-112028200D01*
X158873416Y-112177213D01*
X158833042Y-112323943D01*
X158798802Y-112468382D01*
X158770726Y-112610523D01*
X158748840Y-112750361D01*
X158733173Y-112887888D01*
X158723752Y-113023098D01*
X158720606Y-113155984D01*
D11*
X81020000Y-125990000D02*
G75*
G03*
X86020000Y-130990000I5000000J0D01*
G01*
D10*
X166241832Y-92064063D02*
X166124645Y-92065453D01*
X166009911Y-92069637D01*
X165897645Y-92076632D01*
X165787862Y-92086453D01*
X165680575Y-92099120D01*
X165575801Y-92114648D01*
X165473553Y-92133055D01*
X165373848Y-92154359D01*
X165276699Y-92178576D01*
X165135801Y-92220401D01*
X165000740Y-92268877D01*
X164871565Y-92324063D01*
X164748327Y-92386017D01*
X164669491Y-92431108D01*
X139018713Y-99019216D02*
X139056070Y-98867046D01*
X139091091Y-98719421D01*
X139123764Y-98576352D01*
X139154079Y-98437851D01*
X139182027Y-98303928D01*
X139207597Y-98174595D01*
X139230779Y-98049862D01*
X139251564Y-97929741D01*
X139269942Y-97814242D01*
X139285901Y-97703378D01*
X139299433Y-97597159D01*
X139310527Y-97495595D01*
X139322575Y-97352005D01*
X139329081Y-97218953D01*
X139330324Y-97136125D01*
X170694674Y-87744522D02*
X170771041Y-87827930D01*
X170836993Y-87914686D01*
X170892600Y-88004872D01*
X170937936Y-88098567D01*
X170973072Y-88195851D01*
X170998080Y-88296806D01*
X171013032Y-88401511D01*
X171018000Y-88510047D01*
X161814993Y-78880315D02*
X161888148Y-78797331D01*
X161960597Y-78717114D01*
X162032337Y-78639656D01*
X162103370Y-78564950D01*
X162173693Y-78492989D01*
X162277847Y-78390177D01*
X162380402Y-78293500D01*
X162481356Y-78202932D01*
X162580707Y-78118448D01*
X162678452Y-78040024D01*
X162774590Y-77967635D01*
X162869119Y-77901256D01*
X162900271Y-77880461D01*
X141748630Y-108601416D02*
X141766472Y-108501853D01*
X141780661Y-108394494D01*
X141788419Y-108292165D01*
X141789916Y-108226797D01*
D11*
X216020000Y-130990000D02*
G75*
G03*
X221020000Y-125990000I0J5000000D01*
G01*
D10*
X163756395Y-81372407D02*
X163900470Y-81407024D01*
X164042765Y-81444994D01*
X164183282Y-81486316D01*
X164322023Y-81530989D01*
X164458992Y-81579015D01*
X164594191Y-81630393D01*
X164727621Y-81685123D01*
X164859287Y-81743205D01*
X164989189Y-81804639D01*
X165117331Y-81869426D01*
X165243715Y-81937565D01*
X165368344Y-82009056D01*
X165491220Y-82083900D01*
X165612345Y-82162096D01*
X165731722Y-82243644D01*
X165849355Y-82328546D01*
X162900271Y-77880461D02*
X162990874Y-77823124D01*
X163079533Y-77771737D01*
X163183376Y-77717801D01*
X163284461Y-77672150D01*
X163382811Y-77634631D01*
X163446870Y-77614060D01*
X160856731Y-114855054D02*
X160933098Y-114938461D01*
X160999049Y-115025217D01*
X161054657Y-115115402D01*
X161099993Y-115209097D01*
X161135129Y-115306381D01*
X161160137Y-115407336D01*
X161175089Y-115512041D01*
X161180057Y-115620578D01*
X139044574Y-106994500D02*
X139045929Y-107152341D01*
X139050016Y-107305445D01*
X139056861Y-107453782D01*
X139066494Y-107597319D01*
X139078942Y-107736024D01*
X139094233Y-107869867D01*
X139112396Y-107998815D01*
X139133460Y-108122837D01*
X139157452Y-108241902D01*
X139184400Y-108355977D01*
X139214333Y-108465032D01*
X139247280Y-108569034D01*
X139283268Y-108667952D01*
X139322325Y-108761754D01*
X139386728Y-108892797D01*
X139409762Y-108933886D01*
X139330324Y-97136125D02*
X139329112Y-96954673D01*
X139325475Y-96774837D01*
X139319412Y-96596619D01*
X139310921Y-96420019D01*
X139300002Y-96245038D01*
X139286653Y-96071679D01*
X139270873Y-95899941D01*
X139252660Y-95729826D01*
X139232013Y-95561336D01*
X139208932Y-95394471D01*
X139183413Y-95229233D01*
X139155458Y-95065622D01*
X139125063Y-94903641D01*
X139092228Y-94743290D01*
X139056951Y-94584570D01*
X139019232Y-94427483D01*
X138979068Y-94272029D01*
X138936460Y-94118210D01*
X138891404Y-93966028D01*
X138843901Y-93815482D01*
X138793948Y-93666575D01*
X138741545Y-93519308D01*
X138686691Y-93373681D01*
X138629383Y-93229697D01*
X138569621Y-93087355D01*
X138507403Y-92946658D01*
X138442728Y-92807606D01*
X138375595Y-92670201D01*
X138306003Y-92534444D01*
X138233950Y-92400336D01*
X138159435Y-92267878D01*
X138082457Y-92137072D01*
X138032022Y-92061776D02*
X137968881Y-91982420D01*
X137947151Y-91956335D01*
X163512491Y-105101406D02*
X163445317Y-105195060D01*
X163378145Y-105288527D01*
X163310973Y-105381806D01*
X163243803Y-105474898D01*
X163176632Y-105567802D01*
X163109463Y-105660519D01*
X163042294Y-105753048D01*
X162975126Y-105845389D01*
X162907959Y-105937542D01*
X162840792Y-106029508D01*
X162773626Y-106121286D01*
X162706460Y-106212876D01*
X162639295Y-106304278D01*
X162572130Y-106395493D01*
X162504966Y-106486519D01*
X162437802Y-106577358D01*
X162370639Y-106668008D01*
X162303476Y-106758471D01*
X162236313Y-106848746D01*
X162169151Y-106938833D01*
X162101989Y-107028731D01*
X162034827Y-107118442D01*
X161967666Y-107207964D01*
X161900505Y-107297299D01*
X161833344Y-107386445D01*
X161766183Y-107475403D01*
X161699023Y-107564173D01*
X161631862Y-107652754D01*
X161564702Y-107741147D01*
X161497542Y-107829352D01*
X161430382Y-107917369D01*
X161363222Y-108005198D01*
X163845675Y-93703840D02*
X163984568Y-93820264D01*
X164119027Y-93938564D01*
X164249054Y-94058741D01*
X164374649Y-94180797D01*
X164495815Y-94304734D01*
X164612553Y-94430553D01*
X164724864Y-94558256D01*
X164832751Y-94687846D01*
X164936216Y-94819323D01*
X165035258Y-94952690D01*
X165129882Y-95087948D01*
X165220087Y-95225099D01*
X165305876Y-95364145D01*
X165387250Y-95505088D01*
X165464212Y-95647930D01*
X165536761Y-95792671D01*
X165604902Y-95939315D01*
X165668634Y-96087862D01*
X165727959Y-96238315D01*
X165782880Y-96390676D01*
X165833398Y-96544945D01*
X165879514Y-96701125D01*
X165921230Y-96859219D01*
X165958548Y-97019226D01*
X165991470Y-97181150D01*
X166019997Y-97344992D01*
X166044130Y-97510754D01*
X166063872Y-97678437D01*
X166079224Y-97848044D01*
X166090188Y-98019575D01*
X166096765Y-98193034D01*
X166098957Y-98368422D01*
X140417177Y-109601969D02*
X140525689Y-109598584D01*
X140630481Y-109588397D01*
X140731464Y-109571355D01*
X140860028Y-109537877D01*
X140981451Y-109491995D01*
X141095521Y-109433585D01*
X141202028Y-109362523D01*
X141300760Y-109278685D01*
X141369580Y-109207349D01*
X151552568Y-94797404D02*
X151645185Y-94742623D01*
X151732877Y-94682185D01*
X151795025Y-94636528D01*
X141789916Y-108226797D02*
X141791589Y-108086906D01*
X141796611Y-107944929D01*
X141804985Y-107800864D01*
X141816715Y-107654711D01*
X141831805Y-107506467D01*
X141850257Y-107356132D01*
X141872075Y-107203705D01*
X141897264Y-107049185D01*
X141925826Y-106892570D01*
X141957764Y-106733859D01*
X141993083Y-106573052D01*
X142031786Y-106410146D01*
X142073876Y-106245142D01*
X142119357Y-106078036D01*
X142168232Y-105908830D01*
X142220505Y-105737521D01*
X142276180Y-105564108D01*
X142335259Y-105388590D01*
X142397747Y-105210966D01*
X142463647Y-105031235D01*
X142532962Y-104849395D01*
X142605696Y-104665446D01*
X142681853Y-104479386D01*
X142761435Y-104291215D01*
X142844447Y-104100930D01*
X142930891Y-103908531D01*
X143020773Y-103714017D01*
X143114094Y-103517387D01*
X143210858Y-103318639D01*
X143311070Y-103117772D01*
X143414732Y-102914785D01*
X143521848Y-102709678D01*
X141369580Y-109207349D02*
X141435844Y-109130799D01*
X141504293Y-109046915D01*
X141564806Y-108966910D01*
X141623182Y-108881594D01*
X147886394Y-97246425D02*
X147977612Y-97172405D01*
X148070333Y-97098222D01*
X148164557Y-97023877D01*
X148260286Y-96949368D01*
X148357518Y-96874697D01*
X148456255Y-96799863D01*
X148556496Y-96724866D01*
X148658243Y-96649707D01*
X148761495Y-96574385D01*
X148866252Y-96498901D01*
X148972516Y-96423255D01*
X149080286Y-96347447D01*
X149189563Y-96271476D01*
X149300348Y-96195344D01*
X149412639Y-96119050D01*
X149526439Y-96042595D01*
X149641746Y-95965978D01*
X149758562Y-95889199D01*
X149876887Y-95812259D01*
X149996721Y-95735158D01*
X150118065Y-95657896D01*
X150240918Y-95580472D01*
X150365282Y-95502888D01*
X150491156Y-95425143D01*
X150618541Y-95347237D01*
X150747437Y-95269170D01*
X150877844Y-95190943D01*
X151009764Y-95112556D01*
X151143196Y-95034008D01*
X151278140Y-94955300D01*
X151414597Y-94876432D01*
X151552568Y-94797404D01*
X140794365Y-101664261D02*
X140703146Y-101817889D01*
X140613746Y-101972576D01*
X140526165Y-102128321D01*
X140440401Y-102285123D01*
X140356456Y-102442982D01*
X140274329Y-102601898D01*
X140194021Y-102761871D01*
X140115531Y-102922901D01*
X140038859Y-103084987D01*
X139964005Y-103248130D01*
X139890970Y-103412329D01*
X139819753Y-103577583D01*
X139750354Y-103743894D01*
X139682774Y-103911259D01*
X139617012Y-104079680D01*
X139553069Y-104249157D01*
X160309947Y-81646124D02*
X160355278Y-81468764D01*
X160407060Y-81292003D01*
X160465302Y-81115841D01*
X160530015Y-80940278D01*
X160601208Y-80765315D01*
X160678893Y-80590951D01*
X160763079Y-80417187D01*
X160853776Y-80244023D01*
X160950995Y-80071458D01*
X161002053Y-79985401D01*
X161054746Y-79899494D01*
X161109074Y-79813737D01*
X161165039Y-79728130D01*
X161222642Y-79642673D01*
X161281884Y-79557366D01*
X161342767Y-79472209D01*
X161405292Y-79387202D01*
X161469460Y-79302345D01*
X161535272Y-79217639D01*
X161602731Y-79133082D01*
X161671836Y-79048676D01*
X161742589Y-78964420D01*
X161814993Y-78880315D01*
X165341862Y-101816853D02*
X165293881Y-101928837D01*
X165245307Y-102040217D01*
X165196141Y-102150992D01*
X165146382Y-102261164D01*
X165096030Y-102370732D01*
X165045086Y-102479696D01*
X164993549Y-102588057D01*
X164941419Y-102695815D01*
X164888697Y-102802969D01*
X164835381Y-102909520D01*
X164781473Y-103015469D01*
X164726973Y-103120815D01*
X164671879Y-103225558D01*
X164616193Y-103329699D01*
X164559915Y-103433237D01*
X164503043Y-103536174D01*
X164445579Y-103638508D01*
X164387522Y-103740241D01*
X164328872Y-103841373D01*
X164269630Y-103941902D01*
X164209795Y-104041831D01*
X164149367Y-104141158D01*
X164088347Y-104239885D01*
X164026733Y-104338011D01*
X163964528Y-104435536D01*
X163901729Y-104532460D01*
X163838338Y-104628784D01*
X163774354Y-104724508D01*
X163709777Y-104819632D01*
X163644607Y-104914156D01*
X163578845Y-105008081D01*
X163512491Y-105101406D01*
D11*
X86020000Y-60990000D02*
X216020000Y-60990000D01*
D10*
X169157624Y-86815835D02*
X169213811Y-86900393D01*
X169281619Y-86994216D01*
X169349902Y-87079445D01*
X169418723Y-87155814D01*
X169499777Y-87233360D01*
X169523099Y-87253176D01*
X137087472Y-90778188D02*
X137037063Y-90663973D01*
X136993233Y-90545473D01*
X136956028Y-90422650D01*
X136925489Y-90295466D01*
X136906986Y-90197192D01*
X136892276Y-90096427D01*
X136881378Y-89993155D01*
X136874310Y-89887359D01*
X136871090Y-89779023D01*
X136870875Y-89742344D01*
D11*
X221020000Y-65990000D02*
G75*
G03*
X216020000Y-60990000I-5000000J0D01*
G01*
D10*
X154654526Y-92525263D02*
X154765876Y-92423534D01*
X154874039Y-92320072D01*
X154979013Y-92214877D01*
X155080796Y-92107949D01*
X155179385Y-91999289D01*
X155274778Y-91888897D01*
X155366972Y-91776775D01*
X155455966Y-91662922D01*
X155541756Y-91547340D01*
X155624342Y-91430029D01*
X155703720Y-91310989D01*
X155779888Y-91190222D01*
X155852843Y-91067728D01*
X155922585Y-90943508D01*
X155989109Y-90817562D01*
X156052415Y-90689891D01*
X139768951Y-115307825D02*
X139681214Y-115218482D01*
X139594785Y-115127608D01*
X139509666Y-115035204D01*
X139425855Y-114941267D01*
X139343354Y-114845798D01*
X139262164Y-114748795D01*
X139182284Y-114650258D01*
X139103716Y-114550185D01*
X139026459Y-114448576D01*
X138950515Y-114345430D01*
X138875884Y-114240746D01*
X138802566Y-114134524D01*
X138730562Y-114026761D01*
X138659872Y-113917459D01*
X138590497Y-113806615D01*
X138522438Y-113694230D01*
X138455695Y-113580301D01*
X138390268Y-113464829D01*
X138326159Y-113347812D01*
X138263367Y-113229250D01*
X138201893Y-113109142D01*
X138141738Y-112987486D01*
X138082901Y-112864283D01*
X138025385Y-112739531D01*
X137969189Y-112613229D01*
X137914313Y-112485377D01*
X137860759Y-112355974D01*
X137808526Y-112225018D01*
X137757616Y-112092510D01*
X137708028Y-111958448D01*
X137659764Y-111822832D01*
X137612824Y-111685660D01*
X137612824Y-111685660D02*
X137567201Y-111547258D01*
X137523025Y-111408328D01*
X137480295Y-111268871D01*
X137439012Y-111128887D01*
X137399174Y-110988374D01*
X137360783Y-110847333D01*
X137323839Y-110705764D01*
X137288342Y-110563667D01*
X137254291Y-110421042D01*
X137221688Y-110277887D01*
X137190533Y-110134204D01*
X137160824Y-109989993D01*
X137132564Y-109845252D01*
X137105751Y-109699982D01*
X137080386Y-109554183D01*
X137056469Y-109407855D01*
X137034001Y-109260997D01*
X137012981Y-109113609D01*
X136993409Y-108965692D01*
X136975287Y-108817245D01*
X136958613Y-108668268D01*
X136943388Y-108518760D01*
X136929613Y-108368723D01*
X136917287Y-108218155D01*
X136906410Y-108067056D01*
X136896983Y-107915427D01*
X136889006Y-107763267D01*
X136882479Y-107610576D01*
X136877402Y-107457354D01*
X136873776Y-107303600D01*
X136871600Y-107149316D01*
X136870875Y-106994500D01*
X164669491Y-92431108D02*
X164555814Y-92504765D01*
X164448809Y-92584984D01*
X164348475Y-92671718D01*
X164254807Y-92764919D01*
X164167804Y-92864541D01*
X164087462Y-92970537D01*
X164013778Y-93082862D01*
X163946750Y-93201467D01*
X163886374Y-93326308D01*
X163832649Y-93457336D01*
X163800526Y-93548104D01*
X142876770Y-116710000D02*
X142770683Y-116708646D01*
X142665181Y-116704584D01*
X142560265Y-116697810D01*
X142455932Y-116688321D01*
X142352183Y-116676114D01*
X142249016Y-116661186D01*
X142146431Y-116643534D01*
X142044427Y-116623154D01*
X141943004Y-116600044D01*
X141842161Y-116574200D01*
X141741897Y-116545620D01*
X141642212Y-116514301D01*
X141543104Y-116480238D01*
X141444574Y-116443430D01*
X141346620Y-116403873D01*
X141249242Y-116361564D01*
X141152439Y-116316499D01*
X141056211Y-116268677D01*
X140960556Y-116218093D01*
X140865475Y-116164745D01*
X140770966Y-116108629D01*
X140677028Y-116049743D01*
X140583662Y-115988084D01*
X140490866Y-115923647D01*
X140398640Y-115856431D01*
X140306983Y-115786432D01*
X140215894Y-115713647D01*
X140125373Y-115638073D01*
X140035418Y-115559707D01*
X139946030Y-115478545D01*
X139857208Y-115394586D01*
X139768951Y-115307825D01*
X139553069Y-104249157D02*
X139491579Y-104420442D01*
X139434040Y-104591773D01*
X139380454Y-104763149D01*
X139330822Y-104934568D01*
X139285148Y-105106029D01*
X139243434Y-105277530D01*
X139205682Y-105449071D01*
X139171893Y-105620649D01*
X139142071Y-105792265D01*
X139116218Y-105963916D01*
X139094336Y-106135602D01*
X139076428Y-106307320D01*
X139062495Y-106479071D01*
X139052540Y-106650851D01*
X139046566Y-106822661D01*
X139044574Y-106994500D01*
X161180057Y-115620578D02*
X161175089Y-115729114D01*
X161160137Y-115833819D01*
X161135129Y-115934774D01*
X161099993Y-116032058D01*
X161054657Y-116125753D01*
X160999049Y-116215938D01*
X160933098Y-116302695D01*
X160856731Y-116386103D01*
X156546763Y-88510047D02*
X156547688Y-88367956D01*
X156550464Y-88226665D01*
X156555090Y-88086173D01*
X156561566Y-87946480D01*
X156569891Y-87807586D01*
X156580066Y-87669490D01*
X156592089Y-87532191D01*
X156605960Y-87395689D01*
X156621679Y-87259985D01*
X156639245Y-87125076D01*
X156658658Y-86990963D01*
X156679918Y-86857645D01*
X156703025Y-86725122D01*
X156727977Y-86593393D01*
X156754775Y-86462459D01*
X156783417Y-86332317D01*
X156813905Y-86202969D01*
X156846236Y-86074413D01*
X156880412Y-85946649D01*
X156916431Y-85819677D01*
X156954293Y-85693496D01*
X156993998Y-85568105D01*
X157035545Y-85443505D01*
X157078934Y-85319694D01*
X157124165Y-85196673D01*
X157171237Y-85074440D01*
X157220149Y-84952996D01*
X157270902Y-84832340D01*
X157323495Y-84712471D01*
X157377927Y-84593389D01*
X157434199Y-84475094D01*
X157492310Y-84357585D01*
X136870875Y-106994500D02*
X136873483Y-106878619D01*
X136881333Y-106751640D01*
X136894459Y-106613526D01*
X136912894Y-106464239D01*
X136928152Y-106358489D01*
X136945795Y-106247745D01*
X136965834Y-106131997D01*
X136988280Y-106011233D01*
X137013142Y-105885442D01*
X137040430Y-105754614D01*
X137070156Y-105618737D01*
X137102328Y-105477799D01*
X137136959Y-105331791D01*
X137174057Y-105180701D01*
D11*
X163800526Y-93548104D02*
X163769522Y-93641545D01*
D10*
X136870875Y-89742344D02*
X136873487Y-89620500D01*
X136881323Y-89501204D01*
X136894386Y-89384443D01*
X136912674Y-89270204D01*
X136936190Y-89158473D01*
X136964934Y-89049236D01*
X136998907Y-88942481D01*
X137038110Y-88838194D01*
X137082543Y-88736362D01*
X137132207Y-88636971D01*
X137187104Y-88540007D01*
X137247233Y-88445458D01*
X137312597Y-88353309D01*
X137383195Y-88263549D01*
X137459029Y-88176162D01*
X137540100Y-88091137D01*
X138082457Y-92137072D02*
X138032022Y-92061776D01*
M02*
