%TF.GenerationSoftware,KiCad,Pcbnew,(6.0.6-0)*%
%TF.CreationDate,2022-08-06T20:53:34+02:00*%
%TF.ProjectId,GlowSign Aluminum PCB round cutout,476c6f77-5369-4676-9e20-416c756d696e,rev?*%
%TF.SameCoordinates,Original*%
%TF.FileFunction,Copper,L1,Top*%
%TF.FilePolarity,Positive*%
%FSLAX46Y46*%
G04 Gerber Fmt 4.6, Leading zero omitted, Abs format (unit mm)*
G04 Created by KiCad (PCBNEW (6.0.6-0)) date 2022-08-06 20:53:34*
%MOMM*%
%LPD*%
G01*
G04 APERTURE LIST*
G04 Aperture macros list*
%AMFreePoly0*
4,1,112,3.105582,3.191654,3.458980,3.129341,3.803230,3.028022,4.134041,2.888962,4.447289,2.713894,4.739071,2.504999,5.005748,2.264881,5.243998,1.996534,5.450851,1.703301,5.623729,1.388838,5.760476,1.057065,5.859388,0.712116,5.919233,0.358291,5.939265,0.000000,5.938012,-0.089748,5.907984,-0.447339,5.838283,-0.799355,5.729777,-1.141408,5.583820,-1.469234,5.402230,-1.778747,
5.187270,-2.066090,4.941620,-2.327680,4.668342,-2.560258,4.370841,-2.760925,4.052827,-2.927179,3.718263,-3.056948,3.371318,-3.148614,3.016317,-3.201036,2.657686,-3.213560,2.299893,-3.186029,1.947399,-3.118788,1.604597,-3.012673,1.275760,-2.869007,0.964987,-2.689582,0.676150,-2.476634,0.412851,-2.232816,0.178371,-1.961168,-0.024367,-1.665076,-0.192837,-1.348230,-0.324939,-1.014580,
-0.419026,-0.668283,-0.473925,-0.313657,-0.481420,-0.134825,-0.481581,-0.134460,-0.499164,0.000000,0.505984,0.000000,0.524968,-0.289640,0.581595,-0.574324,0.674897,-0.849181,0.803276,-1.109508,0.964536,-1.350851,1.155919,-1.569081,1.374149,-1.760464,1.615492,-1.921724,1.875819,-2.050103,2.150676,-2.143405,2.435360,-2.200032,2.725000,-2.219016,3.014640,-2.200032,3.299324,-2.143405,
3.574181,-2.050103,3.834508,-1.921724,4.075851,-1.760464,4.294081,-1.569081,4.485464,-1.350851,4.646724,-1.109508,4.775103,-0.849181,4.868405,-0.574324,4.925032,-0.289640,4.944016,0.000000,4.925032,0.289640,4.868405,0.574324,4.775103,0.849181,4.646724,1.109508,4.485464,1.350851,4.294081,1.569081,4.075851,1.760464,3.834508,1.921724,3.574181,2.050103,3.299324,2.143405,
3.014640,2.200032,2.725000,2.219016,2.435360,2.200032,2.150676,2.143405,1.875819,2.050103,1.615492,1.921724,1.374149,1.760464,1.155919,1.569081,0.964536,1.350851,0.803276,1.109508,0.674897,0.849181,0.581595,0.574324,0.524968,0.289640,0.505984,0.000000,-0.499164,0.000000,-0.499963,0.006109,-0.484897,0.102868,-0.463920,0.402854,-0.399140,0.755809,-0.295421,1.099343,
-0.154055,1.429175,0.023196,1.741194,0.234123,2.031510,0.476097,2.296505,0.746101,2.532875,1.040770,2.737676,1.356433,2.908354,1.689153,3.042782,2.034784,3.139284,2.389018,3.196657,2.747440,3.214187,3.105582,3.191654,3.105582,3.191654,$1*%
G04 Aperture macros list end*
%TA.AperFunction,SMDPad,CuDef*%
%ADD10FreePoly0,0.000000*%
%TD*%
%TA.AperFunction,SMDPad,CuDef*%
%ADD11R,10.000000X6.000000*%
%TD*%
%TA.AperFunction,SMDPad,CuDef*%
%ADD12R,6.000000X10.000000*%
%TD*%
G04 APERTURE END LIST*
D10*
%TO.P,U1,1,1*%
%TO.N,GND*%
X75982352Y-67235752D03*
%TD*%
D11*
%TO.P,P5,1*%
%TO.N,GND*%
X131140952Y-130522835D03*
%TD*%
D10*
%TO.P,U2,1,1*%
%TO.N,GND*%
X222591152Y-67235752D03*
%TD*%
%TO.P,U4,1,1*%
%TO.N,GND*%
X222581182Y-126872412D03*
%TD*%
D12*
%TO.P,P4,1*%
%TO.N,GND*%
X228067352Y-110863235D03*
%TD*%
%TO.P,P1,1*%
%TO.N,GND*%
X79121752Y-110863235D03*
%TD*%
D10*
%TO.P,U3,1,1*%
%TO.N,GND*%
X75982352Y-126874952D03*
%TD*%
D12*
%TO.P,P2,1*%
%TO.N,GND*%
X79123252Y-79540752D03*
%TD*%
D11*
%TO.P,P3,1*%
%TO.N,GND*%
X131140952Y-63517635D03*
%TD*%
D12*
%TO.P,P6,1*%
%TO.N,GND*%
X228068852Y-79540752D03*
%TD*%
%TA.AperFunction,Conductor*%
%TO.N,GND*%
G36*
X235514418Y-53388800D02*
G01*
X235529252Y-53391110D01*
X235529255Y-53391110D01*
X235538124Y-53392491D01*
X235547027Y-53391327D01*
X235547029Y-53391327D01*
X235557478Y-53389961D01*
X235579994Y-53389049D01*
X235900054Y-53404773D01*
X235912348Y-53405984D01*
X236258452Y-53457323D01*
X236270574Y-53459733D01*
X236370030Y-53484646D01*
X236609980Y-53544751D01*
X236621812Y-53548340D01*
X236951248Y-53666214D01*
X236962672Y-53670946D01*
X237278967Y-53820542D01*
X237289872Y-53826371D01*
X237589982Y-54006250D01*
X237600263Y-54013120D01*
X237881291Y-54221545D01*
X237890849Y-54229389D01*
X238150098Y-54464358D01*
X238158842Y-54473102D01*
X238393811Y-54732351D01*
X238401655Y-54741909D01*
X238610080Y-55022937D01*
X238616950Y-55033218D01*
X238796829Y-55333328D01*
X238802658Y-55344233D01*
X238952254Y-55660528D01*
X238956986Y-55671952D01*
X239074860Y-56001388D01*
X239078449Y-56013220D01*
X239163466Y-56352623D01*
X239165877Y-56364748D01*
X239210866Y-56668036D01*
X239217216Y-56710847D01*
X239218428Y-56723152D01*
X239233790Y-57035834D01*
X239232442Y-57061398D01*
X239230709Y-57072524D01*
X239231874Y-57081430D01*
X239234836Y-57104083D01*
X239235900Y-57120421D01*
X239235900Y-137029433D01*
X239234400Y-137048818D01*
X239230709Y-137072524D01*
X239231873Y-137081427D01*
X239231873Y-137081429D01*
X239233239Y-137091878D01*
X239234151Y-137114398D01*
X239218428Y-137434448D01*
X239217216Y-137446748D01*
X239165878Y-137792849D01*
X239163466Y-137804977D01*
X239078449Y-138144380D01*
X239074860Y-138156212D01*
X238956986Y-138485648D01*
X238952254Y-138497072D01*
X238802658Y-138813367D01*
X238796829Y-138824272D01*
X238616950Y-139124382D01*
X238610080Y-139134663D01*
X238401655Y-139415691D01*
X238393811Y-139425249D01*
X238158842Y-139684498D01*
X238150098Y-139693242D01*
X237890849Y-139928211D01*
X237881291Y-139936055D01*
X237600263Y-140144480D01*
X237589982Y-140151350D01*
X237289872Y-140331229D01*
X237278967Y-140337058D01*
X236962672Y-140486654D01*
X236951248Y-140491386D01*
X236621812Y-140609260D01*
X236609980Y-140612849D01*
X236370030Y-140672954D01*
X236270574Y-140697867D01*
X236258452Y-140700277D01*
X235912348Y-140751616D01*
X235900054Y-140752827D01*
X235587362Y-140768190D01*
X235561802Y-140766842D01*
X235550676Y-140765109D01*
X235519114Y-140769236D01*
X235502779Y-140770300D01*
X68593767Y-140770300D01*
X68574382Y-140768800D01*
X68559548Y-140766490D01*
X68559545Y-140766490D01*
X68550676Y-140765109D01*
X68541773Y-140766273D01*
X68541771Y-140766273D01*
X68531322Y-140767639D01*
X68508806Y-140768551D01*
X68188746Y-140752827D01*
X68176452Y-140751616D01*
X67830348Y-140700277D01*
X67818226Y-140697867D01*
X67718770Y-140672954D01*
X67478820Y-140612849D01*
X67466988Y-140609260D01*
X67137552Y-140491386D01*
X67126128Y-140486654D01*
X66809833Y-140337058D01*
X66798928Y-140331229D01*
X66498818Y-140151350D01*
X66488537Y-140144480D01*
X66207509Y-139936055D01*
X66197951Y-139928211D01*
X65938702Y-139693242D01*
X65929958Y-139684498D01*
X65694989Y-139425249D01*
X65687145Y-139415691D01*
X65478720Y-139134663D01*
X65471850Y-139124382D01*
X65291971Y-138824272D01*
X65286142Y-138813367D01*
X65136546Y-138497072D01*
X65131814Y-138485648D01*
X65013940Y-138156212D01*
X65010351Y-138144380D01*
X64925334Y-137804977D01*
X64922922Y-137792849D01*
X64871584Y-137446748D01*
X64870372Y-137434447D01*
X64855195Y-137125495D01*
X64856787Y-137098419D01*
X64857976Y-137091352D01*
X64858129Y-137078800D01*
X64854173Y-137051176D01*
X64852900Y-137033314D01*
X64852900Y-133567504D01*
X125632953Y-133567504D01*
X125633323Y-133574325D01*
X125638847Y-133625187D01*
X125642473Y-133640439D01*
X125687628Y-133760889D01*
X125696166Y-133776484D01*
X125772667Y-133878559D01*
X125785228Y-133891120D01*
X125887303Y-133967621D01*
X125902898Y-133976159D01*
X126023346Y-134021313D01*
X126038601Y-134024940D01*
X126089466Y-134030466D01*
X126096280Y-134030835D01*
X130868837Y-134030835D01*
X130884076Y-134026360D01*
X130885281Y-134024970D01*
X130886952Y-134017287D01*
X130886952Y-134012719D01*
X131394952Y-134012719D01*
X131399427Y-134027958D01*
X131400817Y-134029163D01*
X131408500Y-134030834D01*
X136185621Y-134030834D01*
X136192442Y-134030464D01*
X136243304Y-134024940D01*
X136258556Y-134021314D01*
X136379006Y-133976159D01*
X136394601Y-133967621D01*
X136496676Y-133891120D01*
X136509237Y-133878559D01*
X136585738Y-133776484D01*
X136594276Y-133760889D01*
X136639430Y-133640441D01*
X136643057Y-133625186D01*
X136648583Y-133574321D01*
X136648952Y-133567507D01*
X136648952Y-130794950D01*
X136644477Y-130779711D01*
X136643087Y-130778506D01*
X136635404Y-130776835D01*
X131413067Y-130776835D01*
X131397828Y-130781310D01*
X131396623Y-130782700D01*
X131394952Y-130790383D01*
X131394952Y-134012719D01*
X130886952Y-134012719D01*
X130886952Y-130794950D01*
X130882477Y-130779711D01*
X130881087Y-130778506D01*
X130873404Y-130776835D01*
X125651068Y-130776835D01*
X125635829Y-130781310D01*
X125634624Y-130782700D01*
X125632953Y-130790383D01*
X125632953Y-133567504D01*
X64852900Y-133567504D01*
X64852900Y-131497752D01*
X85964552Y-131497752D01*
X122997752Y-131497752D01*
X122997752Y-130250720D01*
X125632952Y-130250720D01*
X125637427Y-130265959D01*
X125638817Y-130267164D01*
X125646500Y-130268835D01*
X130868837Y-130268835D01*
X130884076Y-130264360D01*
X130885281Y-130262970D01*
X130886952Y-130255287D01*
X130886952Y-130250720D01*
X131394952Y-130250720D01*
X131399427Y-130265959D01*
X131400817Y-130267164D01*
X131408500Y-130268835D01*
X136630836Y-130268835D01*
X136646075Y-130264360D01*
X136647280Y-130262970D01*
X136648951Y-130255287D01*
X136648951Y-129646380D01*
X222835182Y-129646380D01*
X222842487Y-129671260D01*
X222904110Y-129728323D01*
X222906749Y-129730633D01*
X222948182Y-129764910D01*
X222950964Y-129767084D01*
X223237429Y-129978284D01*
X223240308Y-129980285D01*
X223285316Y-130009737D01*
X223288305Y-130011576D01*
X223596517Y-130189522D01*
X223599620Y-130191200D01*
X223647604Y-130215438D01*
X223650811Y-130216947D01*
X223976944Y-130359431D01*
X223980190Y-130360743D01*
X224030604Y-130379492D01*
X224033927Y-130380623D01*
X224373893Y-130485860D01*
X224377325Y-130486818D01*
X224429449Y-130499814D01*
X224432941Y-130500582D01*
X224782507Y-130567265D01*
X224785981Y-130567828D01*
X224839274Y-130574939D01*
X224842788Y-130575308D01*
X225197647Y-130602613D01*
X225201145Y-130602784D01*
X225254899Y-130603910D01*
X225258442Y-130603885D01*
X225614105Y-130591466D01*
X225617631Y-130591244D01*
X225671172Y-130586371D01*
X225674675Y-130585954D01*
X226026742Y-130533964D01*
X226030229Y-130533350D01*
X226082870Y-130522544D01*
X226086332Y-130521732D01*
X226430421Y-130430820D01*
X226433783Y-130429831D01*
X226484916Y-130413217D01*
X226488247Y-130412031D01*
X226820062Y-130283328D01*
X226823293Y-130281969D01*
X226872263Y-130259755D01*
X226875444Y-130258204D01*
X227190850Y-130093314D01*
X227193889Y-130091615D01*
X227240076Y-130064082D01*
X227243083Y-130062174D01*
X227538111Y-129863176D01*
X227540991Y-129861114D01*
X227583825Y-129828601D01*
X227586543Y-129826415D01*
X227857598Y-129595729D01*
X227860187Y-129593398D01*
X227899145Y-129556299D01*
X227901625Y-129553801D01*
X228145257Y-129294359D01*
X228147581Y-129291742D01*
X228182150Y-129250545D01*
X228184348Y-129247771D01*
X228397532Y-128962802D01*
X228399556Y-128959933D01*
X228429319Y-128915136D01*
X228431181Y-128912155D01*
X228611284Y-128605178D01*
X228612970Y-128602111D01*
X228637563Y-128554259D01*
X228639068Y-128551120D01*
X228783841Y-128225952D01*
X228785168Y-128222731D01*
X228804265Y-128172459D01*
X228805428Y-128169118D01*
X228913041Y-127829880D01*
X228914008Y-127826510D01*
X228927380Y-127774430D01*
X228928165Y-127770974D01*
X228997292Y-127421858D01*
X228997875Y-127418416D01*
X229005363Y-127365130D01*
X229005752Y-127361657D01*
X229023990Y-127144464D01*
X229020920Y-127129459D01*
X229009284Y-127126412D01*
X227003307Y-127126412D01*
X226988068Y-127130887D01*
X226983180Y-127136528D01*
X226949809Y-127304289D01*
X226945543Y-127320208D01*
X226879377Y-127515127D01*
X226873070Y-127530354D01*
X226782026Y-127714974D01*
X226773785Y-127729248D01*
X226659423Y-127900402D01*
X226649390Y-127913477D01*
X226513666Y-128068241D01*
X226502012Y-128079896D01*
X226347246Y-128215622D01*
X226334170Y-128225655D01*
X226163021Y-128340014D01*
X226148747Y-128348255D01*
X225964124Y-128439300D01*
X225948897Y-128445607D01*
X225753978Y-128511773D01*
X225738059Y-128516039D01*
X225536169Y-128556198D01*
X225519828Y-128558349D01*
X225314423Y-128571812D01*
X225297941Y-128571812D01*
X225092536Y-128558349D01*
X225076195Y-128556198D01*
X224874305Y-128516039D01*
X224858386Y-128511773D01*
X224663467Y-128445607D01*
X224648240Y-128439300D01*
X224463617Y-128348255D01*
X224449343Y-128340014D01*
X224278194Y-128225655D01*
X224265118Y-128215622D01*
X224110352Y-128079896D01*
X224098698Y-128068241D01*
X223962974Y-127913477D01*
X223952941Y-127900402D01*
X223838579Y-127729248D01*
X223830338Y-127714974D01*
X223739294Y-127530354D01*
X223732987Y-127515127D01*
X223666821Y-127320208D01*
X223662555Y-127304289D01*
X223630706Y-127144179D01*
X223623345Y-127130106D01*
X223616857Y-127126412D01*
X222853297Y-127126412D01*
X222838058Y-127130887D01*
X222836853Y-127132277D01*
X222835182Y-127139960D01*
X222835182Y-129646380D01*
X136648951Y-129646380D01*
X136648951Y-127478166D01*
X136648581Y-127471345D01*
X136643057Y-127420483D01*
X136639431Y-127405231D01*
X136594276Y-127284781D01*
X136585738Y-127269186D01*
X136509237Y-127167111D01*
X136496676Y-127154550D01*
X136478975Y-127141284D01*
X221586644Y-127141284D01*
X221589369Y-127206288D01*
X221589614Y-127209802D01*
X221594864Y-127263345D01*
X221595301Y-127266803D01*
X221649750Y-127618526D01*
X221650384Y-127621978D01*
X221661569Y-127674604D01*
X221662391Y-127678001D01*
X221755703Y-128021443D01*
X221756728Y-128024837D01*
X221773689Y-128075825D01*
X221774907Y-128079171D01*
X221905926Y-128410088D01*
X221907291Y-128413272D01*
X221929854Y-128462103D01*
X221931434Y-128465285D01*
X222098493Y-128779479D01*
X222100257Y-128782583D01*
X222128097Y-128828553D01*
X222130011Y-128831522D01*
X222316947Y-129104535D01*
X222325848Y-129111804D01*
X222327182Y-129109589D01*
X222327182Y-127144527D01*
X222322707Y-127129288D01*
X222321317Y-127128083D01*
X222313634Y-127126412D01*
X221604136Y-127126412D01*
X221588897Y-127130887D01*
X221588615Y-127131212D01*
X221586644Y-127141284D01*
X136478975Y-127141284D01*
X136394601Y-127078049D01*
X136379006Y-127069511D01*
X136258558Y-127024357D01*
X136243303Y-127020730D01*
X136192438Y-127015204D01*
X136185624Y-127014835D01*
X131413067Y-127014835D01*
X131397828Y-127019310D01*
X131396623Y-127020700D01*
X131394952Y-127028383D01*
X131394952Y-130250720D01*
X130886952Y-130250720D01*
X130886952Y-127032951D01*
X130882477Y-127017712D01*
X130881087Y-127016507D01*
X130873404Y-127014836D01*
X126096283Y-127014836D01*
X126089462Y-127015206D01*
X126038600Y-127020730D01*
X126023348Y-127024356D01*
X125902898Y-127069511D01*
X125887303Y-127078049D01*
X125785228Y-127154550D01*
X125772667Y-127167111D01*
X125696166Y-127269186D01*
X125687628Y-127284781D01*
X125642474Y-127405229D01*
X125638847Y-127420484D01*
X125633321Y-127471349D01*
X125632952Y-127478163D01*
X125632952Y-130250720D01*
X122997752Y-130250720D01*
X122997752Y-126600339D01*
X221588571Y-126600339D01*
X221591909Y-126615569D01*
X221603085Y-126618412D01*
X222309067Y-126618412D01*
X222324306Y-126613937D01*
X222325511Y-126612547D01*
X222327182Y-126604864D01*
X222327182Y-126600297D01*
X222835182Y-126600297D01*
X222839657Y-126615536D01*
X222841047Y-126616741D01*
X222848730Y-126618412D01*
X223609057Y-126618412D01*
X223624296Y-126613937D01*
X223629184Y-126608296D01*
X223662555Y-126440535D01*
X223666821Y-126424616D01*
X223732987Y-126229697D01*
X223739294Y-126214470D01*
X223830338Y-126029850D01*
X223838579Y-126015576D01*
X223952941Y-125844422D01*
X223962974Y-125831347D01*
X224098698Y-125676583D01*
X224110353Y-125664928D01*
X224265117Y-125529204D01*
X224278192Y-125519171D01*
X224449346Y-125404809D01*
X224463620Y-125396568D01*
X224648240Y-125305524D01*
X224663467Y-125299217D01*
X224858386Y-125233051D01*
X224874305Y-125228785D01*
X225076195Y-125188626D01*
X225092536Y-125186475D01*
X225297941Y-125173012D01*
X225314423Y-125173012D01*
X225519828Y-125186475D01*
X225536169Y-125188626D01*
X225738059Y-125228785D01*
X225753978Y-125233051D01*
X225948897Y-125299217D01*
X225964124Y-125305524D01*
X226148747Y-125396569D01*
X226163021Y-125404810D01*
X226334170Y-125519169D01*
X226347246Y-125529202D01*
X226502012Y-125664928D01*
X226513666Y-125676583D01*
X226649390Y-125831347D01*
X226659423Y-125844422D01*
X226773785Y-126015576D01*
X226782026Y-126029850D01*
X226873070Y-126214470D01*
X226879377Y-126229697D01*
X226945543Y-126424616D01*
X226949809Y-126440535D01*
X226981658Y-126600645D01*
X226989019Y-126614718D01*
X226995507Y-126618412D01*
X229007222Y-126618412D01*
X229022440Y-126613944D01*
X229024481Y-126603110D01*
X229017971Y-126486658D01*
X229017677Y-126483163D01*
X229011679Y-126429690D01*
X229011198Y-126426265D01*
X228951838Y-126075308D01*
X228951159Y-126071879D01*
X228939242Y-126019423D01*
X228938367Y-126016016D01*
X228840267Y-125673904D01*
X228839205Y-125670559D01*
X228821518Y-125619766D01*
X228820273Y-125616488D01*
X228684653Y-125287446D01*
X228683211Y-125284209D01*
X228659978Y-125235720D01*
X228658380Y-125232608D01*
X228486914Y-124920715D01*
X228485139Y-124917689D01*
X228456641Y-124872083D01*
X228454685Y-124869140D01*
X228249551Y-124578344D01*
X228247432Y-124575510D01*
X228214036Y-124533375D01*
X228211758Y-124530660D01*
X227975487Y-124264542D01*
X227973068Y-124261966D01*
X227935172Y-124223805D01*
X227932628Y-124221382D01*
X227668158Y-123983253D01*
X227665459Y-123980956D01*
X227623561Y-123947270D01*
X227620753Y-123945138D01*
X227331370Y-123737960D01*
X227328458Y-123735996D01*
X227283074Y-123707194D01*
X227280010Y-123705368D01*
X226969362Y-123531752D01*
X226966241Y-123530121D01*
X226917923Y-123506554D01*
X226914696Y-123505090D01*
X226586605Y-123367174D01*
X226583344Y-123365909D01*
X226532649Y-123347857D01*
X226529357Y-123346787D01*
X226187913Y-123246294D01*
X226184503Y-123245393D01*
X226132169Y-123233119D01*
X226128694Y-123232405D01*
X225778188Y-123170602D01*
X225774763Y-123170096D01*
X225721318Y-123163723D01*
X225717841Y-123163407D01*
X225362649Y-123141060D01*
X225359122Y-123140937D01*
X225305357Y-123140561D01*
X225301822Y-123140635D01*
X224946331Y-123158022D01*
X224942868Y-123158289D01*
X224889348Y-123163914D01*
X224885889Y-123164376D01*
X224534564Y-123221278D01*
X224531110Y-123221937D01*
X224478581Y-123233486D01*
X224475153Y-123234341D01*
X224132404Y-123330038D01*
X224129005Y-123331090D01*
X224078122Y-123348412D01*
X224074797Y-123349649D01*
X223744850Y-123482956D01*
X223741601Y-123484375D01*
X223692951Y-123507267D01*
X223689809Y-123508855D01*
X223376741Y-123678130D01*
X223373700Y-123679885D01*
X223327889Y-123708069D01*
X223324949Y-123709993D01*
X223032700Y-123913112D01*
X223029881Y-123915190D01*
X222987489Y-123948310D01*
X222984786Y-123950547D01*
X222848812Y-124069583D01*
X222835182Y-124091030D01*
X222835182Y-126600297D01*
X222327182Y-126600297D01*
X222327182Y-124649109D01*
X222323945Y-124638084D01*
X222321081Y-124639392D01*
X222185958Y-124825373D01*
X222183956Y-124828296D01*
X222154824Y-124873500D01*
X222153007Y-124876502D01*
X221977216Y-125185950D01*
X221975561Y-125189061D01*
X221951658Y-125237213D01*
X221950170Y-125240432D01*
X221809973Y-125567536D01*
X221808675Y-125570813D01*
X221790281Y-125621351D01*
X221789173Y-125624681D01*
X221686307Y-125965392D01*
X221685385Y-125968785D01*
X221672742Y-126021050D01*
X221672010Y-126024491D01*
X221607764Y-126374535D01*
X221607222Y-126378037D01*
X221600484Y-126431375D01*
X221600140Y-126434876D01*
X221588571Y-126600339D01*
X122997752Y-126600339D01*
X122997752Y-97256916D01*
X126531604Y-97256916D01*
X126557246Y-98236165D01*
X126620461Y-99213708D01*
X126721155Y-100188103D01*
X126859180Y-101157916D01*
X127034332Y-102121714D01*
X127246353Y-103078079D01*
X127494930Y-104025600D01*
X127779698Y-104962880D01*
X128100235Y-105888537D01*
X128456071Y-106801208D01*
X128846679Y-107699546D01*
X129271485Y-108582227D01*
X129729862Y-109447950D01*
X130221134Y-110295440D01*
X130744577Y-111123445D01*
X131299420Y-111930747D01*
X131300105Y-111931665D01*
X131300115Y-111931680D01*
X131884133Y-112715199D01*
X131884845Y-112716154D01*
X132499988Y-113478509D01*
X132500783Y-113479421D01*
X132500797Y-113479437D01*
X133143152Y-114215782D01*
X133143169Y-114215801D01*
X133143943Y-114216688D01*
X133815760Y-114929603D01*
X134514449Y-115616203D01*
X135238980Y-116275476D01*
X135988286Y-116906450D01*
X135989231Y-116907186D01*
X135989245Y-116907197D01*
X136343374Y-117182878D01*
X136761261Y-117508194D01*
X137556765Y-118079822D01*
X137557746Y-118080471D01*
X137557747Y-118080472D01*
X138190904Y-118499549D01*
X138373627Y-118620491D01*
X139210642Y-119129404D01*
X140066576Y-119605811D01*
X140067675Y-119606369D01*
X140067689Y-119606376D01*
X140939067Y-120048451D01*
X140940167Y-120049009D01*
X141255185Y-120193901D01*
X141829029Y-120457840D01*
X141829050Y-120457849D01*
X141830128Y-120458345D01*
X142735146Y-120833216D01*
X142736266Y-120833630D01*
X142736278Y-120833635D01*
X143597907Y-121152361D01*
X143653888Y-121173069D01*
X143655012Y-121173436D01*
X143655031Y-121173443D01*
X144583832Y-121477022D01*
X144584998Y-121477403D01*
X144586185Y-121477741D01*
X145525925Y-121745433D01*
X145525945Y-121745438D01*
X145527106Y-121745769D01*
X146478820Y-121977772D01*
X147438740Y-122173070D01*
X148405448Y-122331375D01*
X148710453Y-122369365D01*
X149376330Y-122452305D01*
X149376354Y-122452308D01*
X149377522Y-122452453D01*
X149378702Y-122452554D01*
X149378710Y-122452555D01*
X150352347Y-122536025D01*
X150352351Y-122536025D01*
X150353526Y-122536126D01*
X150354705Y-122536182D01*
X150354726Y-122536183D01*
X150811080Y-122557704D01*
X151332024Y-122582271D01*
X151333230Y-122582282D01*
X151333247Y-122582282D01*
X152310374Y-122590809D01*
X152310397Y-122590809D01*
X152311571Y-122590819D01*
X152312750Y-122590784D01*
X152312751Y-122590784D01*
X153289515Y-122561794D01*
X153289519Y-122561794D01*
X153290725Y-122561758D01*
X154014702Y-122512403D01*
X154266826Y-122495215D01*
X154266835Y-122495214D01*
X154268041Y-122495132D01*
X155053528Y-122411187D01*
X155240910Y-122391162D01*
X155240914Y-122391162D01*
X155242079Y-122391037D01*
X155650020Y-122331525D01*
X156210186Y-122249806D01*
X156210202Y-122249803D01*
X156211404Y-122249628D01*
X156730204Y-122153474D01*
X157173411Y-122071331D01*
X157173431Y-122071327D01*
X157174585Y-122071113D01*
X157685366Y-121956004D01*
X158128985Y-121856030D01*
X158128999Y-121856027D01*
X158130204Y-121855755D01*
X158475159Y-121763969D01*
X159075703Y-121604177D01*
X159075729Y-121604170D01*
X159076851Y-121603871D01*
X159489761Y-121476843D01*
X160011988Y-121316186D01*
X160012005Y-121316180D01*
X160013131Y-121315834D01*
X160513669Y-121140548D01*
X160936534Y-120992463D01*
X160936547Y-120992458D01*
X160937664Y-120992067D01*
X160938763Y-120991634D01*
X160938774Y-120991630D01*
X161847983Y-120633483D01*
X161847988Y-120633481D01*
X161849087Y-120633048D01*
X161850178Y-120632569D01*
X161850195Y-120632562D01*
X162298887Y-120435600D01*
X162746056Y-120239306D01*
X163627249Y-119811422D01*
X164491367Y-119350026D01*
X165337137Y-118855798D01*
X166163310Y-118329468D01*
X166164282Y-118328795D01*
X166164303Y-118328781D01*
X166967674Y-117772500D01*
X166967686Y-117772492D01*
X166968670Y-117771810D01*
X167752029Y-117183648D01*
X167752964Y-117182888D01*
X167752977Y-117182878D01*
X168511294Y-116566610D01*
X168511315Y-116566592D01*
X168512232Y-116565847D01*
X169248159Y-115919320D01*
X169260189Y-115907904D01*
X224559353Y-115907904D01*
X224559723Y-115914725D01*
X224565247Y-115965587D01*
X224568873Y-115980839D01*
X224614028Y-116101289D01*
X224622566Y-116116884D01*
X224699067Y-116218959D01*
X224711628Y-116231520D01*
X224813703Y-116308021D01*
X224829298Y-116316559D01*
X224949746Y-116361713D01*
X224965001Y-116365340D01*
X225015866Y-116370866D01*
X225022680Y-116371235D01*
X227795237Y-116371235D01*
X227810476Y-116366760D01*
X227811681Y-116365370D01*
X227813352Y-116357687D01*
X227813352Y-116353119D01*
X228321352Y-116353119D01*
X228325827Y-116368358D01*
X228327217Y-116369563D01*
X228334900Y-116371234D01*
X231112021Y-116371234D01*
X231118842Y-116370864D01*
X231169704Y-116365340D01*
X231184956Y-116361714D01*
X231305406Y-116316559D01*
X231321001Y-116308021D01*
X231423076Y-116231520D01*
X231435637Y-116218959D01*
X231512138Y-116116884D01*
X231520676Y-116101289D01*
X231565830Y-115980841D01*
X231569457Y-115965586D01*
X231574983Y-115914721D01*
X231575352Y-115907907D01*
X231575352Y-111135350D01*
X231570877Y-111120111D01*
X231569487Y-111118906D01*
X231561804Y-111117235D01*
X228339467Y-111117235D01*
X228324228Y-111121710D01*
X228323023Y-111123100D01*
X228321352Y-111130783D01*
X228321352Y-116353119D01*
X227813352Y-116353119D01*
X227813352Y-111135350D01*
X227808877Y-111120111D01*
X227807487Y-111118906D01*
X227799804Y-111117235D01*
X224577468Y-111117235D01*
X224562229Y-111121710D01*
X224561024Y-111123100D01*
X224559353Y-111130783D01*
X224559353Y-115907904D01*
X169260189Y-115907904D01*
X169958724Y-115245018D01*
X170265705Y-114930443D01*
X170642019Y-114544820D01*
X170642036Y-114544802D01*
X170642881Y-114543936D01*
X170937778Y-114217567D01*
X171298827Y-113817987D01*
X171298833Y-113817980D01*
X171299621Y-113817108D01*
X171927975Y-113065605D01*
X172527018Y-112290534D01*
X172784342Y-111929780D01*
X173095179Y-111494002D01*
X173095866Y-111493039D01*
X173176294Y-111370600D01*
X173633020Y-110675299D01*
X173633680Y-110674295D01*
X173683854Y-110591120D01*
X224559352Y-110591120D01*
X224563827Y-110606359D01*
X224565217Y-110607564D01*
X224572900Y-110609235D01*
X227795237Y-110609235D01*
X227810476Y-110604760D01*
X227811681Y-110603370D01*
X227813352Y-110595687D01*
X227813352Y-110591120D01*
X228321352Y-110591120D01*
X228325827Y-110606359D01*
X228327217Y-110607564D01*
X228334900Y-110609235D01*
X231557236Y-110609235D01*
X231572475Y-110604760D01*
X231573680Y-110603370D01*
X231575351Y-110595687D01*
X231575351Y-105818566D01*
X231574981Y-105811745D01*
X231569457Y-105760883D01*
X231565831Y-105745631D01*
X231520676Y-105625181D01*
X231512138Y-105609586D01*
X231435637Y-105507511D01*
X231423076Y-105494950D01*
X231321001Y-105418449D01*
X231305406Y-105409911D01*
X231184958Y-105364757D01*
X231169703Y-105361130D01*
X231118838Y-105355604D01*
X231112024Y-105355235D01*
X228339467Y-105355235D01*
X228324228Y-105359710D01*
X228323023Y-105361100D01*
X228321352Y-105368783D01*
X228321352Y-110591120D01*
X227813352Y-110591120D01*
X227813352Y-105373351D01*
X227808877Y-105358112D01*
X227807487Y-105356907D01*
X227799804Y-105355236D01*
X225022683Y-105355236D01*
X225015862Y-105355606D01*
X224965000Y-105361130D01*
X224949748Y-105364756D01*
X224829298Y-105409911D01*
X224813703Y-105418449D01*
X224711628Y-105494950D01*
X224699067Y-105507511D01*
X224622566Y-105609586D01*
X224614028Y-105625181D01*
X224568874Y-105745629D01*
X224565247Y-105760884D01*
X224559721Y-105811749D01*
X224559352Y-105818563D01*
X224559352Y-110591120D01*
X173683854Y-110591120D01*
X173862864Y-110294373D01*
X174139052Y-109836531D01*
X174139063Y-109836511D01*
X174139668Y-109835509D01*
X174140225Y-109834499D01*
X174140240Y-109834474D01*
X174612498Y-108978979D01*
X174612503Y-108978969D01*
X174613084Y-108977917D01*
X175053230Y-108102784D01*
X175459457Y-107211400D01*
X175831167Y-106305079D01*
X176167811Y-105385156D01*
X176468893Y-104452989D01*
X176733969Y-103509951D01*
X176962648Y-102557432D01*
X177154594Y-101596837D01*
X177309523Y-100629581D01*
X177427207Y-99657092D01*
X177507473Y-98680801D01*
X177550202Y-97702148D01*
X177551552Y-97591711D01*
X177557806Y-97079753D01*
X177557818Y-97078800D01*
X177552894Y-96822330D01*
X177539035Y-96100607D01*
X177539012Y-96099396D01*
X177538811Y-96095912D01*
X177482694Y-95122644D01*
X177482693Y-95122629D01*
X177482624Y-95121435D01*
X177388735Y-94146360D01*
X177257484Y-93175608D01*
X177089065Y-92210610D01*
X176883726Y-91252789D01*
X176641769Y-90303556D01*
X176363552Y-89364311D01*
X176224530Y-88953588D01*
X176049881Y-88437610D01*
X176049876Y-88437596D01*
X176049484Y-88436438D01*
X175700029Y-87521305D01*
X175315702Y-86620262D01*
X174897069Y-85734637D01*
X174526857Y-85023466D01*
X174445313Y-84866822D01*
X174445310Y-84866816D01*
X174444747Y-84865735D01*
X174284859Y-84585421D01*
X224560853Y-84585421D01*
X224561223Y-84592242D01*
X224566747Y-84643104D01*
X224570373Y-84658356D01*
X224615528Y-84778806D01*
X224624066Y-84794401D01*
X224700567Y-84896476D01*
X224713128Y-84909037D01*
X224815203Y-84985538D01*
X224830798Y-84994076D01*
X224951246Y-85039230D01*
X224966501Y-85042857D01*
X225017366Y-85048383D01*
X225024180Y-85048752D01*
X227796737Y-85048752D01*
X227811976Y-85044277D01*
X227813181Y-85042887D01*
X227814852Y-85035204D01*
X227814852Y-85030636D01*
X228322852Y-85030636D01*
X228327327Y-85045875D01*
X228328717Y-85047080D01*
X228336400Y-85048751D01*
X231113521Y-85048751D01*
X231120342Y-85048381D01*
X231171204Y-85042857D01*
X231186456Y-85039231D01*
X231306906Y-84994076D01*
X231322501Y-84985538D01*
X231424576Y-84909037D01*
X231437137Y-84896476D01*
X231513638Y-84794401D01*
X231522176Y-84778806D01*
X231567330Y-84658358D01*
X231570957Y-84643103D01*
X231576483Y-84592238D01*
X231576852Y-84585424D01*
X231576852Y-79812867D01*
X231572377Y-79797628D01*
X231570987Y-79796423D01*
X231563304Y-79794752D01*
X228340967Y-79794752D01*
X228325728Y-79799227D01*
X228324523Y-79800617D01*
X228322852Y-79808300D01*
X228322852Y-85030636D01*
X227814852Y-85030636D01*
X227814852Y-79812867D01*
X227810377Y-79797628D01*
X227808987Y-79796423D01*
X227801304Y-79794752D01*
X224578968Y-79794752D01*
X224563729Y-79799227D01*
X224562524Y-79800617D01*
X224560853Y-79808300D01*
X224560853Y-84585421D01*
X174284859Y-84585421D01*
X173959403Y-84014836D01*
X173441753Y-83183197D01*
X172892559Y-82372041D01*
X172312632Y-81582566D01*
X171702826Y-80815935D01*
X171179396Y-80207391D01*
X171064835Y-80074201D01*
X171064832Y-80074198D01*
X171064041Y-80073278D01*
X170397217Y-79355691D01*
X170309859Y-79268637D01*
X224560852Y-79268637D01*
X224565327Y-79283876D01*
X224566717Y-79285081D01*
X224574400Y-79286752D01*
X227796737Y-79286752D01*
X227811976Y-79282277D01*
X227813181Y-79280887D01*
X227814852Y-79273204D01*
X227814852Y-79268637D01*
X228322852Y-79268637D01*
X228327327Y-79283876D01*
X228328717Y-79285081D01*
X228336400Y-79286752D01*
X231558736Y-79286752D01*
X231573975Y-79282277D01*
X231575180Y-79280887D01*
X231576851Y-79273204D01*
X231576851Y-74496083D01*
X231576481Y-74489262D01*
X231570957Y-74438400D01*
X231567331Y-74423148D01*
X231522176Y-74302698D01*
X231513638Y-74287103D01*
X231437137Y-74185028D01*
X231424576Y-74172467D01*
X231322501Y-74095966D01*
X231306906Y-74087428D01*
X231186458Y-74042274D01*
X231171203Y-74038647D01*
X231120338Y-74033121D01*
X231113524Y-74032752D01*
X228340967Y-74032752D01*
X228325728Y-74037227D01*
X228324523Y-74038617D01*
X228322852Y-74046300D01*
X228322852Y-79268637D01*
X227814852Y-79268637D01*
X227814852Y-74050868D01*
X227810377Y-74035629D01*
X227808987Y-74034424D01*
X227801304Y-74032753D01*
X225024183Y-74032753D01*
X225017362Y-74033123D01*
X224966500Y-74038647D01*
X224951248Y-74042273D01*
X224830798Y-74087428D01*
X224815203Y-74095966D01*
X224713128Y-74172467D01*
X224700567Y-74185028D01*
X224624066Y-74287103D01*
X224615528Y-74302698D01*
X224570374Y-74423146D01*
X224566747Y-74438401D01*
X224561221Y-74489266D01*
X224560852Y-74496080D01*
X224560852Y-79268637D01*
X170309859Y-79268637D01*
X169703338Y-78664230D01*
X169112083Y-78118635D01*
X168984338Y-78000755D01*
X168984320Y-78000739D01*
X168983427Y-77999915D01*
X168238545Y-77363725D01*
X167469790Y-76756599D01*
X166678295Y-76179431D01*
X165865228Y-75633073D01*
X165864219Y-75632450D01*
X165864196Y-75632435D01*
X165032833Y-75118975D01*
X165032809Y-75118961D01*
X165031786Y-75118329D01*
X164179199Y-74635958D01*
X163766883Y-74423146D01*
X163309789Y-74187222D01*
X163309781Y-74187218D01*
X163308723Y-74186672D01*
X162421642Y-73771133D01*
X161519263Y-73389953D01*
X160602916Y-73043694D01*
X160601811Y-73043324D01*
X160601799Y-73043320D01*
X159675083Y-72733246D01*
X159675079Y-72733245D01*
X159673953Y-72732868D01*
X158733742Y-72457931D01*
X158732580Y-72457639D01*
X157784814Y-72219576D01*
X157784797Y-72219572D01*
X157783670Y-72219289D01*
X157782526Y-72219048D01*
X157782509Y-72219044D01*
X156986413Y-72051281D01*
X156825138Y-72017295D01*
X156823968Y-72017095D01*
X156823947Y-72017091D01*
X155860719Y-71852443D01*
X155860696Y-71852440D01*
X155859558Y-71852245D01*
X154888353Y-71724384D01*
X153912957Y-71633899D01*
X153911793Y-71633836D01*
X153911780Y-71633835D01*
X153244827Y-71597714D01*
X152934805Y-71580924D01*
X151955342Y-71565537D01*
X150976009Y-71587762D01*
X150416394Y-71621989D01*
X149999455Y-71647490D01*
X149999437Y-71647491D01*
X149998251Y-71647564D01*
X149727338Y-71674605D01*
X149024709Y-71744736D01*
X149024692Y-71744738D01*
X149023510Y-71744856D01*
X149022324Y-71745021D01*
X149022312Y-71745022D01*
X148054446Y-71879325D01*
X148054438Y-71879326D01*
X148053222Y-71879495D01*
X147088818Y-72051281D01*
X147087662Y-72051533D01*
X147087642Y-72051537D01*
X146489176Y-72182024D01*
X146131719Y-72259962D01*
X146130544Y-72260266D01*
X145184472Y-72504937D01*
X145184462Y-72504940D01*
X145183336Y-72505231D01*
X145182228Y-72505563D01*
X145182208Y-72505569D01*
X144679997Y-72656240D01*
X144245068Y-72786725D01*
X143318297Y-73104029D01*
X142404390Y-73456677D01*
X141504694Y-73844147D01*
X141246113Y-73967484D01*
X140790022Y-74185028D01*
X140620535Y-74265869D01*
X140619476Y-74266425D01*
X140619466Y-74266430D01*
X139754279Y-74720663D01*
X139754262Y-74720672D01*
X139753217Y-74721221D01*
X138904018Y-75209532D01*
X138074191Y-75730082D01*
X138073181Y-75730771D01*
X138073158Y-75730786D01*
X137415470Y-76179431D01*
X137264957Y-76282104D01*
X137263966Y-76282837D01*
X137263965Y-76282838D01*
X136534848Y-76822356D01*
X136477511Y-76864783D01*
X136476585Y-76865525D01*
X135820511Y-77391140D01*
X135713014Y-77477261D01*
X134972591Y-78118635D01*
X134971716Y-78119453D01*
X134971708Y-78119461D01*
X134541928Y-78521642D01*
X134257335Y-78787960D01*
X133568301Y-79484248D01*
X133567496Y-79485127D01*
X133567486Y-79485137D01*
X132907322Y-80205580D01*
X132906503Y-80206474D01*
X132905734Y-80207381D01*
X132905725Y-80207391D01*
X132388850Y-80816869D01*
X132272917Y-80953572D01*
X131668478Y-81724442D01*
X131667776Y-81725412D01*
X131667760Y-81725433D01*
X131357633Y-82153857D01*
X131094077Y-82517946D01*
X131093387Y-82518981D01*
X131093377Y-82518995D01*
X130651074Y-83182201D01*
X130550560Y-83332916D01*
X130038728Y-84168149D01*
X130038139Y-84169199D01*
X130038137Y-84169202D01*
X129622962Y-84909037D01*
X129559337Y-85022415D01*
X129558803Y-85023459D01*
X129558799Y-85023466D01*
X129545860Y-85048751D01*
X129113092Y-85894454D01*
X128700652Y-86782980D01*
X128322624Y-87686684D01*
X127979566Y-88604234D01*
X127671984Y-89534277D01*
X127400331Y-90475442D01*
X127165007Y-91426341D01*
X127164762Y-91427523D01*
X127164762Y-91427524D01*
X127005623Y-92195980D01*
X126966360Y-92385572D01*
X126966167Y-92386725D01*
X126966162Y-92386752D01*
X126878581Y-92910114D01*
X126804681Y-93351723D01*
X126680211Y-94323367D01*
X126593131Y-95299074D01*
X126543571Y-96277404D01*
X126536913Y-96822330D01*
X126531604Y-97256916D01*
X122997752Y-97256916D01*
X122997752Y-70009720D01*
X222845152Y-70009720D01*
X222852457Y-70034600D01*
X222914080Y-70091663D01*
X222916719Y-70093973D01*
X222958152Y-70128250D01*
X222960934Y-70130424D01*
X223247399Y-70341624D01*
X223250278Y-70343625D01*
X223295286Y-70373077D01*
X223298275Y-70374916D01*
X223606487Y-70552862D01*
X223609590Y-70554540D01*
X223657574Y-70578778D01*
X223660781Y-70580287D01*
X223986914Y-70722771D01*
X223990160Y-70724083D01*
X224040574Y-70742832D01*
X224043897Y-70743963D01*
X224383863Y-70849200D01*
X224387295Y-70850158D01*
X224439419Y-70863154D01*
X224442911Y-70863922D01*
X224792477Y-70930605D01*
X224795951Y-70931168D01*
X224849244Y-70938279D01*
X224852758Y-70938648D01*
X225207617Y-70965953D01*
X225211115Y-70966124D01*
X225264869Y-70967250D01*
X225268412Y-70967225D01*
X225624075Y-70954806D01*
X225627601Y-70954584D01*
X225681142Y-70949711D01*
X225684645Y-70949294D01*
X226036712Y-70897304D01*
X226040199Y-70896690D01*
X226092840Y-70885884D01*
X226096302Y-70885072D01*
X226440391Y-70794160D01*
X226443753Y-70793171D01*
X226494886Y-70776557D01*
X226498217Y-70775371D01*
X226830032Y-70646668D01*
X226833263Y-70645309D01*
X226882233Y-70623095D01*
X226885414Y-70621544D01*
X227200820Y-70456654D01*
X227203859Y-70454955D01*
X227250046Y-70427422D01*
X227253053Y-70425514D01*
X227548081Y-70226516D01*
X227550961Y-70224454D01*
X227593795Y-70191941D01*
X227596513Y-70189755D01*
X227867568Y-69959069D01*
X227870157Y-69956738D01*
X227909115Y-69919639D01*
X227911595Y-69917141D01*
X228155227Y-69657699D01*
X228157551Y-69655082D01*
X228192120Y-69613885D01*
X228194318Y-69611111D01*
X228407502Y-69326142D01*
X228409526Y-69323273D01*
X228439289Y-69278476D01*
X228441151Y-69275495D01*
X228621254Y-68968518D01*
X228622940Y-68965451D01*
X228647533Y-68917599D01*
X228649038Y-68914460D01*
X228793811Y-68589292D01*
X228795138Y-68586071D01*
X228814235Y-68535799D01*
X228815398Y-68532458D01*
X228923011Y-68193220D01*
X228923978Y-68189850D01*
X228937350Y-68137770D01*
X228938135Y-68134314D01*
X229007262Y-67785198D01*
X229007845Y-67781756D01*
X229015333Y-67728470D01*
X229015722Y-67724997D01*
X229033960Y-67507804D01*
X229030890Y-67492799D01*
X229019254Y-67489752D01*
X227013277Y-67489752D01*
X226998038Y-67494227D01*
X226993150Y-67499868D01*
X226959779Y-67667629D01*
X226955513Y-67683548D01*
X226889347Y-67878467D01*
X226883040Y-67893694D01*
X226791996Y-68078314D01*
X226783755Y-68092588D01*
X226669393Y-68263742D01*
X226659360Y-68276817D01*
X226523636Y-68431581D01*
X226511982Y-68443236D01*
X226357216Y-68578962D01*
X226344140Y-68588995D01*
X226172991Y-68703354D01*
X226158717Y-68711595D01*
X225974094Y-68802640D01*
X225958867Y-68808947D01*
X225763948Y-68875113D01*
X225748029Y-68879379D01*
X225546139Y-68919538D01*
X225529798Y-68921689D01*
X225324393Y-68935152D01*
X225307911Y-68935152D01*
X225102506Y-68921689D01*
X225086165Y-68919538D01*
X224884275Y-68879379D01*
X224868356Y-68875113D01*
X224673437Y-68808947D01*
X224658210Y-68802640D01*
X224473587Y-68711595D01*
X224459313Y-68703354D01*
X224288164Y-68588995D01*
X224275088Y-68578962D01*
X224120322Y-68443236D01*
X224108668Y-68431581D01*
X223972944Y-68276817D01*
X223962911Y-68263742D01*
X223848549Y-68092588D01*
X223840308Y-68078314D01*
X223749264Y-67893694D01*
X223742957Y-67878467D01*
X223676791Y-67683548D01*
X223672525Y-67667629D01*
X223640676Y-67507519D01*
X223633315Y-67493446D01*
X223626827Y-67489752D01*
X222863267Y-67489752D01*
X222848028Y-67494227D01*
X222846823Y-67495617D01*
X222845152Y-67503300D01*
X222845152Y-70009720D01*
X122997752Y-70009720D01*
X122997752Y-67504624D01*
X221596614Y-67504624D01*
X221599339Y-67569628D01*
X221599584Y-67573142D01*
X221604834Y-67626685D01*
X221605271Y-67630143D01*
X221659720Y-67981866D01*
X221660354Y-67985318D01*
X221671539Y-68037944D01*
X221672361Y-68041341D01*
X221765673Y-68384783D01*
X221766698Y-68388177D01*
X221783659Y-68439165D01*
X221784877Y-68442511D01*
X221915896Y-68773428D01*
X221917261Y-68776612D01*
X221939824Y-68825443D01*
X221941404Y-68828625D01*
X222108463Y-69142819D01*
X222110227Y-69145923D01*
X222138067Y-69191893D01*
X222139981Y-69194862D01*
X222326917Y-69467875D01*
X222335818Y-69475144D01*
X222337152Y-69472929D01*
X222337152Y-67507867D01*
X222332677Y-67492628D01*
X222331287Y-67491423D01*
X222323604Y-67489752D01*
X221614106Y-67489752D01*
X221598867Y-67494227D01*
X221598585Y-67494552D01*
X221596614Y-67504624D01*
X122997752Y-67504624D01*
X122997752Y-66562304D01*
X125632953Y-66562304D01*
X125633323Y-66569125D01*
X125638847Y-66619987D01*
X125642473Y-66635239D01*
X125687628Y-66755689D01*
X125696166Y-66771284D01*
X125772667Y-66873359D01*
X125785228Y-66885920D01*
X125887303Y-66962421D01*
X125902898Y-66970959D01*
X126023346Y-67016113D01*
X126038601Y-67019740D01*
X126089466Y-67025266D01*
X126096280Y-67025635D01*
X130868837Y-67025635D01*
X130884076Y-67021160D01*
X130885281Y-67019770D01*
X130886952Y-67012087D01*
X130886952Y-67007519D01*
X131394952Y-67007519D01*
X131399427Y-67022758D01*
X131400817Y-67023963D01*
X131408500Y-67025634D01*
X136185621Y-67025634D01*
X136192442Y-67025264D01*
X136243304Y-67019740D01*
X136258556Y-67016114D01*
X136379006Y-66970959D01*
X136392303Y-66963679D01*
X221598541Y-66963679D01*
X221601879Y-66978909D01*
X221613055Y-66981752D01*
X222319037Y-66981752D01*
X222334276Y-66977277D01*
X222335481Y-66975887D01*
X222337152Y-66968204D01*
X222337152Y-66963637D01*
X222845152Y-66963637D01*
X222849627Y-66978876D01*
X222851017Y-66980081D01*
X222858700Y-66981752D01*
X223619027Y-66981752D01*
X223634266Y-66977277D01*
X223639154Y-66971636D01*
X223672525Y-66803875D01*
X223676791Y-66787956D01*
X223742957Y-66593037D01*
X223749264Y-66577810D01*
X223840308Y-66393190D01*
X223848549Y-66378916D01*
X223962911Y-66207762D01*
X223972944Y-66194687D01*
X224108668Y-66039923D01*
X224120323Y-66028268D01*
X224275087Y-65892544D01*
X224288162Y-65882511D01*
X224459316Y-65768149D01*
X224473590Y-65759908D01*
X224658210Y-65668864D01*
X224673437Y-65662557D01*
X224868356Y-65596391D01*
X224884275Y-65592125D01*
X225086165Y-65551966D01*
X225102506Y-65549815D01*
X225307911Y-65536352D01*
X225324393Y-65536352D01*
X225529798Y-65549815D01*
X225546139Y-65551966D01*
X225748029Y-65592125D01*
X225763948Y-65596391D01*
X225958867Y-65662557D01*
X225974094Y-65668864D01*
X226158717Y-65759909D01*
X226172991Y-65768150D01*
X226344140Y-65882509D01*
X226357216Y-65892542D01*
X226511982Y-66028268D01*
X226523636Y-66039923D01*
X226659360Y-66194687D01*
X226669393Y-66207762D01*
X226783755Y-66378916D01*
X226791996Y-66393190D01*
X226883040Y-66577810D01*
X226889347Y-66593037D01*
X226955513Y-66787956D01*
X226959779Y-66803875D01*
X226991628Y-66963985D01*
X226998989Y-66978058D01*
X227005477Y-66981752D01*
X229017192Y-66981752D01*
X229032410Y-66977284D01*
X229034451Y-66966450D01*
X229027941Y-66849998D01*
X229027647Y-66846503D01*
X229021649Y-66793030D01*
X229021168Y-66789605D01*
X228961808Y-66438648D01*
X228961129Y-66435219D01*
X228949212Y-66382763D01*
X228948337Y-66379356D01*
X228850237Y-66037244D01*
X228849175Y-66033899D01*
X228831488Y-65983106D01*
X228830243Y-65979828D01*
X228694623Y-65650786D01*
X228693181Y-65647549D01*
X228669948Y-65599060D01*
X228668350Y-65595948D01*
X228496884Y-65284055D01*
X228495109Y-65281029D01*
X228466611Y-65235423D01*
X228464655Y-65232480D01*
X228259521Y-64941684D01*
X228257402Y-64938850D01*
X228224006Y-64896715D01*
X228221728Y-64894000D01*
X227985457Y-64627882D01*
X227983038Y-64625306D01*
X227945142Y-64587145D01*
X227942598Y-64584722D01*
X227678128Y-64346593D01*
X227675429Y-64344296D01*
X227633531Y-64310610D01*
X227630723Y-64308478D01*
X227341340Y-64101300D01*
X227338428Y-64099336D01*
X227293044Y-64070534D01*
X227289980Y-64068708D01*
X226979332Y-63895092D01*
X226976211Y-63893461D01*
X226927893Y-63869894D01*
X226924666Y-63868430D01*
X226596575Y-63730514D01*
X226593314Y-63729249D01*
X226542619Y-63711197D01*
X226539327Y-63710127D01*
X226197883Y-63609634D01*
X226194473Y-63608733D01*
X226142139Y-63596459D01*
X226138664Y-63595745D01*
X225788158Y-63533942D01*
X225784733Y-63533436D01*
X225731288Y-63527063D01*
X225727811Y-63526747D01*
X225372619Y-63504400D01*
X225369092Y-63504277D01*
X225315327Y-63503901D01*
X225311792Y-63503975D01*
X224956301Y-63521362D01*
X224952838Y-63521629D01*
X224899318Y-63527254D01*
X224895859Y-63527716D01*
X224544534Y-63584618D01*
X224541080Y-63585277D01*
X224488551Y-63596826D01*
X224485123Y-63597681D01*
X224142374Y-63693378D01*
X224138975Y-63694430D01*
X224088092Y-63711752D01*
X224084767Y-63712989D01*
X223754820Y-63846296D01*
X223751571Y-63847715D01*
X223702921Y-63870607D01*
X223699779Y-63872195D01*
X223386711Y-64041470D01*
X223383670Y-64043225D01*
X223337859Y-64071409D01*
X223334919Y-64073333D01*
X223042670Y-64276452D01*
X223039851Y-64278530D01*
X222997459Y-64311650D01*
X222994756Y-64313887D01*
X222858782Y-64432923D01*
X222845152Y-64454370D01*
X222845152Y-66963637D01*
X222337152Y-66963637D01*
X222337152Y-65012449D01*
X222333915Y-65001424D01*
X222331051Y-65002732D01*
X222195928Y-65188713D01*
X222193926Y-65191636D01*
X222164794Y-65236840D01*
X222162977Y-65239842D01*
X221987186Y-65549290D01*
X221985531Y-65552401D01*
X221961628Y-65600553D01*
X221960140Y-65603772D01*
X221819943Y-65930876D01*
X221818645Y-65934153D01*
X221800251Y-65984691D01*
X221799143Y-65988021D01*
X221696277Y-66328732D01*
X221695355Y-66332125D01*
X221682712Y-66384390D01*
X221681980Y-66387831D01*
X221617734Y-66737875D01*
X221617192Y-66741377D01*
X221610454Y-66794715D01*
X221610110Y-66798216D01*
X221598541Y-66963679D01*
X136392303Y-66963679D01*
X136394601Y-66962421D01*
X136496676Y-66885920D01*
X136509237Y-66873359D01*
X136585738Y-66771284D01*
X136594276Y-66755689D01*
X136639430Y-66635241D01*
X136643057Y-66619986D01*
X136648583Y-66569121D01*
X136648952Y-66562307D01*
X136648952Y-63789750D01*
X136644477Y-63774511D01*
X136643087Y-63773306D01*
X136635404Y-63771635D01*
X131413067Y-63771635D01*
X131397828Y-63776110D01*
X131396623Y-63777500D01*
X131394952Y-63785183D01*
X131394952Y-67007519D01*
X130886952Y-67007519D01*
X130886952Y-63789750D01*
X130882477Y-63774511D01*
X130881087Y-63773306D01*
X130873404Y-63771635D01*
X125651068Y-63771635D01*
X125635829Y-63776110D01*
X125634624Y-63777500D01*
X125632953Y-63785183D01*
X125632953Y-66562304D01*
X122997752Y-66562304D01*
X122997752Y-63245520D01*
X125632952Y-63245520D01*
X125637427Y-63260759D01*
X125638817Y-63261964D01*
X125646500Y-63263635D01*
X130868837Y-63263635D01*
X130884076Y-63259160D01*
X130885281Y-63257770D01*
X130886952Y-63250087D01*
X130886952Y-63245520D01*
X131394952Y-63245520D01*
X131399427Y-63260759D01*
X131400817Y-63261964D01*
X131408500Y-63263635D01*
X136630836Y-63263635D01*
X136646075Y-63259160D01*
X136647280Y-63257770D01*
X136648951Y-63250087D01*
X136648951Y-60472966D01*
X136648581Y-60466145D01*
X136643057Y-60415283D01*
X136639431Y-60400031D01*
X136594276Y-60279581D01*
X136585738Y-60263986D01*
X136509237Y-60161911D01*
X136496676Y-60149350D01*
X136394601Y-60072849D01*
X136379006Y-60064311D01*
X136258558Y-60019157D01*
X136243303Y-60015530D01*
X136192438Y-60010004D01*
X136185624Y-60009635D01*
X131413067Y-60009635D01*
X131397828Y-60014110D01*
X131396623Y-60015500D01*
X131394952Y-60023183D01*
X131394952Y-63245520D01*
X130886952Y-63245520D01*
X130886952Y-60027751D01*
X130882477Y-60012512D01*
X130881087Y-60011307D01*
X130873404Y-60009636D01*
X126096283Y-60009636D01*
X126089462Y-60010006D01*
X126038600Y-60015530D01*
X126023348Y-60019156D01*
X125902898Y-60064311D01*
X125887303Y-60072849D01*
X125785228Y-60149350D01*
X125772667Y-60161911D01*
X125696166Y-60263986D01*
X125687628Y-60279581D01*
X125642474Y-60400029D01*
X125638847Y-60415284D01*
X125633321Y-60466149D01*
X125632952Y-60472963D01*
X125632952Y-63245520D01*
X122997752Y-63245520D01*
X122997752Y-62511352D01*
X85964552Y-62511352D01*
X85964552Y-131497752D01*
X64852900Y-131497752D01*
X64852900Y-129648920D01*
X76236352Y-129648920D01*
X76243657Y-129673800D01*
X76305280Y-129730863D01*
X76307919Y-129733173D01*
X76349352Y-129767450D01*
X76352134Y-129769624D01*
X76638599Y-129980824D01*
X76641478Y-129982825D01*
X76686486Y-130012277D01*
X76689475Y-130014116D01*
X76997687Y-130192062D01*
X77000790Y-130193740D01*
X77048774Y-130217978D01*
X77051981Y-130219487D01*
X77378114Y-130361971D01*
X77381360Y-130363283D01*
X77431774Y-130382032D01*
X77435097Y-130383163D01*
X77775063Y-130488400D01*
X77778495Y-130489358D01*
X77830619Y-130502354D01*
X77834111Y-130503122D01*
X78183677Y-130569805D01*
X78187151Y-130570368D01*
X78240444Y-130577479D01*
X78243958Y-130577848D01*
X78598817Y-130605153D01*
X78602315Y-130605324D01*
X78656069Y-130606450D01*
X78659612Y-130606425D01*
X79015275Y-130594006D01*
X79018801Y-130593784D01*
X79072342Y-130588911D01*
X79075845Y-130588494D01*
X79427912Y-130536504D01*
X79431399Y-130535890D01*
X79484040Y-130525084D01*
X79487502Y-130524272D01*
X79831591Y-130433360D01*
X79834953Y-130432371D01*
X79886086Y-130415757D01*
X79889417Y-130414571D01*
X80221232Y-130285868D01*
X80224463Y-130284509D01*
X80273433Y-130262295D01*
X80276614Y-130260744D01*
X80592020Y-130095854D01*
X80595059Y-130094155D01*
X80641246Y-130066622D01*
X80644253Y-130064714D01*
X80939281Y-129865716D01*
X80942161Y-129863654D01*
X80984995Y-129831141D01*
X80987713Y-129828955D01*
X81258768Y-129598269D01*
X81261357Y-129595938D01*
X81300315Y-129558839D01*
X81302795Y-129556341D01*
X81546427Y-129296899D01*
X81548751Y-129294282D01*
X81583320Y-129253085D01*
X81585518Y-129250311D01*
X81798702Y-128965342D01*
X81800726Y-128962473D01*
X81830489Y-128917676D01*
X81832351Y-128914695D01*
X82012454Y-128607718D01*
X82014140Y-128604651D01*
X82038733Y-128556799D01*
X82040238Y-128553660D01*
X82185011Y-128228492D01*
X82186338Y-128225271D01*
X82205435Y-128174999D01*
X82206598Y-128171658D01*
X82314211Y-127832420D01*
X82315178Y-127829050D01*
X82328550Y-127776970D01*
X82329335Y-127773514D01*
X82398462Y-127424398D01*
X82399045Y-127420956D01*
X82406533Y-127367670D01*
X82406922Y-127364197D01*
X82425160Y-127147004D01*
X82422090Y-127131999D01*
X82410454Y-127128952D01*
X80404477Y-127128952D01*
X80389238Y-127133427D01*
X80384350Y-127139068D01*
X80350979Y-127306829D01*
X80346713Y-127322748D01*
X80280547Y-127517667D01*
X80274240Y-127532894D01*
X80183196Y-127717514D01*
X80174955Y-127731788D01*
X80060593Y-127902942D01*
X80050560Y-127916017D01*
X79914836Y-128070781D01*
X79903182Y-128082436D01*
X79748416Y-128218162D01*
X79735340Y-128228195D01*
X79564191Y-128342554D01*
X79549917Y-128350795D01*
X79365294Y-128441840D01*
X79350067Y-128448147D01*
X79155148Y-128514313D01*
X79139229Y-128518579D01*
X78937339Y-128558738D01*
X78920998Y-128560889D01*
X78715593Y-128574352D01*
X78699111Y-128574352D01*
X78493706Y-128560889D01*
X78477365Y-128558738D01*
X78275475Y-128518579D01*
X78259556Y-128514313D01*
X78064637Y-128448147D01*
X78049410Y-128441840D01*
X77864787Y-128350795D01*
X77850513Y-128342554D01*
X77679364Y-128228195D01*
X77666288Y-128218162D01*
X77511522Y-128082436D01*
X77499868Y-128070781D01*
X77364144Y-127916017D01*
X77354111Y-127902942D01*
X77239749Y-127731788D01*
X77231508Y-127717514D01*
X77140464Y-127532894D01*
X77134157Y-127517667D01*
X77067991Y-127322748D01*
X77063725Y-127306829D01*
X77031876Y-127146719D01*
X77024515Y-127132646D01*
X77018027Y-127128952D01*
X76254467Y-127128952D01*
X76239228Y-127133427D01*
X76238023Y-127134817D01*
X76236352Y-127142500D01*
X76236352Y-129648920D01*
X64852900Y-129648920D01*
X64852900Y-127143824D01*
X74987814Y-127143824D01*
X74990539Y-127208828D01*
X74990784Y-127212342D01*
X74996034Y-127265885D01*
X74996471Y-127269343D01*
X75050920Y-127621066D01*
X75051554Y-127624518D01*
X75062739Y-127677144D01*
X75063561Y-127680541D01*
X75156873Y-128023983D01*
X75157898Y-128027377D01*
X75174859Y-128078365D01*
X75176077Y-128081711D01*
X75307096Y-128412628D01*
X75308461Y-128415812D01*
X75331024Y-128464643D01*
X75332604Y-128467825D01*
X75499663Y-128782019D01*
X75501427Y-128785123D01*
X75529267Y-128831093D01*
X75531181Y-128834062D01*
X75718117Y-129107075D01*
X75727018Y-129114344D01*
X75728352Y-129112129D01*
X75728352Y-127147067D01*
X75723877Y-127131828D01*
X75722487Y-127130623D01*
X75714804Y-127128952D01*
X75005306Y-127128952D01*
X74990067Y-127133427D01*
X74989785Y-127133752D01*
X74987814Y-127143824D01*
X64852900Y-127143824D01*
X64852900Y-126602879D01*
X74989741Y-126602879D01*
X74993079Y-126618109D01*
X75004255Y-126620952D01*
X75710237Y-126620952D01*
X75725476Y-126616477D01*
X75726681Y-126615087D01*
X75728352Y-126607404D01*
X75728352Y-126602837D01*
X76236352Y-126602837D01*
X76240827Y-126618076D01*
X76242217Y-126619281D01*
X76249900Y-126620952D01*
X77010227Y-126620952D01*
X77025466Y-126616477D01*
X77030354Y-126610836D01*
X77063725Y-126443075D01*
X77067991Y-126427156D01*
X77134157Y-126232237D01*
X77140464Y-126217010D01*
X77231508Y-126032390D01*
X77239749Y-126018116D01*
X77354111Y-125846962D01*
X77364144Y-125833887D01*
X77499868Y-125679123D01*
X77511523Y-125667468D01*
X77666287Y-125531744D01*
X77679362Y-125521711D01*
X77850516Y-125407349D01*
X77864790Y-125399108D01*
X78049410Y-125308064D01*
X78064637Y-125301757D01*
X78259556Y-125235591D01*
X78275475Y-125231325D01*
X78477365Y-125191166D01*
X78493706Y-125189015D01*
X78699111Y-125175552D01*
X78715593Y-125175552D01*
X78920998Y-125189015D01*
X78937339Y-125191166D01*
X79139229Y-125231325D01*
X79155148Y-125235591D01*
X79350067Y-125301757D01*
X79365294Y-125308064D01*
X79549917Y-125399109D01*
X79564191Y-125407350D01*
X79735340Y-125521709D01*
X79748416Y-125531742D01*
X79903182Y-125667468D01*
X79914836Y-125679123D01*
X80050560Y-125833887D01*
X80060593Y-125846962D01*
X80174955Y-126018116D01*
X80183196Y-126032390D01*
X80274240Y-126217010D01*
X80280547Y-126232237D01*
X80346713Y-126427156D01*
X80350979Y-126443075D01*
X80382828Y-126603185D01*
X80390189Y-126617258D01*
X80396677Y-126620952D01*
X82408392Y-126620952D01*
X82423610Y-126616484D01*
X82425651Y-126605650D01*
X82419141Y-126489198D01*
X82418847Y-126485703D01*
X82412849Y-126432230D01*
X82412368Y-126428805D01*
X82353008Y-126077848D01*
X82352329Y-126074419D01*
X82340412Y-126021963D01*
X82339537Y-126018556D01*
X82241437Y-125676444D01*
X82240375Y-125673099D01*
X82222688Y-125622306D01*
X82221443Y-125619028D01*
X82085823Y-125289986D01*
X82084381Y-125286749D01*
X82061148Y-125238260D01*
X82059550Y-125235148D01*
X81888084Y-124923255D01*
X81886309Y-124920229D01*
X81857811Y-124874623D01*
X81855855Y-124871680D01*
X81650721Y-124580884D01*
X81648602Y-124578050D01*
X81615206Y-124535915D01*
X81612928Y-124533200D01*
X81376657Y-124267082D01*
X81374238Y-124264506D01*
X81336342Y-124226345D01*
X81333798Y-124223922D01*
X81069328Y-123985793D01*
X81066629Y-123983496D01*
X81024731Y-123949810D01*
X81021923Y-123947678D01*
X80732540Y-123740500D01*
X80729628Y-123738536D01*
X80684244Y-123709734D01*
X80681180Y-123707908D01*
X80370532Y-123534292D01*
X80367411Y-123532661D01*
X80319093Y-123509094D01*
X80315866Y-123507630D01*
X79987775Y-123369714D01*
X79984514Y-123368449D01*
X79933819Y-123350397D01*
X79930527Y-123349327D01*
X79589083Y-123248834D01*
X79585673Y-123247933D01*
X79533339Y-123235659D01*
X79529864Y-123234945D01*
X79179358Y-123173142D01*
X79175933Y-123172636D01*
X79122488Y-123166263D01*
X79119011Y-123165947D01*
X78763819Y-123143600D01*
X78760292Y-123143477D01*
X78706527Y-123143101D01*
X78702992Y-123143175D01*
X78347501Y-123160562D01*
X78344038Y-123160829D01*
X78290518Y-123166454D01*
X78287059Y-123166916D01*
X77935734Y-123223818D01*
X77932280Y-123224477D01*
X77879751Y-123236026D01*
X77876323Y-123236881D01*
X77533574Y-123332578D01*
X77530175Y-123333630D01*
X77479292Y-123350952D01*
X77475967Y-123352189D01*
X77146020Y-123485496D01*
X77142771Y-123486915D01*
X77094121Y-123509807D01*
X77090979Y-123511395D01*
X76777911Y-123680670D01*
X76774870Y-123682425D01*
X76729059Y-123710609D01*
X76726119Y-123712533D01*
X76433870Y-123915652D01*
X76431051Y-123917730D01*
X76388659Y-123950850D01*
X76385956Y-123953087D01*
X76249982Y-124072123D01*
X76236352Y-124093570D01*
X76236352Y-126602837D01*
X75728352Y-126602837D01*
X75728352Y-124651649D01*
X75725115Y-124640624D01*
X75722251Y-124641932D01*
X75587128Y-124827913D01*
X75585126Y-124830836D01*
X75555994Y-124876040D01*
X75554177Y-124879042D01*
X75378386Y-125188490D01*
X75376731Y-125191601D01*
X75352828Y-125239753D01*
X75351340Y-125242972D01*
X75211143Y-125570076D01*
X75209845Y-125573353D01*
X75191451Y-125623891D01*
X75190343Y-125627221D01*
X75087477Y-125967932D01*
X75086555Y-125971325D01*
X75073912Y-126023590D01*
X75073180Y-126027031D01*
X75008934Y-126377075D01*
X75008392Y-126380577D01*
X75001654Y-126433915D01*
X75001310Y-126437416D01*
X74989741Y-126602879D01*
X64852900Y-126602879D01*
X64852900Y-115907904D01*
X75613753Y-115907904D01*
X75614123Y-115914725D01*
X75619647Y-115965587D01*
X75623273Y-115980839D01*
X75668428Y-116101289D01*
X75676966Y-116116884D01*
X75753467Y-116218959D01*
X75766028Y-116231520D01*
X75868103Y-116308021D01*
X75883698Y-116316559D01*
X76004146Y-116361713D01*
X76019401Y-116365340D01*
X76070266Y-116370866D01*
X76077080Y-116371235D01*
X78849637Y-116371235D01*
X78864876Y-116366760D01*
X78866081Y-116365370D01*
X78867752Y-116357687D01*
X78867752Y-116353119D01*
X79375752Y-116353119D01*
X79380227Y-116368358D01*
X79381617Y-116369563D01*
X79389300Y-116371234D01*
X82166421Y-116371234D01*
X82173242Y-116370864D01*
X82224104Y-116365340D01*
X82239356Y-116361714D01*
X82359806Y-116316559D01*
X82375401Y-116308021D01*
X82477476Y-116231520D01*
X82490037Y-116218959D01*
X82566538Y-116116884D01*
X82575076Y-116101289D01*
X82620230Y-115980841D01*
X82623857Y-115965586D01*
X82629383Y-115914721D01*
X82629752Y-115907907D01*
X82629752Y-111135350D01*
X82625277Y-111120111D01*
X82623887Y-111118906D01*
X82616204Y-111117235D01*
X79393867Y-111117235D01*
X79378628Y-111121710D01*
X79377423Y-111123100D01*
X79375752Y-111130783D01*
X79375752Y-116353119D01*
X78867752Y-116353119D01*
X78867752Y-111135350D01*
X78863277Y-111120111D01*
X78861887Y-111118906D01*
X78854204Y-111117235D01*
X75631868Y-111117235D01*
X75616629Y-111121710D01*
X75615424Y-111123100D01*
X75613753Y-111130783D01*
X75613753Y-115907904D01*
X64852900Y-115907904D01*
X64852900Y-110591120D01*
X75613752Y-110591120D01*
X75618227Y-110606359D01*
X75619617Y-110607564D01*
X75627300Y-110609235D01*
X78849637Y-110609235D01*
X78864876Y-110604760D01*
X78866081Y-110603370D01*
X78867752Y-110595687D01*
X78867752Y-110591120D01*
X79375752Y-110591120D01*
X79380227Y-110606359D01*
X79381617Y-110607564D01*
X79389300Y-110609235D01*
X82611636Y-110609235D01*
X82626875Y-110604760D01*
X82628080Y-110603370D01*
X82629751Y-110595687D01*
X82629751Y-105818566D01*
X82629381Y-105811745D01*
X82623857Y-105760883D01*
X82620231Y-105745631D01*
X82575076Y-105625181D01*
X82566538Y-105609586D01*
X82490037Y-105507511D01*
X82477476Y-105494950D01*
X82375401Y-105418449D01*
X82359806Y-105409911D01*
X82239358Y-105364757D01*
X82224103Y-105361130D01*
X82173238Y-105355604D01*
X82166424Y-105355235D01*
X79393867Y-105355235D01*
X79378628Y-105359710D01*
X79377423Y-105361100D01*
X79375752Y-105368783D01*
X79375752Y-110591120D01*
X78867752Y-110591120D01*
X78867752Y-105373351D01*
X78863277Y-105358112D01*
X78861887Y-105356907D01*
X78854204Y-105355236D01*
X76077083Y-105355236D01*
X76070262Y-105355606D01*
X76019400Y-105361130D01*
X76004148Y-105364756D01*
X75883698Y-105409911D01*
X75868103Y-105418449D01*
X75766028Y-105494950D01*
X75753467Y-105507511D01*
X75676966Y-105609586D01*
X75668428Y-105625181D01*
X75623274Y-105745629D01*
X75619647Y-105760884D01*
X75614121Y-105811749D01*
X75613752Y-105818563D01*
X75613752Y-110591120D01*
X64852900Y-110591120D01*
X64852900Y-84585421D01*
X75615253Y-84585421D01*
X75615623Y-84592242D01*
X75621147Y-84643104D01*
X75624773Y-84658356D01*
X75669928Y-84778806D01*
X75678466Y-84794401D01*
X75754967Y-84896476D01*
X75767528Y-84909037D01*
X75869603Y-84985538D01*
X75885198Y-84994076D01*
X76005646Y-85039230D01*
X76020901Y-85042857D01*
X76071766Y-85048383D01*
X76078580Y-85048752D01*
X78851137Y-85048752D01*
X78866376Y-85044277D01*
X78867581Y-85042887D01*
X78869252Y-85035204D01*
X78869252Y-85030636D01*
X79377252Y-85030636D01*
X79381727Y-85045875D01*
X79383117Y-85047080D01*
X79390800Y-85048751D01*
X82167921Y-85048751D01*
X82174742Y-85048381D01*
X82225604Y-85042857D01*
X82240856Y-85039231D01*
X82361306Y-84994076D01*
X82376901Y-84985538D01*
X82478976Y-84909037D01*
X82491537Y-84896476D01*
X82568038Y-84794401D01*
X82576576Y-84778806D01*
X82621730Y-84658358D01*
X82625357Y-84643103D01*
X82630883Y-84592238D01*
X82631252Y-84585424D01*
X82631252Y-79812867D01*
X82626777Y-79797628D01*
X82625387Y-79796423D01*
X82617704Y-79794752D01*
X79395367Y-79794752D01*
X79380128Y-79799227D01*
X79378923Y-79800617D01*
X79377252Y-79808300D01*
X79377252Y-85030636D01*
X78869252Y-85030636D01*
X78869252Y-79812867D01*
X78864777Y-79797628D01*
X78863387Y-79796423D01*
X78855704Y-79794752D01*
X75633368Y-79794752D01*
X75618129Y-79799227D01*
X75616924Y-79800617D01*
X75615253Y-79808300D01*
X75615253Y-84585421D01*
X64852900Y-84585421D01*
X64852900Y-79268637D01*
X75615252Y-79268637D01*
X75619727Y-79283876D01*
X75621117Y-79285081D01*
X75628800Y-79286752D01*
X78851137Y-79286752D01*
X78866376Y-79282277D01*
X78867581Y-79280887D01*
X78869252Y-79273204D01*
X78869252Y-79268637D01*
X79377252Y-79268637D01*
X79381727Y-79283876D01*
X79383117Y-79285081D01*
X79390800Y-79286752D01*
X82613136Y-79286752D01*
X82628375Y-79282277D01*
X82629580Y-79280887D01*
X82631251Y-79273204D01*
X82631251Y-74496083D01*
X82630881Y-74489262D01*
X82625357Y-74438400D01*
X82621731Y-74423148D01*
X82576576Y-74302698D01*
X82568038Y-74287103D01*
X82491537Y-74185028D01*
X82478976Y-74172467D01*
X82376901Y-74095966D01*
X82361306Y-74087428D01*
X82240858Y-74042274D01*
X82225603Y-74038647D01*
X82174738Y-74033121D01*
X82167924Y-74032752D01*
X79395367Y-74032752D01*
X79380128Y-74037227D01*
X79378923Y-74038617D01*
X79377252Y-74046300D01*
X79377252Y-79268637D01*
X78869252Y-79268637D01*
X78869252Y-74050868D01*
X78864777Y-74035629D01*
X78863387Y-74034424D01*
X78855704Y-74032753D01*
X76078583Y-74032753D01*
X76071762Y-74033123D01*
X76020900Y-74038647D01*
X76005648Y-74042273D01*
X75885198Y-74087428D01*
X75869603Y-74095966D01*
X75767528Y-74172467D01*
X75754967Y-74185028D01*
X75678466Y-74287103D01*
X75669928Y-74302698D01*
X75624774Y-74423146D01*
X75621147Y-74438401D01*
X75615621Y-74489266D01*
X75615252Y-74496080D01*
X75615252Y-79268637D01*
X64852900Y-79268637D01*
X64852900Y-70009720D01*
X76236352Y-70009720D01*
X76243657Y-70034600D01*
X76305280Y-70091663D01*
X76307919Y-70093973D01*
X76349352Y-70128250D01*
X76352134Y-70130424D01*
X76638599Y-70341624D01*
X76641478Y-70343625D01*
X76686486Y-70373077D01*
X76689475Y-70374916D01*
X76997687Y-70552862D01*
X77000790Y-70554540D01*
X77048774Y-70578778D01*
X77051981Y-70580287D01*
X77378114Y-70722771D01*
X77381360Y-70724083D01*
X77431774Y-70742832D01*
X77435097Y-70743963D01*
X77775063Y-70849200D01*
X77778495Y-70850158D01*
X77830619Y-70863154D01*
X77834111Y-70863922D01*
X78183677Y-70930605D01*
X78187151Y-70931168D01*
X78240444Y-70938279D01*
X78243958Y-70938648D01*
X78598817Y-70965953D01*
X78602315Y-70966124D01*
X78656069Y-70967250D01*
X78659612Y-70967225D01*
X79015275Y-70954806D01*
X79018801Y-70954584D01*
X79072342Y-70949711D01*
X79075845Y-70949294D01*
X79427912Y-70897304D01*
X79431399Y-70896690D01*
X79484040Y-70885884D01*
X79487502Y-70885072D01*
X79831591Y-70794160D01*
X79834953Y-70793171D01*
X79886086Y-70776557D01*
X79889417Y-70775371D01*
X80221232Y-70646668D01*
X80224463Y-70645309D01*
X80273433Y-70623095D01*
X80276614Y-70621544D01*
X80592020Y-70456654D01*
X80595059Y-70454955D01*
X80641246Y-70427422D01*
X80644253Y-70425514D01*
X80939281Y-70226516D01*
X80942161Y-70224454D01*
X80984995Y-70191941D01*
X80987713Y-70189755D01*
X81258768Y-69959069D01*
X81261357Y-69956738D01*
X81300315Y-69919639D01*
X81302795Y-69917141D01*
X81546427Y-69657699D01*
X81548751Y-69655082D01*
X81583320Y-69613885D01*
X81585518Y-69611111D01*
X81798702Y-69326142D01*
X81800726Y-69323273D01*
X81830489Y-69278476D01*
X81832351Y-69275495D01*
X82012454Y-68968518D01*
X82014140Y-68965451D01*
X82038733Y-68917599D01*
X82040238Y-68914460D01*
X82185011Y-68589292D01*
X82186338Y-68586071D01*
X82205435Y-68535799D01*
X82206598Y-68532458D01*
X82314211Y-68193220D01*
X82315178Y-68189850D01*
X82328550Y-68137770D01*
X82329335Y-68134314D01*
X82398462Y-67785198D01*
X82399045Y-67781756D01*
X82406533Y-67728470D01*
X82406922Y-67724997D01*
X82425160Y-67507804D01*
X82422090Y-67492799D01*
X82410454Y-67489752D01*
X80404477Y-67489752D01*
X80389238Y-67494227D01*
X80384350Y-67499868D01*
X80350979Y-67667629D01*
X80346713Y-67683548D01*
X80280547Y-67878467D01*
X80274240Y-67893694D01*
X80183196Y-68078314D01*
X80174955Y-68092588D01*
X80060593Y-68263742D01*
X80050560Y-68276817D01*
X79914836Y-68431581D01*
X79903182Y-68443236D01*
X79748416Y-68578962D01*
X79735340Y-68588995D01*
X79564191Y-68703354D01*
X79549917Y-68711595D01*
X79365294Y-68802640D01*
X79350067Y-68808947D01*
X79155148Y-68875113D01*
X79139229Y-68879379D01*
X78937339Y-68919538D01*
X78920998Y-68921689D01*
X78715593Y-68935152D01*
X78699111Y-68935152D01*
X78493706Y-68921689D01*
X78477365Y-68919538D01*
X78275475Y-68879379D01*
X78259556Y-68875113D01*
X78064637Y-68808947D01*
X78049410Y-68802640D01*
X77864787Y-68711595D01*
X77850513Y-68703354D01*
X77679364Y-68588995D01*
X77666288Y-68578962D01*
X77511522Y-68443236D01*
X77499868Y-68431581D01*
X77364144Y-68276817D01*
X77354111Y-68263742D01*
X77239749Y-68092588D01*
X77231508Y-68078314D01*
X77140464Y-67893694D01*
X77134157Y-67878467D01*
X77067991Y-67683548D01*
X77063725Y-67667629D01*
X77031876Y-67507519D01*
X77024515Y-67493446D01*
X77018027Y-67489752D01*
X76254467Y-67489752D01*
X76239228Y-67494227D01*
X76238023Y-67495617D01*
X76236352Y-67503300D01*
X76236352Y-70009720D01*
X64852900Y-70009720D01*
X64852900Y-67504624D01*
X74987814Y-67504624D01*
X74990539Y-67569628D01*
X74990784Y-67573142D01*
X74996034Y-67626685D01*
X74996471Y-67630143D01*
X75050920Y-67981866D01*
X75051554Y-67985318D01*
X75062739Y-68037944D01*
X75063561Y-68041341D01*
X75156873Y-68384783D01*
X75157898Y-68388177D01*
X75174859Y-68439165D01*
X75176077Y-68442511D01*
X75307096Y-68773428D01*
X75308461Y-68776612D01*
X75331024Y-68825443D01*
X75332604Y-68828625D01*
X75499663Y-69142819D01*
X75501427Y-69145923D01*
X75529267Y-69191893D01*
X75531181Y-69194862D01*
X75718117Y-69467875D01*
X75727018Y-69475144D01*
X75728352Y-69472929D01*
X75728352Y-67507867D01*
X75723877Y-67492628D01*
X75722487Y-67491423D01*
X75714804Y-67489752D01*
X75005306Y-67489752D01*
X74990067Y-67494227D01*
X74989785Y-67494552D01*
X74987814Y-67504624D01*
X64852900Y-67504624D01*
X64852900Y-66963679D01*
X74989741Y-66963679D01*
X74993079Y-66978909D01*
X75004255Y-66981752D01*
X75710237Y-66981752D01*
X75725476Y-66977277D01*
X75726681Y-66975887D01*
X75728352Y-66968204D01*
X75728352Y-66963637D01*
X76236352Y-66963637D01*
X76240827Y-66978876D01*
X76242217Y-66980081D01*
X76249900Y-66981752D01*
X77010227Y-66981752D01*
X77025466Y-66977277D01*
X77030354Y-66971636D01*
X77063725Y-66803875D01*
X77067991Y-66787956D01*
X77134157Y-66593037D01*
X77140464Y-66577810D01*
X77231508Y-66393190D01*
X77239749Y-66378916D01*
X77354111Y-66207762D01*
X77364144Y-66194687D01*
X77499868Y-66039923D01*
X77511523Y-66028268D01*
X77666287Y-65892544D01*
X77679362Y-65882511D01*
X77850516Y-65768149D01*
X77864790Y-65759908D01*
X78049410Y-65668864D01*
X78064637Y-65662557D01*
X78259556Y-65596391D01*
X78275475Y-65592125D01*
X78477365Y-65551966D01*
X78493706Y-65549815D01*
X78699111Y-65536352D01*
X78715593Y-65536352D01*
X78920998Y-65549815D01*
X78937339Y-65551966D01*
X79139229Y-65592125D01*
X79155148Y-65596391D01*
X79350067Y-65662557D01*
X79365294Y-65668864D01*
X79549917Y-65759909D01*
X79564191Y-65768150D01*
X79735340Y-65882509D01*
X79748416Y-65892542D01*
X79903182Y-66028268D01*
X79914836Y-66039923D01*
X80050560Y-66194687D01*
X80060593Y-66207762D01*
X80174955Y-66378916D01*
X80183196Y-66393190D01*
X80274240Y-66577810D01*
X80280547Y-66593037D01*
X80346713Y-66787956D01*
X80350979Y-66803875D01*
X80382828Y-66963985D01*
X80390189Y-66978058D01*
X80396677Y-66981752D01*
X82408392Y-66981752D01*
X82423610Y-66977284D01*
X82425651Y-66966450D01*
X82419141Y-66849998D01*
X82418847Y-66846503D01*
X82412849Y-66793030D01*
X82412368Y-66789605D01*
X82353008Y-66438648D01*
X82352329Y-66435219D01*
X82340412Y-66382763D01*
X82339537Y-66379356D01*
X82241437Y-66037244D01*
X82240375Y-66033899D01*
X82222688Y-65983106D01*
X82221443Y-65979828D01*
X82085823Y-65650786D01*
X82084381Y-65647549D01*
X82061148Y-65599060D01*
X82059550Y-65595948D01*
X81888084Y-65284055D01*
X81886309Y-65281029D01*
X81857811Y-65235423D01*
X81855855Y-65232480D01*
X81650721Y-64941684D01*
X81648602Y-64938850D01*
X81615206Y-64896715D01*
X81612928Y-64894000D01*
X81376657Y-64627882D01*
X81374238Y-64625306D01*
X81336342Y-64587145D01*
X81333798Y-64584722D01*
X81069328Y-64346593D01*
X81066629Y-64344296D01*
X81024731Y-64310610D01*
X81021923Y-64308478D01*
X80732540Y-64101300D01*
X80729628Y-64099336D01*
X80684244Y-64070534D01*
X80681180Y-64068708D01*
X80370532Y-63895092D01*
X80367411Y-63893461D01*
X80319093Y-63869894D01*
X80315866Y-63868430D01*
X79987775Y-63730514D01*
X79984514Y-63729249D01*
X79933819Y-63711197D01*
X79930527Y-63710127D01*
X79589083Y-63609634D01*
X79585673Y-63608733D01*
X79533339Y-63596459D01*
X79529864Y-63595745D01*
X79179358Y-63533942D01*
X79175933Y-63533436D01*
X79122488Y-63527063D01*
X79119011Y-63526747D01*
X78763819Y-63504400D01*
X78760292Y-63504277D01*
X78706527Y-63503901D01*
X78702992Y-63503975D01*
X78347501Y-63521362D01*
X78344038Y-63521629D01*
X78290518Y-63527254D01*
X78287059Y-63527716D01*
X77935734Y-63584618D01*
X77932280Y-63585277D01*
X77879751Y-63596826D01*
X77876323Y-63597681D01*
X77533574Y-63693378D01*
X77530175Y-63694430D01*
X77479292Y-63711752D01*
X77475967Y-63712989D01*
X77146020Y-63846296D01*
X77142771Y-63847715D01*
X77094121Y-63870607D01*
X77090979Y-63872195D01*
X76777911Y-64041470D01*
X76774870Y-64043225D01*
X76729059Y-64071409D01*
X76726119Y-64073333D01*
X76433870Y-64276452D01*
X76431051Y-64278530D01*
X76388659Y-64311650D01*
X76385956Y-64313887D01*
X76249982Y-64432923D01*
X76236352Y-64454370D01*
X76236352Y-66963637D01*
X75728352Y-66963637D01*
X75728352Y-65012449D01*
X75725115Y-65001424D01*
X75722251Y-65002732D01*
X75587128Y-65188713D01*
X75585126Y-65191636D01*
X75555994Y-65236840D01*
X75554177Y-65239842D01*
X75378386Y-65549290D01*
X75376731Y-65552401D01*
X75352828Y-65600553D01*
X75351340Y-65603772D01*
X75211143Y-65930876D01*
X75209845Y-65934153D01*
X75191451Y-65984691D01*
X75190343Y-65988021D01*
X75087477Y-66328732D01*
X75086555Y-66332125D01*
X75073912Y-66384390D01*
X75073180Y-66387831D01*
X75008934Y-66737875D01*
X75008392Y-66741377D01*
X75001654Y-66794715D01*
X75001310Y-66798216D01*
X74989741Y-66963679D01*
X64852900Y-66963679D01*
X64852900Y-57132050D01*
X64854646Y-57111145D01*
X64857170Y-57096144D01*
X64857170Y-57096141D01*
X64857976Y-57091352D01*
X64858129Y-57078800D01*
X64857440Y-57073985D01*
X64857439Y-57073977D01*
X64855950Y-57063581D01*
X64854829Y-57039535D01*
X64870372Y-56723152D01*
X64871584Y-56710847D01*
X64877935Y-56668036D01*
X64922923Y-56364748D01*
X64925334Y-56352623D01*
X65010351Y-56013220D01*
X65013940Y-56001388D01*
X65131814Y-55671952D01*
X65136546Y-55660528D01*
X65286142Y-55344233D01*
X65291971Y-55333328D01*
X65471850Y-55033218D01*
X65478720Y-55022937D01*
X65687145Y-54741909D01*
X65694989Y-54732351D01*
X65929958Y-54473102D01*
X65938702Y-54464358D01*
X66197951Y-54229389D01*
X66207509Y-54221545D01*
X66488537Y-54013120D01*
X66498818Y-54006250D01*
X66798928Y-53826371D01*
X66809833Y-53820542D01*
X67126128Y-53670946D01*
X67137552Y-53666214D01*
X67466988Y-53548340D01*
X67478820Y-53544751D01*
X67718770Y-53484646D01*
X67818226Y-53459733D01*
X67830348Y-53457323D01*
X68176452Y-53405984D01*
X68188746Y-53404773D01*
X68501438Y-53389410D01*
X68526998Y-53390758D01*
X68538124Y-53392491D01*
X68569686Y-53388364D01*
X68586021Y-53387300D01*
X235495033Y-53387300D01*
X235514418Y-53388800D01*
G37*
%TD.AperFunction*%
%TD*%
M02*
