%TF.GenerationSoftware,KiCad,Pcbnew,(6.0.6-0)*%
%TF.CreationDate,2022-08-06T20:53:34+02:00*%
%TF.ProjectId,GlowSign Aluminum PCB round cutout,476c6f77-5369-4676-9e20-416c756d696e,rev?*%
%TF.SameCoordinates,Original*%
%TF.FileFunction,Legend,Top*%
%TF.FilePolarity,Positive*%
%FSLAX46Y46*%
G04 Gerber Fmt 4.6, Leading zero omitted, Abs format (unit mm)*
G04 Created by KiCad (PCBNEW (6.0.6-0)) date 2022-08-06 20:53:34*
%MOMM*%
%LPD*%
G01*
G04 APERTURE LIST*
G04 Aperture macros list*
%AMFreePoly0*
4,1,112,3.105582,3.191654,3.458980,3.129341,3.803230,3.028022,4.134041,2.888962,4.447289,2.713894,4.739071,2.504999,5.005748,2.264881,5.243998,1.996534,5.450851,1.703301,5.623729,1.388838,5.760476,1.057065,5.859388,0.712116,5.919233,0.358291,5.939265,0.000000,5.938012,-0.089748,5.907984,-0.447339,5.838283,-0.799355,5.729777,-1.141408,5.583820,-1.469234,5.402230,-1.778747,
5.187270,-2.066090,4.941620,-2.327680,4.668342,-2.560258,4.370841,-2.760925,4.052827,-2.927179,3.718263,-3.056948,3.371318,-3.148614,3.016317,-3.201036,2.657686,-3.213560,2.299893,-3.186029,1.947399,-3.118788,1.604597,-3.012673,1.275760,-2.869007,0.964987,-2.689582,0.676150,-2.476634,0.412851,-2.232816,0.178371,-1.961168,-0.024367,-1.665076,-0.192837,-1.348230,-0.324939,-1.014580,
-0.419026,-0.668283,-0.473925,-0.313657,-0.481420,-0.134825,-0.481581,-0.134460,-0.499164,0.000000,0.505984,0.000000,0.524968,-0.289640,0.581595,-0.574324,0.674897,-0.849181,0.803276,-1.109508,0.964536,-1.350851,1.155919,-1.569081,1.374149,-1.760464,1.615492,-1.921724,1.875819,-2.050103,2.150676,-2.143405,2.435360,-2.200032,2.725000,-2.219016,3.014640,-2.200032,3.299324,-2.143405,
3.574181,-2.050103,3.834508,-1.921724,4.075851,-1.760464,4.294081,-1.569081,4.485464,-1.350851,4.646724,-1.109508,4.775103,-0.849181,4.868405,-0.574324,4.925032,-0.289640,4.944016,0.000000,4.925032,0.289640,4.868405,0.574324,4.775103,0.849181,4.646724,1.109508,4.485464,1.350851,4.294081,1.569081,4.075851,1.760464,3.834508,1.921724,3.574181,2.050103,3.299324,2.143405,
3.014640,2.200032,2.725000,2.219016,2.435360,2.200032,2.150676,2.143405,1.875819,2.050103,1.615492,1.921724,1.374149,1.760464,1.155919,1.569081,0.964536,1.350851,0.803276,1.109508,0.674897,0.849181,0.581595,0.574324,0.524968,0.289640,0.505984,0.000000,-0.499164,0.000000,-0.499963,0.006109,-0.484897,0.102868,-0.463920,0.402854,-0.399140,0.755809,-0.295421,1.099343,
-0.154055,1.429175,0.023196,1.741194,0.234123,2.031510,0.476097,2.296505,0.746101,2.532875,1.040770,2.737676,1.356433,2.908354,1.689153,3.042782,2.034784,3.139284,2.389018,3.196657,2.747440,3.214187,3.105582,3.191654,3.105582,3.191654,$1*%
G04 Aperture macros list end*
%ADD10C,0.150000*%
%ADD11C,0.400000*%
%ADD12C,0.010000*%
%ADD13FreePoly0,0.000000*%
%ADD14R,10.000000X6.000000*%
%ADD15R,6.000000X10.000000*%
G04 APERTURE END LIST*
D10*
X183534528Y-82159256D02*
X183534528Y-81359256D01*
X183839290Y-81359256D01*
X183915480Y-81397352D01*
X183953575Y-81435447D01*
X183991671Y-81511637D01*
X183991671Y-81625923D01*
X183953575Y-81702113D01*
X183915480Y-81740209D01*
X183839290Y-81778304D01*
X183534528Y-81778304D01*
X184791671Y-82083066D02*
X184753575Y-82121161D01*
X184639290Y-82159256D01*
X184563099Y-82159256D01*
X184448813Y-82121161D01*
X184372623Y-82044971D01*
X184334528Y-81968780D01*
X184296432Y-81816399D01*
X184296432Y-81702113D01*
X184334528Y-81549732D01*
X184372623Y-81473542D01*
X184448813Y-81397352D01*
X184563099Y-81359256D01*
X184639290Y-81359256D01*
X184753575Y-81397352D01*
X184791671Y-81435447D01*
X185401194Y-81740209D02*
X185515480Y-81778304D01*
X185553575Y-81816399D01*
X185591671Y-81892590D01*
X185591671Y-82006875D01*
X185553575Y-82083066D01*
X185515480Y-82121161D01*
X185439290Y-82159256D01*
X185134528Y-82159256D01*
X185134528Y-81359256D01*
X185401194Y-81359256D01*
X185477385Y-81397352D01*
X185515480Y-81435447D01*
X185553575Y-81511637D01*
X185553575Y-81587828D01*
X185515480Y-81664018D01*
X185477385Y-81702113D01*
X185401194Y-81740209D01*
X185134528Y-81740209D01*
X186429766Y-81625923D02*
X186734528Y-81625923D01*
X186544052Y-82159256D02*
X186544052Y-81473542D01*
X186582147Y-81397352D01*
X186658337Y-81359256D01*
X186734528Y-81359256D01*
X187001194Y-82159256D02*
X187001194Y-81625923D01*
X187001194Y-81359256D02*
X186963099Y-81397352D01*
X187001194Y-81435447D01*
X187039290Y-81397352D01*
X187001194Y-81359256D01*
X187001194Y-81435447D01*
X187496432Y-82159256D02*
X187420242Y-82121161D01*
X187382147Y-82044971D01*
X187382147Y-81359256D01*
X188105956Y-82121161D02*
X188029766Y-82159256D01*
X187877385Y-82159256D01*
X187801194Y-82121161D01*
X187763099Y-82044971D01*
X187763099Y-81740209D01*
X187801194Y-81664018D01*
X187877385Y-81625923D01*
X188029766Y-81625923D01*
X188105956Y-81664018D01*
X188144052Y-81740209D01*
X188144052Y-81816399D01*
X187763099Y-81892590D01*
X188448813Y-82121161D02*
X188525004Y-82159256D01*
X188677385Y-82159256D01*
X188753575Y-82121161D01*
X188791671Y-82044971D01*
X188791671Y-82006875D01*
X188753575Y-81930685D01*
X188677385Y-81892590D01*
X188563099Y-81892590D01*
X188486909Y-81854494D01*
X188448813Y-81778304D01*
X188448813Y-81740209D01*
X188486909Y-81664018D01*
X188563099Y-81625923D01*
X188677385Y-81625923D01*
X188753575Y-81664018D01*
X189134528Y-82083066D02*
X189172623Y-82121161D01*
X189134528Y-82159256D01*
X189096432Y-82121161D01*
X189134528Y-82083066D01*
X189134528Y-82159256D01*
X189134528Y-81664018D02*
X189172623Y-81702113D01*
X189134528Y-81740209D01*
X189096432Y-81702113D01*
X189134528Y-81664018D01*
X189134528Y-81740209D01*
X183534528Y-83447256D02*
X183534528Y-82647256D01*
X183877385Y-83447256D02*
X183877385Y-83028209D01*
X183839290Y-82952018D01*
X183763099Y-82913923D01*
X183648813Y-82913923D01*
X183572623Y-82952018D01*
X183534528Y-82990113D01*
X184144052Y-82913923D02*
X184448813Y-82913923D01*
X184258337Y-82647256D02*
X184258337Y-83332971D01*
X184296432Y-83409161D01*
X184372623Y-83447256D01*
X184448813Y-83447256D01*
X184601194Y-82913923D02*
X184905956Y-82913923D01*
X184715480Y-82647256D02*
X184715480Y-83332971D01*
X184753575Y-83409161D01*
X184829766Y-83447256D01*
X184905956Y-83447256D01*
X185172623Y-82913923D02*
X185172623Y-83713923D01*
X185172623Y-82952018D02*
X185248813Y-82913923D01*
X185401194Y-82913923D01*
X185477385Y-82952018D01*
X185515480Y-82990113D01*
X185553575Y-83066304D01*
X185553575Y-83294875D01*
X185515480Y-83371066D01*
X185477385Y-83409161D01*
X185401194Y-83447256D01*
X185248813Y-83447256D01*
X185172623Y-83409161D01*
X185858337Y-83409161D02*
X185934528Y-83447256D01*
X186086909Y-83447256D01*
X186163099Y-83409161D01*
X186201194Y-83332971D01*
X186201194Y-83294875D01*
X186163099Y-83218685D01*
X186086909Y-83180590D01*
X185972623Y-83180590D01*
X185896432Y-83142494D01*
X185858337Y-83066304D01*
X185858337Y-83028209D01*
X185896432Y-82952018D01*
X185972623Y-82913923D01*
X186086909Y-82913923D01*
X186163099Y-82952018D01*
X186544052Y-83371066D02*
X186582147Y-83409161D01*
X186544052Y-83447256D01*
X186505956Y-83409161D01*
X186544052Y-83371066D01*
X186544052Y-83447256D01*
X186544052Y-82952018D02*
X186582147Y-82990113D01*
X186544052Y-83028209D01*
X186505956Y-82990113D01*
X186544052Y-82952018D01*
X186544052Y-83028209D01*
X187496432Y-82609161D02*
X186810718Y-83637732D01*
X188334528Y-82609161D02*
X187648813Y-83637732D01*
X188601194Y-83447256D02*
X188601194Y-82647256D01*
X188601194Y-82952018D02*
X188677385Y-82913923D01*
X188829766Y-82913923D01*
X188905956Y-82952018D01*
X188944052Y-82990113D01*
X188982147Y-83066304D01*
X188982147Y-83294875D01*
X188944052Y-83371066D01*
X188905956Y-83409161D01*
X188829766Y-83447256D01*
X188677385Y-83447256D01*
X188601194Y-83409161D01*
X189325004Y-83447256D02*
X189325004Y-82913923D01*
X189325004Y-82647256D02*
X189286909Y-82685352D01*
X189325004Y-82723447D01*
X189363099Y-82685352D01*
X189325004Y-82647256D01*
X189325004Y-82723447D01*
X189591671Y-82913923D02*
X189896432Y-82913923D01*
X189705956Y-82647256D02*
X189705956Y-83332971D01*
X189744052Y-83409161D01*
X189820242Y-83447256D01*
X189896432Y-83447256D01*
X190163099Y-83371066D02*
X190201194Y-83409161D01*
X190163099Y-83447256D01*
X190125004Y-83409161D01*
X190163099Y-83371066D01*
X190163099Y-83447256D01*
X190658337Y-83447256D02*
X190582147Y-83409161D01*
X190544052Y-83332971D01*
X190544052Y-82647256D01*
X190886909Y-82913923D02*
X191077385Y-83447256D01*
X191267861Y-82913923D02*
X191077385Y-83447256D01*
X191001194Y-83637732D01*
X190963099Y-83675828D01*
X190886909Y-83713923D01*
X192144052Y-82609161D02*
X191458337Y-83637732D01*
X183458337Y-83935256D02*
X183953575Y-83935256D01*
X183686909Y-84240018D01*
X183801194Y-84240018D01*
X183877385Y-84278113D01*
X183915480Y-84316209D01*
X183953575Y-84392399D01*
X183953575Y-84582875D01*
X183915480Y-84659066D01*
X183877385Y-84697161D01*
X183801194Y-84735256D01*
X183572623Y-84735256D01*
X183496432Y-84697161D01*
X183458337Y-84659066D01*
X184258337Y-84506685D02*
X184639290Y-84506685D01*
X184182147Y-84735256D02*
X184448813Y-83935256D01*
X184715480Y-84735256D01*
X185401194Y-84735256D02*
X184944052Y-84735256D01*
X185172623Y-84735256D02*
X185172623Y-83935256D01*
X185096432Y-84049542D01*
X185020242Y-84125732D01*
X184944052Y-84163828D01*
X185667861Y-84201923D02*
X185858337Y-84735256D01*
X186048813Y-84201923D01*
X186353575Y-84735256D02*
X186353575Y-84201923D01*
X186353575Y-83935256D02*
X186315480Y-83973352D01*
X186353575Y-84011447D01*
X186391671Y-83973352D01*
X186353575Y-83935256D01*
X186353575Y-84011447D01*
X186734528Y-84735256D02*
X186734528Y-83935256D01*
X187039290Y-83935256D01*
X187115480Y-83973352D01*
X187153575Y-84011447D01*
X187191671Y-84087637D01*
X187191671Y-84201923D01*
X187153575Y-84278113D01*
X187115480Y-84316209D01*
X187039290Y-84354304D01*
X186734528Y-84354304D01*
X187839290Y-84697161D02*
X187763099Y-84735256D01*
X187610718Y-84735256D01*
X187534528Y-84697161D01*
X187496432Y-84620971D01*
X187496432Y-84316209D01*
X187534528Y-84240018D01*
X187610718Y-84201923D01*
X187763099Y-84201923D01*
X187839290Y-84240018D01*
X187877385Y-84316209D01*
X187877385Y-84392399D01*
X187496432Y-84468590D01*
D11*
X185106513Y-96668952D02*
X184868418Y-96549904D01*
X184511275Y-96549904D01*
X184154132Y-96668952D01*
X183916037Y-96907047D01*
X183796990Y-97145142D01*
X183677942Y-97621332D01*
X183677942Y-97978475D01*
X183796990Y-98454666D01*
X183916037Y-98692761D01*
X184154132Y-98930856D01*
X184511275Y-99049904D01*
X184749371Y-99049904D01*
X185106513Y-98930856D01*
X185225561Y-98811809D01*
X185225561Y-97978475D01*
X184749371Y-97978475D01*
X186654132Y-99049904D02*
X186416037Y-98930856D01*
X186296990Y-98692761D01*
X186296990Y-96549904D01*
X187963656Y-99049904D02*
X187725561Y-98930856D01*
X187606513Y-98811809D01*
X187487466Y-98573713D01*
X187487466Y-97859428D01*
X187606513Y-97621332D01*
X187725561Y-97502285D01*
X187963656Y-97383237D01*
X188320799Y-97383237D01*
X188558894Y-97502285D01*
X188677942Y-97621332D01*
X188796990Y-97859428D01*
X188796990Y-98573713D01*
X188677942Y-98811809D01*
X188558894Y-98930856D01*
X188320799Y-99049904D01*
X187963656Y-99049904D01*
X189630323Y-97383237D02*
X190106513Y-99049904D01*
X190582704Y-97859428D01*
X191058894Y-99049904D01*
X191535085Y-97383237D01*
X192368418Y-98930856D02*
X192725561Y-99049904D01*
X193320799Y-99049904D01*
X193558894Y-98930856D01*
X193677942Y-98811809D01*
X193796990Y-98573713D01*
X193796990Y-98335618D01*
X193677942Y-98097523D01*
X193558894Y-97978475D01*
X193320799Y-97859428D01*
X192844609Y-97740380D01*
X192606513Y-97621332D01*
X192487466Y-97502285D01*
X192368418Y-97264190D01*
X192368418Y-97026094D01*
X192487466Y-96787999D01*
X192606513Y-96668952D01*
X192844609Y-96549904D01*
X193439847Y-96549904D01*
X193796990Y-96668952D01*
X194868418Y-99049904D02*
X194868418Y-97383237D01*
X194868418Y-96549904D02*
X194749371Y-96668952D01*
X194868418Y-96787999D01*
X194987466Y-96668952D01*
X194868418Y-96549904D01*
X194868418Y-96787999D01*
X197130323Y-97383237D02*
X197130323Y-99407047D01*
X197011275Y-99645142D01*
X196892228Y-99764190D01*
X196654132Y-99883237D01*
X196296990Y-99883237D01*
X196058894Y-99764190D01*
X197130323Y-98930856D02*
X196892228Y-99049904D01*
X196416037Y-99049904D01*
X196177942Y-98930856D01*
X196058894Y-98811809D01*
X195939847Y-98573713D01*
X195939847Y-97859428D01*
X196058894Y-97621332D01*
X196177942Y-97502285D01*
X196416037Y-97383237D01*
X196892228Y-97383237D01*
X197130323Y-97502285D01*
X198320799Y-97383237D02*
X198320799Y-99049904D01*
X198320799Y-97621332D02*
X198439847Y-97502285D01*
X198677942Y-97383237D01*
X199035085Y-97383237D01*
X199273180Y-97502285D01*
X199392228Y-97740380D01*
X199392228Y-99049904D01*
D10*
X183890071Y-101065866D02*
X183851975Y-101103961D01*
X183737690Y-101142056D01*
X183661499Y-101142056D01*
X183547213Y-101103961D01*
X183471023Y-101027771D01*
X183432928Y-100951580D01*
X183394832Y-100799199D01*
X183394832Y-100684913D01*
X183432928Y-100532532D01*
X183471023Y-100456342D01*
X183547213Y-100380152D01*
X183661499Y-100342056D01*
X183737690Y-100342056D01*
X183851975Y-100380152D01*
X183890071Y-100418247D01*
X184347213Y-101142056D02*
X184271023Y-101103961D01*
X184232928Y-101065866D01*
X184194832Y-100989675D01*
X184194832Y-100761104D01*
X184232928Y-100684913D01*
X184271023Y-100646818D01*
X184347213Y-100608723D01*
X184461499Y-100608723D01*
X184537690Y-100646818D01*
X184575785Y-100684913D01*
X184613880Y-100761104D01*
X184613880Y-100989675D01*
X184575785Y-101065866D01*
X184537690Y-101103961D01*
X184461499Y-101142056D01*
X184347213Y-101142056D01*
X184880547Y-100608723D02*
X185071023Y-101142056D01*
X185261499Y-100608723D01*
X185871023Y-101103961D02*
X185794832Y-101142056D01*
X185642452Y-101142056D01*
X185566261Y-101103961D01*
X185528166Y-101027771D01*
X185528166Y-100723009D01*
X185566261Y-100646818D01*
X185642452Y-100608723D01*
X185794832Y-100608723D01*
X185871023Y-100646818D01*
X185909118Y-100723009D01*
X185909118Y-100799199D01*
X185528166Y-100875390D01*
X186251975Y-101142056D02*
X186251975Y-100608723D01*
X186251975Y-100761104D02*
X186290071Y-100684913D01*
X186328166Y-100646818D01*
X186404356Y-100608723D01*
X186480547Y-100608723D01*
X187356737Y-101142056D02*
X187356737Y-100342056D01*
X187661499Y-100342056D01*
X187737690Y-100380152D01*
X187775785Y-100418247D01*
X187813880Y-100494437D01*
X187813880Y-100608723D01*
X187775785Y-100684913D01*
X187737690Y-100723009D01*
X187661499Y-100761104D01*
X187356737Y-100761104D01*
X188613880Y-101065866D02*
X188575785Y-101103961D01*
X188461499Y-101142056D01*
X188385309Y-101142056D01*
X188271023Y-101103961D01*
X188194832Y-101027771D01*
X188156737Y-100951580D01*
X188118642Y-100799199D01*
X188118642Y-100684913D01*
X188156737Y-100532532D01*
X188194832Y-100456342D01*
X188271023Y-100380152D01*
X188385309Y-100342056D01*
X188461499Y-100342056D01*
X188575785Y-100380152D01*
X188613880Y-100418247D01*
X189223404Y-100723009D02*
X189337690Y-100761104D01*
X189375785Y-100799199D01*
X189413880Y-100875390D01*
X189413880Y-100989675D01*
X189375785Y-101065866D01*
X189337690Y-101103961D01*
X189261499Y-101142056D01*
X188956737Y-101142056D01*
X188956737Y-100342056D01*
X189223404Y-100342056D01*
X189299594Y-100380152D01*
X189337690Y-100418247D01*
X189375785Y-100494437D01*
X189375785Y-100570628D01*
X189337690Y-100646818D01*
X189299594Y-100684913D01*
X189223404Y-100723009D01*
X188956737Y-100723009D01*
X190290071Y-100608723D02*
X190480547Y-101142056D01*
X190671023Y-100608723D01*
X191394832Y-101142056D02*
X190937690Y-101142056D01*
X191166261Y-101142056D02*
X191166261Y-100342056D01*
X191090071Y-100456342D01*
X191013880Y-100532532D01*
X190937690Y-100570628D01*
X191737690Y-101065866D02*
X191775785Y-101103961D01*
X191737690Y-101142056D01*
X191699594Y-101103961D01*
X191737690Y-101065866D01*
X191737690Y-101142056D01*
X192271023Y-100342056D02*
X192347213Y-100342056D01*
X192423404Y-100380152D01*
X192461499Y-100418247D01*
X192499594Y-100494437D01*
X192537690Y-100646818D01*
X192537690Y-100837294D01*
X192499594Y-100989675D01*
X192461499Y-101065866D01*
X192423404Y-101103961D01*
X192347213Y-101142056D01*
X192271023Y-101142056D01*
X192194832Y-101103961D01*
X192156737Y-101065866D01*
X192118642Y-100989675D01*
X192080547Y-100837294D01*
X192080547Y-100646818D01*
X192118642Y-100494437D01*
X192156737Y-100418247D01*
X192194832Y-100380152D01*
X192271023Y-100342056D01*
X183890071Y-102353866D02*
X183851975Y-102391961D01*
X183737690Y-102430056D01*
X183661499Y-102430056D01*
X183547213Y-102391961D01*
X183471023Y-102315771D01*
X183432928Y-102239580D01*
X183394832Y-102087199D01*
X183394832Y-101972913D01*
X183432928Y-101820532D01*
X183471023Y-101744342D01*
X183547213Y-101668152D01*
X183661499Y-101630056D01*
X183737690Y-101630056D01*
X183851975Y-101668152D01*
X183890071Y-101706247D01*
X184232928Y-102430056D02*
X184232928Y-101896723D01*
X184232928Y-101630056D02*
X184194832Y-101668152D01*
X184232928Y-101706247D01*
X184271023Y-101668152D01*
X184232928Y-101630056D01*
X184232928Y-101706247D01*
X184613880Y-102430056D02*
X184613880Y-101896723D01*
X184613880Y-102049104D02*
X184651975Y-101972913D01*
X184690071Y-101934818D01*
X184766261Y-101896723D01*
X184842452Y-101896723D01*
X185451975Y-102391961D02*
X185375785Y-102430056D01*
X185223404Y-102430056D01*
X185147213Y-102391961D01*
X185109118Y-102353866D01*
X185071023Y-102277675D01*
X185071023Y-102049104D01*
X185109118Y-101972913D01*
X185147213Y-101934818D01*
X185223404Y-101896723D01*
X185375785Y-101896723D01*
X185451975Y-101934818D01*
X185909118Y-102430056D02*
X185832928Y-102391961D01*
X185794832Y-102315771D01*
X185794832Y-101630056D01*
X186518642Y-102391961D02*
X186442452Y-102430056D01*
X186290071Y-102430056D01*
X186213880Y-102391961D01*
X186175785Y-102315771D01*
X186175785Y-102011009D01*
X186213880Y-101934818D01*
X186290071Y-101896723D01*
X186442452Y-101896723D01*
X186518642Y-101934818D01*
X186556737Y-102011009D01*
X186556737Y-102087199D01*
X186175785Y-102163390D01*
X187813880Y-102391961D02*
X187737690Y-102430056D01*
X187585309Y-102430056D01*
X187509118Y-102391961D01*
X187471023Y-102315771D01*
X187471023Y-102011009D01*
X187509118Y-101934818D01*
X187585309Y-101896723D01*
X187737690Y-101896723D01*
X187813880Y-101934818D01*
X187851975Y-102011009D01*
X187851975Y-102087199D01*
X187471023Y-102163390D01*
X188537690Y-102430056D02*
X188537690Y-101630056D01*
X188537690Y-102391961D02*
X188461499Y-102430056D01*
X188309118Y-102430056D01*
X188232928Y-102391961D01*
X188194832Y-102353866D01*
X188156737Y-102277675D01*
X188156737Y-102049104D01*
X188194832Y-101972913D01*
X188232928Y-101934818D01*
X188309118Y-101896723D01*
X188461499Y-101896723D01*
X188537690Y-101934818D01*
X188918642Y-102430056D02*
X188918642Y-101896723D01*
X188918642Y-101630056D02*
X188880547Y-101668152D01*
X188918642Y-101706247D01*
X188956737Y-101668152D01*
X188918642Y-101630056D01*
X188918642Y-101706247D01*
X189185309Y-101896723D02*
X189490071Y-101896723D01*
X189299594Y-101630056D02*
X189299594Y-102315771D01*
X189337690Y-102391961D01*
X189413880Y-102430056D01*
X189490071Y-102430056D01*
X189756737Y-102430056D02*
X189756737Y-101896723D01*
X189756737Y-101630056D02*
X189718642Y-101668152D01*
X189756737Y-101706247D01*
X189794832Y-101668152D01*
X189756737Y-101630056D01*
X189756737Y-101706247D01*
X190251975Y-102430056D02*
X190175785Y-102391961D01*
X190137690Y-102353866D01*
X190099594Y-102277675D01*
X190099594Y-102049104D01*
X190137690Y-101972913D01*
X190175785Y-101934818D01*
X190251975Y-101896723D01*
X190366261Y-101896723D01*
X190442452Y-101934818D01*
X190480547Y-101972913D01*
X190518642Y-102049104D01*
X190518642Y-102277675D01*
X190480547Y-102353866D01*
X190442452Y-102391961D01*
X190366261Y-102430056D01*
X190251975Y-102430056D01*
X190861499Y-101896723D02*
X190861499Y-102430056D01*
X190861499Y-101972913D02*
X190899594Y-101934818D01*
X190975785Y-101896723D01*
X191090071Y-101896723D01*
X191166261Y-101934818D01*
X191204356Y-102011009D01*
X191204356Y-102430056D01*
X183851985Y-109812456D02*
X183851985Y-109012456D01*
X183851985Y-109774361D02*
X183775794Y-109812456D01*
X183623413Y-109812456D01*
X183547223Y-109774361D01*
X183509128Y-109736266D01*
X183471032Y-109660075D01*
X183471032Y-109431504D01*
X183509128Y-109355313D01*
X183547223Y-109317218D01*
X183623413Y-109279123D01*
X183775794Y-109279123D01*
X183851985Y-109317218D01*
X184537699Y-109774361D02*
X184461509Y-109812456D01*
X184309128Y-109812456D01*
X184232937Y-109774361D01*
X184194842Y-109698171D01*
X184194842Y-109393409D01*
X184232937Y-109317218D01*
X184309128Y-109279123D01*
X184461509Y-109279123D01*
X184537699Y-109317218D01*
X184575794Y-109393409D01*
X184575794Y-109469599D01*
X184194842Y-109545790D01*
X184880556Y-109774361D02*
X184956747Y-109812456D01*
X185109128Y-109812456D01*
X185185318Y-109774361D01*
X185223413Y-109698171D01*
X185223413Y-109660075D01*
X185185318Y-109583885D01*
X185109128Y-109545790D01*
X184994842Y-109545790D01*
X184918652Y-109507694D01*
X184880556Y-109431504D01*
X184880556Y-109393409D01*
X184918652Y-109317218D01*
X184994842Y-109279123D01*
X185109128Y-109279123D01*
X185185318Y-109317218D01*
X185566271Y-109812456D02*
X185566271Y-109279123D01*
X185566271Y-109012456D02*
X185528175Y-109050552D01*
X185566271Y-109088647D01*
X185604366Y-109050552D01*
X185566271Y-109012456D01*
X185566271Y-109088647D01*
X186290080Y-109279123D02*
X186290080Y-109926742D01*
X186251985Y-110002932D01*
X186213890Y-110041028D01*
X186137699Y-110079123D01*
X186023413Y-110079123D01*
X185947223Y-110041028D01*
X186290080Y-109774361D02*
X186213890Y-109812456D01*
X186061509Y-109812456D01*
X185985318Y-109774361D01*
X185947223Y-109736266D01*
X185909128Y-109660075D01*
X185909128Y-109431504D01*
X185947223Y-109355313D01*
X185985318Y-109317218D01*
X186061509Y-109279123D01*
X186213890Y-109279123D01*
X186290080Y-109317218D01*
X186671032Y-109279123D02*
X186671032Y-109812456D01*
X186671032Y-109355313D02*
X186709128Y-109317218D01*
X186785318Y-109279123D01*
X186899604Y-109279123D01*
X186975794Y-109317218D01*
X187013890Y-109393409D01*
X187013890Y-109812456D01*
X187699604Y-109774361D02*
X187623413Y-109812456D01*
X187471032Y-109812456D01*
X187394842Y-109774361D01*
X187356747Y-109698171D01*
X187356747Y-109393409D01*
X187394842Y-109317218D01*
X187471032Y-109279123D01*
X187623413Y-109279123D01*
X187699604Y-109317218D01*
X187737699Y-109393409D01*
X187737699Y-109469599D01*
X187356747Y-109545790D01*
X188423413Y-109812456D02*
X188423413Y-109012456D01*
X188423413Y-109774361D02*
X188347223Y-109812456D01*
X188194842Y-109812456D01*
X188118652Y-109774361D01*
X188080556Y-109736266D01*
X188042461Y-109660075D01*
X188042461Y-109431504D01*
X188080556Y-109355313D01*
X188118652Y-109317218D01*
X188194842Y-109279123D01*
X188347223Y-109279123D01*
X188423413Y-109317218D01*
X189413890Y-109812456D02*
X189413890Y-109012456D01*
X189413890Y-109317218D02*
X189490080Y-109279123D01*
X189642461Y-109279123D01*
X189718652Y-109317218D01*
X189756747Y-109355313D01*
X189794842Y-109431504D01*
X189794842Y-109660075D01*
X189756747Y-109736266D01*
X189718652Y-109774361D01*
X189642461Y-109812456D01*
X189490080Y-109812456D01*
X189413890Y-109774361D01*
X190061509Y-109279123D02*
X190251985Y-109812456D01*
X190442461Y-109279123D02*
X190251985Y-109812456D01*
X190175794Y-110002932D01*
X190137699Y-110041028D01*
X190061509Y-110079123D01*
%TO.C,G\u002A\u002A\u002A*%
G36*
X185616943Y-77971762D02*
G01*
X185616943Y-80385882D01*
X183202822Y-80385882D01*
X183202822Y-80023764D01*
X183564940Y-80023764D01*
X185254825Y-80023764D01*
X185254825Y-78333880D01*
X183564940Y-78333880D01*
X183564940Y-80023764D01*
X183202822Y-80023764D01*
X183202822Y-77971762D01*
X185616943Y-77971762D01*
G37*
G36*
X186651566Y-80385882D02*
G01*
X185961818Y-80385882D01*
X185961818Y-80041008D01*
X186306692Y-80041008D01*
X186306692Y-79351259D01*
X186651566Y-79351259D01*
X186651566Y-80385882D01*
G37*
G36*
X186651566Y-74523018D02*
G01*
X187341315Y-74523018D01*
X187341315Y-74178143D01*
X187686190Y-74178143D01*
X188031064Y-74178143D01*
X188031064Y-73833269D01*
X187686190Y-73833269D01*
X187686190Y-74178143D01*
X187341315Y-74178143D01*
X187341315Y-73833269D01*
X187686190Y-73833269D01*
X187686190Y-73488394D01*
X188375938Y-73488394D01*
X188375938Y-73143520D01*
X188720813Y-73143520D01*
X188720813Y-72798646D01*
X188031064Y-72798646D01*
X188031064Y-73143520D01*
X187686190Y-73143520D01*
X187686190Y-73488394D01*
X187341315Y-73488394D01*
X187341315Y-73833269D01*
X186996441Y-73833269D01*
X186996441Y-74178143D01*
X186651566Y-74178143D01*
X186651566Y-73143520D01*
X186996441Y-73143520D01*
X186996441Y-73488394D01*
X187341315Y-73488394D01*
X187341315Y-73143520D01*
X187686190Y-73143520D01*
X187686190Y-72453771D01*
X187341315Y-72453771D01*
X187341315Y-72798646D01*
X186996441Y-72798646D01*
X186996441Y-71764022D01*
X187341315Y-71764022D01*
X187341315Y-72108897D01*
X187686190Y-72108897D01*
X187686190Y-71764022D01*
X188031064Y-71764022D01*
X188031064Y-72108897D01*
X188375938Y-72108897D01*
X188375938Y-72453771D01*
X188720813Y-72453771D01*
X188720813Y-71764022D01*
X189065687Y-71764022D01*
X189065687Y-73488394D01*
X188375938Y-73488394D01*
X188375938Y-74178143D01*
X188720813Y-74178143D01*
X188720813Y-74867892D01*
X189065687Y-74867892D01*
X189065687Y-75212766D01*
X189410562Y-75212766D01*
X189410562Y-75557641D01*
X188720813Y-75557641D01*
X188720813Y-75902515D01*
X188031064Y-75902515D01*
X188031064Y-75212766D01*
X186996441Y-75212766D01*
X186996441Y-74867892D01*
X187341315Y-74867892D01*
X188031064Y-74867892D01*
X188031064Y-74523018D01*
X187341315Y-74523018D01*
X187341315Y-74867892D01*
X186996441Y-74867892D01*
X186651566Y-74867892D01*
X186651566Y-74523018D01*
G37*
G36*
X191824682Y-78316636D02*
G01*
X191479808Y-78316636D01*
X191479808Y-77971762D01*
X191824682Y-77971762D01*
X191824682Y-78316636D01*
G37*
G36*
X185961818Y-75557641D02*
G01*
X185272069Y-75557641D01*
X185272069Y-75212766D01*
X185961818Y-75212766D01*
X185961818Y-75557641D01*
G37*
G36*
X189410562Y-74867892D02*
G01*
X189065687Y-74867892D01*
X189065687Y-74523018D01*
X189410562Y-74523018D01*
X189410562Y-74867892D01*
G37*
G36*
X189065687Y-74178143D02*
G01*
X188720813Y-74178143D01*
X188720813Y-73833269D01*
X189065687Y-73833269D01*
X189065687Y-74178143D01*
G37*
G36*
X186306692Y-73488394D02*
G01*
X185961818Y-73488394D01*
X185961818Y-73143520D01*
X186306692Y-73143520D01*
X186306692Y-73488394D01*
G37*
G36*
X186651566Y-72108897D02*
G01*
X186306692Y-72108897D01*
X186306692Y-72453771D01*
X186651566Y-72453771D01*
X186651566Y-73143520D01*
X186306692Y-73143520D01*
X186306692Y-72798646D01*
X185961818Y-72798646D01*
X185961818Y-71764022D01*
X186651566Y-71764022D01*
X186651566Y-72108897D01*
G37*
G36*
X189410562Y-76247390D02*
G01*
X189410562Y-75557641D01*
X189755436Y-75557641D01*
X189755436Y-75902515D01*
X190100310Y-75902515D01*
X190100310Y-76247390D01*
X189410562Y-76247390D01*
X189410562Y-76592264D01*
X189755436Y-76592264D01*
X189755436Y-76937138D01*
X190100310Y-76937138D01*
X190100310Y-76247390D01*
X190445185Y-76247390D01*
X190445185Y-76592264D01*
X191134934Y-76592264D01*
X191134934Y-76247390D01*
X191479808Y-76247390D01*
X191479808Y-76592264D01*
X191824682Y-76592264D01*
X191824682Y-77282013D01*
X191479808Y-77282013D01*
X191479808Y-77971762D01*
X190790059Y-77971762D01*
X190790059Y-77282013D01*
X191134934Y-77282013D01*
X191479808Y-77282013D01*
X191479808Y-76937138D01*
X191134934Y-76937138D01*
X191134934Y-77282013D01*
X190790059Y-77282013D01*
X190445185Y-77282013D01*
X190445185Y-79006385D01*
X189755436Y-79006385D01*
X189755436Y-79351259D01*
X189410562Y-79351259D01*
X189410562Y-79696134D01*
X188720813Y-79696134D01*
X188720813Y-79351259D01*
X189065687Y-79351259D01*
X189410562Y-79351259D01*
X189410562Y-79006385D01*
X189065687Y-79006385D01*
X189065687Y-79351259D01*
X188720813Y-79351259D01*
X188720813Y-79006385D01*
X188375938Y-79006385D01*
X188375938Y-78661510D01*
X189065687Y-78661510D01*
X190100310Y-78661510D01*
X190100310Y-77626887D01*
X189065687Y-77626887D01*
X189065687Y-78661510D01*
X188375938Y-78661510D01*
X188375938Y-78316636D01*
X188720813Y-78316636D01*
X188720813Y-77971762D01*
X188375938Y-77971762D01*
X188375938Y-77626887D01*
X188720813Y-77626887D01*
X188720813Y-77282013D01*
X189065687Y-77282013D01*
X189410562Y-77282013D01*
X190100310Y-77282013D01*
X190445185Y-77282013D01*
X190445185Y-76937138D01*
X190100310Y-76937138D01*
X190100310Y-77282013D01*
X189410562Y-77282013D01*
X189410562Y-76937138D01*
X189065687Y-76937138D01*
X189065687Y-77282013D01*
X188720813Y-77282013D01*
X188720813Y-76937138D01*
X189065687Y-76937138D01*
X189065687Y-76247390D01*
X189410562Y-76247390D01*
G37*
G36*
X189755436Y-75212766D02*
G01*
X189755436Y-74867892D01*
X190100310Y-74867892D01*
X190100310Y-74523018D01*
X190445185Y-74523018D01*
X190445185Y-74867892D01*
X190790059Y-74867892D01*
X190790059Y-74523018D01*
X191824682Y-74523018D01*
X191824682Y-74867892D01*
X191479808Y-74867892D01*
X191479808Y-75212766D01*
X190790059Y-75212766D01*
X190790059Y-75557641D01*
X191479808Y-75557641D01*
X191479808Y-75212766D01*
X191824682Y-75212766D01*
X191824682Y-76247390D01*
X191479808Y-76247390D01*
X191479808Y-75902515D01*
X190445185Y-75902515D01*
X190445185Y-75212766D01*
X189755436Y-75212766D01*
G37*
G36*
X187341315Y-77971762D02*
G01*
X188031064Y-77971762D01*
X188031064Y-79006385D01*
X188375938Y-79006385D01*
X188375938Y-79351259D01*
X188031064Y-79351259D01*
X188031064Y-80385882D01*
X186996441Y-80385882D01*
X186996441Y-79696134D01*
X187341315Y-79696134D01*
X187686190Y-79696134D01*
X187686190Y-79351259D01*
X187341315Y-79351259D01*
X187341315Y-79696134D01*
X186996441Y-79696134D01*
X186996441Y-79351259D01*
X187341315Y-79351259D01*
X187341315Y-79006385D01*
X187686190Y-79006385D01*
X187686190Y-78316636D01*
X187341315Y-78316636D01*
X187341315Y-79006385D01*
X186996441Y-79006385D01*
X186996441Y-78661510D01*
X186651566Y-78661510D01*
X186651566Y-79006385D01*
X186306692Y-79006385D01*
X186306692Y-79351259D01*
X185961818Y-79351259D01*
X185961818Y-78316636D01*
X186306692Y-78316636D01*
X186651566Y-78316636D01*
X186651566Y-77971762D01*
X186306692Y-77971762D01*
X186306692Y-78316636D01*
X185961818Y-78316636D01*
X185961818Y-77626887D01*
X186306692Y-77626887D01*
X186651566Y-77626887D01*
X186996441Y-77626887D01*
X186996441Y-77282013D01*
X186651566Y-77282013D01*
X186651566Y-77626887D01*
X186306692Y-77626887D01*
X186306692Y-77282013D01*
X185961818Y-77282013D01*
X185961818Y-77626887D01*
X185272069Y-77626887D01*
X185272069Y-77282013D01*
X184927194Y-77282013D01*
X184927194Y-77626887D01*
X184582320Y-77626887D01*
X184582320Y-77282013D01*
X184927194Y-77282013D01*
X184927194Y-76937138D01*
X185272069Y-76937138D01*
X185272069Y-77282013D01*
X185961818Y-77282013D01*
X185961818Y-76937138D01*
X186306692Y-76937138D01*
X186306692Y-76247390D01*
X184927194Y-76247390D01*
X184927194Y-76937138D01*
X184582320Y-76937138D01*
X184582320Y-77282013D01*
X183892571Y-77282013D01*
X183892571Y-76937138D01*
X184237446Y-76937138D01*
X184237446Y-76592264D01*
X183892571Y-76592264D01*
X183892571Y-76937138D01*
X183547697Y-76937138D01*
X183547697Y-77626887D01*
X183202822Y-77626887D01*
X183202822Y-76247390D01*
X183892571Y-76247390D01*
X184582320Y-76247390D01*
X184927194Y-76247390D01*
X184927194Y-75902515D01*
X184582320Y-75902515D01*
X184582320Y-76247390D01*
X183892571Y-76247390D01*
X183892571Y-75212766D01*
X183547697Y-75212766D01*
X183547697Y-75902515D01*
X183202822Y-75902515D01*
X183202822Y-74523018D01*
X183547697Y-74523018D01*
X183547697Y-74867892D01*
X184237446Y-74867892D01*
X184237446Y-74523018D01*
X186306692Y-74523018D01*
X186306692Y-74867892D01*
X185272069Y-74867892D01*
X185272069Y-75212766D01*
X184237446Y-75212766D01*
X184237446Y-75557641D01*
X184927194Y-75557641D01*
X184927194Y-75902515D01*
X185961818Y-75902515D01*
X186306692Y-75902515D01*
X186651566Y-75902515D01*
X186651566Y-75557641D01*
X186306692Y-75557641D01*
X186306692Y-75902515D01*
X185961818Y-75902515D01*
X185961818Y-75557641D01*
X186306692Y-75557641D01*
X186306692Y-75212766D01*
X186996441Y-75212766D01*
X186996441Y-75902515D01*
X186651566Y-75902515D01*
X186651566Y-76937138D01*
X186996441Y-76937138D01*
X186996441Y-77282013D01*
X187341315Y-77282013D01*
X187341315Y-76937138D01*
X187686190Y-76937138D01*
X187686190Y-77282013D01*
X188031064Y-77282013D01*
X188031064Y-77626887D01*
X187341315Y-77626887D01*
X187341315Y-77971762D01*
X186996441Y-77971762D01*
X186996441Y-78316636D01*
X187341315Y-78316636D01*
X187341315Y-77971762D01*
G37*
G36*
X189410562Y-80385882D02*
G01*
X188720813Y-80385882D01*
X188720813Y-80041008D01*
X189410562Y-80041008D01*
X189410562Y-80385882D01*
G37*
G36*
X191824682Y-80385882D02*
G01*
X191479808Y-80385882D01*
X191479808Y-80041008D01*
X190790059Y-80041008D01*
X190790059Y-80385882D01*
X190445185Y-80385882D01*
X190445185Y-80041008D01*
X190790059Y-80041008D01*
X190790059Y-79696134D01*
X190445185Y-79696134D01*
X190445185Y-80041008D01*
X189755436Y-80041008D01*
X189755436Y-79696134D01*
X190100310Y-79696134D01*
X190100310Y-79351259D01*
X191134934Y-79351259D01*
X191134934Y-78661510D01*
X191824682Y-78661510D01*
X191824682Y-80385882D01*
G37*
G36*
X185616943Y-71764022D02*
G01*
X185616943Y-74178143D01*
X183202822Y-74178143D01*
X183202822Y-73816025D01*
X183564940Y-73816025D01*
X185254825Y-73816025D01*
X185254825Y-72126140D01*
X183564940Y-72126140D01*
X183564940Y-73816025D01*
X183202822Y-73816025D01*
X183202822Y-71764022D01*
X185616943Y-71764022D01*
G37*
G36*
X186306692Y-74178143D02*
G01*
X185961818Y-74178143D01*
X185961818Y-73833269D01*
X186306692Y-73833269D01*
X186306692Y-74178143D01*
G37*
G36*
X191824682Y-71764022D02*
G01*
X191824682Y-74178143D01*
X189410562Y-74178143D01*
X189410562Y-73816025D01*
X189772680Y-73816025D01*
X191462564Y-73816025D01*
X191462564Y-72126140D01*
X189772680Y-72126140D01*
X189772680Y-73816025D01*
X189410562Y-73816025D01*
X189410562Y-71764022D01*
X191824682Y-71764022D01*
G37*
G36*
X184927194Y-79696134D02*
G01*
X183892571Y-79696134D01*
X183892571Y-78661510D01*
X184927194Y-78661510D01*
X184927194Y-79696134D01*
G37*
G36*
X188375938Y-77282013D02*
G01*
X188031064Y-77282013D01*
X188031064Y-76937138D01*
X188375938Y-76937138D01*
X188375938Y-77282013D01*
G37*
G36*
X188031064Y-76937138D02*
G01*
X187686190Y-76937138D01*
X187686190Y-76592264D01*
X187341315Y-76592264D01*
X187341315Y-76247390D01*
X187686190Y-76247390D01*
X187686190Y-75902515D01*
X188031064Y-75902515D01*
X188031064Y-76937138D01*
G37*
G36*
X188720813Y-76937138D02*
G01*
X188375938Y-76937138D01*
X188375938Y-76247390D01*
X188720813Y-76247390D01*
X188720813Y-76937138D01*
G37*
G36*
X189065687Y-76247390D02*
G01*
X188720813Y-76247390D01*
X188720813Y-75902515D01*
X189065687Y-75902515D01*
X189065687Y-76247390D01*
G37*
G36*
X189755436Y-78316636D02*
G01*
X189410562Y-78316636D01*
X189410562Y-77971762D01*
X189755436Y-77971762D01*
X189755436Y-78316636D01*
G37*
G36*
X185616943Y-76937138D02*
G01*
X185272069Y-76937138D01*
X185272069Y-76592264D01*
X185616943Y-76592264D01*
X185616943Y-76937138D01*
G37*
G36*
X184927194Y-73488394D02*
G01*
X183892571Y-73488394D01*
X183892571Y-72453771D01*
X184927194Y-72453771D01*
X184927194Y-73488394D01*
G37*
G36*
X191134934Y-73488394D02*
G01*
X190100310Y-73488394D01*
X190100310Y-72453771D01*
X191134934Y-72453771D01*
X191134934Y-73488394D01*
G37*
%TO.C,OSHW logo*%
G36*
X200707238Y-78434241D02*
G01*
X200711491Y-78493565D01*
X200716377Y-78528524D01*
X200723147Y-78543772D01*
X200733054Y-78543967D01*
X200736266Y-78542147D01*
X200778996Y-78528967D01*
X200834579Y-78529737D01*
X200891089Y-78543285D01*
X200926434Y-78560813D01*
X200962673Y-78588813D01*
X200989165Y-78620501D01*
X201007351Y-78660765D01*
X201018674Y-78714495D01*
X201024574Y-78786578D01*
X201026495Y-78881903D01*
X201026529Y-78900189D01*
X201026552Y-79105598D01*
X200980843Y-79121532D01*
X200948379Y-79132372D01*
X200930567Y-79137420D01*
X200930043Y-79137466D01*
X200928289Y-79123780D01*
X200926796Y-79086028D01*
X200925678Y-79029176D01*
X200925049Y-78958186D01*
X200924952Y-78915025D01*
X200924750Y-78829925D01*
X200923710Y-78768933D01*
X200921183Y-78727129D01*
X200916516Y-78699594D01*
X200909059Y-78681408D01*
X200898163Y-78667650D01*
X200891359Y-78661025D01*
X200844624Y-78634327D01*
X200793624Y-78632327D01*
X200747353Y-78654907D01*
X200738796Y-78663059D01*
X200726245Y-78678388D01*
X200717540Y-78696570D01*
X200711983Y-78722861D01*
X200708878Y-78762514D01*
X200707528Y-78820784D01*
X200707238Y-78901125D01*
X200707238Y-79105598D01*
X200661529Y-79121532D01*
X200629065Y-79132372D01*
X200611253Y-79137420D01*
X200610729Y-79137466D01*
X200609389Y-79123575D01*
X200608180Y-79084391D01*
X200607153Y-79023652D01*
X200606354Y-78945093D01*
X200605833Y-78852450D01*
X200605638Y-78749461D01*
X200605638Y-78352294D01*
X200652809Y-78332396D01*
X200699981Y-78312499D01*
X200707238Y-78434241D01*
G37*
D12*
X200707238Y-78434241D02*
X200711491Y-78493565D01*
X200716377Y-78528524D01*
X200723147Y-78543772D01*
X200733054Y-78543967D01*
X200736266Y-78542147D01*
X200778996Y-78528967D01*
X200834579Y-78529737D01*
X200891089Y-78543285D01*
X200926434Y-78560813D01*
X200962673Y-78588813D01*
X200989165Y-78620501D01*
X201007351Y-78660765D01*
X201018674Y-78714495D01*
X201024574Y-78786578D01*
X201026495Y-78881903D01*
X201026529Y-78900189D01*
X201026552Y-79105598D01*
X200980843Y-79121532D01*
X200948379Y-79132372D01*
X200930567Y-79137420D01*
X200930043Y-79137466D01*
X200928289Y-79123780D01*
X200926796Y-79086028D01*
X200925678Y-79029176D01*
X200925049Y-78958186D01*
X200924952Y-78915025D01*
X200924750Y-78829925D01*
X200923710Y-78768933D01*
X200921183Y-78727129D01*
X200916516Y-78699594D01*
X200909059Y-78681408D01*
X200898163Y-78667650D01*
X200891359Y-78661025D01*
X200844624Y-78634327D01*
X200793624Y-78632327D01*
X200747353Y-78654907D01*
X200738796Y-78663059D01*
X200726245Y-78678388D01*
X200717540Y-78696570D01*
X200711983Y-78722861D01*
X200708878Y-78762514D01*
X200707528Y-78820784D01*
X200707238Y-78901125D01*
X200707238Y-79105598D01*
X200661529Y-79121532D01*
X200629065Y-79132372D01*
X200611253Y-79137420D01*
X200610729Y-79137466D01*
X200609389Y-79123575D01*
X200608180Y-79084391D01*
X200607153Y-79023652D01*
X200606354Y-78945093D01*
X200605833Y-78852450D01*
X200605638Y-78749461D01*
X200605638Y-78352294D01*
X200652809Y-78332396D01*
X200699981Y-78312499D01*
X200707238Y-78434241D01*
G36*
X202116078Y-78673038D02*
G01*
X202138487Y-78621552D01*
X202173476Y-78581395D01*
X202200727Y-78560813D01*
X202250259Y-78538577D01*
X202307668Y-78528256D01*
X202361034Y-78531019D01*
X202390895Y-78542164D01*
X202402613Y-78545335D01*
X202410389Y-78533509D01*
X202415817Y-78501818D01*
X202419923Y-78453545D01*
X202424419Y-78399781D01*
X202430665Y-78367434D01*
X202442028Y-78348937D01*
X202461880Y-78336722D01*
X202474352Y-78331314D01*
X202521523Y-78311553D01*
X202521469Y-78648310D01*
X202521285Y-78756789D01*
X202520571Y-78840239D01*
X202519027Y-78902656D01*
X202516353Y-78948037D01*
X202512246Y-78980381D01*
X202506407Y-79003685D01*
X202498534Y-79021947D01*
X202492573Y-79032370D01*
X202443207Y-79088897D01*
X202380616Y-79124329D01*
X202311365Y-79137042D01*
X202242020Y-79125415D01*
X202200727Y-79104520D01*
X202157377Y-79068374D01*
X202127833Y-79024228D01*
X202110007Y-78966414D01*
X202101815Y-78889265D01*
X202100654Y-78832666D01*
X202100810Y-78828599D01*
X202202209Y-78828599D01*
X202202828Y-78893502D01*
X202205666Y-78936466D01*
X202212192Y-78964574D01*
X202223875Y-78984905D01*
X202237835Y-79000240D01*
X202284717Y-79029842D01*
X202335053Y-79032371D01*
X202382628Y-79007657D01*
X202386331Y-79004308D01*
X202402135Y-78986887D01*
X202412045Y-78966161D01*
X202417410Y-78935314D01*
X202419580Y-78887529D01*
X202419923Y-78834700D01*
X202419179Y-78768333D01*
X202416100Y-78724058D01*
X202409413Y-78694961D01*
X202397848Y-78674125D01*
X202388365Y-78663059D01*
X202344312Y-78635150D01*
X202293576Y-78631795D01*
X202245148Y-78653111D01*
X202235802Y-78661025D01*
X202219892Y-78678599D01*
X202209962Y-78699539D01*
X202204630Y-78730734D01*
X202202515Y-78779074D01*
X202202209Y-78828599D01*
X202100810Y-78828599D01*
X202104162Y-78741520D01*
X202116078Y-78673038D01*
G37*
X202116078Y-78673038D02*
X202138487Y-78621552D01*
X202173476Y-78581395D01*
X202200727Y-78560813D01*
X202250259Y-78538577D01*
X202307668Y-78528256D01*
X202361034Y-78531019D01*
X202390895Y-78542164D01*
X202402613Y-78545335D01*
X202410389Y-78533509D01*
X202415817Y-78501818D01*
X202419923Y-78453545D01*
X202424419Y-78399781D01*
X202430665Y-78367434D01*
X202442028Y-78348937D01*
X202461880Y-78336722D01*
X202474352Y-78331314D01*
X202521523Y-78311553D01*
X202521469Y-78648310D01*
X202521285Y-78756789D01*
X202520571Y-78840239D01*
X202519027Y-78902656D01*
X202516353Y-78948037D01*
X202512246Y-78980381D01*
X202506407Y-79003685D01*
X202498534Y-79021947D01*
X202492573Y-79032370D01*
X202443207Y-79088897D01*
X202380616Y-79124329D01*
X202311365Y-79137042D01*
X202242020Y-79125415D01*
X202200727Y-79104520D01*
X202157377Y-79068374D01*
X202127833Y-79024228D01*
X202110007Y-78966414D01*
X202101815Y-78889265D01*
X202100654Y-78832666D01*
X202100810Y-78828599D01*
X202202209Y-78828599D01*
X202202828Y-78893502D01*
X202205666Y-78936466D01*
X202212192Y-78964574D01*
X202223875Y-78984905D01*
X202237835Y-79000240D01*
X202284717Y-79029842D01*
X202335053Y-79032371D01*
X202382628Y-79007657D01*
X202386331Y-79004308D01*
X202402135Y-78986887D01*
X202412045Y-78966161D01*
X202417410Y-78935314D01*
X202419580Y-78887529D01*
X202419923Y-78834700D01*
X202419179Y-78768333D01*
X202416100Y-78724058D01*
X202409413Y-78694961D01*
X202397848Y-78674125D01*
X202388365Y-78663059D01*
X202344312Y-78635150D01*
X202293576Y-78631795D01*
X202245148Y-78653111D01*
X202235802Y-78661025D01*
X202219892Y-78678599D01*
X202209962Y-78699539D01*
X202204630Y-78730734D01*
X202202515Y-78779074D01*
X202202209Y-78828599D01*
X202100810Y-78828599D01*
X202104162Y-78741520D01*
X202116078Y-78673038D01*
G36*
X203111185Y-78541615D02*
G01*
X203113400Y-78579802D01*
X203115136Y-78637838D01*
X203116251Y-78711132D01*
X203116609Y-78788007D01*
X203116609Y-79048148D01*
X203070678Y-79094079D01*
X203039027Y-79122381D01*
X203011242Y-79133845D01*
X202973267Y-79133120D01*
X202958192Y-79131273D01*
X202911078Y-79125900D01*
X202872108Y-79122821D01*
X202862609Y-79122537D01*
X202830585Y-79124397D01*
X202784784Y-79129066D01*
X202767026Y-79131273D01*
X202723409Y-79134687D01*
X202694097Y-79127272D01*
X202665032Y-79104379D01*
X202654540Y-79094079D01*
X202608609Y-79048148D01*
X202608609Y-78561554D01*
X202645578Y-78544710D01*
X202677411Y-78532234D01*
X202696035Y-78527866D01*
X202700810Y-78541670D01*
X202705273Y-78580238D01*
X202709127Y-78639308D01*
X202712074Y-78714615D01*
X202713495Y-78778238D01*
X202717466Y-79028609D01*
X202752111Y-79033508D01*
X202783620Y-79030083D01*
X202799060Y-79018993D01*
X202803375Y-78998260D01*
X202807060Y-78954097D01*
X202809821Y-78892098D01*
X202811364Y-78817861D01*
X202811587Y-78779658D01*
X202811809Y-78559735D01*
X202857518Y-78543801D01*
X202889870Y-78532967D01*
X202907467Y-78527914D01*
X202907975Y-78527866D01*
X202909740Y-78541600D01*
X202911681Y-78579682D01*
X202913634Y-78637434D01*
X202915436Y-78710179D01*
X202916695Y-78778238D01*
X202920666Y-79028609D01*
X203007752Y-79028609D01*
X203011748Y-78800192D01*
X203015744Y-78571774D01*
X203058199Y-78549820D01*
X203089544Y-78534745D01*
X203108096Y-78527903D01*
X203108631Y-78527866D01*
X203111185Y-78541615D01*
G37*
X203111185Y-78541615D02*
X203113400Y-78579802D01*
X203115136Y-78637838D01*
X203116251Y-78711132D01*
X203116609Y-78788007D01*
X203116609Y-79048148D01*
X203070678Y-79094079D01*
X203039027Y-79122381D01*
X203011242Y-79133845D01*
X202973267Y-79133120D01*
X202958192Y-79131273D01*
X202911078Y-79125900D01*
X202872108Y-79122821D01*
X202862609Y-79122537D01*
X202830585Y-79124397D01*
X202784784Y-79129066D01*
X202767026Y-79131273D01*
X202723409Y-79134687D01*
X202694097Y-79127272D01*
X202665032Y-79104379D01*
X202654540Y-79094079D01*
X202608609Y-79048148D01*
X202608609Y-78561554D01*
X202645578Y-78544710D01*
X202677411Y-78532234D01*
X202696035Y-78527866D01*
X202700810Y-78541670D01*
X202705273Y-78580238D01*
X202709127Y-78639308D01*
X202712074Y-78714615D01*
X202713495Y-78778238D01*
X202717466Y-79028609D01*
X202752111Y-79033508D01*
X202783620Y-79030083D01*
X202799060Y-79018993D01*
X202803375Y-78998260D01*
X202807060Y-78954097D01*
X202809821Y-78892098D01*
X202811364Y-78817861D01*
X202811587Y-78779658D01*
X202811809Y-78559735D01*
X202857518Y-78543801D01*
X202889870Y-78532967D01*
X202907467Y-78527914D01*
X202907975Y-78527866D01*
X202909740Y-78541600D01*
X202911681Y-78579682D01*
X202913634Y-78637434D01*
X202915436Y-78710179D01*
X202916695Y-78778238D01*
X202920666Y-79028609D01*
X203007752Y-79028609D01*
X203011748Y-78800192D01*
X203015744Y-78571774D01*
X203058199Y-78549820D01*
X203089544Y-78534745D01*
X203108096Y-78527903D01*
X203108631Y-78527866D01*
X203111185Y-78541615D01*
G36*
X203983952Y-78541704D02*
G01*
X204001300Y-78549286D01*
X204042708Y-78582080D01*
X204078117Y-78629499D01*
X204100016Y-78680103D01*
X204103581Y-78705050D01*
X204091631Y-78739879D01*
X204065419Y-78758309D01*
X204037316Y-78769468D01*
X204024447Y-78771524D01*
X204018181Y-78756601D01*
X204005808Y-78724127D01*
X204000380Y-78709454D01*
X203969942Y-78658696D01*
X203925872Y-78633379D01*
X203869362Y-78634158D01*
X203865177Y-78635155D01*
X203835007Y-78649459D01*
X203812828Y-78677345D01*
X203797679Y-78722239D01*
X203788602Y-78787567D01*
X203784638Y-78876756D01*
X203784266Y-78924213D01*
X203784082Y-78999023D01*
X203782874Y-79050021D01*
X203779661Y-79082423D01*
X203773461Y-79101447D01*
X203763292Y-79112308D01*
X203748171Y-79120224D01*
X203747298Y-79120622D01*
X203718180Y-79132933D01*
X203703755Y-79137466D01*
X203701538Y-79123761D01*
X203699641Y-79085877D01*
X203698199Y-79028667D01*
X203697350Y-78956979D01*
X203697181Y-78904517D01*
X203698044Y-78802999D01*
X203701422Y-78725984D01*
X203708494Y-78668975D01*
X203720440Y-78627478D01*
X203738442Y-78596995D01*
X203763679Y-78573032D01*
X203788599Y-78556307D01*
X203848523Y-78534049D01*
X203918263Y-78529028D01*
X203983952Y-78541704D01*
G37*
X203983952Y-78541704D02*
X204001300Y-78549286D01*
X204042708Y-78582080D01*
X204078117Y-78629499D01*
X204100016Y-78680103D01*
X204103581Y-78705050D01*
X204091631Y-78739879D01*
X204065419Y-78758309D01*
X204037316Y-78769468D01*
X204024447Y-78771524D01*
X204018181Y-78756601D01*
X204005808Y-78724127D01*
X204000380Y-78709454D01*
X203969942Y-78658696D01*
X203925872Y-78633379D01*
X203869362Y-78634158D01*
X203865177Y-78635155D01*
X203835007Y-78649459D01*
X203812828Y-78677345D01*
X203797679Y-78722239D01*
X203788602Y-78787567D01*
X203784638Y-78876756D01*
X203784266Y-78924213D01*
X203784082Y-78999023D01*
X203782874Y-79050021D01*
X203779661Y-79082423D01*
X203773461Y-79101447D01*
X203763292Y-79112308D01*
X203748171Y-79120224D01*
X203747298Y-79120622D01*
X203718180Y-79132933D01*
X203703755Y-79137466D01*
X203701538Y-79123761D01*
X203699641Y-79085877D01*
X203698199Y-79028667D01*
X203697350Y-78956979D01*
X203697181Y-78904517D01*
X203698044Y-78802999D01*
X203701422Y-78725984D01*
X203708494Y-78668975D01*
X203720440Y-78627478D01*
X203738442Y-78596995D01*
X203763679Y-78573032D01*
X203788599Y-78556307D01*
X203848523Y-78534049D01*
X203918263Y-78529028D01*
X203983952Y-78541704D01*
G36*
X200047445Y-78510732D02*
G01*
X200094024Y-78537675D01*
X200126409Y-78564418D01*
X200150094Y-78592436D01*
X200166411Y-78626700D01*
X200176691Y-78672179D01*
X200182266Y-78733844D01*
X200184468Y-78816663D01*
X200184723Y-78876198D01*
X200184723Y-79095343D01*
X200123038Y-79122996D01*
X200061352Y-79150649D01*
X200054095Y-78910622D01*
X200051096Y-78820980D01*
X200047950Y-78755914D01*
X200044053Y-78710978D01*
X200038799Y-78681722D01*
X200031583Y-78663700D01*
X200021802Y-78652463D01*
X200018664Y-78650031D01*
X199971113Y-78631035D01*
X199923049Y-78638552D01*
X199894438Y-78658495D01*
X199882799Y-78672627D01*
X199874743Y-78691172D01*
X199869623Y-78719286D01*
X199866793Y-78762125D01*
X199865608Y-78824847D01*
X199865409Y-78890213D01*
X199865370Y-78972220D01*
X199863966Y-79030268D01*
X199859266Y-79069417D01*
X199849339Y-79094732D01*
X199832255Y-79111275D01*
X199806084Y-79124108D01*
X199771127Y-79137443D01*
X199732948Y-79151959D01*
X199737493Y-78894341D01*
X199739323Y-78801471D01*
X199741464Y-78732841D01*
X199744533Y-78683663D01*
X199749146Y-78649150D01*
X199755920Y-78624514D01*
X199765471Y-78604968D01*
X199776986Y-78587722D01*
X199832542Y-78532632D01*
X199900332Y-78500774D01*
X199974065Y-78493143D01*
X200047445Y-78510732D01*
G37*
X200047445Y-78510732D02*
X200094024Y-78537675D01*
X200126409Y-78564418D01*
X200150094Y-78592436D01*
X200166411Y-78626700D01*
X200176691Y-78672179D01*
X200182266Y-78733844D01*
X200184468Y-78816663D01*
X200184723Y-78876198D01*
X200184723Y-79095343D01*
X200123038Y-79122996D01*
X200061352Y-79150649D01*
X200054095Y-78910622D01*
X200051096Y-78820980D01*
X200047950Y-78755914D01*
X200044053Y-78710978D01*
X200038799Y-78681722D01*
X200031583Y-78663700D01*
X200021802Y-78652463D01*
X200018664Y-78650031D01*
X199971113Y-78631035D01*
X199923049Y-78638552D01*
X199894438Y-78658495D01*
X199882799Y-78672627D01*
X199874743Y-78691172D01*
X199869623Y-78719286D01*
X199866793Y-78762125D01*
X199865608Y-78824847D01*
X199865409Y-78890213D01*
X199865370Y-78972220D01*
X199863966Y-79030268D01*
X199859266Y-79069417D01*
X199849339Y-79094732D01*
X199832255Y-79111275D01*
X199806084Y-79124108D01*
X199771127Y-79137443D01*
X199732948Y-79151959D01*
X199737493Y-78894341D01*
X199739323Y-78801471D01*
X199741464Y-78732841D01*
X199744533Y-78683663D01*
X199749146Y-78649150D01*
X199755920Y-78624514D01*
X199765471Y-78604968D01*
X199776986Y-78587722D01*
X199832542Y-78532632D01*
X199900332Y-78500774D01*
X199974065Y-78493143D01*
X200047445Y-78510732D01*
G36*
X201435262Y-73825300D02*
G01*
X201513806Y-73825730D01*
X201570650Y-73826894D01*
X201609457Y-73829159D01*
X201633890Y-73832892D01*
X201647614Y-73838458D01*
X201654292Y-73846225D01*
X201657588Y-73856557D01*
X201657908Y-73857895D01*
X201662914Y-73882031D01*
X201672181Y-73929653D01*
X201684744Y-73995693D01*
X201699639Y-74075080D01*
X201715903Y-74162748D01*
X201716471Y-74165827D01*
X201732762Y-74251741D01*
X201748004Y-74327648D01*
X201761213Y-74388997D01*
X201771406Y-74431234D01*
X201777600Y-74449807D01*
X201777895Y-74450136D01*
X201796140Y-74459205D01*
X201833757Y-74474319D01*
X201882623Y-74492214D01*
X201882895Y-74492310D01*
X201944445Y-74515445D01*
X202017009Y-74544917D01*
X202085409Y-74574549D01*
X202088646Y-74576014D01*
X202200054Y-74626578D01*
X202446751Y-74458112D01*
X202522429Y-74406755D01*
X202590983Y-74360841D01*
X202648440Y-74322982D01*
X202690828Y-74295789D01*
X202714177Y-74281873D01*
X202716394Y-74280841D01*
X202733362Y-74285436D01*
X202765053Y-74307607D01*
X202812704Y-74348399D01*
X202877550Y-74408857D01*
X202943749Y-74473179D01*
X203007566Y-74536564D01*
X203064681Y-74594403D01*
X203111657Y-74643127D01*
X203145055Y-74679162D01*
X203161437Y-74698936D01*
X203162046Y-74699954D01*
X203163857Y-74713524D01*
X203157035Y-74735685D01*
X203139892Y-74769430D01*
X203110745Y-74817752D01*
X203067907Y-74883644D01*
X203010800Y-74968469D01*
X202960118Y-75043129D01*
X202914813Y-75110092D01*
X202877502Y-75165468D01*
X202850804Y-75205372D01*
X202837337Y-75225914D01*
X202836489Y-75227308D01*
X202838133Y-75246990D01*
X202850597Y-75285245D01*
X202871400Y-75334841D01*
X202878814Y-75350680D01*
X202911166Y-75421242D01*
X202945680Y-75501305D01*
X202973717Y-75570581D01*
X202993920Y-75621997D01*
X203009967Y-75661071D01*
X203019240Y-75681493D01*
X203020393Y-75683066D01*
X203037448Y-75685673D01*
X203077650Y-75692815D01*
X203135654Y-75703475D01*
X203206115Y-75716637D01*
X203283687Y-75731285D01*
X203363024Y-75746401D01*
X203438783Y-75760970D01*
X203505616Y-75773974D01*
X203558180Y-75784397D01*
X203591128Y-75791222D01*
X203599209Y-75793151D01*
X203607557Y-75797914D01*
X203613858Y-75808670D01*
X203618397Y-75829050D01*
X203621456Y-75862686D01*
X203623319Y-75913207D01*
X203624270Y-75984244D01*
X203624592Y-76079428D01*
X203624609Y-76118444D01*
X203624609Y-76435751D01*
X203548409Y-76450791D01*
X203506015Y-76458947D01*
X203442752Y-76470851D01*
X203366314Y-76485068D01*
X203284395Y-76500162D01*
X203261752Y-76504307D01*
X203186158Y-76519005D01*
X203120305Y-76533457D01*
X203069718Y-76546327D01*
X203039926Y-76556274D01*
X203034964Y-76559239D01*
X203022778Y-76580235D01*
X203005305Y-76620919D01*
X202985929Y-76673274D01*
X202982086Y-76684552D01*
X202956691Y-76754475D01*
X202925169Y-76833370D01*
X202894321Y-76904218D01*
X202894169Y-76904547D01*
X202842799Y-77015685D01*
X203011751Y-77264205D01*
X203180704Y-77512724D01*
X202963781Y-77730010D01*
X202898171Y-77794678D01*
X202838331Y-77851685D01*
X202787619Y-77897985D01*
X202749398Y-77930536D01*
X202727027Y-77946295D01*
X202723818Y-77947295D01*
X202704978Y-77939421D01*
X202666532Y-77917530D01*
X202612682Y-77884219D01*
X202547628Y-77842083D01*
X202477292Y-77794895D01*
X202405907Y-77746762D01*
X202342260Y-77704880D01*
X202290393Y-77671823D01*
X202254347Y-77650170D01*
X202238219Y-77642495D01*
X202218541Y-77648989D01*
X202181227Y-77666102D01*
X202133973Y-77690278D01*
X202128964Y-77692965D01*
X202065329Y-77724879D01*
X202021693Y-77740531D01*
X201994554Y-77740697D01*
X201980409Y-77726156D01*
X201980327Y-77725952D01*
X201973257Y-77708731D01*
X201956394Y-77667851D01*
X201931047Y-77606477D01*
X201898523Y-77527771D01*
X201860130Y-77434899D01*
X201817174Y-77331024D01*
X201775574Y-77230454D01*
X201729856Y-77119468D01*
X201687878Y-77016655D01*
X201650900Y-76925167D01*
X201620179Y-76848153D01*
X201596974Y-76788767D01*
X201582542Y-76750161D01*
X201578095Y-76735752D01*
X201589248Y-76719224D01*
X201618421Y-76692882D01*
X201657323Y-76663839D01*
X201768109Y-76571991D01*
X201854703Y-76466711D01*
X201916068Y-76350218D01*
X201951167Y-76224728D01*
X201958960Y-76092459D01*
X201953295Y-76031409D01*
X201922430Y-75904747D01*
X201869272Y-75792893D01*
X201797119Y-75696953D01*
X201709269Y-75618028D01*
X201609017Y-75557222D01*
X201499662Y-75515639D01*
X201384499Y-75494380D01*
X201266827Y-75494551D01*
X201149942Y-75517253D01*
X201037141Y-75563590D01*
X200931721Y-75634665D01*
X200887720Y-75674863D01*
X200803331Y-75778081D01*
X200744574Y-75890877D01*
X200711056Y-76009962D01*
X200702387Y-76132047D01*
X200718175Y-76253845D01*
X200758030Y-76372068D01*
X200821559Y-76483427D01*
X200908373Y-76584636D01*
X201005381Y-76663839D01*
X201045789Y-76694114D01*
X201074334Y-76720171D01*
X201084609Y-76735777D01*
X201079229Y-76752795D01*
X201063927Y-76793452D01*
X201039964Y-76854594D01*
X201008596Y-76933071D01*
X200971084Y-77025732D01*
X200928685Y-77129424D01*
X200887015Y-77230478D01*
X200841042Y-77341559D01*
X200798459Y-77444493D01*
X200760573Y-77536117D01*
X200728692Y-77613268D01*
X200704123Y-77672783D01*
X200688172Y-77711496D01*
X200682262Y-77725952D01*
X200668300Y-77740637D01*
X200641292Y-77740594D01*
X200597765Y-77725051D01*
X200534242Y-77693236D01*
X200533740Y-77692965D01*
X200485912Y-77668275D01*
X200447249Y-77650290D01*
X200425447Y-77642566D01*
X200424485Y-77642495D01*
X200408073Y-77650330D01*
X200371839Y-77672117D01*
X200319826Y-77705280D01*
X200256077Y-77747243D01*
X200185412Y-77794895D01*
X200113468Y-77843143D01*
X200048626Y-77885103D01*
X199995087Y-77918179D01*
X199957049Y-77939773D01*
X199938885Y-77947295D01*
X199922160Y-77937409D01*
X199888532Y-77909778D01*
X199841362Y-77867447D01*
X199784010Y-77813457D01*
X199719836Y-77750851D01*
X199698849Y-77729935D01*
X199481851Y-77512575D01*
X199647020Y-77270172D01*
X199697216Y-77195733D01*
X199741271Y-77128924D01*
X199776714Y-77073617D01*
X199801071Y-77033681D01*
X199811874Y-77012988D01*
X199812190Y-77011515D01*
X199806495Y-76992010D01*
X199791178Y-76952774D01*
X199768889Y-76900382D01*
X199753245Y-76865307D01*
X199723993Y-76798153D01*
X199696446Y-76730310D01*
X199675089Y-76672986D01*
X199669287Y-76655524D01*
X199652804Y-76608890D01*
X199636692Y-76572857D01*
X199627842Y-76559239D01*
X199608312Y-76550904D01*
X199565686Y-76539089D01*
X199505497Y-76525133D01*
X199433274Y-76510374D01*
X199400952Y-76504307D01*
X199318874Y-76489225D01*
X199240147Y-76474621D01*
X199172461Y-76461932D01*
X199123512Y-76452594D01*
X199114295Y-76450791D01*
X199038095Y-76435751D01*
X199038095Y-76118444D01*
X199038266Y-76014106D01*
X199038968Y-75935165D01*
X199040486Y-75877990D01*
X199043101Y-75838951D01*
X199047098Y-75814417D01*
X199052761Y-75800757D01*
X199060372Y-75794341D01*
X199063495Y-75793151D01*
X199082330Y-75788932D01*
X199123940Y-75780514D01*
X199182982Y-75768913D01*
X199254109Y-75755147D01*
X199331977Y-75740232D01*
X199411239Y-75725184D01*
X199486550Y-75711021D01*
X199552565Y-75698758D01*
X199603939Y-75689413D01*
X199635327Y-75684002D01*
X199642311Y-75683066D01*
X199648637Y-75670548D01*
X199662642Y-75637198D01*
X199681707Y-75589329D01*
X199688986Y-75570581D01*
X199718348Y-75498147D01*
X199752923Y-75418122D01*
X199783889Y-75350680D01*
X199806675Y-75299111D01*
X199821834Y-75256737D01*
X199826894Y-75230786D01*
X199826088Y-75227308D01*
X199815393Y-75210888D01*
X199790972Y-75174369D01*
X199755447Y-75121639D01*
X199711439Y-75056587D01*
X199661569Y-74983103D01*
X199651708Y-74968597D01*
X199593844Y-74882656D01*
X199551308Y-74817213D01*
X199522406Y-74769256D01*
X199505442Y-74735772D01*
X199498719Y-74713747D01*
X199500542Y-74700169D01*
X199500588Y-74700083D01*
X199514938Y-74682249D01*
X199546675Y-74647769D01*
X199592362Y-74600220D01*
X199648556Y-74543174D01*
X199711820Y-74480207D01*
X199718954Y-74473179D01*
X199798682Y-74395972D01*
X199860209Y-74339282D01*
X199904773Y-74302062D01*
X199933609Y-74283267D01*
X199946310Y-74280841D01*
X199964846Y-74291423D01*
X200003313Y-74315868D01*
X200057738Y-74351564D01*
X200124150Y-74395899D01*
X200198577Y-74446263D01*
X200215953Y-74458112D01*
X200462649Y-74626578D01*
X200574058Y-74576014D01*
X200641809Y-74546547D01*
X200714535Y-74516911D01*
X200777055Y-74493282D01*
X200779809Y-74492310D01*
X200828712Y-74474409D01*
X200866409Y-74459272D01*
X200884777Y-74450162D01*
X200884808Y-74450136D01*
X200890637Y-74433669D01*
X200900544Y-74393171D01*
X200913547Y-74333194D01*
X200928661Y-74258292D01*
X200944904Y-74173016D01*
X200946233Y-74165827D01*
X200962527Y-74077966D01*
X200977485Y-73998212D01*
X200990143Y-73931633D01*
X200999538Y-73883299D01*
X201004706Y-73858277D01*
X201004796Y-73857895D01*
X201007941Y-73847251D01*
X201014056Y-73839214D01*
X201026805Y-73833419D01*
X201049852Y-73829499D01*
X201086861Y-73827087D01*
X201141496Y-73825817D01*
X201217419Y-73825323D01*
X201318296Y-73825238D01*
X201331352Y-73825238D01*
X201435262Y-73825300D01*
G37*
X201435262Y-73825300D02*
X201513806Y-73825730D01*
X201570650Y-73826894D01*
X201609457Y-73829159D01*
X201633890Y-73832892D01*
X201647614Y-73838458D01*
X201654292Y-73846225D01*
X201657588Y-73856557D01*
X201657908Y-73857895D01*
X201662914Y-73882031D01*
X201672181Y-73929653D01*
X201684744Y-73995693D01*
X201699639Y-74075080D01*
X201715903Y-74162748D01*
X201716471Y-74165827D01*
X201732762Y-74251741D01*
X201748004Y-74327648D01*
X201761213Y-74388997D01*
X201771406Y-74431234D01*
X201777600Y-74449807D01*
X201777895Y-74450136D01*
X201796140Y-74459205D01*
X201833757Y-74474319D01*
X201882623Y-74492214D01*
X201882895Y-74492310D01*
X201944445Y-74515445D01*
X202017009Y-74544917D01*
X202085409Y-74574549D01*
X202088646Y-74576014D01*
X202200054Y-74626578D01*
X202446751Y-74458112D01*
X202522429Y-74406755D01*
X202590983Y-74360841D01*
X202648440Y-74322982D01*
X202690828Y-74295789D01*
X202714177Y-74281873D01*
X202716394Y-74280841D01*
X202733362Y-74285436D01*
X202765053Y-74307607D01*
X202812704Y-74348399D01*
X202877550Y-74408857D01*
X202943749Y-74473179D01*
X203007566Y-74536564D01*
X203064681Y-74594403D01*
X203111657Y-74643127D01*
X203145055Y-74679162D01*
X203161437Y-74698936D01*
X203162046Y-74699954D01*
X203163857Y-74713524D01*
X203157035Y-74735685D01*
X203139892Y-74769430D01*
X203110745Y-74817752D01*
X203067907Y-74883644D01*
X203010800Y-74968469D01*
X202960118Y-75043129D01*
X202914813Y-75110092D01*
X202877502Y-75165468D01*
X202850804Y-75205372D01*
X202837337Y-75225914D01*
X202836489Y-75227308D01*
X202838133Y-75246990D01*
X202850597Y-75285245D01*
X202871400Y-75334841D01*
X202878814Y-75350680D01*
X202911166Y-75421242D01*
X202945680Y-75501305D01*
X202973717Y-75570581D01*
X202993920Y-75621997D01*
X203009967Y-75661071D01*
X203019240Y-75681493D01*
X203020393Y-75683066D01*
X203037448Y-75685673D01*
X203077650Y-75692815D01*
X203135654Y-75703475D01*
X203206115Y-75716637D01*
X203283687Y-75731285D01*
X203363024Y-75746401D01*
X203438783Y-75760970D01*
X203505616Y-75773974D01*
X203558180Y-75784397D01*
X203591128Y-75791222D01*
X203599209Y-75793151D01*
X203607557Y-75797914D01*
X203613858Y-75808670D01*
X203618397Y-75829050D01*
X203621456Y-75862686D01*
X203623319Y-75913207D01*
X203624270Y-75984244D01*
X203624592Y-76079428D01*
X203624609Y-76118444D01*
X203624609Y-76435751D01*
X203548409Y-76450791D01*
X203506015Y-76458947D01*
X203442752Y-76470851D01*
X203366314Y-76485068D01*
X203284395Y-76500162D01*
X203261752Y-76504307D01*
X203186158Y-76519005D01*
X203120305Y-76533457D01*
X203069718Y-76546327D01*
X203039926Y-76556274D01*
X203034964Y-76559239D01*
X203022778Y-76580235D01*
X203005305Y-76620919D01*
X202985929Y-76673274D01*
X202982086Y-76684552D01*
X202956691Y-76754475D01*
X202925169Y-76833370D01*
X202894321Y-76904218D01*
X202894169Y-76904547D01*
X202842799Y-77015685D01*
X203011751Y-77264205D01*
X203180704Y-77512724D01*
X202963781Y-77730010D01*
X202898171Y-77794678D01*
X202838331Y-77851685D01*
X202787619Y-77897985D01*
X202749398Y-77930536D01*
X202727027Y-77946295D01*
X202723818Y-77947295D01*
X202704978Y-77939421D01*
X202666532Y-77917530D01*
X202612682Y-77884219D01*
X202547628Y-77842083D01*
X202477292Y-77794895D01*
X202405907Y-77746762D01*
X202342260Y-77704880D01*
X202290393Y-77671823D01*
X202254347Y-77650170D01*
X202238219Y-77642495D01*
X202218541Y-77648989D01*
X202181227Y-77666102D01*
X202133973Y-77690278D01*
X202128964Y-77692965D01*
X202065329Y-77724879D01*
X202021693Y-77740531D01*
X201994554Y-77740697D01*
X201980409Y-77726156D01*
X201980327Y-77725952D01*
X201973257Y-77708731D01*
X201956394Y-77667851D01*
X201931047Y-77606477D01*
X201898523Y-77527771D01*
X201860130Y-77434899D01*
X201817174Y-77331024D01*
X201775574Y-77230454D01*
X201729856Y-77119468D01*
X201687878Y-77016655D01*
X201650900Y-76925167D01*
X201620179Y-76848153D01*
X201596974Y-76788767D01*
X201582542Y-76750161D01*
X201578095Y-76735752D01*
X201589248Y-76719224D01*
X201618421Y-76692882D01*
X201657323Y-76663839D01*
X201768109Y-76571991D01*
X201854703Y-76466711D01*
X201916068Y-76350218D01*
X201951167Y-76224728D01*
X201958960Y-76092459D01*
X201953295Y-76031409D01*
X201922430Y-75904747D01*
X201869272Y-75792893D01*
X201797119Y-75696953D01*
X201709269Y-75618028D01*
X201609017Y-75557222D01*
X201499662Y-75515639D01*
X201384499Y-75494380D01*
X201266827Y-75494551D01*
X201149942Y-75517253D01*
X201037141Y-75563590D01*
X200931721Y-75634665D01*
X200887720Y-75674863D01*
X200803331Y-75778081D01*
X200744574Y-75890877D01*
X200711056Y-76009962D01*
X200702387Y-76132047D01*
X200718175Y-76253845D01*
X200758030Y-76372068D01*
X200821559Y-76483427D01*
X200908373Y-76584636D01*
X201005381Y-76663839D01*
X201045789Y-76694114D01*
X201074334Y-76720171D01*
X201084609Y-76735777D01*
X201079229Y-76752795D01*
X201063927Y-76793452D01*
X201039964Y-76854594D01*
X201008596Y-76933071D01*
X200971084Y-77025732D01*
X200928685Y-77129424D01*
X200887015Y-77230478D01*
X200841042Y-77341559D01*
X200798459Y-77444493D01*
X200760573Y-77536117D01*
X200728692Y-77613268D01*
X200704123Y-77672783D01*
X200688172Y-77711496D01*
X200682262Y-77725952D01*
X200668300Y-77740637D01*
X200641292Y-77740594D01*
X200597765Y-77725051D01*
X200534242Y-77693236D01*
X200533740Y-77692965D01*
X200485912Y-77668275D01*
X200447249Y-77650290D01*
X200425447Y-77642566D01*
X200424485Y-77642495D01*
X200408073Y-77650330D01*
X200371839Y-77672117D01*
X200319826Y-77705280D01*
X200256077Y-77747243D01*
X200185412Y-77794895D01*
X200113468Y-77843143D01*
X200048626Y-77885103D01*
X199995087Y-77918179D01*
X199957049Y-77939773D01*
X199938885Y-77947295D01*
X199922160Y-77937409D01*
X199888532Y-77909778D01*
X199841362Y-77867447D01*
X199784010Y-77813457D01*
X199719836Y-77750851D01*
X199698849Y-77729935D01*
X199481851Y-77512575D01*
X199647020Y-77270172D01*
X199697216Y-77195733D01*
X199741271Y-77128924D01*
X199776714Y-77073617D01*
X199801071Y-77033681D01*
X199811874Y-77012988D01*
X199812190Y-77011515D01*
X199806495Y-76992010D01*
X199791178Y-76952774D01*
X199768889Y-76900382D01*
X199753245Y-76865307D01*
X199723993Y-76798153D01*
X199696446Y-76730310D01*
X199675089Y-76672986D01*
X199669287Y-76655524D01*
X199652804Y-76608890D01*
X199636692Y-76572857D01*
X199627842Y-76559239D01*
X199608312Y-76550904D01*
X199565686Y-76539089D01*
X199505497Y-76525133D01*
X199433274Y-76510374D01*
X199400952Y-76504307D01*
X199318874Y-76489225D01*
X199240147Y-76474621D01*
X199172461Y-76461932D01*
X199123512Y-76452594D01*
X199114295Y-76450791D01*
X199038095Y-76435751D01*
X199038095Y-76118444D01*
X199038266Y-76014106D01*
X199038968Y-75935165D01*
X199040486Y-75877990D01*
X199043101Y-75838951D01*
X199047098Y-75814417D01*
X199052761Y-75800757D01*
X199060372Y-75794341D01*
X199063495Y-75793151D01*
X199082330Y-75788932D01*
X199123940Y-75780514D01*
X199182982Y-75768913D01*
X199254109Y-75755147D01*
X199331977Y-75740232D01*
X199411239Y-75725184D01*
X199486550Y-75711021D01*
X199552565Y-75698758D01*
X199603939Y-75689413D01*
X199635327Y-75684002D01*
X199642311Y-75683066D01*
X199648637Y-75670548D01*
X199662642Y-75637198D01*
X199681707Y-75589329D01*
X199688986Y-75570581D01*
X199718348Y-75498147D01*
X199752923Y-75418122D01*
X199783889Y-75350680D01*
X199806675Y-75299111D01*
X199821834Y-75256737D01*
X199826894Y-75230786D01*
X199826088Y-75227308D01*
X199815393Y-75210888D01*
X199790972Y-75174369D01*
X199755447Y-75121639D01*
X199711439Y-75056587D01*
X199661569Y-74983103D01*
X199651708Y-74968597D01*
X199593844Y-74882656D01*
X199551308Y-74817213D01*
X199522406Y-74769256D01*
X199505442Y-74735772D01*
X199498719Y-74713747D01*
X199500542Y-74700169D01*
X199500588Y-74700083D01*
X199514938Y-74682249D01*
X199546675Y-74647769D01*
X199592362Y-74600220D01*
X199648556Y-74543174D01*
X199711820Y-74480207D01*
X199718954Y-74473179D01*
X199798682Y-74395972D01*
X199860209Y-74339282D01*
X199904773Y-74302062D01*
X199933609Y-74283267D01*
X199946310Y-74280841D01*
X199964846Y-74291423D01*
X200003313Y-74315868D01*
X200057738Y-74351564D01*
X200124150Y-74395899D01*
X200198577Y-74446263D01*
X200215953Y-74458112D01*
X200462649Y-74626578D01*
X200574058Y-74576014D01*
X200641809Y-74546547D01*
X200714535Y-74516911D01*
X200777055Y-74493282D01*
X200779809Y-74492310D01*
X200828712Y-74474409D01*
X200866409Y-74459272D01*
X200884777Y-74450162D01*
X200884808Y-74450136D01*
X200890637Y-74433669D01*
X200900544Y-74393171D01*
X200913547Y-74333194D01*
X200928661Y-74258292D01*
X200944904Y-74173016D01*
X200946233Y-74165827D01*
X200962527Y-74077966D01*
X200977485Y-73998212D01*
X200990143Y-73931633D01*
X200999538Y-73883299D01*
X201004706Y-73858277D01*
X201004796Y-73857895D01*
X201007941Y-73847251D01*
X201014056Y-73839214D01*
X201026805Y-73833419D01*
X201049852Y-73829499D01*
X201086861Y-73827087D01*
X201141496Y-73825817D01*
X201217419Y-73825323D01*
X201318296Y-73825238D01*
X201331352Y-73825238D01*
X201435262Y-73825300D01*
G36*
X203476228Y-78539287D02*
G01*
X203518019Y-78558296D01*
X203550821Y-78581330D01*
X203574855Y-78607085D01*
X203591449Y-78640310D01*
X203601929Y-78685752D01*
X203607623Y-78748159D01*
X203609859Y-78832279D01*
X203610095Y-78887673D01*
X203610095Y-79103778D01*
X203573126Y-79120622D01*
X203544008Y-79132933D01*
X203529583Y-79137466D01*
X203526824Y-79123977D01*
X203524634Y-79087605D01*
X203523294Y-79034494D01*
X203523009Y-78992324D01*
X203521786Y-78931399D01*
X203518488Y-78883067D01*
X203513673Y-78853470D01*
X203509848Y-78847181D01*
X203484135Y-78853604D01*
X203443770Y-78870077D01*
X203397031Y-78892410D01*
X203352197Y-78916409D01*
X203317545Y-78937882D01*
X203301354Y-78952637D01*
X203301290Y-78952797D01*
X203302682Y-78980104D01*
X203315170Y-79006171D01*
X203337095Y-79027344D01*
X203369095Y-79034426D01*
X203396444Y-79033601D01*
X203435178Y-79032994D01*
X203455510Y-79042068D01*
X203467721Y-79066044D01*
X203469261Y-79070565D01*
X203474555Y-79104758D01*
X203460399Y-79125520D01*
X203423500Y-79135414D01*
X203383641Y-79137244D01*
X203311914Y-79123679D01*
X203274784Y-79104307D01*
X203228928Y-79058797D01*
X203204608Y-79002935D01*
X203202425Y-78943909D01*
X203222981Y-78888905D01*
X203253901Y-78854438D01*
X203284772Y-78835141D01*
X203333294Y-78810711D01*
X203389837Y-78785937D01*
X203399262Y-78782151D01*
X203461371Y-78754743D01*
X203497174Y-78730586D01*
X203508689Y-78706571D01*
X203497932Y-78679587D01*
X203479466Y-78658495D01*
X203435821Y-78632524D01*
X203387798Y-78630576D01*
X203343758Y-78650589D01*
X203312061Y-78690503D01*
X203307901Y-78700800D01*
X203283679Y-78738676D01*
X203248317Y-78766794D01*
X203203695Y-78789869D01*
X203203695Y-78724437D01*
X203206321Y-78684458D01*
X203217582Y-78652949D01*
X203242551Y-78619330D01*
X203266521Y-78593436D01*
X203303793Y-78556769D01*
X203332753Y-78537073D01*
X203363857Y-78529172D01*
X203399065Y-78527866D01*
X203476228Y-78539287D01*
G37*
X203476228Y-78539287D02*
X203518019Y-78558296D01*
X203550821Y-78581330D01*
X203574855Y-78607085D01*
X203591449Y-78640310D01*
X203601929Y-78685752D01*
X203607623Y-78748159D01*
X203609859Y-78832279D01*
X203610095Y-78887673D01*
X203610095Y-79103778D01*
X203573126Y-79120622D01*
X203544008Y-79132933D01*
X203529583Y-79137466D01*
X203526824Y-79123977D01*
X203524634Y-79087605D01*
X203523294Y-79034494D01*
X203523009Y-78992324D01*
X203521786Y-78931399D01*
X203518488Y-78883067D01*
X203513673Y-78853470D01*
X203509848Y-78847181D01*
X203484135Y-78853604D01*
X203443770Y-78870077D01*
X203397031Y-78892410D01*
X203352197Y-78916409D01*
X203317545Y-78937882D01*
X203301354Y-78952637D01*
X203301290Y-78952797D01*
X203302682Y-78980104D01*
X203315170Y-79006171D01*
X203337095Y-79027344D01*
X203369095Y-79034426D01*
X203396444Y-79033601D01*
X203435178Y-79032994D01*
X203455510Y-79042068D01*
X203467721Y-79066044D01*
X203469261Y-79070565D01*
X203474555Y-79104758D01*
X203460399Y-79125520D01*
X203423500Y-79135414D01*
X203383641Y-79137244D01*
X203311914Y-79123679D01*
X203274784Y-79104307D01*
X203228928Y-79058797D01*
X203204608Y-79002935D01*
X203202425Y-78943909D01*
X203222981Y-78888905D01*
X203253901Y-78854438D01*
X203284772Y-78835141D01*
X203333294Y-78810711D01*
X203389837Y-78785937D01*
X203399262Y-78782151D01*
X203461371Y-78754743D01*
X203497174Y-78730586D01*
X203508689Y-78706571D01*
X203497932Y-78679587D01*
X203479466Y-78658495D01*
X203435821Y-78632524D01*
X203387798Y-78630576D01*
X203343758Y-78650589D01*
X203312061Y-78690503D01*
X203307901Y-78700800D01*
X203283679Y-78738676D01*
X203248317Y-78766794D01*
X203203695Y-78789869D01*
X203203695Y-78724437D01*
X203206321Y-78684458D01*
X203217582Y-78652949D01*
X203242551Y-78619330D01*
X203266521Y-78593436D01*
X203303793Y-78556769D01*
X203332753Y-78537073D01*
X203363857Y-78529172D01*
X203399065Y-78527866D01*
X203476228Y-78539287D01*
G36*
X199202902Y-78619164D02*
G01*
X199236808Y-78570254D01*
X199298005Y-78520830D01*
X199365415Y-78496311D01*
X199434232Y-78494749D01*
X199499655Y-78514191D01*
X199556879Y-78552687D01*
X199601101Y-78608287D01*
X199627519Y-78679038D01*
X199632862Y-78731114D01*
X199632255Y-78752845D01*
X199627174Y-78769483D01*
X199613207Y-78784389D01*
X199585941Y-78800925D01*
X199540964Y-78822450D01*
X199473863Y-78852326D01*
X199473523Y-78852476D01*
X199411759Y-78880765D01*
X199361111Y-78905885D01*
X199326756Y-78925131D01*
X199313870Y-78935800D01*
X199313866Y-78935886D01*
X199325224Y-78959118D01*
X199351783Y-78984726D01*
X199382275Y-79003173D01*
X199397722Y-79006838D01*
X199439867Y-78994164D01*
X199476160Y-78962423D01*
X199493869Y-78927524D01*
X199510904Y-78901797D01*
X199544274Y-78872498D01*
X199583501Y-78847187D01*
X199618108Y-78833423D01*
X199625345Y-78832666D01*
X199633491Y-78845112D01*
X199633982Y-78876924D01*
X199627995Y-78919818D01*
X199616709Y-78965510D01*
X199601302Y-79005713D01*
X199600523Y-79007274D01*
X199554156Y-79072014D01*
X199494063Y-79116049D01*
X199425817Y-79137663D01*
X199354990Y-79135137D01*
X199287156Y-79106756D01*
X199284140Y-79104760D01*
X199230779Y-79056400D01*
X199195692Y-78993304D01*
X199176274Y-78910339D01*
X199173668Y-78887030D01*
X199169053Y-78777007D01*
X199174585Y-78725700D01*
X199313866Y-78725700D01*
X199315676Y-78757705D01*
X199325574Y-78767045D01*
X199350250Y-78760057D01*
X199389147Y-78743539D01*
X199432627Y-78722833D01*
X199433708Y-78722285D01*
X199470561Y-78702901D01*
X199485352Y-78689965D01*
X199481705Y-78676403D01*
X199466347Y-78658584D01*
X199427275Y-78632797D01*
X199385198Y-78630902D01*
X199347455Y-78649669D01*
X199321386Y-78685867D01*
X199313866Y-78725700D01*
X199174585Y-78725700D01*
X199178546Y-78688979D01*
X199202902Y-78619164D01*
G37*
X199202902Y-78619164D02*
X199236808Y-78570254D01*
X199298005Y-78520830D01*
X199365415Y-78496311D01*
X199434232Y-78494749D01*
X199499655Y-78514191D01*
X199556879Y-78552687D01*
X199601101Y-78608287D01*
X199627519Y-78679038D01*
X199632862Y-78731114D01*
X199632255Y-78752845D01*
X199627174Y-78769483D01*
X199613207Y-78784389D01*
X199585941Y-78800925D01*
X199540964Y-78822450D01*
X199473863Y-78852326D01*
X199473523Y-78852476D01*
X199411759Y-78880765D01*
X199361111Y-78905885D01*
X199326756Y-78925131D01*
X199313870Y-78935800D01*
X199313866Y-78935886D01*
X199325224Y-78959118D01*
X199351783Y-78984726D01*
X199382275Y-79003173D01*
X199397722Y-79006838D01*
X199439867Y-78994164D01*
X199476160Y-78962423D01*
X199493869Y-78927524D01*
X199510904Y-78901797D01*
X199544274Y-78872498D01*
X199583501Y-78847187D01*
X199618108Y-78833423D01*
X199625345Y-78832666D01*
X199633491Y-78845112D01*
X199633982Y-78876924D01*
X199627995Y-78919818D01*
X199616709Y-78965510D01*
X199601302Y-79005713D01*
X199600523Y-79007274D01*
X199554156Y-79072014D01*
X199494063Y-79116049D01*
X199425817Y-79137663D01*
X199354990Y-79135137D01*
X199287156Y-79106756D01*
X199284140Y-79104760D01*
X199230779Y-79056400D01*
X199195692Y-78993304D01*
X199176274Y-78910339D01*
X199173668Y-78887030D01*
X199169053Y-78777007D01*
X199174585Y-78725700D01*
X199313866Y-78725700D01*
X199315676Y-78757705D01*
X199325574Y-78767045D01*
X199350250Y-78760057D01*
X199389147Y-78743539D01*
X199432627Y-78722833D01*
X199433708Y-78722285D01*
X199470561Y-78702901D01*
X199485352Y-78689965D01*
X199481705Y-78676403D01*
X199466347Y-78658584D01*
X199427275Y-78632797D01*
X199385198Y-78630902D01*
X199347455Y-78649669D01*
X199321386Y-78685867D01*
X199313866Y-78725700D01*
X199174585Y-78725700D01*
X199178546Y-78688979D01*
X199202902Y-78619164D01*
G36*
X204199548Y-78678336D02*
G01*
X204213236Y-78629647D01*
X204235448Y-78593801D01*
X204267926Y-78565465D01*
X204282085Y-78556307D01*
X204346405Y-78532459D01*
X204416825Y-78530958D01*
X204484947Y-78549918D01*
X204542373Y-78587449D01*
X204570071Y-78621048D01*
X204592014Y-78682016D01*
X204593757Y-78730260D01*
X204589809Y-78794768D01*
X204441038Y-78859886D01*
X204368701Y-78893154D01*
X204321436Y-78919916D01*
X204296859Y-78943096D01*
X204292589Y-78965619D01*
X204306241Y-78990407D01*
X204321295Y-79006838D01*
X204365098Y-79033187D01*
X204412741Y-79035033D01*
X204456497Y-79014498D01*
X204488641Y-78973704D01*
X204494390Y-78959299D01*
X204521928Y-78914308D01*
X204553610Y-78895134D01*
X204597066Y-78878731D01*
X204597066Y-78940918D01*
X204593224Y-78983235D01*
X204578175Y-79018921D01*
X204546632Y-79059895D01*
X204541944Y-79065219D01*
X204506858Y-79101672D01*
X204476699Y-79121235D01*
X204438967Y-79130235D01*
X204407687Y-79133182D01*
X204351737Y-79133917D01*
X204311907Y-79124612D01*
X204287060Y-79110798D01*
X204248008Y-79080419D01*
X204220977Y-79047565D01*
X204203869Y-79006246D01*
X204194590Y-78950473D01*
X204191045Y-78874257D01*
X204190762Y-78835574D01*
X204191724Y-78789199D01*
X204279359Y-78789199D01*
X204280375Y-78814078D01*
X204282908Y-78818152D01*
X204299626Y-78812617D01*
X204335601Y-78797969D01*
X204383683Y-78777142D01*
X204393738Y-78772666D01*
X204454504Y-78741766D01*
X204487984Y-78714609D01*
X204495342Y-78689172D01*
X204477743Y-78663433D01*
X204463208Y-78652061D01*
X204410762Y-78629316D01*
X204361674Y-78633074D01*
X204320579Y-78660836D01*
X204292110Y-78710104D01*
X204282983Y-78749209D01*
X204279359Y-78789199D01*
X204191724Y-78789199D01*
X204192637Y-78745201D01*
X204199548Y-78678336D01*
G37*
X204199548Y-78678336D02*
X204213236Y-78629647D01*
X204235448Y-78593801D01*
X204267926Y-78565465D01*
X204282085Y-78556307D01*
X204346405Y-78532459D01*
X204416825Y-78530958D01*
X204484947Y-78549918D01*
X204542373Y-78587449D01*
X204570071Y-78621048D01*
X204592014Y-78682016D01*
X204593757Y-78730260D01*
X204589809Y-78794768D01*
X204441038Y-78859886D01*
X204368701Y-78893154D01*
X204321436Y-78919916D01*
X204296859Y-78943096D01*
X204292589Y-78965619D01*
X204306241Y-78990407D01*
X204321295Y-79006838D01*
X204365098Y-79033187D01*
X204412741Y-79035033D01*
X204456497Y-79014498D01*
X204488641Y-78973704D01*
X204494390Y-78959299D01*
X204521928Y-78914308D01*
X204553610Y-78895134D01*
X204597066Y-78878731D01*
X204597066Y-78940918D01*
X204593224Y-78983235D01*
X204578175Y-79018921D01*
X204546632Y-79059895D01*
X204541944Y-79065219D01*
X204506858Y-79101672D01*
X204476699Y-79121235D01*
X204438967Y-79130235D01*
X204407687Y-79133182D01*
X204351737Y-79133917D01*
X204311907Y-79124612D01*
X204287060Y-79110798D01*
X204248008Y-79080419D01*
X204220977Y-79047565D01*
X204203869Y-79006246D01*
X204194590Y-78950473D01*
X204191045Y-78874257D01*
X204190762Y-78835574D01*
X204191724Y-78789199D01*
X204279359Y-78789199D01*
X204280375Y-78814078D01*
X204282908Y-78818152D01*
X204299626Y-78812617D01*
X204335601Y-78797969D01*
X204383683Y-78777142D01*
X204393738Y-78772666D01*
X204454504Y-78741766D01*
X204487984Y-78714609D01*
X204495342Y-78689172D01*
X204477743Y-78663433D01*
X204463208Y-78652061D01*
X204410762Y-78629316D01*
X204361674Y-78633074D01*
X204320579Y-78660836D01*
X204292110Y-78710104D01*
X204282983Y-78749209D01*
X204279359Y-78789199D01*
X204191724Y-78789199D01*
X204192637Y-78745201D01*
X204199548Y-78678336D01*
G36*
X201371096Y-78533920D02*
G01*
X201427968Y-78555039D01*
X201428619Y-78555445D01*
X201463792Y-78581332D01*
X201489759Y-78611585D01*
X201508022Y-78651010D01*
X201520084Y-78704414D01*
X201527448Y-78776603D01*
X201531616Y-78872384D01*
X201531981Y-78886030D01*
X201537228Y-79091794D01*
X201493068Y-79114630D01*
X201461115Y-79130062D01*
X201441822Y-79137375D01*
X201440930Y-79137466D01*
X201437591Y-79123974D01*
X201434939Y-79087578D01*
X201433308Y-79034404D01*
X201432952Y-78991345D01*
X201432944Y-78921593D01*
X201429755Y-78877789D01*
X201418640Y-78856896D01*
X201394853Y-78855877D01*
X201353648Y-78871693D01*
X201291438Y-78900767D01*
X201245693Y-78924915D01*
X201222165Y-78945865D01*
X201215248Y-78968699D01*
X201215238Y-78969829D01*
X201226651Y-79009164D01*
X201260444Y-79030414D01*
X201312161Y-79033491D01*
X201349413Y-79032958D01*
X201369055Y-79043687D01*
X201381304Y-79069457D01*
X201388354Y-79102289D01*
X201378194Y-79120918D01*
X201374369Y-79123584D01*
X201338353Y-79134292D01*
X201287918Y-79135808D01*
X201235978Y-79128711D01*
X201199174Y-79115740D01*
X201148290Y-79072537D01*
X201119366Y-79012398D01*
X201113638Y-78965414D01*
X201118009Y-78923034D01*
X201133827Y-78888440D01*
X201165149Y-78857715D01*
X201216030Y-78826942D01*
X201290528Y-78792204D01*
X201295066Y-78790240D01*
X201362173Y-78759239D01*
X201403584Y-78733814D01*
X201421333Y-78710966D01*
X201417459Y-78687697D01*
X201393995Y-78661008D01*
X201386979Y-78654866D01*
X201339982Y-78631052D01*
X201291285Y-78632055D01*
X201248874Y-78655403D01*
X201220736Y-78698627D01*
X201218121Y-78707112D01*
X201192660Y-78748260D01*
X201160353Y-78768080D01*
X201113638Y-78787722D01*
X201113638Y-78736902D01*
X201127848Y-78663034D01*
X201170027Y-78595279D01*
X201191976Y-78572613D01*
X201241869Y-78543521D01*
X201305319Y-78530352D01*
X201371096Y-78533920D01*
G37*
X201371096Y-78533920D02*
X201427968Y-78555039D01*
X201428619Y-78555445D01*
X201463792Y-78581332D01*
X201489759Y-78611585D01*
X201508022Y-78651010D01*
X201520084Y-78704414D01*
X201527448Y-78776603D01*
X201531616Y-78872384D01*
X201531981Y-78886030D01*
X201537228Y-79091794D01*
X201493068Y-79114630D01*
X201461115Y-79130062D01*
X201441822Y-79137375D01*
X201440930Y-79137466D01*
X201437591Y-79123974D01*
X201434939Y-79087578D01*
X201433308Y-79034404D01*
X201432952Y-78991345D01*
X201432944Y-78921593D01*
X201429755Y-78877789D01*
X201418640Y-78856896D01*
X201394853Y-78855877D01*
X201353648Y-78871693D01*
X201291438Y-78900767D01*
X201245693Y-78924915D01*
X201222165Y-78945865D01*
X201215248Y-78968699D01*
X201215238Y-78969829D01*
X201226651Y-79009164D01*
X201260444Y-79030414D01*
X201312161Y-79033491D01*
X201349413Y-79032958D01*
X201369055Y-79043687D01*
X201381304Y-79069457D01*
X201388354Y-79102289D01*
X201378194Y-79120918D01*
X201374369Y-79123584D01*
X201338353Y-79134292D01*
X201287918Y-79135808D01*
X201235978Y-79128711D01*
X201199174Y-79115740D01*
X201148290Y-79072537D01*
X201119366Y-79012398D01*
X201113638Y-78965414D01*
X201118009Y-78923034D01*
X201133827Y-78888440D01*
X201165149Y-78857715D01*
X201216030Y-78826942D01*
X201290528Y-78792204D01*
X201295066Y-78790240D01*
X201362173Y-78759239D01*
X201403584Y-78733814D01*
X201421333Y-78710966D01*
X201417459Y-78687697D01*
X201393995Y-78661008D01*
X201386979Y-78654866D01*
X201339982Y-78631052D01*
X201291285Y-78632055D01*
X201248874Y-78655403D01*
X201220736Y-78698627D01*
X201218121Y-78707112D01*
X201192660Y-78748260D01*
X201160353Y-78768080D01*
X201113638Y-78787722D01*
X201113638Y-78736902D01*
X201127848Y-78663034D01*
X201170027Y-78595279D01*
X201191976Y-78572613D01*
X201241869Y-78543521D01*
X201305319Y-78530352D01*
X201371096Y-78533920D01*
G36*
X198068448Y-78691111D02*
G01*
X198073420Y-78654901D01*
X198082065Y-78628251D01*
X198095357Y-78604674D01*
X198098295Y-78600290D01*
X198147665Y-78541201D01*
X198201461Y-78506899D01*
X198266954Y-78493283D01*
X198289194Y-78492617D01*
X198372467Y-78504914D01*
X198440497Y-78540685D01*
X198490703Y-78598253D01*
X198508537Y-78635264D01*
X198522415Y-78690834D01*
X198529519Y-78761048D01*
X198530192Y-78837679D01*
X198524779Y-78912504D01*
X198513622Y-78977294D01*
X198497066Y-79023825D01*
X198491978Y-79031839D01*
X198431707Y-79091659D01*
X198360121Y-79127487D01*
X198282444Y-79137972D01*
X198203900Y-79121762D01*
X198182041Y-79112044D01*
X198139474Y-79082095D01*
X198102115Y-79042385D01*
X198098584Y-79037349D01*
X198084233Y-79013076D01*
X198074746Y-78987130D01*
X198069142Y-78952974D01*
X198066438Y-78904071D01*
X198065651Y-78833887D01*
X198065638Y-78818152D01*
X198065674Y-78813144D01*
X198210781Y-78813144D01*
X198211625Y-78879382D01*
X198214948Y-78923338D01*
X198221935Y-78951731D01*
X198233768Y-78971277D01*
X198239809Y-78977809D01*
X198274538Y-79002632D01*
X198308255Y-79001500D01*
X198342347Y-78979968D01*
X198362681Y-78956981D01*
X198374723Y-78923430D01*
X198381486Y-78870521D01*
X198381950Y-78864351D01*
X198383104Y-78768465D01*
X198371040Y-78697251D01*
X198345922Y-78651146D01*
X198307912Y-78630587D01*
X198294344Y-78629466D01*
X198258716Y-78635104D01*
X198234346Y-78654638D01*
X198219445Y-78691994D01*
X198212227Y-78751102D01*
X198210781Y-78813144D01*
X198065674Y-78813144D01*
X198066178Y-78743365D01*
X198068448Y-78691111D01*
G37*
X198068448Y-78691111D02*
X198073420Y-78654901D01*
X198082065Y-78628251D01*
X198095357Y-78604674D01*
X198098295Y-78600290D01*
X198147665Y-78541201D01*
X198201461Y-78506899D01*
X198266954Y-78493283D01*
X198289194Y-78492617D01*
X198372467Y-78504914D01*
X198440497Y-78540685D01*
X198490703Y-78598253D01*
X198508537Y-78635264D01*
X198522415Y-78690834D01*
X198529519Y-78761048D01*
X198530192Y-78837679D01*
X198524779Y-78912504D01*
X198513622Y-78977294D01*
X198497066Y-79023825D01*
X198491978Y-79031839D01*
X198431707Y-79091659D01*
X198360121Y-79127487D01*
X198282444Y-79137972D01*
X198203900Y-79121762D01*
X198182041Y-79112044D01*
X198139474Y-79082095D01*
X198102115Y-79042385D01*
X198098584Y-79037349D01*
X198084233Y-79013076D01*
X198074746Y-78987130D01*
X198069142Y-78952974D01*
X198066438Y-78904071D01*
X198065651Y-78833887D01*
X198065638Y-78818152D01*
X198065674Y-78813144D01*
X198210781Y-78813144D01*
X198211625Y-78879382D01*
X198214948Y-78923338D01*
X198221935Y-78951731D01*
X198233768Y-78971277D01*
X198239809Y-78977809D01*
X198274538Y-79002632D01*
X198308255Y-79001500D01*
X198342347Y-78979968D01*
X198362681Y-78956981D01*
X198374723Y-78923430D01*
X198381486Y-78870521D01*
X198381950Y-78864351D01*
X198383104Y-78768465D01*
X198371040Y-78697251D01*
X198345922Y-78651146D01*
X198307912Y-78630587D01*
X198294344Y-78629466D01*
X198258716Y-78635104D01*
X198234346Y-78654638D01*
X198219445Y-78691994D01*
X198212227Y-78751102D01*
X198210781Y-78813144D01*
X198065674Y-78813144D01*
X198066178Y-78743365D01*
X198068448Y-78691111D01*
G36*
X198625029Y-78733285D02*
G01*
X198627802Y-78685910D01*
X198631740Y-78652242D01*
X198637201Y-78628450D01*
X198644544Y-78610705D01*
X198654129Y-78595176D01*
X198658239Y-78589333D01*
X198712757Y-78534137D01*
X198781688Y-78502842D01*
X198861424Y-78494117D01*
X198931096Y-78502870D01*
X198986553Y-78530520D01*
X199035500Y-78581432D01*
X199048981Y-78600290D01*
X199063666Y-78624967D01*
X199073194Y-78651768D01*
X199078645Y-78687539D01*
X199081099Y-78739121D01*
X199081638Y-78807219D01*
X199079204Y-78900540D01*
X199070746Y-78970609D01*
X199054526Y-79022883D01*
X199028806Y-79062821D01*
X198991849Y-79095881D01*
X198989134Y-79097838D01*
X198952712Y-79117860D01*
X198908854Y-79127767D01*
X198853076Y-79130209D01*
X198762400Y-79130209D01*
X198762362Y-79218235D01*
X198761518Y-79267260D01*
X198756376Y-79296017D01*
X198742939Y-79313263D01*
X198717210Y-79327760D01*
X198711031Y-79330721D01*
X198682116Y-79344600D01*
X198659728Y-79353366D01*
X198643081Y-79354123D01*
X198631388Y-79343975D01*
X198623862Y-79320025D01*
X198619718Y-79279378D01*
X198618167Y-79219138D01*
X198618423Y-79136407D01*
X198619701Y-79028291D01*
X198620100Y-78995952D01*
X198621537Y-78884476D01*
X198622824Y-78811555D01*
X198762323Y-78811555D01*
X198763107Y-78873451D01*
X198766592Y-78913949D01*
X198774476Y-78940660D01*
X198788457Y-78961196D01*
X198797949Y-78971212D01*
X198836756Y-79000519D01*
X198871115Y-79002904D01*
X198906568Y-78978702D01*
X198907466Y-78977809D01*
X198921891Y-78959105D01*
X198930665Y-78933684D01*
X198935091Y-78894536D01*
X198936470Y-78834649D01*
X198936495Y-78821382D01*
X198933164Y-78738853D01*
X198922321Y-78681643D01*
X198902692Y-78646718D01*
X198873002Y-78631046D01*
X198855843Y-78629466D01*
X198815118Y-78636878D01*
X198787184Y-78661282D01*
X198770369Y-78705932D01*
X198763002Y-78774082D01*
X198762323Y-78811555D01*
X198622824Y-78811555D01*
X198623060Y-78798197D01*
X198625029Y-78733285D01*
G37*
X198625029Y-78733285D02*
X198627802Y-78685910D01*
X198631740Y-78652242D01*
X198637201Y-78628450D01*
X198644544Y-78610705D01*
X198654129Y-78595176D01*
X198658239Y-78589333D01*
X198712757Y-78534137D01*
X198781688Y-78502842D01*
X198861424Y-78494117D01*
X198931096Y-78502870D01*
X198986553Y-78530520D01*
X199035500Y-78581432D01*
X199048981Y-78600290D01*
X199063666Y-78624967D01*
X199073194Y-78651768D01*
X199078645Y-78687539D01*
X199081099Y-78739121D01*
X199081638Y-78807219D01*
X199079204Y-78900540D01*
X199070746Y-78970609D01*
X199054526Y-79022883D01*
X199028806Y-79062821D01*
X198991849Y-79095881D01*
X198989134Y-79097838D01*
X198952712Y-79117860D01*
X198908854Y-79127767D01*
X198853076Y-79130209D01*
X198762400Y-79130209D01*
X198762362Y-79218235D01*
X198761518Y-79267260D01*
X198756376Y-79296017D01*
X198742939Y-79313263D01*
X198717210Y-79327760D01*
X198711031Y-79330721D01*
X198682116Y-79344600D01*
X198659728Y-79353366D01*
X198643081Y-79354123D01*
X198631388Y-79343975D01*
X198623862Y-79320025D01*
X198619718Y-79279378D01*
X198618167Y-79219138D01*
X198618423Y-79136407D01*
X198619701Y-79028291D01*
X198620100Y-78995952D01*
X198621537Y-78884476D01*
X198622824Y-78811555D01*
X198762323Y-78811555D01*
X198763107Y-78873451D01*
X198766592Y-78913949D01*
X198774476Y-78940660D01*
X198788457Y-78961196D01*
X198797949Y-78971212D01*
X198836756Y-79000519D01*
X198871115Y-79002904D01*
X198906568Y-78978702D01*
X198907466Y-78977809D01*
X198921891Y-78959105D01*
X198930665Y-78933684D01*
X198935091Y-78894536D01*
X198936470Y-78834649D01*
X198936495Y-78821382D01*
X198933164Y-78738853D01*
X198922321Y-78681643D01*
X198902692Y-78646718D01*
X198873002Y-78631046D01*
X198855843Y-78629466D01*
X198815118Y-78636878D01*
X198787184Y-78661282D01*
X198770369Y-78705932D01*
X198763002Y-78774082D01*
X198762323Y-78811555D01*
X198622824Y-78811555D01*
X198623060Y-78798197D01*
X198625029Y-78733285D01*
G36*
X201861278Y-78532707D02*
G01*
X201927210Y-78557036D01*
X201980625Y-78600069D01*
X202001516Y-78630361D01*
X202024291Y-78685946D01*
X202023818Y-78726138D01*
X201999914Y-78753169D01*
X201991069Y-78757765D01*
X201952882Y-78772096D01*
X201933380Y-78768424D01*
X201926774Y-78744359D01*
X201926438Y-78731066D01*
X201914344Y-78682162D01*
X201882823Y-78647951D01*
X201839011Y-78631428D01*
X201790047Y-78635586D01*
X201750246Y-78657179D01*
X201736802Y-78669496D01*
X201727273Y-78684439D01*
X201720837Y-78707027D01*
X201716669Y-78742280D01*
X201713949Y-78795218D01*
X201711854Y-78870859D01*
X201711312Y-78894809D01*
X201709333Y-78976742D01*
X201707083Y-79034407D01*
X201703709Y-79072560D01*
X201698358Y-79095956D01*
X201690176Y-79109350D01*
X201678311Y-79117497D01*
X201670714Y-79121096D01*
X201638454Y-79133404D01*
X201619463Y-79137466D01*
X201613188Y-79123900D01*
X201609358Y-79082886D01*
X201607952Y-79013951D01*
X201608950Y-78916621D01*
X201609260Y-78901609D01*
X201611453Y-78812811D01*
X201614045Y-78747971D01*
X201617734Y-78702019D01*
X201623216Y-78669887D01*
X201631187Y-78646505D01*
X201642345Y-78626804D01*
X201648182Y-78618362D01*
X201681648Y-78581009D01*
X201719079Y-78551955D01*
X201723661Y-78549419D01*
X201790778Y-78529395D01*
X201861278Y-78532707D01*
G37*
X201861278Y-78532707D02*
X201927210Y-78557036D01*
X201980625Y-78600069D01*
X202001516Y-78630361D01*
X202024291Y-78685946D01*
X202023818Y-78726138D01*
X201999914Y-78753169D01*
X201991069Y-78757765D01*
X201952882Y-78772096D01*
X201933380Y-78768424D01*
X201926774Y-78744359D01*
X201926438Y-78731066D01*
X201914344Y-78682162D01*
X201882823Y-78647951D01*
X201839011Y-78631428D01*
X201790047Y-78635586D01*
X201750246Y-78657179D01*
X201736802Y-78669496D01*
X201727273Y-78684439D01*
X201720837Y-78707027D01*
X201716669Y-78742280D01*
X201713949Y-78795218D01*
X201711854Y-78870859D01*
X201711312Y-78894809D01*
X201709333Y-78976742D01*
X201707083Y-79034407D01*
X201703709Y-79072560D01*
X201698358Y-79095956D01*
X201690176Y-79109350D01*
X201678311Y-79117497D01*
X201670714Y-79121096D01*
X201638454Y-79133404D01*
X201619463Y-79137466D01*
X201613188Y-79123900D01*
X201609358Y-79082886D01*
X201607952Y-79013951D01*
X201608950Y-78916621D01*
X201609260Y-78901609D01*
X201611453Y-78812811D01*
X201614045Y-78747971D01*
X201617734Y-78702019D01*
X201623216Y-78669887D01*
X201631187Y-78646505D01*
X201642345Y-78626804D01*
X201648182Y-78618362D01*
X201681648Y-78581009D01*
X201719079Y-78551955D01*
X201723661Y-78549419D01*
X201790778Y-78529395D01*
X201861278Y-78532707D01*
%TO.C,logo*%
G36*
X189475429Y-113545584D02*
G01*
X189506928Y-113563601D01*
X189526534Y-113595669D01*
X189534268Y-113638627D01*
X189529829Y-113681682D01*
X189512915Y-113714044D01*
X189511166Y-113715711D01*
X189469881Y-113737879D01*
X189418391Y-113744629D01*
X189395649Y-113742003D01*
X189360764Y-113723345D01*
X189337857Y-113688513D01*
X189328796Y-113644955D01*
X189335446Y-113600118D01*
X189352409Y-113569457D01*
X189385695Y-113546651D01*
X189430103Y-113538564D01*
X189475429Y-113545584D01*
G37*
G36*
X186787489Y-111023568D02*
G01*
X186823876Y-111050381D01*
X186840816Y-111092991D01*
X186837128Y-111149699D01*
X186834461Y-111160268D01*
X186811408Y-111200686D01*
X186772314Y-111225140D01*
X186722762Y-111231547D01*
X186673857Y-111220171D01*
X186646342Y-111196926D01*
X186627217Y-111158497D01*
X186620583Y-111115035D01*
X186623180Y-111094800D01*
X186641907Y-111049491D01*
X186673087Y-111023852D01*
X186721359Y-111014476D01*
X186732840Y-111014252D01*
X186787489Y-111023568D01*
G37*
G36*
X189036443Y-111551289D02*
G01*
X189068952Y-111580907D01*
X189083395Y-111628032D01*
X189083978Y-111641800D01*
X189075577Y-111689670D01*
X189049485Y-111719600D01*
X189004366Y-111732820D01*
X188984125Y-111733726D01*
X188943498Y-111729330D01*
X188918098Y-111713707D01*
X188911262Y-111705172D01*
X188891624Y-111659206D01*
X188892957Y-111613901D01*
X188912503Y-111575188D01*
X188947502Y-111548997D01*
X188987620Y-111541010D01*
X189036443Y-111551289D01*
G37*
G36*
X189977956Y-114867830D02*
G01*
X190004777Y-114889431D01*
X190019155Y-114927209D01*
X190019529Y-114930532D01*
X190018005Y-114965511D01*
X190008663Y-114991043D01*
X190008320Y-114991470D01*
X189983247Y-115005157D01*
X189946912Y-115009395D01*
X189912080Y-115003839D01*
X189895956Y-114994485D01*
X189885150Y-114971536D01*
X189880541Y-114937649D01*
X189880539Y-114936966D01*
X189889984Y-114896972D01*
X189913845Y-114871911D01*
X189945407Y-114862093D01*
X189977956Y-114867830D01*
G37*
G36*
X185786170Y-114334133D02*
G01*
X185829883Y-114351697D01*
X185852329Y-114383569D01*
X185854141Y-114430659D01*
X185853979Y-114431711D01*
X185836924Y-114476874D01*
X185806381Y-114502943D01*
X185767815Y-114508177D01*
X185726689Y-114490837D01*
X185710860Y-114477304D01*
X185684529Y-114439190D01*
X185683661Y-114401758D01*
X185708277Y-114363211D01*
X185712296Y-114359071D01*
X185741070Y-114336520D01*
X185770287Y-114331807D01*
X185786170Y-114334133D01*
G37*
G36*
X188184636Y-115932080D02*
G01*
X188232815Y-115941077D01*
X188279664Y-115954495D01*
X188340151Y-115978350D01*
X188406421Y-116008999D01*
X188470614Y-116042801D01*
X188524875Y-116076114D01*
X188526349Y-116077124D01*
X188607897Y-116139242D01*
X188685523Y-116211502D01*
X188761398Y-116296619D01*
X188837691Y-116397307D01*
X188916571Y-116516280D01*
X189000207Y-116656254D01*
X189027191Y-116703892D01*
X189076862Y-116790242D01*
X189118290Y-116856156D01*
X189154029Y-116904513D01*
X189186632Y-116938195D01*
X189218653Y-116960081D01*
X189252646Y-116973053D01*
X189269033Y-116976706D01*
X189341543Y-117000886D01*
X189397600Y-117041176D01*
X189435335Y-117093880D01*
X189452878Y-117155298D01*
X189448361Y-117221732D01*
X189423799Y-117282915D01*
X189350597Y-117390221D01*
X189256995Y-117494973D01*
X189148234Y-117592913D01*
X189029551Y-117679781D01*
X188906187Y-117751317D01*
X188783952Y-117803070D01*
X188744154Y-117813114D01*
X188687601Y-117823053D01*
X188623200Y-117831457D01*
X188583528Y-117835247D01*
X188496340Y-117845042D01*
X188427315Y-117858657D01*
X188388018Y-117871750D01*
X188334069Y-117903571D01*
X188282580Y-117947482D01*
X188241639Y-117995802D01*
X188223761Y-118027719D01*
X188217945Y-118045192D01*
X188218872Y-118060915D01*
X188229349Y-118079615D01*
X188252182Y-118106017D01*
X188290176Y-118144845D01*
X188297916Y-118152593D01*
X188406916Y-118278399D01*
X188492246Y-118413967D01*
X188553882Y-118559009D01*
X188591802Y-118713234D01*
X188605982Y-118876354D01*
X188596399Y-119048078D01*
X188563031Y-119228118D01*
X188505855Y-119416183D01*
X188424847Y-119611984D01*
X188415303Y-119632254D01*
X188382945Y-119699152D01*
X188351851Y-119760565D01*
X188320299Y-119819124D01*
X188286566Y-119877462D01*
X188248931Y-119938208D01*
X188205671Y-120003994D01*
X188155064Y-120077451D01*
X188095388Y-120161212D01*
X188024921Y-120257906D01*
X187941940Y-120370165D01*
X187862647Y-120476619D01*
X187751594Y-120627155D01*
X187656389Y-120760292D01*
X187575923Y-120877939D01*
X187509088Y-120982003D01*
X187454776Y-121074392D01*
X187411877Y-121157014D01*
X187379283Y-121231777D01*
X187355886Y-121300587D01*
X187340577Y-121365354D01*
X187338203Y-121379129D01*
X187332901Y-121468666D01*
X187348326Y-121543238D01*
X187384551Y-121603163D01*
X187390459Y-121609551D01*
X187417135Y-121632514D01*
X187450020Y-121650114D01*
X187494686Y-121664373D01*
X187556704Y-121677313D01*
X187594932Y-121683755D01*
X187641659Y-121702158D01*
X187687692Y-121738304D01*
X187725790Y-121785088D01*
X187748419Y-121834309D01*
X187753813Y-121900963D01*
X187736844Y-121966980D01*
X187700307Y-122026493D01*
X187646998Y-122073636D01*
X187629609Y-122083735D01*
X187621257Y-122086485D01*
X187606442Y-122088944D01*
X187583868Y-122091126D01*
X187552244Y-122093045D01*
X187510274Y-122094713D01*
X187456664Y-122096145D01*
X187390122Y-122097353D01*
X187309353Y-122098352D01*
X187213063Y-122099155D01*
X187099959Y-122099775D01*
X186968746Y-122100226D01*
X186818131Y-122100522D01*
X186646820Y-122100676D01*
X186453520Y-122100701D01*
X186236935Y-122100611D01*
X186030064Y-122100452D01*
X185830690Y-122100189D01*
X185637846Y-122099774D01*
X185453159Y-122099217D01*
X185278256Y-122098530D01*
X185114766Y-122097726D01*
X184964315Y-122096815D01*
X184828532Y-122095810D01*
X184709043Y-122094723D01*
X184607476Y-122093564D01*
X184525459Y-122092347D01*
X184464620Y-122091082D01*
X184426585Y-122089782D01*
X184413821Y-122088756D01*
X184292740Y-122051708D01*
X184175457Y-121990711D01*
X184063279Y-121907390D01*
X183957508Y-121803369D01*
X183859449Y-121680274D01*
X183770406Y-121539729D01*
X183691683Y-121383360D01*
X183624583Y-121212791D01*
X183573438Y-121041602D01*
X183541824Y-120899125D01*
X183518184Y-120752444D01*
X183502921Y-120607028D01*
X183496438Y-120468345D01*
X183499139Y-120341862D01*
X183511427Y-120233048D01*
X183513115Y-120223791D01*
X183533057Y-120131882D01*
X183562283Y-120017310D01*
X183600463Y-119881242D01*
X183647265Y-119724844D01*
X183702358Y-119549282D01*
X183720222Y-119493766D01*
X183750246Y-119399112D01*
X183781643Y-119296939D01*
X183811986Y-119195367D01*
X183838848Y-119102511D01*
X183858536Y-119031247D01*
X183878597Y-118955032D01*
X183892828Y-118896138D01*
X183902216Y-118847114D01*
X183907742Y-118800504D01*
X183910390Y-118748856D01*
X183911143Y-118684716D01*
X183911083Y-118632967D01*
X183909690Y-118537179D01*
X183905664Y-118459048D01*
X183898317Y-118390606D01*
X183886962Y-118323888D01*
X183882529Y-118302347D01*
X183840585Y-118137574D01*
X183789498Y-117995494D01*
X183728589Y-117874540D01*
X183657181Y-117773145D01*
X183649892Y-117764548D01*
X183609969Y-117713083D01*
X183570590Y-117653995D01*
X183543065Y-117605342D01*
X183523270Y-117563310D01*
X183511037Y-117528507D01*
X183504599Y-117492097D01*
X183502189Y-117445245D01*
X183501957Y-117399778D01*
X183506241Y-117314144D01*
X183520459Y-117245644D01*
X183547440Y-117186720D01*
X183590010Y-117129813D01*
X183611750Y-117106220D01*
X183690063Y-117042752D01*
X183781888Y-116999680D01*
X183884218Y-116977713D01*
X183994049Y-116977562D01*
X184086603Y-116993959D01*
X184220057Y-117040964D01*
X184346381Y-117110345D01*
X184462485Y-117199102D01*
X184565276Y-117304234D01*
X184651663Y-117422742D01*
X184718556Y-117551624D01*
X184749438Y-117637267D01*
X184764401Y-117711602D01*
X184771748Y-117805959D01*
X184771792Y-117915920D01*
X184764851Y-118037066D01*
X184751239Y-118164980D01*
X184731272Y-118295243D01*
X184705265Y-118423436D01*
X184688453Y-118491642D01*
X184663686Y-118581812D01*
X184638491Y-118664477D01*
X184611304Y-118743056D01*
X184580560Y-118820971D01*
X184544694Y-118901644D01*
X184502142Y-118988494D01*
X184451339Y-119084943D01*
X184390721Y-119194413D01*
X184318723Y-119320323D01*
X184275093Y-119395443D01*
X184187303Y-119550395D01*
X184114640Y-119688914D01*
X184055798Y-119814319D01*
X184009469Y-119929928D01*
X183974348Y-120039061D01*
X183949127Y-120145038D01*
X183932500Y-120251178D01*
X183930206Y-120271624D01*
X183923663Y-120385373D01*
X183928007Y-120492265D01*
X183942451Y-120588889D01*
X183966208Y-120671834D01*
X183998492Y-120737689D01*
X184038515Y-120783042D01*
X184050007Y-120791004D01*
X184110228Y-120813832D01*
X184173120Y-120813403D01*
X184233622Y-120790965D01*
X184286671Y-120747765D01*
X184301834Y-120728951D01*
X184319703Y-120701692D01*
X184331567Y-120674486D01*
X184339254Y-120640230D01*
X184344591Y-120591820D01*
X184347540Y-120551306D01*
X184369995Y-120378031D01*
X184415183Y-120192896D01*
X184483080Y-119995977D01*
X184573663Y-119787349D01*
X184588186Y-119757145D01*
X184721189Y-119507170D01*
X184867643Y-119277674D01*
X185029384Y-119066635D01*
X185208244Y-118872034D01*
X185406059Y-118691850D01*
X185624662Y-118524062D01*
X185830879Y-118388018D01*
X185953005Y-118312509D01*
X186055735Y-118248529D01*
X186141669Y-118194323D01*
X186213406Y-118148135D01*
X186273545Y-118108210D01*
X186324685Y-118072793D01*
X186369427Y-118040128D01*
X186410369Y-118008460D01*
X186450110Y-117976034D01*
X186485997Y-117945613D01*
X186580705Y-117860862D01*
X186656816Y-117784507D01*
X186718062Y-117712236D01*
X186768177Y-117639734D01*
X186801579Y-117580940D01*
X186832467Y-117517471D01*
X186855803Y-117457480D01*
X186872987Y-117394911D01*
X186885414Y-117323704D01*
X186894484Y-117237804D01*
X186900355Y-117152859D01*
X186906006Y-117073569D01*
X186913381Y-116994096D01*
X186921650Y-116922171D01*
X186929986Y-116865524D01*
X186932724Y-116850937D01*
X186977161Y-116680164D01*
X187037252Y-116523022D01*
X187111742Y-116381407D01*
X187199371Y-116257212D01*
X187298885Y-116152331D01*
X187409024Y-116068659D01*
X187477153Y-116030654D01*
X187522246Y-116006300D01*
X187548332Y-115985218D01*
X187560831Y-115962713D01*
X187562351Y-115956849D01*
X187588959Y-115870688D01*
X187630674Y-115779284D01*
X187684630Y-115686054D01*
X187747958Y-115594414D01*
X187817792Y-115507779D01*
X187891264Y-115429565D01*
X187965508Y-115363190D01*
X188037656Y-115312067D01*
X188104842Y-115279614D01*
X188137955Y-115271070D01*
X188184636Y-115263495D01*
X188184636Y-115932080D01*
G37*
G36*
X188496311Y-111543883D02*
G01*
X188536334Y-111562118D01*
X188543872Y-111569128D01*
X188565271Y-111608396D01*
X188568747Y-111654087D01*
X188554263Y-111695754D01*
X188544373Y-111708030D01*
X188509904Y-111727682D01*
X188466294Y-111733975D01*
X188424407Y-111726746D01*
X188398615Y-111710231D01*
X188381185Y-111675873D01*
X188376655Y-111632848D01*
X188384518Y-111591512D01*
X188404269Y-111562218D01*
X188405906Y-111561010D01*
X188449476Y-111543316D01*
X188496311Y-111543883D01*
G37*
G36*
X190954094Y-112079340D02*
G01*
X190983601Y-112109050D01*
X190997870Y-112149381D01*
X190998293Y-112157702D01*
X190987747Y-112201923D01*
X190960364Y-112232154D01*
X190922526Y-112245412D01*
X190880614Y-112238714D01*
X190856376Y-112224045D01*
X190832364Y-112190700D01*
X190827980Y-112151514D01*
X190840565Y-112113433D01*
X190867458Y-112083404D01*
X190906001Y-112068373D01*
X190916206Y-112067767D01*
X190954094Y-112079340D01*
G37*
G36*
X183542243Y-111277171D02*
G01*
X183581599Y-111295624D01*
X183606957Y-111329069D01*
X183617810Y-111370630D01*
X183613651Y-111413430D01*
X183593975Y-111450592D01*
X183558274Y-111475241D01*
X183556872Y-111475743D01*
X183527341Y-111484811D01*
X183509818Y-111487943D01*
X183509350Y-111487869D01*
X183491886Y-111484314D01*
X183472048Y-111480463D01*
X183444103Y-111463710D01*
X183421814Y-111431504D01*
X183408292Y-111379150D01*
X183416936Y-111333083D01*
X183444282Y-111297741D01*
X183486869Y-111277563D01*
X183541232Y-111276985D01*
X183542243Y-111277171D01*
G37*
G36*
X187557185Y-111817179D02*
G01*
X187585809Y-111838299D01*
X187597877Y-111877202D01*
X187598778Y-111897179D01*
X187587754Y-111941334D01*
X187558947Y-111973372D01*
X187518757Y-111989865D01*
X187473583Y-111987384D01*
X187449619Y-111977093D01*
X187428435Y-111951626D01*
X187418288Y-111912773D01*
X187420553Y-111870958D01*
X187431898Y-111842875D01*
X187451341Y-111821557D01*
X187478696Y-111812328D01*
X187508852Y-111810812D01*
X187557185Y-111817179D01*
G37*
G36*
X191971098Y-111276416D02*
G01*
X192011265Y-111295783D01*
X192040204Y-111330797D01*
X192051792Y-111378448D01*
X192051808Y-111380413D01*
X192044933Y-111418941D01*
X192029325Y-111449613D01*
X191996872Y-111472582D01*
X191953805Y-111484616D01*
X191913711Y-111482129D01*
X191910483Y-111480981D01*
X191870348Y-111455454D01*
X191850024Y-111416166D01*
X191846244Y-111379354D01*
X191849947Y-111339208D01*
X191864416Y-111312315D01*
X191881572Y-111296674D01*
X191925826Y-111275709D01*
X191971098Y-111276416D01*
G37*
G36*
X191483310Y-111022195D02*
G01*
X191518612Y-111046757D01*
X191535764Y-111089044D01*
X191537898Y-111117618D01*
X191527514Y-111168433D01*
X191500126Y-111206427D01*
X191461382Y-111229076D01*
X191416929Y-111233856D01*
X191372416Y-111218243D01*
X191351022Y-111201128D01*
X191326890Y-111165752D01*
X191319496Y-111119812D01*
X191319487Y-111117618D01*
X191327878Y-111065921D01*
X191353828Y-111032506D01*
X191398504Y-111016272D01*
X191428692Y-111014252D01*
X191483310Y-111022195D01*
G37*
G36*
X184565634Y-114334133D02*
G01*
X184609347Y-114351697D01*
X184631793Y-114383569D01*
X184633605Y-114430659D01*
X184633443Y-114431711D01*
X184616387Y-114476874D01*
X184585845Y-114502943D01*
X184547279Y-114508177D01*
X184506153Y-114490837D01*
X184490324Y-114477304D01*
X184463993Y-114439190D01*
X184463125Y-114401758D01*
X184487741Y-114363211D01*
X184491760Y-114359071D01*
X184520534Y-114336520D01*
X184549750Y-114331807D01*
X184565634Y-114334133D01*
G37*
G36*
X186780212Y-114081479D02*
G01*
X186810858Y-114109202D01*
X186822669Y-114154187D01*
X186822774Y-114159750D01*
X186812051Y-114204373D01*
X186783981Y-114235661D01*
X186744713Y-114250684D01*
X186700395Y-114246511D01*
X186671460Y-114231885D01*
X186650356Y-114207798D01*
X186643045Y-114170441D01*
X186642906Y-114162140D01*
X186650853Y-114113712D01*
X186675705Y-114084324D01*
X186718980Y-114072437D01*
X186731767Y-114072016D01*
X186780212Y-114081479D01*
G37*
G36*
X184072777Y-112611790D02*
G01*
X184097261Y-112637159D01*
X184105073Y-112673668D01*
X184095881Y-112708129D01*
X184072131Y-112734496D01*
X184038050Y-112747693D01*
X184002769Y-112746630D01*
X183975418Y-112730215D01*
X183970622Y-112723093D01*
X183959474Y-112682359D01*
X183966033Y-112643446D01*
X183988391Y-112615597D01*
X183993414Y-112612732D01*
X184036527Y-112602125D01*
X184072777Y-112611790D01*
G37*
G36*
X185559676Y-114081479D02*
G01*
X185590322Y-114109202D01*
X185602133Y-114154187D01*
X185602238Y-114159750D01*
X185591515Y-114204373D01*
X185563445Y-114235661D01*
X185524177Y-114250684D01*
X185479859Y-114246511D01*
X185450924Y-114231885D01*
X185429819Y-114207798D01*
X185422508Y-114170441D01*
X185422370Y-114162140D01*
X185430317Y-114113712D01*
X185455169Y-114084324D01*
X185498444Y-114072437D01*
X185511230Y-114072016D01*
X185559676Y-114081479D01*
G37*
G36*
X190238856Y-112072664D02*
G01*
X190271400Y-112095866D01*
X190289625Y-112135802D01*
X190291667Y-112157702D01*
X190281464Y-112204504D01*
X190253169Y-112235721D01*
X190210255Y-112247615D01*
X190208156Y-112247636D01*
X190177477Y-112240375D01*
X190153200Y-112227636D01*
X190132149Y-112203665D01*
X190124801Y-112166502D01*
X190124646Y-112157702D01*
X190129922Y-112117193D01*
X190148230Y-112091520D01*
X190153200Y-112087768D01*
X190197591Y-112069023D01*
X190238856Y-112072664D01*
G37*
G36*
X189733558Y-112079340D02*
G01*
X189763065Y-112109050D01*
X189777334Y-112149381D01*
X189777757Y-112157702D01*
X189767211Y-112201923D01*
X189739828Y-112232154D01*
X189701989Y-112245412D01*
X189660078Y-112238714D01*
X189635840Y-112224045D01*
X189611828Y-112190700D01*
X189607444Y-112151514D01*
X189620028Y-112113433D01*
X189646922Y-112083404D01*
X189685465Y-112068373D01*
X189695670Y-112067767D01*
X189733558Y-112079340D01*
G37*
G36*
X190509835Y-113279115D02*
G01*
X190547936Y-113300475D01*
X190548622Y-113301151D01*
X190570352Y-113338935D01*
X190576032Y-113385779D01*
X190566152Y-113431684D01*
X190541204Y-113466650D01*
X190540465Y-113467240D01*
X190493382Y-113490196D01*
X190443335Y-113491584D01*
X190398124Y-113471652D01*
X190387441Y-113462332D01*
X190361612Y-113419858D01*
X190357033Y-113370375D01*
X190373953Y-113321682D01*
X190382533Y-113309308D01*
X190417133Y-113284023D01*
X190462900Y-113273795D01*
X190509835Y-113279115D01*
G37*
G36*
X188227243Y-112072929D02*
G01*
X188270955Y-112090493D01*
X188293402Y-112122365D01*
X188295213Y-112169455D01*
X188295052Y-112170507D01*
X188277996Y-112215670D01*
X188247453Y-112241739D01*
X188208887Y-112246974D01*
X188167762Y-112229634D01*
X188151932Y-112216101D01*
X188125602Y-112177986D01*
X188124733Y-112140554D01*
X188149349Y-112102007D01*
X188153368Y-112097867D01*
X188182142Y-112075316D01*
X188211359Y-112070603D01*
X188227243Y-112072929D01*
G37*
G36*
X191730371Y-111017911D02*
G01*
X191768472Y-111039271D01*
X191769158Y-111039947D01*
X191790888Y-111077731D01*
X191796568Y-111124575D01*
X191786688Y-111170481D01*
X191761741Y-111205446D01*
X191761001Y-111206036D01*
X191713918Y-111228992D01*
X191663871Y-111230380D01*
X191618660Y-111210448D01*
X191607977Y-111201128D01*
X191582148Y-111158654D01*
X191577569Y-111109171D01*
X191594489Y-111060478D01*
X191603070Y-111048104D01*
X191637669Y-111022819D01*
X191683437Y-111012591D01*
X191730371Y-111017911D01*
G37*
G36*
X190238856Y-114333868D02*
G01*
X190271400Y-114357070D01*
X190289625Y-114397006D01*
X190291667Y-114418905D01*
X190281464Y-114465708D01*
X190253169Y-114496925D01*
X190210255Y-114508819D01*
X190208156Y-114508840D01*
X190177477Y-114501579D01*
X190153200Y-114488840D01*
X190132149Y-114464869D01*
X190124801Y-114427706D01*
X190124646Y-114418905D01*
X190129922Y-114378397D01*
X190148230Y-114352723D01*
X190153200Y-114348971D01*
X190197591Y-114330226D01*
X190238856Y-114333868D01*
G37*
G36*
X190249248Y-114875164D02*
G01*
X190273034Y-114903753D01*
X190278819Y-114938243D01*
X190271462Y-114980320D01*
X190247698Y-115003339D01*
X190208156Y-115009902D01*
X190174889Y-115005201D01*
X190152911Y-114994485D01*
X190140448Y-114967370D01*
X190138455Y-114930267D01*
X190146489Y-114896003D01*
X190156805Y-114881392D01*
X190184566Y-114868717D01*
X190208156Y-114865365D01*
X190249248Y-114875164D01*
G37*
G36*
X185293649Y-113279115D02*
G01*
X185331750Y-113300475D01*
X185332435Y-113301151D01*
X185354166Y-113338935D01*
X185359846Y-113385779D01*
X185349966Y-113431684D01*
X185325018Y-113466650D01*
X185324279Y-113467240D01*
X185277196Y-113490196D01*
X185227149Y-113491584D01*
X185181938Y-113471652D01*
X185171255Y-113462332D01*
X185145426Y-113419858D01*
X185140847Y-113370375D01*
X185157767Y-113321682D01*
X185166347Y-113309308D01*
X185200947Y-113284023D01*
X185246714Y-113273795D01*
X185293649Y-113279115D01*
G37*
G36*
X189998258Y-111817179D02*
G01*
X190026881Y-111838299D01*
X190038949Y-111877202D01*
X190039851Y-111897179D01*
X190028826Y-111941334D01*
X190000019Y-111973372D01*
X189959829Y-111989865D01*
X189914655Y-111987384D01*
X189890691Y-111977093D01*
X189869507Y-111951626D01*
X189859360Y-111912773D01*
X189861625Y-111870958D01*
X189872970Y-111842875D01*
X189892413Y-111821557D01*
X189919768Y-111812328D01*
X189949924Y-111810812D01*
X189998258Y-111817179D01*
G37*
G36*
X185291331Y-112078461D02*
G01*
X185321086Y-112108512D01*
X185332406Y-112154872D01*
X185332435Y-112157702D01*
X185327160Y-112198210D01*
X185308852Y-112223884D01*
X185303881Y-112227636D01*
X185259692Y-112245877D01*
X185217129Y-112240058D01*
X185191110Y-112221940D01*
X185170178Y-112186108D01*
X185167725Y-112145517D01*
X185181167Y-112107426D01*
X185207915Y-112079092D01*
X185245383Y-112067771D01*
X185246066Y-112067767D01*
X185291331Y-112078461D01*
G37*
G36*
X190498058Y-114337151D02*
G01*
X190520067Y-114348971D01*
X190542653Y-114378740D01*
X190550179Y-114418917D01*
X190542645Y-114459091D01*
X190520067Y-114488840D01*
X190475879Y-114507081D01*
X190433316Y-114501262D01*
X190407296Y-114483144D01*
X190383637Y-114445493D01*
X190380911Y-114406723D01*
X190395053Y-114371669D01*
X190422001Y-114345166D01*
X190457691Y-114332049D01*
X190498058Y-114337151D01*
G37*
G36*
X183554141Y-114075620D02*
G01*
X183580703Y-114086858D01*
X183585624Y-114091870D01*
X183600337Y-114126744D01*
X183601275Y-114170685D01*
X183589018Y-114211446D01*
X183579296Y-114225550D01*
X183546412Y-114245740D01*
X183504769Y-114251476D01*
X183465953Y-114242202D01*
X183451177Y-114231715D01*
X183426483Y-114191016D01*
X183421959Y-114144213D01*
X183432620Y-114111450D01*
X183450212Y-114089492D01*
X183476863Y-114078462D01*
X183509596Y-114074609D01*
X183554141Y-114075620D01*
G37*
G36*
X188263156Y-112748034D02*
G01*
X188303601Y-112775429D01*
X188328638Y-112820433D01*
X188330589Y-112827742D01*
X188333880Y-112886490D01*
X188316343Y-112934465D01*
X188281716Y-112968431D01*
X188233736Y-112985152D01*
X188176139Y-112981393D01*
X188158987Y-112976296D01*
X188120029Y-112950882D01*
X188096382Y-112911565D01*
X188088195Y-112865187D01*
X188095620Y-112818593D01*
X188118808Y-112778627D01*
X188154080Y-112753640D01*
X188211813Y-112740140D01*
X188263156Y-112748034D01*
G37*
G36*
X189998224Y-111022417D02*
G01*
X190033189Y-111047365D01*
X190033779Y-111048104D01*
X190057386Y-111094331D01*
X190059432Y-111139584D01*
X190043878Y-111179900D01*
X190014684Y-111211321D01*
X189975811Y-111229885D01*
X189931220Y-111231631D01*
X189884871Y-111212599D01*
X189875847Y-111206036D01*
X189850562Y-111171436D01*
X189840334Y-111125669D01*
X189845655Y-111078734D01*
X189867014Y-111040633D01*
X189867691Y-111039947D01*
X189905474Y-111018217D01*
X189952319Y-111012537D01*
X189998224Y-111022417D01*
G37*
G36*
X185534376Y-113537620D02*
G01*
X185574542Y-113556986D01*
X185603481Y-113592001D01*
X185615070Y-113639652D01*
X185615086Y-113641617D01*
X185608210Y-113680145D01*
X185592602Y-113710817D01*
X185560150Y-113733786D01*
X185517083Y-113745820D01*
X185476989Y-113743333D01*
X185473761Y-113742185D01*
X185433626Y-113716658D01*
X185413301Y-113677370D01*
X185409522Y-113640558D01*
X185413225Y-113600412D01*
X185427694Y-113573519D01*
X185444849Y-113557878D01*
X185489104Y-113536913D01*
X185534376Y-113537620D01*
G37*
G36*
X190514796Y-113543797D02*
G01*
X190544342Y-113565507D01*
X190566009Y-113592276D01*
X190572779Y-113620428D01*
X190570439Y-113650785D01*
X190561907Y-113688317D01*
X190549496Y-113716146D01*
X190546223Y-113720184D01*
X190517426Y-113736122D01*
X190477487Y-113745118D01*
X190440615Y-113744412D01*
X190432992Y-113742185D01*
X190392341Y-113716035D01*
X190372130Y-113675902D01*
X190368950Y-113642837D01*
X190371901Y-113598931D01*
X190383234Y-113571599D01*
X190407286Y-113552042D01*
X190416088Y-113547182D01*
X190466811Y-113533074D01*
X190514796Y-113543797D01*
G37*
G36*
X189477405Y-113812458D02*
G01*
X189508182Y-113837541D01*
X189526621Y-113877202D01*
X189528878Y-113921640D01*
X189515568Y-113961001D01*
X189499368Y-113978828D01*
X189469917Y-113989942D01*
X189429190Y-113994427D01*
X189390263Y-113991673D01*
X189370644Y-113984836D01*
X189351041Y-113960435D01*
X189337620Y-113922622D01*
X189334111Y-113883565D01*
X189335956Y-113871685D01*
X189357081Y-113833249D01*
X189392702Y-113809573D01*
X189435312Y-113802147D01*
X189477405Y-113812458D01*
G37*
G36*
X185566953Y-113284771D02*
G01*
X185603340Y-113311585D01*
X185620280Y-113354195D01*
X185616592Y-113410903D01*
X185613925Y-113421472D01*
X185590872Y-113461890D01*
X185551778Y-113486343D01*
X185502226Y-113492751D01*
X185453320Y-113481375D01*
X185425806Y-113458130D01*
X185406681Y-113419701D01*
X185400047Y-113376239D01*
X185402644Y-113356004D01*
X185421371Y-113310695D01*
X185452551Y-113285056D01*
X185500823Y-113275680D01*
X185512304Y-113275456D01*
X185566953Y-113284771D01*
G37*
G36*
X184606403Y-113285010D02*
G01*
X184633454Y-113302500D01*
X184650909Y-113336360D01*
X184658008Y-113380920D01*
X184654497Y-113425404D01*
X184640121Y-113459032D01*
X184637213Y-113462275D01*
X184606189Y-113479250D01*
X184562221Y-113488065D01*
X184517138Y-113487378D01*
X184488374Y-113479163D01*
X184458878Y-113451230D01*
X184442796Y-113409760D01*
X184440701Y-113363474D01*
X184453169Y-113321093D01*
X184476193Y-113294267D01*
X184515541Y-113278509D01*
X184562527Y-113275611D01*
X184606403Y-113285010D01*
G37*
G36*
X189980408Y-114336078D02*
G01*
X190013584Y-114359132D01*
X190032507Y-114397654D01*
X190034712Y-114418905D01*
X190024121Y-114463288D01*
X189996506Y-114493603D01*
X189958105Y-114506699D01*
X189915155Y-114499427D01*
X189896245Y-114488840D01*
X189875194Y-114464869D01*
X189867846Y-114427706D01*
X189867691Y-114418905D01*
X189872967Y-114378397D01*
X189891275Y-114352723D01*
X189896245Y-114348971D01*
X189939216Y-114331641D01*
X189980408Y-114336078D01*
G37*
G36*
X193475448Y-111551806D02*
G01*
X193509513Y-111580354D01*
X193526324Y-111620890D01*
X193522433Y-111667650D01*
X193514528Y-111686391D01*
X193493954Y-111716024D01*
X193467089Y-111729966D01*
X193426517Y-111733332D01*
X193392117Y-111730795D01*
X193368621Y-111724612D01*
X193367414Y-111723893D01*
X193342592Y-111694402D01*
X193329128Y-111653429D01*
X193330068Y-111620111D01*
X193351048Y-111573284D01*
X193386298Y-111547477D01*
X193427576Y-111541010D01*
X193475448Y-111551806D01*
G37*
G36*
X192415740Y-111542705D02*
G01*
X192454453Y-111562251D01*
X192480644Y-111597250D01*
X192488632Y-111637368D01*
X192478352Y-111686191D01*
X192448734Y-111718700D01*
X192401610Y-111733142D01*
X192387841Y-111733726D01*
X192341496Y-111726066D01*
X192317178Y-111710231D01*
X192299749Y-111675873D01*
X192295218Y-111632848D01*
X192303082Y-111591512D01*
X192322832Y-111562218D01*
X192324470Y-111561010D01*
X192370436Y-111541372D01*
X192415740Y-111542705D01*
G37*
G36*
X189042238Y-111022195D02*
G01*
X189077540Y-111046757D01*
X189094692Y-111089044D01*
X189096826Y-111117618D01*
X189086441Y-111168433D01*
X189059053Y-111206427D01*
X189020309Y-111229076D01*
X188975857Y-111233856D01*
X188931344Y-111218243D01*
X188909950Y-111201128D01*
X188885818Y-111165752D01*
X188878424Y-111119812D01*
X188878414Y-111117618D01*
X188886805Y-111065921D01*
X188912756Y-111032506D01*
X188957431Y-111016272D01*
X188987620Y-111014252D01*
X189042238Y-111022195D01*
G37*
G36*
X187305858Y-111023947D02*
G01*
X187341790Y-111051865D01*
X187358519Y-111096251D01*
X187357989Y-111136174D01*
X187340610Y-111185501D01*
X187307368Y-111218574D01*
X187263902Y-111233208D01*
X187215851Y-111227214D01*
X187177820Y-111206036D01*
X187152535Y-111171436D01*
X187142307Y-111125669D01*
X187147627Y-111078734D01*
X187168987Y-111040633D01*
X187169664Y-111039947D01*
X187203205Y-111020234D01*
X187252241Y-111014252D01*
X187305858Y-111023947D01*
G37*
G36*
X187282380Y-114336078D02*
G01*
X187315557Y-114359132D01*
X187334480Y-114397654D01*
X187336684Y-114418905D01*
X187326093Y-114463288D01*
X187298479Y-114493603D01*
X187260078Y-114506699D01*
X187217128Y-114499427D01*
X187198218Y-114488840D01*
X187177167Y-114464869D01*
X187169818Y-114427706D01*
X187169664Y-114418905D01*
X187174939Y-114378397D01*
X187193247Y-114352723D01*
X187198218Y-114348971D01*
X187241188Y-114331641D01*
X187282380Y-114336078D01*
G37*
G36*
X188526394Y-113285151D02*
G01*
X188562327Y-113313069D01*
X188579055Y-113357455D01*
X188578525Y-113397378D01*
X188561146Y-113446705D01*
X188527904Y-113479778D01*
X188484438Y-113494412D01*
X188436387Y-113488418D01*
X188398356Y-113467240D01*
X188373071Y-113432640D01*
X188362843Y-113386873D01*
X188368163Y-113339938D01*
X188389523Y-113301837D01*
X188390200Y-113301151D01*
X188423741Y-113281438D01*
X188472778Y-113275456D01*
X188526394Y-113285151D01*
G37*
G36*
X191997225Y-111551225D02*
G01*
X192029814Y-111580531D01*
X192043731Y-111626922D01*
X192044100Y-111637368D01*
X192033851Y-111686635D01*
X192004678Y-111719447D01*
X191958939Y-111733402D01*
X191949491Y-111733726D01*
X191911765Y-111729428D01*
X191882492Y-111718946D01*
X191880526Y-111717624D01*
X191863496Y-111694415D01*
X191851758Y-111659670D01*
X191851214Y-111656593D01*
X191853920Y-111606254D01*
X191877280Y-111567552D01*
X191917546Y-111544964D01*
X191947967Y-111541010D01*
X191997225Y-111551225D01*
G37*
G36*
X183568463Y-113284283D02*
G01*
X183604366Y-113310848D01*
X183621817Y-113355273D01*
X183623685Y-113381244D01*
X183613123Y-113431116D01*
X183585329Y-113468318D01*
X183546144Y-113490317D01*
X183501404Y-113494581D01*
X183456951Y-113478575D01*
X183436808Y-113462332D01*
X183412676Y-113426956D01*
X183405283Y-113381016D01*
X183405273Y-113378822D01*
X183413714Y-113327064D01*
X183439766Y-113293606D01*
X183484519Y-113277407D01*
X183513978Y-113275456D01*
X183568463Y-113284283D01*
G37*
G36*
X185291331Y-114339665D02*
G01*
X185321086Y-114369716D01*
X185332406Y-114416076D01*
X185332435Y-114418905D01*
X185327160Y-114459414D01*
X185308852Y-114485088D01*
X185303881Y-114488840D01*
X185259692Y-114507081D01*
X185217129Y-114501262D01*
X185191110Y-114483144D01*
X185170178Y-114447311D01*
X185167725Y-114406721D01*
X185181167Y-114368630D01*
X185207915Y-114340296D01*
X185245383Y-114328974D01*
X185246066Y-114328971D01*
X185291331Y-114339665D01*
G37*
G36*
X185544229Y-114339349D02*
G01*
X185576043Y-114365468D01*
X185595145Y-114399803D01*
X185596497Y-114429188D01*
X185575104Y-114473778D01*
X185539367Y-114500090D01*
X185494547Y-114505091D01*
X185473761Y-114499924D01*
X185441176Y-114477145D01*
X185425397Y-114442974D01*
X185425118Y-114404241D01*
X185439032Y-114367780D01*
X185465831Y-114340423D01*
X185504208Y-114329001D01*
X185506464Y-114328971D01*
X185544229Y-114339349D01*
G37*
G36*
X183802134Y-112072664D02*
G01*
X183834677Y-112095866D01*
X183852903Y-112135802D01*
X183854944Y-112157702D01*
X183849669Y-112198210D01*
X183831361Y-112223884D01*
X183826390Y-112227636D01*
X183782201Y-112245877D01*
X183739638Y-112240058D01*
X183713619Y-112221940D01*
X183692570Y-112186320D01*
X183687888Y-112144605D01*
X183699365Y-112106607D01*
X183716478Y-112087768D01*
X183760868Y-112069023D01*
X183802134Y-112072664D01*
G37*
G36*
X187975448Y-111276416D02*
G01*
X188015615Y-111295783D01*
X188044554Y-111330797D01*
X188056142Y-111378448D01*
X188056158Y-111380413D01*
X188049283Y-111418941D01*
X188033675Y-111449613D01*
X188001222Y-111472582D01*
X187958155Y-111484616D01*
X187918061Y-111482129D01*
X187914833Y-111480981D01*
X187874698Y-111455454D01*
X187854374Y-111416166D01*
X187850594Y-111379354D01*
X187854297Y-111339208D01*
X187868766Y-111312315D01*
X187885922Y-111296674D01*
X187930176Y-111275709D01*
X187975448Y-111276416D01*
G37*
G36*
X188000748Y-111820275D02*
G01*
X188031394Y-111847998D01*
X188043205Y-111892983D01*
X188043311Y-111898546D01*
X188032588Y-111943169D01*
X188004518Y-111974457D01*
X187965249Y-111989481D01*
X187920931Y-111985308D01*
X187891996Y-111970681D01*
X187870892Y-111946594D01*
X187863581Y-111909237D01*
X187863442Y-111900936D01*
X187871389Y-111852508D01*
X187896241Y-111823120D01*
X187939516Y-111811233D01*
X187952303Y-111810812D01*
X188000748Y-111820275D01*
G37*
G36*
X183572749Y-112754555D02*
G01*
X183612380Y-112784037D01*
X183633355Y-112830881D01*
X183636533Y-112864328D01*
X183625409Y-112917606D01*
X183594792Y-112957756D01*
X183548810Y-112981760D01*
X183491594Y-112986598D01*
X183472980Y-112983886D01*
X183434360Y-112964570D01*
X183407672Y-112928538D01*
X183394563Y-112882622D01*
X183396678Y-112833652D01*
X183415665Y-112788460D01*
X183423439Y-112778322D01*
X183447513Y-112755457D01*
X183474525Y-112745280D01*
X183515590Y-112743559D01*
X183572749Y-112754555D01*
G37*
G36*
X186498046Y-111542850D02*
G01*
X186537265Y-111561010D01*
X186558058Y-111589406D01*
X186566846Y-111630263D01*
X186563282Y-111673142D01*
X186547018Y-111707603D01*
X186542324Y-111712463D01*
X186506426Y-111729877D01*
X186461291Y-111732842D01*
X186418676Y-111721720D01*
X186398799Y-111708030D01*
X186377942Y-111670977D01*
X186373103Y-111637368D01*
X186383877Y-111591338D01*
X186412246Y-111558403D01*
X186452279Y-111541321D01*
X186498046Y-111542850D01*
G37*
G36*
X191980951Y-112078146D02*
G01*
X192012765Y-112104264D01*
X192031868Y-112138600D01*
X192033219Y-112167984D01*
X192013502Y-112208209D01*
X191980659Y-112235477D01*
X191941619Y-112247243D01*
X191903313Y-112240961D01*
X191880355Y-112224141D01*
X191861139Y-112186859D01*
X191860802Y-112145326D01*
X191876429Y-112106797D01*
X191905105Y-112078527D01*
X191943186Y-112067767D01*
X191980951Y-112078146D01*
G37*
G36*
X192679928Y-112072664D02*
G01*
X192712472Y-112095866D01*
X192730697Y-112135802D01*
X192732739Y-112157702D01*
X192722536Y-112204504D01*
X192694241Y-112235721D01*
X192651328Y-112247615D01*
X192649229Y-112247636D01*
X192618549Y-112240375D01*
X192594272Y-112227636D01*
X192573221Y-112203665D01*
X192565873Y-112166502D01*
X192565718Y-112157702D01*
X192570994Y-112117193D01*
X192589302Y-112091520D01*
X192594272Y-112087768D01*
X192638663Y-112069023D01*
X192679928Y-112072664D01*
G37*
G36*
X188526394Y-111023947D02*
G01*
X188562327Y-111051865D01*
X188579055Y-111096251D01*
X188578525Y-111136174D01*
X188561146Y-111185501D01*
X188527904Y-111218574D01*
X188484438Y-111233208D01*
X188436387Y-111227214D01*
X188398356Y-111206036D01*
X188373071Y-111171436D01*
X188362843Y-111125669D01*
X188368163Y-111078734D01*
X188389523Y-111040633D01*
X188390200Y-111039947D01*
X188423741Y-111020234D01*
X188472778Y-111014252D01*
X188526394Y-111023947D01*
G37*
G36*
X188265032Y-113015990D02*
G01*
X188303411Y-113045656D01*
X188323449Y-113092629D01*
X188325961Y-113121283D01*
X188315624Y-113175983D01*
X188285958Y-113214362D01*
X188238985Y-113234401D01*
X188210331Y-113236913D01*
X188163937Y-113230377D01*
X188128759Y-113207844D01*
X188126237Y-113205377D01*
X188102322Y-113170570D01*
X188094735Y-113125428D01*
X188094702Y-113121283D01*
X188105039Y-113066582D01*
X188134704Y-113028203D01*
X188181678Y-113008165D01*
X188210331Y-113005653D01*
X188265032Y-113015990D01*
G37*
G36*
X183545179Y-114333868D02*
G01*
X183577722Y-114357070D01*
X183595948Y-114397006D01*
X183597989Y-114418905D01*
X183587786Y-114465708D01*
X183559492Y-114496925D01*
X183516578Y-114508819D01*
X183514479Y-114508840D01*
X183483800Y-114501579D01*
X183459523Y-114488840D01*
X183436937Y-114459071D01*
X183429411Y-114418894D01*
X183436945Y-114378720D01*
X183459523Y-114348971D01*
X183503914Y-114330226D01*
X183545179Y-114333868D01*
G37*
G36*
X190015639Y-111295952D02*
G01*
X190042904Y-111332167D01*
X190051938Y-111380941D01*
X190046402Y-111417210D01*
X190028974Y-111453758D01*
X189997552Y-111474311D01*
X189993967Y-111475613D01*
X189964748Y-111485215D01*
X189945120Y-111487252D01*
X189920757Y-111482140D01*
X189906337Y-111478147D01*
X189871755Y-111456260D01*
X189850737Y-111417431D01*
X189846704Y-111368330D01*
X189847353Y-111363207D01*
X189859976Y-111317499D01*
X189884686Y-111290469D01*
X189920818Y-111277249D01*
X189973743Y-111276308D01*
X190015639Y-111295952D01*
G37*
G36*
X190967466Y-111023947D02*
G01*
X191003399Y-111051865D01*
X191020127Y-111096251D01*
X191019597Y-111136174D01*
X191002219Y-111185501D01*
X190968976Y-111218574D01*
X190925510Y-111233208D01*
X190877460Y-111227214D01*
X190839429Y-111206036D01*
X190814144Y-111171436D01*
X190803916Y-111125669D01*
X190809236Y-111078734D01*
X190830595Y-111040633D01*
X190831272Y-111039947D01*
X190864813Y-111020234D01*
X190913850Y-111014252D01*
X190967466Y-111023947D01*
G37*
G36*
X184593284Y-111284381D02*
G01*
X184624783Y-111302398D01*
X184644390Y-111334465D01*
X184652124Y-111377423D01*
X184647684Y-111420479D01*
X184630770Y-111452840D01*
X184629021Y-111454507D01*
X184587736Y-111476675D01*
X184536247Y-111483425D01*
X184513504Y-111480799D01*
X184478619Y-111462141D01*
X184455713Y-111427309D01*
X184446651Y-111383751D01*
X184453302Y-111338915D01*
X184470265Y-111308254D01*
X184503550Y-111285447D01*
X184547958Y-111277360D01*
X184593284Y-111284381D01*
G37*
G36*
X186514185Y-113279115D02*
G01*
X186552286Y-113300475D01*
X186552972Y-113301151D01*
X186574702Y-113338935D01*
X186580382Y-113385779D01*
X186570502Y-113431684D01*
X186545554Y-113466650D01*
X186544815Y-113467240D01*
X186497732Y-113490196D01*
X186447685Y-113491584D01*
X186402474Y-113471652D01*
X186391791Y-113462332D01*
X186365962Y-113419858D01*
X186361383Y-113370375D01*
X186378303Y-113321682D01*
X186386883Y-113309308D01*
X186421483Y-113284023D01*
X186467250Y-113273795D01*
X186514185Y-113279115D01*
G37*
G36*
X188777688Y-113283621D02*
G01*
X188812653Y-113308568D01*
X188813243Y-113309308D01*
X188836850Y-113355535D01*
X188838896Y-113400788D01*
X188823341Y-113441104D01*
X188794148Y-113472525D01*
X188755275Y-113491089D01*
X188710684Y-113492835D01*
X188664335Y-113473803D01*
X188655311Y-113467240D01*
X188630026Y-113432640D01*
X188619798Y-113386873D01*
X188625118Y-113339938D01*
X188646478Y-113301837D01*
X188647155Y-113301151D01*
X188684938Y-113279421D01*
X188731783Y-113273741D01*
X188777688Y-113283621D01*
G37*
G36*
X184073112Y-111017911D02*
G01*
X184111213Y-111039271D01*
X184111899Y-111039947D01*
X184133630Y-111077731D01*
X184139309Y-111124575D01*
X184129430Y-111170481D01*
X184104482Y-111205446D01*
X184103743Y-111206036D01*
X184056660Y-111228992D01*
X184006613Y-111230380D01*
X183961401Y-111210448D01*
X183950718Y-111201128D01*
X183924890Y-111158654D01*
X183920311Y-111109171D01*
X183937231Y-111060478D01*
X183945811Y-111048104D01*
X183980411Y-111022819D01*
X184026178Y-111012591D01*
X184073112Y-111017911D01*
G37*
G36*
X192456711Y-111295952D02*
G01*
X192483976Y-111332167D01*
X192493011Y-111380941D01*
X192487474Y-111417210D01*
X192470046Y-111453758D01*
X192438624Y-111474311D01*
X192435039Y-111475613D01*
X192405821Y-111485215D01*
X192386193Y-111487252D01*
X192361829Y-111482140D01*
X192347409Y-111478147D01*
X192312828Y-111456260D01*
X192291810Y-111417431D01*
X192287777Y-111368330D01*
X192288425Y-111363207D01*
X192301048Y-111317499D01*
X192325759Y-111290469D01*
X192361891Y-111277249D01*
X192414815Y-111276308D01*
X192456711Y-111295952D01*
G37*
G36*
X186509274Y-111280927D02*
G01*
X186547381Y-111300620D01*
X186559026Y-111313122D01*
X186575796Y-111355863D01*
X186575781Y-111404030D01*
X186559230Y-111445670D01*
X186556184Y-111449613D01*
X186523731Y-111472582D01*
X186480664Y-111484616D01*
X186440570Y-111482129D01*
X186437342Y-111480981D01*
X186396691Y-111454831D01*
X186376480Y-111414698D01*
X186373300Y-111381634D01*
X186376196Y-111337918D01*
X186387525Y-111310627D01*
X186411862Y-111290780D01*
X186422635Y-111284802D01*
X186463925Y-111274872D01*
X186509274Y-111280927D01*
G37*
G36*
X188256869Y-113812458D02*
G01*
X188287646Y-113837541D01*
X188306085Y-113877202D01*
X188308342Y-113921640D01*
X188295031Y-113961001D01*
X188278832Y-113978828D01*
X188249381Y-113989942D01*
X188208654Y-113994427D01*
X188169727Y-113991673D01*
X188150108Y-113984836D01*
X188130505Y-113960435D01*
X188117084Y-113922622D01*
X188113575Y-113883565D01*
X188115420Y-113871685D01*
X188136545Y-113833249D01*
X188172165Y-113809573D01*
X188214776Y-113802147D01*
X188256869Y-113812458D01*
G37*
G36*
X185567004Y-110754786D02*
G01*
X185605384Y-110784452D01*
X185625422Y-110831426D01*
X185627934Y-110860079D01*
X185617942Y-110914732D01*
X185588721Y-110952625D01*
X185541396Y-110972676D01*
X185507397Y-110975709D01*
X185466625Y-110972422D01*
X185439999Y-110959600D01*
X185423302Y-110941857D01*
X185398635Y-110893501D01*
X185395450Y-110844251D01*
X185411258Y-110799627D01*
X185443569Y-110765153D01*
X185489893Y-110746348D01*
X185512304Y-110744449D01*
X185567004Y-110754786D01*
G37*
G36*
X186776883Y-113811284D02*
G01*
X186811013Y-113840541D01*
X186828006Y-113874391D01*
X186829120Y-113907724D01*
X186819001Y-113946182D01*
X186801664Y-113977080D01*
X186793063Y-113984836D01*
X186767672Y-113992012D01*
X186730427Y-113994248D01*
X186694250Y-113991515D01*
X186673737Y-113985097D01*
X186652155Y-113960136D01*
X186635404Y-113923675D01*
X186630058Y-113894725D01*
X186637727Y-113867598D01*
X186656222Y-113836660D01*
X186656686Y-113836066D01*
X186692965Y-113807535D01*
X186735283Y-113799778D01*
X186776883Y-113811284D01*
G37*
G36*
X191996398Y-111820275D02*
G01*
X192027044Y-111847998D01*
X192038855Y-111892983D01*
X192038960Y-111898546D01*
X192028237Y-111943169D01*
X192000168Y-111974457D01*
X191960899Y-111989481D01*
X191916581Y-111985308D01*
X191887646Y-111970681D01*
X191866542Y-111946594D01*
X191859231Y-111909237D01*
X191859092Y-111900936D01*
X191867039Y-111852508D01*
X191891891Y-111823120D01*
X191935166Y-111811233D01*
X191947953Y-111810812D01*
X191996398Y-111820275D01*
G37*
G36*
X189479384Y-114079651D02*
G01*
X189500612Y-114092206D01*
X189517562Y-114124377D01*
X189521136Y-114165859D01*
X189511991Y-114205679D01*
X189492247Y-114231885D01*
X189448432Y-114249586D01*
X189403011Y-114247142D01*
X189366629Y-114226189D01*
X189346448Y-114191057D01*
X189341541Y-114148453D01*
X189352089Y-114109292D01*
X189364428Y-114093279D01*
X189397068Y-114077337D01*
X189439345Y-114072763D01*
X189479384Y-114079651D01*
G37*
G36*
X190959219Y-111546702D02*
G01*
X190967462Y-111550842D01*
X190995261Y-111582956D01*
X191008335Y-111626318D01*
X191005565Y-111671141D01*
X190985831Y-111707641D01*
X190985445Y-111708030D01*
X190950977Y-111727682D01*
X190907367Y-111733975D01*
X190865479Y-111726746D01*
X190839687Y-111710231D01*
X190822258Y-111675873D01*
X190817727Y-111632848D01*
X190825590Y-111591512D01*
X190845341Y-111562218D01*
X190846979Y-111561010D01*
X190881641Y-111546511D01*
X190923330Y-111541381D01*
X190959219Y-111546702D01*
G37*
G36*
X184609662Y-111560032D02*
G01*
X184637219Y-111592619D01*
X184648036Y-111637028D01*
X184646535Y-111656593D01*
X184635570Y-111691673D01*
X184618730Y-111716432D01*
X184617223Y-111717624D01*
X184580250Y-111731888D01*
X184535589Y-111732560D01*
X184495043Y-111720504D01*
X184477482Y-111707391D01*
X184457349Y-111669047D01*
X184454162Y-111624351D01*
X184467501Y-111583513D01*
X184483338Y-111565050D01*
X184527043Y-111543062D01*
X184571044Y-111542451D01*
X184609662Y-111560032D01*
G37*
G36*
X188759872Y-114336078D02*
G01*
X188793048Y-114359132D01*
X188811971Y-114397654D01*
X188814175Y-114418905D01*
X188803585Y-114463288D01*
X188775970Y-114493603D01*
X188737569Y-114506699D01*
X188694619Y-114499427D01*
X188675709Y-114488840D01*
X188654658Y-114464869D01*
X188647309Y-114427706D01*
X188647155Y-114418905D01*
X188652430Y-114378397D01*
X188670738Y-114352723D01*
X188675709Y-114348971D01*
X188718680Y-114331641D01*
X188759872Y-114336078D01*
G37*
G36*
X186787541Y-113015990D02*
G01*
X186825920Y-113045656D01*
X186845958Y-113092629D01*
X186848470Y-113121283D01*
X186838479Y-113175936D01*
X186809257Y-113213829D01*
X186761932Y-113233880D01*
X186727933Y-113236913D01*
X186687161Y-113233626D01*
X186660535Y-113220804D01*
X186643838Y-113203061D01*
X186619172Y-113154705D01*
X186615987Y-113105454D01*
X186631794Y-113060831D01*
X186664105Y-113026357D01*
X186710429Y-113007552D01*
X186732840Y-113005653D01*
X186787541Y-113015990D01*
G37*
G36*
X189488549Y-113285013D02*
G01*
X189515598Y-113302506D01*
X189532125Y-113335377D01*
X189538870Y-113379555D01*
X189535666Y-113424211D01*
X189522344Y-113458512D01*
X189518107Y-113463525D01*
X189488988Y-113479130D01*
X189446354Y-113488008D01*
X189401839Y-113488702D01*
X189371449Y-113481872D01*
X189343009Y-113457114D01*
X189326564Y-113417774D01*
X189322705Y-113372295D01*
X189332020Y-113329122D01*
X189355101Y-113296697D01*
X189358338Y-113294267D01*
X189397688Y-113278507D01*
X189444674Y-113275610D01*
X189488549Y-113285013D01*
G37*
G36*
X185544229Y-112078146D02*
G01*
X185576043Y-112104264D01*
X185595145Y-112138600D01*
X185596497Y-112167984D01*
X185575104Y-112212574D01*
X185539367Y-112238886D01*
X185494547Y-112243887D01*
X185473761Y-112238720D01*
X185441176Y-112215941D01*
X185425397Y-112181770D01*
X185425118Y-112143038D01*
X185439032Y-112106577D01*
X185465831Y-112079219D01*
X185504208Y-112067798D01*
X185506464Y-112067767D01*
X185544229Y-112078146D01*
G37*
G36*
X188517719Y-111816300D02*
G01*
X188543699Y-111835462D01*
X188555484Y-111872349D01*
X188557220Y-111905597D01*
X188546453Y-111947127D01*
X188518714Y-111976377D01*
X188480852Y-111990709D01*
X188439713Y-111987486D01*
X188403047Y-111964985D01*
X188381635Y-111926947D01*
X188379955Y-111881413D01*
X188397352Y-111839367D01*
X188418011Y-111819934D01*
X188449442Y-111811760D01*
X188473987Y-111810812D01*
X188517719Y-111816300D01*
G37*
G36*
X185566953Y-111023568D02*
G01*
X185603340Y-111050381D01*
X185620280Y-111092991D01*
X185616592Y-111149699D01*
X185613925Y-111160268D01*
X185590872Y-111200686D01*
X185551778Y-111225140D01*
X185502226Y-111231547D01*
X185453320Y-111220171D01*
X185425806Y-111196926D01*
X185406681Y-111158497D01*
X185400047Y-111115035D01*
X185402644Y-111094800D01*
X185421371Y-111049491D01*
X185452551Y-111023852D01*
X185500823Y-111014476D01*
X185512304Y-111014252D01*
X185566953Y-111023568D01*
G37*
G36*
X185319389Y-110494247D02*
G01*
X185346000Y-110513906D01*
X185365009Y-110548535D01*
X185372020Y-110595373D01*
X185367105Y-110643947D01*
X185350336Y-110683782D01*
X185344783Y-110690636D01*
X185321112Y-110710948D01*
X185303028Y-110718929D01*
X185277760Y-110721317D01*
X185261773Y-110723866D01*
X185227144Y-110725247D01*
X185208512Y-110722973D01*
X185172077Y-110703567D01*
X185145362Y-110666874D01*
X185131014Y-110620307D01*
X185131679Y-110571283D01*
X185142804Y-110538885D01*
X185174996Y-110502836D01*
X185220313Y-110482746D01*
X185271021Y-110479566D01*
X185319389Y-110494247D01*
G37*
G36*
X187006706Y-114334133D02*
G01*
X187050419Y-114351697D01*
X187072866Y-114383569D01*
X187074677Y-114430659D01*
X187074515Y-114431711D01*
X187057460Y-114476874D01*
X187026917Y-114502943D01*
X186988351Y-114508177D01*
X186947226Y-114490837D01*
X186931396Y-114477304D01*
X186905066Y-114439190D01*
X186904197Y-114401758D01*
X186928813Y-114363211D01*
X186932832Y-114359071D01*
X186961606Y-114336520D01*
X186990823Y-114331807D01*
X187006706Y-114334133D01*
G37*
G36*
X190508489Y-114609258D02*
G01*
X190537445Y-114636965D01*
X190548495Y-114676278D01*
X190538570Y-114721578D01*
X190535322Y-114728096D01*
X190513217Y-114745614D01*
X190477950Y-114753230D01*
X190440235Y-114750536D01*
X190410789Y-114737123D01*
X190406728Y-114732991D01*
X190394376Y-114705630D01*
X190390166Y-114675860D01*
X190399275Y-114631801D01*
X190426371Y-114606034D01*
X190464693Y-114598774D01*
X190508489Y-114609258D01*
G37*
G36*
X186754912Y-113537620D02*
G01*
X186795079Y-113556986D01*
X186824018Y-113592001D01*
X186835606Y-113639652D01*
X186835622Y-113641617D01*
X186828746Y-113680145D01*
X186813139Y-113710817D01*
X186780686Y-113733786D01*
X186737619Y-113745820D01*
X186697525Y-113743333D01*
X186694297Y-113742185D01*
X186654162Y-113716658D01*
X186633838Y-113677370D01*
X186630058Y-113640558D01*
X186633761Y-113600412D01*
X186648230Y-113573519D01*
X186665385Y-113557878D01*
X186709640Y-113536913D01*
X186754912Y-113537620D01*
G37*
G36*
X187305858Y-113285151D02*
G01*
X187341790Y-113313069D01*
X187358519Y-113357455D01*
X187357989Y-113397378D01*
X187340610Y-113446705D01*
X187307368Y-113479778D01*
X187263902Y-113494412D01*
X187215851Y-113488418D01*
X187177820Y-113467240D01*
X187152535Y-113432640D01*
X187142307Y-113386873D01*
X187147627Y-113339938D01*
X187168987Y-113301837D01*
X187169664Y-113301151D01*
X187203205Y-113281438D01*
X187252241Y-113275456D01*
X187305858Y-113285151D01*
G37*
G36*
X187997420Y-111550080D02*
G01*
X188031549Y-111579338D01*
X188048542Y-111613187D01*
X188049656Y-111646520D01*
X188039537Y-111684978D01*
X188022200Y-111715876D01*
X188013599Y-111723632D01*
X187988208Y-111730809D01*
X187950963Y-111733044D01*
X187914786Y-111730311D01*
X187894273Y-111723893D01*
X187872691Y-111698933D01*
X187855940Y-111662471D01*
X187850594Y-111633521D01*
X187858264Y-111606394D01*
X187876758Y-111575456D01*
X187877222Y-111574862D01*
X187913502Y-111546331D01*
X187955819Y-111538574D01*
X187997420Y-111550080D01*
G37*
G36*
X190952920Y-111284381D02*
G01*
X190984419Y-111302398D01*
X191004026Y-111334465D01*
X191011759Y-111377423D01*
X191007320Y-111420479D01*
X190990406Y-111452840D01*
X190988657Y-111454507D01*
X190947372Y-111476675D01*
X190895882Y-111483425D01*
X190873140Y-111480799D01*
X190838255Y-111462141D01*
X190815349Y-111427309D01*
X190806287Y-111383751D01*
X190812937Y-111338915D01*
X190829900Y-111308254D01*
X190863186Y-111285447D01*
X190907594Y-111277360D01*
X190952920Y-111284381D01*
G37*
G36*
X184332362Y-112612861D02*
G01*
X184352397Y-112628321D01*
X184366694Y-112664806D01*
X184360717Y-112699638D01*
X184339730Y-112728328D01*
X184308996Y-112746390D01*
X184273780Y-112749336D01*
X184239346Y-112732678D01*
X184234871Y-112728509D01*
X184217031Y-112694220D01*
X184219006Y-112653507D01*
X184232038Y-112627090D01*
X184258898Y-112609358D01*
X184296214Y-112604655D01*
X184332362Y-112612861D01*
G37*
G36*
X184339140Y-114081479D02*
G01*
X184369786Y-114109202D01*
X184381597Y-114154187D01*
X184381702Y-114159750D01*
X184370979Y-114204373D01*
X184342909Y-114235661D01*
X184303641Y-114250684D01*
X184259322Y-114246511D01*
X184230388Y-114231885D01*
X184209283Y-114207798D01*
X184201972Y-114170441D01*
X184201834Y-114162140D01*
X184209781Y-114113712D01*
X184234633Y-114084324D01*
X184277908Y-114072437D01*
X184290694Y-114072016D01*
X184339140Y-114081479D01*
G37*
G36*
X187557185Y-114078383D02*
G01*
X187585809Y-114099503D01*
X187597877Y-114138406D01*
X187598778Y-114158383D01*
X187587754Y-114202538D01*
X187558947Y-114234576D01*
X187518757Y-114251069D01*
X187473583Y-114248588D01*
X187449619Y-114238297D01*
X187428435Y-114212830D01*
X187418288Y-114173977D01*
X187420553Y-114132162D01*
X187431898Y-114104079D01*
X187451341Y-114082761D01*
X187478696Y-114073532D01*
X187508852Y-114072016D01*
X187557185Y-114078383D01*
G37*
G36*
X185556347Y-111550080D02*
G01*
X185590477Y-111579338D01*
X185607470Y-111613187D01*
X185608583Y-111646520D01*
X185598465Y-111684978D01*
X185581128Y-111715876D01*
X185572527Y-111723632D01*
X185547136Y-111730809D01*
X185509891Y-111733044D01*
X185473714Y-111730311D01*
X185453200Y-111723893D01*
X185431619Y-111698933D01*
X185414868Y-111662471D01*
X185409522Y-111633521D01*
X185417191Y-111606394D01*
X185435686Y-111575456D01*
X185436150Y-111574862D01*
X185472429Y-111546331D01*
X185514746Y-111538574D01*
X185556347Y-111550080D01*
G37*
G36*
X186787489Y-113284771D02*
G01*
X186823876Y-113311585D01*
X186840816Y-113354195D01*
X186837128Y-113410903D01*
X186834461Y-113421472D01*
X186811408Y-113461890D01*
X186772314Y-113486343D01*
X186722762Y-113492751D01*
X186673857Y-113481375D01*
X186646342Y-113458130D01*
X186627217Y-113419701D01*
X186620583Y-113376239D01*
X186623180Y-113356004D01*
X186641907Y-113310695D01*
X186673087Y-113285056D01*
X186721359Y-113275680D01*
X186732840Y-113275456D01*
X186787489Y-113284771D01*
G37*
G36*
X188513021Y-114340544D02*
G01*
X188542529Y-114370253D01*
X188556798Y-114410585D01*
X188557220Y-114418905D01*
X188546675Y-114463126D01*
X188519292Y-114493358D01*
X188481453Y-114506616D01*
X188439541Y-114499917D01*
X188415304Y-114485249D01*
X188391292Y-114451904D01*
X188386908Y-114412718D01*
X188399492Y-114374637D01*
X188426386Y-114344608D01*
X188464928Y-114329577D01*
X188475133Y-114328971D01*
X188513021Y-114340544D01*
G37*
G36*
X186764765Y-112078146D02*
G01*
X186796579Y-112104264D01*
X186815682Y-112138600D01*
X186817033Y-112167984D01*
X186795640Y-112212574D01*
X186759903Y-112238886D01*
X186715083Y-112243887D01*
X186694297Y-112238720D01*
X186661712Y-112215941D01*
X186645933Y-112181770D01*
X186645654Y-112143038D01*
X186659568Y-112106577D01*
X186686367Y-112079219D01*
X186724745Y-112067798D01*
X186727000Y-112067767D01*
X186764765Y-112078146D01*
G37*
G36*
X183558512Y-113013990D02*
G01*
X183597978Y-113038510D01*
X183624654Y-113078864D01*
X183629863Y-113116874D01*
X183623251Y-113160600D01*
X183607616Y-113199676D01*
X183585752Y-113223737D01*
X183585550Y-113223846D01*
X183544821Y-113235728D01*
X183497237Y-113236054D01*
X183454033Y-113225721D01*
X183431295Y-113211544D01*
X183402191Y-113165769D01*
X183397008Y-113111516D01*
X183404423Y-113078891D01*
X183429386Y-113038221D01*
X183467719Y-113013846D01*
X183512926Y-113005769D01*
X183558512Y-113013990D01*
G37*
G36*
X185786170Y-112072929D02*
G01*
X185829883Y-112090493D01*
X185852329Y-112122365D01*
X185854141Y-112169455D01*
X185853979Y-112170507D01*
X185836924Y-112215670D01*
X185806381Y-112241739D01*
X185767815Y-112246974D01*
X185726689Y-112229634D01*
X185710860Y-112216101D01*
X185684529Y-112177986D01*
X185683661Y-112140554D01*
X185708277Y-112102007D01*
X185712296Y-112097867D01*
X185741070Y-112075316D01*
X185770287Y-112070603D01*
X185786170Y-112072929D01*
G37*
G36*
X184313839Y-113537620D02*
G01*
X184354006Y-113556986D01*
X184382945Y-113592001D01*
X184394534Y-113639652D01*
X184394550Y-113641617D01*
X184387674Y-113680145D01*
X184372066Y-113710817D01*
X184339613Y-113733786D01*
X184296547Y-113745820D01*
X184256453Y-113743333D01*
X184253225Y-113742185D01*
X184213090Y-113716658D01*
X184192765Y-113677370D01*
X184188986Y-113640558D01*
X184192689Y-113600412D01*
X184207158Y-113573519D01*
X184224313Y-113557878D01*
X184268567Y-113536913D01*
X184313839Y-113537620D01*
G37*
G36*
X188008025Y-113284771D02*
G01*
X188044412Y-113311585D01*
X188061353Y-113354195D01*
X188057664Y-113410903D01*
X188054997Y-113421472D01*
X188031944Y-113461890D01*
X187992850Y-113486343D01*
X187943298Y-113492751D01*
X187894393Y-113481375D01*
X187866879Y-113458130D01*
X187847753Y-113419701D01*
X187841119Y-113376239D01*
X187843716Y-113356004D01*
X187862443Y-113310695D01*
X187893624Y-113285056D01*
X187941895Y-113275680D01*
X187953376Y-113275456D01*
X188008025Y-113284771D01*
G37*
G36*
X193479003Y-111288646D02*
G01*
X193512962Y-111318410D01*
X193528538Y-111365212D01*
X193529299Y-111380413D01*
X193518447Y-111429665D01*
X193488558Y-111464627D01*
X193443636Y-111482387D01*
X193391299Y-111480799D01*
X193355980Y-111461518D01*
X193332274Y-111423505D01*
X193323735Y-111373121D01*
X193333738Y-111324960D01*
X193363176Y-111293336D01*
X193411195Y-111279019D01*
X193428915Y-111278215D01*
X193479003Y-111288646D01*
G37*
G36*
X190506842Y-114075792D02*
G01*
X190532138Y-114089466D01*
X190541469Y-114100570D01*
X190559935Y-114144155D01*
X190557512Y-114185349D01*
X190538611Y-114219933D01*
X190507638Y-114243686D01*
X190469005Y-114252387D01*
X190427118Y-114241815D01*
X190407435Y-114228885D01*
X190385091Y-114198502D01*
X190379031Y-114157875D01*
X190384889Y-114111370D01*
X190405009Y-114084338D01*
X190443213Y-114073004D01*
X190465956Y-114072016D01*
X190506842Y-114075792D01*
G37*
G36*
X193475034Y-111818447D02*
G01*
X193496262Y-111831002D01*
X193513212Y-111863173D01*
X193516786Y-111904655D01*
X193507641Y-111944475D01*
X193487897Y-111970681D01*
X193444082Y-111988382D01*
X193398661Y-111985938D01*
X193362279Y-111964985D01*
X193342098Y-111929853D01*
X193337191Y-111887249D01*
X193347739Y-111848088D01*
X193360078Y-111832075D01*
X193392718Y-111816133D01*
X193434995Y-111811559D01*
X193475034Y-111818447D01*
G37*
G36*
X189980408Y-112074874D02*
G01*
X190013584Y-112097928D01*
X190032507Y-112136450D01*
X190034712Y-112157702D01*
X190024121Y-112202084D01*
X189996506Y-112232399D01*
X189958105Y-112245495D01*
X189915155Y-112238224D01*
X189896245Y-112227636D01*
X189875194Y-112203665D01*
X189867846Y-112166502D01*
X189867691Y-112157702D01*
X189872967Y-112117193D01*
X189891275Y-112091520D01*
X189896245Y-112087768D01*
X189939216Y-112070437D01*
X189980408Y-112074874D01*
G37*
G36*
X184061336Y-112075948D02*
G01*
X184083345Y-112087768D01*
X184105931Y-112117536D01*
X184113457Y-112157713D01*
X184105923Y-112197887D01*
X184083345Y-112227636D01*
X184039156Y-112245877D01*
X183996593Y-112240058D01*
X183970574Y-112221940D01*
X183946915Y-112184289D01*
X183944189Y-112145520D01*
X183958331Y-112110466D01*
X183985279Y-112083962D01*
X184020968Y-112070845D01*
X184061336Y-112075948D01*
G37*
G36*
X184594792Y-112343737D02*
G01*
X184610392Y-112352987D01*
X184621720Y-112378350D01*
X184625348Y-112415791D01*
X184621276Y-112452873D01*
X184610392Y-112476326D01*
X184583148Y-112489475D01*
X184546077Y-112492137D01*
X184510173Y-112485139D01*
X184486426Y-112469308D01*
X184484936Y-112466892D01*
X184472638Y-112424510D01*
X184477056Y-112382824D01*
X184491826Y-112357759D01*
X184520541Y-112342914D01*
X184559018Y-112338073D01*
X184594792Y-112343737D01*
G37*
G36*
X187047477Y-111023809D02*
G01*
X187074526Y-111041302D01*
X187091052Y-111074173D01*
X187097798Y-111118351D01*
X187094593Y-111163007D01*
X187081271Y-111197309D01*
X187077034Y-111202322D01*
X187047915Y-111217927D01*
X187005281Y-111226804D01*
X186960767Y-111227498D01*
X186930377Y-111220668D01*
X186901937Y-111195910D01*
X186885492Y-111156570D01*
X186881632Y-111111091D01*
X186890948Y-111067918D01*
X186914029Y-111035493D01*
X186917265Y-111033063D01*
X186956615Y-111017303D01*
X187003602Y-111014407D01*
X187047477Y-111023809D01*
G37*
G36*
X187557152Y-113283621D02*
G01*
X187592117Y-113308568D01*
X187592707Y-113309308D01*
X187612739Y-113349190D01*
X187619335Y-113386978D01*
X187608446Y-113434478D01*
X187579721Y-113469590D01*
X187539069Y-113489747D01*
X187492399Y-113492377D01*
X187445621Y-113474911D01*
X187434775Y-113467240D01*
X187409490Y-113432640D01*
X187399262Y-113386873D01*
X187404582Y-113339938D01*
X187425942Y-113301837D01*
X187426619Y-113301151D01*
X187464402Y-113279421D01*
X187511246Y-113273741D01*
X187557152Y-113283621D01*
G37*
G36*
X185550115Y-112747762D02*
G01*
X185556166Y-112749831D01*
X185593262Y-112766999D01*
X185614356Y-112791240D01*
X185623977Y-112814983D01*
X185633168Y-112873284D01*
X185622131Y-112923652D01*
X185592490Y-112961317D01*
X185569644Y-112974560D01*
X185539221Y-112986586D01*
X185517721Y-112990429D01*
X185493056Y-112986519D01*
X185463688Y-112978318D01*
X185421797Y-112954071D01*
X185395681Y-112913098D01*
X185387921Y-112860721D01*
X185392043Y-112830543D01*
X185405383Y-112793929D01*
X185429877Y-112769501D01*
X185453638Y-112756255D01*
X185488551Y-112741388D01*
X185515893Y-112738859D01*
X185550115Y-112747762D01*
G37*
G36*
X193461325Y-112344319D02*
G01*
X193490557Y-112370498D01*
X193503405Y-112412680D01*
X193503604Y-112419429D01*
X193496892Y-112460767D01*
X193474472Y-112483773D01*
X193432918Y-112491660D01*
X193426517Y-112491743D01*
X193391313Y-112487695D01*
X193366536Y-112477802D01*
X193364848Y-112476326D01*
X193351699Y-112449081D01*
X193349037Y-112412011D01*
X193356035Y-112376107D01*
X193371866Y-112352360D01*
X193374282Y-112350870D01*
X193420853Y-112336867D01*
X193461325Y-112344319D01*
G37*
G36*
X185556347Y-113811284D02*
G01*
X185590477Y-113840541D01*
X185607470Y-113874391D01*
X185608583Y-113907724D01*
X185598465Y-113946182D01*
X185581128Y-113977080D01*
X185572527Y-113984836D01*
X185547136Y-113992012D01*
X185509891Y-113994248D01*
X185473714Y-113991515D01*
X185453200Y-113985097D01*
X185431619Y-113960136D01*
X185414868Y-113923675D01*
X185409522Y-113894725D01*
X185417191Y-113867598D01*
X185435686Y-113836660D01*
X185436150Y-113836066D01*
X185472429Y-113807535D01*
X185514746Y-113799778D01*
X185556347Y-113811284D01*
G37*
G36*
X192439330Y-111817179D02*
G01*
X192467953Y-111838299D01*
X192480021Y-111877202D01*
X192480923Y-111897179D01*
X192469899Y-111941334D01*
X192441092Y-111973372D01*
X192400901Y-111989865D01*
X192355728Y-111987384D01*
X192331763Y-111977093D01*
X192310580Y-111951626D01*
X192300432Y-111912773D01*
X192302697Y-111870958D01*
X192314043Y-111842875D01*
X192333486Y-111821557D01*
X192360840Y-111812328D01*
X192390997Y-111810812D01*
X192439330Y-111817179D01*
G37*
G36*
X189042238Y-113283398D02*
G01*
X189077540Y-113307961D01*
X189094692Y-113350248D01*
X189096826Y-113378822D01*
X189086441Y-113429637D01*
X189059053Y-113467631D01*
X189020309Y-113490280D01*
X188975857Y-113495060D01*
X188931344Y-113479447D01*
X188909950Y-113462332D01*
X188885818Y-113426956D01*
X188878424Y-113381016D01*
X188878414Y-113378822D01*
X188886805Y-113327125D01*
X188912756Y-113293710D01*
X188957431Y-113277476D01*
X188987620Y-113275456D01*
X189042238Y-113283398D01*
G37*
G36*
X187282380Y-112074874D02*
G01*
X187315557Y-112097928D01*
X187334480Y-112136450D01*
X187336684Y-112157702D01*
X187326093Y-112202084D01*
X187298479Y-112232399D01*
X187260078Y-112245495D01*
X187217128Y-112238224D01*
X187198218Y-112227636D01*
X187177167Y-112203665D01*
X187169818Y-112166502D01*
X187169664Y-112157702D01*
X187174939Y-112117193D01*
X187193247Y-112091520D01*
X187198218Y-112087768D01*
X187241188Y-112070437D01*
X187282380Y-112074874D01*
G37*
G36*
X190493696Y-113804054D02*
G01*
X190532915Y-113822214D01*
X190553707Y-113850610D01*
X190562496Y-113891467D01*
X190558932Y-113934346D01*
X190542668Y-113968807D01*
X190537974Y-113973667D01*
X190502076Y-113991081D01*
X190456941Y-113994046D01*
X190414326Y-113982923D01*
X190394449Y-113969234D01*
X190373592Y-113932181D01*
X190368753Y-113898572D01*
X190379527Y-113852542D01*
X190407896Y-113819607D01*
X190447929Y-113802525D01*
X190493696Y-113804054D01*
G37*
G36*
X188268013Y-113285013D02*
G01*
X188295062Y-113302506D01*
X188311588Y-113335377D01*
X188318334Y-113379555D01*
X188315130Y-113424211D01*
X188301807Y-113458512D01*
X188297570Y-113463525D01*
X188268451Y-113479130D01*
X188225818Y-113488008D01*
X188181303Y-113488702D01*
X188150913Y-113481872D01*
X188122473Y-113457114D01*
X188106028Y-113417774D01*
X188102169Y-113372295D01*
X188111484Y-113329122D01*
X188134565Y-113296697D01*
X188137802Y-113294267D01*
X188177151Y-113278507D01*
X188224138Y-113275610D01*
X188268013Y-113285013D01*
G37*
G36*
X191218760Y-111022417D02*
G01*
X191253725Y-111047365D01*
X191254315Y-111048104D01*
X191277922Y-111094331D01*
X191279968Y-111139584D01*
X191264414Y-111179900D01*
X191235220Y-111211321D01*
X191196347Y-111229885D01*
X191151756Y-111231631D01*
X191105408Y-111212599D01*
X191096384Y-111206036D01*
X191071099Y-111171436D01*
X191060871Y-111125669D01*
X191066191Y-111078734D01*
X191087550Y-111040633D01*
X191088227Y-111039947D01*
X191126010Y-111018217D01*
X191172855Y-111012537D01*
X191218760Y-111022417D01*
G37*
G36*
X192690320Y-112613960D02*
G01*
X192714106Y-112642549D01*
X192719891Y-112677039D01*
X192712534Y-112719116D01*
X192688770Y-112742135D01*
X192649229Y-112748698D01*
X192615961Y-112743997D01*
X192593983Y-112733281D01*
X192581520Y-112706166D01*
X192579527Y-112669064D01*
X192587561Y-112634800D01*
X192597877Y-112620188D01*
X192625639Y-112607513D01*
X192649229Y-112604161D01*
X192690320Y-112613960D01*
G37*
G36*
X185550115Y-110486558D02*
G01*
X185556166Y-110488627D01*
X185593262Y-110505796D01*
X185614356Y-110530036D01*
X185623977Y-110553779D01*
X185633168Y-110612080D01*
X185622131Y-110662448D01*
X185592490Y-110700113D01*
X185569644Y-110713356D01*
X185539221Y-110725382D01*
X185517721Y-110729225D01*
X185493056Y-110725315D01*
X185463688Y-110717114D01*
X185421797Y-110692867D01*
X185395681Y-110651894D01*
X185387921Y-110599517D01*
X185392043Y-110569339D01*
X185405383Y-110532725D01*
X185429877Y-110508297D01*
X185453638Y-110495051D01*
X185488551Y-110480184D01*
X185515893Y-110477655D01*
X185550115Y-110486558D01*
G37*
G36*
X188254893Y-113545584D02*
G01*
X188286392Y-113563601D01*
X188305998Y-113595669D01*
X188313732Y-113638627D01*
X188309292Y-113681682D01*
X188292379Y-113714044D01*
X188290630Y-113715711D01*
X188249344Y-113737879D01*
X188197855Y-113744629D01*
X188175113Y-113742003D01*
X188140228Y-113723345D01*
X188117321Y-113688513D01*
X188108260Y-113644955D01*
X188114910Y-113600118D01*
X188131873Y-113569457D01*
X188165159Y-113546651D01*
X188209567Y-113538564D01*
X188254893Y-113545584D01*
G37*
G36*
X183560233Y-113811469D02*
G01*
X183585142Y-113827909D01*
X183605998Y-113864963D01*
X183610837Y-113898572D01*
X183600557Y-113947395D01*
X183570940Y-113979903D01*
X183523815Y-113994346D01*
X183510046Y-113994930D01*
X183463702Y-113987270D01*
X183439384Y-113971435D01*
X183424960Y-113942908D01*
X183418193Y-113904732D01*
X183418121Y-113900772D01*
X183428332Y-113850816D01*
X183457431Y-113817333D01*
X183503113Y-113802678D01*
X183514479Y-113802214D01*
X183560233Y-113811469D01*
G37*
G36*
X188992503Y-114074609D02*
G01*
X189032533Y-114080230D01*
X189056324Y-114093341D01*
X189069479Y-114111450D01*
X189082541Y-114155015D01*
X189075318Y-114194396D01*
X189052820Y-114226135D01*
X189020058Y-114246775D01*
X188982041Y-114252858D01*
X188943779Y-114240925D01*
X188916886Y-114216756D01*
X188896770Y-114179025D01*
X188896758Y-114144106D01*
X188910108Y-114102403D01*
X188932960Y-114080457D01*
X188971336Y-114073897D01*
X188992503Y-114074609D01*
G37*
G36*
X193476119Y-111020173D02*
G01*
X193505499Y-111035630D01*
X193506517Y-111036736D01*
X193533163Y-111084297D01*
X193535180Y-111138682D01*
X193528970Y-111163000D01*
X193503412Y-111204172D01*
X193462602Y-111227583D01*
X193411337Y-111231543D01*
X193367099Y-111220011D01*
X193338868Y-111196139D01*
X193322406Y-111157493D01*
X193318300Y-111112436D01*
X193327135Y-111069327D01*
X193349498Y-111036529D01*
X193353988Y-111033063D01*
X193389766Y-111018635D01*
X193434009Y-111014423D01*
X193476119Y-111020173D01*
G37*
G36*
X183542243Y-113538375D02*
G01*
X183581599Y-113556828D01*
X183606957Y-113590273D01*
X183617810Y-113631833D01*
X183613651Y-113674633D01*
X183593975Y-113711796D01*
X183558274Y-113736445D01*
X183556872Y-113736947D01*
X183527341Y-113746015D01*
X183509818Y-113749147D01*
X183509350Y-113749073D01*
X183491886Y-113745518D01*
X183472048Y-113741667D01*
X183444103Y-113724913D01*
X183421814Y-113692708D01*
X183408292Y-113640354D01*
X183416936Y-113594287D01*
X183444282Y-113558945D01*
X183486869Y-113538766D01*
X183541232Y-113538189D01*
X183542243Y-113538375D01*
G37*
G36*
X189733558Y-114340544D02*
G01*
X189763065Y-114370253D01*
X189777334Y-114410585D01*
X189777757Y-114418905D01*
X189767211Y-114463126D01*
X189739828Y-114493358D01*
X189701989Y-114506616D01*
X189660078Y-114499917D01*
X189635840Y-114485249D01*
X189611828Y-114451904D01*
X189607444Y-114412718D01*
X189620028Y-114374637D01*
X189646922Y-114344608D01*
X189685465Y-114329577D01*
X189695670Y-114328971D01*
X189733558Y-114340544D01*
G37*
G36*
X184056974Y-113804054D02*
G01*
X184096193Y-113822214D01*
X184116985Y-113850610D01*
X184125774Y-113891467D01*
X184122210Y-113934346D01*
X184105945Y-113968807D01*
X184101252Y-113973667D01*
X184065354Y-113991081D01*
X184020218Y-113994046D01*
X183977603Y-113982923D01*
X183957726Y-113969234D01*
X183936870Y-113932181D01*
X183932031Y-113898572D01*
X183942805Y-113852542D01*
X183971174Y-113819607D01*
X184011207Y-113802525D01*
X184056974Y-113804054D01*
G37*
G36*
X185559676Y-111820275D02*
G01*
X185590322Y-111847998D01*
X185602133Y-111892983D01*
X185602238Y-111898546D01*
X185591515Y-111943169D01*
X185563445Y-111974457D01*
X185524177Y-111989481D01*
X185479859Y-111985308D01*
X185450924Y-111970681D01*
X185429819Y-111946594D01*
X185422508Y-111909237D01*
X185422370Y-111900936D01*
X185430317Y-111852508D01*
X185455169Y-111823120D01*
X185498444Y-111811233D01*
X185511230Y-111810812D01*
X185559676Y-111820275D01*
G37*
G36*
X183560233Y-111550265D02*
G01*
X183585142Y-111566705D01*
X183605998Y-111603759D01*
X183610837Y-111637368D01*
X183600557Y-111686191D01*
X183570940Y-111718700D01*
X183523815Y-111733142D01*
X183510046Y-111733726D01*
X183463702Y-111726066D01*
X183439384Y-111710231D01*
X183424960Y-111681704D01*
X183418193Y-111643528D01*
X183418121Y-111639568D01*
X183428332Y-111589613D01*
X183457431Y-111556129D01*
X183503113Y-111541475D01*
X183514479Y-111541010D01*
X183560233Y-111550265D01*
G37*
G36*
X183812525Y-112613960D02*
G01*
X183836312Y-112642549D01*
X183842097Y-112677039D01*
X183834739Y-112719116D01*
X183810976Y-112742135D01*
X183771434Y-112748698D01*
X183738167Y-112743997D01*
X183716189Y-112733281D01*
X183703726Y-112706166D01*
X183701732Y-112669064D01*
X183709767Y-112634800D01*
X183720082Y-112620188D01*
X183747844Y-112607513D01*
X183771434Y-112604161D01*
X183812525Y-112613960D01*
G37*
G36*
X190958791Y-111816300D02*
G01*
X190984772Y-111835462D01*
X190996556Y-111872349D01*
X190998293Y-111905597D01*
X190987525Y-111947127D01*
X190959787Y-111976377D01*
X190921925Y-111990709D01*
X190880786Y-111987486D01*
X190844120Y-111964985D01*
X190822707Y-111926947D01*
X190821027Y-111881413D01*
X190838424Y-111839367D01*
X190859084Y-111819934D01*
X190890514Y-111811760D01*
X190915059Y-111810812D01*
X190958791Y-111816300D01*
G37*
G36*
X188258848Y-114079651D02*
G01*
X188280076Y-114092206D01*
X188297026Y-114124377D01*
X188300600Y-114165859D01*
X188291454Y-114205679D01*
X188271711Y-114231885D01*
X188227896Y-114249586D01*
X188182475Y-114247142D01*
X188146092Y-114226189D01*
X188125911Y-114191057D01*
X188121005Y-114148453D01*
X188131553Y-114109292D01*
X188143892Y-114093279D01*
X188176532Y-114077337D01*
X188218809Y-114072763D01*
X188258848Y-114079651D01*
G37*
G36*
X192939050Y-112610408D02*
G01*
X192957535Y-112620188D01*
X192971813Y-112645797D01*
X192976349Y-112682532D01*
X192970701Y-112717566D01*
X192961429Y-112733281D01*
X192933553Y-112746821D01*
X192897452Y-112748260D01*
X192864676Y-112738567D01*
X192848821Y-112723847D01*
X192835074Y-112678891D01*
X192841924Y-112640478D01*
X192866870Y-112613830D01*
X192906184Y-112604161D01*
X192939050Y-112610408D01*
G37*
G36*
X193479219Y-112083695D02*
G01*
X193501028Y-112104238D01*
X193508965Y-112140856D01*
X193509444Y-112159301D01*
X193499892Y-112206664D01*
X193474732Y-112236977D01*
X193439206Y-112248207D01*
X193398554Y-112238321D01*
X193366683Y-112214665D01*
X193344132Y-112185891D01*
X193339419Y-112156674D01*
X193341744Y-112140790D01*
X193359441Y-112097000D01*
X193391494Y-112074491D01*
X193438256Y-112072808D01*
X193479219Y-112083695D01*
G37*
G36*
X187537893Y-111277171D02*
G01*
X187577249Y-111295624D01*
X187602607Y-111329069D01*
X187613460Y-111370630D01*
X187609301Y-111413430D01*
X187589625Y-111450592D01*
X187553924Y-111475241D01*
X187552522Y-111475743D01*
X187523590Y-111485247D01*
X187504075Y-111487261D01*
X187479746Y-111482179D01*
X187465162Y-111478159D01*
X187431219Y-111457142D01*
X187410971Y-111421535D01*
X187404747Y-111378692D01*
X187412872Y-111335966D01*
X187435675Y-111300713D01*
X187456619Y-111286169D01*
X187505928Y-111274859D01*
X187537893Y-111277171D01*
G37*
G36*
X184565634Y-112072929D02*
G01*
X184609347Y-112090493D01*
X184631793Y-112122365D01*
X184633605Y-112169455D01*
X184633443Y-112170507D01*
X184616387Y-112215670D01*
X184585845Y-112241739D01*
X184547279Y-112246974D01*
X184506153Y-112229634D01*
X184490324Y-112216101D01*
X184463993Y-112177986D01*
X184463125Y-112140554D01*
X184487741Y-112102007D01*
X184491760Y-112097867D01*
X184520534Y-112075316D01*
X184549750Y-112070603D01*
X184565634Y-112072929D01*
G37*
G36*
X189731912Y-114873281D02*
G01*
X189744953Y-114880856D01*
X189761150Y-114908839D01*
X189763436Y-114946207D01*
X189751837Y-114980759D01*
X189744720Y-114989713D01*
X189714031Y-115005988D01*
X189676347Y-115008536D01*
X189643872Y-114997301D01*
X189636062Y-114990185D01*
X189624328Y-114961885D01*
X189621425Y-114924387D01*
X189627453Y-114890538D01*
X189635194Y-114877523D01*
X189660728Y-114866635D01*
X189697210Y-114865350D01*
X189731912Y-114873281D01*
G37*
G36*
X190004557Y-110490790D02*
G01*
X190044171Y-110521610D01*
X190068294Y-110567408D01*
X190073255Y-110604140D01*
X190062080Y-110656800D01*
X190031383Y-110696611D01*
X189985405Y-110720499D01*
X189928388Y-110725391D01*
X189909702Y-110722682D01*
X189872384Y-110703213D01*
X189844512Y-110665316D01*
X189830435Y-110615744D01*
X189829556Y-110598179D01*
X189837101Y-110545253D01*
X189860833Y-110509510D01*
X189899231Y-110487715D01*
X189954545Y-110478355D01*
X190004557Y-110490790D01*
G37*
G36*
X184339930Y-112090333D02*
G01*
X184351397Y-112100533D01*
X184374821Y-112138908D01*
X184373762Y-112179629D01*
X184348569Y-112218435D01*
X184341188Y-112225152D01*
X184307168Y-112244087D01*
X184268655Y-112242847D01*
X184244719Y-112234806D01*
X184215854Y-112210471D01*
X184204603Y-112169901D01*
X184208344Y-112131611D01*
X184227476Y-112092322D01*
X184259768Y-112071480D01*
X184299244Y-112070385D01*
X184339930Y-112090333D01*
G37*
G36*
X193205596Y-111018402D02*
G01*
X193242222Y-111033153D01*
X193268589Y-111066487D01*
X193277607Y-111114251D01*
X193270829Y-111161553D01*
X193247953Y-111201307D01*
X193208914Y-111225165D01*
X193159113Y-111231208D01*
X193108349Y-111219346D01*
X193078392Y-111194808D01*
X193061551Y-111155533D01*
X193058695Y-111109376D01*
X193070696Y-111064193D01*
X193088196Y-111037579D01*
X193117869Y-111020912D01*
X193160569Y-111014417D01*
X193205596Y-111018402D01*
G37*
G36*
X188759872Y-112074874D02*
G01*
X188793048Y-112097928D01*
X188811971Y-112136450D01*
X188814175Y-112157702D01*
X188803585Y-112202084D01*
X188775970Y-112232399D01*
X188737569Y-112245495D01*
X188694619Y-112238224D01*
X188675709Y-112227636D01*
X188654658Y-112203665D01*
X188647309Y-112166502D01*
X188647155Y-112157702D01*
X188652430Y-112117193D01*
X188670738Y-112091520D01*
X188675709Y-112087768D01*
X188718680Y-112070437D01*
X188759872Y-112074874D01*
G37*
G36*
X193201488Y-112078146D02*
G01*
X193233301Y-112104264D01*
X193252404Y-112138600D01*
X193253755Y-112167984D01*
X193233489Y-112210321D01*
X193200366Y-112237159D01*
X193160928Y-112246119D01*
X193121715Y-112234823D01*
X193105324Y-112221940D01*
X193083868Y-112185405D01*
X193081707Y-112144574D01*
X193096134Y-112106593D01*
X193124443Y-112078609D01*
X193163723Y-112067767D01*
X193201488Y-112078146D01*
G37*
G36*
X189974668Y-111542705D02*
G01*
X190013381Y-111562251D01*
X190039572Y-111597250D01*
X190047559Y-111637368D01*
X190037280Y-111686191D01*
X190007662Y-111718700D01*
X189960538Y-111733142D01*
X189946769Y-111733726D01*
X189900424Y-111726066D01*
X189876106Y-111710231D01*
X189858676Y-111675873D01*
X189854146Y-111632848D01*
X189862009Y-111591512D01*
X189881760Y-111562218D01*
X189883397Y-111561010D01*
X189929363Y-111541372D01*
X189974668Y-111542705D01*
G37*
G36*
X189746930Y-111023947D02*
G01*
X189782863Y-111051865D01*
X189799591Y-111096251D01*
X189799061Y-111136174D01*
X189781682Y-111185501D01*
X189748440Y-111218574D01*
X189704974Y-111233208D01*
X189656923Y-111227214D01*
X189618892Y-111206036D01*
X189593607Y-111171436D01*
X189583379Y-111125669D01*
X189588700Y-111078734D01*
X189610059Y-111040633D01*
X189610736Y-111039947D01*
X189644277Y-111020234D01*
X189693314Y-111014252D01*
X189746930Y-111023947D01*
G37*
G36*
X187006706Y-112072929D02*
G01*
X187050419Y-112090493D01*
X187072866Y-112122365D01*
X187074677Y-112169455D01*
X187074515Y-112170507D01*
X187057460Y-112215670D01*
X187026917Y-112241739D01*
X186988351Y-112246974D01*
X186947226Y-112229634D01*
X186931396Y-112216101D01*
X186905066Y-112177986D01*
X186904197Y-112140554D01*
X186928813Y-112102007D01*
X186932832Y-112097867D01*
X186961606Y-112075316D01*
X186990823Y-112070603D01*
X187006706Y-112072929D01*
G37*
G36*
X192950907Y-111017911D02*
G01*
X192989008Y-111039271D01*
X192989694Y-111039947D01*
X193011424Y-111077731D01*
X193017104Y-111124575D01*
X193007225Y-111170481D01*
X192982277Y-111205446D01*
X192981537Y-111206036D01*
X192934455Y-111228992D01*
X192884408Y-111230380D01*
X192839196Y-111210448D01*
X192828513Y-111201128D01*
X192802684Y-111158654D01*
X192798105Y-111109171D01*
X192815025Y-111060478D01*
X192823606Y-111048104D01*
X192858205Y-111022819D01*
X192903973Y-111012591D01*
X192950907Y-111017911D01*
G37*
G36*
X188008025Y-111023568D02*
G01*
X188044412Y-111050381D01*
X188061353Y-111092991D01*
X188057664Y-111149699D01*
X188054997Y-111160268D01*
X188031944Y-111200686D01*
X187992850Y-111225140D01*
X187943298Y-111231547D01*
X187894393Y-111220171D01*
X187866879Y-111196926D01*
X187847753Y-111158497D01*
X187841119Y-111115035D01*
X187843716Y-111094800D01*
X187862443Y-111049491D01*
X187893624Y-111023852D01*
X187941895Y-111014476D01*
X187953376Y-111014252D01*
X188008025Y-111023568D01*
G37*
G36*
X187047477Y-113285013D02*
G01*
X187074526Y-113302506D01*
X187091052Y-113335377D01*
X187097798Y-113379555D01*
X187094593Y-113424211D01*
X187081271Y-113458512D01*
X187077034Y-113463525D01*
X187047915Y-113479130D01*
X187005281Y-113488008D01*
X186960767Y-113488702D01*
X186930377Y-113481872D01*
X186901937Y-113457114D01*
X186885492Y-113417774D01*
X186881632Y-113372295D01*
X186890948Y-113329122D01*
X186914029Y-113296697D01*
X186917265Y-113294267D01*
X186956615Y-113278507D01*
X187003602Y-113275610D01*
X187047477Y-113285013D01*
G37*
G36*
X192948589Y-112078461D02*
G01*
X192978345Y-112108512D01*
X192989664Y-112154872D01*
X192989694Y-112157702D01*
X192984418Y-112198210D01*
X192966110Y-112223884D01*
X192961140Y-112227636D01*
X192916951Y-112245877D01*
X192874388Y-112240058D01*
X192848369Y-112221940D01*
X192827436Y-112186108D01*
X192824984Y-112145517D01*
X192838425Y-112107426D01*
X192865174Y-112079092D01*
X192902642Y-112067771D01*
X192903325Y-112067767D01*
X192948589Y-112078461D01*
G37*
G36*
X188512211Y-111284042D02*
G01*
X188512972Y-111284328D01*
X188545754Y-111300786D01*
X188563003Y-111323430D01*
X188569346Y-111360173D01*
X188569871Y-111381634D01*
X188559745Y-111432122D01*
X188530827Y-111466698D01*
X188485959Y-111483318D01*
X188432068Y-111480799D01*
X188397509Y-111462133D01*
X188374386Y-111427096D01*
X188364895Y-111383296D01*
X188371233Y-111338339D01*
X188383792Y-111313626D01*
X188417183Y-111286577D01*
X188462937Y-111276047D01*
X188512211Y-111284042D01*
G37*
G36*
X186524943Y-111821627D02*
G01*
X186554211Y-111852038D01*
X186565746Y-111898998D01*
X186565819Y-111903605D01*
X186554951Y-111945334D01*
X186526653Y-111974737D01*
X186487388Y-111988952D01*
X186443616Y-111985113D01*
X186414505Y-111970681D01*
X186395073Y-111950022D01*
X186386898Y-111918591D01*
X186385951Y-111894046D01*
X186391438Y-111850314D01*
X186410601Y-111824334D01*
X186447488Y-111812549D01*
X186480736Y-111810812D01*
X186524943Y-111821627D01*
G37*
G36*
X192703846Y-111022195D02*
G01*
X192739149Y-111046757D01*
X192756300Y-111089044D01*
X192758434Y-111117618D01*
X192748050Y-111168433D01*
X192720662Y-111206427D01*
X192681918Y-111229076D01*
X192637465Y-111233856D01*
X192592953Y-111218243D01*
X192571558Y-111201128D01*
X192547426Y-111165752D01*
X192540032Y-111119812D01*
X192540023Y-111117618D01*
X192548414Y-111065921D01*
X192574365Y-111032506D01*
X192619040Y-111016272D01*
X192649229Y-111014252D01*
X192703846Y-111022195D01*
G37*
G36*
X183781374Y-111014599D02*
G01*
X183824152Y-111023369D01*
X183854449Y-111039462D01*
X183854944Y-111039947D01*
X183876675Y-111077731D01*
X183882354Y-111124575D01*
X183872475Y-111170481D01*
X183847527Y-111205446D01*
X183846788Y-111206036D01*
X183799705Y-111228992D01*
X183749658Y-111230380D01*
X183704446Y-111210448D01*
X183693763Y-111201128D01*
X183670281Y-111161957D01*
X183663447Y-111114495D01*
X183672642Y-111067779D01*
X183697246Y-111030847D01*
X183705907Y-111024085D01*
X183737998Y-111014416D01*
X183781374Y-111014599D01*
G37*
G36*
X184597239Y-111818447D02*
G01*
X184618468Y-111831002D01*
X184635418Y-111863173D01*
X184638992Y-111904655D01*
X184629846Y-111944475D01*
X184610103Y-111970681D01*
X184566288Y-111988382D01*
X184520867Y-111985938D01*
X184484484Y-111964985D01*
X184464303Y-111929853D01*
X184459396Y-111887249D01*
X184469944Y-111848088D01*
X184482284Y-111832075D01*
X184514923Y-111816133D01*
X184557201Y-111811559D01*
X184597239Y-111818447D01*
G37*
G36*
X183554141Y-111814416D02*
G01*
X183580703Y-111825654D01*
X183585624Y-111830666D01*
X183600337Y-111865540D01*
X183601275Y-111909481D01*
X183589018Y-111950242D01*
X183579296Y-111964346D01*
X183546412Y-111984536D01*
X183504769Y-111990272D01*
X183465953Y-111980998D01*
X183451177Y-111970511D01*
X183426483Y-111929812D01*
X183421959Y-111883010D01*
X183432620Y-111850246D01*
X183450212Y-111828288D01*
X183476863Y-111817259D01*
X183509596Y-111813406D01*
X183554141Y-111814416D01*
G37*
G36*
X187533595Y-111542705D02*
G01*
X187572308Y-111562251D01*
X187598499Y-111597250D01*
X187606487Y-111637368D01*
X187596207Y-111686191D01*
X187566590Y-111718700D01*
X187519465Y-111733142D01*
X187505696Y-111733726D01*
X187459351Y-111726066D01*
X187435034Y-111710231D01*
X187417604Y-111675873D01*
X187413074Y-111632848D01*
X187420937Y-111591512D01*
X187440687Y-111562218D01*
X187442325Y-111561010D01*
X187488291Y-111541372D01*
X187533595Y-111542705D01*
G37*
G36*
X185534376Y-111276416D02*
G01*
X185574542Y-111295783D01*
X185603481Y-111330797D01*
X185615070Y-111378448D01*
X185615086Y-111380413D01*
X185608210Y-111418941D01*
X185592602Y-111449613D01*
X185560150Y-111472582D01*
X185517083Y-111484616D01*
X185476989Y-111482129D01*
X185473761Y-111480981D01*
X185433626Y-111455454D01*
X185413301Y-111416166D01*
X185409522Y-111379354D01*
X185413225Y-111339208D01*
X185427694Y-111312315D01*
X185444849Y-111296674D01*
X185489104Y-111275709D01*
X185534376Y-111276416D01*
G37*
G36*
X186770651Y-112747762D02*
G01*
X186776702Y-112749831D01*
X186813798Y-112766999D01*
X186834892Y-112791240D01*
X186844513Y-112814983D01*
X186853705Y-112873284D01*
X186842667Y-112923652D01*
X186813026Y-112961317D01*
X186790180Y-112974560D01*
X186759757Y-112986586D01*
X186738257Y-112990429D01*
X186713592Y-112986519D01*
X186684224Y-112978318D01*
X186642333Y-112954071D01*
X186616218Y-112913098D01*
X186608457Y-112860721D01*
X186612579Y-112830543D01*
X186625919Y-112793929D01*
X186650413Y-112769501D01*
X186674174Y-112756255D01*
X186709087Y-112741388D01*
X186736430Y-112738859D01*
X186770651Y-112747762D01*
G37*
G36*
X183820257Y-113812493D02*
G01*
X183852766Y-113842111D01*
X183867208Y-113889235D01*
X183867792Y-113903004D01*
X183859391Y-113950874D01*
X183833298Y-113980804D01*
X183788180Y-113994024D01*
X183767939Y-113994930D01*
X183727312Y-113990534D01*
X183701912Y-113974911D01*
X183695076Y-113966376D01*
X183675438Y-113920410D01*
X183676771Y-113875105D01*
X183696317Y-113836392D01*
X183731316Y-113810201D01*
X183771434Y-113802214D01*
X183820257Y-113812493D01*
G37*
G36*
X184346417Y-111023568D02*
G01*
X184382803Y-111050381D01*
X184399744Y-111092991D01*
X184396055Y-111149699D01*
X184393389Y-111160268D01*
X184370336Y-111200686D01*
X184331242Y-111225140D01*
X184281690Y-111231547D01*
X184232784Y-111220171D01*
X184205270Y-111196926D01*
X184186144Y-111158497D01*
X184179511Y-111115035D01*
X184182107Y-111094800D01*
X184200834Y-111049491D01*
X184232015Y-111023852D01*
X184280287Y-111014476D01*
X184291768Y-111014252D01*
X184346417Y-111023568D01*
G37*
G36*
X184606403Y-111023806D02*
G01*
X184633454Y-111041296D01*
X184650909Y-111075156D01*
X184658008Y-111119717D01*
X184654497Y-111164200D01*
X184640121Y-111197828D01*
X184637213Y-111201071D01*
X184606189Y-111218046D01*
X184562221Y-111226861D01*
X184517138Y-111226174D01*
X184488374Y-111217959D01*
X184458878Y-111190026D01*
X184442796Y-111148556D01*
X184440701Y-111102270D01*
X184453169Y-111059890D01*
X184476193Y-111033063D01*
X184515541Y-111017305D01*
X184562527Y-111014407D01*
X184606403Y-111023806D01*
G37*
G36*
X189035092Y-111282914D02*
G01*
X189070292Y-111310378D01*
X189090434Y-111352948D01*
X189091058Y-111407112D01*
X189090862Y-111408176D01*
X189078427Y-111443267D01*
X189052206Y-111465066D01*
X189038659Y-111471322D01*
X189005593Y-111484150D01*
X188983027Y-111487296D01*
X188957865Y-111481252D01*
X188940441Y-111475019D01*
X188908364Y-111450664D01*
X188888850Y-111409962D01*
X188885038Y-111360470D01*
X188887107Y-111346584D01*
X188904232Y-111310635D01*
X188937368Y-111287348D01*
X188989298Y-111274066D01*
X189035092Y-111282914D01*
G37*
G36*
X188992503Y-111813406D02*
G01*
X189032533Y-111819026D01*
X189056324Y-111832138D01*
X189069479Y-111850246D01*
X189082541Y-111893811D01*
X189075318Y-111933192D01*
X189052820Y-111964931D01*
X189020058Y-111985571D01*
X188982041Y-111991654D01*
X188943779Y-111979722D01*
X188916886Y-111955552D01*
X188896770Y-111917821D01*
X188896758Y-111882902D01*
X188910108Y-111841199D01*
X188932960Y-111819253D01*
X188971336Y-111812693D01*
X188992503Y-111813406D01*
G37*
G36*
X193205554Y-112608434D02*
G01*
X193226330Y-112621153D01*
X193237997Y-112648250D01*
X193239388Y-112653579D01*
X193238817Y-112693617D01*
X193219911Y-112725450D01*
X193189151Y-112745243D01*
X193153019Y-112749165D01*
X193117997Y-112733382D01*
X193112665Y-112728509D01*
X193093345Y-112694219D01*
X193094561Y-112657621D01*
X193113051Y-112626097D01*
X193145552Y-112607028D01*
X193167476Y-112604499D01*
X193205554Y-112608434D01*
G37*
%TD*%
%LPC*%
D13*
%TO.C,U1*%
X75982352Y-67235752D03*
%TD*%
D14*
%TO.C,P5*%
X131140952Y-130522835D03*
%TD*%
D13*
%TO.C,U2*%
X222591152Y-67235752D03*
%TD*%
%TO.C,U4*%
X222581182Y-126872412D03*
%TD*%
D15*
%TO.C,P4*%
X228067352Y-110863235D03*
%TD*%
%TO.C,P1*%
X79121752Y-110863235D03*
%TD*%
D13*
%TO.C,U3*%
X75982352Y-126874952D03*
%TD*%
D15*
%TO.C,P2*%
X79123252Y-79540752D03*
%TD*%
D14*
%TO.C,P3*%
X131140952Y-63517635D03*
%TD*%
D15*
%TO.C,P6*%
X228068852Y-79540752D03*
%TD*%
M02*
