<?xml version="1.0" standalone="no"?>
 <!DOCTYPE svg PUBLIC "-//W3C//DTD SVG 1.1//EN" 
 "http://www.w3.org/Graphics/SVG/1.1/DTD/svg11.dtd"> 
<svg
  xmlns:svg="http://www.w3.org/2000/svg"
  xmlns="http://www.w3.org/2000/svg"
  xmlns:xlink="http://www.w3.org/1999/xlink"
  version="1.1"
  width="29.700220cm" height="21.000720cm" viewBox="0 0 297002200 210007200">
<title>SVG Picture created as GlowSignMainPCB-Edge_Cuts.svg date 2022/08/15 17:29:57 </title>
  <desc>Picture generated by PCBNEW </desc>
<g style="fill:#000000; fill-opacity:1.000000;stroke:#000000; stroke-opacity:1.000000;
stroke-linecap:round; stroke-linejoin:round;"
 transform="translate(0 0) scale(1 1)">
</g>
<g style="fill:#000000; fill-opacity:0.0; 
stroke:#000000; stroke-width:0.000000; stroke-opacity:1; 
stroke-linecap:round; stroke-linejoin:round;">
</g>
<g style="fill:#000000; fill-opacity:0.0; 
stroke:#000000; stroke-width:100000.000000; stroke-opacity:1; 
stroke-linecap:round; stroke-linejoin:round;">
<circle cx="224415600.000000" cy="70844117.000000" r="3400000.000000" /> 
<path d="M186915582.999928 73594116.999856 A1999983.000000 1999983.000000 0.0 0 0 184915600.000000 71594117.000000" />
<path d="M164852782.999711 141344116.999694 A499983.000000 499983.000000 0.0 0 0 164352792.000000 140844117.000064" />
<path d="M234665600.000000 141844100.000000 A1250000.000000 1250000.000000 0.0 0 0 235915599.999884 140594117.000000" />
<path d="M184915600.000000 129594100.000000 A2000000.000000 2000000.000000 0.0 0 0 186915599.999928 127594117.000000" />
<path d="M121215600 135060283
L86115600 135060283
" />
<path d="M153352791.999600 140844092.000064 A500008.000000 500008.000000 0.0 0 0 152852792.000289 141344117.000000" />
<path d="M141483248 142844117
L152852792 142844117
" />
<path d="M164852792 141344117
L164852792 141844117
" />
<path d="M67665600 141844117
L140478308 141844117
" />
<path d="M122215600 130594117
L122215600 134060283
" />
<path d="M122215616.999856 67060282.999711 A1000017.000000 1000017.000000 0.0 0 0 121215600.000000 66060283.000000" />
<path d="M123215600 71594117
L184915600 71594117
" />
<path d="M85115600 134060283
L85115600 67060283
" />
<path d="M235915600 140594117
L235915600 60594117
" />
<path d="M86115600 66060283
L121215600 66060283
" />
<path d="M122215600 67060283
L122215600 70594117
" />
<path d="M86115600.000000 66060300.000000 A1000000.000000 1000000.000000 0.0 0 0 85115600.000144 67060283.000000" />
<path d="M234665600 59344117
L67665600 59344117
" />
<path d="M184915600 129594117
L123215600 129594117
" />
<path d="M85115617.000144 134060283.000289 A999983.000000 999983.000000 0.0 0 0 86115600.000000 135060283.000000" />
<path d="M152852792 142844117
L152852792 141344117
" />
<path d="M122215583.000144 70594117.000289 A1000017.000000 1000017.000000 0.0 0 0 123215600.000000 71594117.000000" />
<path d="M66415600 60594117
L66415600 140594117
" />
<path d="M186915600 73594117
L186915600 127594117
" />
<path d="M123215600.000000 129594100.000000 A1000000.000000 1000000.000000 0.0 0 0 122215600.000144 130594117.000000" />
<path d="M67665600.000000 59344100.000000 A1250000.000000 1250000.000000 0.0 0 0 66415600.000116 60594117.000000" />
<path d="M121215600.000000 135060300.000000 A1000000.000000 1000000.000000 0.0 0 0 122215599.999856 134060283.000000" />
<path d="M164852792 141844117
L234665600 141844117
" />
<circle cx="77915600.000000" cy="70844117.000000" r="3400000.000000" /> 
<circle cx="224415600.000000" cy="130344117.000000" r="3400000.000000" /> 
<path d="M153352792 140844117
L164352792 140844117
" />
<path d="M66415583.000116 140594117.000231 A1250017.000000 1250017.000000 0.0 0 0 67665600.000000 141844117.000000" />
<path d="M141483270.645781 142844116.887712 A1004983.000000 1004983.000000 0.0 0 0 140478308.000000 141844117.000032" />
<path d="M235915582.999884 60594116.999769 A1249983.000000 1249983.000000 0.0 0 0 234665600.000000 59344117.000000" />
<circle cx="77915600.000000" cy="130344117.000000" r="3400000.000000" /> 
<g >
</g>
<g >
</g>
<g >
</g>
<g >
</g>
<g >
</g>
<g >
</g>
<g >
</g>
<g >
</g>
<g >
</g>
<g >
</g>
<g >
</g>
<g >
</g>
<g >
</g>
<g >
</g>
<g >
</g>
<g >
</g>
<g >
</g>
<g >
</g>
<g >
</g>
<g >
</g>
<g >
</g>
<g >
</g>
<g >
</g>
<g >
</g>
<g >
</g>
<g >
</g>
<g >
</g>
<g >
</g>
<g >
</g>
<g >
</g>
<g >
</g>
<g >
</g>
<g >
</g>
<g >
</g>
<g >
</g>
<g >
</g>
<g >
</g>
<g >
</g>
<g >
</g>
<g >
</g>
<g >
</g>
<g >
</g>
<g >
</g>
<g >
</g>
<g >
</g>
<g >
</g>
<g >
</g>
<g >
</g>
<g >
</g>
<g >
</g>
<g >
</g>
<g >
</g>
<g >
</g>
<g >
</g>
<g >
</g>
<g >
</g>
<g >
</g>
<g >
</g>
<g >
</g>
<g >
</g>
<g >
</g>
<g >
</g>
<g >
</g>
<g >
</g>
<g >
</g>
<g >
</g>
<g >
</g>
<g >
</g>
<g >
</g>
<g >
</g>
<g >
</g>
<g >
</g>
<g >
</g>
<g >
</g>
<g >
</g>
<g >
</g>
<g >
</g>
<g >
</g>
<g >
</g>
<g >
</g>
<g >
</g>
<g >
</g>
<g >
</g>
<g >
</g>
<g >
</g>
<g >
</g>
<g >
</g>
<g >
</g>
<g >
</g>
<g >
</g>
<g >
</g>
<g >
</g>
<g >
</g>
<g >
</g>
<g >
</g>
<g >
</g>
<g >
</g>
<g >
</g>
<g >
</g>
<g >
</g>
<g >
</g>
<g >
</g>
<g >
</g>
<g >
</g>
<g >
</g>
<g >
</g>
<g >
</g>
<g >
</g>
<g >
</g>
<g >
</g>
<g >
</g>
<g >
</g>
<g >
</g>
<g >
</g>
<g >
</g>
<g >
</g>
<g >
</g>
<g >
</g>
<g >
</g>
<g >
</g>
<g >
</g>
<g >
</g>
<g >
</g>
<g >
</g>
<g >
</g>
<g >
</g>
<g >
</g>
<g >
</g>
<g >
</g>
<g >
</g>
<g >
</g>
<g >
</g>
<g >
</g>
<g >
</g>
<g >
</g>
<g >
</g>
<g >
</g>
<g >
</g>
<g >
</g>
<g >
</g>
<g >
</g>
<g >
</g>
<g >
</g>
<g >
</g>
<g >
</g>
<g >
</g>
<g >
</g>
<g >
</g>
<g >
</g>
<g >
</g>
<g >
</g>
<g >
</g>
<g >
</g>
<g >
</g>
<g >
</g>
<g >
</g>
</g> 
</svg>
