M48
; DRILL file {KiCad (6.0.4-0)} date 2022 May 07, Saturday 16:42:10
; FORMAT={-:-/ absolute / inch / decimal}
; #@! TF.CreationDate,2022-05-07T16:42:10+02:00
; #@! TF.GenerationSoftware,Kicad,Pcbnew,(6.0.4-0)
; #@! TF.FileFunction,Plated,1,2,PTH
FMAT,2
INCH
; #@! TA.AperFunction,Plated,PTH,ViaDrill
T1C0.0157
; #@! TA.AperFunction,Plated,PTH,ComponentDrill
T2C0.0276
; #@! TA.AperFunction,Plated,PTH,ComponentDrill
T3C0.0787
%
G90
G05
T1
X3.3213Y-3.1976
X3.3213Y-3.678
X3.3213Y-4.6665
X3.322Y-2.7024
X3.3264Y-4.1602
X3.3516Y-4.9839
X3.444Y-4.9771
X3.4594Y-2.972
X3.4744Y-4.6622
X3.5126Y-4.4409
X3.515Y-3.9453
X3.5173Y-3.4307
X3.535Y-5.0146
X3.5756Y-2.5193
X3.7512Y-2.6043
X3.813Y-5.0091
X3.9346Y-4.986
X4.0134Y-5.026
X4.0665Y-2.5169
X4.2358Y-2.6413
X4.3272Y-5.0205
X4.428Y-4.9807
X4.5142Y-5.0232
X4.5512Y-2.5169
X4.5614Y-5.0
X4.7303Y-2.6378
X4.7772Y-4.9728
X4.8075Y-4.7409
X4.9055Y-3.8374
X4.9197Y-4.9843
X4.9508Y-4.1854
X4.9929Y-5.0189
X5.0449Y-2.5185
X5.072Y-4.3598
X5.1429Y-4.2583
X5.1547Y-4.1835
X5.2189Y-2.6819
X5.2961Y-5.0173
X5.4122Y-4.9736
X5.4201Y-5.1059
X5.5433Y-2.5547
X5.5616Y-4.8467
X5.6913Y-4.7169
X5.7878Y-2.7303
X5.7937Y-4.6567
X5.9547Y-2.5654
X5.9579Y-4.8626
X6.0945Y-4.6579
X6.0949Y-2.448
X6.1138Y-2.6083
X6.2803Y-4.8425
X6.3303Y-2.6811
X6.4654Y-4.7748
X6.5037Y-4.8813
X6.5094Y-4.7323
X6.5252Y-4.9807
X6.5673Y-5.0921
X6.6421Y-4.6772
X6.6512Y-2.5579
X6.748Y-5.0429
X6.8248Y-2.6413
X6.9122Y-5.0358
X7.0244Y-4.9795
X7.0925Y-5.0299
X7.1047Y-4.2697
X7.1449Y-2.5177
X7.1736Y-4.928
X7.1961Y-2.9409
X7.2189Y-4.3374
X7.3205Y-2.6421
X7.3295Y-4.0772
X7.3835Y-4.0224
X7.4016Y-5.0366
X7.4437Y-4.8106
X7.4827Y-4.4795
X7.5075Y-4.9827
X7.5173Y-3.9657
X7.5181Y-3.6587
X7.5264Y-3.7177
X7.5642Y-3.5756
X7.5811Y-5.0386
X7.5866Y-3.8717
X7.6264Y-4.1705
X7.6287Y-2.8472
X7.6311Y-2.5177
X7.6331Y-2.7307
X7.6496Y-4.7984
X7.6764Y-3.0429
X7.6798Y-4.4011
X7.6803Y-3.1894
X7.7122Y-3.2346
X7.7433Y-3.6248
X7.7437Y-3.7205
X7.7524Y-3.2811
X7.811Y-2.637
X7.8138Y-4.1902
X7.8531Y-3.8504
X7.8823Y-4.276
X7.8858Y-2.9398
X7.8953Y-5.0394
X7.926Y-3.6602
X7.9283Y-3.8425
X7.9445Y-3.2961
X7.9472Y-3.9925
X7.9665Y-3.0228
X7.9811Y-4.2339
X7.9819Y-4.2815
X7.9992Y-4.9816
X8.015Y-3.9283
X8.0189Y-3.6807
X8.0362Y-4.2944
X8.037Y-4.4949
X8.0646Y-3.8795
X8.0713Y-5.0339
X8.0878Y-4.0941
X8.1138Y-3.7339
X8.1272Y-2.5154
X8.1528Y-4.4685
X8.1537Y-4.1199
X8.1559Y-4.422
X8.1665Y-3.6307
X8.1972Y-4.1063
X8.2602Y-4.4185
X8.265Y-4.476
X8.2787Y-3.8268
X8.3063Y-2.6429
X8.3516Y-4.0657
X8.3516Y-4.5587
X8.3539Y-3.5748
X8.3555Y-3.078
X8.3563Y-2.5803
X8.3823Y-5.0394
X8.4512Y-2.5248
X8.4912Y-4.9777
X8.5067Y-4.4185
X8.5224Y-4.3689
X8.5626Y-3.5461
X8.5657Y-3.048
X8.5665Y-4.0382
X8.5673Y-2.5622
X8.5677Y-4.5311
X8.5685Y-5.0177
X8.6287Y-4.4071
T3
X3.6687Y-3.0823
X3.6687Y-4.5543
X3.8738Y-2.811
X3.8738Y-4.8138
X8.0191Y-2.811
X8.0191Y-4.8138
X8.2047Y-3.0823
X8.2047Y-4.5543
T2
G00X5.7806Y-4.971
M15
G01X5.7806Y-5.0143
M16
G05
G00X5.7806Y-5.1454
M15
G01X5.7806Y-5.169
M16
G05
G00X6.1208Y-4.971
M15
G01X6.1208Y-5.0143
M16
G05
G00X6.1208Y-5.1454
M15
G01X6.1208Y-5.169
M16
G05
T0
M30
