%TF.GenerationSoftware,KiCad,Pcbnew,(6.0.6-0)*%
%TF.CreationDate,2022-08-02T21:06:59+02:00*%
%TF.ProjectId,GlowSignMainPCB,476c6f77-5369-4676-9e4d-61696e504342,rev?*%
%TF.SameCoordinates,Original*%
%TF.FileFunction,Paste,Top*%
%TF.FilePolarity,Positive*%
%FSLAX46Y46*%
G04 Gerber Fmt 4.6, Leading zero omitted, Abs format (unit mm)*
G04 Created by KiCad (PCBNEW (6.0.6-0)) date 2022-08-02 21:06:59*
%MOMM*%
%LPD*%
G01*
G04 APERTURE LIST*
G04 Aperture macros list*
%AMRoundRect*
0 Rectangle with rounded corners*
0 $1 Rounding radius*
0 $2 $3 $4 $5 $6 $7 $8 $9 X,Y pos of 4 corners*
0 Add a 4 corners polygon primitive as box body*
4,1,4,$2,$3,$4,$5,$6,$7,$8,$9,$2,$3,0*
0 Add four circle primitives for the rounded corners*
1,1,$1+$1,$2,$3*
1,1,$1+$1,$4,$5*
1,1,$1+$1,$6,$7*
1,1,$1+$1,$8,$9*
0 Add four rect primitives between the rounded corners*
20,1,$1+$1,$2,$3,$4,$5,0*
20,1,$1+$1,$4,$5,$6,$7,0*
20,1,$1+$1,$6,$7,$8,$9,0*
20,1,$1+$1,$8,$9,$2,$3,0*%
G04 Aperture macros list end*
%ADD10RoundRect,0.237500X-0.237500X0.300000X-0.237500X-0.300000X0.237500X-0.300000X0.237500X0.300000X0*%
%ADD11R,0.900000X2.000000*%
%ADD12R,2.000000X0.900000*%
%ADD13R,1.330000X1.330000*%
%ADD14RoundRect,0.237500X0.250000X0.237500X-0.250000X0.237500X-0.250000X-0.237500X0.250000X-0.237500X0*%
%ADD15R,1.500000X1.000000*%
%ADD16RoundRect,0.237500X-0.300000X-0.237500X0.300000X-0.237500X0.300000X0.237500X-0.300000X0.237500X0*%
%ADD17RoundRect,0.250000X-0.400000X-1.450000X0.400000X-1.450000X0.400000X1.450000X-0.400000X1.450000X0*%
%ADD18R,0.419990X1.300000*%
%ADD19RoundRect,0.237500X-0.237500X0.250000X-0.237500X-0.250000X0.237500X-0.250000X0.237500X0.250000X0*%
%ADD20RoundRect,0.237500X0.300000X0.237500X-0.300000X0.237500X-0.300000X-0.237500X0.300000X-0.237500X0*%
%ADD21R,1.070003X0.600000*%
%ADD22R,0.900000X0.280010*%
%ADD23R,0.280010X0.900000*%
%ADD24R,3.300000X3.300000*%
%ADD25R,3.499873X2.500000*%
%ADD26R,0.600000X1.200000*%
%ADD27O,0.250013X0.750013*%
%ADD28RoundRect,0.237500X0.237500X-0.250000X0.237500X0.250000X-0.237500X0.250000X-0.237500X-0.250000X0*%
%ADD29R,2.470003X0.980010*%
%ADD30R,2.470003X3.600000*%
%ADD31RoundRect,0.237500X-0.250000X-0.237500X0.250000X-0.237500X0.250000X0.237500X-0.250000X0.237500X0*%
%ADD32R,1.500000X0.900000*%
%ADD33RoundRect,0.237500X0.237500X-0.300000X0.237500X0.300000X-0.237500X0.300000X-0.237500X-0.300000X0*%
%ADD34R,0.600000X0.419990*%
%ADD35R,2.046380X1.620015*%
%ADD36R,0.300000X1.300000*%
%ADD37R,0.600000X1.300000*%
%ADD38R,0.532004X1.072009*%
%ADD39R,1.800000X0.600000*%
%ADD40R,2.184000X2.971000*%
%ADD41R,0.700000X1.250013*%
%ADD42RoundRect,0.250000X-1.500000X-0.550000X1.500000X-0.550000X1.500000X0.550000X-1.500000X0.550000X0*%
%ADD43R,0.550013X1.000000*%
%ADD44R,1.050013X0.550013*%
%ADD45R,0.450013X1.400000*%
%ADD46R,2.400000X0.450013*%
%ADD47R,0.900000X1.200000*%
%ADD48R,1.200000X1.300000*%
%ADD49R,4.220015X2.124003*%
%ADD50R,0.800000X1.600000*%
%ADD51R,2.100000X3.000000*%
G04 APERTURE END LIST*
D10*
%TO.C,C31*%
X159122600Y-65989900D03*
X159122600Y-67714900D03*
%TD*%
D11*
%TO.C,U4*%
X195736700Y-100658100D03*
X197006700Y-100658100D03*
X198276700Y-100658100D03*
X199546700Y-100658100D03*
X200816700Y-100658100D03*
X202086700Y-100658100D03*
X203356700Y-100658100D03*
X204626700Y-100658100D03*
X205896700Y-100658100D03*
X207166700Y-100658100D03*
X208436700Y-100658100D03*
X209706700Y-100658100D03*
X210976700Y-100658100D03*
X212246700Y-100658100D03*
D12*
X213246700Y-97873100D03*
X213246700Y-96603100D03*
X213246700Y-95333100D03*
X213246700Y-94063100D03*
X213246700Y-92793100D03*
X213246700Y-91523100D03*
X213246700Y-90253100D03*
X213246700Y-88983100D03*
X213246700Y-87713100D03*
X213246700Y-86443100D03*
D11*
X212246700Y-83658100D03*
X210976700Y-83658100D03*
X209706700Y-83658100D03*
X208436700Y-83658100D03*
X207166700Y-83658100D03*
X205896700Y-83658100D03*
X204626700Y-83658100D03*
X203356700Y-83658100D03*
X202086700Y-83658100D03*
X200816700Y-83658100D03*
X199546700Y-83658100D03*
X198276700Y-83658100D03*
X197006700Y-83658100D03*
X195736700Y-83658100D03*
D13*
X201401700Y-94993100D03*
X203236700Y-93158100D03*
X201401700Y-91323100D03*
X205071700Y-94993100D03*
X205071700Y-91323100D03*
X205071700Y-93158100D03*
X203236700Y-94993100D03*
X201401700Y-93158100D03*
X203236700Y-91323100D03*
%TD*%
D14*
%TO.C,R14*%
X79782522Y-102099795D03*
X81607522Y-102099795D03*
%TD*%
D15*
%TO.C,D18*%
X123479900Y-62062700D03*
X123479900Y-65262700D03*
X128379900Y-65262700D03*
X128379900Y-62062700D03*
%TD*%
%TO.C,D12*%
X201498300Y-63322400D03*
X201498300Y-66522400D03*
X206398300Y-66522400D03*
X206398300Y-63322400D03*
%TD*%
D16*
%TO.C,C48*%
X197467500Y-118901201D03*
X199192500Y-118901201D03*
%TD*%
%TO.C,C13*%
X214017500Y-120781201D03*
X215742500Y-120781201D03*
%TD*%
D17*
%TO.C,F2*%
X81659278Y-113274595D03*
X77209278Y-113274595D03*
%TD*%
D15*
%TO.C,D15*%
X164055000Y-63322400D03*
X164055000Y-66522400D03*
X168955000Y-66522400D03*
X168955000Y-63322400D03*
%TD*%
D17*
%TO.C,F1*%
X139761000Y-132130800D03*
X144211000Y-132130800D03*
%TD*%
D15*
%TO.C,D8*%
X229401200Y-128544200D03*
X229401200Y-131744200D03*
X234301200Y-131744200D03*
X234301200Y-128544200D03*
%TD*%
D18*
%TO.C,D28*%
X89445942Y-138608618D03*
X90295828Y-138608618D03*
X91145968Y-138608618D03*
X91995854Y-138608618D03*
%TD*%
D15*
%TO.C,D19*%
X110998800Y-61062700D03*
X110998800Y-64262700D03*
X115898800Y-64262700D03*
X115898800Y-61062700D03*
%TD*%
D19*
%TO.C,R2*%
X135826000Y-134755500D03*
X135826000Y-136580500D03*
%TD*%
D20*
%TO.C,C7*%
X206441850Y-108156000D03*
X204716850Y-108156000D03*
%TD*%
D15*
%TO.C,D21*%
X86036600Y-61062700D03*
X86036600Y-64262700D03*
X90936600Y-64262700D03*
X90936600Y-61062700D03*
%TD*%
D16*
%TO.C,C38*%
X67905100Y-85923200D03*
X69630100Y-85923200D03*
%TD*%
D15*
%TO.C,D13*%
X189017200Y-63322400D03*
X189017200Y-66522400D03*
X193917200Y-66522400D03*
X193917200Y-63322400D03*
%TD*%
D21*
%TO.C,U12*%
X80231201Y-76749395D03*
X82701355Y-75799433D03*
X82701355Y-77699357D03*
%TD*%
D22*
%TO.C,U7*%
X218006451Y-111260533D03*
X218006451Y-111760914D03*
X218006451Y-112261295D03*
X218006451Y-112761676D03*
X218006451Y-113262057D03*
X218006451Y-113762438D03*
X218006451Y-114262819D03*
D23*
X219005181Y-115261803D03*
X219505562Y-115261803D03*
X220005943Y-115261803D03*
X220506324Y-115261803D03*
X221006705Y-115261803D03*
X221507086Y-115261803D03*
X222007467Y-115261803D03*
D22*
X223006451Y-114262819D03*
X223006451Y-113762438D03*
X223006451Y-113262057D03*
X223006451Y-112761676D03*
X223006451Y-112261295D03*
X223006451Y-111760914D03*
X223006451Y-111260533D03*
D23*
X222007467Y-110261803D03*
X221507086Y-110261803D03*
X221006705Y-110261803D03*
X220506324Y-110261803D03*
X220005943Y-110261803D03*
X219505562Y-110261803D03*
X219005181Y-110261803D03*
D24*
X220506324Y-112761676D03*
%TD*%
D15*
%TO.C,D10*%
X229401200Y-103554200D03*
X229401200Y-106754200D03*
X234301200Y-106754200D03*
X234301200Y-103554200D03*
%TD*%
D10*
%TO.C,C32*%
X145398000Y-68273100D03*
X145398000Y-69998100D03*
%TD*%
D16*
%TO.C,C40*%
X67905100Y-110869866D03*
X69630100Y-110869866D03*
%TD*%
%TO.C,C46*%
X127628600Y-136380120D03*
X129353600Y-136380120D03*
%TD*%
D25*
%TO.C,U10*%
X80625022Y-106929795D03*
D26*
X82530026Y-109838101D03*
X81260023Y-109838101D03*
X79990021Y-109838101D03*
X78720018Y-109838101D03*
X78720018Y-104021489D03*
X79990021Y-104021489D03*
X81260023Y-104021489D03*
X82530026Y-104021489D03*
%TD*%
D27*
%TO.C,U3*%
X198648039Y-116449580D03*
X199148166Y-116449580D03*
X199648039Y-116449580D03*
X200148166Y-116449580D03*
X200148166Y-113349758D03*
X199648039Y-113349758D03*
X199148166Y-113349758D03*
X198648039Y-113349758D03*
%TD*%
D15*
%TO.C,D25*%
X67951800Y-113558200D03*
X67951800Y-116758200D03*
X72851800Y-116758200D03*
X72851800Y-113558200D03*
%TD*%
D16*
%TO.C,C37*%
X67710500Y-73502200D03*
X69435500Y-73502200D03*
%TD*%
%TO.C,C12*%
X214017500Y-122661201D03*
X215742500Y-122661201D03*
%TD*%
%TO.C,C27*%
X204777600Y-69162400D03*
X206502600Y-69162400D03*
%TD*%
D28*
%TO.C,R12*%
X213960000Y-126463701D03*
X213960000Y-124638701D03*
%TD*%
D18*
%TO.C,D4*%
X167660542Y-138608618D03*
X168510428Y-138608618D03*
X169360568Y-138608618D03*
X170210454Y-138608618D03*
%TD*%
D16*
%TO.C,C19*%
X168701100Y-136440120D03*
X170426100Y-136440120D03*
%TD*%
D14*
%TO.C,R17*%
X203452500Y-121071201D03*
X201627500Y-121071201D03*
%TD*%
D29*
%TO.C,U18*%
X211146750Y-114795975D03*
X211146750Y-112496000D03*
X211146750Y-110196025D03*
D30*
X205476950Y-112496000D03*
%TD*%
D31*
%TO.C,R11*%
X78128500Y-78079600D03*
X76303500Y-78079600D03*
%TD*%
D16*
%TO.C,C44*%
X102781100Y-136380120D03*
X104506100Y-136380120D03*
%TD*%
D15*
%TO.C,D24*%
X67951800Y-101063200D03*
X67951800Y-104263200D03*
X72851800Y-104263200D03*
X72851800Y-101063200D03*
%TD*%
D31*
%TO.C,R16*%
X201627500Y-123151201D03*
X203452500Y-123151201D03*
%TD*%
D15*
%TO.C,D16*%
X151573900Y-64322400D03*
X151573900Y-67522400D03*
X156473900Y-67522400D03*
X156473900Y-64322400D03*
%TD*%
D16*
%TO.C,C39*%
X67905100Y-98396533D03*
X69630100Y-98396533D03*
%TD*%
%TO.C,C41*%
X67905100Y-123343200D03*
X69630100Y-123343200D03*
%TD*%
D18*
%TO.C,D7*%
X205103842Y-138608618D03*
X205953728Y-138608618D03*
X206803868Y-138608618D03*
X207653754Y-138608618D03*
%TD*%
D32*
%TO.C,SW1*%
X207611926Y-103955936D03*
X211411774Y-103955936D03*
X211411774Y-105456064D03*
X207611926Y-105456064D03*
%TD*%
D19*
%TO.C,R8*%
X204281850Y-103263500D03*
X204281850Y-105088500D03*
%TD*%
D15*
%TO.C,D9*%
X229401200Y-116049200D03*
X229401200Y-119249200D03*
X234301200Y-119249200D03*
X234301200Y-116049200D03*
%TD*%
D16*
%TO.C,C24*%
X232680500Y-121746700D03*
X234405500Y-121746700D03*
%TD*%
%TO.C,C17*%
X197537500Y-121071201D03*
X199262500Y-121071201D03*
%TD*%
%TO.C,C16*%
X197537500Y-123151201D03*
X199262500Y-123151201D03*
%TD*%
D10*
%TO.C,C33*%
X130988800Y-63730200D03*
X130988800Y-65455200D03*
%TD*%
D33*
%TO.C,C14*%
X77125022Y-108137295D03*
X77125022Y-109862295D03*
%TD*%
D15*
%TO.C,D20*%
X98517700Y-61062700D03*
X98517700Y-64262700D03*
X103417700Y-64262700D03*
X103417700Y-61062700D03*
%TD*%
D10*
%TO.C,C35*%
X106058800Y-62730200D03*
X106058800Y-64455200D03*
%TD*%
D28*
%TO.C,R9*%
X202181850Y-105088500D03*
X202181850Y-103263500D03*
%TD*%
D16*
%TO.C,C20*%
X181173600Y-136380120D03*
X182898600Y-136380120D03*
%TD*%
D15*
%TO.C,D17*%
X137889100Y-66605600D03*
X137889100Y-69805600D03*
X142789100Y-69805600D03*
X142789100Y-66605600D03*
%TD*%
D33*
%TO.C,C47*%
X224041850Y-101468500D03*
X224041850Y-99743500D03*
%TD*%
D18*
%TO.C,D29*%
X101927042Y-138608618D03*
X102776928Y-138608618D03*
X103627068Y-138608618D03*
X104476954Y-138608618D03*
%TD*%
D34*
%TO.C,U8*%
X219427297Y-106351613D03*
X219427297Y-107001600D03*
X219427297Y-107651587D03*
X221327221Y-107651587D03*
X221327221Y-107001600D03*
X221327221Y-106351613D03*
%TD*%
D35*
%TO.C,U6*%
X198034569Y-125961177D03*
X203165380Y-125961177D03*
%TD*%
D36*
%TO.C,USB1*%
X140540736Y-136020084D03*
X141540736Y-136020084D03*
X143040864Y-136020084D03*
X144040864Y-136020084D03*
D37*
X144690851Y-136020084D03*
X145490698Y-136020084D03*
D36*
X143540736Y-136020084D03*
X142540736Y-136020084D03*
X142040864Y-136020084D03*
X141040864Y-136020084D03*
D37*
X139890749Y-136020084D03*
X139090902Y-136020084D03*
%TD*%
D18*
%TO.C,D6*%
X192622742Y-138608618D03*
X193472628Y-138608618D03*
X194322768Y-138608618D03*
X195172654Y-138608618D03*
%TD*%
D10*
%TO.C,C15*%
X81101078Y-98592295D03*
X81101078Y-96867295D03*
%TD*%
D16*
%TO.C,C42*%
X77721100Y-136380120D03*
X79446100Y-136380120D03*
%TD*%
D31*
%TO.C,R1*%
X172518700Y-136398000D03*
X174343700Y-136398000D03*
%TD*%
D19*
%TO.C,R3*%
X148716000Y-134755500D03*
X148716000Y-136580500D03*
%TD*%
D16*
%TO.C,C25*%
X232680500Y-109299200D03*
X234405500Y-109299200D03*
%TD*%
D10*
%TO.C,C30*%
X171675933Y-64989900D03*
X171675933Y-66714900D03*
%TD*%
D15*
%TO.C,D26*%
X67951800Y-126053200D03*
X67951800Y-129253200D03*
X72851800Y-129253200D03*
X72851800Y-126053200D03*
%TD*%
%TO.C,D23*%
X67951800Y-88568200D03*
X67951800Y-91768200D03*
X72851800Y-91768200D03*
X72851800Y-88568200D03*
%TD*%
D18*
%TO.C,D5*%
X180141642Y-138608618D03*
X180991528Y-138608618D03*
X181841668Y-138608618D03*
X182691554Y-138608618D03*
%TD*%
D35*
%TO.C,U2*%
X152371431Y-131358025D03*
X147240620Y-131358025D03*
%TD*%
D15*
%TO.C,D11*%
X229401200Y-91059200D03*
X229401200Y-94259200D03*
X234301200Y-94259200D03*
X234301200Y-91059200D03*
%TD*%
D10*
%TO.C,C29*%
X184229266Y-64989900D03*
X184229266Y-66714900D03*
%TD*%
D38*
%TO.C,U11*%
X80661040Y-94818893D03*
X79711078Y-94818893D03*
X78761116Y-94818893D03*
X78761116Y-92520697D03*
X79711078Y-92520697D03*
X80661040Y-92520697D03*
%TD*%
D39*
%TO.C,U5*%
X211716563Y-125810355D03*
X211716563Y-124540352D03*
X211716563Y-123270350D03*
X211716563Y-122000347D03*
X206171731Y-122000347D03*
X206171731Y-123270350D03*
X206171731Y-124540352D03*
X206171731Y-125810355D03*
D40*
X208944147Y-123905351D03*
%TD*%
D16*
%TO.C,C11*%
X131946000Y-135928000D03*
X133671000Y-135928000D03*
%TD*%
D14*
%TO.C,R6*%
X200064350Y-107076000D03*
X198239350Y-107076000D03*
%TD*%
D10*
%TO.C,C28*%
X196782600Y-64989900D03*
X196782600Y-66714900D03*
%TD*%
D16*
%TO.C,C45*%
X115311100Y-136380120D03*
X117036100Y-136380120D03*
%TD*%
D33*
%TO.C,C4*%
X213926400Y-116144100D03*
X213926400Y-114419100D03*
%TD*%
D41*
%TO.C,U1*%
X157245962Y-131260467D03*
X155346038Y-131260467D03*
X156296000Y-133260467D03*
%TD*%
D31*
%TO.C,R10*%
X78073178Y-81270995D03*
X76248178Y-81270995D03*
%TD*%
D42*
%TO.C,C3*%
X160471200Y-133959600D03*
X166071200Y-133959600D03*
%TD*%
D20*
%TO.C,C2*%
X203312500Y-118921201D03*
X201587500Y-118921201D03*
%TD*%
D10*
%TO.C,C34*%
X118523800Y-62730200D03*
X118523800Y-64455200D03*
%TD*%
D43*
%TO.C,U9*%
X80680938Y-90679846D03*
X79730976Y-90679846D03*
X78781014Y-90679846D03*
X78781014Y-87879744D03*
X79730976Y-87879744D03*
X80680938Y-87879744D03*
%TD*%
D44*
%TO.C,U20*%
X219186933Y-100201545D03*
X217836666Y-100201545D03*
X217836666Y-101051431D03*
X219186933Y-101051431D03*
D45*
X220236717Y-100626488D03*
D46*
X218511799Y-99401443D03*
D45*
X216786882Y-100626488D03*
D46*
X218511799Y-101851532D03*
%TD*%
D20*
%TO.C,C8*%
X200014350Y-105056000D03*
X198289350Y-105056000D03*
%TD*%
D10*
%TO.C,C36*%
X93593800Y-62730200D03*
X93593800Y-64455200D03*
%TD*%
D18*
%TO.C,D27*%
X76964842Y-138608618D03*
X77814728Y-138608618D03*
X78664868Y-138608618D03*
X79514754Y-138608618D03*
%TD*%
D15*
%TO.C,D14*%
X176536100Y-63322400D03*
X176536100Y-66522400D03*
X181436100Y-66522400D03*
X181436100Y-63322400D03*
%TD*%
%TO.C,D22*%
X67951800Y-76073200D03*
X67951800Y-79273200D03*
X72851800Y-79273200D03*
X72851800Y-76073200D03*
%TD*%
D10*
%TO.C,C6*%
X216026400Y-114419100D03*
X216026400Y-116144100D03*
%TD*%
D16*
%TO.C,C1*%
X195779350Y-103246000D03*
X197504350Y-103246000D03*
%TD*%
D18*
%TO.C,D30*%
X114408142Y-138608618D03*
X115258028Y-138608618D03*
X116108168Y-138608618D03*
X116958054Y-138608618D03*
%TD*%
D19*
%TO.C,R13*%
X76941078Y-92202295D03*
X76941078Y-90377295D03*
%TD*%
D16*
%TO.C,C21*%
X193681100Y-136380120D03*
X195406100Y-136380120D03*
%TD*%
D18*
%TO.C,D31*%
X126889242Y-138608618D03*
X127739128Y-138608618D03*
X128589268Y-138608618D03*
X129439154Y-138608618D03*
%TD*%
D16*
%TO.C,C23*%
X232680500Y-134194200D03*
X234405500Y-134194200D03*
%TD*%
D19*
%TO.C,R15*%
X79231078Y-98642295D03*
X79231078Y-96817295D03*
%TD*%
D31*
%TO.C,R7*%
X211749350Y-79006000D03*
X213574350Y-79006000D03*
%TD*%
D33*
%TO.C,C10*%
X222261850Y-101468500D03*
X222261850Y-99743500D03*
%TD*%
D14*
%TO.C,R5*%
X213574350Y-76916000D03*
X211749350Y-76916000D03*
%TD*%
D47*
%TO.C,SW3*%
X160643575Y-140618395D03*
X156043625Y-140618395D03*
D48*
X160018479Y-139068484D03*
X156668467Y-139068484D03*
%TD*%
D16*
%TO.C,C9*%
X211799350Y-81046000D03*
X213524350Y-81046000D03*
%TD*%
D49*
%TO.C,L1*%
X207020000Y-132071201D03*
X207020000Y-128071201D03*
%TD*%
D14*
%TO.C,R4*%
X200064350Y-109096000D03*
X198239350Y-109096000D03*
%TD*%
D16*
%TO.C,C5*%
X210246850Y-108156000D03*
X211971850Y-108156000D03*
%TD*%
%TO.C,C22*%
X206013600Y-136380120D03*
X207738600Y-136380120D03*
%TD*%
D50*
%TO.C,U26*%
X79348173Y-116935795D03*
X78097983Y-116935795D03*
D51*
X75548072Y-119835719D03*
X81898084Y-119835719D03*
%TD*%
D32*
%TO.C,SW2*%
X204951926Y-80036064D03*
X208751774Y-80036064D03*
X204951926Y-78535936D03*
X208751774Y-78535936D03*
%TD*%
D16*
%TO.C,C43*%
X89581100Y-136420120D03*
X91306100Y-136420120D03*
%TD*%
%TO.C,C26*%
X232680500Y-96851700D03*
X234405500Y-96851700D03*
%TD*%
M02*
