%TF.GenerationSoftware,KiCad,Pcbnew,(6.0.6-0)*%
%TF.CreationDate,2022-08-06T22:01:20+02:00*%
%TF.ProjectId,GlowSignMainPCB,476c6f77-5369-4676-9e4d-61696e504342,rev?*%
%TF.SameCoordinates,Original*%
%TF.FileFunction,Other,Comment*%
%FSLAX46Y46*%
G04 Gerber Fmt 4.6, Leading zero omitted, Abs format (unit mm)*
G04 Created by KiCad (PCBNEW (6.0.6-0)) date 2022-08-06 22:01:20*
%MOMM*%
%LPD*%
G01*
G04 APERTURE LIST*
%ADD10C,0.100000*%
%ADD11C,0.150000*%
G04 APERTURE END LIST*
D10*
%TO.C,U4*%
X181687390Y-88378495D02*
X181687390Y-88616590D01*
X181925485Y-88640400D01*
X181901676Y-88616590D01*
X181877866Y-88568971D01*
X181877866Y-88449923D01*
X181901676Y-88402304D01*
X181925485Y-88378495D01*
X181973104Y-88354685D01*
X182092152Y-88354685D01*
X182139771Y-88378495D01*
X182163580Y-88402304D01*
X182187390Y-88449923D01*
X182187390Y-88568971D01*
X182163580Y-88616590D01*
X182139771Y-88640400D01*
X182187390Y-87759447D02*
X181854057Y-87759447D01*
X181901676Y-87759447D02*
X181877866Y-87735638D01*
X181854057Y-87688019D01*
X181854057Y-87616590D01*
X181877866Y-87568971D01*
X181925485Y-87545161D01*
X182187390Y-87545161D01*
X181925485Y-87545161D02*
X181877866Y-87521352D01*
X181854057Y-87473733D01*
X181854057Y-87402304D01*
X181877866Y-87354685D01*
X181925485Y-87330876D01*
X182187390Y-87330876D01*
X182187390Y-87092780D02*
X181854057Y-87092780D01*
X181901676Y-87092780D02*
X181877866Y-87068971D01*
X181854057Y-87021352D01*
X181854057Y-86949923D01*
X181877866Y-86902304D01*
X181925485Y-86878495D01*
X182187390Y-86878495D01*
X181925485Y-86878495D02*
X181877866Y-86854685D01*
X181854057Y-86807066D01*
X181854057Y-86735638D01*
X181877866Y-86688019D01*
X181925485Y-86664209D01*
X182187390Y-86664209D01*
D11*
X177788580Y-105511828D02*
X176788580Y-105511828D01*
X177788580Y-104940400D02*
X177217152Y-105368971D01*
X176788580Y-104940400D02*
X177360009Y-105511828D01*
X177264771Y-104511828D02*
X177264771Y-104178495D01*
X177788580Y-104035638D02*
X177788580Y-104511828D01*
X176788580Y-104511828D01*
X176788580Y-104035638D01*
X177264771Y-103607066D02*
X177264771Y-103273733D01*
X177788580Y-103130876D02*
X177788580Y-103607066D01*
X176788580Y-103607066D01*
X176788580Y-103130876D01*
X177788580Y-102702304D02*
X176788580Y-102702304D01*
X176788580Y-102321352D01*
X176836200Y-102226114D01*
X176883819Y-102178495D01*
X176979057Y-102130876D01*
X177121914Y-102130876D01*
X177217152Y-102178495D01*
X177264771Y-102226114D01*
X177312390Y-102321352D01*
X177312390Y-102702304D01*
X177407628Y-101702304D02*
X177407628Y-100940400D01*
X176788580Y-100273733D02*
X176788580Y-100083257D01*
X176836200Y-99988019D01*
X176931438Y-99892780D01*
X177121914Y-99845161D01*
X177455247Y-99845161D01*
X177645723Y-99892780D01*
X177740961Y-99988019D01*
X177788580Y-100083257D01*
X177788580Y-100273733D01*
X177740961Y-100368971D01*
X177645723Y-100464209D01*
X177455247Y-100511828D01*
X177121914Y-100511828D01*
X176931438Y-100464209D01*
X176836200Y-100368971D01*
X176788580Y-100273733D01*
X176788580Y-99416590D02*
X177598104Y-99416590D01*
X177693342Y-99368971D01*
X177740961Y-99321352D01*
X177788580Y-99226114D01*
X177788580Y-99035638D01*
X177740961Y-98940400D01*
X177693342Y-98892780D01*
X177598104Y-98845161D01*
X176788580Y-98845161D01*
X176788580Y-98511828D02*
X176788580Y-97940400D01*
X177788580Y-98226114D02*
X176788580Y-98226114D01*
X176788580Y-96940400D02*
X176788580Y-96273733D01*
X177788580Y-96940400D01*
X177788580Y-96273733D01*
X176788580Y-95702304D02*
X176788580Y-95511828D01*
X176836200Y-95416590D01*
X176931438Y-95321352D01*
X177121914Y-95273733D01*
X177455247Y-95273733D01*
X177645723Y-95321352D01*
X177740961Y-95416590D01*
X177788580Y-95511828D01*
X177788580Y-95702304D01*
X177740961Y-95797542D01*
X177645723Y-95892780D01*
X177455247Y-95940400D01*
X177121914Y-95940400D01*
X176931438Y-95892780D01*
X176836200Y-95797542D01*
X176788580Y-95702304D01*
X177788580Y-94845161D02*
X176788580Y-94845161D01*
X177788580Y-94273733D01*
X176788580Y-94273733D01*
X177264771Y-93797542D02*
X177264771Y-93464209D01*
X177788580Y-93321352D02*
X177788580Y-93797542D01*
X176788580Y-93797542D01*
X176788580Y-93321352D01*
D10*
X181687390Y-111378495D02*
X181687390Y-111616590D01*
X181925485Y-111640400D01*
X181901676Y-111616590D01*
X181877866Y-111568971D01*
X181877866Y-111449923D01*
X181901676Y-111402304D01*
X181925485Y-111378495D01*
X181973104Y-111354685D01*
X182092152Y-111354685D01*
X182139771Y-111378495D01*
X182163580Y-111402304D01*
X182187390Y-111449923D01*
X182187390Y-111568971D01*
X182163580Y-111616590D01*
X182139771Y-111640400D01*
X182187390Y-110759447D02*
X181854057Y-110759447D01*
X181901676Y-110759447D02*
X181877866Y-110735638D01*
X181854057Y-110688019D01*
X181854057Y-110616590D01*
X181877866Y-110568971D01*
X181925485Y-110545161D01*
X182187390Y-110545161D01*
X181925485Y-110545161D02*
X181877866Y-110521352D01*
X181854057Y-110473733D01*
X181854057Y-110402304D01*
X181877866Y-110354685D01*
X181925485Y-110330876D01*
X182187390Y-110330876D01*
X182187390Y-110092780D02*
X181854057Y-110092780D01*
X181901676Y-110092780D02*
X181877866Y-110068971D01*
X181854057Y-110021352D01*
X181854057Y-109949923D01*
X181877866Y-109902304D01*
X181925485Y-109878495D01*
X182187390Y-109878495D01*
X181925485Y-109878495D02*
X181877866Y-109854685D01*
X181854057Y-109807066D01*
X181854057Y-109735638D01*
X181877866Y-109688019D01*
X181925485Y-109664209D01*
X182187390Y-109664209D01*
X176523104Y-91366590D02*
X176285009Y-91366590D01*
X176261200Y-91604685D01*
X176285009Y-91580876D01*
X176332628Y-91557066D01*
X176451676Y-91557066D01*
X176499295Y-91580876D01*
X176523104Y-91604685D01*
X176546914Y-91652304D01*
X176546914Y-91771352D01*
X176523104Y-91818971D01*
X176499295Y-91842780D01*
X176451676Y-91866590D01*
X176332628Y-91866590D01*
X176285009Y-91842780D01*
X176261200Y-91818971D01*
X177142152Y-91866590D02*
X177142152Y-91533257D01*
X177142152Y-91580876D02*
X177165961Y-91557066D01*
X177213580Y-91533257D01*
X177285009Y-91533257D01*
X177332628Y-91557066D01*
X177356438Y-91604685D01*
X177356438Y-91866590D01*
X177356438Y-91604685D02*
X177380247Y-91557066D01*
X177427866Y-91533257D01*
X177499295Y-91533257D01*
X177546914Y-91557066D01*
X177570723Y-91604685D01*
X177570723Y-91866590D01*
X177808819Y-91866590D02*
X177808819Y-91533257D01*
X177808819Y-91580876D02*
X177832628Y-91557066D01*
X177880247Y-91533257D01*
X177951676Y-91533257D01*
X177999295Y-91557066D01*
X178023104Y-91604685D01*
X178023104Y-91866590D01*
X178023104Y-91604685D02*
X178046914Y-91557066D01*
X178094533Y-91533257D01*
X178165961Y-91533257D01*
X178213580Y-91557066D01*
X178237390Y-91604685D01*
X178237390Y-91866590D01*
D11*
X183502866Y-102202304D02*
X183502866Y-101726114D01*
X183788580Y-102297542D02*
X182788580Y-101964209D01*
X183788580Y-101630876D01*
X183121914Y-101297542D02*
X183788580Y-101297542D01*
X183217152Y-101297542D02*
X183169533Y-101249923D01*
X183121914Y-101154685D01*
X183121914Y-101011828D01*
X183169533Y-100916590D01*
X183264771Y-100868971D01*
X183788580Y-100868971D01*
X183121914Y-100535638D02*
X183121914Y-100154685D01*
X182788580Y-100392780D02*
X183645723Y-100392780D01*
X183740961Y-100345161D01*
X183788580Y-100249923D01*
X183788580Y-100154685D01*
X183740961Y-99440400D02*
X183788580Y-99535638D01*
X183788580Y-99726114D01*
X183740961Y-99821352D01*
X183645723Y-99868971D01*
X183264771Y-99868971D01*
X183169533Y-99821352D01*
X183121914Y-99726114D01*
X183121914Y-99535638D01*
X183169533Y-99440400D01*
X183264771Y-99392780D01*
X183360009Y-99392780D01*
X183455247Y-99868971D01*
X183121914Y-98964209D02*
X183788580Y-98964209D01*
X183217152Y-98964209D02*
X183169533Y-98916590D01*
X183121914Y-98821352D01*
X183121914Y-98678495D01*
X183169533Y-98583257D01*
X183264771Y-98535638D01*
X183788580Y-98535638D01*
X183121914Y-98059447D02*
X183788580Y-98059447D01*
X183217152Y-98059447D02*
X183169533Y-98011828D01*
X183121914Y-97916590D01*
X183121914Y-97773733D01*
X183169533Y-97678495D01*
X183264771Y-97630876D01*
X183788580Y-97630876D01*
X183788580Y-96726114D02*
X183264771Y-96726114D01*
X183169533Y-96773733D01*
X183121914Y-96868971D01*
X183121914Y-97059447D01*
X183169533Y-97154685D01*
X183740961Y-96726114D02*
X183788580Y-96821352D01*
X183788580Y-97059447D01*
X183740961Y-97154685D01*
X183645723Y-97202304D01*
X183550485Y-97202304D01*
X183455247Y-97154685D01*
X183407628Y-97059447D01*
X183407628Y-96821352D01*
X183360009Y-96726114D01*
D10*
X175736200Y-91040400D02*
X175936200Y-90840400D01*
X182461200Y-90240400D02*
X182261200Y-90040400D01*
X182461200Y-85640400D02*
X182661200Y-85840400D01*
X182461200Y-113240400D02*
X182461200Y-108640400D01*
X182461200Y-113240400D02*
X182661200Y-113040400D01*
X182461200Y-113240400D02*
X182261200Y-113040400D01*
X180336200Y-91040400D02*
X180136200Y-91240400D01*
X182461200Y-90240400D02*
X182461200Y-85640400D01*
X182461200Y-108640400D02*
X182261200Y-108840400D01*
X182461200Y-85640400D02*
X182261200Y-85840400D01*
X180336200Y-91040400D02*
X175736200Y-91040400D01*
X182461200Y-90240400D02*
X182661200Y-90040400D01*
X182461200Y-108640400D02*
X182661200Y-108840400D01*
X175736200Y-91040400D02*
X175936200Y-91240400D01*
X180336200Y-91040400D02*
X180136200Y-90840400D01*
%TD*%
M02*
