%TF.GenerationSoftware,KiCad,Pcbnew,(6.0.6-0)*%
%TF.CreationDate,2022-08-06T22:01:20+02:00*%
%TF.ProjectId,GlowSignMainPCB,476c6f77-5369-4676-9e4d-61696e504342,rev?*%
%TF.SameCoordinates,Original*%
%TF.FileFunction,Legend,Bot*%
%TF.FilePolarity,Positive*%
%FSLAX46Y46*%
G04 Gerber Fmt 4.6, Leading zero omitted, Abs format (unit mm)*
G04 Created by KiCad (PCBNEW (6.0.6-0)) date 2022-08-06 22:01:20*
%MOMM*%
%LPD*%
G01*
G04 APERTURE LIST*
%ADD10C,0.700025*%
%ADD11O,1.200000X2.200000*%
%ADD12O,1.200000X1.800000*%
%ADD13R,10.000000X6.000000*%
%ADD14R,6.000000X10.000000*%
%ADD15C,1.300000*%
%ADD16C,0.600000*%
G04 APERTURE END LIST*
%LPC*%
D10*
%TO.C,SW3*%
X159193486Y-139475768D03*
X157493460Y-139475768D03*
%TD*%
D11*
%TO.C,USB1*%
X151538441Y-136697328D03*
D12*
X142898359Y-140877414D03*
D11*
X142898359Y-136697328D03*
D12*
X151538441Y-140877414D03*
D10*
X150108418Y-137197455D03*
X144328382Y-137197455D03*
%TD*%
D13*
%TO.C,P1*%
X130352800Y-67157600D03*
%TD*%
%TO.C,P2*%
X130352800Y-134162800D03*
%TD*%
D14*
%TO.C,P4*%
X78333600Y-114503200D03*
%TD*%
%TO.C,P3*%
X78333600Y-83159600D03*
%TD*%
%TO.C,P6*%
X227279200Y-114503200D03*
%TD*%
%TO.C,P5*%
X227279200Y-83159600D03*
%TD*%
D15*
X82804000Y-67513200D03*
X227634800Y-136042400D03*
D16*
X167944800Y-136753600D03*
X198374000Y-102311200D03*
X207111600Y-139192000D03*
X69138800Y-115824000D03*
X69138800Y-80924400D03*
X233172000Y-111099600D03*
X207111600Y-105511600D03*
X113131600Y-138734800D03*
X233172000Y-134924800D03*
X226009200Y-76149200D03*
X223012000Y-134924800D03*
X233172000Y-103378000D03*
X126492000Y-138734800D03*
X205536800Y-86766400D03*
X227076000Y-106578400D03*
X199491600Y-106121200D03*
X69138800Y-128879600D03*
X194716400Y-97586800D03*
X91541600Y-138734800D03*
X233172000Y-133858000D03*
X105308400Y-138785600D03*
X192684400Y-102209600D03*
X190500000Y-87579200D03*
X72593200Y-139039600D03*
X233172000Y-116332000D03*
X138226800Y-62026800D03*
X191973200Y-118719600D03*
X206095600Y-65481200D03*
X229108000Y-67411600D03*
X99314000Y-138734800D03*
X233172000Y-76758800D03*
X180035200Y-136194800D03*
X208280000Y-100634800D03*
X200304400Y-68763652D03*
X181203600Y-136093200D03*
X218389200Y-68021200D03*
X193243200Y-75082400D03*
X193395600Y-97586800D03*
X69138800Y-89306400D03*
X168452800Y-65887600D03*
X220472000Y-139192000D03*
X165862000Y-136753600D03*
X192684400Y-100330000D03*
X224028000Y-120954800D03*
X206248000Y-125882400D03*
X132130800Y-62026800D03*
X194665600Y-103174800D03*
X186334400Y-62026800D03*
X212852000Y-138836400D03*
X233172000Y-89865200D03*
X69138800Y-136144000D03*
X194056000Y-84480400D03*
X69138800Y-67411600D03*
X118872000Y-138785600D03*
X69138800Y-110896400D03*
X169316400Y-65836800D03*
X151739600Y-62026800D03*
X227787200Y-90119200D03*
X194970400Y-138582400D03*
X78130400Y-138684000D03*
X185928000Y-138887200D03*
X205968600Y-64439800D03*
X213258400Y-62026800D03*
X199542400Y-62026800D03*
X233172000Y-97485200D03*
X194919600Y-110337600D03*
X105511600Y-62026800D03*
X201269600Y-101701600D03*
X154736800Y-62026800D03*
X190754000Y-113334800D03*
X205282800Y-77520800D03*
X69138800Y-102108000D03*
X169926000Y-65176400D03*
X220522800Y-125120400D03*
X233172000Y-63144400D03*
X191770000Y-62026800D03*
X196392800Y-97637600D03*
X192633600Y-98958400D03*
X161188400Y-62026800D03*
X196494400Y-103174800D03*
X69138800Y-97434400D03*
X118821200Y-62026800D03*
X227177600Y-124002800D03*
X174955200Y-136753600D03*
X206095600Y-67564000D03*
X192278000Y-128320800D03*
X200710800Y-115214400D03*
X214884000Y-99415600D03*
X98247200Y-62026800D03*
X233172000Y-137210800D03*
X197713600Y-97586800D03*
X219710000Y-97332800D03*
X226822000Y-138785600D03*
X228041200Y-104140000D03*
X124663200Y-62026800D03*
X221691200Y-120954800D03*
X225755200Y-62026800D03*
X233172000Y-83972400D03*
X199034400Y-138201400D03*
X212394800Y-75438000D03*
X197916800Y-70154800D03*
X222148400Y-81635600D03*
X198424800Y-98552000D03*
X78790800Y-62026800D03*
X206095600Y-131114800D03*
X170027600Y-65887600D03*
X199370452Y-68763652D03*
X159918400Y-135483600D03*
X111252000Y-62026800D03*
X224840800Y-95351600D03*
X233172000Y-124256800D03*
X69138800Y-124053600D03*
X228904800Y-133146800D03*
X84429600Y-62026800D03*
X132537200Y-138785600D03*
X168859200Y-65175900D03*
X70916800Y-62026800D03*
X233172000Y-70459600D03*
X219049600Y-62026800D03*
X201168000Y-100279200D03*
X69138800Y-75285600D03*
X178054000Y-62026800D03*
X190627000Y-82880200D03*
X211328000Y-125679200D03*
X198374000Y-100380800D03*
X86106000Y-138684000D03*
X193192400Y-65989200D03*
X221437200Y-97332800D03*
X92557600Y-62026800D03*
X189687200Y-122834400D03*
X190144400Y-126492000D03*
X209550000Y-111963200D03*
X212191600Y-104952800D03*
X216001600Y-117094000D03*
X189687200Y-115519200D03*
X211226400Y-91694000D03*
X189941200Y-111353600D03*
X211632800Y-114046000D03*
X213055200Y-95656400D03*
X190347600Y-134721600D03*
X208229200Y-104648000D03*
X209753200Y-109321600D03*
X192786000Y-112572800D03*
X217170000Y-85953600D03*
X212394800Y-82397600D03*
X210820000Y-85750400D03*
X217779600Y-110845600D03*
X221488000Y-99364800D03*
X198120000Y-112166400D03*
X209753200Y-108204000D03*
X220167200Y-100685600D03*
X211429600Y-89865200D03*
X215239600Y-92760800D03*
X220472000Y-122529600D03*
X203911200Y-102565200D03*
X198120000Y-127152400D03*
X202234800Y-127101600D03*
X204876400Y-109880400D03*
X193141600Y-133451600D03*
X153720800Y-69342000D03*
X187045600Y-135382000D03*
X195173600Y-68935600D03*
X189585600Y-133096000D03*
X201726800Y-68732400D03*
X197561200Y-65481200D03*
X144018000Y-68986400D03*
X201422000Y-73558400D03*
X196443600Y-65430400D03*
X193446400Y-120091200D03*
X194919600Y-118516400D03*
X190855600Y-122783600D03*
X194360800Y-114503200D03*
X197612000Y-123748800D03*
X194832900Y-123596400D03*
X194208400Y-126542800D03*
X203606400Y-95097600D03*
X189992000Y-96774000D03*
X201371200Y-97942400D03*
X190601600Y-103581200D03*
X191516000Y-105968800D03*
X218252500Y-90017600D03*
X193700400Y-89357200D03*
X218603978Y-111166827D03*
X207518000Y-91338400D03*
X205282800Y-89458800D03*
X215290400Y-89865200D03*
X218052481Y-109829600D03*
X208076800Y-90424000D03*
X192074800Y-89458800D03*
X217728800Y-89204800D03*
X215341200Y-88646000D03*
X205536800Y-88544400D03*
X164947600Y-131876800D03*
X146608800Y-131368800D03*
X148183600Y-134772400D03*
X222097600Y-114808000D03*
X221335600Y-115407500D03*
X156260800Y-133553200D03*
X215442800Y-118414800D03*
X207772000Y-117703600D03*
X198272400Y-92608400D03*
X202844400Y-104597200D03*
X195681600Y-135686800D03*
X201676000Y-129692400D03*
X199542400Y-94742000D03*
X200710800Y-110744000D03*
X157784800Y-134152700D03*
X189128400Y-102108000D03*
X202692000Y-79095600D03*
X189077600Y-104952800D03*
X152603200Y-131284000D03*
X189077600Y-79806800D03*
X234797600Y-124053600D03*
X234797600Y-70358000D03*
X234797600Y-97332800D03*
X234797600Y-127965200D03*
X96875600Y-140766800D03*
X132435600Y-60401200D03*
X234797600Y-135026400D03*
X212648800Y-140766800D03*
X154792762Y-60372951D03*
X191008000Y-60401200D03*
X191031200Y-140794400D03*
X177522800Y-140794400D03*
X230479600Y-60401200D03*
X67462400Y-102971600D03*
X213156800Y-60401200D03*
X132283200Y-140766800D03*
X92608400Y-60401200D03*
X186006400Y-140794400D03*
X110134400Y-140766800D03*
X234797600Y-110947200D03*
X67462400Y-90068400D03*
X204520800Y-140766800D03*
X123901200Y-140766800D03*
X91440000Y-140766800D03*
X234797600Y-88493600D03*
X226618800Y-140766800D03*
X226110800Y-60401200D03*
X69850000Y-140766800D03*
X234797600Y-101650800D03*
X83362800Y-60401200D03*
X234797600Y-115011200D03*
X123901200Y-60401200D03*
X67462400Y-129692400D03*
X105105200Y-140766800D03*
X67462400Y-97180400D03*
X231292400Y-140766800D03*
X96723200Y-60401200D03*
X176834800Y-60401200D03*
X175638800Y-140794400D03*
X186436000Y-60401200D03*
X77876400Y-140766800D03*
X199186800Y-140766800D03*
X67462400Y-124053600D03*
X118973600Y-60401200D03*
X78790800Y-60401200D03*
X105511600Y-60401200D03*
X83464400Y-140766800D03*
X160731200Y-60401200D03*
X67462400Y-76962000D03*
X163271200Y-60401200D03*
X234797600Y-74980800D03*
X70053200Y-60401200D03*
X172415200Y-60401200D03*
X169085600Y-140794400D03*
X234797600Y-83769200D03*
X136956800Y-60401200D03*
X67462400Y-110845600D03*
X67462400Y-80924400D03*
X118668800Y-140766800D03*
X199390000Y-60401200D03*
X137414000Y-140766800D03*
X150164800Y-60401200D03*
X204114400Y-60401200D03*
X67462400Y-67462400D03*
X67462400Y-116535200D03*
X223215200Y-138582400D03*
X217881200Y-140766800D03*
X217525600Y-60401200D03*
X110032800Y-60401200D03*
X201625200Y-139700000D03*
X67462400Y-136601200D03*
X163677600Y-137160000D03*
X201980800Y-105867200D03*
X204317600Y-72085200D03*
X141122400Y-70459600D03*
X153060400Y-70256400D03*
X198221600Y-104343200D03*
X154736800Y-139293600D03*
X161747200Y-138328400D03*
X216154000Y-131082000D03*
X212750400Y-131114800D03*
X219557600Y-131013200D03*
X214884000Y-125120400D03*
X171551600Y-65786000D03*
X172313600Y-65836800D03*
X177292000Y-65633600D03*
X177393600Y-66598800D03*
X185013600Y-66700400D03*
X185826400Y-66344800D03*
X165506400Y-68935600D03*
X189230000Y-71628000D03*
X165049200Y-69545200D03*
X160477200Y-68935600D03*
X160934400Y-69545200D03*
M02*
