%TF.GenerationSoftware,KiCad,Pcbnew,(6.0.6-0)*%
%TF.CreationDate,2022-08-02T21:06:59+02:00*%
%TF.ProjectId,GlowSignMainPCB,476c6f77-5369-4676-9e4d-61696e504342,rev?*%
%TF.SameCoordinates,Original*%
%TF.FileFunction,Copper,L2,Bot*%
%TF.FilePolarity,Positive*%
%FSLAX46Y46*%
G04 Gerber Fmt 4.6, Leading zero omitted, Abs format (unit mm)*
G04 Created by KiCad (PCBNEW (6.0.6-0)) date 2022-08-02 21:06:59*
%MOMM*%
%LPD*%
G01*
G04 APERTURE LIST*
%TA.AperFunction,ComponentPad*%
%ADD10O,1.200000X2.200000*%
%TD*%
%TA.AperFunction,ComponentPad*%
%ADD11O,1.200000X1.800000*%
%TD*%
G04 APERTURE END LIST*
D10*
%TO.P,USB1,SHELL,SHELL*%
%TO.N,GND*%
X146610841Y-136762528D03*
D11*
X137970759Y-140942614D03*
D10*
X137970759Y-136762528D03*
D11*
X146610841Y-140942614D03*
%TD*%
%TA.AperFunction,NonConductor*%
G36*
X234635618Y-59793600D02*
G01*
X234650452Y-59795910D01*
X234650455Y-59795910D01*
X234659324Y-59797291D01*
X234669259Y-59795992D01*
X234670346Y-59795850D01*
X234699031Y-59795393D01*
X234763790Y-59801771D01*
X234807664Y-59806092D01*
X234831887Y-59810910D01*
X234956624Y-59848748D01*
X234979432Y-59858195D01*
X235094392Y-59919643D01*
X235114927Y-59933365D01*
X235215682Y-60016053D01*
X235233147Y-60033518D01*
X235315835Y-60134273D01*
X235329557Y-60154808D01*
X235391005Y-60269768D01*
X235400451Y-60292573D01*
X235438292Y-60417317D01*
X235443108Y-60441534D01*
X235453142Y-60543412D01*
X235452688Y-60559469D01*
X235453400Y-60559478D01*
X235453290Y-60568452D01*
X235451909Y-60577324D01*
X235453073Y-60586226D01*
X235453073Y-60586228D01*
X235456036Y-60608883D01*
X235457100Y-60625221D01*
X235457100Y-140534233D01*
X235455600Y-140553618D01*
X235451909Y-140577324D01*
X235453073Y-140586226D01*
X235453350Y-140588346D01*
X235453807Y-140617031D01*
X235448091Y-140675066D01*
X235443108Y-140725664D01*
X235438290Y-140749887D01*
X235400452Y-140874624D01*
X235391005Y-140897432D01*
X235329558Y-141012390D01*
X235315835Y-141032927D01*
X235233147Y-141133682D01*
X235215682Y-141151147D01*
X235114927Y-141233835D01*
X235094392Y-141247557D01*
X234979432Y-141309005D01*
X234956627Y-141318451D01*
X234831883Y-141356292D01*
X234807666Y-141361108D01*
X234787441Y-141363100D01*
X234705788Y-141371142D01*
X234689731Y-141370688D01*
X234689722Y-141371400D01*
X234680748Y-141371290D01*
X234671876Y-141369909D01*
X234662974Y-141371073D01*
X234662972Y-141371073D01*
X234650456Y-141372710D01*
X234640314Y-141374036D01*
X234623979Y-141375100D01*
X159955187Y-141375100D01*
X159887066Y-141355098D01*
X159840573Y-141301442D01*
X159830469Y-141231168D01*
X159853669Y-141179819D01*
X159851131Y-141178094D01*
X159952142Y-141029461D01*
X159955977Y-141023818D01*
X160025248Y-140850627D01*
X160052069Y-140688614D01*
X160054598Y-140673339D01*
X160054598Y-140673335D01*
X160055713Y-140666601D01*
X160053116Y-140617035D01*
X160046308Y-140487139D01*
X160045951Y-140480326D01*
X160020015Y-140386163D01*
X159998230Y-140307074D01*
X159996417Y-140300492D01*
X159909421Y-140135491D01*
X159900856Y-140125355D01*
X159793430Y-139998233D01*
X159789024Y-139993019D01*
X159640841Y-139879725D01*
X159634661Y-139876843D01*
X159634659Y-139876842D01*
X159477963Y-139803773D01*
X159477960Y-139803772D01*
X159471786Y-139800893D01*
X159465138Y-139799407D01*
X159465135Y-139799406D01*
X159294791Y-139761330D01*
X159294788Y-139761330D01*
X159289748Y-139760203D01*
X159284025Y-139759883D01*
X159146889Y-139759883D01*
X159008046Y-139774966D01*
X158831258Y-139834462D01*
X158671370Y-139930532D01*
X158666410Y-139935223D01*
X158666408Y-139935224D01*
X158599779Y-139998233D01*
X158535841Y-140058696D01*
X158479552Y-140141523D01*
X158447079Y-140189305D01*
X158392246Y-140234403D01*
X158321736Y-140242697D01*
X158257934Y-140211554D01*
X158231413Y-140177251D01*
X158209395Y-140135491D01*
X158200830Y-140125355D01*
X158093404Y-139998233D01*
X158088998Y-139993019D01*
X157940815Y-139879725D01*
X157934635Y-139876843D01*
X157934633Y-139876842D01*
X157777937Y-139803773D01*
X157777934Y-139803772D01*
X157771760Y-139800893D01*
X157765112Y-139799407D01*
X157765109Y-139799406D01*
X157594765Y-139761330D01*
X157594762Y-139761330D01*
X157589722Y-139760203D01*
X157583999Y-139759883D01*
X157446863Y-139759883D01*
X157308020Y-139774966D01*
X157131232Y-139834462D01*
X156971344Y-139930532D01*
X156966384Y-139935223D01*
X156966382Y-139935224D01*
X156899753Y-139998233D01*
X156835815Y-140058696D01*
X156730969Y-140212972D01*
X156661698Y-140386163D01*
X156660584Y-140392895D01*
X156635571Y-140543986D01*
X156631233Y-140570189D01*
X156631590Y-140577006D01*
X156631590Y-140577010D01*
X156637352Y-140686943D01*
X156640995Y-140756464D01*
X156642806Y-140763037D01*
X156642806Y-140763040D01*
X156668677Y-140856964D01*
X156690529Y-140936298D01*
X156777525Y-141101299D01*
X156781926Y-141106507D01*
X156833699Y-141167773D01*
X156862390Y-141232714D01*
X156851417Y-141302858D01*
X156804263Y-141355933D01*
X156737460Y-141375100D01*
X147844841Y-141375100D01*
X147776720Y-141355098D01*
X147730227Y-141301442D01*
X147718841Y-141249100D01*
X147718841Y-141214729D01*
X147714366Y-141199490D01*
X147712976Y-141198285D01*
X147705293Y-141196614D01*
X145520956Y-141196614D01*
X145505717Y-141201089D01*
X145504512Y-141202479D01*
X145502841Y-141210162D01*
X145502841Y-141249100D01*
X145482839Y-141317221D01*
X145429183Y-141363714D01*
X145376841Y-141375100D01*
X139204759Y-141375100D01*
X139136638Y-141355098D01*
X139090145Y-141301442D01*
X139078759Y-141249100D01*
X139078759Y-141214729D01*
X139074284Y-141199490D01*
X139072894Y-141198285D01*
X139065211Y-141196614D01*
X136880874Y-141196614D01*
X136865635Y-141201089D01*
X136864430Y-141202479D01*
X136862759Y-141210162D01*
X136862759Y-141249100D01*
X136842757Y-141317221D01*
X136789101Y-141363714D01*
X136736759Y-141375100D01*
X67714967Y-141375100D01*
X67695582Y-141373600D01*
X67680748Y-141371290D01*
X67680745Y-141371290D01*
X67671876Y-141369909D01*
X67662446Y-141371142D01*
X67660854Y-141371350D01*
X67632169Y-141371807D01*
X67567410Y-141365429D01*
X67523536Y-141361108D01*
X67499313Y-141356290D01*
X67374576Y-141318452D01*
X67351768Y-141309005D01*
X67236808Y-141247557D01*
X67216273Y-141233835D01*
X67115518Y-141151147D01*
X67098053Y-141133682D01*
X67015365Y-141032927D01*
X67001642Y-141012390D01*
X66940195Y-140897432D01*
X66930749Y-140874627D01*
X66892908Y-140749883D01*
X66888092Y-140725665D01*
X66882659Y-140670499D01*
X136862759Y-140670499D01*
X136867234Y-140685738D01*
X136868624Y-140686943D01*
X136876307Y-140688614D01*
X137698644Y-140688614D01*
X137713883Y-140684139D01*
X137715088Y-140682749D01*
X137716759Y-140675066D01*
X137716759Y-140670499D01*
X138224759Y-140670499D01*
X138229234Y-140685738D01*
X138230624Y-140686943D01*
X138238307Y-140688614D01*
X139060644Y-140688614D01*
X139075883Y-140684139D01*
X139077088Y-140682749D01*
X139078759Y-140675066D01*
X139078759Y-140670499D01*
X145502841Y-140670499D01*
X145507316Y-140685738D01*
X145508706Y-140686943D01*
X145516389Y-140688614D01*
X146338726Y-140688614D01*
X146353965Y-140684139D01*
X146355170Y-140682749D01*
X146356841Y-140675066D01*
X146356841Y-140670499D01*
X146864841Y-140670499D01*
X146869316Y-140685738D01*
X146870706Y-140686943D01*
X146878389Y-140688614D01*
X147700726Y-140688614D01*
X147715965Y-140684139D01*
X147717170Y-140682749D01*
X147718841Y-140675066D01*
X147718841Y-140592782D01*
X147718556Y-140586806D01*
X147704370Y-140438120D01*
X147702111Y-140426386D01*
X147645969Y-140235015D01*
X147641539Y-140223939D01*
X147550222Y-140046636D01*
X147543772Y-140036590D01*
X147420579Y-139879757D01*
X147412342Y-139871108D01*
X147261718Y-139740402D01*
X147251994Y-139733467D01*
X147079374Y-139633604D01*
X147068510Y-139628630D01*
X146880114Y-139563207D01*
X146879125Y-139562966D01*
X146868833Y-139564434D01*
X146864841Y-139577999D01*
X146864841Y-140670499D01*
X146356841Y-140670499D01*
X146356841Y-139582212D01*
X146352868Y-139568681D01*
X146343442Y-139567326D01*
X146254304Y-139588808D01*
X146243009Y-139592697D01*
X146061459Y-139675243D01*
X146051117Y-139681190D01*
X145888444Y-139796582D01*
X145879416Y-139804375D01*
X145741499Y-139948445D01*
X145734103Y-139957810D01*
X145625920Y-140125355D01*
X145620424Y-140135959D01*
X145545880Y-140320926D01*
X145542486Y-140332384D01*
X145503984Y-140529542D01*
X145502907Y-140538405D01*
X145502841Y-140541114D01*
X145502841Y-140670499D01*
X139078759Y-140670499D01*
X139078759Y-140592782D01*
X139078474Y-140586806D01*
X139064288Y-140438120D01*
X139062029Y-140426386D01*
X139005887Y-140235015D01*
X139001457Y-140223939D01*
X138910140Y-140046636D01*
X138903690Y-140036590D01*
X138780497Y-139879757D01*
X138772260Y-139871108D01*
X138621636Y-139740402D01*
X138611912Y-139733467D01*
X138439292Y-139633604D01*
X138428428Y-139628630D01*
X138240032Y-139563207D01*
X138239043Y-139562966D01*
X138228751Y-139564434D01*
X138224759Y-139577999D01*
X138224759Y-140670499D01*
X137716759Y-140670499D01*
X137716759Y-139582212D01*
X137712786Y-139568681D01*
X137703360Y-139567326D01*
X137614222Y-139588808D01*
X137602927Y-139592697D01*
X137421377Y-139675243D01*
X137411035Y-139681190D01*
X137248362Y-139796582D01*
X137239334Y-139804375D01*
X137101417Y-139948445D01*
X137094021Y-139957810D01*
X136985838Y-140125355D01*
X136980342Y-140135959D01*
X136905798Y-140320926D01*
X136902404Y-140332384D01*
X136863902Y-140529542D01*
X136862825Y-140538405D01*
X136862759Y-140541114D01*
X136862759Y-140670499D01*
X66882659Y-140670499D01*
X66878311Y-140626354D01*
X66878207Y-140602751D01*
X66878368Y-140600954D01*
X66879176Y-140596152D01*
X66879329Y-140583600D01*
X66875373Y-140555976D01*
X66874100Y-140538114D01*
X66874100Y-137312360D01*
X136862759Y-137312360D01*
X136863044Y-137318336D01*
X136877230Y-137467022D01*
X136879489Y-137478756D01*
X136935631Y-137670127D01*
X136940061Y-137681203D01*
X137031378Y-137858506D01*
X137037828Y-137868552D01*
X137161021Y-138025385D01*
X137169258Y-138034034D01*
X137319882Y-138164740D01*
X137329606Y-138171675D01*
X137502226Y-138271538D01*
X137513090Y-138276512D01*
X137701486Y-138341935D01*
X137702475Y-138342176D01*
X137712767Y-138340708D01*
X137716759Y-138327143D01*
X137716759Y-138322930D01*
X138224759Y-138322930D01*
X138228732Y-138336461D01*
X138238158Y-138337816D01*
X138327296Y-138316334D01*
X138338591Y-138312445D01*
X138520141Y-138229899D01*
X138530483Y-138223952D01*
X138693156Y-138108560D01*
X138702190Y-138100762D01*
X138785353Y-138013888D01*
X138846908Y-137978511D01*
X138917817Y-137982030D01*
X138941487Y-137994777D01*
X138942172Y-137993647D01*
X138948007Y-137997181D01*
X138953427Y-138001325D01*
X138959607Y-138004207D01*
X138959609Y-138004208D01*
X139116305Y-138077277D01*
X139116308Y-138077278D01*
X139122482Y-138080157D01*
X139129130Y-138081643D01*
X139129133Y-138081644D01*
X139299477Y-138119720D01*
X139299480Y-138119720D01*
X139304520Y-138120847D01*
X139310243Y-138121167D01*
X139447379Y-138121167D01*
X139586222Y-138106084D01*
X139763010Y-138046588D01*
X139922898Y-137950518D01*
X139927860Y-137945826D01*
X140053469Y-137827043D01*
X140053471Y-137827041D01*
X140058427Y-137822354D01*
X140163273Y-137668078D01*
X140232544Y-137494887D01*
X140253759Y-137366737D01*
X140261894Y-137317599D01*
X140261894Y-137317595D01*
X140263009Y-137310861D01*
X140257957Y-137214449D01*
X144318591Y-137214449D01*
X144318948Y-137221266D01*
X144318948Y-137221270D01*
X144323722Y-137312360D01*
X144328353Y-137400724D01*
X144330164Y-137407297D01*
X144330164Y-137407300D01*
X144356035Y-137501224D01*
X144377887Y-137580558D01*
X144464883Y-137745559D01*
X144585280Y-137888031D01*
X144733463Y-138001325D01*
X144739643Y-138004207D01*
X144739645Y-138004208D01*
X144896341Y-138077277D01*
X144896344Y-138077278D01*
X144902518Y-138080157D01*
X144909166Y-138081643D01*
X144909169Y-138081644D01*
X145079513Y-138119720D01*
X145079516Y-138119720D01*
X145084556Y-138120847D01*
X145090279Y-138121167D01*
X145227415Y-138121167D01*
X145366258Y-138106084D01*
X145543046Y-138046588D01*
X145634372Y-137991714D01*
X145703065Y-137973774D01*
X145770552Y-137995821D01*
X145798349Y-138021879D01*
X145801101Y-138025382D01*
X145809340Y-138034034D01*
X145959964Y-138164740D01*
X145969688Y-138171675D01*
X146142308Y-138271538D01*
X146153172Y-138276512D01*
X146341568Y-138341935D01*
X146342557Y-138342176D01*
X146352849Y-138340708D01*
X146356841Y-138327143D01*
X146356841Y-138322930D01*
X146864841Y-138322930D01*
X146868814Y-138336461D01*
X146878240Y-138337816D01*
X146967378Y-138316334D01*
X146978673Y-138312445D01*
X147160223Y-138229899D01*
X147170565Y-138223952D01*
X147333238Y-138108560D01*
X147342266Y-138100767D01*
X147480183Y-137956697D01*
X147487579Y-137947332D01*
X147595762Y-137779787D01*
X147601258Y-137769183D01*
X147675802Y-137584216D01*
X147679196Y-137572758D01*
X147717698Y-137375600D01*
X147718775Y-137366737D01*
X147718841Y-137364028D01*
X147718841Y-137034643D01*
X147714366Y-137019404D01*
X147712976Y-137018199D01*
X147705293Y-137016528D01*
X146882956Y-137016528D01*
X146867717Y-137021003D01*
X146866512Y-137022393D01*
X146864841Y-137030076D01*
X146864841Y-138322930D01*
X146356841Y-138322930D01*
X146356841Y-136490413D01*
X146864841Y-136490413D01*
X146869316Y-136505652D01*
X146870706Y-136506857D01*
X146878389Y-136508528D01*
X147700726Y-136508528D01*
X147715965Y-136504053D01*
X147717170Y-136502663D01*
X147718841Y-136494980D01*
X147718841Y-136212696D01*
X147718556Y-136206720D01*
X147704370Y-136058034D01*
X147702111Y-136046300D01*
X147645969Y-135854929D01*
X147641539Y-135843853D01*
X147550222Y-135666550D01*
X147543772Y-135656504D01*
X147420579Y-135499671D01*
X147412342Y-135491022D01*
X147261718Y-135360316D01*
X147251994Y-135353381D01*
X147079374Y-135253518D01*
X147068510Y-135248544D01*
X146880114Y-135183121D01*
X146879125Y-135182880D01*
X146868833Y-135184348D01*
X146864841Y-135197913D01*
X146864841Y-136490413D01*
X146356841Y-136490413D01*
X146356841Y-135202126D01*
X146352868Y-135188595D01*
X146343442Y-135187240D01*
X146254304Y-135208722D01*
X146243009Y-135212611D01*
X146061459Y-135295157D01*
X146051117Y-135301104D01*
X145888444Y-135416496D01*
X145879416Y-135424289D01*
X145741499Y-135568359D01*
X145734103Y-135577724D01*
X145625920Y-135745269D01*
X145620424Y-135755873D01*
X145545880Y-135940840D01*
X145542486Y-135952298D01*
X145503984Y-136149456D01*
X145502907Y-136158319D01*
X145502841Y-136161028D01*
X145502841Y-136297652D01*
X145482839Y-136365773D01*
X145429183Y-136412266D01*
X145358909Y-136422370D01*
X145349356Y-136420618D01*
X145282126Y-136405591D01*
X145282127Y-136405591D01*
X145277080Y-136404463D01*
X145271357Y-136404143D01*
X145134221Y-136404143D01*
X144995378Y-136419226D01*
X144818590Y-136478722D01*
X144658702Y-136574792D01*
X144653742Y-136579483D01*
X144653740Y-136579484D01*
X144587111Y-136642493D01*
X144523173Y-136702956D01*
X144418327Y-136857232D01*
X144349056Y-137030423D01*
X144318591Y-137214449D01*
X140257957Y-137214449D01*
X140253604Y-137131399D01*
X140253247Y-137124586D01*
X140227311Y-137030423D01*
X140205526Y-136951334D01*
X140203713Y-136944752D01*
X140116717Y-136779751D01*
X139996320Y-136637279D01*
X139848137Y-136523985D01*
X139841957Y-136521103D01*
X139841955Y-136521102D01*
X139685259Y-136448033D01*
X139685256Y-136448032D01*
X139679082Y-136445153D01*
X139672434Y-136443667D01*
X139672431Y-136443666D01*
X139502087Y-136405590D01*
X139502084Y-136405590D01*
X139497044Y-136404463D01*
X139491321Y-136404143D01*
X139354185Y-136404143D01*
X139350791Y-136404512D01*
X139350786Y-136404512D01*
X139218366Y-136418897D01*
X139148484Y-136406369D01*
X139096468Y-136358048D01*
X139078759Y-136293634D01*
X139078759Y-136212696D01*
X139078474Y-136206720D01*
X139064288Y-136058034D01*
X139062029Y-136046300D01*
X139005887Y-135854929D01*
X139001457Y-135843853D01*
X138910140Y-135666550D01*
X138903690Y-135656504D01*
X138780497Y-135499671D01*
X138772260Y-135491022D01*
X138621636Y-135360316D01*
X138611912Y-135353381D01*
X138439292Y-135253518D01*
X138428428Y-135248544D01*
X138240032Y-135183121D01*
X138239043Y-135182880D01*
X138228751Y-135184348D01*
X138224759Y-135197913D01*
X138224759Y-138322930D01*
X137716759Y-138322930D01*
X137716759Y-137034643D01*
X137712284Y-137019404D01*
X137710894Y-137018199D01*
X137703211Y-137016528D01*
X136880874Y-137016528D01*
X136865635Y-137021003D01*
X136864430Y-137022393D01*
X136862759Y-137030076D01*
X136862759Y-137312360D01*
X66874100Y-137312360D01*
X66874100Y-136490413D01*
X136862759Y-136490413D01*
X136867234Y-136505652D01*
X136868624Y-136506857D01*
X136876307Y-136508528D01*
X137698644Y-136508528D01*
X137713883Y-136504053D01*
X137715088Y-136502663D01*
X137716759Y-136494980D01*
X137716759Y-135202126D01*
X137712786Y-135188595D01*
X137703360Y-135187240D01*
X137614222Y-135208722D01*
X137602927Y-135212611D01*
X137421377Y-135295157D01*
X137411035Y-135301104D01*
X137248362Y-135416496D01*
X137239334Y-135424289D01*
X137101417Y-135568359D01*
X137094021Y-135577724D01*
X136985838Y-135745269D01*
X136980342Y-135755873D01*
X136905798Y-135940840D01*
X136902404Y-135952298D01*
X136863902Y-136149456D01*
X136862825Y-136158319D01*
X136862759Y-136161028D01*
X136862759Y-136490413D01*
X66874100Y-136490413D01*
X66874100Y-130327565D01*
X73852657Y-130327565D01*
X73866341Y-130719427D01*
X73918199Y-131108084D01*
X74007736Y-131489825D01*
X74134096Y-131861007D01*
X74296075Y-132218087D01*
X74492125Y-132557656D01*
X74493914Y-132560154D01*
X74493916Y-132560158D01*
X74593647Y-132699460D01*
X74720376Y-132876474D01*
X74978649Y-133171496D01*
X75264478Y-133439908D01*
X75575136Y-133679146D01*
X75577739Y-133680773D01*
X75577744Y-133680776D01*
X75697176Y-133755405D01*
X75907656Y-133886928D01*
X76258866Y-134061270D01*
X76625412Y-134200507D01*
X77003795Y-134303312D01*
X77302019Y-134353753D01*
X77387383Y-134368191D01*
X77387386Y-134368191D01*
X77390405Y-134368702D01*
X77545044Y-134379516D01*
X77778485Y-134395840D01*
X77778493Y-134395840D01*
X77781551Y-134396054D01*
X78033637Y-134389013D01*
X78170425Y-134385192D01*
X78170428Y-134385192D01*
X78173499Y-134385106D01*
X78176552Y-134384720D01*
X78176556Y-134384720D01*
X78318176Y-134366829D01*
X78562508Y-134335962D01*
X78565512Y-134335280D01*
X78565515Y-134335279D01*
X78941869Y-134249774D01*
X78941875Y-134249772D01*
X78944865Y-134249093D01*
X78947784Y-134248122D01*
X79313996Y-134126300D01*
X79314002Y-134126298D01*
X79316920Y-134125327D01*
X79422549Y-134078298D01*
X79486671Y-134049749D01*
X84601871Y-134049749D01*
X84604057Y-134065018D01*
X84605005Y-134073870D01*
X84611102Y-134159148D01*
X84618668Y-134264979D01*
X84619625Y-134269379D01*
X84647178Y-134396054D01*
X84664529Y-134475829D01*
X84666102Y-134480047D01*
X84666103Y-134480050D01*
X84688934Y-134541266D01*
X84739931Y-134678006D01*
X84843339Y-134867394D01*
X84846036Y-134870997D01*
X84863978Y-134894966D01*
X84972647Y-135040137D01*
X85125224Y-135192719D01*
X85128818Y-135195409D01*
X85128822Y-135195413D01*
X85294358Y-135319336D01*
X85294365Y-135319341D01*
X85297963Y-135322034D01*
X85301908Y-135324188D01*
X85301914Y-135324192D01*
X85483400Y-135423293D01*
X85483403Y-135423294D01*
X85487347Y-135425448D01*
X85549585Y-135448662D01*
X85685295Y-135499281D01*
X85685303Y-135499283D01*
X85689522Y-135500857D01*
X85693925Y-135501815D01*
X85693929Y-135501816D01*
X85895970Y-135545768D01*
X85895972Y-135545768D01*
X85900370Y-135546725D01*
X86075135Y-135559225D01*
X86087046Y-135560650D01*
X86098248Y-135562535D01*
X86098255Y-135562536D01*
X86103048Y-135563342D01*
X86109324Y-135563418D01*
X86110740Y-135563436D01*
X86110743Y-135563436D01*
X86115600Y-135563495D01*
X86143224Y-135559539D01*
X86161086Y-135558266D01*
X121162350Y-135558266D01*
X121183255Y-135560012D01*
X121198256Y-135562536D01*
X121198259Y-135562536D01*
X121203048Y-135563342D01*
X121209287Y-135563418D01*
X121210740Y-135563436D01*
X121210743Y-135563436D01*
X121215600Y-135563495D01*
X121229915Y-135561445D01*
X121238768Y-135560496D01*
X121366753Y-135551342D01*
X121430835Y-135546759D01*
X121435232Y-135545802D01*
X121435235Y-135545802D01*
X121637281Y-135501848D01*
X121637285Y-135501847D01*
X121641688Y-135500889D01*
X121645907Y-135499315D01*
X121645915Y-135499313D01*
X121782544Y-135448352D01*
X121843867Y-135425479D01*
X121847811Y-135423326D01*
X121847814Y-135423324D01*
X122029303Y-135324220D01*
X122033255Y-135322062D01*
X122036857Y-135319365D01*
X122036864Y-135319361D01*
X122193467Y-135202126D01*
X122205998Y-135192745D01*
X122358579Y-135040159D01*
X122487890Y-134867412D01*
X122591300Y-134678020D01*
X122666704Y-134475839D01*
X122697128Y-134335962D01*
X122711609Y-134269386D01*
X122711610Y-134269379D01*
X122712566Y-134264984D01*
X122725060Y-134090212D01*
X122726482Y-134078317D01*
X122729176Y-134062301D01*
X122729329Y-134049749D01*
X122725373Y-134022131D01*
X122724100Y-134004266D01*
X122724100Y-130327565D01*
X220452657Y-130327565D01*
X220466341Y-130719427D01*
X220518199Y-131108084D01*
X220607736Y-131489825D01*
X220734096Y-131861007D01*
X220896075Y-132218087D01*
X221092125Y-132557656D01*
X221093914Y-132560154D01*
X221093916Y-132560158D01*
X221193647Y-132699460D01*
X221320376Y-132876474D01*
X221578649Y-133171496D01*
X221864478Y-133439908D01*
X222175136Y-133679146D01*
X222177739Y-133680773D01*
X222177744Y-133680776D01*
X222297176Y-133755405D01*
X222507656Y-133886928D01*
X222858866Y-134061270D01*
X223225412Y-134200507D01*
X223603795Y-134303312D01*
X223902019Y-134353753D01*
X223987383Y-134368191D01*
X223987386Y-134368191D01*
X223990405Y-134368702D01*
X224145044Y-134379516D01*
X224378485Y-134395840D01*
X224378493Y-134395840D01*
X224381551Y-134396054D01*
X224633637Y-134389013D01*
X224770425Y-134385192D01*
X224770428Y-134385192D01*
X224773499Y-134385106D01*
X224776552Y-134384720D01*
X224776556Y-134384720D01*
X224918176Y-134366829D01*
X225162508Y-134335962D01*
X225165512Y-134335280D01*
X225165515Y-134335279D01*
X225541869Y-134249774D01*
X225541875Y-134249772D01*
X225544865Y-134249093D01*
X225547784Y-134248122D01*
X225913996Y-134126300D01*
X225914002Y-134126298D01*
X225916920Y-134125327D01*
X226022549Y-134078298D01*
X226272322Y-133967092D01*
X226272328Y-133967089D01*
X226275122Y-133965845D01*
X226277791Y-133964329D01*
X226613384Y-133773686D01*
X226613390Y-133773683D01*
X226616052Y-133772170D01*
X226936455Y-133546150D01*
X227061990Y-133437792D01*
X227230947Y-133291953D01*
X227230951Y-133291949D01*
X227233274Y-133289944D01*
X227310640Y-133208702D01*
X227501557Y-133008218D01*
X227503674Y-133005995D01*
X227605797Y-132875284D01*
X227743165Y-132699460D01*
X227743167Y-132699457D01*
X227745075Y-132697015D01*
X227955174Y-132365954D01*
X228131963Y-132015970D01*
X228164037Y-131933278D01*
X228272641Y-131653281D01*
X228272644Y-131653272D01*
X228273756Y-131650405D01*
X228379200Y-131272748D01*
X228447288Y-130886604D01*
X228460388Y-130716347D01*
X228477219Y-130497613D01*
X228477219Y-130497602D01*
X228477369Y-130495659D01*
X228478934Y-130383600D01*
X228476194Y-130327565D01*
X228459930Y-129995040D01*
X228459780Y-129991967D01*
X228402501Y-129604073D01*
X228385157Y-129534508D01*
X228344206Y-129370266D01*
X228307643Y-129223619D01*
X228176112Y-128854237D01*
X228009164Y-128499454D01*
X228007597Y-128496825D01*
X228007592Y-128496816D01*
X227809961Y-128165289D01*
X227808391Y-128162655D01*
X227806577Y-128160195D01*
X227806572Y-128160187D01*
X227577533Y-127849526D01*
X227577531Y-127849523D01*
X227575711Y-127847055D01*
X227313344Y-127555668D01*
X227023795Y-127291273D01*
X226709828Y-127056395D01*
X226661615Y-127027196D01*
X226377067Y-126854867D01*
X226377058Y-126854862D01*
X226374439Y-126853276D01*
X226020829Y-126683855D01*
X226017939Y-126682803D01*
X226017934Y-126682801D01*
X225655274Y-126550804D01*
X225655271Y-126550803D01*
X225652375Y-126549749D01*
X225376163Y-126478829D01*
X225275577Y-126453003D01*
X225275574Y-126453002D01*
X225272593Y-126452237D01*
X224885108Y-126392251D01*
X224493618Y-126370364D01*
X224490539Y-126370493D01*
X224490536Y-126370493D01*
X224234788Y-126381212D01*
X224101861Y-126386783D01*
X224098817Y-126387211D01*
X224098815Y-126387211D01*
X223888378Y-126416786D01*
X223713576Y-126441353D01*
X223332469Y-126533553D01*
X222962179Y-126662502D01*
X222606238Y-126826969D01*
X222268046Y-127025385D01*
X222112888Y-127138114D01*
X221953311Y-127254053D01*
X221953305Y-127254058D01*
X221950830Y-127255856D01*
X221948544Y-127257885D01*
X221948541Y-127257888D01*
X221868723Y-127328754D01*
X221657617Y-127516183D01*
X221655538Y-127518428D01*
X221655531Y-127518435D01*
X221405306Y-127788654D01*
X221391208Y-127803879D01*
X221358436Y-127847055D01*
X221182966Y-128078228D01*
X221154144Y-128116199D01*
X220948689Y-128450162D01*
X220776803Y-128802580D01*
X220775731Y-128805464D01*
X220775730Y-128805465D01*
X220680336Y-129061972D01*
X220640127Y-129170089D01*
X220539967Y-129549181D01*
X220527904Y-129623659D01*
X220484900Y-129889174D01*
X220477277Y-129936238D01*
X220477083Y-129939318D01*
X220477083Y-129939320D01*
X220459026Y-130226323D01*
X220455043Y-130289635D01*
X220452657Y-130327565D01*
X122724100Y-130327565D01*
X122724100Y-130236850D01*
X122725846Y-130215945D01*
X122728370Y-130200944D01*
X122728370Y-130200941D01*
X122729176Y-130196152D01*
X122729329Y-130183600D01*
X122728640Y-130178788D01*
X122728323Y-130173927D01*
X122728608Y-130173908D01*
X122728207Y-130147149D01*
X122734834Y-130088336D01*
X122741113Y-130060829D01*
X122768085Y-129983747D01*
X122780327Y-129958326D01*
X122823778Y-129889174D01*
X122841370Y-129867115D01*
X122899115Y-129809370D01*
X122921174Y-129791778D01*
X122990326Y-129748327D01*
X123015747Y-129736085D01*
X123092828Y-129709113D01*
X123120336Y-129702834D01*
X123175826Y-129696582D01*
X123191468Y-129696677D01*
X123191479Y-129695800D01*
X123200451Y-129695910D01*
X123209324Y-129697291D01*
X123218226Y-129696127D01*
X123218228Y-129696127D01*
X123233277Y-129694159D01*
X123240886Y-129693164D01*
X123257221Y-129692100D01*
X192912350Y-129692100D01*
X192933255Y-129693846D01*
X192948256Y-129696370D01*
X192948259Y-129696370D01*
X192953048Y-129697176D01*
X192959324Y-129697253D01*
X192960741Y-129697270D01*
X192960744Y-129697270D01*
X192965600Y-129697329D01*
X192970410Y-129696640D01*
X192972837Y-129696482D01*
X192978533Y-129695903D01*
X193264722Y-129678592D01*
X193264727Y-129678591D01*
X193268519Y-129678362D01*
X193567021Y-129623659D01*
X193620052Y-129607134D01*
X193853116Y-129534508D01*
X193856752Y-129533375D01*
X193860222Y-129531813D01*
X193860228Y-129531811D01*
X193995121Y-129471100D01*
X194133489Y-129408826D01*
X194136746Y-129406857D01*
X194136750Y-129406855D01*
X194215694Y-129359131D01*
X194393195Y-129251828D01*
X194425370Y-129226621D01*
X194501228Y-129167190D01*
X194632084Y-129064671D01*
X194846671Y-128850084D01*
X194983762Y-128675100D01*
X195031474Y-128614200D01*
X195031476Y-128614197D01*
X195033828Y-128611195D01*
X195190826Y-128351489D01*
X195276924Y-128160187D01*
X195313811Y-128078228D01*
X195313813Y-128078222D01*
X195315375Y-128074752D01*
X195387040Y-127844772D01*
X195404527Y-127788654D01*
X195404527Y-127788653D01*
X195405659Y-127785021D01*
X195460362Y-127486519D01*
X195463846Y-127428930D01*
X195472172Y-127291273D01*
X195476820Y-127214441D01*
X195478335Y-127201154D01*
X195479176Y-127196152D01*
X195479329Y-127183600D01*
X195475373Y-127155976D01*
X195474100Y-127138114D01*
X195474100Y-74036850D01*
X195475846Y-74015945D01*
X195478370Y-74000944D01*
X195478370Y-74000941D01*
X195479176Y-73996152D01*
X195479329Y-73983600D01*
X195478640Y-73978790D01*
X195478482Y-73976363D01*
X195477903Y-73970667D01*
X195460592Y-73684478D01*
X195460591Y-73684473D01*
X195460362Y-73680681D01*
X195405659Y-73382179D01*
X195315375Y-73092448D01*
X195190826Y-72815711D01*
X195033828Y-72556005D01*
X194987859Y-72497329D01*
X194849024Y-72320120D01*
X194846671Y-72317116D01*
X194632084Y-72102529D01*
X194393195Y-71915372D01*
X194204398Y-71801240D01*
X194136750Y-71760345D01*
X194136746Y-71760343D01*
X194133489Y-71758374D01*
X193888779Y-71648239D01*
X193860228Y-71635389D01*
X193860222Y-71635387D01*
X193856752Y-71633825D01*
X193567021Y-71543541D01*
X193268519Y-71488838D01*
X193264725Y-71488609D01*
X193264721Y-71488608D01*
X193132317Y-71480599D01*
X192996441Y-71472380D01*
X192983154Y-71470865D01*
X192978152Y-71470024D01*
X192971876Y-71469947D01*
X192970460Y-71469930D01*
X192970457Y-71469930D01*
X192965600Y-71469871D01*
X192943213Y-71473077D01*
X192937976Y-71473827D01*
X192920114Y-71475100D01*
X123264967Y-71475100D01*
X123245582Y-71473600D01*
X123230748Y-71471290D01*
X123230745Y-71471290D01*
X123221876Y-71469909D01*
X123212974Y-71471073D01*
X123212850Y-71471089D01*
X123182408Y-71471360D01*
X123161730Y-71469030D01*
X123120336Y-71464366D01*
X123092829Y-71458087D01*
X123015747Y-71431115D01*
X122990326Y-71418873D01*
X122921174Y-71375422D01*
X122899115Y-71357830D01*
X122841370Y-71300085D01*
X122823778Y-71278026D01*
X122780327Y-71208874D01*
X122768085Y-71183453D01*
X122741113Y-71106372D01*
X122734834Y-71078866D01*
X122728770Y-71025051D01*
X122728488Y-71000240D01*
X122729176Y-70996152D01*
X122729329Y-70983600D01*
X122725373Y-70955976D01*
X122724100Y-70938114D01*
X122724100Y-70727565D01*
X220452657Y-70727565D01*
X220452765Y-70730654D01*
X220464925Y-71078866D01*
X220466341Y-71119427D01*
X220466747Y-71122471D01*
X220466748Y-71122481D01*
X220478276Y-71208874D01*
X220518199Y-71508084D01*
X220518899Y-71511068D01*
X220518900Y-71511074D01*
X220586958Y-71801240D01*
X220607736Y-71889825D01*
X220734096Y-72261007D01*
X220896075Y-72618087D01*
X221092125Y-72957656D01*
X221093914Y-72960154D01*
X221093916Y-72960158D01*
X221193647Y-73099460D01*
X221320376Y-73276474D01*
X221322402Y-73278789D01*
X221322405Y-73278792D01*
X221431640Y-73403570D01*
X221578649Y-73571496D01*
X221864478Y-73839908D01*
X222041669Y-73976363D01*
X222093068Y-74015945D01*
X222175136Y-74079146D01*
X222177739Y-74080773D01*
X222177744Y-74080776D01*
X222297176Y-74155405D01*
X222507656Y-74286928D01*
X222858866Y-74461270D01*
X223225412Y-74600507D01*
X223603795Y-74703312D01*
X223902019Y-74753753D01*
X223987383Y-74768191D01*
X223987386Y-74768191D01*
X223990405Y-74768702D01*
X224145044Y-74779516D01*
X224378485Y-74795840D01*
X224378493Y-74795840D01*
X224381551Y-74796054D01*
X224633637Y-74789013D01*
X224770425Y-74785192D01*
X224770428Y-74785192D01*
X224773499Y-74785106D01*
X224776552Y-74784720D01*
X224776556Y-74784720D01*
X224918176Y-74766829D01*
X225162508Y-74735962D01*
X225165512Y-74735280D01*
X225165515Y-74735279D01*
X225541869Y-74649774D01*
X225541875Y-74649772D01*
X225544865Y-74649093D01*
X225547784Y-74648122D01*
X225913996Y-74526300D01*
X225914002Y-74526298D01*
X225916920Y-74525327D01*
X226058335Y-74462365D01*
X226272322Y-74367092D01*
X226272328Y-74367089D01*
X226275122Y-74365845D01*
X226277791Y-74364329D01*
X226613384Y-74173686D01*
X226613390Y-74173683D01*
X226616052Y-74172170D01*
X226872461Y-73991293D01*
X226933942Y-73947923D01*
X226933946Y-73947920D01*
X226936455Y-73946150D01*
X227061990Y-73837792D01*
X227230947Y-73691953D01*
X227230951Y-73691949D01*
X227233274Y-73689944D01*
X227245659Y-73676939D01*
X227501557Y-73408218D01*
X227503674Y-73405995D01*
X227519356Y-73385924D01*
X227743165Y-73099460D01*
X227743167Y-73099457D01*
X227745075Y-73097015D01*
X227955174Y-72765954D01*
X227973907Y-72728870D01*
X228062989Y-72552516D01*
X228131963Y-72415970D01*
X228171353Y-72314417D01*
X228272641Y-72053281D01*
X228272644Y-72053272D01*
X228273756Y-72050405D01*
X228379200Y-71672748D01*
X228447288Y-71286604D01*
X228463272Y-71078866D01*
X228477219Y-70897613D01*
X228477219Y-70897602D01*
X228477369Y-70895659D01*
X228478934Y-70783600D01*
X228476194Y-70727565D01*
X228459930Y-70395040D01*
X228459780Y-70391967D01*
X228402501Y-70004073D01*
X228307643Y-69623619D01*
X228176112Y-69254237D01*
X228009164Y-68899454D01*
X228007597Y-68896825D01*
X228007592Y-68896816D01*
X227809961Y-68565289D01*
X227808391Y-68562655D01*
X227806577Y-68560195D01*
X227806572Y-68560187D01*
X227577533Y-68249526D01*
X227577531Y-68249523D01*
X227575711Y-68247055D01*
X227313344Y-67955668D01*
X227023795Y-67691273D01*
X226709828Y-67456395D01*
X226661615Y-67427196D01*
X226377067Y-67254867D01*
X226377058Y-67254862D01*
X226374439Y-67253276D01*
X226038827Y-67092478D01*
X226023601Y-67085183D01*
X226023599Y-67085182D01*
X226020829Y-67083855D01*
X226017939Y-67082803D01*
X226017934Y-67082801D01*
X225655274Y-66950804D01*
X225655271Y-66950803D01*
X225652375Y-66949749D01*
X225376163Y-66878829D01*
X225275577Y-66853003D01*
X225275574Y-66853002D01*
X225272593Y-66852237D01*
X224885108Y-66792251D01*
X224493618Y-66770364D01*
X224490539Y-66770493D01*
X224490536Y-66770493D01*
X224234788Y-66781212D01*
X224101861Y-66786783D01*
X224098817Y-66787211D01*
X224098815Y-66787211D01*
X223888378Y-66816786D01*
X223713576Y-66841353D01*
X223332469Y-66933553D01*
X222962179Y-67062502D01*
X222606238Y-67226969D01*
X222268046Y-67425385D01*
X222108044Y-67541633D01*
X221953311Y-67654053D01*
X221953305Y-67654058D01*
X221950830Y-67655856D01*
X221948544Y-67657885D01*
X221948541Y-67657888D01*
X221868723Y-67728754D01*
X221657617Y-67916183D01*
X221655538Y-67918428D01*
X221655531Y-67918435D01*
X221567169Y-68013858D01*
X221391208Y-68203879D01*
X221154144Y-68516199D01*
X220948689Y-68850162D01*
X220776803Y-69202580D01*
X220640127Y-69570089D01*
X220539967Y-69949181D01*
X220477277Y-70336238D01*
X220477083Y-70339318D01*
X220477083Y-70339320D01*
X220455043Y-70689635D01*
X220452657Y-70727565D01*
X122724100Y-70727565D01*
X122724100Y-67102999D01*
X122725846Y-67082098D01*
X122728368Y-67067102D01*
X122729176Y-67062301D01*
X122729329Y-67049749D01*
X122727281Y-67035456D01*
X122726329Y-67026586D01*
X122719672Y-66933553D01*
X122712586Y-66834519D01*
X122675819Y-66665525D01*
X122667669Y-66628063D01*
X122667667Y-66628057D01*
X122666713Y-66623671D01*
X122646913Y-66570589D01*
X122592875Y-66425719D01*
X122592872Y-66425713D01*
X122591300Y-66421498D01*
X122487883Y-66232114D01*
X122358567Y-66059376D01*
X122355388Y-66056197D01*
X122209169Y-65909982D01*
X122209162Y-65909976D01*
X122205985Y-65906799D01*
X122202381Y-65904101D01*
X122036848Y-65780188D01*
X122036845Y-65780186D01*
X122033242Y-65777489D01*
X122029292Y-65775332D01*
X122029287Y-65775329D01*
X121946794Y-65730286D01*
X121843856Y-65674079D01*
X121839639Y-65672506D01*
X121645899Y-65600246D01*
X121645892Y-65600244D01*
X121641680Y-65598673D01*
X121637290Y-65597718D01*
X121637283Y-65597716D01*
X121521309Y-65572488D01*
X121430830Y-65552806D01*
X121426344Y-65552485D01*
X121426343Y-65552485D01*
X121365555Y-65548138D01*
X121256070Y-65540308D01*
X121244155Y-65538882D01*
X121232952Y-65536997D01*
X121232945Y-65536996D01*
X121228152Y-65536190D01*
X121221913Y-65536114D01*
X121220460Y-65536096D01*
X121220457Y-65536096D01*
X121215600Y-65536037D01*
X121195734Y-65538882D01*
X121187976Y-65539993D01*
X121170114Y-65541266D01*
X86168850Y-65541266D01*
X86147945Y-65539520D01*
X86132944Y-65536996D01*
X86132941Y-65536996D01*
X86128152Y-65536190D01*
X86121876Y-65536113D01*
X86120459Y-65536096D01*
X86120456Y-65536096D01*
X86115600Y-65536037D01*
X86105638Y-65537464D01*
X86100351Y-65538221D01*
X86091480Y-65539172D01*
X85924187Y-65551137D01*
X85900374Y-65552840D01*
X85895982Y-65553795D01*
X85895978Y-65553796D01*
X85814891Y-65571435D01*
X85689530Y-65598705D01*
X85685317Y-65600276D01*
X85685318Y-65600276D01*
X85491657Y-65672506D01*
X85487359Y-65674109D01*
X85483411Y-65676265D01*
X85483406Y-65676267D01*
X85301931Y-65775358D01*
X85301926Y-65775361D01*
X85297976Y-65777518D01*
X85125237Y-65906825D01*
X84972658Y-66059398D01*
X84969967Y-66062992D01*
X84969964Y-66062996D01*
X84846042Y-66228530D01*
X84843345Y-66232133D01*
X84739931Y-66421512D01*
X84738362Y-66425719D01*
X84738361Y-66425721D01*
X84666096Y-66619457D01*
X84664520Y-66623681D01*
X84663567Y-66628063D01*
X84663564Y-66628074D01*
X84655416Y-66665525D01*
X84618647Y-66834523D01*
X84618326Y-66839007D01*
X84618326Y-66839009D01*
X84606142Y-67009283D01*
X84604719Y-67021183D01*
X84602024Y-67037197D01*
X84601871Y-67049749D01*
X84602561Y-67054567D01*
X84602561Y-67054570D01*
X84605828Y-67077387D01*
X84607100Y-67095245D01*
X84607100Y-133996505D01*
X84605353Y-134017414D01*
X84602024Y-134037197D01*
X84601871Y-134049749D01*
X79486671Y-134049749D01*
X79672322Y-133967092D01*
X79672328Y-133967089D01*
X79675122Y-133965845D01*
X79677791Y-133964329D01*
X80013384Y-133773686D01*
X80013390Y-133773683D01*
X80016052Y-133772170D01*
X80336455Y-133546150D01*
X80461990Y-133437792D01*
X80630947Y-133291953D01*
X80630951Y-133291949D01*
X80633274Y-133289944D01*
X80710640Y-133208702D01*
X80901557Y-133008218D01*
X80903674Y-133005995D01*
X81005797Y-132875284D01*
X81143165Y-132699460D01*
X81143167Y-132699457D01*
X81145075Y-132697015D01*
X81355174Y-132365954D01*
X81531963Y-132015970D01*
X81564037Y-131933278D01*
X81672641Y-131653281D01*
X81672644Y-131653272D01*
X81673756Y-131650405D01*
X81779200Y-131272748D01*
X81847288Y-130886604D01*
X81860388Y-130716347D01*
X81877219Y-130497613D01*
X81877219Y-130497602D01*
X81877369Y-130495659D01*
X81878934Y-130383600D01*
X81876194Y-130327565D01*
X81859930Y-129995040D01*
X81859780Y-129991967D01*
X81802501Y-129604073D01*
X81785157Y-129534508D01*
X81744206Y-129370266D01*
X81707643Y-129223619D01*
X81576112Y-128854237D01*
X81409164Y-128499454D01*
X81407597Y-128496825D01*
X81407592Y-128496816D01*
X81209961Y-128165289D01*
X81208391Y-128162655D01*
X81206577Y-128160195D01*
X81206572Y-128160187D01*
X80977533Y-127849526D01*
X80977531Y-127849523D01*
X80975711Y-127847055D01*
X80713344Y-127555668D01*
X80423795Y-127291273D01*
X80109828Y-127056395D01*
X80061615Y-127027196D01*
X79777067Y-126854867D01*
X79777058Y-126854862D01*
X79774439Y-126853276D01*
X79420829Y-126683855D01*
X79417939Y-126682803D01*
X79417934Y-126682801D01*
X79055274Y-126550804D01*
X79055271Y-126550803D01*
X79052375Y-126549749D01*
X78776163Y-126478829D01*
X78675577Y-126453003D01*
X78675574Y-126453002D01*
X78672593Y-126452237D01*
X78285108Y-126392251D01*
X77893618Y-126370364D01*
X77890539Y-126370493D01*
X77890536Y-126370493D01*
X77634788Y-126381212D01*
X77501861Y-126386783D01*
X77498817Y-126387211D01*
X77498815Y-126387211D01*
X77288378Y-126416786D01*
X77113576Y-126441353D01*
X76732469Y-126533553D01*
X76362179Y-126662502D01*
X76006238Y-126826969D01*
X75668046Y-127025385D01*
X75512888Y-127138114D01*
X75353311Y-127254053D01*
X75353305Y-127254058D01*
X75350830Y-127255856D01*
X75348544Y-127257885D01*
X75348541Y-127257888D01*
X75268723Y-127328754D01*
X75057617Y-127516183D01*
X75055538Y-127518428D01*
X75055531Y-127518435D01*
X74805306Y-127788654D01*
X74791208Y-127803879D01*
X74758436Y-127847055D01*
X74582966Y-128078228D01*
X74554144Y-128116199D01*
X74348689Y-128450162D01*
X74176803Y-128802580D01*
X74175731Y-128805464D01*
X74175730Y-128805465D01*
X74080336Y-129061972D01*
X74040127Y-129170089D01*
X73939967Y-129549181D01*
X73927904Y-129623659D01*
X73884900Y-129889174D01*
X73877277Y-129936238D01*
X73877083Y-129939318D01*
X73877083Y-129939320D01*
X73859026Y-130226323D01*
X73855043Y-130289635D01*
X73852657Y-130327565D01*
X66874100Y-130327565D01*
X66874100Y-70727565D01*
X73852657Y-70727565D01*
X73852765Y-70730654D01*
X73864925Y-71078866D01*
X73866341Y-71119427D01*
X73866747Y-71122471D01*
X73866748Y-71122481D01*
X73878276Y-71208874D01*
X73918199Y-71508084D01*
X73918899Y-71511068D01*
X73918900Y-71511074D01*
X73986958Y-71801240D01*
X74007736Y-71889825D01*
X74134096Y-72261007D01*
X74296075Y-72618087D01*
X74492125Y-72957656D01*
X74493914Y-72960154D01*
X74493916Y-72960158D01*
X74593647Y-73099460D01*
X74720376Y-73276474D01*
X74722402Y-73278789D01*
X74722405Y-73278792D01*
X74831640Y-73403570D01*
X74978649Y-73571496D01*
X75264478Y-73839908D01*
X75441669Y-73976363D01*
X75493068Y-74015945D01*
X75575136Y-74079146D01*
X75577739Y-74080773D01*
X75577744Y-74080776D01*
X75697176Y-74155405D01*
X75907656Y-74286928D01*
X76258866Y-74461270D01*
X76625412Y-74600507D01*
X77003795Y-74703312D01*
X77302019Y-74753753D01*
X77387383Y-74768191D01*
X77387386Y-74768191D01*
X77390405Y-74768702D01*
X77545044Y-74779516D01*
X77778485Y-74795840D01*
X77778493Y-74795840D01*
X77781551Y-74796054D01*
X78033637Y-74789013D01*
X78170425Y-74785192D01*
X78170428Y-74785192D01*
X78173499Y-74785106D01*
X78176552Y-74784720D01*
X78176556Y-74784720D01*
X78318176Y-74766829D01*
X78562508Y-74735962D01*
X78565512Y-74735280D01*
X78565515Y-74735279D01*
X78941869Y-74649774D01*
X78941875Y-74649772D01*
X78944865Y-74649093D01*
X78947784Y-74648122D01*
X79313996Y-74526300D01*
X79314002Y-74526298D01*
X79316920Y-74525327D01*
X79458335Y-74462365D01*
X79672322Y-74367092D01*
X79672328Y-74367089D01*
X79675122Y-74365845D01*
X79677791Y-74364329D01*
X80013384Y-74173686D01*
X80013390Y-74173683D01*
X80016052Y-74172170D01*
X80272461Y-73991293D01*
X80333942Y-73947923D01*
X80333946Y-73947920D01*
X80336455Y-73946150D01*
X80461990Y-73837792D01*
X80630947Y-73691953D01*
X80630951Y-73691949D01*
X80633274Y-73689944D01*
X80645659Y-73676939D01*
X80901557Y-73408218D01*
X80903674Y-73405995D01*
X80919356Y-73385924D01*
X81143165Y-73099460D01*
X81143167Y-73099457D01*
X81145075Y-73097015D01*
X81355174Y-72765954D01*
X81373907Y-72728870D01*
X81462989Y-72552516D01*
X81531963Y-72415970D01*
X81571353Y-72314417D01*
X81672641Y-72053281D01*
X81672644Y-72053272D01*
X81673756Y-72050405D01*
X81779200Y-71672748D01*
X81847288Y-71286604D01*
X81863272Y-71078866D01*
X81877219Y-70897613D01*
X81877219Y-70897602D01*
X81877369Y-70895659D01*
X81878934Y-70783600D01*
X81876194Y-70727565D01*
X81859930Y-70395040D01*
X81859780Y-70391967D01*
X81802501Y-70004073D01*
X81707643Y-69623619D01*
X81576112Y-69254237D01*
X81409164Y-68899454D01*
X81407597Y-68896825D01*
X81407592Y-68896816D01*
X81209961Y-68565289D01*
X81208391Y-68562655D01*
X81206577Y-68560195D01*
X81206572Y-68560187D01*
X80977533Y-68249526D01*
X80977531Y-68249523D01*
X80975711Y-68247055D01*
X80713344Y-67955668D01*
X80423795Y-67691273D01*
X80109828Y-67456395D01*
X80061615Y-67427196D01*
X79777067Y-67254867D01*
X79777058Y-67254862D01*
X79774439Y-67253276D01*
X79438827Y-67092478D01*
X79423601Y-67085183D01*
X79423599Y-67085182D01*
X79420829Y-67083855D01*
X79417939Y-67082803D01*
X79417934Y-67082801D01*
X79055274Y-66950804D01*
X79055271Y-66950803D01*
X79052375Y-66949749D01*
X78776163Y-66878829D01*
X78675577Y-66853003D01*
X78675574Y-66853002D01*
X78672593Y-66852237D01*
X78285108Y-66792251D01*
X77893618Y-66770364D01*
X77890539Y-66770493D01*
X77890536Y-66770493D01*
X77634788Y-66781212D01*
X77501861Y-66786783D01*
X77498817Y-66787211D01*
X77498815Y-66787211D01*
X77288378Y-66816786D01*
X77113576Y-66841353D01*
X76732469Y-66933553D01*
X76362179Y-67062502D01*
X76006238Y-67226969D01*
X75668046Y-67425385D01*
X75508044Y-67541633D01*
X75353311Y-67654053D01*
X75353305Y-67654058D01*
X75350830Y-67655856D01*
X75348544Y-67657885D01*
X75348541Y-67657888D01*
X75268723Y-67728754D01*
X75057617Y-67916183D01*
X75055538Y-67918428D01*
X75055531Y-67918435D01*
X74967169Y-68013858D01*
X74791208Y-68203879D01*
X74554144Y-68516199D01*
X74348689Y-68850162D01*
X74176803Y-69202580D01*
X74040127Y-69570089D01*
X73939967Y-69949181D01*
X73877277Y-70336238D01*
X73877083Y-70339318D01*
X73877083Y-70339320D01*
X73855043Y-70689635D01*
X73852657Y-70727565D01*
X66874100Y-70727565D01*
X66874100Y-60636850D01*
X66875846Y-60615945D01*
X66878370Y-60600944D01*
X66878370Y-60600941D01*
X66879176Y-60596152D01*
X66879329Y-60583600D01*
X66878639Y-60578779D01*
X66878388Y-60577026D01*
X66877723Y-60546817D01*
X66888092Y-60441535D01*
X66892908Y-60417317D01*
X66930749Y-60292573D01*
X66940195Y-60269768D01*
X67001643Y-60154808D01*
X67015365Y-60134273D01*
X67098053Y-60033518D01*
X67115518Y-60016053D01*
X67216273Y-59933365D01*
X67236808Y-59919643D01*
X67351768Y-59858195D01*
X67374573Y-59848749D01*
X67499317Y-59810908D01*
X67523534Y-59806092D01*
X67543759Y-59804100D01*
X67625412Y-59796058D01*
X67641469Y-59796512D01*
X67641478Y-59795800D01*
X67650452Y-59795910D01*
X67659324Y-59797291D01*
X67668226Y-59796127D01*
X67668228Y-59796127D01*
X67684659Y-59793978D01*
X67690886Y-59793164D01*
X67707221Y-59792100D01*
X234616233Y-59792100D01*
X234635618Y-59793600D01*
G37*
%TD.AperFunction*%
M02*
