%TF.GenerationSoftware,KiCad,Pcbnew,(6.0.6-0)*%
%TF.CreationDate,2022-08-02T21:06:59+02:00*%
%TF.ProjectId,GlowSignMainPCB,476c6f77-5369-4676-9e4d-61696e504342,rev?*%
%TF.SameCoordinates,Original*%
%TF.FileFunction,Other,Comment*%
%FSLAX46Y46*%
G04 Gerber Fmt 4.6, Leading zero omitted, Abs format (unit mm)*
G04 Created by KiCad (PCBNEW (6.0.6-0)) date 2022-08-02 21:06:59*
%MOMM*%
%LPD*%
G01*
G04 APERTURE LIST*
%ADD10C,0.100000*%
%ADD11C,0.150000*%
G04 APERTURE END LIST*
D10*
%TO.C,U4*%
X189358190Y-81114095D02*
X189358190Y-81352190D01*
X189596285Y-81376000D01*
X189572476Y-81352190D01*
X189548666Y-81304571D01*
X189548666Y-81185523D01*
X189572476Y-81137904D01*
X189596285Y-81114095D01*
X189643904Y-81090285D01*
X189762952Y-81090285D01*
X189810571Y-81114095D01*
X189834380Y-81137904D01*
X189858190Y-81185523D01*
X189858190Y-81304571D01*
X189834380Y-81352190D01*
X189810571Y-81376000D01*
X189858190Y-80495047D02*
X189524857Y-80495047D01*
X189572476Y-80495047D02*
X189548666Y-80471238D01*
X189524857Y-80423619D01*
X189524857Y-80352190D01*
X189548666Y-80304571D01*
X189596285Y-80280761D01*
X189858190Y-80280761D01*
X189596285Y-80280761D02*
X189548666Y-80256952D01*
X189524857Y-80209333D01*
X189524857Y-80137904D01*
X189548666Y-80090285D01*
X189596285Y-80066476D01*
X189858190Y-80066476D01*
X189858190Y-79828380D02*
X189524857Y-79828380D01*
X189572476Y-79828380D02*
X189548666Y-79804571D01*
X189524857Y-79756952D01*
X189524857Y-79685523D01*
X189548666Y-79637904D01*
X189596285Y-79614095D01*
X189858190Y-79614095D01*
X189596285Y-79614095D02*
X189548666Y-79590285D01*
X189524857Y-79542666D01*
X189524857Y-79471238D01*
X189548666Y-79423619D01*
X189596285Y-79399809D01*
X189858190Y-79399809D01*
D11*
X185459380Y-98247428D02*
X184459380Y-98247428D01*
X185459380Y-97676000D02*
X184887952Y-98104571D01*
X184459380Y-97676000D02*
X185030809Y-98247428D01*
X184935571Y-97247428D02*
X184935571Y-96914095D01*
X185459380Y-96771238D02*
X185459380Y-97247428D01*
X184459380Y-97247428D01*
X184459380Y-96771238D01*
X184935571Y-96342666D02*
X184935571Y-96009333D01*
X185459380Y-95866476D02*
X185459380Y-96342666D01*
X184459380Y-96342666D01*
X184459380Y-95866476D01*
X185459380Y-95437904D02*
X184459380Y-95437904D01*
X184459380Y-95056952D01*
X184507000Y-94961714D01*
X184554619Y-94914095D01*
X184649857Y-94866476D01*
X184792714Y-94866476D01*
X184887952Y-94914095D01*
X184935571Y-94961714D01*
X184983190Y-95056952D01*
X184983190Y-95437904D01*
X185078428Y-94437904D02*
X185078428Y-93676000D01*
X184459380Y-93009333D02*
X184459380Y-92818857D01*
X184507000Y-92723619D01*
X184602238Y-92628380D01*
X184792714Y-92580761D01*
X185126047Y-92580761D01*
X185316523Y-92628380D01*
X185411761Y-92723619D01*
X185459380Y-92818857D01*
X185459380Y-93009333D01*
X185411761Y-93104571D01*
X185316523Y-93199809D01*
X185126047Y-93247428D01*
X184792714Y-93247428D01*
X184602238Y-93199809D01*
X184507000Y-93104571D01*
X184459380Y-93009333D01*
X184459380Y-92152190D02*
X185268904Y-92152190D01*
X185364142Y-92104571D01*
X185411761Y-92056952D01*
X185459380Y-91961714D01*
X185459380Y-91771238D01*
X185411761Y-91676000D01*
X185364142Y-91628380D01*
X185268904Y-91580761D01*
X184459380Y-91580761D01*
X184459380Y-91247428D02*
X184459380Y-90676000D01*
X185459380Y-90961714D02*
X184459380Y-90961714D01*
X184459380Y-89676000D02*
X184459380Y-89009333D01*
X185459380Y-89676000D01*
X185459380Y-89009333D01*
X184459380Y-88437904D02*
X184459380Y-88247428D01*
X184507000Y-88152190D01*
X184602238Y-88056952D01*
X184792714Y-88009333D01*
X185126047Y-88009333D01*
X185316523Y-88056952D01*
X185411761Y-88152190D01*
X185459380Y-88247428D01*
X185459380Y-88437904D01*
X185411761Y-88533142D01*
X185316523Y-88628380D01*
X185126047Y-88676000D01*
X184792714Y-88676000D01*
X184602238Y-88628380D01*
X184507000Y-88533142D01*
X184459380Y-88437904D01*
X185459380Y-87580761D02*
X184459380Y-87580761D01*
X185459380Y-87009333D01*
X184459380Y-87009333D01*
X184935571Y-86533142D02*
X184935571Y-86199809D01*
X185459380Y-86056952D02*
X185459380Y-86533142D01*
X184459380Y-86533142D01*
X184459380Y-86056952D01*
D10*
X189358190Y-104114095D02*
X189358190Y-104352190D01*
X189596285Y-104376000D01*
X189572476Y-104352190D01*
X189548666Y-104304571D01*
X189548666Y-104185523D01*
X189572476Y-104137904D01*
X189596285Y-104114095D01*
X189643904Y-104090285D01*
X189762952Y-104090285D01*
X189810571Y-104114095D01*
X189834380Y-104137904D01*
X189858190Y-104185523D01*
X189858190Y-104304571D01*
X189834380Y-104352190D01*
X189810571Y-104376000D01*
X189858190Y-103495047D02*
X189524857Y-103495047D01*
X189572476Y-103495047D02*
X189548666Y-103471238D01*
X189524857Y-103423619D01*
X189524857Y-103352190D01*
X189548666Y-103304571D01*
X189596285Y-103280761D01*
X189858190Y-103280761D01*
X189596285Y-103280761D02*
X189548666Y-103256952D01*
X189524857Y-103209333D01*
X189524857Y-103137904D01*
X189548666Y-103090285D01*
X189596285Y-103066476D01*
X189858190Y-103066476D01*
X189858190Y-102828380D02*
X189524857Y-102828380D01*
X189572476Y-102828380D02*
X189548666Y-102804571D01*
X189524857Y-102756952D01*
X189524857Y-102685523D01*
X189548666Y-102637904D01*
X189596285Y-102614095D01*
X189858190Y-102614095D01*
X189596285Y-102614095D02*
X189548666Y-102590285D01*
X189524857Y-102542666D01*
X189524857Y-102471238D01*
X189548666Y-102423619D01*
X189596285Y-102399809D01*
X189858190Y-102399809D01*
X184193904Y-84102190D02*
X183955809Y-84102190D01*
X183932000Y-84340285D01*
X183955809Y-84316476D01*
X184003428Y-84292666D01*
X184122476Y-84292666D01*
X184170095Y-84316476D01*
X184193904Y-84340285D01*
X184217714Y-84387904D01*
X184217714Y-84506952D01*
X184193904Y-84554571D01*
X184170095Y-84578380D01*
X184122476Y-84602190D01*
X184003428Y-84602190D01*
X183955809Y-84578380D01*
X183932000Y-84554571D01*
X184812952Y-84602190D02*
X184812952Y-84268857D01*
X184812952Y-84316476D02*
X184836761Y-84292666D01*
X184884380Y-84268857D01*
X184955809Y-84268857D01*
X185003428Y-84292666D01*
X185027238Y-84340285D01*
X185027238Y-84602190D01*
X185027238Y-84340285D02*
X185051047Y-84292666D01*
X185098666Y-84268857D01*
X185170095Y-84268857D01*
X185217714Y-84292666D01*
X185241523Y-84340285D01*
X185241523Y-84602190D01*
X185479619Y-84602190D02*
X185479619Y-84268857D01*
X185479619Y-84316476D02*
X185503428Y-84292666D01*
X185551047Y-84268857D01*
X185622476Y-84268857D01*
X185670095Y-84292666D01*
X185693904Y-84340285D01*
X185693904Y-84602190D01*
X185693904Y-84340285D02*
X185717714Y-84292666D01*
X185765333Y-84268857D01*
X185836761Y-84268857D01*
X185884380Y-84292666D01*
X185908190Y-84340285D01*
X185908190Y-84602190D01*
D11*
X191173666Y-94937904D02*
X191173666Y-94461714D01*
X191459380Y-95033142D02*
X190459380Y-94699809D01*
X191459380Y-94366476D01*
X190792714Y-94033142D02*
X191459380Y-94033142D01*
X190887952Y-94033142D02*
X190840333Y-93985523D01*
X190792714Y-93890285D01*
X190792714Y-93747428D01*
X190840333Y-93652190D01*
X190935571Y-93604571D01*
X191459380Y-93604571D01*
X190792714Y-93271238D02*
X190792714Y-92890285D01*
X190459380Y-93128380D02*
X191316523Y-93128380D01*
X191411761Y-93080761D01*
X191459380Y-92985523D01*
X191459380Y-92890285D01*
X191411761Y-92176000D02*
X191459380Y-92271238D01*
X191459380Y-92461714D01*
X191411761Y-92556952D01*
X191316523Y-92604571D01*
X190935571Y-92604571D01*
X190840333Y-92556952D01*
X190792714Y-92461714D01*
X190792714Y-92271238D01*
X190840333Y-92176000D01*
X190935571Y-92128380D01*
X191030809Y-92128380D01*
X191126047Y-92604571D01*
X190792714Y-91699809D02*
X191459380Y-91699809D01*
X190887952Y-91699809D02*
X190840333Y-91652190D01*
X190792714Y-91556952D01*
X190792714Y-91414095D01*
X190840333Y-91318857D01*
X190935571Y-91271238D01*
X191459380Y-91271238D01*
X190792714Y-90795047D02*
X191459380Y-90795047D01*
X190887952Y-90795047D02*
X190840333Y-90747428D01*
X190792714Y-90652190D01*
X190792714Y-90509333D01*
X190840333Y-90414095D01*
X190935571Y-90366476D01*
X191459380Y-90366476D01*
X191459380Y-89461714D02*
X190935571Y-89461714D01*
X190840333Y-89509333D01*
X190792714Y-89604571D01*
X190792714Y-89795047D01*
X190840333Y-89890285D01*
X191411761Y-89461714D02*
X191459380Y-89556952D01*
X191459380Y-89795047D01*
X191411761Y-89890285D01*
X191316523Y-89937904D01*
X191221285Y-89937904D01*
X191126047Y-89890285D01*
X191078428Y-89795047D01*
X191078428Y-89556952D01*
X191030809Y-89461714D01*
D10*
X183407000Y-83776000D02*
X183607000Y-83576000D01*
X190132000Y-82976000D02*
X189932000Y-82776000D01*
X190132000Y-78376000D02*
X190332000Y-78576000D01*
X190132000Y-105976000D02*
X190132000Y-101376000D01*
X190132000Y-105976000D02*
X190332000Y-105776000D01*
X190132000Y-105976000D02*
X189932000Y-105776000D01*
X188007000Y-83776000D02*
X187807000Y-83976000D01*
X190132000Y-82976000D02*
X190132000Y-78376000D01*
X190132000Y-101376000D02*
X189932000Y-101576000D01*
X190132000Y-78376000D02*
X189932000Y-78576000D01*
X188007000Y-83776000D02*
X183407000Y-83776000D01*
X190132000Y-82976000D02*
X190332000Y-82776000D01*
X190132000Y-101376000D02*
X190332000Y-101576000D01*
X183407000Y-83776000D02*
X183607000Y-83976000D01*
X188007000Y-83776000D02*
X187807000Y-83576000D01*
%TD*%
M02*
