%TF.GenerationSoftware,KiCad,Pcbnew,(6.0.4-0)*%
%TF.CreationDate,2022-05-07T16:42:10+02:00*%
%TF.ProjectId,GlowSignMainPCB,4c617074-6f70-44c4-9544-7369676e2e6b,rev?*%
%TF.SameCoordinates,Original*%
%TF.FileFunction,Soldermask,Top*%
%TF.FilePolarity,Negative*%
%FSLAX46Y46*%
G04 Gerber Fmt 4.6, Leading zero omitted, Abs format (unit mm)*
G04 Created by KiCad (PCBNEW (6.0.4-0)) date 2022-05-07 16:42:10*
%MOMM*%
%LPD*%
G01*
G04 APERTURE LIST*
G04 Aperture macros list*
%AMRoundRect*
0 Rectangle with rounded corners*
0 $1 Rounding radius*
0 $2 $3 $4 $5 $6 $7 $8 $9 X,Y pos of 4 corners*
0 Add a 4 corners polygon primitive as box body*
4,1,4,$2,$3,$4,$5,$6,$7,$8,$9,$2,$3,0*
0 Add four circle primitives for the rounded corners*
1,1,$1+$1,$2,$3*
1,1,$1+$1,$4,$5*
1,1,$1+$1,$6,$7*
1,1,$1+$1,$8,$9*
0 Add four rect primitives between the rounded corners*
20,1,$1+$1,$2,$3,$4,$5,0*
20,1,$1+$1,$4,$5,$6,$7,0*
20,1,$1+$1,$6,$7,$8,$9,0*
20,1,$1+$1,$8,$9,$2,$3,0*%
G04 Aperture macros list end*
%ADD10O,1.200000X2.200000*%
%ADD11O,1.200000X1.800000*%
%ADD12R,0.300000X1.300000*%
%ADD13R,0.600000X1.300000*%
%ADD14C,0.700025*%
%ADD15R,1.500000X0.900000*%
%ADD16R,1.500000X1.000000*%
%ADD17RoundRect,0.237500X-0.237500X0.300000X-0.237500X-0.300000X0.237500X-0.300000X0.237500X0.300000X0*%
%ADD18C,4.249987*%
%ADD19C,0.800000*%
%ADD20C,2.700000*%
%ADD21R,0.419990X1.300000*%
%ADD22R,0.900000X2.000000*%
%ADD23R,2.000000X0.900000*%
%ADD24R,1.330000X1.330000*%
%ADD25RoundRect,0.237500X0.250000X0.237500X-0.250000X0.237500X-0.250000X-0.237500X0.250000X-0.237500X0*%
%ADD26RoundRect,0.237500X-0.300000X-0.237500X0.300000X-0.237500X0.300000X0.237500X-0.300000X0.237500X0*%
%ADD27RoundRect,0.250000X-1.450000X0.400000X-1.450000X-0.400000X1.450000X-0.400000X1.450000X0.400000X0*%
%ADD28RoundRect,0.250000X-0.400000X-1.450000X0.400000X-1.450000X0.400000X1.450000X-0.400000X1.450000X0*%
%ADD29RoundRect,0.237500X-0.237500X0.250000X-0.237500X-0.250000X0.237500X-0.250000X0.237500X0.250000X0*%
%ADD30RoundRect,0.237500X0.300000X0.237500X-0.300000X0.237500X-0.300000X-0.237500X0.300000X-0.237500X0*%
%ADD31R,0.900000X0.280010*%
%ADD32R,0.280010X0.900000*%
%ADD33R,3.300000X3.300000*%
%ADD34RoundRect,0.250000X-0.550000X1.500000X-0.550000X-1.500000X0.550000X-1.500000X0.550000X1.500000X0*%
%ADD35R,0.600000X1.200000*%
%ADD36R,3.499873X2.500000*%
%ADD37R,0.990602X0.304801*%
%ADD38RoundRect,0.237500X0.237500X-0.250000X0.237500X0.250000X-0.237500X0.250000X-0.237500X-0.250000X0*%
%ADD39R,2.470003X0.980010*%
%ADD40R,2.470003X3.600000*%
%ADD41RoundRect,0.237500X-0.250000X-0.237500X0.250000X-0.237500X0.250000X0.237500X-0.250000X0.237500X0*%
%ADD42RoundRect,0.237500X0.237500X-0.300000X0.237500X0.300000X-0.237500X0.300000X-0.237500X-0.300000X0*%
%ADD43R,0.600000X0.419990*%
%ADD44R,2.046380X1.620015*%
%ADD45RoundRect,0.237500X-0.287500X-0.237500X0.287500X-0.237500X0.287500X0.237500X-0.287500X0.237500X0*%
%ADD46R,0.532004X1.072009*%
%ADD47R,1.800000X0.600000*%
%ADD48R,2.184000X2.971000*%
%ADD49R,0.700000X1.250013*%
%ADD50R,0.550013X1.000000*%
%ADD51R,1.050013X0.550013*%
%ADD52R,0.450013X1.400000*%
%ADD53R,2.400000X0.450013*%
%ADD54R,4.220015X2.124003*%
%ADD55R,2.100000X3.000000*%
%ADD56R,0.800000X1.600000*%
G04 APERTURE END LIST*
D10*
%TO.C,USB1*%
X155467241Y-126812408D03*
D11*
X155467241Y-130992494D03*
X146827159Y-130992494D03*
D10*
X146827159Y-126812408D03*
D12*
X149397136Y-126069964D03*
X150397136Y-126069964D03*
X151897264Y-126069964D03*
X152897264Y-126069964D03*
D13*
X153547251Y-126069964D03*
X154347098Y-126069964D03*
D12*
X152397136Y-126069964D03*
X151397136Y-126069964D03*
X150897264Y-126069964D03*
X149897264Y-126069964D03*
D13*
X148747149Y-126069964D03*
X147947302Y-126069964D03*
D14*
X148257182Y-127312535D03*
X154037218Y-127312535D03*
%TD*%
D15*
%TO.C,SW3*%
X149190076Y-63650064D03*
X152989924Y-63650064D03*
X152989924Y-62149936D03*
X149190076Y-62149936D03*
%TD*%
D16*
%TO.C,D17*%
X148811100Y-66250000D03*
X148811100Y-69450000D03*
X153711100Y-69450000D03*
X153711100Y-66250000D03*
%TD*%
D17*
%TO.C,C32*%
X156320000Y-67917500D03*
X156320000Y-69642500D03*
%TD*%
D18*
%TO.C,U14*%
X91209970Y-71802540D03*
D19*
X89218800Y-69895000D03*
X92292200Y-74340000D03*
X93765400Y-72892200D03*
X93181200Y-73755800D03*
X90158600Y-74365400D03*
X88685400Y-72841400D03*
X91200000Y-69031400D03*
X93181200Y-69869600D03*
X88456800Y-71800000D03*
X92343000Y-69285400D03*
X88660000Y-70758600D03*
X91200000Y-74568600D03*
X93765400Y-70784000D03*
X89244200Y-73755800D03*
X93943200Y-71800000D03*
X90107800Y-69260000D03*
%TD*%
D18*
%TO.C,U13*%
X210659970Y-71802540D03*
D19*
X208668800Y-69895000D03*
X211742200Y-74340000D03*
X213215400Y-72892200D03*
X212631200Y-73755800D03*
X209608600Y-74365400D03*
X208135400Y-72841400D03*
X210650000Y-69031400D03*
X212631200Y-69869600D03*
X207906800Y-71800000D03*
X211793000Y-69285400D03*
X208110000Y-70758600D03*
X210650000Y-74568600D03*
X213215400Y-70784000D03*
X208694200Y-73755800D03*
X213393200Y-71800000D03*
X209557800Y-69260000D03*
%TD*%
D18*
%TO.C,U15*%
X91209970Y-121822540D03*
D19*
X89218800Y-119915000D03*
X92292200Y-124360000D03*
X93765400Y-122912200D03*
X93181200Y-123775800D03*
X90158600Y-124385400D03*
X88685400Y-122861400D03*
X91200000Y-119051400D03*
X93181200Y-119889600D03*
X88456800Y-121820000D03*
X92343000Y-119305400D03*
X88660000Y-120778600D03*
X91200000Y-124588600D03*
X93765400Y-120804000D03*
X89244200Y-123775800D03*
X93943200Y-121820000D03*
X90107800Y-119280000D03*
%TD*%
D18*
%TO.C,U12*%
X210189970Y-121822540D03*
D19*
X208198800Y-119915000D03*
X211272200Y-124360000D03*
X212745400Y-122912200D03*
X212161200Y-123775800D03*
X209138600Y-124385400D03*
X207665400Y-122861400D03*
X210180000Y-119051400D03*
X212161200Y-119889600D03*
X207436800Y-121820000D03*
X211323000Y-119305400D03*
X207640000Y-120778600D03*
X210180000Y-124588600D03*
X212745400Y-120804000D03*
X208224200Y-123775800D03*
X212923200Y-121820000D03*
X209087800Y-119280000D03*
%TD*%
D20*
%TO.C,P8*%
X93184600Y-78290000D03*
%TD*%
%TO.C,P7*%
X98394600Y-71400000D03*
%TD*%
%TO.C,P6*%
X98394600Y-122270000D03*
%TD*%
%TO.C,P5*%
X203684600Y-71400000D03*
%TD*%
%TO.C,P4*%
X203684600Y-122270000D03*
%TD*%
%TO.C,P3*%
X208400000Y-78290000D03*
%TD*%
%TO.C,P2*%
X208400000Y-115680000D03*
%TD*%
%TO.C,P1*%
X93184600Y-115680000D03*
%TD*%
D17*
%TO.C,C31*%
X170130000Y-66587500D03*
X170130000Y-68312500D03*
%TD*%
D21*
%TO.C,D3*%
X164035842Y-127758498D03*
X164885728Y-127758498D03*
X165735868Y-127758498D03*
X166585754Y-127758498D03*
%TD*%
D22*
%TO.C,U4*%
X181004850Y-96302100D03*
X182274850Y-96302100D03*
X183544850Y-96302100D03*
X184814850Y-96302100D03*
X186084850Y-96302100D03*
X187354850Y-96302100D03*
X188624850Y-96302100D03*
X189894850Y-96302100D03*
X191164850Y-96302100D03*
X192434850Y-96302100D03*
X193704850Y-96302100D03*
X194974850Y-96302100D03*
X196244850Y-96302100D03*
X197514850Y-96302100D03*
D23*
X198514850Y-93517100D03*
X198514850Y-92247100D03*
X198514850Y-90977100D03*
X198514850Y-89707100D03*
X198514850Y-88437100D03*
X198514850Y-87167100D03*
X198514850Y-85897100D03*
X198514850Y-84627100D03*
X198514850Y-83357100D03*
X198514850Y-82087100D03*
D22*
X197514850Y-79302100D03*
X196244850Y-79302100D03*
X194974850Y-79302100D03*
X193704850Y-79302100D03*
X192434850Y-79302100D03*
X191164850Y-79302100D03*
X189894850Y-79302100D03*
X188624850Y-79302100D03*
X187354850Y-79302100D03*
X186084850Y-79302100D03*
X184814850Y-79302100D03*
X183544850Y-79302100D03*
X182274850Y-79302100D03*
X181004850Y-79302100D03*
D24*
X186669850Y-86967100D03*
X190339850Y-86967100D03*
X186669850Y-90637100D03*
X188504850Y-86967100D03*
X190339850Y-90637100D03*
X186669850Y-88802100D03*
X190339850Y-88802100D03*
X188504850Y-88802100D03*
X188504850Y-90637100D03*
%TD*%
D25*
%TO.C,R14*%
X129712500Y-111610000D03*
X127887500Y-111610000D03*
%TD*%
D16*
%TO.C,D18*%
X134291100Y-64920000D03*
X134291100Y-68120000D03*
X139191100Y-68120000D03*
X139191100Y-64920000D03*
%TD*%
%TO.C,D12*%
X212505700Y-63920000D03*
X212505700Y-67120000D03*
X217405700Y-67120000D03*
X217405700Y-63920000D03*
%TD*%
D26*
%TO.C,C13*%
X192487500Y-113940000D03*
X194212500Y-113940000D03*
%TD*%
D27*
%TO.C,F2*%
X118680000Y-121835000D03*
X118680000Y-126285000D03*
%TD*%
D16*
%TO.C,D15*%
X175062400Y-63920000D03*
X175062400Y-67120000D03*
X179962400Y-67120000D03*
X179962400Y-63920000D03*
%TD*%
D28*
%TO.C,F1*%
X148825000Y-119530000D03*
X153275000Y-119530000D03*
%TD*%
D16*
%TO.C,D8*%
X212505700Y-113900000D03*
X212505700Y-117100000D03*
X217405700Y-117100000D03*
X217405700Y-113900000D03*
%TD*%
D21*
%TO.C,D28*%
X98302342Y-127758498D03*
X99152228Y-127758498D03*
X100002368Y-127758498D03*
X100852254Y-127758498D03*
%TD*%
D26*
%TO.C,C18*%
X164887500Y-125530000D03*
X166612500Y-125530000D03*
%TD*%
D16*
%TO.C,D19*%
X121810000Y-63920000D03*
X121810000Y-67120000D03*
X126710000Y-67120000D03*
X126710000Y-63920000D03*
%TD*%
D29*
%TO.C,R2*%
X144890000Y-122967500D03*
X144890000Y-124792500D03*
%TD*%
D30*
%TO.C,C7*%
X191710000Y-103800000D03*
X189985000Y-103800000D03*
%TD*%
D16*
%TO.C,D21*%
X96847800Y-63920000D03*
X96847800Y-67120000D03*
X101747800Y-67120000D03*
X101747800Y-63920000D03*
%TD*%
D26*
%TO.C,C38*%
X84320000Y-73770000D03*
X86045000Y-73770000D03*
%TD*%
D16*
%TO.C,D13*%
X200024600Y-63920000D03*
X200024600Y-67120000D03*
X204924600Y-67120000D03*
X204924600Y-63920000D03*
%TD*%
D31*
%TO.C,U7*%
X205310051Y-106848933D03*
X205310051Y-107349314D03*
X205310051Y-107849695D03*
X205310051Y-108350076D03*
X205310051Y-108850457D03*
X205310051Y-109350838D03*
X205310051Y-109851219D03*
D32*
X206308781Y-110850203D03*
X206809162Y-110850203D03*
X207309543Y-110850203D03*
X207809924Y-110850203D03*
X208310305Y-110850203D03*
X208810686Y-110850203D03*
X209311067Y-110850203D03*
D31*
X210310051Y-109851219D03*
X210310051Y-109350838D03*
X210310051Y-108850457D03*
X210310051Y-108350076D03*
X210310051Y-107849695D03*
X210310051Y-107349314D03*
X210310051Y-106848933D03*
D32*
X209311067Y-105850203D03*
X208810686Y-105850203D03*
X208310305Y-105850203D03*
X207809924Y-105850203D03*
X207309543Y-105850203D03*
X206809162Y-105850203D03*
X206308781Y-105850203D03*
D33*
X207809924Y-108350076D03*
%TD*%
D34*
%TO.C,C3*%
X171400000Y-119950000D03*
X171400000Y-125550000D03*
%TD*%
D16*
%TO.C,D10*%
X212505700Y-88910000D03*
X212505700Y-92110000D03*
X217405700Y-92110000D03*
X217405700Y-88910000D03*
%TD*%
D26*
%TO.C,C40*%
X84320000Y-98716666D03*
X86045000Y-98716666D03*
%TD*%
%TO.C,C46*%
X136485000Y-125530000D03*
X138210000Y-125530000D03*
%TD*%
D35*
%TO.C,U10*%
X130635004Y-113531694D03*
X129365001Y-113531694D03*
X128094999Y-113531694D03*
X126824996Y-113531694D03*
X126824996Y-119348306D03*
X128094999Y-119348306D03*
X129365001Y-119348306D03*
X130635004Y-119348306D03*
D36*
X128730000Y-116440000D03*
%TD*%
D37*
%TO.C,U3*%
X181745070Y-110349962D03*
X181745070Y-109699975D03*
X181745070Y-109049987D03*
X181745070Y-108400000D03*
X181745070Y-107750013D03*
X181745070Y-107100025D03*
X181745070Y-106450038D03*
X175894930Y-106450038D03*
X175894930Y-107100025D03*
X175894930Y-107750013D03*
X175894930Y-108400000D03*
X175894930Y-109049987D03*
X175894930Y-109699975D03*
X175894930Y-110349962D03*
%TD*%
D16*
%TO.C,D25*%
X84366700Y-101405000D03*
X84366700Y-104605000D03*
X89266700Y-104605000D03*
X89266700Y-101405000D03*
%TD*%
D17*
%TO.C,C37*%
X91940000Y-65587500D03*
X91940000Y-67312500D03*
%TD*%
D26*
%TO.C,C12*%
X192487500Y-115820000D03*
X194212500Y-115820000D03*
%TD*%
%TO.C,C27*%
X215785000Y-69760000D03*
X217510000Y-69760000D03*
%TD*%
D29*
%TO.C,R11*%
X129790000Y-121157500D03*
X129790000Y-122982500D03*
%TD*%
D38*
%TO.C,R12*%
X192430000Y-119622500D03*
X192430000Y-117797500D03*
%TD*%
D21*
%TO.C,D4*%
X176516942Y-127758498D03*
X177366828Y-127758498D03*
X178216968Y-127758498D03*
X179066854Y-127758498D03*
%TD*%
D26*
%TO.C,C19*%
X177557500Y-125590000D03*
X179282500Y-125590000D03*
%TD*%
D25*
%TO.C,R17*%
X181922500Y-114230000D03*
X180097500Y-114230000D03*
%TD*%
D39*
%TO.C,U18*%
X196414900Y-110439975D03*
X196414900Y-108140000D03*
X196414900Y-105840025D03*
D40*
X190745100Y-108140000D03*
%TD*%
D26*
%TO.C,C44*%
X111637500Y-125530000D03*
X113362500Y-125530000D03*
%TD*%
D16*
%TO.C,D24*%
X84366700Y-88910000D03*
X84366700Y-92110000D03*
X89266700Y-92110000D03*
X89266700Y-88910000D03*
%TD*%
D41*
%TO.C,R16*%
X180097500Y-116310000D03*
X181922500Y-116310000D03*
%TD*%
D16*
%TO.C,D16*%
X162581300Y-64920000D03*
X162581300Y-68120000D03*
X167481300Y-68120000D03*
X167481300Y-64920000D03*
%TD*%
D26*
%TO.C,C39*%
X84320000Y-86243333D03*
X86045000Y-86243333D03*
%TD*%
%TO.C,C41*%
X84320000Y-111190000D03*
X86045000Y-111190000D03*
%TD*%
D21*
%TO.C,D7*%
X213960242Y-127758498D03*
X214810128Y-127758498D03*
X215660268Y-127758498D03*
X216510154Y-127758498D03*
%TD*%
D15*
%TO.C,SW1*%
X196679924Y-99599936D03*
X192880076Y-99599936D03*
X192880076Y-101100064D03*
X196679924Y-101100064D03*
%TD*%
D29*
%TO.C,R8*%
X189550000Y-98907500D03*
X189550000Y-100732500D03*
%TD*%
D16*
%TO.C,D9*%
X212505700Y-101405000D03*
X212505700Y-104605000D03*
X217405700Y-104605000D03*
X217405700Y-101405000D03*
%TD*%
D26*
%TO.C,C24*%
X215785000Y-107102500D03*
X217510000Y-107102500D03*
%TD*%
%TO.C,C17*%
X176007500Y-114230000D03*
X177732500Y-114230000D03*
%TD*%
%TO.C,C16*%
X176007500Y-116310000D03*
X177732500Y-116310000D03*
%TD*%
D17*
%TO.C,C33*%
X141800000Y-66587500D03*
X141800000Y-68312500D03*
%TD*%
D42*
%TO.C,C14*%
X125230000Y-119372500D03*
X125230000Y-117647500D03*
%TD*%
D16*
%TO.C,D20*%
X109328900Y-63920000D03*
X109328900Y-67120000D03*
X114228900Y-67120000D03*
X114228900Y-63920000D03*
%TD*%
D17*
%TO.C,C35*%
X116870000Y-65587500D03*
X116870000Y-67312500D03*
%TD*%
D38*
%TO.C,R9*%
X187450000Y-100732500D03*
X187450000Y-98907500D03*
%TD*%
D26*
%TO.C,C20*%
X190030000Y-125530000D03*
X191755000Y-125530000D03*
%TD*%
D21*
%TO.C,D29*%
X110783442Y-127758498D03*
X111633328Y-127758498D03*
X112483468Y-127758498D03*
X113333354Y-127758498D03*
%TD*%
D43*
%TO.C,U8*%
X206730897Y-101940013D03*
X206730897Y-102590000D03*
X206730897Y-103239987D03*
X208630821Y-103239987D03*
X208630821Y-102590000D03*
X208630821Y-101940013D03*
%TD*%
D44*
%TO.C,U6*%
X176504569Y-119119976D03*
X181635380Y-119119976D03*
%TD*%
D21*
%TO.C,D6*%
X201479142Y-127758498D03*
X202329028Y-127758498D03*
X203179168Y-127758498D03*
X204029054Y-127758498D03*
%TD*%
D17*
%TO.C,C15*%
X129206056Y-106377500D03*
X129206056Y-108102500D03*
%TD*%
D45*
%TO.C,D1*%
X141017500Y-129000000D03*
X142767500Y-129000000D03*
%TD*%
D26*
%TO.C,C42*%
X86577500Y-125530000D03*
X88302500Y-125530000D03*
%TD*%
D41*
%TO.C,R1*%
X160527500Y-125530000D03*
X162352500Y-125530000D03*
%TD*%
D29*
%TO.C,R3*%
X157780000Y-122967500D03*
X157780000Y-124792500D03*
%TD*%
D26*
%TO.C,C25*%
X215785000Y-94655000D03*
X217510000Y-94655000D03*
%TD*%
D17*
%TO.C,C30*%
X182683333Y-65587500D03*
X182683333Y-67312500D03*
%TD*%
D16*
%TO.C,D26*%
X84366700Y-113900000D03*
X84366700Y-117100000D03*
X89266700Y-117100000D03*
X89266700Y-113900000D03*
%TD*%
%TO.C,D23*%
X84366700Y-76415000D03*
X84366700Y-79615000D03*
X89266700Y-79615000D03*
X89266700Y-76415000D03*
%TD*%
D21*
%TO.C,D5*%
X188998042Y-127758498D03*
X189847928Y-127758498D03*
X190698068Y-127758498D03*
X191547954Y-127758498D03*
%TD*%
D44*
%TO.C,U2*%
X161435431Y-119570025D03*
X156304620Y-119570025D03*
%TD*%
D16*
%TO.C,D11*%
X212505700Y-76415000D03*
X212505700Y-79615000D03*
X217405700Y-79615000D03*
X217405700Y-76415000D03*
%TD*%
D17*
%TO.C,C29*%
X195236666Y-65587500D03*
X195236666Y-67312500D03*
%TD*%
D46*
%TO.C,U11*%
X128766018Y-102030902D03*
X127816056Y-102030902D03*
X126866094Y-102030902D03*
X126866094Y-104329098D03*
X127816056Y-104329098D03*
X128766018Y-104329098D03*
%TD*%
D47*
%TO.C,U5*%
X190186563Y-118969154D03*
X190186563Y-117699151D03*
X190186563Y-116429149D03*
X190186563Y-115159146D03*
X184641731Y-115159146D03*
X184641731Y-116429149D03*
X184641731Y-117699151D03*
X184641731Y-118969154D03*
D48*
X187414147Y-117064150D03*
%TD*%
D45*
%TO.C,D2*%
X141017500Y-126710000D03*
X142767500Y-126710000D03*
%TD*%
D26*
%TO.C,C11*%
X141010000Y-124140000D03*
X142735000Y-124140000D03*
%TD*%
D25*
%TO.C,R6*%
X185332500Y-102720000D03*
X183507500Y-102720000D03*
%TD*%
D17*
%TO.C,C28*%
X207790000Y-65587500D03*
X207790000Y-67312500D03*
%TD*%
D26*
%TO.C,C45*%
X124167500Y-125530000D03*
X125892500Y-125530000D03*
%TD*%
D42*
%TO.C,C4*%
X201230000Y-111732500D03*
X201230000Y-110007500D03*
%TD*%
D49*
%TO.C,U1*%
X166309962Y-119472467D03*
X164410038Y-119472467D03*
X165360000Y-121472467D03*
%TD*%
D26*
%TO.C,C2*%
X176007500Y-112132500D03*
X177732500Y-112132500D03*
%TD*%
D17*
%TO.C,C34*%
X129335000Y-65587500D03*
X129335000Y-67312500D03*
%TD*%
D50*
%TO.C,U9*%
X126885992Y-97389949D03*
X127835954Y-97389949D03*
X128785916Y-97389949D03*
X128785916Y-100190051D03*
X127835954Y-100190051D03*
X126885992Y-100190051D03*
%TD*%
D51*
%TO.C,U20*%
X204455083Y-95845545D03*
X203104816Y-95845545D03*
X203104816Y-96695431D03*
X204455083Y-96695431D03*
D52*
X205504867Y-96270488D03*
D53*
X203779949Y-95045443D03*
D52*
X202055032Y-96270488D03*
D53*
X203779949Y-97495532D03*
%TD*%
D30*
%TO.C,C8*%
X185282500Y-100700000D03*
X183557500Y-100700000D03*
%TD*%
D17*
%TO.C,C36*%
X104405000Y-65587500D03*
X104405000Y-67312500D03*
%TD*%
D21*
%TO.C,D27*%
X85821242Y-127758498D03*
X86671128Y-127758498D03*
X87521268Y-127758498D03*
X88371154Y-127758498D03*
%TD*%
D16*
%TO.C,D14*%
X187543500Y-63920000D03*
X187543500Y-67120000D03*
X192443500Y-67120000D03*
X192443500Y-63920000D03*
%TD*%
%TO.C,D22*%
X84366700Y-63920000D03*
X84366700Y-67120000D03*
X89266700Y-67120000D03*
X89266700Y-63920000D03*
%TD*%
D29*
%TO.C,R10*%
X127720000Y-121157500D03*
X127720000Y-122982500D03*
%TD*%
D17*
%TO.C,C6*%
X203330000Y-110007500D03*
X203330000Y-111732500D03*
%TD*%
D26*
%TO.C,C1*%
X181047500Y-98890000D03*
X182772500Y-98890000D03*
%TD*%
D21*
%TO.C,D30*%
X123264542Y-127758498D03*
X124114428Y-127758498D03*
X124964568Y-127758498D03*
X125814454Y-127758498D03*
%TD*%
D29*
%TO.C,R13*%
X125046056Y-99887500D03*
X125046056Y-101712500D03*
%TD*%
D26*
%TO.C,C21*%
X202537500Y-125530000D03*
X204262500Y-125530000D03*
%TD*%
D21*
%TO.C,D31*%
X135745642Y-127758498D03*
X136595528Y-127758498D03*
X137445668Y-127758498D03*
X138295554Y-127758498D03*
%TD*%
D26*
%TO.C,C23*%
X215785000Y-119550000D03*
X217510000Y-119550000D03*
%TD*%
D29*
%TO.C,R15*%
X127336056Y-106327500D03*
X127336056Y-108152500D03*
%TD*%
D41*
%TO.C,R7*%
X197017500Y-74650000D03*
X198842500Y-74650000D03*
%TD*%
D42*
%TO.C,C10*%
X207530000Y-97112500D03*
X207530000Y-95387500D03*
%TD*%
D25*
%TO.C,R5*%
X198842500Y-72560000D03*
X197017500Y-72560000D03*
%TD*%
D26*
%TO.C,C9*%
X197067500Y-76690000D03*
X198792500Y-76690000D03*
%TD*%
D54*
%TO.C,L1*%
X185490000Y-125230000D03*
X185490000Y-121230000D03*
%TD*%
D25*
%TO.C,R4*%
X185332500Y-104740000D03*
X183507500Y-104740000D03*
%TD*%
D26*
%TO.C,C5*%
X195515000Y-103800000D03*
X197240000Y-103800000D03*
%TD*%
%TO.C,C22*%
X214870000Y-125530000D03*
X216595000Y-125530000D03*
%TD*%
D55*
%TO.C,U26*%
X108915006Y-125250076D03*
X102564994Y-125250076D03*
D56*
X106365095Y-128150000D03*
X105114905Y-128150000D03*
%TD*%
D15*
%TO.C,SW2*%
X190220076Y-75680064D03*
X194019924Y-75680064D03*
X194019924Y-74179936D03*
X190220076Y-74179936D03*
%TD*%
D26*
%TO.C,C43*%
X98437500Y-125570000D03*
X100162500Y-125570000D03*
%TD*%
%TO.C,C26*%
X215785000Y-82207500D03*
X217510000Y-82207500D03*
%TD*%
M02*
