M48
; DRILL file {KiCad (6.0.6-0)} date 2022 October 02, Sunday 15:03:49
; FORMAT={-:-/ absolute / inch / decimal}
; #@! TF.CreationDate,2022-10-02T15:03:49+02:00
; #@! TF.GenerationSoftware,Kicad,Pcbnew,(6.0.6-0)
; #@! TF.FileFunction,Plated,1,2,PTH
FMAT,2
INCH
; #@! TA.AperFunction,Plated,PTH,ViaDrill
T1C0.0118
; #@! TA.AperFunction,Plated,PTH,ComponentDrill
T2C0.0276
; #@! TA.AperFunction,Plated,PTH,ViaDrill
T3C0.0454
%
G90
G05
T1
X2.656Y-2.656
X2.656Y-3.03
X2.656Y-3.186
X2.656Y-3.546
X2.656Y-3.826
X2.656Y-4.054
X2.656Y-4.364
X2.656Y-4.588
X2.656Y-4.884
X2.656Y-5.106
X2.656Y-5.368
X2.722Y-2.654
X2.722Y-2.964
X2.722Y-3.186
X2.722Y-3.516
X2.722Y-3.836
X2.722Y-4.02
X2.722Y-4.366
X2.722Y-4.56
X2.722Y-4.884
X2.722Y-5.074
X2.722Y-5.36
X2.758Y-2.378
X2.792Y-2.442
X2.838Y-5.542
X3.066Y-5.542
X3.076Y-5.46
X3.102Y-2.378
X3.102Y-2.442
X3.234Y-5.474
X3.282Y-2.378
X3.324Y-2.442
X3.332Y-5.542
X3.6Y-5.542
X3.604Y-5.462
X3.644Y-2.442
X3.646Y-2.378
X3.77Y-5.474
X3.808Y-2.378
X3.85Y-5.542
X3.868Y-2.442
X4.138Y-5.542
X4.146Y-5.464
X4.154Y-2.378
X4.154Y-2.442
X4.3Y-5.474
X4.332Y-2.378
X4.38Y-2.442
X4.396Y-5.542
X4.672Y-5.542
X4.678Y-2.442
X4.68Y-5.464
X4.684Y-2.378
X4.838Y-5.474
X4.878Y-2.378
X4.908Y-2.442
X4.91Y-5.542
X5.202Y-2.442
X5.214Y-2.378
X5.392Y-2.378
X5.442Y-2.442
X5.532Y-2.758
X5.542Y-2.662
X5.772Y-5.172
X5.834Y-5.306
X5.912Y-2.378
X5.974Y-2.442
X6.008Y-5.1687
X6.088Y-5.486
X6.092Y-2.442
X6.0942Y-2.3769
X6.152Y-5.258
X6.212Y-5.2816
X6.296Y-5.334
X6.328Y-2.378
X6.346Y-2.442
X6.404Y-5.492
X6.428Y-2.378
X6.494Y-5.192
X6.756Y-5.48
X6.7569Y-5.5431
X6.788Y-2.378
X6.846Y-5.384
X6.962Y-2.378
X7.01Y-2.442
X7.022Y-5.348
X7.0429Y-5.5431
X7.122Y-5.336
X7.32Y-5.468
X7.3231Y-5.5431
X7.336Y-2.442
X7.34Y-2.378
X7.358Y-5.316
X7.444Y-4.132
X7.446Y-4.02
X7.456Y-3.17
X7.468Y-4.548
X7.468Y-4.828
X7.47Y-5.242
X7.478Y-4.384
X7.48Y-3.81
X7.49Y-5.48
X7.494Y-5.304
X7.496Y-4.9854
X7.5Y-3.448
X7.504Y-4.078
X7.505Y-3.263
X7.51Y-4.462
X7.514Y-4.81
X7.52Y-2.378
X7.54Y-4.172
X7.55Y-2.442
X7.558Y-4.674
X7.5609Y-5.5431
X7.562Y-3.522
X7.572Y-4.828
X7.582Y-5.02
X7.584Y-3.896
X7.586Y-3.95
X7.586Y-4.024
X7.59Y-4.432
X7.604Y-5.254
X7.614Y-3.842
X7.626Y-3.518
X7.64Y-3.326
X7.644Y-4.706
X7.646Y-4.982
X7.652Y-4.508
X7.664Y-4.062
X7.666Y-3.842
X7.6706Y-4.866
X7.674Y-4.344
X7.7Y-4.642
X7.704Y-5.342
X7.73Y-5.494
X7.732Y-3.844
X7.736Y-4.062
X7.764Y-5.442
X7.774Y-3.11
X7.784Y-3.842
X7.8Y-4.416
X7.8Y-5.006
X7.804Y-4.108
X7.806Y-3.646
X7.81Y-3.952
X7.81Y-4.028
X7.812Y-3.88
X7.842Y-5.542
X7.85Y-2.378
X7.854Y-4.178
X7.856Y-2.442
X7.856Y-3.73
X7.886Y-5.532
X7.902Y-4.36
X7.92Y-3.948
X7.924Y-4.004
X7.928Y-3.856
X7.94Y-5.106
X7.952Y-4.168
X7.962Y-5.004
X7.966Y-4.688
X7.97Y-5.494
X7.986Y-4.118
X8.016Y-3.744
X8.019Y-5.441
X8.028Y-4.038
X8.036Y-2.378
X8.066Y-4.326
X8.078Y-2.442
X8.082Y-3.522
X8.092Y-3.416
X8.092Y-3.486
X8.106Y-5.542
X8.114Y-5.162
X8.12Y-4.956
X8.154Y-4.154
X8.17Y-3.596
X8.18Y-4.634
X8.192Y-3.56
X8.198Y-4.12
X8.2Y-3.962
X8.25Y-4.408
X8.258Y-4.26
X8.258Y-4.304
X8.26Y-3.182
X8.3Y-3.376
X8.312Y-3.252
X8.316Y-3.61
X8.32Y-4.948
X8.324Y-3.538
X8.332Y-4.49
X8.354Y-4.132
X8.372Y-5.542
X8.376Y-5.162
X8.38Y-5.466
X8.388Y-3.766
X8.392Y-2.378
X8.396Y-2.442
X8.43Y-4.21
X8.454Y-3.256
X8.46Y-3.914
X8.46Y-4.926
X8.464Y-3.376
X8.474Y-3.652
X8.476Y-3.538
X8.478Y-3.49
X8.482Y-4.662
X8.504Y-4.61
X8.51Y-5.1607
X8.55Y-3.384
X8.55Y-5.48
X8.564Y-2.378
X8.572Y-3.512
X8.574Y-4.364
X8.5847Y-4.324
X8.5926Y-3.544
X8.598Y-2.678
X8.6065Y-4.3766
X8.624Y-2.442
X8.634Y-5.542
X8.644Y-5.158
X8.65Y-3.832
X8.656Y-4.17
X8.668Y-3.964
X8.68Y-4.824
X8.682Y-4.926
X8.714Y-4.5436
X8.718Y-3.832
X8.72Y-3.912
X8.728Y-4.762
X8.744Y-4.52
X8.788Y-5.456
X8.82Y-4.762
X8.822Y-5.314
X8.852Y-3.754
X8.888Y-2.442
X8.902Y-2.378
X8.922Y-5.542
X8.93Y-5.464
X8.94Y-4.196
X8.944Y-4.882
X8.978Y-4.1
X8.998Y-3.022
X9.0Y-3.294
X9.002Y-4.488
X9.004Y-3.5
X9.012Y-5.242
X9.02Y-2.654
X9.058Y-5.482
X9.074Y-2.378
X9.144Y-5.542
X9.18Y-2.486
X9.18Y-2.774
X9.18Y-3.022
X9.18Y-3.306
X9.18Y-3.538
X9.18Y-3.838
X9.18Y-4.07
X9.18Y-4.374
X9.18Y-4.58
X9.18Y-4.892
X9.18Y-5.27
X9.244Y-2.77
X9.244Y-2.952
X9.244Y-3.298
X9.244Y-3.484
X9.244Y-3.832
X9.244Y-4.002
X9.244Y-4.368
X9.244Y-4.528
X9.244Y-4.884
X9.244Y-5.038
X9.244Y-5.292
T3
X3.26Y-2.658
X8.978Y-5.308
T2
G00X5.6259Y-5.3601
M15
G01X5.6259Y-5.4034
M16
G05
G00X5.6259Y-5.5345
M15
G01X5.6259Y-5.5582
M16
G05
G00X5.9661Y-5.3601
M15
G01X5.9661Y-5.4034
M16
G05
G00X5.9661Y-5.5345
M15
G01X5.9661Y-5.5582
M16
G05
T0
M30
