%TF.GenerationSoftware,KiCad,Pcbnew,(6.0.6-0)*%
%TF.CreationDate,2022-09-08T22:47:34-07:00*%
%TF.ProjectId,GlowSignMainPCB,476c6f77-5369-4676-9e4d-61696e504342,rev?*%
%TF.SameCoordinates,Original*%
%TF.FileFunction,Paste,Top*%
%TF.FilePolarity,Positive*%
%FSLAX46Y46*%
G04 Gerber Fmt 4.6, Leading zero omitted, Abs format (unit mm)*
G04 Created by KiCad (PCBNEW (6.0.6-0)) date 2022-09-08 22:47:34*
%MOMM*%
%LPD*%
G01*
G04 APERTURE LIST*
G04 Aperture macros list*
%AMRoundRect*
0 Rectangle with rounded corners*
0 $1 Rounding radius*
0 $2 $3 $4 $5 $6 $7 $8 $9 X,Y pos of 4 corners*
0 Add a 4 corners polygon primitive as box body*
4,1,4,$2,$3,$4,$5,$6,$7,$8,$9,$2,$3,0*
0 Add four circle primitives for the rounded corners*
1,1,$1+$1,$2,$3*
1,1,$1+$1,$4,$5*
1,1,$1+$1,$6,$7*
1,1,$1+$1,$8,$9*
0 Add four rect primitives between the rounded corners*
20,1,$1+$1,$2,$3,$4,$5,0*
20,1,$1+$1,$4,$5,$6,$7,0*
20,1,$1+$1,$6,$7,$8,$9,0*
20,1,$1+$1,$8,$9,$2,$3,0*%
G04 Aperture macros list end*
%ADD10R,1.500000X1.000000*%
%ADD11R,1.000000X1.500000*%
%ADD12R,0.700000X1.250013*%
%ADD13RoundRect,0.237500X-0.237500X0.300000X-0.237500X-0.300000X0.237500X-0.300000X0.237500X0.300000X0*%
%ADD14RoundRect,0.250000X0.650000X-0.412500X0.650000X0.412500X-0.650000X0.412500X-0.650000X-0.412500X0*%
%ADD15R,0.900000X2.000000*%
%ADD16R,2.000000X0.900000*%
%ADD17R,1.330000X1.330000*%
%ADD18RoundRect,0.237500X-0.300000X-0.237500X0.300000X-0.237500X0.300000X0.237500X-0.300000X0.237500X0*%
%ADD19RoundRect,0.237500X-0.250000X-0.237500X0.250000X-0.237500X0.250000X0.237500X-0.250000X0.237500X0*%
%ADD20RoundRect,0.250000X0.400000X1.450000X-0.400000X1.450000X-0.400000X-1.450000X0.400000X-1.450000X0*%
%ADD21R,0.900000X1.200000*%
%ADD22R,1.200000X1.300000*%
%ADD23RoundRect,0.237500X-0.237500X0.250000X-0.237500X-0.250000X0.237500X-0.250000X0.237500X0.250000X0*%
%ADD24RoundRect,0.237500X0.250000X0.237500X-0.250000X0.237500X-0.250000X-0.237500X0.250000X-0.237500X0*%
%ADD25R,0.600000X1.070003*%
%ADD26R,0.280010X0.900000*%
%ADD27R,0.900000X0.280010*%
%ADD28R,3.300000X3.300000*%
%ADD29O,0.750013X0.250013*%
%ADD30RoundRect,0.237500X0.237500X-0.300000X0.237500X0.300000X-0.237500X0.300000X-0.237500X-0.300000X0*%
%ADD31R,0.980010X2.470003*%
%ADD32R,3.600000X2.470003*%
%ADD33RoundRect,0.237500X0.237500X-0.250000X0.237500X0.250000X-0.237500X0.250000X-0.237500X-0.250000X0*%
%ADD34R,1.500000X0.900000*%
%ADD35RoundRect,0.237500X0.300000X0.237500X-0.300000X0.237500X-0.300000X-0.237500X0.300000X-0.237500X0*%
%ADD36R,2.046380X1.620015*%
%ADD37R,0.419990X0.600000*%
%ADD38R,0.600000X1.300000*%
%ADD39R,0.300000X1.300000*%
%ADD40R,1.050013X0.550013*%
%ADD41R,0.450013X1.400000*%
%ADD42R,2.400000X0.450013*%
G04 APERTURE END LIST*
D10*
%TO.C,D34*%
X220839200Y-140639600D03*
X220839200Y-137439600D03*
X215939200Y-137439600D03*
X215939200Y-140639600D03*
%TD*%
%TO.C,D35*%
X233847500Y-140639600D03*
X233847500Y-137439600D03*
X228947500Y-137439600D03*
X228947500Y-140639600D03*
%TD*%
%TO.C,D33*%
X207377200Y-140639600D03*
X207377200Y-137439600D03*
X202477200Y-137439600D03*
X202477200Y-140639600D03*
%TD*%
%TO.C,D32*%
X193915200Y-140639600D03*
X193915200Y-137439600D03*
X189015200Y-137439600D03*
X189015200Y-140639600D03*
%TD*%
%TO.C,D31*%
X180453200Y-140639600D03*
X180453200Y-137439600D03*
X175553200Y-137439600D03*
X175553200Y-140639600D03*
%TD*%
%TO.C,D30*%
X126605200Y-140639600D03*
X126605200Y-137439600D03*
X121705200Y-137439600D03*
X121705200Y-140639600D03*
%TD*%
%TO.C,D29*%
X113143200Y-140639600D03*
X113143200Y-137439600D03*
X108243200Y-137439600D03*
X108243200Y-140639600D03*
%TD*%
%TO.C,D28*%
X99681200Y-140639600D03*
X99681200Y-137439600D03*
X94781200Y-137439600D03*
X94781200Y-140639600D03*
%TD*%
%TO.C,D27*%
X86219200Y-140639600D03*
X86219200Y-137439600D03*
X81319200Y-137439600D03*
X81319200Y-140639600D03*
%TD*%
%TO.C,D26*%
X73316000Y-140639600D03*
X73316000Y-137439600D03*
X68416000Y-137439600D03*
X68416000Y-140639600D03*
%TD*%
%TO.C,D17*%
X108482750Y-60961100D03*
X108482750Y-64161100D03*
X113382750Y-64161100D03*
X113382750Y-60961100D03*
%TD*%
%TO.C,D11*%
X188819450Y-60961100D03*
X188819450Y-64161100D03*
X193719450Y-64161100D03*
X193719450Y-60961100D03*
%TD*%
%TO.C,D14*%
X148651100Y-60961100D03*
X148651100Y-64161100D03*
X153551100Y-64161100D03*
X153551100Y-60961100D03*
%TD*%
%TO.C,D8*%
X228987800Y-60961100D03*
X228987800Y-64161100D03*
X233887800Y-64161100D03*
X233887800Y-60961100D03*
%TD*%
D11*
%TO.C,D3*%
X233910800Y-127056100D03*
X230710800Y-127056100D03*
X230710800Y-131956100D03*
X233910800Y-131956100D03*
%TD*%
D10*
%TO.C,D18*%
X95093300Y-60961100D03*
X95093300Y-64161100D03*
X99993300Y-64161100D03*
X99993300Y-60961100D03*
%TD*%
%TO.C,D20*%
X68314400Y-60961100D03*
X68314400Y-64161100D03*
X73214400Y-64161100D03*
X73214400Y-60961100D03*
%TD*%
%TO.C,D12*%
X175430000Y-60961100D03*
X175430000Y-64161100D03*
X180330000Y-64161100D03*
X180330000Y-60961100D03*
%TD*%
%TO.C,D10*%
X202208900Y-60961100D03*
X202208900Y-64161100D03*
X207108900Y-64161100D03*
X207108900Y-60961100D03*
%TD*%
D11*
%TO.C,D5*%
X233910800Y-100278100D03*
X230710800Y-100278100D03*
X230710800Y-105178100D03*
X233910800Y-105178100D03*
%TD*%
%TO.C,D24*%
X68464400Y-118567100D03*
X71664400Y-118567100D03*
X71664400Y-113667100D03*
X68464400Y-113667100D03*
%TD*%
%TO.C,D23*%
X68464400Y-105178100D03*
X71664400Y-105178100D03*
X71664400Y-100278100D03*
X68464400Y-100278100D03*
%TD*%
D10*
%TO.C,D15*%
X135261650Y-60961100D03*
X135261650Y-64161100D03*
X140161650Y-64161100D03*
X140161650Y-60961100D03*
%TD*%
D11*
%TO.C,D4*%
X233910800Y-113667100D03*
X230710800Y-113667100D03*
X230710800Y-118567100D03*
X233910800Y-118567100D03*
%TD*%
D10*
%TO.C,D19*%
X81703850Y-60961100D03*
X81703850Y-64161100D03*
X86603850Y-64161100D03*
X86603850Y-60961100D03*
%TD*%
%TO.C,D16*%
X121872200Y-60961100D03*
X121872200Y-64161100D03*
X126772200Y-64161100D03*
X126772200Y-60961100D03*
%TD*%
%TO.C,D9*%
X215598350Y-60961100D03*
X215598350Y-64161100D03*
X220498350Y-64161100D03*
X220498350Y-60961100D03*
%TD*%
D11*
%TO.C,D7*%
X233910800Y-73500100D03*
X230710800Y-73500100D03*
X230710800Y-78400100D03*
X233910800Y-78400100D03*
%TD*%
%TO.C,D25*%
X68464400Y-131956100D03*
X71664400Y-131956100D03*
X71664400Y-127056100D03*
X68464400Y-127056100D03*
%TD*%
%TO.C,D22*%
X68464400Y-91789100D03*
X71664400Y-91789100D03*
X71664400Y-86889100D03*
X68464400Y-86889100D03*
%TD*%
%TO.C,D6*%
X233910800Y-86889100D03*
X230710800Y-86889100D03*
X230710800Y-91789100D03*
X233910800Y-91789100D03*
%TD*%
D10*
%TO.C,D13*%
X162040550Y-60961100D03*
X162040550Y-64161100D03*
X166940550Y-64161100D03*
X166940550Y-60961100D03*
%TD*%
D11*
%TO.C,D21*%
X68464400Y-78400100D03*
X71664400Y-78400100D03*
X71664400Y-73500100D03*
X68464400Y-73500100D03*
%TD*%
D12*
%TO.C,U19*%
X214035638Y-108492800D03*
X215935562Y-108492800D03*
X214985600Y-106492800D03*
%TD*%
D13*
%TO.C,C30*%
X155651200Y-60605500D03*
X155651200Y-62330500D03*
%TD*%
%TO.C,C24*%
X224688400Y-60605500D03*
X224688400Y-62330500D03*
%TD*%
D14*
%TO.C,C56*%
X211328000Y-129832500D03*
X211328000Y-126707500D03*
%TD*%
D15*
%TO.C,U4*%
X188065900Y-107922500D03*
X189335900Y-107922500D03*
X190605900Y-107922500D03*
X191875900Y-107922500D03*
X193145900Y-107922500D03*
X194415900Y-107922500D03*
X195685900Y-107922500D03*
X196955900Y-107922500D03*
X198225900Y-107922500D03*
X199495900Y-107922500D03*
X200765900Y-107922500D03*
X202035900Y-107922500D03*
X203305900Y-107922500D03*
X204575900Y-107922500D03*
D16*
X205575900Y-105137500D03*
X205575900Y-103867500D03*
X205575900Y-102597500D03*
X205575900Y-101327500D03*
X205575900Y-100057500D03*
X205575900Y-98787500D03*
X205575900Y-97517500D03*
X205575900Y-96247500D03*
X205575900Y-94977500D03*
X205575900Y-93707500D03*
D15*
X204575900Y-90922500D03*
X203305900Y-90922500D03*
X202035900Y-90922500D03*
X200765900Y-90922500D03*
X199495900Y-90922500D03*
X198225900Y-90922500D03*
X196955900Y-90922500D03*
X195685900Y-90922500D03*
X194415900Y-90922500D03*
X193145900Y-90922500D03*
X191875900Y-90922500D03*
X190605900Y-90922500D03*
X189335900Y-90922500D03*
X188065900Y-90922500D03*
D17*
X193730900Y-102257500D03*
X195565900Y-100422500D03*
X193730900Y-98587500D03*
X197400900Y-102257500D03*
X197400900Y-98587500D03*
X197400900Y-100422500D03*
X195565900Y-102257500D03*
X193730900Y-100422500D03*
X195565900Y-98587500D03*
%TD*%
D18*
%TO.C,C54*%
X224622720Y-124496537D03*
X226347720Y-124496537D03*
%TD*%
D13*
%TO.C,C25*%
X211531200Y-60605500D03*
X211531200Y-62330500D03*
%TD*%
D19*
%TO.C,R19*%
X213920700Y-119684800D03*
X215745700Y-119684800D03*
%TD*%
D20*
%TO.C,F1*%
X149545000Y-131876800D03*
X145095000Y-131876800D03*
%TD*%
D18*
%TO.C,C57*%
X216510700Y-105816400D03*
X218235700Y-105816400D03*
%TD*%
D21*
%TO.C,SW3*%
X160643575Y-139475768D03*
X156043625Y-139475768D03*
D22*
X160018479Y-137925857D03*
X156668467Y-137925857D03*
%TD*%
D23*
%TO.C,R2*%
X140817600Y-136044300D03*
X140817600Y-137869300D03*
%TD*%
D24*
%TO.C,R20*%
X216202900Y-131978400D03*
X214377900Y-131978400D03*
%TD*%
D18*
%TO.C,C41*%
X68122800Y-135229600D03*
X69847800Y-135229600D03*
%TD*%
D13*
%TO.C,C7*%
X208280000Y-101499500D03*
X208280000Y-103224500D03*
%TD*%
D24*
%TO.C,R18*%
X219657300Y-131978400D03*
X217832300Y-131978400D03*
%TD*%
D18*
%TO.C,C37*%
X68122800Y-82270600D03*
X69847800Y-82270600D03*
%TD*%
D25*
%TO.C,U12*%
X215783162Y-121446923D03*
X213883238Y-121446923D03*
X214833200Y-123917077D03*
%TD*%
D26*
%TO.C,U7*%
X220951930Y-113170479D03*
X221452311Y-113170479D03*
X221952692Y-113170479D03*
X222453073Y-113170479D03*
X222953454Y-113170479D03*
X223453835Y-113170479D03*
X223954216Y-113170479D03*
D27*
X224953200Y-112171749D03*
X224953200Y-111671368D03*
X224953200Y-111170987D03*
X224953200Y-110670606D03*
X224953200Y-110170225D03*
X224953200Y-109669844D03*
X224953200Y-109169463D03*
D26*
X223954216Y-108170479D03*
X223453835Y-108170479D03*
X222953454Y-108170479D03*
X222453073Y-108170479D03*
X221952692Y-108170479D03*
X221452311Y-108170479D03*
X220951930Y-108170479D03*
D27*
X219953200Y-109169463D03*
X219953200Y-109669844D03*
X219953200Y-110170225D03*
X219953200Y-110670606D03*
X219953200Y-111170987D03*
X219953200Y-111671368D03*
X219953200Y-112171749D03*
D28*
X222453073Y-110670606D03*
%TD*%
D13*
%TO.C,C31*%
X131114800Y-60605500D03*
X131114800Y-62330500D03*
%TD*%
D18*
%TO.C,C39*%
X68122800Y-109347000D03*
X69847800Y-109347000D03*
%TD*%
D29*
%TO.C,U3*%
X224434400Y-123021600D03*
X224434400Y-122521473D03*
X224434400Y-122021600D03*
X224434400Y-121521473D03*
X221334578Y-121521473D03*
X221334578Y-122021600D03*
X221334578Y-122521473D03*
X221334578Y-123021600D03*
%TD*%
D18*
%TO.C,C36*%
X68122800Y-68732400D03*
X69847800Y-68732400D03*
%TD*%
D13*
%TO.C,C26*%
X197916800Y-60605500D03*
X197916800Y-62330500D03*
%TD*%
D30*
%TO.C,C46*%
X172872400Y-140867300D03*
X172872400Y-139142300D03*
%TD*%
D12*
%TO.C,U16*%
X211836000Y-135620000D03*
X210886038Y-133620000D03*
X212785962Y-133620000D03*
%TD*%
D31*
%TO.C,U18*%
X215304375Y-97564850D03*
X213004400Y-97564850D03*
X210704425Y-97564850D03*
D32*
X213004400Y-103234650D03*
%TD*%
D33*
%TO.C,R11*%
X151545405Y-132484500D03*
X151545405Y-130659500D03*
%TD*%
D30*
%TO.C,C44*%
X103861150Y-140460900D03*
X103861150Y-138735900D03*
%TD*%
D14*
%TO.C,C3*%
X218236800Y-129832500D03*
X218236800Y-126707500D03*
%TD*%
D18*
%TO.C,C38*%
X68122800Y-95808800D03*
X69847800Y-95808800D03*
%TD*%
%TO.C,C40*%
X68122800Y-122885200D03*
X69847800Y-122885200D03*
%TD*%
D34*
%TO.C,SW1*%
X222839276Y-97801936D03*
X226639124Y-97801936D03*
X226639124Y-99302064D03*
X222839276Y-99302064D03*
%TD*%
D35*
%TO.C,C19*%
X234288500Y-122885200D03*
X232563500Y-122885200D03*
%TD*%
D13*
%TO.C,C32*%
X117703600Y-60605500D03*
X117703600Y-62330500D03*
%TD*%
%TO.C,C34*%
X90982800Y-60605500D03*
X90982800Y-62330500D03*
%TD*%
D36*
%TO.C,U17*%
X171475431Y-131876825D03*
X166344620Y-131876825D03*
%TD*%
D30*
%TO.C,C47*%
X184823100Y-140460900D03*
X184823100Y-138735900D03*
%TD*%
D35*
%TO.C,C53*%
X192632500Y-119735600D03*
X190907500Y-119735600D03*
%TD*%
D37*
%TO.C,U8*%
X216043010Y-111749633D03*
X216692997Y-111749633D03*
X217342984Y-111749633D03*
X217342984Y-109849709D03*
X216692997Y-109849709D03*
X216043010Y-109849709D03*
%TD*%
D38*
%TO.C,USB1*%
X144018502Y-135954884D03*
X144818349Y-135954884D03*
D39*
X145968464Y-135954884D03*
X146968464Y-135954884D03*
X147468336Y-135954884D03*
X148468336Y-135954884D03*
D38*
X150418298Y-135954884D03*
X149618451Y-135954884D03*
D39*
X148968464Y-135954884D03*
X147968464Y-135954884D03*
X146468336Y-135954884D03*
X145468336Y-135954884D03*
%TD*%
D30*
%TO.C,C42*%
X76555600Y-140460900D03*
X76555600Y-138735900D03*
%TD*%
D19*
%TO.C,R1*%
X226452320Y-122515337D03*
X228277320Y-122515337D03*
%TD*%
D35*
%TO.C,C22*%
X234288500Y-82270600D03*
X232563500Y-82270600D03*
%TD*%
D23*
%TO.C,R3*%
X153670000Y-135739500D03*
X153670000Y-137564500D03*
%TD*%
D35*
%TO.C,C20*%
X234288500Y-109347000D03*
X232563500Y-109347000D03*
%TD*%
D13*
%TO.C,C29*%
X159969200Y-60605500D03*
X159969200Y-62330500D03*
%TD*%
D12*
%TO.C,U14*%
X215315800Y-135620000D03*
X214365838Y-133620000D03*
X216265762Y-133620000D03*
%TD*%
D36*
%TO.C,U2*%
X171323031Y-135229625D03*
X166192220Y-135229625D03*
%TD*%
D13*
%TO.C,C28*%
X170942000Y-60605500D03*
X170942000Y-62330500D03*
%TD*%
D24*
%TO.C,R6*%
X191729550Y-114554000D03*
X189904550Y-114554000D03*
%TD*%
D13*
%TO.C,C27*%
X184454800Y-60605500D03*
X184454800Y-62330500D03*
%TD*%
D30*
%TO.C,C45*%
X117513925Y-140460900D03*
X117513925Y-138735900D03*
%TD*%
D35*
%TO.C,C4*%
X225835497Y-117250530D03*
X224110497Y-117250530D03*
%TD*%
D23*
%TO.C,R10*%
X153568400Y-130659500D03*
X153568400Y-132484500D03*
%TD*%
D24*
%TO.C,R21*%
X212748500Y-131978400D03*
X210923500Y-131978400D03*
%TD*%
D30*
%TO.C,C50*%
X225501200Y-139243900D03*
X225501200Y-140968900D03*
%TD*%
D35*
%TO.C,C2*%
X221523620Y-124445737D03*
X219798620Y-124445737D03*
%TD*%
D13*
%TO.C,C33*%
X104089200Y-60605500D03*
X104089200Y-62330500D03*
%TD*%
D40*
%TO.C,U20*%
X191450517Y-125453255D03*
X192800784Y-125453255D03*
X192800784Y-124603369D03*
X191450517Y-124603369D03*
D41*
X190400733Y-125028312D03*
D42*
X192125651Y-126253357D03*
D41*
X193850568Y-125028312D03*
D42*
X192125651Y-123803268D03*
%TD*%
D12*
%TO.C,U13*%
X218795600Y-135620000D03*
X217845638Y-133620000D03*
X219745562Y-133620000D03*
%TD*%
D35*
%TO.C,C8*%
X191679550Y-112534000D03*
X189954550Y-112534000D03*
%TD*%
D13*
%TO.C,C35*%
X77571600Y-60605500D03*
X77571600Y-62330500D03*
%TD*%
D18*
%TO.C,C6*%
X224110497Y-115150530D03*
X225835497Y-115150530D03*
%TD*%
%TO.C,C1*%
X188108550Y-110510400D03*
X189833550Y-110510400D03*
%TD*%
D30*
%TO.C,C48*%
X198196200Y-140460900D03*
X198196200Y-138735900D03*
%TD*%
D35*
%TO.C,C18*%
X234288500Y-135483600D03*
X232563500Y-135483600D03*
%TD*%
D19*
%TO.C,R7*%
X204624300Y-85742400D03*
X206449300Y-85742400D03*
%TD*%
D35*
%TO.C,C10*%
X192632500Y-121210800D03*
X190907500Y-121210800D03*
%TD*%
D24*
%TO.C,R5*%
X206449300Y-83652400D03*
X204624300Y-83652400D03*
%TD*%
D18*
%TO.C,C9*%
X204674300Y-87782400D03*
X206399300Y-87782400D03*
%TD*%
D24*
%TO.C,R4*%
X191729550Y-116574000D03*
X189904550Y-116574000D03*
%TD*%
D30*
%TO.C,C5*%
X208280000Y-99668500D03*
X208280000Y-97943500D03*
%TD*%
D14*
%TO.C,C55*%
X214782400Y-129832500D03*
X214782400Y-126707500D03*
%TD*%
D30*
%TO.C,C49*%
X211569300Y-140460900D03*
X211569300Y-138735900D03*
%TD*%
D34*
%TO.C,SW2*%
X222890076Y-103569264D03*
X226689924Y-103569264D03*
X222890076Y-102069136D03*
X226689924Y-102069136D03*
%TD*%
D30*
%TO.C,C43*%
X90208375Y-140460900D03*
X90208375Y-138735900D03*
%TD*%
D35*
%TO.C,C23*%
X234288500Y-68732400D03*
X232563500Y-68732400D03*
%TD*%
%TO.C,C21*%
X234288500Y-95808800D03*
X232563500Y-95808800D03*
%TD*%
M02*
