%TF.GenerationSoftware,KiCad,Pcbnew,(6.0.6-0)*%
%TF.CreationDate,2022-08-02T21:06:59+02:00*%
%TF.ProjectId,GlowSignMainPCB,476c6f77-5369-4676-9e4d-61696e504342,rev?*%
%TF.SameCoordinates,Original*%
%TF.FileFunction,Profile,NP*%
%FSLAX46Y46*%
G04 Gerber Fmt 4.6, Leading zero omitted, Abs format (unit mm)*
G04 Created by KiCad (PCBNEW (6.0.6-0)) date 2022-08-02 21:06:59*
%MOMM*%
%LPD*%
G01*
G04 APERTURE LIST*
%TA.AperFunction,Profile*%
%ADD10C,0.100000*%
%TD*%
G04 APERTURE END LIST*
D10*
X234665600Y-59283600D02*
X67665600Y-59283600D01*
X235965600Y-60583600D02*
G75*
G03*
X234665600Y-59283600I-1300000J0D01*
G01*
X235965600Y-140583600D02*
X235965600Y-60583600D01*
X234665600Y-141883600D02*
G75*
G03*
X235965600Y-140583600I0J1300000D01*
G01*
X67665600Y-141883600D02*
X234665600Y-141883600D01*
X66365600Y-140583600D02*
G75*
G03*
X67665600Y-141883600I1299999J-1D01*
G01*
X66365600Y-60583600D02*
X66365600Y-140583600D01*
X67665600Y-59283600D02*
G75*
G03*
X66365600Y-60583600I-1J-1299999D01*
G01*
X121215600Y-135049766D02*
G75*
G03*
X122215600Y-134049766I1J999999D01*
G01*
X122215600Y-130183600D02*
X122215600Y-134049766D01*
X123215600Y-129183600D02*
G75*
G03*
X122215600Y-130183600I-1J-999999D01*
G01*
X174165606Y-129183600D02*
X123215600Y-129183600D01*
X192965600Y-129183600D02*
X174165606Y-129183600D01*
X192965600Y-129183600D02*
G75*
G03*
X194965600Y-127183600I0J2000000D01*
G01*
X194965600Y-73983600D02*
X194965600Y-127183600D01*
X194965600Y-73983600D02*
G75*
G03*
X192965600Y-71983600I-2000000J0D01*
G01*
X123215600Y-71983600D02*
X192965600Y-71983600D01*
X122215600Y-70983600D02*
G75*
G03*
X123215600Y-71983600I999999J-1D01*
G01*
X122215600Y-67049766D02*
X122215600Y-70983600D01*
X122215600Y-67049766D02*
G75*
G03*
X121215600Y-66049766I-999999J1D01*
G01*
X86115600Y-66049766D02*
X121215600Y-66049766D01*
X86115600Y-66049766D02*
G75*
G03*
X85115600Y-67049766I-1J-999999D01*
G01*
X85115600Y-134049766D02*
X85115600Y-67049766D01*
X85115600Y-134049766D02*
G75*
G03*
X86115600Y-135049766I999999J-1D01*
G01*
X121215600Y-135049766D02*
X86115600Y-135049766D01*
X227965600Y-130383600D02*
G75*
G03*
X227965600Y-130383600I-3500000J0D01*
G01*
X227965600Y-70783600D02*
G75*
G03*
X227965600Y-70783600I-3500000J0D01*
G01*
X81365600Y-70783600D02*
G75*
G03*
X81365600Y-70783600I-3500000J0D01*
G01*
X81365600Y-130383600D02*
G75*
G03*
X81365600Y-130383600I-3500000J0D01*
G01*
M02*
