%TF.GenerationSoftware,KiCad,Pcbnew,(6.0.6-0)*%
%TF.CreationDate,2022-08-06T22:01:20+02:00*%
%TF.ProjectId,GlowSignMainPCB,476c6f77-5369-4676-9e4d-61696e504342,rev?*%
%TF.SameCoordinates,Original*%
%TF.FileFunction,Profile,NP*%
%FSLAX46Y46*%
G04 Gerber Fmt 4.6, Leading zero omitted, Abs format (unit mm)*
G04 Created by KiCad (PCBNEW (6.0.6-0)) date 2022-08-06 22:01:20*
%MOMM*%
%LPD*%
G01*
G04 APERTURE LIST*
%TA.AperFunction,Profile*%
%ADD10C,0.100000*%
%TD*%
G04 APERTURE END LIST*
D10*
X227815600Y-70844117D02*
G75*
G03*
X227815600Y-70844117I-3400000J0D01*
G01*
X186915583Y-73594117D02*
G75*
G03*
X184915600Y-71594117I-1999983J17D01*
G01*
X164852783Y-141344117D02*
G75*
G03*
X164352792Y-140844117I-499983J17D01*
G01*
X234665600Y-141844100D02*
G75*
G03*
X235915600Y-140594117I0J1250000D01*
G01*
X184915600Y-129594100D02*
G75*
G03*
X186915600Y-127594117I0J2000000D01*
G01*
X121215600Y-135060283D02*
X86115600Y-135060283D01*
X153352792Y-140844092D02*
G75*
G03*
X152852792Y-141344117I8J-500008D01*
G01*
X141483248Y-142844117D02*
X152852792Y-142844117D01*
X164852792Y-141344117D02*
X164852792Y-141844117D01*
X67665600Y-141844117D02*
X140478308Y-141844117D01*
X122215600Y-130594117D02*
X122215600Y-134060283D01*
X122215617Y-67060283D02*
G75*
G03*
X121215600Y-66060283I-1000017J-17D01*
G01*
X123215600Y-71594117D02*
X184915600Y-71594117D01*
X85115600Y-134060283D02*
X85115600Y-67060283D01*
X235915600Y-140594117D02*
X235915600Y-60594117D01*
X86115600Y-66060283D02*
X121215600Y-66060283D01*
X122215600Y-67060283D02*
X122215600Y-70594117D01*
X86115600Y-66060300D02*
G75*
G03*
X85115600Y-67060283I0J-1000000D01*
G01*
X234665600Y-59344117D02*
X67665600Y-59344117D01*
X184915600Y-129594117D02*
X123215600Y-129594117D01*
X85115617Y-134060283D02*
G75*
G03*
X86115600Y-135060283I999983J-17D01*
G01*
X152852792Y-142844117D02*
X152852792Y-141344117D01*
X122215583Y-70594117D02*
G75*
G03*
X123215600Y-71594117I1000017J17D01*
G01*
X66415600Y-60594117D02*
X66415600Y-140594117D01*
X186915600Y-73594117D02*
X186915600Y-127594117D01*
X123215600Y-129594100D02*
G75*
G03*
X122215600Y-130594117I0J-1000000D01*
G01*
X67665600Y-59344100D02*
G75*
G03*
X66415600Y-60594117I0J-1250000D01*
G01*
X121215600Y-135060300D02*
G75*
G03*
X122215600Y-134060283I0J1000000D01*
G01*
X164852792Y-141844117D02*
X234665600Y-141844117D01*
X81315600Y-70844117D02*
G75*
G03*
X81315600Y-70844117I-3400000J0D01*
G01*
X227815600Y-130344117D02*
G75*
G03*
X227815600Y-130344117I-3400000J0D01*
G01*
X153352792Y-140844117D02*
X164352792Y-140844117D01*
X66415583Y-140594117D02*
G75*
G03*
X67665600Y-141844117I1250017J17D01*
G01*
X141483271Y-142844117D02*
G75*
G03*
X140478308Y-141844117I-1004971J-4983D01*
G01*
X235915583Y-60594117D02*
G75*
G03*
X234665600Y-59344117I-1249983J17D01*
G01*
X81315600Y-130344117D02*
G75*
G03*
X81315600Y-130344117I-3400000J0D01*
G01*
M02*
