%TF.GenerationSoftware,KiCad,Pcbnew,(6.0.6-0)*%
%TF.CreationDate,2022-10-17T19:06:24+02:00*%
%TF.ProjectId,GlowSignMainPCB,476c6f77-5369-4676-9e4d-61696e504342,rev?*%
%TF.SameCoordinates,Original*%
%TF.FileFunction,Copper,L2,Bot*%
%TF.FilePolarity,Positive*%
%FSLAX46Y46*%
G04 Gerber Fmt 4.6, Leading zero omitted, Abs format (unit mm)*
G04 Created by KiCad (PCBNEW (6.0.6-0)) date 2022-10-17 19:06:24*
%MOMM*%
%LPD*%
G01*
G04 APERTURE LIST*
%TA.AperFunction,ComponentPad*%
%ADD10O,1.200000X1.800000*%
%TD*%
%TA.AperFunction,ComponentPad*%
%ADD11O,1.200000X2.200000*%
%TD*%
%TA.AperFunction,ViaPad*%
%ADD12C,1.300000*%
%TD*%
%TA.AperFunction,ViaPad*%
%ADD13C,0.600000*%
%TD*%
%TA.AperFunction,Conductor*%
%ADD14C,0.200000*%
%TD*%
%TA.AperFunction,Conductor*%
%ADD15C,1.000000*%
%TD*%
%TA.AperFunction,Conductor*%
%ADD16C,1.500000*%
%TD*%
%TA.AperFunction,Conductor*%
%ADD17C,0.250000*%
%TD*%
%TA.AperFunction,Conductor*%
%ADD18C,0.350000*%
%TD*%
%TA.AperFunction,Conductor*%
%ADD19C,0.300000*%
%TD*%
%TA.AperFunction,Conductor*%
%ADD20C,0.150000*%
%TD*%
%TA.AperFunction,Conductor*%
%ADD21C,0.700000*%
%TD*%
G04 APERTURE END LIST*
D10*
%TO.P,USB1,SHELL,SHELL*%
%TO.N,GND*%
X151538441Y-140877414D03*
D11*
X142898359Y-136697328D03*
D10*
X142898359Y-140877414D03*
D11*
X151538441Y-136697328D03*
%TD*%
D12*
%TO.N,*%
X82804000Y-67513200D03*
X228041200Y-134823200D03*
D13*
%TO.N,GND*%
X198374000Y-102311200D03*
X69138800Y-115824000D03*
X69138800Y-80924400D03*
X233172000Y-111099600D03*
X173888400Y-136753600D03*
X122885200Y-139039600D03*
X207111600Y-105511600D03*
X228549200Y-76758800D03*
X224078800Y-134975600D03*
X233172000Y-103378000D03*
X205536800Y-86766400D03*
X227076000Y-106578400D03*
X199491600Y-106121200D03*
X69138800Y-128879600D03*
X217170000Y-139192000D03*
X194716400Y-97586800D03*
X91541600Y-138734800D03*
X233172000Y-133858000D03*
X105308400Y-138785600D03*
X192684400Y-102209600D03*
X190500000Y-87579200D03*
X233172000Y-116332000D03*
X138226800Y-62026800D03*
X192074800Y-120396000D03*
X229108000Y-67411600D03*
X205181200Y-62026800D03*
X171602400Y-139192000D03*
X233172000Y-76758800D03*
X178358800Y-135839200D03*
X208280000Y-100634800D03*
X226923600Y-116230400D03*
X228650800Y-113995200D03*
X180898800Y-135534400D03*
X218389200Y-68021200D03*
X193395600Y-97586800D03*
X206654400Y-128524000D03*
X69138800Y-89306400D03*
X203682600Y-138201400D03*
X109220000Y-139039600D03*
X192684400Y-100330000D03*
X224028000Y-120954800D03*
X206248000Y-125882400D03*
X132130800Y-62026800D03*
X194665600Y-103174800D03*
X186334400Y-62026800D03*
X212852000Y-138836400D03*
X233172000Y-89865200D03*
X69138800Y-136144000D03*
X194056000Y-84480400D03*
X69138800Y-67411600D03*
X95758000Y-139039600D03*
X118872000Y-138785600D03*
X69138800Y-110896400D03*
X151739600Y-62026800D03*
X228701600Y-88900000D03*
X223164400Y-116382800D03*
X78130400Y-138684000D03*
X185928000Y-138887200D03*
X213258400Y-62026800D03*
X199542400Y-62026800D03*
X233172000Y-97485200D03*
X211836000Y-128422400D03*
X194919600Y-110337600D03*
X105511600Y-62026800D03*
X201269600Y-101701600D03*
X154736800Y-62026800D03*
X190754000Y-113334800D03*
X69138800Y-102108000D03*
X220522800Y-125120400D03*
X233172000Y-63144400D03*
X191770000Y-62026800D03*
X196392800Y-97637600D03*
X192633600Y-98958400D03*
X161188400Y-62026800D03*
X196494400Y-103174800D03*
X69138800Y-97434400D03*
X118821200Y-62026800D03*
X227177600Y-124002800D03*
X192582800Y-127508000D03*
X214884000Y-99415600D03*
X98247200Y-62026800D03*
X214325200Y-130302000D03*
X197713600Y-97586800D03*
X219710000Y-97332800D03*
X226822000Y-138785600D03*
X228041200Y-104140000D03*
X124663200Y-62026800D03*
X221691200Y-120954800D03*
X225755200Y-62026800D03*
X233172000Y-83972400D03*
X197205600Y-138226800D03*
X228600000Y-83667600D03*
X198424800Y-98552000D03*
X78790800Y-62026800D03*
X204571600Y-129133600D03*
X159918400Y-135483600D03*
X111252000Y-62026800D03*
X224840800Y-95351600D03*
X230073200Y-139242800D03*
X233172000Y-124256800D03*
X69138800Y-124053600D03*
X228904800Y-133146800D03*
X84429600Y-62026800D03*
X219862400Y-105918000D03*
X70916800Y-62026800D03*
X233172000Y-70459600D03*
X219049600Y-62026800D03*
X201168000Y-100279200D03*
X82143600Y-139039600D03*
X69138800Y-75285600D03*
X178054000Y-62026800D03*
X190627000Y-82880200D03*
X211480400Y-124307600D03*
X190246000Y-139192000D03*
X198374000Y-100380800D03*
X221437200Y-97332800D03*
X92557600Y-62026800D03*
%TO.N,+3V3*%
X209550000Y-111963200D03*
X212191600Y-104952800D03*
X217322400Y-113893600D03*
X189687200Y-115519200D03*
X214122000Y-106934000D03*
X211226400Y-91694000D03*
X189941200Y-111353600D03*
X193344800Y-114096800D03*
X211988400Y-114909600D03*
X213055200Y-95656400D03*
X208229200Y-104648000D03*
%TO.N,EN*%
X209753200Y-109321600D03*
X192786000Y-112572800D03*
%TO.N,IO0*%
X217170000Y-85953600D03*
X214985600Y-85750400D03*
X210820000Y-85750400D03*
X217779600Y-110845600D03*
%TO.N,Net-(R4-Pad1)*%
X221488000Y-99364800D03*
X198120000Y-112166400D03*
X209753200Y-108204000D03*
X220167200Y-100685600D03*
%TO.N,Net-(R5-Pad1)*%
X211429600Y-89865200D03*
X215239600Y-92760800D03*
%TO.N,IO16{slash}LED1*%
X220472000Y-122529600D03*
X203911200Y-102565200D03*
X198120000Y-127152400D03*
X202234800Y-127101600D03*
X204876400Y-109880400D03*
X193141600Y-133451600D03*
%TO.N,+BATT*%
X186893200Y-135026400D03*
X140766800Y-67614800D03*
%TO.N,-BATT*%
X140512800Y-70053200D03*
X189738000Y-133146800D03*
%TO.N,IO32{slash}SD*%
X194157600Y-119532400D03*
X195580000Y-117906800D03*
X192328800Y-122631200D03*
X194462400Y-115011200D03*
%TO.N,IO14{slash}SCK*%
X202387200Y-117551200D03*
X194832900Y-123596400D03*
%TO.N,IO15{slash}WS*%
X194208400Y-126542800D03*
X203606400Y-95097600D03*
X189992000Y-96774000D03*
X201371200Y-97942400D03*
X190601600Y-103581200D03*
X191516000Y-105968800D03*
%TO.N,RXD0*%
X218252500Y-90017600D03*
X193700400Y-89357200D03*
X218795600Y-111302800D03*
X207518000Y-91338400D03*
X205282800Y-89458800D03*
X215290400Y-89865200D03*
%TO.N,TXD0*%
X218052481Y-109829600D03*
X208076800Y-90424000D03*
X192074800Y-89458800D03*
X217728800Y-89204800D03*
X215341200Y-88646000D03*
X205536800Y-88544400D03*
%TO.N,USB-C DATA+*%
X148183600Y-134772400D03*
X221996000Y-114909600D03*
%TO.N,USB-C DATA-*%
X221945200Y-115976400D03*
X156260800Y-133553200D03*
%TO.N,IO23{slash}LEDPOWER*%
X215595200Y-118211600D03*
X207772000Y-117703600D03*
%TO.N,VBUS*%
X189128400Y-102108000D03*
X214731600Y-82702400D03*
X197459600Y-78994000D03*
X211124800Y-82600800D03*
X189077600Y-104952800D03*
X152603200Y-131284000D03*
X164947600Y-131876800D03*
X146608800Y-131368800D03*
%TO.N,LED 5V*%
X234797600Y-124053600D03*
X234797600Y-70358000D03*
X124714000Y-140766800D03*
X234797600Y-97332800D03*
X234797600Y-127965200D03*
X132435600Y-60401200D03*
X111658400Y-140766800D03*
X232257600Y-140766800D03*
X234797600Y-134416800D03*
X212648800Y-140766800D03*
X154792762Y-60372951D03*
X191008000Y-60401200D03*
X230479600Y-60401200D03*
X67462400Y-102971600D03*
X213156800Y-60401200D03*
X92608400Y-60401200D03*
X186006400Y-140794400D03*
X234797600Y-110947200D03*
X67462400Y-90068400D03*
X72085200Y-140766800D03*
X220116400Y-130860800D03*
X91440000Y-140766800D03*
X234797600Y-88493600D03*
X226618800Y-140766800D03*
X226110800Y-60401200D03*
X234797600Y-101650800D03*
X83362800Y-60401200D03*
X234797600Y-115011200D03*
X123901200Y-60401200D03*
X67462400Y-129692400D03*
X105105200Y-140766800D03*
X178890000Y-140794400D03*
X67462400Y-97180400D03*
X96723200Y-60401200D03*
X176834800Y-60401200D03*
X186436000Y-60401200D03*
X77876400Y-140766800D03*
X199186800Y-140766800D03*
X67462400Y-124053600D03*
X118973600Y-60401200D03*
X78790800Y-60401200D03*
X205892400Y-140766800D03*
X192047200Y-140794400D03*
X105511600Y-60401200D03*
X97790000Y-140766800D03*
X160731200Y-60401200D03*
X67462400Y-76962000D03*
X163271200Y-60401200D03*
X234797600Y-74980800D03*
X171625600Y-140794400D03*
X219303600Y-140766800D03*
X70053200Y-60401200D03*
X172415200Y-60401200D03*
X234797600Y-83769200D03*
X136956800Y-60401200D03*
X67462400Y-110845600D03*
X67462400Y-80924400D03*
X118668800Y-140766800D03*
X199390000Y-60401200D03*
X150164800Y-60401200D03*
X204114400Y-60401200D03*
X67462400Y-67462400D03*
X67462400Y-116535200D03*
X223215200Y-138582400D03*
X84632800Y-140766800D03*
X217525600Y-60401200D03*
X110032800Y-60401200D03*
X200304400Y-140512800D03*
X67462400Y-136347200D03*
X223266000Y-124561600D03*
%TO.N,IO27{slash}BATT CHARGING*%
X201980800Y-105867200D03*
X209804000Y-80822800D03*
%TO.N,IO26{slash}BATT VOLT*%
X189382400Y-80518000D03*
X198221600Y-104343200D03*
%TO.N,Net-(R18-Pad1)*%
X214680800Y-116179600D03*
X215087200Y-114655600D03*
%TO.N,Net-(C10-Pad2)*%
X190398400Y-126629500D03*
X190855600Y-122174000D03*
%TO.N,Net-(D30-Pad2)*%
X162661600Y-139496800D03*
X154635200Y-139344400D03*
%TO.N,Net-(D32-Pad2)*%
X196342000Y-139547600D03*
X202438000Y-139547600D03*
%TO.N,IO33{slash}MAINBUTTON*%
X195681600Y-135686800D03*
X198272400Y-109880400D03*
X201625200Y-128168400D03*
X200710800Y-110744000D03*
X157784800Y-134152700D03*
%TO.N,3.3V AFTER RELAY*%
X189687200Y-122631200D03*
X209397600Y-114757200D03*
X190347600Y-134721600D03*
%TD*%
D14*
%TO.N,IO33{slash}MAINBUTTON*%
X201625200Y-128168400D02*
X201625200Y-129743200D01*
X201625200Y-129743200D02*
X195681600Y-135686800D01*
D15*
%TO.N,GND*%
X209499200Y-99415600D02*
X208889600Y-100025200D01*
D16*
X222402400Y-136906000D02*
X220472000Y-138836400D01*
X233172000Y-97485200D02*
X233172000Y-89865200D01*
X233172000Y-138785600D02*
X233172000Y-137210800D01*
X69138800Y-115824000D02*
X69138800Y-124053600D01*
X230073200Y-139242800D02*
X232714800Y-139242800D01*
X185928000Y-138887200D02*
X185470800Y-138887200D01*
D17*
X223164400Y-116382800D02*
X226771200Y-116382800D01*
D16*
X69138800Y-80924400D02*
X69138800Y-89306400D01*
X164592000Y-135483600D02*
X159918400Y-135483600D01*
D17*
X231089200Y-104140000D02*
X233172000Y-106222800D01*
D16*
X92557600Y-62026800D02*
X84429600Y-62026800D01*
X173888400Y-136753600D02*
X167944800Y-136753600D01*
X124663200Y-62026800D02*
X118821200Y-62026800D01*
X70916800Y-62026800D02*
X69799200Y-62026800D01*
X180898800Y-135534400D02*
X180390800Y-135534400D01*
X190246000Y-139192000D02*
X186232800Y-139192000D01*
X159918400Y-135483600D02*
X152752169Y-135483600D01*
X154736800Y-62026800D02*
X151739600Y-62026800D01*
X200507600Y-133045200D02*
X195351400Y-138201400D01*
X233172000Y-111099600D02*
X233172000Y-106222800D01*
X233172000Y-134924800D02*
X233172000Y-137210800D01*
X226110800Y-138785600D02*
X224231200Y-136906000D01*
X138384672Y-136697328D02*
X142898359Y-136697328D01*
X233172000Y-63144400D02*
X232054400Y-62026800D01*
X217170000Y-139192000D02*
X212547200Y-139192000D01*
D17*
X221691200Y-120954800D02*
X221691200Y-123952000D01*
D16*
X69138800Y-138074400D02*
X70104000Y-139039600D01*
X233172000Y-124256800D02*
X233172000Y-120954800D01*
X203682600Y-138201400D02*
X204673200Y-139192000D01*
X78790800Y-62026800D02*
X70916800Y-62026800D01*
X233172000Y-127101600D02*
X233172000Y-133858000D01*
X69138800Y-128879600D02*
X69138800Y-136144000D01*
X233172000Y-83972400D02*
X233172000Y-76758800D01*
X161188400Y-62026800D02*
X154736800Y-62026800D01*
X204673200Y-139192000D02*
X207111600Y-139192000D01*
X138226800Y-62026800D02*
X132130800Y-62026800D01*
D17*
X190754000Y-119075200D02*
X190754000Y-113334800D01*
D16*
X69138800Y-102108000D02*
X69138800Y-110896400D01*
X69138800Y-75285600D02*
X69138800Y-80924400D01*
D17*
X219710000Y-97332800D02*
X221437200Y-97332800D01*
D16*
X194970400Y-138582400D02*
X194360800Y-139192000D01*
X178358800Y-135839200D02*
X179171600Y-136652000D01*
X197205600Y-138226800D02*
X197180200Y-138201400D01*
D17*
X205536800Y-86766400D02*
X194513200Y-86766400D01*
D16*
X136042400Y-139039600D02*
X138384672Y-136697328D01*
X227279200Y-139242800D02*
X230073200Y-139242800D01*
X180390800Y-135534400D02*
X179171600Y-136753600D01*
X109220000Y-139039600D02*
X122885200Y-139039600D01*
X84429600Y-62026800D02*
X78790800Y-62026800D01*
X179171600Y-136753600D02*
X174955200Y-136753600D01*
D17*
X228041200Y-104140000D02*
X231089200Y-104140000D01*
X230225600Y-120954800D02*
X233172000Y-120954800D01*
D16*
X69138800Y-136144000D02*
X69138800Y-138074400D01*
X174955200Y-136753600D02*
X173888400Y-136753600D01*
X233172000Y-89865200D02*
X233172000Y-83972400D01*
X69138800Y-97434400D02*
X69138800Y-102108000D01*
X183337200Y-136753600D02*
X179171600Y-136753600D01*
D15*
X206451200Y-102463600D02*
X208889600Y-100025200D01*
D17*
X192074800Y-120396000D02*
X190754000Y-119075200D01*
X226771200Y-116382800D02*
X226923600Y-116230400D01*
D16*
X233172000Y-70459600D02*
X233172000Y-63144400D01*
X69138800Y-67411600D02*
X69138800Y-75285600D01*
X197180200Y-138201400D02*
X195351400Y-138201400D01*
X186232800Y-139192000D02*
X185928000Y-138887200D01*
X132130800Y-62026800D02*
X124663200Y-62026800D01*
X226822000Y-138785600D02*
X226110800Y-138785600D01*
X232714800Y-139242800D02*
X233172000Y-138785600D01*
D15*
X202117200Y-100854000D02*
X201742800Y-100854000D01*
X204841600Y-100854000D02*
X202117200Y-100854000D01*
D16*
X98247200Y-62026800D02*
X92557600Y-62026800D01*
X205181200Y-62026800D02*
X203555600Y-62026800D01*
X69138800Y-124053600D02*
X69138800Y-128879600D01*
X152752169Y-135483600D02*
X151538441Y-136697328D01*
X118821200Y-62026800D02*
X111252000Y-62026800D01*
X69138800Y-110896400D02*
X69138800Y-115824000D01*
X233172000Y-120954800D02*
X233172000Y-116332000D01*
X213258400Y-62026800D02*
X205181200Y-62026800D01*
D15*
X202117200Y-100854000D02*
X201269600Y-101701600D01*
D16*
X167944800Y-136753600D02*
X165862000Y-136753600D01*
X179171600Y-136652000D02*
X179171600Y-136753600D01*
D15*
X206451200Y-102463600D02*
X204841600Y-100854000D01*
D16*
X194360800Y-139192000D02*
X190246000Y-139192000D01*
D17*
X227177600Y-124002800D02*
X230225600Y-120954800D01*
D15*
X208889600Y-100025200D02*
X208280000Y-100634800D01*
D16*
X69799200Y-62026800D02*
X69138800Y-62687200D01*
X233172000Y-76758800D02*
X233172000Y-70459600D01*
X233172000Y-103378000D02*
X233172000Y-97485200D01*
X224231200Y-136906000D02*
X222402400Y-136906000D01*
X151739600Y-62026800D02*
X138226800Y-62026800D01*
X194970400Y-138582400D02*
X195351400Y-138201400D01*
X225755200Y-62026800D02*
X219049600Y-62026800D01*
X165862000Y-136753600D02*
X164592000Y-135483600D01*
X105511600Y-62026800D02*
X98247200Y-62026800D01*
D15*
X207111600Y-105511600D02*
X206451200Y-104851200D01*
D16*
X70104000Y-139039600D02*
X72593200Y-139039600D01*
X219049600Y-62026800D02*
X213258400Y-62026800D01*
X226822000Y-138785600D02*
X227279200Y-139242800D01*
X69138800Y-62687200D02*
X69138800Y-67411600D01*
D15*
X206451200Y-104851200D02*
X206451200Y-102463600D01*
D16*
X167487600Y-62026800D02*
X161188400Y-62026800D01*
X212547200Y-139192000D02*
X207111600Y-139192000D01*
X233172000Y-133858000D02*
X233172000Y-134924800D01*
X233172000Y-127101600D02*
X233172000Y-124256800D01*
X82143600Y-139039600D02*
X95758000Y-139039600D01*
X232054400Y-62026800D02*
X225755200Y-62026800D01*
X233172000Y-106222800D02*
X233172000Y-103378000D01*
X186334400Y-62026800D02*
X178054000Y-62026800D01*
X199542400Y-62026800D02*
X191770000Y-62026800D01*
D17*
X221691200Y-120954800D02*
X224028000Y-120954800D01*
D15*
X201742800Y-100854000D02*
X201168000Y-100279200D01*
D16*
X220472000Y-138836400D02*
X220472000Y-139192000D01*
X210007200Y-124307600D02*
X201269600Y-133045200D01*
X191770000Y-62026800D02*
X186334400Y-62026800D01*
X203555600Y-62026800D02*
X199542400Y-62026800D01*
X185470800Y-138887200D02*
X183337200Y-136753600D01*
X233172000Y-116332000D02*
X233172000Y-111099600D01*
X220472000Y-139192000D02*
X217170000Y-139192000D01*
X178054000Y-62026800D02*
X167487600Y-62026800D01*
D17*
X221691200Y-123952000D02*
X220522800Y-125120400D01*
D16*
X111252000Y-62026800D02*
X105511600Y-62026800D01*
X197205600Y-138226800D02*
X197231000Y-138201400D01*
X201269600Y-133045200D02*
X200507600Y-133045200D01*
X122885200Y-139039600D02*
X136042400Y-139039600D01*
D17*
X194513200Y-86766400D02*
X190627000Y-82880200D01*
D16*
X69138800Y-89306400D02*
X69138800Y-97434400D01*
X197231000Y-138201400D02*
X203682600Y-138201400D01*
X95758000Y-139039600D02*
X109220000Y-139039600D01*
X211480400Y-124307600D02*
X210007200Y-124307600D01*
D15*
X214884000Y-99415600D02*
X209499200Y-99415600D01*
D16*
X72593200Y-139039600D02*
X82143600Y-139039600D01*
D17*
%TO.N,+3V3*%
X211988400Y-106934000D02*
X211531200Y-107391200D01*
D18*
X189687200Y-111607600D02*
X189941200Y-111353600D01*
D19*
X198729600Y-114096800D02*
X193344800Y-114096800D01*
D15*
X211531200Y-107391200D02*
X211531200Y-109982000D01*
X211886800Y-104648000D02*
X212191600Y-104952800D01*
D17*
X213055200Y-93522800D02*
X213055200Y-95656400D01*
D19*
X199745600Y-113182400D02*
X199644000Y-113182400D01*
D15*
X211531200Y-109982000D02*
X209550000Y-111963200D01*
D19*
X206044800Y-113182400D02*
X199745600Y-113182400D01*
D15*
X209499200Y-104648000D02*
X211531200Y-106680000D01*
D19*
X206095600Y-113131600D02*
X206044800Y-113182400D01*
X211988400Y-114909600D02*
X211988400Y-114808000D01*
X211988400Y-114808000D02*
X212902800Y-113893600D01*
D17*
X211226400Y-91694000D02*
X213055200Y-93522800D01*
D19*
X199644000Y-113182400D02*
X198729600Y-114096800D01*
X207264000Y-111963200D02*
X206095600Y-113131600D01*
D17*
X214122000Y-106934000D02*
X211988400Y-106934000D01*
D15*
X211531200Y-106680000D02*
X211531200Y-107391200D01*
D19*
X209550000Y-111963200D02*
X207264000Y-111963200D01*
D15*
X208229200Y-104648000D02*
X209499200Y-104648000D01*
X209499200Y-104648000D02*
X211886800Y-104648000D01*
D19*
X212902800Y-113893600D02*
X217322400Y-113893600D01*
D18*
X189687200Y-115316000D02*
X189687200Y-111607600D01*
D20*
%TO.N,EN*%
X208381600Y-109321600D02*
X205299000Y-112404200D01*
X199050600Y-112404200D02*
X198221600Y-113233200D01*
X209753200Y-109321600D02*
X208381600Y-109321600D01*
X205299000Y-112404200D02*
X199050600Y-112404200D01*
X193446400Y-113233200D02*
X192786000Y-112572800D01*
X198221600Y-113233200D02*
X193446400Y-113233200D01*
D14*
%TO.N,IO0*%
X217779600Y-110845600D02*
X217068400Y-110134400D01*
X214985600Y-85750400D02*
X210820000Y-85750400D01*
X217068400Y-99618800D02*
X217068400Y-86055200D01*
X217068400Y-86055200D02*
X217170000Y-85953600D01*
X217068400Y-110134400D02*
X217068400Y-99618800D01*
D17*
%TO.N,Net-(R4-Pad1)*%
X204825600Y-111861600D02*
X206654400Y-110032800D01*
X220167200Y-100685600D02*
X221488000Y-99364800D01*
X198424800Y-111861600D02*
X201168000Y-111861600D01*
X208483200Y-108204000D02*
X209753200Y-108204000D01*
X206654400Y-110032800D02*
X208483200Y-108204000D01*
X201168000Y-111861600D02*
X204825600Y-111861600D01*
X198120000Y-112166400D02*
X198424800Y-111861600D01*
%TO.N,Net-(R5-Pad1)*%
X214325200Y-92760800D02*
X211429600Y-89865200D01*
X215239600Y-92760800D02*
X214325200Y-92760800D01*
%TO.N,IO16{slash}LED1*%
X218541600Y-120599200D02*
X220472000Y-122529600D01*
X198120000Y-128473200D02*
X198120000Y-127812800D01*
X203962000Y-102616000D02*
X203962000Y-108966000D01*
X202438000Y-127101600D02*
X208940400Y-120599200D01*
X202234800Y-127101600D02*
X202438000Y-127101600D01*
X203962000Y-108966000D02*
X204876400Y-109880400D01*
X193141600Y-133451600D02*
X198120000Y-128473200D01*
X208940400Y-120599200D02*
X218541600Y-120599200D01*
X203911200Y-102565200D02*
X203962000Y-102616000D01*
X198120000Y-127812800D02*
X198120000Y-127152400D01*
D18*
%TO.N,+BATT*%
X208838800Y-116687600D02*
X216306400Y-109220000D01*
X192176400Y-135839200D02*
X199085200Y-128930400D01*
X207264000Y-116687600D02*
X208838800Y-116687600D01*
X186893200Y-135026400D02*
X187706000Y-135839200D01*
X187706000Y-135839200D02*
X192176400Y-135839200D01*
X199085200Y-126288800D02*
X206451200Y-118922800D01*
D15*
X214274400Y-67614800D02*
X140766800Y-67614800D01*
D18*
X206451200Y-117500400D02*
X207264000Y-116687600D01*
X199085200Y-128930400D02*
X199085200Y-126288800D01*
D15*
X216306400Y-69646800D02*
X214274400Y-67614800D01*
D18*
X216306400Y-109220000D02*
X216306400Y-69646800D01*
X206451200Y-118922800D02*
X206451200Y-117500400D01*
D17*
%TO.N,-BATT*%
X188671200Y-107492800D02*
X190957200Y-105206800D01*
X188671200Y-132080000D02*
X188671200Y-107492800D01*
D15*
X208330800Y-86918800D02*
X208432400Y-86817200D01*
D17*
X199085200Y-105206800D02*
X199237600Y-105054400D01*
X199237600Y-105054400D02*
X199237600Y-96570800D01*
X208330800Y-87477600D02*
X208330800Y-86918800D01*
X190957200Y-105206800D02*
X199085200Y-105206800D01*
X199237600Y-96570800D02*
X208330800Y-87477600D01*
D15*
X141325600Y-69240400D02*
X140512800Y-70053200D01*
X208432400Y-86817200D02*
X208432400Y-77520800D01*
X200152000Y-69240400D02*
X141325600Y-69240400D01*
X208432400Y-77520800D02*
X200152000Y-69240400D01*
D17*
X189738000Y-133146800D02*
X188671200Y-132080000D01*
%TO.N,IO32{slash}SD*%
X194919600Y-117246400D02*
X195580000Y-117906800D01*
X193294000Y-122631200D02*
X194157600Y-121767600D01*
X192328800Y-122631200D02*
X193294000Y-122631200D01*
X194919600Y-115468400D02*
X194919600Y-117246400D01*
X194462400Y-115011200D02*
X194919600Y-115468400D01*
X194157600Y-121767600D02*
X194157600Y-119532400D01*
%TO.N,IO14{slash}SCK*%
X202387200Y-117551200D02*
X201523600Y-117551200D01*
X201523600Y-117551200D02*
X195478400Y-123596400D01*
X195478400Y-123596400D02*
X194832900Y-123596400D01*
%TO.N,IO15{slash}WS*%
X191516000Y-113487200D02*
X194208400Y-116179600D01*
X190601600Y-103581200D02*
X189992000Y-102971600D01*
X191516000Y-105968800D02*
X191516000Y-113487200D01*
X195021200Y-118231884D02*
X195021200Y-122524216D01*
X194208400Y-117419084D02*
X195021200Y-118231884D01*
X194208400Y-123337016D02*
X194208400Y-126542800D01*
X194208400Y-116179600D02*
X194208400Y-117419084D01*
X189992000Y-102971600D02*
X189992000Y-96774000D01*
X203606400Y-95097600D02*
X201371200Y-97332800D01*
X195021200Y-122524216D02*
X194208400Y-123337016D01*
X201371200Y-97332800D02*
X201371200Y-97942400D01*
D20*
%TO.N,RXD0*%
X208381600Y-91338400D02*
X207518000Y-91338400D01*
X205282800Y-89458800D02*
X205028800Y-89204800D01*
X219049600Y-109575600D02*
X218252500Y-108778500D01*
X212852000Y-89255600D02*
X210464400Y-89255600D01*
X205028800Y-89204800D02*
X193852800Y-89204800D01*
X215290400Y-89865200D02*
X213461600Y-89865200D01*
X218795600Y-111302800D02*
X218795600Y-110439200D01*
X210464400Y-89255600D02*
X208432400Y-91287600D01*
X218795600Y-110439200D02*
X219049600Y-110185200D01*
X213461600Y-89865200D02*
X212852000Y-89255600D01*
X219049600Y-110185200D02*
X219049600Y-109575600D01*
X218252500Y-108778500D02*
X218252500Y-90017600D01*
X208432400Y-91287600D02*
X208381600Y-91338400D01*
X193852800Y-89204800D02*
X193700400Y-89357200D01*
%TO.N,TXD0*%
X205130400Y-88138000D02*
X193395600Y-88138000D01*
X193395600Y-88138000D02*
X192074800Y-89458800D01*
X217678000Y-89255600D02*
X217728800Y-89204800D01*
X218052481Y-109829600D02*
X217678000Y-109455119D01*
X215341200Y-88646000D02*
X209854800Y-88646000D01*
X209854800Y-88646000D02*
X208076800Y-90424000D01*
X217678000Y-109455119D02*
X217678000Y-89255600D01*
X205536800Y-88544400D02*
X205130400Y-88138000D01*
D14*
%TO.N,USB-C DATA+*%
X164388800Y-133096000D02*
X164185600Y-132892800D01*
X165709600Y-133096000D02*
X164388800Y-133096000D01*
X186944000Y-136499600D02*
X183337200Y-132892800D01*
X199948800Y-129387600D02*
X192836800Y-136499600D01*
X148894800Y-134061200D02*
X148183600Y-134772400D01*
X154127200Y-134061200D02*
X148894800Y-134061200D01*
X199948800Y-126949200D02*
X199948800Y-129387600D01*
X221996000Y-114909600D02*
X220268800Y-114909600D01*
X183337200Y-132892800D02*
X165912800Y-132892800D01*
X192836800Y-136499600D02*
X186944000Y-136499600D01*
X207670400Y-119227600D02*
X199948800Y-126949200D01*
X220268800Y-114909600D02*
X215950800Y-119227600D01*
X155295600Y-132892800D02*
X154127200Y-134061200D01*
X164185600Y-132892800D02*
X155295600Y-132892800D01*
X165912800Y-132892800D02*
X165709600Y-133096000D01*
X215950800Y-119227600D02*
X207670400Y-119227600D01*
%TO.N,USB-C DATA-*%
X208178400Y-119837200D02*
X200660000Y-127355600D01*
X200660000Y-129692400D02*
X193192400Y-137160000D01*
X183032400Y-133553200D02*
X156260800Y-133553200D01*
X193192400Y-137160000D02*
X186639200Y-137160000D01*
X200660000Y-127355600D02*
X200660000Y-129692400D01*
X221945200Y-115976400D02*
X220065600Y-115976400D01*
X216204800Y-119837200D02*
X208178400Y-119837200D01*
X186639200Y-137160000D02*
X183032400Y-133553200D01*
X220065600Y-115976400D02*
X216204800Y-119837200D01*
D17*
%TO.N,IO23{slash}LEDPOWER*%
X208483200Y-118414800D02*
X207772000Y-117703600D01*
X215392000Y-118414800D02*
X208483200Y-118414800D01*
X215595200Y-118211600D02*
X215392000Y-118414800D01*
D18*
%TO.N,VBUS*%
X189077600Y-82804000D02*
X189077600Y-102057200D01*
X191058800Y-80822800D02*
X189077600Y-82804000D01*
X186182000Y-130352800D02*
X153111200Y-130352800D01*
D16*
X164947600Y-131876800D02*
X164693600Y-131622800D01*
X153263600Y-132791200D02*
X148031200Y-132791200D01*
D18*
X152603200Y-131284000D02*
X152603200Y-132130800D01*
X192887600Y-78994000D02*
X197459600Y-78994000D01*
X152603200Y-132130800D02*
X153263600Y-132791200D01*
D16*
X148031200Y-132791200D02*
X146608800Y-131368800D01*
X164693600Y-131622800D02*
X154432000Y-131622800D01*
D18*
X152603200Y-130860800D02*
X152603200Y-131284000D01*
X214630000Y-82600800D02*
X214731600Y-82702400D01*
X153111200Y-130352800D02*
X152603200Y-130860800D01*
X211124800Y-82600800D02*
X214630000Y-82600800D01*
D16*
X154432000Y-131622800D02*
X153263600Y-132791200D01*
D18*
X187655200Y-128879600D02*
X186182000Y-130352800D01*
X189077600Y-104952800D02*
X187655200Y-106375200D01*
X191058800Y-80822800D02*
X192887600Y-78994000D01*
X187655200Y-106375200D02*
X187655200Y-128879600D01*
D17*
X189077600Y-102057200D02*
X189128400Y-102108000D01*
D15*
%TO.N,LED 5V*%
X110032800Y-60401200D02*
X118973600Y-60401200D01*
X67462400Y-80924400D02*
X67462400Y-76962000D01*
X234797600Y-74980800D02*
X234797600Y-83769200D01*
X199390000Y-60401200D02*
X204114400Y-60401200D01*
X217525600Y-60401200D02*
X226110800Y-60401200D01*
D17*
X221030800Y-128016000D02*
X221030800Y-128066800D01*
D15*
X196322966Y-140794400D02*
X195400000Y-140794400D01*
X223215200Y-138582400D02*
X223215200Y-139344400D01*
X213156800Y-60401200D02*
X217525600Y-60401200D01*
X105105200Y-140766800D02*
X110134400Y-140766800D01*
X234797600Y-83769200D02*
X234797600Y-88493600D01*
X136956800Y-60401200D02*
X150164800Y-60401200D01*
X217881200Y-140766800D02*
X212648800Y-140766800D01*
X176834800Y-60401200D02*
X186436000Y-60401200D01*
X67462400Y-136347200D02*
X67462400Y-129692400D01*
X132283200Y-140766800D02*
X137414000Y-140766800D01*
X232257600Y-140766800D02*
X231292400Y-140766800D01*
X118668800Y-140766800D02*
X123901200Y-140766800D01*
X205892400Y-140766800D02*
X204520800Y-140766800D01*
X139395200Y-138785600D02*
X153060400Y-138785600D01*
X67462400Y-97180400D02*
X67462400Y-90068400D01*
X67462400Y-67462400D02*
X67462400Y-61671200D01*
X231292400Y-140766800D02*
X226618800Y-140766800D01*
D17*
X220116400Y-128981200D02*
X220116400Y-130860800D01*
D15*
X192047200Y-140794400D02*
X191031200Y-140794400D01*
X91440000Y-140766800D02*
X96875600Y-140766800D01*
X234797600Y-134416800D02*
X234797600Y-127965200D01*
X166092800Y-140794400D02*
X162610800Y-137312400D01*
X200304400Y-140563600D02*
X200101200Y-140766800D01*
X186006400Y-140794400D02*
X178890000Y-140794400D01*
X124714000Y-140766800D02*
X132283200Y-140766800D01*
X67462400Y-110845600D02*
X67462400Y-102971600D01*
X200304400Y-140512800D02*
X200304400Y-140563600D01*
X160731200Y-60401200D02*
X163271200Y-60401200D01*
X111658400Y-140766800D02*
X118668800Y-140766800D01*
X233375200Y-60401200D02*
X234797600Y-61823600D01*
X118973600Y-60401200D02*
X123901200Y-60401200D01*
X191031200Y-140794400D02*
X186006400Y-140794400D01*
X195400000Y-140794400D02*
X192047200Y-140794400D01*
X234797600Y-88493600D02*
X234797600Y-97332800D01*
X223215200Y-139344400D02*
X224637600Y-140766800D01*
X110134400Y-140766800D02*
X111658400Y-140766800D01*
X200101200Y-140766800D02*
X199186800Y-140766800D01*
X178890000Y-140794400D02*
X177522800Y-140794400D01*
X219303600Y-140766800D02*
X217881200Y-140766800D01*
X154533600Y-137312400D02*
X162610800Y-137312400D01*
X202285600Y-140766800D02*
X200101200Y-140766800D01*
X234797600Y-140411200D02*
X234442000Y-140766800D01*
X234797600Y-61823600D02*
X234797600Y-70358000D01*
X171625600Y-140794400D02*
X169085600Y-140794400D01*
X163271200Y-60401200D02*
X172415200Y-60401200D01*
D17*
X220675200Y-128422400D02*
X220116400Y-128981200D01*
D15*
X169085600Y-140794400D02*
X166092800Y-140794400D01*
X186436000Y-60401200D02*
X191008000Y-60401200D01*
X67462400Y-90068400D02*
X67462400Y-80924400D01*
D17*
X222707200Y-126288800D02*
X221030800Y-127965200D01*
D15*
X175638800Y-140794400D02*
X171625600Y-140794400D01*
X67462400Y-76962000D02*
X67462400Y-67462400D01*
X77876400Y-140766800D02*
X83464400Y-140766800D01*
D17*
X221030800Y-127965200D02*
X221030800Y-128016000D01*
D15*
X72085200Y-140766800D02*
X77876400Y-140766800D01*
X96875600Y-140766800D02*
X97790000Y-140766800D01*
X67462400Y-139496800D02*
X68732400Y-140766800D01*
X67462400Y-136347200D02*
X67462400Y-139496800D01*
X172415200Y-60401200D02*
X176834800Y-60401200D01*
X230479600Y-60401200D02*
X233375200Y-60401200D01*
X150164800Y-60401200D02*
X160731200Y-60401200D01*
X67462400Y-116535200D02*
X67462400Y-110845600D01*
X234797600Y-110947200D02*
X234797600Y-115011200D01*
X67462400Y-61671200D02*
X68732400Y-60401200D01*
D17*
X221030800Y-128066800D02*
X220675200Y-128422400D01*
D15*
X123901200Y-140766800D02*
X124714000Y-140766800D01*
X204520800Y-140766800D02*
X202285600Y-140766800D01*
X226110800Y-60401200D02*
X230479600Y-60401200D01*
X68732400Y-140766800D02*
X72085200Y-140766800D01*
X212648800Y-140766800D02*
X205892400Y-140766800D01*
X70053200Y-60401200D02*
X78790800Y-60401200D01*
D17*
X222707200Y-125120400D02*
X222707200Y-126288800D01*
D15*
X234797600Y-101650800D02*
X234797600Y-110947200D01*
X83362800Y-60401200D02*
X92608400Y-60401200D01*
X153060400Y-138785600D02*
X154533600Y-137312400D01*
X67462400Y-102971600D02*
X67462400Y-97180400D01*
X195427600Y-140766800D02*
X195400000Y-140794400D01*
X226618800Y-140766800D02*
X224637600Y-140766800D01*
X234797600Y-70358000D02*
X234797600Y-74980800D01*
X224637600Y-140766800D02*
X219303600Y-140766800D01*
X132435600Y-60401200D02*
X136956800Y-60401200D01*
X234797600Y-124053600D02*
X234797600Y-127965200D01*
X234797600Y-115011200D02*
X234797600Y-124053600D01*
X67462400Y-129692400D02*
X67462400Y-124053600D01*
X234442000Y-140766800D02*
X232257600Y-140766800D01*
X199186800Y-140766800D02*
X195427600Y-140766800D01*
X84632800Y-140766800D02*
X91440000Y-140766800D01*
X137414000Y-140766800D02*
X139395200Y-138785600D01*
X234797600Y-97332800D02*
X234797600Y-101650800D01*
X105511600Y-60401200D02*
X110032800Y-60401200D01*
X83464400Y-140766800D02*
X84632800Y-140766800D01*
X191008000Y-60401200D02*
X199390000Y-60401200D01*
X234797600Y-134416800D02*
X234797600Y-140411200D01*
X97790000Y-140766800D02*
X105105200Y-140766800D01*
X177522800Y-140794400D02*
X175638800Y-140794400D01*
X96723200Y-60401200D02*
X105511600Y-60401200D01*
X78790800Y-60401200D02*
X83362800Y-60401200D01*
X68732400Y-60401200D02*
X70053200Y-60401200D01*
X204114400Y-60401200D02*
X213156800Y-60401200D01*
D17*
X223266000Y-124561600D02*
X222707200Y-125120400D01*
D15*
X67462400Y-124053600D02*
X67462400Y-116535200D01*
X123901200Y-60401200D02*
X132435600Y-60401200D01*
X92608400Y-60401200D02*
X96723200Y-60401200D01*
D17*
%TO.N,IO27{slash}BATT CHARGING*%
X200101200Y-97028000D02*
X200101200Y-103987600D01*
X209804000Y-80822800D02*
X209804000Y-87325200D01*
X209804000Y-87325200D02*
X200101200Y-97028000D01*
X209550000Y-87579200D02*
X209804000Y-87325200D01*
X200101200Y-103987600D02*
X201980800Y-105867200D01*
X209550000Y-87630000D02*
X209550000Y-87579200D01*
%TO.N,IO26{slash}BATT VOLT*%
X188010800Y-81838800D02*
X188010800Y-102463600D01*
X189941200Y-104394000D02*
X198170800Y-104394000D01*
X189331600Y-80518000D02*
X188010800Y-81838800D01*
X188010800Y-102463600D02*
X189941200Y-104394000D01*
X189382400Y-80518000D02*
X189331600Y-80518000D01*
X198170800Y-104394000D02*
X198221600Y-104343200D01*
%TO.N,Net-(R18-Pad1)*%
X215087200Y-115773200D02*
X214680800Y-116179600D01*
X215087200Y-114655600D02*
X215087200Y-115773200D01*
%TO.N,Net-(C10-Pad2)*%
X190855600Y-126172300D02*
X190398400Y-126629500D01*
X190855600Y-122174000D02*
X190855600Y-126172300D01*
%TO.N,Net-(D30-Pad2)*%
X155905200Y-138582400D02*
X161747200Y-138582400D01*
X155143200Y-139344400D02*
X155905200Y-138582400D01*
X161747200Y-138582400D02*
X162661600Y-139496800D01*
X154635200Y-139344400D02*
X155143200Y-139344400D01*
%TO.N,Net-(D32-Pad2)*%
X196342000Y-139547600D02*
X202438000Y-139547600D01*
D14*
%TO.N,IO33{slash}MAINBUTTON*%
X186334400Y-137769600D02*
X193649600Y-137769600D01*
X195681600Y-135737600D02*
X195681600Y-135686800D01*
X182727600Y-134162800D02*
X186334400Y-137769600D01*
X193649600Y-137769600D02*
X195681600Y-135737600D01*
X157784800Y-134152700D02*
X157794900Y-134162800D01*
X200710800Y-110744000D02*
X199136000Y-110744000D01*
X157794900Y-134162800D02*
X182727600Y-134162800D01*
X199136000Y-110744000D02*
X198272400Y-109880400D01*
D18*
%TO.N,3.3V AFTER RELAY*%
X189687200Y-122631200D02*
X189585600Y-122732800D01*
D21*
X209397600Y-114757200D02*
X208788000Y-115366800D01*
X207010000Y-115366800D02*
X204724000Y-117652800D01*
X204724000Y-117652800D02*
X204724000Y-118973600D01*
D18*
X189585600Y-122732800D02*
X189585600Y-130352800D01*
D21*
X191465200Y-132232400D02*
X191465200Y-133604000D01*
X204724000Y-118973600D02*
X191465200Y-132232400D01*
X191465200Y-133604000D02*
X190347600Y-134721600D01*
X208788000Y-115366800D02*
X207010000Y-115366800D01*
D18*
X189585600Y-130352800D02*
X191465200Y-132232400D01*
%TD*%
%TA.AperFunction,Conductor*%
%TO.N,GND*%
G36*
X141922008Y-139814102D02*
G01*
X141968501Y-139867758D01*
X141978605Y-139938032D01*
X141959739Y-139988448D01*
X141913438Y-140060156D01*
X141907942Y-140070759D01*
X141833398Y-140255726D01*
X141830004Y-140267184D01*
X141791502Y-140464342D01*
X141790425Y-140473205D01*
X141790359Y-140475914D01*
X141790359Y-140605299D01*
X141794834Y-140620538D01*
X141796224Y-140621743D01*
X141803907Y-140623414D01*
X143988244Y-140623414D01*
X144003483Y-140618939D01*
X144004688Y-140617549D01*
X144006359Y-140609866D01*
X144006359Y-140527582D01*
X144006074Y-140521606D01*
X143991888Y-140372920D01*
X143989629Y-140361186D01*
X143933487Y-140169815D01*
X143929057Y-140158739D01*
X143835863Y-139977792D01*
X143822454Y-139908073D01*
X143848867Y-139842173D01*
X143906716Y-139801014D01*
X143947879Y-139794100D01*
X150493969Y-139794100D01*
X150562090Y-139814102D01*
X150608583Y-139867758D01*
X150618687Y-139938032D01*
X150599821Y-139988448D01*
X150553520Y-140060156D01*
X150548024Y-140070759D01*
X150473480Y-140255726D01*
X150470086Y-140267184D01*
X150431584Y-140464342D01*
X150430507Y-140473205D01*
X150430441Y-140475914D01*
X150430441Y-140605299D01*
X150434916Y-140620538D01*
X150436306Y-140621743D01*
X150443989Y-140623414D01*
X151666441Y-140623414D01*
X151734562Y-140643416D01*
X151781055Y-140697072D01*
X151792441Y-140749414D01*
X151792441Y-141005414D01*
X151772439Y-141073535D01*
X151718783Y-141120028D01*
X151666441Y-141131414D01*
X150448556Y-141131414D01*
X150433317Y-141135889D01*
X150432112Y-141137279D01*
X150430441Y-141144962D01*
X150430441Y-141227246D01*
X150430726Y-141233222D01*
X150444912Y-141381908D01*
X150447171Y-141393642D01*
X150503313Y-141585013D01*
X150507743Y-141596089D01*
X150599060Y-141773392D01*
X150605510Y-141783438D01*
X150728703Y-141940271D01*
X150736940Y-141948920D01*
X150887564Y-142079626D01*
X150897288Y-142086561D01*
X150921849Y-142100770D01*
X150970797Y-142152195D01*
X150984173Y-142221920D01*
X150957729Y-142287808D01*
X150899861Y-142328940D01*
X150858754Y-142335834D01*
X143575777Y-142335834D01*
X143507656Y-142315832D01*
X143461163Y-142262176D01*
X143451059Y-142191902D01*
X143480553Y-142127322D01*
X143502877Y-142107064D01*
X143620756Y-142023446D01*
X143629784Y-142015653D01*
X143767701Y-141871583D01*
X143775097Y-141862218D01*
X143883280Y-141694673D01*
X143888776Y-141684069D01*
X143963320Y-141499102D01*
X143966714Y-141487644D01*
X144005216Y-141290486D01*
X144006293Y-141281623D01*
X144006359Y-141278914D01*
X144006359Y-141149529D01*
X144001884Y-141134290D01*
X144000494Y-141133085D01*
X143992811Y-141131414D01*
X141808474Y-141131414D01*
X141793235Y-141135889D01*
X141792030Y-141137279D01*
X141790359Y-141144962D01*
X141790359Y-141227246D01*
X141790644Y-141233222D01*
X141804830Y-141381908D01*
X141807089Y-141393642D01*
X141863231Y-141585013D01*
X141867661Y-141596089D01*
X141958978Y-141773392D01*
X141965428Y-141783438D01*
X142088621Y-141940271D01*
X142096858Y-141948920D01*
X142247482Y-142079626D01*
X142257206Y-142086561D01*
X142281767Y-142100770D01*
X142330715Y-142152195D01*
X142344091Y-142221920D01*
X142317647Y-142287808D01*
X142259779Y-142328940D01*
X142218672Y-142335834D01*
X141989080Y-142335834D01*
X141920959Y-142315832D01*
X141874466Y-142262176D01*
X141871187Y-142254300D01*
X141869762Y-142250520D01*
X141856047Y-142214159D01*
X141835764Y-142177295D01*
X141782023Y-142079626D01*
X141752028Y-142025112D01*
X141622244Y-141852732D01*
X141517696Y-141748661D01*
X141472495Y-141703666D01*
X141472491Y-141703663D01*
X141469320Y-141700506D01*
X141465732Y-141697830D01*
X141299945Y-141574195D01*
X141299941Y-141574192D01*
X141296348Y-141571513D01*
X141106826Y-141468361D01*
X140904589Y-141393136D01*
X140693726Y-141347361D01*
X140518764Y-141334842D01*
X140506839Y-141333414D01*
X140491054Y-141330754D01*
X140486183Y-141330693D01*
X140486178Y-141330693D01*
X140484877Y-141330677D01*
X140478502Y-141330598D01*
X140473683Y-141331287D01*
X140473681Y-141331287D01*
X140450792Y-141334559D01*
X140432962Y-141335827D01*
X138575398Y-141335827D01*
X138507277Y-141315825D01*
X138460784Y-141262169D01*
X138450680Y-141191895D01*
X138480174Y-141127315D01*
X138486303Y-141120732D01*
X139776029Y-139831005D01*
X139838341Y-139796980D01*
X139865124Y-139794100D01*
X141853887Y-139794100D01*
X141922008Y-139814102D01*
G37*
%TD.AperFunction*%
%TA.AperFunction,Conductor*%
G36*
X232973395Y-61429702D02*
G01*
X232994369Y-61446604D01*
X233752195Y-62204429D01*
X233786220Y-62266742D01*
X233789100Y-62293525D01*
X233789100Y-139632300D01*
X233769098Y-139700421D01*
X233715442Y-139746914D01*
X233663100Y-139758300D01*
X225107524Y-139758300D01*
X225039403Y-139738298D01*
X225018429Y-139721395D01*
X224260605Y-138963571D01*
X224226579Y-138901259D01*
X224223700Y-138874476D01*
X224223700Y-138532631D01*
X224223014Y-138525627D01*
X224209881Y-138391701D01*
X224209280Y-138385567D01*
X224202623Y-138363516D01*
X224182267Y-138296096D01*
X224152116Y-138196231D01*
X224059266Y-138021604D01*
X223986897Y-137932871D01*
X223938160Y-137873113D01*
X223938157Y-137873110D01*
X223934265Y-137868338D01*
X223927924Y-137863092D01*
X223786625Y-137746199D01*
X223786621Y-137746197D01*
X223781875Y-137742270D01*
X223607901Y-137648202D01*
X223418968Y-137589718D01*
X223412843Y-137589074D01*
X223412842Y-137589074D01*
X223228404Y-137569689D01*
X223228402Y-137569689D01*
X223222275Y-137569045D01*
X223139776Y-137576553D01*
X223031451Y-137586411D01*
X223031448Y-137586412D01*
X223025312Y-137586970D01*
X223019406Y-137588708D01*
X223019402Y-137588709D01*
X222944768Y-137610675D01*
X222835581Y-137642810D01*
X222830123Y-137645663D01*
X222830119Y-137645665D01*
X222763757Y-137680359D01*
X222660310Y-137734440D01*
X222506175Y-137858368D01*
X222379046Y-138009874D01*
X222376079Y-138015272D01*
X222376075Y-138015277D01*
X222297295Y-138158580D01*
X222283767Y-138183187D01*
X222281906Y-138189054D01*
X222281905Y-138189056D01*
X222240082Y-138320900D01*
X222223965Y-138371706D01*
X222206700Y-138525627D01*
X222206700Y-139282557D01*
X222205963Y-139296164D01*
X222201876Y-139333788D01*
X222202413Y-139339923D01*
X222206250Y-139383788D01*
X222206579Y-139388614D01*
X222206700Y-139391086D01*
X222206700Y-139394169D01*
X222207001Y-139397237D01*
X222210890Y-139436906D01*
X222211012Y-139438219D01*
X222219113Y-139530813D01*
X222220600Y-139535932D01*
X222221120Y-139541233D01*
X222222900Y-139547128D01*
X222222900Y-139547129D01*
X222237619Y-139595882D01*
X222238160Y-139666877D01*
X222200232Y-139726894D01*
X222135878Y-139756877D01*
X222116997Y-139758300D01*
X203369826Y-139758300D01*
X203301705Y-139738298D01*
X203255212Y-139684642D01*
X203245052Y-139614765D01*
X203251299Y-139570317D01*
X203251452Y-139559338D01*
X203251561Y-139551562D01*
X203251561Y-139551557D01*
X203251616Y-139547600D01*
X203231397Y-139367345D01*
X203229080Y-139360691D01*
X203174064Y-139202706D01*
X203174062Y-139202703D01*
X203171745Y-139196048D01*
X203075626Y-139042224D01*
X202960872Y-138926666D01*
X202952778Y-138918515D01*
X202952774Y-138918512D01*
X202947815Y-138913518D01*
X202936697Y-138906462D01*
X202886294Y-138874476D01*
X202794666Y-138816327D01*
X202765463Y-138805928D01*
X202630425Y-138757843D01*
X202630420Y-138757842D01*
X202623790Y-138755481D01*
X202616802Y-138754648D01*
X202616799Y-138754647D01*
X202493698Y-138739968D01*
X202443680Y-138734004D01*
X202436677Y-138734740D01*
X202436676Y-138734740D01*
X202270288Y-138752228D01*
X202270286Y-138752229D01*
X202263288Y-138752964D01*
X202091579Y-138811418D01*
X201955039Y-138895419D01*
X201889019Y-138914100D01*
X196889338Y-138914100D01*
X196821824Y-138894485D01*
X196788583Y-138873390D01*
X196698666Y-138816327D01*
X196669463Y-138805928D01*
X196534425Y-138757843D01*
X196534420Y-138757842D01*
X196527790Y-138755481D01*
X196520802Y-138754648D01*
X196520799Y-138754647D01*
X196397698Y-138739968D01*
X196347680Y-138734004D01*
X196340677Y-138734740D01*
X196340676Y-138734740D01*
X196174288Y-138752228D01*
X196174286Y-138752229D01*
X196167288Y-138752964D01*
X195995579Y-138811418D01*
X195989575Y-138815112D01*
X195847095Y-138902766D01*
X195847092Y-138902768D01*
X195841088Y-138906462D01*
X195836053Y-138911393D01*
X195836050Y-138911395D01*
X195820456Y-138926666D01*
X195711493Y-139033371D01*
X195613235Y-139185838D01*
X195610826Y-139192458D01*
X195610824Y-139192461D01*
X195578032Y-139282557D01*
X195551197Y-139356285D01*
X195528463Y-139536240D01*
X195530088Y-139552812D01*
X195536389Y-139617081D01*
X195523129Y-139686829D01*
X195474266Y-139738335D01*
X195421969Y-139754897D01*
X195419502Y-139755113D01*
X195388208Y-139757850D01*
X195383384Y-139758179D01*
X195380913Y-139758300D01*
X195377831Y-139758300D01*
X195355363Y-139760503D01*
X195335089Y-139762491D01*
X195333774Y-139762613D01*
X195301513Y-139765436D01*
X195241187Y-139770713D01*
X195236068Y-139772200D01*
X195230767Y-139772720D01*
X195224866Y-139774502D01*
X195224864Y-139774502D01*
X195220542Y-139775807D01*
X195204924Y-139780522D01*
X195168508Y-139785900D01*
X166562724Y-139785900D01*
X166494603Y-139765898D01*
X166473629Y-139748995D01*
X163367655Y-136643021D01*
X163358553Y-136632878D01*
X163338697Y-136608182D01*
X163334832Y-136603375D01*
X163296378Y-136571108D01*
X163292731Y-136567928D01*
X163290919Y-136566285D01*
X163288725Y-136564091D01*
X163255451Y-136536758D01*
X163254653Y-136536096D01*
X163183326Y-136476246D01*
X163178656Y-136473678D01*
X163174539Y-136470297D01*
X163099243Y-136429924D01*
X163092714Y-136426423D01*
X163091555Y-136425794D01*
X163015419Y-136383938D01*
X163015411Y-136383935D01*
X163010013Y-136380967D01*
X163004931Y-136379355D01*
X163000237Y-136376838D01*
X162911269Y-136349638D01*
X162910241Y-136349318D01*
X162821494Y-136321165D01*
X162816198Y-136320571D01*
X162811102Y-136319013D01*
X162718543Y-136309610D01*
X162717407Y-136309489D01*
X162683792Y-136305719D01*
X162671070Y-136304292D01*
X162671066Y-136304292D01*
X162667573Y-136303900D01*
X162664046Y-136303900D01*
X162663061Y-136303845D01*
X162657381Y-136303398D01*
X162627975Y-136300411D01*
X162620463Y-136299648D01*
X162620461Y-136299648D01*
X162614338Y-136299026D01*
X162572059Y-136303023D01*
X162568691Y-136303341D01*
X162556833Y-136303900D01*
X154595440Y-136303900D01*
X154581832Y-136303163D01*
X154550336Y-136299741D01*
X154550332Y-136299741D01*
X154544211Y-136299076D01*
X154527100Y-136300573D01*
X154494209Y-136303450D01*
X154489384Y-136303779D01*
X154486913Y-136303900D01*
X154483831Y-136303900D01*
X154461363Y-136306103D01*
X154441089Y-136308091D01*
X154439774Y-136308213D01*
X154407513Y-136311036D01*
X154347187Y-136316313D01*
X154342068Y-136317800D01*
X154336767Y-136318320D01*
X154330862Y-136320103D01*
X154330861Y-136320103D01*
X154311507Y-136325946D01*
X154247794Y-136345182D01*
X154246654Y-136345520D01*
X154157263Y-136371491D01*
X154152529Y-136373945D01*
X154147431Y-136375484D01*
X154141987Y-136378378D01*
X154141986Y-136378379D01*
X154065431Y-136419084D01*
X154064263Y-136419698D01*
X154024225Y-136440452D01*
X153981674Y-136462508D01*
X153977511Y-136465831D01*
X153972804Y-136468334D01*
X153968030Y-136472228D01*
X153968028Y-136472229D01*
X153900705Y-136527137D01*
X153899760Y-136527900D01*
X153860627Y-136559139D01*
X153858136Y-136561630D01*
X153857409Y-136562280D01*
X153853063Y-136565992D01*
X153845600Y-136572079D01*
X153819538Y-136593335D01*
X153815615Y-136598077D01*
X153815613Y-136598079D01*
X153790303Y-136628673D01*
X153782313Y-136637453D01*
X152824553Y-137595213D01*
X152762241Y-137629239D01*
X152691426Y-137624174D01*
X152634590Y-137581627D01*
X152609779Y-137515107D01*
X152611794Y-137481968D01*
X152645298Y-137310401D01*
X152646375Y-137301537D01*
X152646441Y-137298828D01*
X152646441Y-136969443D01*
X152641966Y-136954204D01*
X152640576Y-136952999D01*
X152632893Y-136951328D01*
X151410441Y-136951328D01*
X151342320Y-136931326D01*
X151295827Y-136877670D01*
X151284441Y-136825328D01*
X151284441Y-136425213D01*
X151792441Y-136425213D01*
X151796916Y-136440452D01*
X151798306Y-136441657D01*
X151805989Y-136443328D01*
X152628326Y-136443328D01*
X152643565Y-136438853D01*
X152644770Y-136437463D01*
X152646441Y-136429780D01*
X152646441Y-136147496D01*
X152646156Y-136141520D01*
X152631970Y-135992834D01*
X152629711Y-135981100D01*
X152573569Y-135789729D01*
X152569139Y-135778653D01*
X152477822Y-135601350D01*
X152471372Y-135591304D01*
X152348179Y-135434471D01*
X152339942Y-135425822D01*
X152189318Y-135295116D01*
X152179594Y-135288181D01*
X152006974Y-135188318D01*
X151996110Y-135183344D01*
X151807714Y-135117921D01*
X151806725Y-135117680D01*
X151796433Y-135119148D01*
X151792441Y-135132713D01*
X151792441Y-136425213D01*
X151284441Y-136425213D01*
X151284441Y-135136926D01*
X151280468Y-135123395D01*
X151271042Y-135122040D01*
X151181904Y-135143522D01*
X151170609Y-135147411D01*
X150989059Y-135229957D01*
X150978717Y-135235904D01*
X150816044Y-135351296D01*
X150807016Y-135359089D01*
X150669099Y-135503159D01*
X150661703Y-135512524D01*
X150553520Y-135680069D01*
X150548024Y-135690673D01*
X150473480Y-135875640D01*
X150470086Y-135887098D01*
X150431584Y-136084256D01*
X150430507Y-136093119D01*
X150430441Y-136095828D01*
X150430441Y-136232452D01*
X150410439Y-136300573D01*
X150356783Y-136347066D01*
X150286509Y-136357170D01*
X150276956Y-136355418D01*
X150209726Y-136340391D01*
X150209727Y-136340391D01*
X150204680Y-136339263D01*
X150198957Y-136338943D01*
X150061821Y-136338943D01*
X149922978Y-136354026D01*
X149746190Y-136413522D01*
X149586302Y-136509592D01*
X149581342Y-136514283D01*
X149581340Y-136514284D01*
X149487130Y-136603375D01*
X149450773Y-136637756D01*
X149345927Y-136792032D01*
X149276656Y-136965223D01*
X149246191Y-137149249D01*
X149246548Y-137156066D01*
X149246548Y-137156070D01*
X149251322Y-137247160D01*
X149255953Y-137335524D01*
X149257764Y-137342097D01*
X149257764Y-137342100D01*
X149283635Y-137436024D01*
X149305487Y-137515358D01*
X149344354Y-137589074D01*
X149346073Y-137592335D01*
X149360150Y-137661921D01*
X149334372Y-137728073D01*
X149276921Y-137769786D01*
X149234616Y-137777100D01*
X145207102Y-137777100D01*
X145138981Y-137757098D01*
X145092488Y-137703442D01*
X145082384Y-137633168D01*
X145092114Y-137603374D01*
X145090873Y-137602878D01*
X145099373Y-137581627D01*
X145160144Y-137429687D01*
X145176860Y-137328711D01*
X145189494Y-137252399D01*
X145189494Y-137252395D01*
X145190609Y-137245661D01*
X145185557Y-137149249D01*
X145181204Y-137066199D01*
X145180847Y-137059386D01*
X145154911Y-136965223D01*
X145133126Y-136886134D01*
X145131313Y-136879552D01*
X145044317Y-136714551D01*
X144923920Y-136572079D01*
X144911851Y-136562851D01*
X144809495Y-136484595D01*
X144775737Y-136458785D01*
X144769557Y-136455903D01*
X144769555Y-136455902D01*
X144612859Y-136382833D01*
X144612856Y-136382832D01*
X144606682Y-136379953D01*
X144600034Y-136378467D01*
X144600031Y-136378466D01*
X144429687Y-136340390D01*
X144429684Y-136340390D01*
X144424644Y-136339263D01*
X144418921Y-136338943D01*
X144281785Y-136338943D01*
X144278391Y-136339312D01*
X144278386Y-136339312D01*
X144145966Y-136353697D01*
X144076084Y-136341169D01*
X144024068Y-136292848D01*
X144006359Y-136228434D01*
X144006359Y-136147496D01*
X144006074Y-136141520D01*
X143991888Y-135992834D01*
X143989629Y-135981100D01*
X143933487Y-135789729D01*
X143929057Y-135778653D01*
X143837740Y-135601350D01*
X143831290Y-135591304D01*
X143708097Y-135434471D01*
X143699860Y-135425822D01*
X143549236Y-135295116D01*
X143539512Y-135288181D01*
X143366892Y-135188318D01*
X143356028Y-135183344D01*
X143167632Y-135117921D01*
X143166643Y-135117680D01*
X143156351Y-135119148D01*
X143152359Y-135132713D01*
X143152359Y-136825328D01*
X143132357Y-136893449D01*
X143078701Y-136939942D01*
X143026359Y-136951328D01*
X141808474Y-136951328D01*
X141793235Y-136955803D01*
X141792030Y-136957193D01*
X141790359Y-136964876D01*
X141790359Y-137247160D01*
X141790644Y-137253136D01*
X141804830Y-137401822D01*
X141807089Y-137413556D01*
X141864917Y-137610675D01*
X141863626Y-137611054D01*
X141869708Y-137674990D01*
X141837153Y-137738083D01*
X141775655Y-137773559D01*
X141745994Y-137777100D01*
X139457043Y-137777100D01*
X139443436Y-137776363D01*
X139411938Y-137772941D01*
X139411933Y-137772941D01*
X139405812Y-137772276D01*
X139379562Y-137774573D01*
X139355812Y-137776650D01*
X139350986Y-137776979D01*
X139348514Y-137777100D01*
X139345431Y-137777100D01*
X139333462Y-137778274D01*
X139302694Y-137781290D01*
X139301381Y-137781412D01*
X139257116Y-137785285D01*
X139208787Y-137789513D01*
X139203668Y-137791000D01*
X139198367Y-137791520D01*
X139109366Y-137818391D01*
X139108233Y-137818726D01*
X139024786Y-137842970D01*
X139024782Y-137842972D01*
X139018864Y-137844691D01*
X139014132Y-137847144D01*
X139009031Y-137848684D01*
X139003588Y-137851578D01*
X138926940Y-137892331D01*
X138925774Y-137892943D01*
X138848747Y-137932871D01*
X138843274Y-137935708D01*
X138839111Y-137939031D01*
X138834404Y-137941534D01*
X138762282Y-138000355D01*
X138761426Y-138001046D01*
X138722227Y-138032338D01*
X138719723Y-138034842D01*
X138719005Y-138035484D01*
X138714672Y-138039185D01*
X138681138Y-138066535D01*
X138677211Y-138071282D01*
X138677209Y-138071284D01*
X138651913Y-138101862D01*
X138643923Y-138110642D01*
X137827900Y-138926666D01*
X137033171Y-139721395D01*
X136970859Y-139755420D01*
X136944076Y-139758300D01*
X69202326Y-139758300D01*
X69134205Y-139738298D01*
X69113231Y-139721396D01*
X68507805Y-139115971D01*
X68473780Y-139053658D01*
X68470900Y-139026875D01*
X68470900Y-136425213D01*
X141790359Y-136425213D01*
X141794834Y-136440452D01*
X141796224Y-136441657D01*
X141803907Y-136443328D01*
X142626244Y-136443328D01*
X142641483Y-136438853D01*
X142642688Y-136437463D01*
X142644359Y-136429780D01*
X142644359Y-135136926D01*
X142640386Y-135123395D01*
X142630960Y-135122040D01*
X142541822Y-135143522D01*
X142530527Y-135147411D01*
X142348977Y-135229957D01*
X142338635Y-135235904D01*
X142175962Y-135351296D01*
X142166934Y-135359089D01*
X142029017Y-135503159D01*
X142021621Y-135512524D01*
X141913438Y-135680069D01*
X141907942Y-135690673D01*
X141833398Y-135875640D01*
X141830004Y-135887098D01*
X141791502Y-136084256D01*
X141790425Y-136093119D01*
X141790359Y-136095828D01*
X141790359Y-136425213D01*
X68470900Y-136425213D01*
X68470900Y-130331023D01*
X74102295Y-130331023D01*
X74102445Y-130334204D01*
X74118409Y-130672706D01*
X74120472Y-130716456D01*
X74120943Y-130719609D01*
X74120944Y-130719617D01*
X74139301Y-130842446D01*
X74177506Y-131098079D01*
X74178292Y-131101161D01*
X74178292Y-131101163D01*
X74268015Y-131453160D01*
X74272813Y-131471985D01*
X74405418Y-131834346D01*
X74437919Y-131901279D01*
X74554736Y-132141854D01*
X74573963Y-132181451D01*
X74575635Y-132184158D01*
X74575636Y-132184160D01*
X74771147Y-132500717D01*
X74776723Y-132509746D01*
X74824806Y-132572409D01*
X75007470Y-132810462D01*
X75011620Y-132815871D01*
X75013802Y-132818187D01*
X75013811Y-132818197D01*
X75227034Y-133044462D01*
X75276251Y-133096690D01*
X75278656Y-133098774D01*
X75278662Y-133098779D01*
X75476058Y-133269768D01*
X75567906Y-133349329D01*
X75883599Y-133571202D01*
X75923943Y-133593842D01*
X76126745Y-133707649D01*
X76220097Y-133760036D01*
X76223011Y-133761303D01*
X76223015Y-133761305D01*
X76313542Y-133800667D01*
X76573955Y-133913898D01*
X76719157Y-133960238D01*
X76938507Y-134030242D01*
X76938515Y-134030244D01*
X76941551Y-134031213D01*
X77122107Y-134069262D01*
X77316001Y-134110122D01*
X77316006Y-134110123D01*
X77319120Y-134110779D01*
X77702797Y-134151782D01*
X77705984Y-134151799D01*
X77705990Y-134151799D01*
X77881209Y-134152716D01*
X78088653Y-134153802D01*
X78234884Y-134139722D01*
X78469573Y-134117124D01*
X78469578Y-134117123D01*
X78472738Y-134116819D01*
X78475857Y-134116196D01*
X78475862Y-134116195D01*
X78839159Y-134043601D01*
X78851120Y-134041211D01*
X79179793Y-133940098D01*
X79216882Y-133928688D01*
X79216885Y-133928687D01*
X79219924Y-133927752D01*
X79222852Y-133926515D01*
X79222858Y-133926513D01*
X79447602Y-133831577D01*
X79575374Y-133777604D01*
X79578177Y-133776070D01*
X79578182Y-133776067D01*
X79779020Y-133666111D01*
X79913831Y-133592304D01*
X80231829Y-133373750D01*
X80234268Y-133371682D01*
X80234274Y-133371677D01*
X80523674Y-133126249D01*
X80523682Y-133126241D01*
X80526114Y-133124179D01*
X80528322Y-133121884D01*
X80528330Y-133121877D01*
X80791456Y-132848448D01*
X80791458Y-132848445D01*
X80793671Y-132846146D01*
X80824549Y-132806766D01*
X81029787Y-132545016D01*
X81029790Y-132545011D01*
X81031761Y-132542498D01*
X81237948Y-132216343D01*
X81239368Y-132213495D01*
X81239373Y-132213486D01*
X81408698Y-131873871D01*
X81410118Y-131871023D01*
X81546511Y-131510071D01*
X81645728Y-131137183D01*
X81706755Y-130756178D01*
X81709046Y-130716456D01*
X81720337Y-130520626D01*
X81728967Y-130370956D01*
X81729060Y-130344334D01*
X81727530Y-130314131D01*
X81709699Y-129962140D01*
X81709698Y-129962135D01*
X81709538Y-129958967D01*
X81666668Y-129678810D01*
X81651656Y-129580705D01*
X81651654Y-129580696D01*
X81651172Y-129577545D01*
X81564809Y-129243604D01*
X81555357Y-129207054D01*
X81555354Y-129207046D01*
X81554560Y-129203974D01*
X81551001Y-129194351D01*
X81481017Y-129005161D01*
X81420691Y-128842078D01*
X81414702Y-128829853D01*
X81252337Y-128498423D01*
X81252334Y-128498417D01*
X81250936Y-128495564D01*
X81148984Y-128331771D01*
X81048718Y-128170687D01*
X81048710Y-128170676D01*
X81047031Y-128167978D01*
X80915300Y-127997538D01*
X80813019Y-127865201D01*
X80813014Y-127865196D01*
X80811067Y-127862676D01*
X80703828Y-127749669D01*
X80547656Y-127585098D01*
X80547653Y-127585096D01*
X80545457Y-127582781D01*
X80511205Y-127553320D01*
X80255345Y-127333246D01*
X80255344Y-127333245D01*
X80252922Y-127331162D01*
X80130538Y-127245785D01*
X79939071Y-127112215D01*
X79939063Y-127112210D01*
X79936457Y-127110392D01*
X79927086Y-127105176D01*
X79602087Y-126924284D01*
X79602085Y-126924283D01*
X79599302Y-126922734D01*
X79596382Y-126921476D01*
X79596377Y-126921474D01*
X79247843Y-126771371D01*
X79247833Y-126771367D01*
X79244909Y-126770108D01*
X78876906Y-126654078D01*
X78539411Y-126584186D01*
X78502186Y-126576477D01*
X78502183Y-126576477D01*
X78499061Y-126575830D01*
X78190897Y-126543984D01*
X78118400Y-126536492D01*
X78118397Y-126536492D01*
X78115244Y-126536166D01*
X78112078Y-126536160D01*
X78112069Y-126536160D01*
X77921596Y-126535828D01*
X77729383Y-126535493D01*
X77549965Y-126553401D01*
X77348613Y-126573498D01*
X77348609Y-126573499D01*
X77345429Y-126573816D01*
X77342289Y-126574455D01*
X77342288Y-126574455D01*
X76970447Y-126650107D01*
X76970440Y-126650109D01*
X76967313Y-126650745D01*
X76598908Y-126765490D01*
X76595968Y-126766744D01*
X76246921Y-126915625D01*
X76246917Y-126915627D01*
X76243984Y-126916878D01*
X76241197Y-126918417D01*
X76241196Y-126918417D01*
X76235658Y-126921474D01*
X75906176Y-127103358D01*
X75903555Y-127105173D01*
X75903550Y-127105176D01*
X75663378Y-127271479D01*
X75588942Y-127323021D01*
X75295531Y-127573619D01*
X75028946Y-127852584D01*
X75026989Y-127855098D01*
X75026988Y-127855099D01*
X74923415Y-127988145D01*
X74791917Y-128157061D01*
X74790221Y-128159765D01*
X74790218Y-128159769D01*
X74768093Y-128195039D01*
X74586870Y-128483933D01*
X74415906Y-128829853D01*
X74414792Y-128832834D01*
X74414791Y-128832835D01*
X74386277Y-128909099D01*
X74280774Y-129191278D01*
X74182859Y-129564510D01*
X74165014Y-129678468D01*
X74128807Y-129909680D01*
X74123162Y-129945726D01*
X74122991Y-129948888D01*
X74122990Y-129948895D01*
X74109055Y-130206199D01*
X74103157Y-130315102D01*
X74102295Y-130331023D01*
X68470900Y-130331023D01*
X68470900Y-70831023D01*
X74102295Y-70831023D01*
X74102445Y-70834204D01*
X74117588Y-71155292D01*
X74120472Y-71216456D01*
X74177506Y-71598079D01*
X74178292Y-71601161D01*
X74178292Y-71601163D01*
X74212938Y-71737083D01*
X74272813Y-71971985D01*
X74405418Y-72334346D01*
X74573963Y-72681451D01*
X74575635Y-72684158D01*
X74575636Y-72684160D01*
X74764043Y-72989215D01*
X74776723Y-73009746D01*
X74803787Y-73045016D01*
X74992844Y-73291401D01*
X75011620Y-73315871D01*
X75013802Y-73318187D01*
X75013811Y-73318197D01*
X75266911Y-73586779D01*
X75276251Y-73596690D01*
X75278656Y-73598774D01*
X75278662Y-73598779D01*
X75565499Y-73847244D01*
X75567906Y-73849329D01*
X75883599Y-74071202D01*
X76220097Y-74260036D01*
X76223011Y-74261303D01*
X76223015Y-74261305D01*
X76367958Y-74324328D01*
X76573955Y-74413898D01*
X76749094Y-74469792D01*
X76938507Y-74530242D01*
X76938515Y-74530244D01*
X76941551Y-74531213D01*
X77146887Y-74574484D01*
X77316001Y-74610122D01*
X77316006Y-74610123D01*
X77319120Y-74610779D01*
X77702797Y-74651782D01*
X77705984Y-74651799D01*
X77705990Y-74651799D01*
X77881209Y-74652716D01*
X78088653Y-74653802D01*
X78234884Y-74639722D01*
X78469573Y-74617124D01*
X78469578Y-74617123D01*
X78472738Y-74616819D01*
X78475857Y-74616196D01*
X78475862Y-74616195D01*
X78847992Y-74541836D01*
X78847991Y-74541836D01*
X78851120Y-74541211D01*
X79135099Y-74453848D01*
X79216882Y-74428688D01*
X79216885Y-74428687D01*
X79219924Y-74427752D01*
X79222852Y-74426515D01*
X79222858Y-74426513D01*
X79382753Y-74358970D01*
X79575374Y-74277604D01*
X79578177Y-74276070D01*
X79578182Y-74276067D01*
X79724037Y-74196213D01*
X79913831Y-74092304D01*
X80231829Y-73873750D01*
X80234268Y-73871682D01*
X80234274Y-73871677D01*
X80523674Y-73626249D01*
X80523682Y-73626241D01*
X80526114Y-73624179D01*
X80528322Y-73621884D01*
X80528330Y-73621877D01*
X80791456Y-73348448D01*
X80791458Y-73348445D01*
X80793671Y-73346146D01*
X80819393Y-73313342D01*
X81029787Y-73045016D01*
X81029790Y-73045011D01*
X81031761Y-73042498D01*
X81237948Y-72716343D01*
X81239368Y-72713495D01*
X81239373Y-72713486D01*
X81408698Y-72373871D01*
X81410118Y-72371023D01*
X81546511Y-72010071D01*
X81645728Y-71637183D01*
X81706755Y-71256178D01*
X81709046Y-71216456D01*
X81720352Y-71020360D01*
X81728967Y-70870956D01*
X81729060Y-70844334D01*
X81727194Y-70807496D01*
X81709699Y-70462140D01*
X81709698Y-70462135D01*
X81709538Y-70458967D01*
X81673145Y-70221138D01*
X81651656Y-70080705D01*
X81651654Y-70080696D01*
X81651172Y-70077545D01*
X81593368Y-69854032D01*
X81555357Y-69707054D01*
X81555354Y-69707046D01*
X81554560Y-69703974D01*
X81551001Y-69694351D01*
X81475209Y-69489461D01*
X81420691Y-69342078D01*
X81414702Y-69329853D01*
X81252337Y-68998423D01*
X81252334Y-68998417D01*
X81250936Y-68995564D01*
X81114321Y-68776083D01*
X81048718Y-68670687D01*
X81048710Y-68670676D01*
X81047031Y-68667978D01*
X80895593Y-68472040D01*
X80813019Y-68365201D01*
X80813014Y-68365196D01*
X80811067Y-68362676D01*
X80630306Y-68172193D01*
X80547656Y-68085098D01*
X80547653Y-68085096D01*
X80545457Y-68082781D01*
X80532149Y-68071334D01*
X80255345Y-67833246D01*
X80255344Y-67833245D01*
X80252922Y-67831162D01*
X80130538Y-67745785D01*
X79939071Y-67612215D01*
X79939063Y-67612210D01*
X79936457Y-67610392D01*
X79933667Y-67608839D01*
X79707119Y-67482744D01*
X81640936Y-67482744D01*
X81654861Y-67695206D01*
X81656282Y-67700802D01*
X81656283Y-67700807D01*
X81681107Y-67798549D01*
X81707272Y-67901572D01*
X81709689Y-67906815D01*
X81746389Y-67986423D01*
X81796411Y-68094931D01*
X81919296Y-68268809D01*
X82071809Y-68417381D01*
X82076605Y-68420586D01*
X82076608Y-68420588D01*
X82126504Y-68453927D01*
X82248843Y-68535671D01*
X82254146Y-68537949D01*
X82254149Y-68537951D01*
X82439163Y-68617439D01*
X82444470Y-68619719D01*
X82520316Y-68636881D01*
X82646501Y-68665434D01*
X82646506Y-68665435D01*
X82652138Y-68666709D01*
X82657909Y-68666936D01*
X82657911Y-68666936D01*
X82719252Y-68669346D01*
X82864891Y-68675069D01*
X82870600Y-68674241D01*
X82870604Y-68674241D01*
X83069890Y-68645345D01*
X83069894Y-68645344D01*
X83075605Y-68644516D01*
X83277223Y-68576076D01*
X83462993Y-68472040D01*
X83626693Y-68335893D01*
X83762840Y-68172193D01*
X83866876Y-67986423D01*
X83935316Y-67784805D01*
X83947496Y-67700807D01*
X83965337Y-67577761D01*
X83965337Y-67577759D01*
X83965869Y-67574091D01*
X83967463Y-67513200D01*
X83947981Y-67301176D01*
X83937998Y-67265779D01*
X83891754Y-67101811D01*
X83891753Y-67101809D01*
X83890186Y-67096252D01*
X83881188Y-67078004D01*
X83872632Y-67060654D01*
X84601937Y-67060654D01*
X84602628Y-67065467D01*
X84602628Y-67065471D01*
X84605888Y-67088185D01*
X84607166Y-67106084D01*
X84607203Y-87459676D01*
X84607286Y-133738130D01*
X84607286Y-134007341D01*
X84605546Y-134028210D01*
X84603258Y-134041836D01*
X84602206Y-134048097D01*
X84602057Y-134060650D01*
X84602748Y-134065463D01*
X84602748Y-134065468D01*
X84604206Y-134075625D01*
X84605161Y-134084501D01*
X84615991Y-134235358D01*
X84618895Y-134275818D01*
X84619851Y-134280209D01*
X84619852Y-134280215D01*
X84649703Y-134417303D01*
X84664792Y-134486601D01*
X84669872Y-134500215D01*
X84736483Y-134678734D01*
X84740206Y-134688712D01*
X84843602Y-134878041D01*
X84972880Y-135050735D01*
X85016944Y-135094805D01*
X85066434Y-135144302D01*
X85125408Y-135203285D01*
X85298085Y-135332585D01*
X85302039Y-135334745D01*
X85465560Y-135424077D01*
X85487399Y-135436008D01*
X85689500Y-135511450D01*
X85693887Y-135512406D01*
X85693891Y-135512407D01*
X85814928Y-135538779D01*
X85900277Y-135557375D01*
X85951729Y-135561076D01*
X86074986Y-135569941D01*
X86086904Y-135571371D01*
X86102891Y-135574068D01*
X86109442Y-135574150D01*
X86110576Y-135574165D01*
X86110579Y-135574165D01*
X86115443Y-135574226D01*
X86143202Y-135570263D01*
X86160996Y-135569000D01*
X102216564Y-135568687D01*
X121162282Y-135568318D01*
X121183236Y-135570073D01*
X121202891Y-135573388D01*
X121209262Y-135573468D01*
X121210576Y-135573485D01*
X121210579Y-135573485D01*
X121215443Y-135573546D01*
X121220261Y-135572858D01*
X121220264Y-135572858D01*
X121230938Y-135571334D01*
X121239810Y-135570386D01*
X121426154Y-135557139D01*
X121426158Y-135557138D01*
X121430637Y-135556820D01*
X121435024Y-135555868D01*
X121435028Y-135555867D01*
X121637063Y-135512004D01*
X121637062Y-135512004D01*
X121641462Y-135511049D01*
X121843627Y-135435739D01*
X121847573Y-135433586D01*
X121847578Y-135433584D01*
X122029068Y-135334574D01*
X122029071Y-135334572D01*
X122033014Y-135332421D01*
X122205769Y-135203201D01*
X122358374Y-135050708D01*
X122392462Y-135005206D01*
X122478737Y-134890040D01*
X122487721Y-134878048D01*
X122489874Y-134874108D01*
X122489878Y-134874102D01*
X122589019Y-134692685D01*
X122589019Y-134692684D01*
X122591177Y-134688736D01*
X122666636Y-134486627D01*
X122708359Y-134295127D01*
X122711605Y-134280229D01*
X122711605Y-134280227D01*
X122712562Y-134275836D01*
X122725111Y-134101133D01*
X122726539Y-134089222D01*
X122728429Y-134078007D01*
X122728429Y-134078005D01*
X122729238Y-134073206D01*
X122729395Y-134060654D01*
X122725433Y-134032929D01*
X122724166Y-134015104D01*
X122724166Y-130643651D01*
X122725664Y-130624281D01*
X122727978Y-130609411D01*
X122727978Y-130609408D01*
X122729358Y-130600538D01*
X122728176Y-130591507D01*
X122727901Y-130561069D01*
X122734894Y-130498920D01*
X122741167Y-130471416D01*
X122768152Y-130394251D01*
X122780385Y-130368834D01*
X122787121Y-130358108D01*
X122823864Y-130299601D01*
X122841445Y-130277544D01*
X122899235Y-130219722D01*
X122921281Y-130202129D01*
X122990492Y-130158610D01*
X123015900Y-130146364D01*
X123093051Y-130119336D01*
X123120550Y-130113048D01*
X123128623Y-130112135D01*
X123175920Y-130106786D01*
X123191752Y-130107112D01*
X123191765Y-130106028D01*
X123200742Y-130106134D01*
X123209612Y-130107511D01*
X123229609Y-130104887D01*
X123237101Y-130103904D01*
X123253493Y-130102833D01*
X137538656Y-130102713D01*
X145819433Y-130102644D01*
X145887554Y-130122645D01*
X145934047Y-130176301D01*
X145944152Y-130246575D01*
X145914659Y-130311156D01*
X145885270Y-130336076D01*
X145860210Y-130351433D01*
X145860206Y-130351436D01*
X145855418Y-130354370D01*
X145851225Y-130358105D01*
X145851222Y-130358108D01*
X145762893Y-130436807D01*
X145687685Y-130503815D01*
X145549066Y-130680601D01*
X145546441Y-130685559D01*
X145455959Y-130856453D01*
X145443946Y-130879141D01*
X145442240Y-130884487D01*
X145442239Y-130884489D01*
X145411191Y-130981775D01*
X145375644Y-131093157D01*
X145346321Y-131315886D01*
X145346585Y-131321485D01*
X145346585Y-131321487D01*
X145348509Y-131362288D01*
X145356904Y-131540288D01*
X145407058Y-131759270D01*
X145495197Y-131965909D01*
X145524197Y-132010058D01*
X145610771Y-132141854D01*
X145618535Y-132153674D01*
X145621598Y-132157112D01*
X145621602Y-132157117D01*
X145631618Y-132168358D01*
X145656522Y-132196309D01*
X145657819Y-132197606D01*
X147076675Y-133616463D01*
X147087542Y-133628853D01*
X147101077Y-133646492D01*
X147105223Y-133650265D01*
X147105228Y-133650270D01*
X147161364Y-133701349D01*
X147165659Y-133705447D01*
X147181610Y-133721398D01*
X147201636Y-133738142D01*
X147205591Y-133741592D01*
X147237993Y-133771076D01*
X147254996Y-133786547D01*
X147267236Y-133797685D01*
X147271990Y-133800667D01*
X147282430Y-133807216D01*
X147296290Y-133817285D01*
X147310053Y-133828793D01*
X147314934Y-133831577D01*
X147382418Y-133870069D01*
X147386948Y-133872779D01*
X147457544Y-133917064D01*
X147462748Y-133919156D01*
X147474183Y-133923753D01*
X147489613Y-133931212D01*
X147500319Y-133937319D01*
X147500328Y-133937323D01*
X147505193Y-133940098D01*
X147510478Y-133941969D01*
X147510479Y-133941970D01*
X147534088Y-133950330D01*
X147583738Y-133967912D01*
X147588672Y-133969777D01*
X147593253Y-133971619D01*
X147648994Y-134015590D01*
X147672113Y-134082717D01*
X147655271Y-134151687D01*
X147634406Y-134178543D01*
X147553093Y-134258171D01*
X147454835Y-134410638D01*
X147452426Y-134417258D01*
X147452424Y-134417261D01*
X147404667Y-134548473D01*
X147392797Y-134581085D01*
X147370063Y-134761040D01*
X147387763Y-134941560D01*
X147445018Y-135113673D01*
X147448665Y-135119695D01*
X147448666Y-135119697D01*
X147515442Y-135229957D01*
X147538980Y-135268824D01*
X147543869Y-135273887D01*
X147543870Y-135273888D01*
X147597796Y-135329729D01*
X147664982Y-135399302D01*
X147816759Y-135498622D01*
X147823363Y-135501078D01*
X147823365Y-135501079D01*
X147980158Y-135559390D01*
X147980160Y-135559390D01*
X147986768Y-135561848D01*
X148067184Y-135572578D01*
X148159580Y-135584907D01*
X148159584Y-135584907D01*
X148166561Y-135585838D01*
X148173572Y-135585200D01*
X148173576Y-135585200D01*
X148325521Y-135571371D01*
X148347200Y-135569398D01*
X148353902Y-135567220D01*
X148353904Y-135567220D01*
X148513009Y-135515524D01*
X148513012Y-135515523D01*
X148519708Y-135513347D01*
X148649445Y-135436008D01*
X148669460Y-135424077D01*
X148669462Y-135424076D01*
X148675512Y-135420469D01*
X148806866Y-135295382D01*
X148907243Y-135144302D01*
X148949023Y-135034317D01*
X148969155Y-134981320D01*
X148969156Y-134981318D01*
X148971655Y-134974738D01*
X148972995Y-134965207D01*
X148987020Y-134865409D01*
X149016308Y-134800735D01*
X149022699Y-134793850D01*
X149109944Y-134706605D01*
X149172256Y-134672579D01*
X149199039Y-134669700D01*
X154079064Y-134669700D01*
X154095507Y-134670778D01*
X154127200Y-134674950D01*
X154135389Y-134673872D01*
X154167074Y-134669701D01*
X154167084Y-134669700D01*
X154167085Y-134669700D01*
X154205535Y-134664638D01*
X154266657Y-134656591D01*
X154277864Y-134655116D01*
X154277866Y-134655115D01*
X154286051Y-134654038D01*
X154434076Y-134592724D01*
X154441483Y-134587041D01*
X154529272Y-134519677D01*
X154529275Y-134519674D01*
X154554634Y-134500215D01*
X154561187Y-134495187D01*
X154567247Y-134487290D01*
X154580652Y-134469821D01*
X154591519Y-134457430D01*
X155286165Y-133762784D01*
X155348477Y-133728758D01*
X155419292Y-133733823D01*
X155476128Y-133776370D01*
X155494818Y-133812107D01*
X155522218Y-133894473D01*
X155525865Y-133900495D01*
X155525866Y-133900497D01*
X155610820Y-134040773D01*
X155616180Y-134049624D01*
X155621069Y-134054687D01*
X155621070Y-134054688D01*
X155680467Y-134116195D01*
X155742182Y-134180102D01*
X155795958Y-134215292D01*
X155885096Y-134273622D01*
X155893959Y-134279422D01*
X155900563Y-134281878D01*
X155900565Y-134281879D01*
X156057358Y-134340190D01*
X156057360Y-134340190D01*
X156063968Y-134342648D01*
X156147795Y-134353833D01*
X156236780Y-134365707D01*
X156236784Y-134365707D01*
X156243761Y-134366638D01*
X156250772Y-134366000D01*
X156250776Y-134366000D01*
X156393259Y-134353032D01*
X156424400Y-134350198D01*
X156431102Y-134348020D01*
X156431104Y-134348020D01*
X156590209Y-134296324D01*
X156590212Y-134296323D01*
X156596908Y-134294147D01*
X156752712Y-134201269D01*
X156757813Y-134196412D01*
X156763426Y-134192151D01*
X156764185Y-134193152D01*
X156820890Y-134163962D01*
X156844660Y-134161700D01*
X156859009Y-134161700D01*
X156927130Y-134181702D01*
X156973623Y-134235358D01*
X156984408Y-134275405D01*
X156988963Y-134321860D01*
X156991187Y-134328545D01*
X156991187Y-134328546D01*
X157014064Y-134397315D01*
X157046218Y-134493973D01*
X157049865Y-134499995D01*
X157049866Y-134499997D01*
X157120683Y-134616930D01*
X157140180Y-134649124D01*
X157145069Y-134654187D01*
X157145070Y-134654188D01*
X157165120Y-134674950D01*
X157266182Y-134779602D01*
X157298477Y-134800735D01*
X157410583Y-134874095D01*
X157417959Y-134878922D01*
X157424563Y-134881378D01*
X157424565Y-134881379D01*
X157581358Y-134939690D01*
X157581360Y-134939690D01*
X157587968Y-134942148D01*
X157671795Y-134953333D01*
X157760780Y-134965207D01*
X157760784Y-134965207D01*
X157767761Y-134966138D01*
X157774772Y-134965500D01*
X157774776Y-134965500D01*
X157917259Y-134952532D01*
X157948400Y-134949698D01*
X157955102Y-134947520D01*
X157955104Y-134947520D01*
X158114209Y-134895824D01*
X158114212Y-134895823D01*
X158120908Y-134893647D01*
X158276712Y-134800769D01*
X158280919Y-134796762D01*
X158346817Y-134771684D01*
X158356641Y-134771300D01*
X182423361Y-134771300D01*
X182491482Y-134791302D01*
X182512456Y-134808205D01*
X185870085Y-138165834D01*
X185880952Y-138178225D01*
X185900413Y-138203587D01*
X185932325Y-138228074D01*
X185932328Y-138228077D01*
X185981418Y-138265745D01*
X186027525Y-138301124D01*
X186175550Y-138362438D01*
X186294515Y-138378100D01*
X186294520Y-138378100D01*
X186294529Y-138378101D01*
X186326212Y-138382272D01*
X186334400Y-138383350D01*
X186366093Y-138379178D01*
X186382536Y-138378100D01*
X193601464Y-138378100D01*
X193617907Y-138379178D01*
X193649600Y-138383350D01*
X193657789Y-138382272D01*
X193689474Y-138378101D01*
X193689484Y-138378100D01*
X193689485Y-138378100D01*
X193689501Y-138378098D01*
X193789057Y-138364991D01*
X193800264Y-138363516D01*
X193800266Y-138363515D01*
X193808451Y-138362438D01*
X193956476Y-138301124D01*
X194002583Y-138265745D01*
X194051672Y-138228077D01*
X194051675Y-138228074D01*
X194077034Y-138208615D01*
X194083587Y-138203587D01*
X194093405Y-138190792D01*
X194103052Y-138178221D01*
X194113919Y-138165830D01*
X194877927Y-137401822D01*
X195758767Y-136520981D01*
X195821079Y-136486956D01*
X195836443Y-136484595D01*
X195836930Y-136484551D01*
X195845200Y-136483798D01*
X195851902Y-136481620D01*
X195851904Y-136481620D01*
X196011009Y-136429924D01*
X196011012Y-136429923D01*
X196017708Y-136427747D01*
X196149004Y-136349479D01*
X196167460Y-136338477D01*
X196167462Y-136338476D01*
X196173512Y-136334869D01*
X196304866Y-136209782D01*
X196405243Y-136058702D01*
X196469655Y-135889138D01*
X196485020Y-135779809D01*
X196514308Y-135715135D01*
X196520699Y-135708250D01*
X197436205Y-134792744D01*
X226878136Y-134792744D01*
X226892061Y-135005206D01*
X226893482Y-135010802D01*
X226893483Y-135010807D01*
X226924444Y-135132713D01*
X226944472Y-135211572D01*
X226946889Y-135216815D01*
X226983589Y-135296423D01*
X227033611Y-135404931D01*
X227156496Y-135578809D01*
X227179635Y-135601350D01*
X227289371Y-135708250D01*
X227309009Y-135727381D01*
X227313805Y-135730586D01*
X227313808Y-135730588D01*
X227454733Y-135824750D01*
X227486043Y-135845671D01*
X227491346Y-135847949D01*
X227491349Y-135847951D01*
X227584408Y-135887932D01*
X227681670Y-135929719D01*
X227757516Y-135946881D01*
X227883701Y-135975434D01*
X227883706Y-135975435D01*
X227889338Y-135976709D01*
X227895109Y-135976936D01*
X227895111Y-135976936D01*
X227956452Y-135979346D01*
X228102091Y-135985069D01*
X228107800Y-135984241D01*
X228107804Y-135984241D01*
X228307090Y-135955345D01*
X228307094Y-135955344D01*
X228312805Y-135954516D01*
X228514423Y-135886076D01*
X228700193Y-135782040D01*
X228863893Y-135645893D01*
X229000040Y-135482193D01*
X229104076Y-135296423D01*
X229172516Y-135094805D01*
X229178446Y-135053913D01*
X229202537Y-134887761D01*
X229202537Y-134887759D01*
X229203069Y-134884091D01*
X229204663Y-134823200D01*
X229190559Y-134669700D01*
X229185710Y-134616930D01*
X229185709Y-134616927D01*
X229185181Y-134611176D01*
X229167497Y-134548473D01*
X229128954Y-134411811D01*
X229128953Y-134411809D01*
X229127386Y-134406252D01*
X229115213Y-134381566D01*
X229035770Y-134220473D01*
X229033215Y-134215292D01*
X229009819Y-134183960D01*
X228917739Y-134060650D01*
X228905822Y-134044691D01*
X228749471Y-133900163D01*
X228587054Y-133797685D01*
X228574281Y-133789626D01*
X228569401Y-133786547D01*
X228371641Y-133707649D01*
X228365981Y-133706523D01*
X228365977Y-133706522D01*
X228168482Y-133667238D01*
X228168480Y-133667238D01*
X228162815Y-133666111D01*
X228157040Y-133666035D01*
X228157036Y-133666035D01*
X228050361Y-133664639D01*
X227949916Y-133663324D01*
X227944219Y-133664303D01*
X227944218Y-133664303D01*
X227745764Y-133698403D01*
X227745761Y-133698404D01*
X227740074Y-133699381D01*
X227540316Y-133773075D01*
X227441984Y-133831577D01*
X227375079Y-133871382D01*
X227357334Y-133881939D01*
X227197254Y-134022325D01*
X227065438Y-134189533D01*
X227062749Y-134194644D01*
X227062747Y-134194647D01*
X227012465Y-134290218D01*
X226966300Y-134377962D01*
X226964586Y-134383483D01*
X226964584Y-134383487D01*
X226922788Y-134518093D01*
X226903161Y-134581302D01*
X226878136Y-134792744D01*
X197436205Y-134792744D01*
X201379509Y-130849440D01*
X219302863Y-130849440D01*
X219320563Y-131029960D01*
X219377818Y-131202073D01*
X219381465Y-131208095D01*
X219381466Y-131208097D01*
X219439341Y-131303660D01*
X219471780Y-131357224D01*
X219476669Y-131362287D01*
X219476670Y-131362288D01*
X219553521Y-131441868D01*
X219597782Y-131487702D01*
X219635644Y-131512478D01*
X219712179Y-131562561D01*
X219749559Y-131587022D01*
X219756163Y-131589478D01*
X219756165Y-131589479D01*
X219912958Y-131647790D01*
X219912960Y-131647790D01*
X219919568Y-131650248D01*
X220003395Y-131661433D01*
X220092380Y-131673307D01*
X220092384Y-131673307D01*
X220099361Y-131674238D01*
X220106372Y-131673600D01*
X220106376Y-131673600D01*
X220248859Y-131660632D01*
X220280000Y-131657798D01*
X220286702Y-131655620D01*
X220286704Y-131655620D01*
X220445809Y-131603924D01*
X220445812Y-131603923D01*
X220452508Y-131601747D01*
X220608312Y-131508869D01*
X220612118Y-131505244D01*
X220677812Y-131480245D01*
X220747284Y-131494877D01*
X220797818Y-131544745D01*
X220805959Y-131562561D01*
X220852284Y-131689149D01*
X220905418Y-131834346D01*
X220937919Y-131901279D01*
X221054736Y-132141854D01*
X221073963Y-132181451D01*
X221075635Y-132184158D01*
X221075636Y-132184160D01*
X221271147Y-132500717D01*
X221276723Y-132509746D01*
X221324806Y-132572409D01*
X221507470Y-132810462D01*
X221511620Y-132815871D01*
X221513802Y-132818187D01*
X221513811Y-132818197D01*
X221727034Y-133044462D01*
X221776251Y-133096690D01*
X221778656Y-133098774D01*
X221778662Y-133098779D01*
X221976058Y-133269768D01*
X222067906Y-133349329D01*
X222383599Y-133571202D01*
X222423943Y-133593842D01*
X222626745Y-133707649D01*
X222720097Y-133760036D01*
X222723011Y-133761303D01*
X222723015Y-133761305D01*
X222813542Y-133800667D01*
X223073955Y-133913898D01*
X223219157Y-133960238D01*
X223438507Y-134030242D01*
X223438515Y-134030244D01*
X223441551Y-134031213D01*
X223622107Y-134069262D01*
X223816001Y-134110122D01*
X223816006Y-134110123D01*
X223819120Y-134110779D01*
X224202797Y-134151782D01*
X224205984Y-134151799D01*
X224205990Y-134151799D01*
X224381209Y-134152716D01*
X224588653Y-134153802D01*
X224734884Y-134139722D01*
X224969573Y-134117124D01*
X224969578Y-134117123D01*
X224972738Y-134116819D01*
X224975857Y-134116196D01*
X224975862Y-134116195D01*
X225339159Y-134043601D01*
X225351120Y-134041211D01*
X225679793Y-133940098D01*
X225716882Y-133928688D01*
X225716885Y-133928687D01*
X225719924Y-133927752D01*
X225722852Y-133926515D01*
X225722858Y-133926513D01*
X225947602Y-133831577D01*
X226075374Y-133777604D01*
X226078177Y-133776070D01*
X226078182Y-133776067D01*
X226279020Y-133666111D01*
X226413831Y-133592304D01*
X226731829Y-133373750D01*
X226734268Y-133371682D01*
X226734274Y-133371677D01*
X227023674Y-133126249D01*
X227023682Y-133126241D01*
X227026114Y-133124179D01*
X227028322Y-133121884D01*
X227028330Y-133121877D01*
X227291456Y-132848448D01*
X227291458Y-132848445D01*
X227293671Y-132846146D01*
X227324549Y-132806766D01*
X227529787Y-132545016D01*
X227529790Y-132545011D01*
X227531761Y-132542498D01*
X227737948Y-132216343D01*
X227739368Y-132213495D01*
X227739373Y-132213486D01*
X227908698Y-131873871D01*
X227910118Y-131871023D01*
X228046511Y-131510071D01*
X228145728Y-131137183D01*
X228206755Y-130756178D01*
X228209046Y-130716456D01*
X228220337Y-130520626D01*
X228228967Y-130370956D01*
X228229060Y-130344334D01*
X228227530Y-130314131D01*
X228209699Y-129962140D01*
X228209698Y-129962135D01*
X228209538Y-129958967D01*
X228166668Y-129678810D01*
X228151656Y-129580705D01*
X228151654Y-129580696D01*
X228151172Y-129577545D01*
X228064809Y-129243604D01*
X228055357Y-129207054D01*
X228055354Y-129207046D01*
X228054560Y-129203974D01*
X228051001Y-129194351D01*
X227981017Y-129005161D01*
X227920691Y-128842078D01*
X227914702Y-128829853D01*
X227752337Y-128498423D01*
X227752334Y-128498417D01*
X227750936Y-128495564D01*
X227648984Y-128331771D01*
X227548718Y-128170687D01*
X227548710Y-128170676D01*
X227547031Y-128167978D01*
X227415300Y-127997538D01*
X227313019Y-127865201D01*
X227313014Y-127865196D01*
X227311067Y-127862676D01*
X227203828Y-127749669D01*
X227047656Y-127585098D01*
X227047653Y-127585096D01*
X227045457Y-127582781D01*
X227011205Y-127553320D01*
X226755345Y-127333246D01*
X226755344Y-127333245D01*
X226752922Y-127331162D01*
X226630538Y-127245785D01*
X226439071Y-127112215D01*
X226439063Y-127112210D01*
X226436457Y-127110392D01*
X226427086Y-127105176D01*
X226102087Y-126924284D01*
X226102085Y-126924283D01*
X226099302Y-126922734D01*
X226096382Y-126921476D01*
X226096377Y-126921474D01*
X225747843Y-126771371D01*
X225747833Y-126771367D01*
X225744909Y-126770108D01*
X225376906Y-126654078D01*
X225039411Y-126584186D01*
X225002186Y-126576477D01*
X225002183Y-126576477D01*
X224999061Y-126575830D01*
X224690897Y-126543984D01*
X224618400Y-126536492D01*
X224618397Y-126536492D01*
X224615244Y-126536166D01*
X224612078Y-126536160D01*
X224612069Y-126536160D01*
X224421596Y-126535828D01*
X224229383Y-126535493D01*
X224049965Y-126553401D01*
X223848613Y-126573498D01*
X223848609Y-126573499D01*
X223845429Y-126573816D01*
X223467313Y-126650745D01*
X223464275Y-126651691D01*
X223461564Y-126652387D01*
X223390610Y-126649950D01*
X223332236Y-126609539D01*
X223304977Y-126543984D01*
X223314600Y-126480305D01*
X223320381Y-126466945D01*
X223321620Y-126459122D01*
X223321623Y-126459112D01*
X223327299Y-126423276D01*
X223329705Y-126411656D01*
X223338728Y-126376511D01*
X223338728Y-126376510D01*
X223340700Y-126368830D01*
X223340700Y-126348576D01*
X223342251Y-126328865D01*
X223344180Y-126316686D01*
X223345420Y-126308857D01*
X223341259Y-126264838D01*
X223340700Y-126252981D01*
X223340700Y-125478808D01*
X223360702Y-125410687D01*
X223414358Y-125364194D01*
X223429783Y-125359160D01*
X223429600Y-125358598D01*
X223595409Y-125304724D01*
X223595412Y-125304723D01*
X223602108Y-125302547D01*
X223757912Y-125209669D01*
X223889266Y-125084582D01*
X223989643Y-124933502D01*
X224044497Y-124789099D01*
X224051555Y-124770520D01*
X224051556Y-124770518D01*
X224054055Y-124763938D01*
X224055729Y-124752028D01*
X224078748Y-124588239D01*
X224078748Y-124588236D01*
X224079299Y-124584317D01*
X224079616Y-124561600D01*
X224059397Y-124381345D01*
X224057080Y-124374691D01*
X224002064Y-124216706D01*
X224002062Y-124216703D01*
X223999745Y-124210048D01*
X223991223Y-124196410D01*
X223907359Y-124062198D01*
X223903626Y-124056224D01*
X223875395Y-124027795D01*
X223780778Y-123932515D01*
X223780774Y-123932512D01*
X223775815Y-123927518D01*
X223764697Y-123920462D01*
X223716538Y-123889900D01*
X223622666Y-123830327D01*
X223593463Y-123819928D01*
X223458425Y-123771843D01*
X223458420Y-123771842D01*
X223451790Y-123769481D01*
X223444802Y-123768648D01*
X223444799Y-123768647D01*
X223321698Y-123753968D01*
X223271680Y-123748004D01*
X223264677Y-123748740D01*
X223264676Y-123748740D01*
X223098288Y-123766228D01*
X223098286Y-123766229D01*
X223091288Y-123766964D01*
X222919579Y-123825418D01*
X222913575Y-123829112D01*
X222771095Y-123916766D01*
X222771092Y-123916768D01*
X222765088Y-123920462D01*
X222760053Y-123925393D01*
X222760050Y-123925395D01*
X222664448Y-124019016D01*
X222635493Y-124047371D01*
X222537235Y-124199838D01*
X222534826Y-124206458D01*
X222534824Y-124206461D01*
X222486393Y-124339524D01*
X222475197Y-124370285D01*
X222468138Y-124426167D01*
X222439757Y-124491241D01*
X222432229Y-124499467D01*
X222370095Y-124561600D01*
X222314942Y-124616753D01*
X222306663Y-124624287D01*
X222300182Y-124628400D01*
X222253557Y-124678051D01*
X222250802Y-124680893D01*
X222231065Y-124700630D01*
X222228585Y-124703827D01*
X222220882Y-124712847D01*
X222190614Y-124745079D01*
X222186795Y-124752025D01*
X222186793Y-124752028D01*
X222180852Y-124762834D01*
X222170001Y-124779353D01*
X222157586Y-124795359D01*
X222154441Y-124802628D01*
X222154438Y-124802632D01*
X222140026Y-124835937D01*
X222134809Y-124846587D01*
X222113505Y-124885340D01*
X222111534Y-124893015D01*
X222111534Y-124893016D01*
X222108467Y-124904962D01*
X222102063Y-124923666D01*
X222100658Y-124926914D01*
X222094019Y-124942255D01*
X222092780Y-124950078D01*
X222092777Y-124950088D01*
X222087101Y-124985924D01*
X222084695Y-124997544D01*
X222073700Y-125040370D01*
X222073700Y-125060624D01*
X222072149Y-125080334D01*
X222068980Y-125100343D01*
X222069726Y-125108235D01*
X222073141Y-125144361D01*
X222073700Y-125156219D01*
X222073700Y-125974206D01*
X222053698Y-126042327D01*
X222036795Y-126063301D01*
X221336450Y-126763645D01*
X220638547Y-127461548D01*
X220630261Y-127469088D01*
X220623782Y-127473200D01*
X220618357Y-127478977D01*
X220577157Y-127522851D01*
X220574402Y-127525693D01*
X220554665Y-127545430D01*
X220552185Y-127548627D01*
X220544482Y-127557647D01*
X220514214Y-127589879D01*
X220510395Y-127596825D01*
X220510393Y-127596828D01*
X220504452Y-127607634D01*
X220493601Y-127624153D01*
X220481186Y-127640159D01*
X220478041Y-127647428D01*
X220478038Y-127647432D01*
X220463626Y-127680737D01*
X220458409Y-127691387D01*
X220437105Y-127730140D01*
X220435134Y-127737815D01*
X220435134Y-127737816D01*
X220433776Y-127743106D01*
X220400830Y-127800865D01*
X219724142Y-128477553D01*
X219715863Y-128485087D01*
X219709382Y-128489200D01*
X219667581Y-128533714D01*
X219662757Y-128538851D01*
X219660002Y-128541693D01*
X219640265Y-128561430D01*
X219637785Y-128564627D01*
X219630082Y-128573647D01*
X219599814Y-128605879D01*
X219595995Y-128612825D01*
X219595993Y-128612828D01*
X219590052Y-128623634D01*
X219579201Y-128640153D01*
X219566786Y-128656159D01*
X219563641Y-128663428D01*
X219563638Y-128663432D01*
X219549226Y-128696737D01*
X219544009Y-128707387D01*
X219522705Y-128746140D01*
X219520734Y-128753815D01*
X219520734Y-128753816D01*
X219517667Y-128765762D01*
X219511263Y-128784466D01*
X219503219Y-128803055D01*
X219501980Y-128810878D01*
X219501977Y-128810888D01*
X219496301Y-128846724D01*
X219493895Y-128858344D01*
X219482900Y-128901170D01*
X219482900Y-128921424D01*
X219481349Y-128941134D01*
X219478180Y-128961143D01*
X219478926Y-128969035D01*
X219482341Y-129005161D01*
X219482900Y-129017019D01*
X219482900Y-130314131D01*
X219462811Y-130382386D01*
X219391454Y-130493110D01*
X219391450Y-130493119D01*
X219387635Y-130499038D01*
X219385226Y-130505658D01*
X219385225Y-130505659D01*
X219350692Y-130600538D01*
X219325597Y-130669485D01*
X219302863Y-130849440D01*
X201379509Y-130849440D01*
X202021434Y-130207515D01*
X202033825Y-130196648D01*
X202052637Y-130182213D01*
X202059187Y-130177187D01*
X202083674Y-130145275D01*
X202083678Y-130145271D01*
X202156724Y-130050076D01*
X202218038Y-129902051D01*
X202222350Y-129869298D01*
X202233700Y-129783085D01*
X202233700Y-129783080D01*
X202238950Y-129743200D01*
X202234778Y-129711507D01*
X202233700Y-129695062D01*
X202233700Y-128751648D01*
X202254752Y-128681921D01*
X202287709Y-128632317D01*
X202348843Y-128540302D01*
X202390623Y-128430317D01*
X202410755Y-128377320D01*
X202410756Y-128377318D01*
X202413255Y-128370738D01*
X202431522Y-128240762D01*
X202437948Y-128195039D01*
X202437948Y-128195036D01*
X202438499Y-128191117D01*
X202438816Y-128168400D01*
X202421544Y-128014417D01*
X202419651Y-127997538D01*
X202431935Y-127927612D01*
X202480074Y-127875428D01*
X202505929Y-127863660D01*
X202564211Y-127844723D01*
X202570908Y-127842547D01*
X202672807Y-127781803D01*
X202720660Y-127753277D01*
X202720662Y-127753276D01*
X202726712Y-127749669D01*
X202858066Y-127624582D01*
X202944439Y-127494580D01*
X202960291Y-127475213D01*
X209165899Y-121269605D01*
X209228211Y-121235579D01*
X209254994Y-121232700D01*
X218227006Y-121232700D01*
X218295127Y-121252702D01*
X218316101Y-121269605D01*
X219636750Y-122590255D01*
X219670776Y-122652567D01*
X219673054Y-122667053D01*
X219676163Y-122698760D01*
X219733418Y-122870873D01*
X219737065Y-122876895D01*
X219737066Y-122876897D01*
X219794949Y-122972473D01*
X219827380Y-123026024D01*
X219953382Y-123156502D01*
X220105159Y-123255822D01*
X220111763Y-123258278D01*
X220111765Y-123258279D01*
X220268558Y-123316590D01*
X220268560Y-123316590D01*
X220275168Y-123319048D01*
X220358995Y-123330233D01*
X220447980Y-123342107D01*
X220447984Y-123342107D01*
X220454961Y-123343038D01*
X220461972Y-123342400D01*
X220461976Y-123342400D01*
X220604459Y-123329432D01*
X220635600Y-123326598D01*
X220642302Y-123324420D01*
X220642304Y-123324420D01*
X220801409Y-123272724D01*
X220801412Y-123272723D01*
X220808108Y-123270547D01*
X220963912Y-123177669D01*
X221095266Y-123052582D01*
X221195643Y-122901502D01*
X221260055Y-122731938D01*
X221261035Y-122724966D01*
X221284748Y-122556239D01*
X221284748Y-122556236D01*
X221285299Y-122552317D01*
X221285616Y-122529600D01*
X221265397Y-122349345D01*
X221263080Y-122342691D01*
X221208064Y-122184706D01*
X221208062Y-122184703D01*
X221205745Y-122178048D01*
X221109626Y-122024224D01*
X221091202Y-122005671D01*
X220986778Y-121900515D01*
X220986774Y-121900512D01*
X220981815Y-121895518D01*
X220948854Y-121874600D01*
X220877166Y-121829106D01*
X220828666Y-121798327D01*
X220657790Y-121737481D01*
X220608007Y-121731545D01*
X220542733Y-121703618D01*
X220533830Y-121695526D01*
X219045252Y-120206947D01*
X219037712Y-120198661D01*
X219033600Y-120192182D01*
X218983948Y-120145556D01*
X218981107Y-120142802D01*
X218961370Y-120123065D01*
X218958173Y-120120585D01*
X218949151Y-120112880D01*
X218922700Y-120088041D01*
X218916921Y-120082614D01*
X218909975Y-120078795D01*
X218909972Y-120078793D01*
X218899166Y-120072852D01*
X218882647Y-120062001D01*
X218882183Y-120061641D01*
X218866641Y-120049586D01*
X218859372Y-120046441D01*
X218859368Y-120046438D01*
X218826063Y-120032026D01*
X218815413Y-120026809D01*
X218776660Y-120005505D01*
X218757037Y-120000467D01*
X218738334Y-119994063D01*
X218727020Y-119989167D01*
X218727019Y-119989167D01*
X218719745Y-119986019D01*
X218711922Y-119984780D01*
X218711912Y-119984777D01*
X218676076Y-119979101D01*
X218664456Y-119976695D01*
X218629311Y-119967672D01*
X218629310Y-119967672D01*
X218621630Y-119965700D01*
X218601376Y-119965700D01*
X218581665Y-119964149D01*
X218569486Y-119962220D01*
X218561657Y-119960980D01*
X218553765Y-119961726D01*
X218517639Y-119965141D01*
X218505781Y-119965700D01*
X217241039Y-119965700D01*
X217172918Y-119945698D01*
X217126425Y-119892042D01*
X217116321Y-119821768D01*
X217145815Y-119757188D01*
X217151944Y-119750605D01*
X220280744Y-116621805D01*
X220343056Y-116587779D01*
X220369839Y-116584900D01*
X221360899Y-116584900D01*
X221429892Y-116605468D01*
X221545452Y-116681088D01*
X221578359Y-116702622D01*
X221584963Y-116705078D01*
X221584965Y-116705079D01*
X221741758Y-116763390D01*
X221741760Y-116763390D01*
X221748368Y-116765848D01*
X221832195Y-116777033D01*
X221921180Y-116788907D01*
X221921184Y-116788907D01*
X221928161Y-116789838D01*
X221935172Y-116789200D01*
X221935176Y-116789200D01*
X222077659Y-116776232D01*
X222108800Y-116773398D01*
X222115502Y-116771220D01*
X222115504Y-116771220D01*
X222274609Y-116719524D01*
X222274612Y-116719523D01*
X222281308Y-116717347D01*
X222437112Y-116624469D01*
X222568466Y-116499382D01*
X222668843Y-116348302D01*
X222720357Y-116212691D01*
X222730755Y-116185320D01*
X222730756Y-116185318D01*
X222733255Y-116178738D01*
X222734360Y-116170877D01*
X222757948Y-116003039D01*
X222757948Y-116003036D01*
X222758499Y-115999117D01*
X222758816Y-115976400D01*
X222738597Y-115796145D01*
X222714908Y-115728120D01*
X222681264Y-115631506D01*
X222681262Y-115631503D01*
X222678945Y-115624848D01*
X222631138Y-115548340D01*
X222612002Y-115479971D01*
X222633044Y-115411844D01*
X222719643Y-115281502D01*
X222768828Y-115152024D01*
X222781555Y-115118520D01*
X222781556Y-115118518D01*
X222784055Y-115111938D01*
X222785035Y-115104966D01*
X222808748Y-114936239D01*
X222808748Y-114936236D01*
X222809299Y-114932317D01*
X222809616Y-114909600D01*
X222789397Y-114729345D01*
X222779844Y-114701912D01*
X222732064Y-114564706D01*
X222732062Y-114564703D01*
X222729745Y-114558048D01*
X222716475Y-114536811D01*
X222637359Y-114410198D01*
X222633626Y-114404224D01*
X222604522Y-114374916D01*
X222510778Y-114280515D01*
X222510774Y-114280512D01*
X222505815Y-114275518D01*
X222494697Y-114268462D01*
X222446538Y-114237900D01*
X222352666Y-114178327D01*
X222323463Y-114167928D01*
X222188425Y-114119843D01*
X222188420Y-114119842D01*
X222181790Y-114117481D01*
X222174802Y-114116648D01*
X222174799Y-114116647D01*
X222051698Y-114101968D01*
X222001680Y-114096004D01*
X221994677Y-114096740D01*
X221994676Y-114096740D01*
X221828288Y-114114228D01*
X221828286Y-114114229D01*
X221821288Y-114114964D01*
X221649579Y-114173418D01*
X221495088Y-114268462D01*
X221490054Y-114273391D01*
X221488776Y-114274390D01*
X221422782Y-114300567D01*
X221411204Y-114301100D01*
X220316936Y-114301100D01*
X220300493Y-114300022D01*
X220268800Y-114295850D01*
X220260611Y-114296928D01*
X220228926Y-114301099D01*
X220228917Y-114301100D01*
X220228915Y-114301100D01*
X220228909Y-114301101D01*
X220228907Y-114301101D01*
X220129343Y-114314209D01*
X220118136Y-114315684D01*
X220118134Y-114315685D01*
X220109949Y-114316762D01*
X219961924Y-114378076D01*
X219955373Y-114383103D01*
X219955371Y-114383104D01*
X219911742Y-114416582D01*
X219866728Y-114451123D01*
X219866725Y-114451126D01*
X219834813Y-114475613D01*
X219829783Y-114482168D01*
X219815348Y-114500979D01*
X219804481Y-114513370D01*
X216490507Y-117827344D01*
X216428195Y-117861370D01*
X216357380Y-117856305D01*
X216300544Y-117813758D01*
X216294577Y-117805047D01*
X216232826Y-117706224D01*
X216206289Y-117679501D01*
X216109978Y-117582515D01*
X216109974Y-117582512D01*
X216105015Y-117577518D01*
X216093897Y-117570462D01*
X216038964Y-117535601D01*
X215951866Y-117480327D01*
X215919618Y-117468844D01*
X215787625Y-117421843D01*
X215787620Y-117421842D01*
X215780990Y-117419481D01*
X215774002Y-117418648D01*
X215773999Y-117418647D01*
X215650898Y-117403968D01*
X215600880Y-117398004D01*
X215593877Y-117398740D01*
X215593876Y-117398740D01*
X215427488Y-117416228D01*
X215427486Y-117416229D01*
X215420488Y-117416964D01*
X215248779Y-117475418D01*
X215242775Y-117479112D01*
X215100295Y-117566766D01*
X215100292Y-117566768D01*
X215094288Y-117570462D01*
X215089253Y-117575393D01*
X215089250Y-117575395D01*
X214969726Y-117692442D01*
X214964693Y-117697371D01*
X214960879Y-117703289D01*
X214960875Y-117703294D01*
X214947819Y-117723554D01*
X214894105Y-117769979D01*
X214841907Y-117781300D01*
X208797795Y-117781300D01*
X208729674Y-117761298D01*
X208708700Y-117744395D01*
X208606421Y-117642116D01*
X208572395Y-117579804D01*
X208570301Y-117567065D01*
X208565397Y-117523345D01*
X208565125Y-117522564D01*
X208569383Y-117454160D01*
X208611402Y-117396934D01*
X208677691Y-117371509D01*
X208687840Y-117371100D01*
X208810755Y-117371100D01*
X208819324Y-117371392D01*
X208867258Y-117374660D01*
X208867262Y-117374660D01*
X208874834Y-117375176D01*
X208882311Y-117373871D01*
X208882314Y-117373871D01*
X208935447Y-117364598D01*
X208941971Y-117363635D01*
X208995491Y-117357158D01*
X209003035Y-117356245D01*
X209010145Y-117353558D01*
X209015048Y-117352354D01*
X209025534Y-117349486D01*
X209030326Y-117348039D01*
X209037804Y-117346734D01*
X209044757Y-117343682D01*
X209094141Y-117322005D01*
X209100246Y-117319514D01*
X209150682Y-117300455D01*
X209150685Y-117300453D01*
X209157789Y-117297769D01*
X209164046Y-117293469D01*
X209168514Y-117291133D01*
X209177960Y-117285875D01*
X209182326Y-117283293D01*
X209189285Y-117280238D01*
X209238104Y-117242777D01*
X209243423Y-117238914D01*
X209287865Y-117208369D01*
X209294126Y-117204066D01*
X209334033Y-117159276D01*
X209339013Y-117154002D01*
X211133295Y-115359720D01*
X211195607Y-115325694D01*
X211266422Y-115330759D01*
X211323258Y-115373306D01*
X211330161Y-115383536D01*
X211343780Y-115406024D01*
X211348669Y-115411087D01*
X211348670Y-115411088D01*
X211404693Y-115469101D01*
X211469782Y-115536502D01*
X211621559Y-115635822D01*
X211628163Y-115638278D01*
X211628165Y-115638279D01*
X211784958Y-115696590D01*
X211784960Y-115696590D01*
X211791568Y-115699048D01*
X211875395Y-115710233D01*
X211964380Y-115722107D01*
X211964384Y-115722107D01*
X211971361Y-115723038D01*
X211978372Y-115722400D01*
X211978376Y-115722400D01*
X212120859Y-115709432D01*
X212152000Y-115706598D01*
X212158702Y-115704420D01*
X212158704Y-115704420D01*
X212317809Y-115652724D01*
X212317812Y-115652723D01*
X212324508Y-115650547D01*
X212480312Y-115557669D01*
X212611666Y-115432582D01*
X212712043Y-115281502D01*
X212761228Y-115152024D01*
X212773955Y-115118520D01*
X212773956Y-115118518D01*
X212776455Y-115111938D01*
X212796871Y-114966668D01*
X212826159Y-114901995D01*
X212832550Y-114895110D01*
X213138655Y-114589005D01*
X213200967Y-114554979D01*
X213227750Y-114552100D01*
X214150378Y-114552100D01*
X214218499Y-114572102D01*
X214264992Y-114625758D01*
X214275777Y-114665804D01*
X214284584Y-114755621D01*
X214291363Y-114824760D01*
X214348618Y-114996873D01*
X214352265Y-115002895D01*
X214352266Y-115002897D01*
X214435476Y-115140294D01*
X214453700Y-115205565D01*
X214453700Y-115312591D01*
X214433698Y-115380712D01*
X214380042Y-115427205D01*
X214368304Y-115431869D01*
X214341052Y-115441146D01*
X214341049Y-115441147D01*
X214334379Y-115443418D01*
X214309929Y-115458460D01*
X214185895Y-115534766D01*
X214185892Y-115534768D01*
X214179888Y-115538462D01*
X214174853Y-115543393D01*
X214174850Y-115543395D01*
X214055325Y-115660443D01*
X214050293Y-115665371D01*
X213952035Y-115817838D01*
X213949626Y-115824458D01*
X213949624Y-115824461D01*
X213906291Y-115943518D01*
X213889997Y-115988285D01*
X213867263Y-116168240D01*
X213884963Y-116348760D01*
X213942218Y-116520873D01*
X213945865Y-116526895D01*
X213945866Y-116526897D01*
X214007143Y-116628077D01*
X214036180Y-116676024D01*
X214041069Y-116681087D01*
X214041070Y-116681088D01*
X214096358Y-116738340D01*
X214162182Y-116806502D01*
X214313959Y-116905822D01*
X214320563Y-116908278D01*
X214320565Y-116908279D01*
X214477358Y-116966590D01*
X214477360Y-116966590D01*
X214483968Y-116969048D01*
X214567795Y-116980233D01*
X214656780Y-116992107D01*
X214656784Y-116992107D01*
X214663761Y-116993038D01*
X214670772Y-116992400D01*
X214670776Y-116992400D01*
X214813259Y-116979432D01*
X214844400Y-116976598D01*
X214851102Y-116974420D01*
X214851104Y-116974420D01*
X215010209Y-116922724D01*
X215010212Y-116922723D01*
X215016908Y-116920547D01*
X215172712Y-116827669D01*
X215304066Y-116702582D01*
X215404443Y-116551502D01*
X215468855Y-116381938D01*
X215478123Y-116315996D01*
X215511046Y-116247280D01*
X215540859Y-116215532D01*
X215543613Y-116212691D01*
X215563334Y-116192970D01*
X215565812Y-116189775D01*
X215573518Y-116180753D01*
X215582792Y-116170877D01*
X215603786Y-116148521D01*
X215613546Y-116130768D01*
X215624399Y-116114245D01*
X215631953Y-116104506D01*
X215636813Y-116098241D01*
X215654376Y-116057657D01*
X215659583Y-116047027D01*
X215680895Y-116008260D01*
X215682866Y-116000583D01*
X215682868Y-116000578D01*
X215685932Y-115988642D01*
X215692338Y-115969930D01*
X215697234Y-115958617D01*
X215700381Y-115951345D01*
X215707297Y-115907681D01*
X215709704Y-115896060D01*
X215718728Y-115860911D01*
X215718728Y-115860910D01*
X215720700Y-115853230D01*
X215720700Y-115832969D01*
X215722251Y-115813258D01*
X215724179Y-115801085D01*
X215725419Y-115793257D01*
X215721259Y-115749246D01*
X215720700Y-115737389D01*
X215720700Y-115201220D01*
X215741752Y-115131493D01*
X215806942Y-115033373D01*
X215810843Y-115027502D01*
X215875255Y-114857938D01*
X215878160Y-114837268D01*
X215899948Y-114682239D01*
X215899948Y-114682236D01*
X215900499Y-114678317D01*
X215900554Y-114674358D01*
X215900858Y-114670409D01*
X215902318Y-114670521D01*
X215921493Y-114608483D01*
X215975803Y-114562756D01*
X216026515Y-114552100D01*
X216814507Y-114552100D01*
X216883500Y-114572668D01*
X216934573Y-114606089D01*
X216955559Y-114619822D01*
X216962163Y-114622278D01*
X216962165Y-114622279D01*
X217118958Y-114680590D01*
X217118960Y-114680590D01*
X217125568Y-114683048D01*
X217191977Y-114691909D01*
X217298380Y-114706107D01*
X217298384Y-114706107D01*
X217305361Y-114707038D01*
X217312372Y-114706400D01*
X217312376Y-114706400D01*
X217454859Y-114693432D01*
X217486000Y-114690598D01*
X217492702Y-114688420D01*
X217492704Y-114688420D01*
X217651809Y-114636724D01*
X217651812Y-114636723D01*
X217658508Y-114634547D01*
X217775667Y-114564706D01*
X217808260Y-114545277D01*
X217808262Y-114545276D01*
X217814312Y-114541669D01*
X217945666Y-114416582D01*
X218046043Y-114265502D01*
X218101374Y-114119843D01*
X218107955Y-114102520D01*
X218107956Y-114102518D01*
X218110455Y-114095938D01*
X218111912Y-114085571D01*
X218135148Y-113920239D01*
X218135148Y-113920236D01*
X218135699Y-113916317D01*
X218136016Y-113893600D01*
X218115797Y-113713345D01*
X218111582Y-113701242D01*
X218058464Y-113548706D01*
X218058462Y-113548703D01*
X218056145Y-113542048D01*
X218044300Y-113523092D01*
X217963759Y-113394198D01*
X217960026Y-113388224D01*
X217934231Y-113362248D01*
X217837178Y-113264515D01*
X217837174Y-113264512D01*
X217832215Y-113259518D01*
X217679066Y-113162327D01*
X217649863Y-113151928D01*
X217514825Y-113103843D01*
X217514820Y-113103842D01*
X217508190Y-113101481D01*
X217501202Y-113100648D01*
X217501199Y-113100647D01*
X217378098Y-113085968D01*
X217328080Y-113080004D01*
X217321077Y-113080740D01*
X217321076Y-113080740D01*
X217154688Y-113098228D01*
X217154686Y-113098229D01*
X217147688Y-113098964D01*
X217057494Y-113129668D01*
X216982649Y-113155147D01*
X216982646Y-113155148D01*
X216975979Y-113157418D01*
X216969981Y-113161108D01*
X216969979Y-113161109D01*
X216880076Y-113216418D01*
X216814054Y-113235100D01*
X213562105Y-113235100D01*
X213493984Y-113215098D01*
X213447491Y-113161442D01*
X213437387Y-113091168D01*
X213466881Y-113026588D01*
X213473010Y-113020005D01*
X216263842Y-110229173D01*
X216326154Y-110195147D01*
X216396969Y-110200212D01*
X216453805Y-110242759D01*
X216474532Y-110285427D01*
X216475562Y-110293251D01*
X216536876Y-110441276D01*
X216541903Y-110447827D01*
X216541904Y-110447829D01*
X216609920Y-110536469D01*
X216609926Y-110536475D01*
X216634413Y-110568387D01*
X216640968Y-110573417D01*
X216659779Y-110587852D01*
X216672170Y-110598719D01*
X216940507Y-110867056D01*
X216974533Y-110929368D01*
X216976811Y-110943856D01*
X216983763Y-111014760D01*
X217041018Y-111186873D01*
X217044665Y-111192895D01*
X217044666Y-111192897D01*
X217128622Y-111331525D01*
X217134980Y-111342024D01*
X217139869Y-111347087D01*
X217139870Y-111347088D01*
X217216721Y-111426668D01*
X217260982Y-111472502D01*
X217335960Y-111521566D01*
X217388486Y-111555938D01*
X217412759Y-111571822D01*
X217419363Y-111574278D01*
X217419365Y-111574279D01*
X217576158Y-111632590D01*
X217576160Y-111632590D01*
X217582768Y-111635048D01*
X217657631Y-111645037D01*
X217755580Y-111658107D01*
X217755584Y-111658107D01*
X217762561Y-111659038D01*
X217769572Y-111658400D01*
X217769576Y-111658400D01*
X217936183Y-111643237D01*
X217936186Y-111643236D01*
X217943200Y-111642598D01*
X217949898Y-111640422D01*
X217956142Y-111639140D01*
X218026893Y-111645037D01*
X218083224Y-111688249D01*
X218089251Y-111697296D01*
X218141181Y-111783043D01*
X218150980Y-111799224D01*
X218155869Y-111804287D01*
X218155870Y-111804288D01*
X218191832Y-111841527D01*
X218276982Y-111929702D01*
X218428759Y-112029022D01*
X218435363Y-112031478D01*
X218435365Y-112031479D01*
X218592158Y-112089790D01*
X218592160Y-112089790D01*
X218598768Y-112092248D01*
X218682595Y-112103433D01*
X218771580Y-112115307D01*
X218771584Y-112115307D01*
X218778561Y-112116238D01*
X218785572Y-112115600D01*
X218785576Y-112115600D01*
X218928059Y-112102632D01*
X218959200Y-112099798D01*
X218965902Y-112097620D01*
X218965904Y-112097620D01*
X219125009Y-112045924D01*
X219125012Y-112045923D01*
X219131708Y-112043747D01*
X219235164Y-111982075D01*
X219281460Y-111954477D01*
X219281462Y-111954476D01*
X219287512Y-111950869D01*
X219418866Y-111825782D01*
X219519243Y-111674702D01*
X219583655Y-111505138D01*
X219584635Y-111498166D01*
X219608348Y-111329439D01*
X219608348Y-111329436D01*
X219608899Y-111325517D01*
X219609216Y-111302800D01*
X219588997Y-111122545D01*
X219575633Y-111084168D01*
X219531664Y-110957906D01*
X219531662Y-110957903D01*
X219529345Y-110951248D01*
X219515673Y-110929368D01*
X219436962Y-110803402D01*
X219436959Y-110803399D01*
X219433226Y-110797424D01*
X219428259Y-110792423D01*
X219427777Y-110791814D01*
X219401140Y-110726003D01*
X219414311Y-110656239D01*
X219449818Y-110613589D01*
X219459205Y-110606386D01*
X219459211Y-110606380D01*
X219465757Y-110601357D01*
X219472266Y-110592875D01*
X219515545Y-110536472D01*
X219554259Y-110486019D01*
X219559286Y-110479468D01*
X219580876Y-110427345D01*
X219597745Y-110386619D01*
X219614921Y-110345154D01*
X219614922Y-110345151D01*
X219618081Y-110337524D01*
X219633100Y-110223444D01*
X219633100Y-110223442D01*
X219634226Y-110214891D01*
X219637057Y-110193388D01*
X219638135Y-110185200D01*
X219634178Y-110155144D01*
X219633100Y-110138697D01*
X219633100Y-109622103D01*
X219634178Y-109605656D01*
X219637057Y-109583788D01*
X219638135Y-109575600D01*
X219618081Y-109423276D01*
X219559286Y-109281333D01*
X219489240Y-109190046D01*
X219489237Y-109190043D01*
X219465757Y-109159443D01*
X219459207Y-109154417D01*
X219459204Y-109154414D01*
X219441710Y-109140991D01*
X219429319Y-109130125D01*
X218872905Y-108573712D01*
X218838880Y-108511399D01*
X218836000Y-108484616D01*
X218836000Y-100674240D01*
X219353663Y-100674240D01*
X219371363Y-100854760D01*
X219428618Y-101026873D01*
X219432265Y-101032895D01*
X219432266Y-101032897D01*
X219443178Y-101050914D01*
X219522580Y-101182024D01*
X219648582Y-101312502D01*
X219800359Y-101411822D01*
X219806963Y-101414278D01*
X219806965Y-101414279D01*
X219963758Y-101472590D01*
X219963760Y-101472590D01*
X219970368Y-101475048D01*
X220054195Y-101486233D01*
X220143180Y-101498107D01*
X220143184Y-101498107D01*
X220150161Y-101499038D01*
X220157172Y-101498400D01*
X220157176Y-101498400D01*
X220299659Y-101485432D01*
X220330800Y-101482598D01*
X220337502Y-101480420D01*
X220337504Y-101480420D01*
X220496609Y-101428724D01*
X220496612Y-101428723D01*
X220503308Y-101426547D01*
X220659112Y-101333669D01*
X220790466Y-101208582D01*
X220890843Y-101057502D01*
X220955255Y-100887938D01*
X220958979Y-100861444D01*
X220964839Y-100819745D01*
X220994127Y-100755071D01*
X221000518Y-100748186D01*
X221548177Y-100200527D01*
X221610489Y-100166501D01*
X221625837Y-100164143D01*
X221651600Y-100161798D01*
X221658302Y-100159620D01*
X221658304Y-100159620D01*
X221817409Y-100107924D01*
X221817412Y-100107923D01*
X221824108Y-100105747D01*
X221926914Y-100044462D01*
X221973860Y-100016477D01*
X221973862Y-100016476D01*
X221979912Y-100012869D01*
X222111266Y-99887782D01*
X222211643Y-99736702D01*
X222276055Y-99567138D01*
X222301299Y-99387517D01*
X222301616Y-99364800D01*
X222281397Y-99184545D01*
X222279080Y-99177891D01*
X222224064Y-99019906D01*
X222224062Y-99019903D01*
X222221745Y-99013248D01*
X222125626Y-98859424D01*
X222111941Y-98845643D01*
X222002778Y-98735715D01*
X222002774Y-98735712D01*
X221997815Y-98730718D01*
X221986697Y-98723662D01*
X221917486Y-98679740D01*
X221844666Y-98633527D01*
X221806009Y-98619762D01*
X221680425Y-98575043D01*
X221680420Y-98575042D01*
X221673790Y-98572681D01*
X221666802Y-98571848D01*
X221666799Y-98571847D01*
X221543698Y-98557168D01*
X221493680Y-98551204D01*
X221486677Y-98551940D01*
X221486676Y-98551940D01*
X221320288Y-98569428D01*
X221320286Y-98569429D01*
X221313288Y-98570164D01*
X221141579Y-98628618D01*
X221135575Y-98632312D01*
X220993095Y-98719966D01*
X220993092Y-98719968D01*
X220987088Y-98723662D01*
X220982053Y-98728593D01*
X220982050Y-98728595D01*
X220862525Y-98845643D01*
X220857493Y-98850571D01*
X220759235Y-99003038D01*
X220756826Y-99009658D01*
X220756824Y-99009661D01*
X220699606Y-99166866D01*
X220697197Y-99173485D01*
X220690137Y-99229368D01*
X220661757Y-99294441D01*
X220654227Y-99302668D01*
X220106108Y-99850787D01*
X220043796Y-99884813D01*
X220030186Y-99887002D01*
X220022762Y-99887782D01*
X219999488Y-99890228D01*
X219999486Y-99890228D01*
X219992488Y-99890964D01*
X219820779Y-99949418D01*
X219814775Y-99953112D01*
X219672295Y-100040766D01*
X219672292Y-100040768D01*
X219666288Y-100044462D01*
X219661253Y-100049393D01*
X219661250Y-100049395D01*
X219545818Y-100162435D01*
X219536693Y-100171371D01*
X219438435Y-100323838D01*
X219376397Y-100494285D01*
X219353663Y-100674240D01*
X218836000Y-100674240D01*
X218836000Y-90632454D01*
X218856002Y-90564333D01*
X218866736Y-90551337D01*
X218866137Y-90550835D01*
X218870661Y-90545443D01*
X218875766Y-90540582D01*
X218976143Y-90389502D01*
X219040555Y-90219938D01*
X219041601Y-90212497D01*
X219065248Y-90044239D01*
X219065248Y-90044236D01*
X219065799Y-90040317D01*
X219066116Y-90017600D01*
X219045897Y-89837345D01*
X219043580Y-89830691D01*
X218988564Y-89672706D01*
X218988562Y-89672703D01*
X218986245Y-89666048D01*
X218890126Y-89512224D01*
X218848733Y-89470541D01*
X218767278Y-89388515D01*
X218767274Y-89388512D01*
X218762315Y-89383518D01*
X218609166Y-89286327D01*
X218608680Y-89286154D01*
X218558130Y-89240054D01*
X218540609Y-89188692D01*
X218522982Y-89031544D01*
X218522197Y-89024545D01*
X218519880Y-89017891D01*
X218464864Y-88859906D01*
X218464862Y-88859903D01*
X218462545Y-88853248D01*
X218366426Y-88699424D01*
X218361464Y-88694427D01*
X218243578Y-88575715D01*
X218243574Y-88575712D01*
X218238615Y-88570718D01*
X218085466Y-88473527D01*
X218056263Y-88463128D01*
X217921225Y-88415043D01*
X217921220Y-88415042D01*
X217914590Y-88412681D01*
X217907604Y-88411848D01*
X217907600Y-88411847D01*
X217837030Y-88403432D01*
X217787980Y-88397584D01*
X217722708Y-88369657D01*
X217682895Y-88310874D01*
X217676900Y-88272470D01*
X217676900Y-86641400D01*
X217696902Y-86573279D01*
X217716008Y-86550154D01*
X217733391Y-86533600D01*
X217793266Y-86476582D01*
X217893643Y-86325502D01*
X217958055Y-86155938D01*
X217983299Y-85976317D01*
X217983616Y-85953600D01*
X217963397Y-85773345D01*
X217903745Y-85602048D01*
X217807626Y-85448224D01*
X217802664Y-85443227D01*
X217684778Y-85324515D01*
X217684774Y-85324512D01*
X217679815Y-85319518D01*
X217526666Y-85222327D01*
X217497463Y-85211928D01*
X217362425Y-85163843D01*
X217362420Y-85163842D01*
X217355790Y-85161481D01*
X217348802Y-85160648D01*
X217348799Y-85160647D01*
X217216764Y-85144903D01*
X217175680Y-85140004D01*
X217168677Y-85140740D01*
X217168676Y-85140740D01*
X217150961Y-85142602D01*
X217129070Y-85144903D01*
X217059233Y-85132131D01*
X217007386Y-85083629D01*
X216989900Y-85019593D01*
X216989900Y-70831023D01*
X220602295Y-70831023D01*
X220602445Y-70834204D01*
X220617588Y-71155292D01*
X220620472Y-71216456D01*
X220677506Y-71598079D01*
X220678292Y-71601161D01*
X220678292Y-71601163D01*
X220712938Y-71737083D01*
X220772813Y-71971985D01*
X220905418Y-72334346D01*
X221073963Y-72681451D01*
X221075635Y-72684158D01*
X221075636Y-72684160D01*
X221264043Y-72989215D01*
X221276723Y-73009746D01*
X221303787Y-73045016D01*
X221492844Y-73291401D01*
X221511620Y-73315871D01*
X221513802Y-73318187D01*
X221513811Y-73318197D01*
X221766911Y-73586779D01*
X221776251Y-73596690D01*
X221778656Y-73598774D01*
X221778662Y-73598779D01*
X222065499Y-73847244D01*
X222067906Y-73849329D01*
X222383599Y-74071202D01*
X222720097Y-74260036D01*
X222723011Y-74261303D01*
X222723015Y-74261305D01*
X222867958Y-74324328D01*
X223073955Y-74413898D01*
X223249094Y-74469792D01*
X223438507Y-74530242D01*
X223438515Y-74530244D01*
X223441551Y-74531213D01*
X223646887Y-74574484D01*
X223816001Y-74610122D01*
X223816006Y-74610123D01*
X223819120Y-74610779D01*
X224202797Y-74651782D01*
X224205984Y-74651799D01*
X224205990Y-74651799D01*
X224381209Y-74652716D01*
X224588653Y-74653802D01*
X224734884Y-74639722D01*
X224969573Y-74617124D01*
X224969578Y-74617123D01*
X224972738Y-74616819D01*
X224975857Y-74616196D01*
X224975862Y-74616195D01*
X225347992Y-74541836D01*
X225347991Y-74541836D01*
X225351120Y-74541211D01*
X225635099Y-74453848D01*
X225716882Y-74428688D01*
X225716885Y-74428687D01*
X225719924Y-74427752D01*
X225722852Y-74426515D01*
X225722858Y-74426513D01*
X225882753Y-74358970D01*
X226075374Y-74277604D01*
X226078177Y-74276070D01*
X226078182Y-74276067D01*
X226224037Y-74196213D01*
X226413831Y-74092304D01*
X226731829Y-73873750D01*
X226734268Y-73871682D01*
X226734274Y-73871677D01*
X227023674Y-73626249D01*
X227023682Y-73626241D01*
X227026114Y-73624179D01*
X227028322Y-73621884D01*
X227028330Y-73621877D01*
X227291456Y-73348448D01*
X227291458Y-73348445D01*
X227293671Y-73346146D01*
X227319393Y-73313342D01*
X227529787Y-73045016D01*
X227529790Y-73045011D01*
X227531761Y-73042498D01*
X227737948Y-72716343D01*
X227739368Y-72713495D01*
X227739373Y-72713486D01*
X227908698Y-72373871D01*
X227910118Y-72371023D01*
X228046511Y-72010071D01*
X228145728Y-71637183D01*
X228206755Y-71256178D01*
X228209046Y-71216456D01*
X228220352Y-71020360D01*
X228228967Y-70870956D01*
X228229060Y-70844334D01*
X228227194Y-70807496D01*
X228209699Y-70462140D01*
X228209698Y-70462135D01*
X228209538Y-70458967D01*
X228173145Y-70221138D01*
X228151656Y-70080705D01*
X228151654Y-70080696D01*
X228151172Y-70077545D01*
X228093368Y-69854032D01*
X228055357Y-69707054D01*
X228055354Y-69707046D01*
X228054560Y-69703974D01*
X228051001Y-69694351D01*
X227975209Y-69489461D01*
X227920691Y-69342078D01*
X227914702Y-69329853D01*
X227752337Y-68998423D01*
X227752334Y-68998417D01*
X227750936Y-68995564D01*
X227614321Y-68776083D01*
X227548718Y-68670687D01*
X227548710Y-68670676D01*
X227547031Y-68667978D01*
X227395593Y-68472040D01*
X227313019Y-68365201D01*
X227313014Y-68365196D01*
X227311067Y-68362676D01*
X227130306Y-68172193D01*
X227047656Y-68085098D01*
X227047653Y-68085096D01*
X227045457Y-68082781D01*
X227032149Y-68071334D01*
X226755345Y-67833246D01*
X226755344Y-67833245D01*
X226752922Y-67831162D01*
X226630538Y-67745785D01*
X226439071Y-67612215D01*
X226439063Y-67612210D01*
X226436457Y-67610392D01*
X226433667Y-67608839D01*
X226102087Y-67424284D01*
X226102085Y-67424283D01*
X226099302Y-67422734D01*
X226096382Y-67421476D01*
X226096377Y-67421474D01*
X225747843Y-67271371D01*
X225747833Y-67271367D01*
X225744909Y-67270108D01*
X225376906Y-67154078D01*
X225097675Y-67096252D01*
X225002186Y-67076477D01*
X225002183Y-67076477D01*
X224999061Y-67075830D01*
X224704465Y-67045386D01*
X224618400Y-67036492D01*
X224618397Y-67036492D01*
X224615244Y-67036166D01*
X224612078Y-67036160D01*
X224612069Y-67036160D01*
X224421596Y-67035828D01*
X224229383Y-67035493D01*
X224054263Y-67052972D01*
X223848613Y-67073498D01*
X223848609Y-67073499D01*
X223845429Y-67073816D01*
X223842289Y-67074455D01*
X223842288Y-67074455D01*
X223470447Y-67150107D01*
X223470440Y-67150109D01*
X223467313Y-67150745D01*
X223098908Y-67265490D01*
X223095968Y-67266744D01*
X222746921Y-67415625D01*
X222746917Y-67415627D01*
X222743984Y-67416878D01*
X222406176Y-67603358D01*
X222403555Y-67605173D01*
X222403550Y-67605176D01*
X222152386Y-67779090D01*
X222088942Y-67823021D01*
X221795531Y-68073619D01*
X221528946Y-68352584D01*
X221526989Y-68355098D01*
X221526988Y-68355099D01*
X221301038Y-68645345D01*
X221291917Y-68657061D01*
X221290221Y-68659765D01*
X221290218Y-68659769D01*
X221261677Y-68705268D01*
X221086870Y-68983933D01*
X220915906Y-69329853D01*
X220780774Y-69691278D01*
X220682859Y-70064510D01*
X220665014Y-70178468D01*
X220623789Y-70441724D01*
X220623162Y-70445726D01*
X220622991Y-70448888D01*
X220622990Y-70448895D01*
X220604294Y-70794100D01*
X220603157Y-70815102D01*
X220602295Y-70831023D01*
X216989900Y-70831023D01*
X216989900Y-70447628D01*
X217009902Y-70379507D01*
X217019096Y-70366974D01*
X217140602Y-70221138D01*
X217140603Y-70221137D01*
X217144546Y-70216404D01*
X217239222Y-70042759D01*
X217298365Y-69854032D01*
X217314332Y-69707054D01*
X217319059Y-69663537D01*
X217319059Y-69663533D01*
X217319724Y-69657412D01*
X217302487Y-69460387D01*
X217300768Y-69454470D01*
X217300767Y-69454465D01*
X217249027Y-69276378D01*
X217247309Y-69270464D01*
X217156292Y-69094874D01*
X217079297Y-68998423D01*
X217061858Y-68976577D01*
X217061851Y-68976570D01*
X217059662Y-68973827D01*
X215031255Y-66945421D01*
X215022153Y-66935278D01*
X215002297Y-66910582D01*
X214998432Y-66905775D01*
X214959978Y-66873508D01*
X214956331Y-66870328D01*
X214954519Y-66868685D01*
X214952325Y-66866491D01*
X214919051Y-66839158D01*
X214918253Y-66838496D01*
X214846926Y-66778646D01*
X214842256Y-66776078D01*
X214838139Y-66772697D01*
X214775879Y-66739314D01*
X214756314Y-66728823D01*
X214755155Y-66728194D01*
X214679019Y-66686338D01*
X214679011Y-66686335D01*
X214673613Y-66683367D01*
X214668531Y-66681755D01*
X214663837Y-66679238D01*
X214574869Y-66652038D01*
X214573841Y-66651718D01*
X214485094Y-66623565D01*
X214479798Y-66622971D01*
X214474702Y-66621413D01*
X214382143Y-66612010D01*
X214381007Y-66611889D01*
X214347392Y-66608119D01*
X214334670Y-66606692D01*
X214334666Y-66606692D01*
X214331173Y-66606300D01*
X214327646Y-66606300D01*
X214326661Y-66606245D01*
X214320981Y-66605798D01*
X214291575Y-66602811D01*
X214284063Y-66602048D01*
X214284061Y-66602048D01*
X214277938Y-66601426D01*
X214235659Y-66605423D01*
X214232291Y-66605741D01*
X214220433Y-66606300D01*
X140717031Y-66606300D01*
X140713975Y-66606600D01*
X140713968Y-66606600D01*
X140658715Y-66612018D01*
X140569967Y-66620720D01*
X140564066Y-66622502D01*
X140564064Y-66622502D01*
X140509848Y-66638871D01*
X140380631Y-66677884D01*
X140206004Y-66770734D01*
X140122974Y-66838452D01*
X140057513Y-66891840D01*
X140057510Y-66891843D01*
X140052738Y-66895735D01*
X140048811Y-66900482D01*
X140048809Y-66900484D01*
X139930599Y-67043375D01*
X139930597Y-67043379D01*
X139926670Y-67048125D01*
X139832602Y-67222099D01*
X139774118Y-67411032D01*
X139773474Y-67417157D01*
X139773474Y-67417158D01*
X139757370Y-67570384D01*
X139753445Y-67607725D01*
X139754004Y-67613865D01*
X139769561Y-67784805D01*
X139771370Y-67804688D01*
X139773108Y-67810594D01*
X139773109Y-67810598D01*
X139779775Y-67833246D01*
X139827210Y-67994419D01*
X139830063Y-67999877D01*
X139830065Y-67999881D01*
X139867420Y-68071334D01*
X139918840Y-68169690D01*
X140042768Y-68323825D01*
X140194274Y-68450954D01*
X140199677Y-68453924D01*
X140199681Y-68453927D01*
X140366323Y-68545538D01*
X140416382Y-68595883D01*
X140431276Y-68665300D01*
X140406276Y-68731749D01*
X140394718Y-68745048D01*
X139764491Y-69375275D01*
X139670697Y-69489461D01*
X139577238Y-69663763D01*
X139519413Y-69852898D01*
X139513536Y-69910751D01*
X139500725Y-70036877D01*
X139499426Y-70049662D01*
X139500006Y-70055793D01*
X139515636Y-70221138D01*
X139518039Y-70246562D01*
X139574541Y-70436096D01*
X139666782Y-70611046D01*
X139670658Y-70615832D01*
X139670659Y-70615834D01*
X139752596Y-70717017D01*
X139791247Y-70764747D01*
X139795982Y-70768692D01*
X139909204Y-70863025D01*
X139948736Y-70921997D01*
X139950111Y-70992981D01*
X139912890Y-71053438D01*
X139848892Y-71084176D01*
X139828551Y-71085829D01*
X123420341Y-71085827D01*
X123265165Y-71085827D01*
X123245726Y-71084318D01*
X123231038Y-71082024D01*
X123231035Y-71082024D01*
X123222165Y-71080639D01*
X123213134Y-71081816D01*
X123182700Y-71082074D01*
X123120640Y-71075057D01*
X123093144Y-71068772D01*
X123016064Y-71041774D01*
X122990656Y-71029529D01*
X122921517Y-70986064D01*
X122899468Y-70968474D01*
X122841731Y-70910719D01*
X122824148Y-70888666D01*
X122780702Y-70819512D01*
X122768465Y-70794100D01*
X122759574Y-70768692D01*
X122741489Y-70717009D01*
X122735215Y-70689523D01*
X122728945Y-70633920D01*
X122728160Y-70618281D01*
X122728267Y-70609417D01*
X122729648Y-70600541D01*
X122725234Y-70566816D01*
X122724168Y-70550464D01*
X122724170Y-70508972D01*
X122724231Y-68670687D01*
X122724284Y-67113845D01*
X122726036Y-67092909D01*
X122726346Y-67091072D01*
X122729358Y-67073202D01*
X122729515Y-67060650D01*
X122728418Y-67052972D01*
X122727436Y-67046096D01*
X122726488Y-67037232D01*
X122713135Y-66849849D01*
X122712815Y-66845357D01*
X122666977Y-66634443D01*
X122591576Y-66432204D01*
X122488148Y-66242760D01*
X122358801Y-66069974D01*
X122355592Y-66066765D01*
X122209354Y-65920547D01*
X122209350Y-65920543D01*
X122206170Y-65917364D01*
X122155798Y-65879667D01*
X122036976Y-65790742D01*
X122036972Y-65790740D01*
X122033365Y-65788040D01*
X121843908Y-65684638D01*
X121641658Y-65609265D01*
X121637257Y-65608309D01*
X121637253Y-65608308D01*
X121435140Y-65564412D01*
X121435139Y-65564412D01*
X121430738Y-65563456D01*
X121255917Y-65551023D01*
X121244005Y-65549602D01*
X121232798Y-65547721D01*
X121232786Y-65547720D01*
X121227995Y-65546916D01*
X121221827Y-65546843D01*
X121220313Y-65546825D01*
X121220308Y-65546825D01*
X121215443Y-65546768D01*
X121187940Y-65550719D01*
X121170026Y-65552000D01*
X105013671Y-65551685D01*
X86168780Y-65551318D01*
X86147931Y-65549581D01*
X86132790Y-65547040D01*
X86132782Y-65547039D01*
X86127995Y-65546236D01*
X86121875Y-65546164D01*
X86120313Y-65546145D01*
X86120308Y-65546145D01*
X86115443Y-65546088D01*
X86101388Y-65548107D01*
X86092527Y-65549061D01*
X86035800Y-65553143D01*
X85900176Y-65562901D01*
X85895775Y-65563860D01*
X85895770Y-65563861D01*
X85754205Y-65594718D01*
X85689304Y-65608865D01*
X85487118Y-65684369D01*
X85483181Y-65686521D01*
X85483174Y-65686524D01*
X85301686Y-65785717D01*
X85301680Y-65785721D01*
X85297735Y-65787877D01*
X85294131Y-65790577D01*
X85128602Y-65914588D01*
X85128598Y-65914591D01*
X85125008Y-65917281D01*
X85121835Y-65920456D01*
X85121833Y-65920458D01*
X84975633Y-66066765D01*
X84975629Y-66066770D01*
X84972454Y-66069947D01*
X84969759Y-66073550D01*
X84845873Y-66239164D01*
X84845869Y-66239170D01*
X84843177Y-66242769D01*
X84787870Y-66344138D01*
X84741962Y-66428279D01*
X84741959Y-66428285D01*
X84739808Y-66432228D01*
X84738240Y-66436437D01*
X84738237Y-66436443D01*
X84667821Y-66625427D01*
X84664452Y-66634469D01*
X84618643Y-66845375D01*
X84618324Y-66849860D01*
X84618323Y-66849864D01*
X84606194Y-67020191D01*
X84604771Y-67032111D01*
X84602893Y-67043291D01*
X84602892Y-67043303D01*
X84602086Y-67048102D01*
X84601937Y-67060654D01*
X83872632Y-67060654D01*
X83798570Y-66910473D01*
X83796015Y-66905292D01*
X83788879Y-66895735D01*
X83702285Y-66779772D01*
X83668622Y-66734691D01*
X83512271Y-66590163D01*
X83332201Y-66476547D01*
X83134441Y-66397649D01*
X83128781Y-66396523D01*
X83128777Y-66396522D01*
X82931282Y-66357238D01*
X82931280Y-66357238D01*
X82925615Y-66356111D01*
X82919840Y-66356035D01*
X82919836Y-66356035D01*
X82813161Y-66354639D01*
X82712716Y-66353324D01*
X82707019Y-66354303D01*
X82707018Y-66354303D01*
X82508564Y-66388403D01*
X82508561Y-66388404D01*
X82502874Y-66389381D01*
X82303116Y-66463075D01*
X82120134Y-66571939D01*
X81960054Y-66712325D01*
X81828238Y-66879533D01*
X81825549Y-66884644D01*
X81825547Y-66884647D01*
X81790643Y-66950989D01*
X81729100Y-67067962D01*
X81727386Y-67073483D01*
X81727384Y-67073487D01*
X81714853Y-67113845D01*
X81665961Y-67271302D01*
X81640936Y-67482744D01*
X79707119Y-67482744D01*
X79602087Y-67424284D01*
X79602085Y-67424283D01*
X79599302Y-67422734D01*
X79596382Y-67421476D01*
X79596377Y-67421474D01*
X79247843Y-67271371D01*
X79247833Y-67271367D01*
X79244909Y-67270108D01*
X78876906Y-67154078D01*
X78597675Y-67096252D01*
X78502186Y-67076477D01*
X78502183Y-67076477D01*
X78499061Y-67075830D01*
X78204465Y-67045386D01*
X78118400Y-67036492D01*
X78118397Y-67036492D01*
X78115244Y-67036166D01*
X78112078Y-67036160D01*
X78112069Y-67036160D01*
X77921596Y-67035828D01*
X77729383Y-67035493D01*
X77554263Y-67052972D01*
X77348613Y-67073498D01*
X77348609Y-67073499D01*
X77345429Y-67073816D01*
X77342289Y-67074455D01*
X77342288Y-67074455D01*
X76970447Y-67150107D01*
X76970440Y-67150109D01*
X76967313Y-67150745D01*
X76598908Y-67265490D01*
X76595968Y-67266744D01*
X76246921Y-67415625D01*
X76246917Y-67415627D01*
X76243984Y-67416878D01*
X75906176Y-67603358D01*
X75903555Y-67605173D01*
X75903550Y-67605176D01*
X75652386Y-67779090D01*
X75588942Y-67823021D01*
X75295531Y-68073619D01*
X75028946Y-68352584D01*
X75026989Y-68355098D01*
X75026988Y-68355099D01*
X74801038Y-68645345D01*
X74791917Y-68657061D01*
X74790221Y-68659765D01*
X74790218Y-68659769D01*
X74761677Y-68705268D01*
X74586870Y-68983933D01*
X74415906Y-69329853D01*
X74280774Y-69691278D01*
X74182859Y-70064510D01*
X74165014Y-70178468D01*
X74123789Y-70441724D01*
X74123162Y-70445726D01*
X74122991Y-70448888D01*
X74122990Y-70448895D01*
X74104294Y-70794100D01*
X74103157Y-70815102D01*
X74102295Y-70831023D01*
X68470900Y-70831023D01*
X68470900Y-62141126D01*
X68490902Y-62073005D01*
X68507804Y-62052031D01*
X69113229Y-61446605D01*
X69175542Y-61412580D01*
X69202325Y-61409700D01*
X232905274Y-61409700D01*
X232973395Y-61429702D01*
G37*
%TD.AperFunction*%
%TA.AperFunction,Conductor*%
G36*
X210591947Y-90057412D02*
G01*
X210648783Y-90099959D01*
X210667473Y-90135695D01*
X210691018Y-90206473D01*
X210694665Y-90212495D01*
X210694666Y-90212497D01*
X210750591Y-90304840D01*
X210784980Y-90361624D01*
X210789869Y-90366687D01*
X210789870Y-90366688D01*
X210817571Y-90395373D01*
X210910982Y-90492102D01*
X210916878Y-90495960D01*
X211021363Y-90564333D01*
X211062759Y-90591422D01*
X211069363Y-90593878D01*
X211069365Y-90593879D01*
X211202388Y-90643350D01*
X211259264Y-90685842D01*
X211284138Y-90752339D01*
X211269113Y-90821727D01*
X211218958Y-90871977D01*
X211171639Y-90886757D01*
X211100618Y-90894221D01*
X211058689Y-90898628D01*
X211058688Y-90898628D01*
X211051688Y-90899364D01*
X210879979Y-90957818D01*
X210873975Y-90961512D01*
X210731495Y-91049166D01*
X210731492Y-91049168D01*
X210725488Y-91052862D01*
X210720453Y-91057793D01*
X210720450Y-91057795D01*
X210600925Y-91174843D01*
X210595893Y-91179771D01*
X210497635Y-91332238D01*
X210495226Y-91338858D01*
X210495224Y-91338861D01*
X210447743Y-91469314D01*
X210435597Y-91502685D01*
X210412863Y-91682640D01*
X210430563Y-91863160D01*
X210487818Y-92035273D01*
X210491465Y-92041295D01*
X210491466Y-92041297D01*
X210558412Y-92151838D01*
X210581780Y-92190424D01*
X210707782Y-92320902D01*
X210859559Y-92420222D01*
X210866163Y-92422678D01*
X210866165Y-92422679D01*
X211022958Y-92480990D01*
X211022960Y-92480990D01*
X211029568Y-92483448D01*
X211036553Y-92484380D01*
X211036557Y-92484381D01*
X211071487Y-92489041D01*
X211091587Y-92491723D01*
X211156463Y-92520558D01*
X211164017Y-92527521D01*
X212384795Y-93748300D01*
X212418821Y-93810612D01*
X212421700Y-93837395D01*
X212421700Y-95109731D01*
X212401611Y-95177986D01*
X212330254Y-95288710D01*
X212330250Y-95288719D01*
X212326435Y-95294638D01*
X212324026Y-95301258D01*
X212324025Y-95301259D01*
X212266806Y-95458466D01*
X212264397Y-95465085D01*
X212241663Y-95645040D01*
X212259363Y-95825560D01*
X212316618Y-95997673D01*
X212320265Y-96003695D01*
X212320266Y-96003697D01*
X212400478Y-96136143D01*
X212410580Y-96152824D01*
X212536582Y-96283302D01*
X212688359Y-96382622D01*
X212694963Y-96385078D01*
X212694965Y-96385079D01*
X212851758Y-96443390D01*
X212851760Y-96443390D01*
X212858368Y-96445848D01*
X212942195Y-96457033D01*
X213031180Y-96468907D01*
X213031184Y-96468907D01*
X213038161Y-96469838D01*
X213045172Y-96469200D01*
X213045176Y-96469200D01*
X213187659Y-96456232D01*
X213218800Y-96453398D01*
X213225502Y-96451220D01*
X213225504Y-96451220D01*
X213384609Y-96399524D01*
X213384612Y-96399523D01*
X213391308Y-96397347D01*
X213547112Y-96304469D01*
X213678466Y-96179382D01*
X213778843Y-96028302D01*
X213827173Y-95901075D01*
X213840755Y-95865320D01*
X213840756Y-95865318D01*
X213843255Y-95858738D01*
X213846600Y-95834940D01*
X213867948Y-95683039D01*
X213867948Y-95683036D01*
X213868499Y-95679117D01*
X213868816Y-95656400D01*
X213848597Y-95476145D01*
X213846280Y-95469491D01*
X213791264Y-95311506D01*
X213791262Y-95311503D01*
X213788945Y-95304848D01*
X213707846Y-95175061D01*
X213688700Y-95108292D01*
X213688700Y-93601568D01*
X213689227Y-93590385D01*
X213690902Y-93582892D01*
X213690134Y-93558437D01*
X213688762Y-93514802D01*
X213688700Y-93510844D01*
X213688700Y-93482944D01*
X213688196Y-93478953D01*
X213687263Y-93467111D01*
X213686123Y-93430836D01*
X213685874Y-93422911D01*
X213683662Y-93415297D01*
X213683661Y-93415292D01*
X213680223Y-93403459D01*
X213676212Y-93384095D01*
X213674667Y-93371864D01*
X213673674Y-93364003D01*
X213663119Y-93337343D01*
X213656640Y-93266644D01*
X213689412Y-93203664D01*
X213751032Y-93168400D01*
X213821935Y-93172049D01*
X213866524Y-93199111D01*
X213882851Y-93214443D01*
X213885693Y-93217198D01*
X213905430Y-93236935D01*
X213908627Y-93239415D01*
X213917647Y-93247118D01*
X213949879Y-93277386D01*
X213956825Y-93281205D01*
X213956828Y-93281207D01*
X213967634Y-93287148D01*
X213984153Y-93297999D01*
X214000159Y-93310414D01*
X214007428Y-93313559D01*
X214007432Y-93313562D01*
X214040737Y-93327974D01*
X214051387Y-93333191D01*
X214090140Y-93354495D01*
X214097815Y-93356466D01*
X214097816Y-93356466D01*
X214109762Y-93359533D01*
X214128467Y-93365937D01*
X214147055Y-93373981D01*
X214154878Y-93375220D01*
X214154888Y-93375223D01*
X214190724Y-93380899D01*
X214202344Y-93383305D01*
X214237489Y-93392328D01*
X214245170Y-93394300D01*
X214265424Y-93394300D01*
X214285134Y-93395851D01*
X214305143Y-93399020D01*
X214313035Y-93398274D01*
X214349161Y-93394859D01*
X214361019Y-93394300D01*
X214693503Y-93394300D01*
X214762496Y-93414868D01*
X214860430Y-93478954D01*
X214872759Y-93487022D01*
X214879363Y-93489478D01*
X214879365Y-93489479D01*
X215036158Y-93547790D01*
X215036160Y-93547790D01*
X215042768Y-93550248D01*
X215126595Y-93561433D01*
X215215580Y-93573307D01*
X215215584Y-93573307D01*
X215222561Y-93574238D01*
X215229572Y-93573600D01*
X215229576Y-93573600D01*
X215372059Y-93560632D01*
X215403200Y-93557798D01*
X215409902Y-93555620D01*
X215409904Y-93555620D01*
X215438193Y-93546428D01*
X215457965Y-93540004D01*
X215528931Y-93537976D01*
X215589729Y-93574639D01*
X215621055Y-93638351D01*
X215622900Y-93659837D01*
X215622900Y-108884695D01*
X215602898Y-108952816D01*
X215585995Y-108973790D01*
X210286950Y-114272835D01*
X210224638Y-114306861D01*
X210153823Y-114301796D01*
X210095404Y-114257087D01*
X210045338Y-114187155D01*
X210045333Y-114187149D01*
X210041365Y-114181607D01*
X209902747Y-114056796D01*
X209740563Y-113964662D01*
X209599187Y-113920899D01*
X209568895Y-113911522D01*
X209568893Y-113911522D01*
X209562375Y-113909504D01*
X209376502Y-113893896D01*
X209369742Y-113894798D01*
X209369740Y-113894798D01*
X209198378Y-113917662D01*
X209198376Y-113917663D01*
X209191612Y-113918565D01*
X209185202Y-113920898D01*
X209185198Y-113920899D01*
X209022747Y-113980027D01*
X209022743Y-113980029D01*
X209016333Y-113982362D01*
X208858841Y-114082309D01*
X208854568Y-114086129D01*
X208469302Y-114471395D01*
X208406990Y-114505421D01*
X208380207Y-114508300D01*
X207051390Y-114508300D01*
X207040847Y-114507858D01*
X206988901Y-114503496D01*
X206982141Y-114504398D01*
X206982139Y-114504398D01*
X206908398Y-114514237D01*
X206905343Y-114514607D01*
X206873111Y-114518109D01*
X206824563Y-114523383D01*
X206818099Y-114525558D01*
X206814824Y-114526278D01*
X206814428Y-114526348D01*
X206814004Y-114526471D01*
X206810784Y-114527262D01*
X206804011Y-114528166D01*
X206727677Y-114555949D01*
X206724802Y-114556956D01*
X206707568Y-114562756D01*
X206647777Y-114582878D01*
X206641923Y-114586396D01*
X206638916Y-114587785D01*
X206638511Y-114587952D01*
X206638135Y-114588157D01*
X206635148Y-114589627D01*
X206628732Y-114591962D01*
X206560080Y-114635530D01*
X206557611Y-114637055D01*
X206487891Y-114678947D01*
X206482934Y-114683634D01*
X206480277Y-114685651D01*
X206479531Y-114686169D01*
X206475598Y-114689144D01*
X206471241Y-114691909D01*
X206466968Y-114695730D01*
X206412990Y-114749708D01*
X206410468Y-114752162D01*
X206352364Y-114807108D01*
X206348526Y-114812756D01*
X206344107Y-114817948D01*
X206343707Y-114817608D01*
X206337098Y-114825600D01*
X204146217Y-117016480D01*
X204138451Y-117023622D01*
X204098633Y-117057271D01*
X204094486Y-117062695D01*
X204094485Y-117062696D01*
X204049326Y-117121762D01*
X204047427Y-117124185D01*
X204008049Y-117173162D01*
X203996490Y-117187538D01*
X203993453Y-117193657D01*
X203991665Y-117196452D01*
X203991412Y-117196813D01*
X203991210Y-117197180D01*
X203989479Y-117200038D01*
X203985340Y-117205452D01*
X203968867Y-117240778D01*
X203951015Y-117279062D01*
X203949681Y-117281833D01*
X203913553Y-117354614D01*
X203911902Y-117361235D01*
X203910751Y-117364363D01*
X203910587Y-117364756D01*
X203910468Y-117365161D01*
X203909391Y-117368325D01*
X203906510Y-117374504D01*
X203893875Y-117431029D01*
X203888785Y-117453802D01*
X203888076Y-117456798D01*
X203882210Y-117480327D01*
X203868428Y-117535601D01*
X203868237Y-117542422D01*
X203867785Y-117545725D01*
X203867626Y-117546609D01*
X203866948Y-117551492D01*
X203865820Y-117556540D01*
X203865500Y-117562263D01*
X203865500Y-117638644D01*
X203865452Y-117642116D01*
X203863219Y-117722057D01*
X203864498Y-117728761D01*
X203865045Y-117735562D01*
X203864525Y-117735604D01*
X203865500Y-117745925D01*
X203865500Y-118565807D01*
X203845498Y-118633928D01*
X203828595Y-118654902D01*
X191430551Y-131052946D01*
X191368239Y-131086972D01*
X191297424Y-131081907D01*
X191252361Y-131052946D01*
X190306005Y-130106590D01*
X190271979Y-130044278D01*
X190269100Y-130017495D01*
X190269100Y-127568208D01*
X190289102Y-127500087D01*
X190342758Y-127453594D01*
X190383680Y-127442727D01*
X190455006Y-127436236D01*
X190562000Y-127426498D01*
X190568702Y-127424320D01*
X190568704Y-127424320D01*
X190727809Y-127372624D01*
X190727812Y-127372623D01*
X190734508Y-127370447D01*
X190830913Y-127312978D01*
X190884260Y-127281177D01*
X190884262Y-127281176D01*
X190890312Y-127277569D01*
X191021666Y-127152482D01*
X191122043Y-127001402D01*
X191186455Y-126831838D01*
X191196039Y-126763645D01*
X191225327Y-126698971D01*
X191231718Y-126692086D01*
X191247847Y-126675957D01*
X191256137Y-126668413D01*
X191262618Y-126664300D01*
X191309259Y-126614632D01*
X191312013Y-126611791D01*
X191331734Y-126592070D01*
X191334212Y-126588875D01*
X191341918Y-126579853D01*
X191366758Y-126553401D01*
X191372186Y-126547621D01*
X191378853Y-126535493D01*
X191381946Y-126529868D01*
X191392799Y-126513345D01*
X191400353Y-126503606D01*
X191405213Y-126497341D01*
X191422776Y-126456757D01*
X191427983Y-126446127D01*
X191449295Y-126407360D01*
X191451266Y-126399683D01*
X191451268Y-126399678D01*
X191454332Y-126387742D01*
X191460738Y-126369030D01*
X191465634Y-126357717D01*
X191468781Y-126350445D01*
X191475697Y-126306781D01*
X191478104Y-126295160D01*
X191487128Y-126260011D01*
X191487128Y-126260010D01*
X191489100Y-126252330D01*
X191489100Y-126232069D01*
X191490651Y-126212358D01*
X191492579Y-126200185D01*
X191493819Y-126192357D01*
X191489659Y-126148346D01*
X191489100Y-126136489D01*
X191489100Y-123237474D01*
X191509102Y-123169353D01*
X191562758Y-123122860D01*
X191633032Y-123112756D01*
X191697612Y-123142250D01*
X191705736Y-123149947D01*
X191805283Y-123253030D01*
X191805288Y-123253034D01*
X191810182Y-123258102D01*
X191823630Y-123266902D01*
X191911527Y-123324420D01*
X191961959Y-123357422D01*
X191968563Y-123359878D01*
X191968565Y-123359879D01*
X192125358Y-123418190D01*
X192125360Y-123418190D01*
X192131968Y-123420648D01*
X192215795Y-123431833D01*
X192304780Y-123443707D01*
X192304784Y-123443707D01*
X192311761Y-123444638D01*
X192318772Y-123444000D01*
X192318776Y-123444000D01*
X192461259Y-123431032D01*
X192492400Y-123428198D01*
X192499102Y-123426020D01*
X192499104Y-123426020D01*
X192658209Y-123374324D01*
X192658212Y-123374323D01*
X192664908Y-123372147D01*
X192815340Y-123282471D01*
X192879858Y-123264700D01*
X193215233Y-123264700D01*
X193226416Y-123265227D01*
X193233909Y-123266902D01*
X193241835Y-123266653D01*
X193241836Y-123266653D01*
X193301986Y-123264762D01*
X193305945Y-123264700D01*
X193333856Y-123264700D01*
X193337791Y-123264203D01*
X193337856Y-123264195D01*
X193349693Y-123263262D01*
X193381951Y-123262248D01*
X193385970Y-123262122D01*
X193393889Y-123261873D01*
X193413343Y-123256221D01*
X193432861Y-123252193D01*
X193433058Y-123252168D01*
X193433272Y-123252141D01*
X193503347Y-123263539D01*
X193556136Y-123311014D01*
X193574900Y-123377168D01*
X193574900Y-125996131D01*
X193554811Y-126064386D01*
X193483454Y-126175110D01*
X193483450Y-126175119D01*
X193479635Y-126181038D01*
X193477226Y-126187658D01*
X193477225Y-126187659D01*
X193453687Y-126252330D01*
X193417597Y-126351485D01*
X193394863Y-126531440D01*
X193412563Y-126711960D01*
X193469818Y-126884073D01*
X193473465Y-126890095D01*
X193473466Y-126890097D01*
X193536885Y-126994814D01*
X193563780Y-127039224D01*
X193568669Y-127044287D01*
X193568670Y-127044288D01*
X193631007Y-127108839D01*
X193689782Y-127169702D01*
X193841559Y-127269022D01*
X193848163Y-127271478D01*
X193848165Y-127271479D01*
X194004958Y-127329790D01*
X194004960Y-127329790D01*
X194011568Y-127332248D01*
X194095395Y-127343433D01*
X194184380Y-127355307D01*
X194184384Y-127355307D01*
X194191361Y-127356238D01*
X194198372Y-127355600D01*
X194198376Y-127355600D01*
X194340859Y-127342632D01*
X194372000Y-127339798D01*
X194378702Y-127337620D01*
X194378704Y-127337620D01*
X194537809Y-127285924D01*
X194537812Y-127285923D01*
X194544508Y-127283747D01*
X194700312Y-127190869D01*
X194831666Y-127065782D01*
X194932043Y-126914702D01*
X194988724Y-126765490D01*
X194993955Y-126751720D01*
X194993956Y-126751718D01*
X194996455Y-126745138D01*
X194999721Y-126721898D01*
X195021148Y-126569439D01*
X195021148Y-126569436D01*
X195021699Y-126565517D01*
X195022016Y-126542800D01*
X195001797Y-126362545D01*
X194999480Y-126355891D01*
X194944464Y-126197906D01*
X194944462Y-126197903D01*
X194942145Y-126191248D01*
X194861046Y-126061461D01*
X194841900Y-125994692D01*
X194841900Y-124522521D01*
X194861902Y-124454400D01*
X194915558Y-124407907D01*
X194956480Y-124397040D01*
X194996500Y-124393398D01*
X195003202Y-124391220D01*
X195003204Y-124391220D01*
X195162309Y-124339524D01*
X195162312Y-124339523D01*
X195169008Y-124337347D01*
X195319440Y-124247671D01*
X195383958Y-124229900D01*
X195399633Y-124229900D01*
X195410816Y-124230427D01*
X195418309Y-124232102D01*
X195426235Y-124231853D01*
X195426236Y-124231853D01*
X195486386Y-124229962D01*
X195490345Y-124229900D01*
X195518256Y-124229900D01*
X195522191Y-124229403D01*
X195522256Y-124229395D01*
X195534093Y-124228462D01*
X195566351Y-124227448D01*
X195570370Y-124227322D01*
X195578289Y-124227073D01*
X195597743Y-124221421D01*
X195617100Y-124217413D01*
X195629330Y-124215868D01*
X195629331Y-124215868D01*
X195637197Y-124214874D01*
X195644568Y-124211955D01*
X195644570Y-124211955D01*
X195678312Y-124198596D01*
X195689542Y-124194751D01*
X195724383Y-124184629D01*
X195724384Y-124184629D01*
X195731993Y-124182418D01*
X195738812Y-124178385D01*
X195738817Y-124178383D01*
X195749428Y-124172107D01*
X195767176Y-124163412D01*
X195786017Y-124155952D01*
X195821787Y-124129964D01*
X195831707Y-124123448D01*
X195862935Y-124104980D01*
X195862938Y-124104978D01*
X195869762Y-124100942D01*
X195884083Y-124086621D01*
X195899117Y-124073780D01*
X195909094Y-124066531D01*
X195915507Y-124061872D01*
X195943698Y-124027795D01*
X195951688Y-124019016D01*
X201749100Y-118221605D01*
X201811412Y-118187579D01*
X201838195Y-118184700D01*
X201841103Y-118184700D01*
X201910096Y-118205268D01*
X202012248Y-118272114D01*
X202020359Y-118277422D01*
X202026963Y-118279878D01*
X202026965Y-118279879D01*
X202183758Y-118338190D01*
X202183760Y-118338190D01*
X202190368Y-118340648D01*
X202274195Y-118351833D01*
X202363180Y-118363707D01*
X202363184Y-118363707D01*
X202370161Y-118364638D01*
X202377172Y-118364000D01*
X202377176Y-118364000D01*
X202519659Y-118351032D01*
X202550800Y-118348198D01*
X202557502Y-118346020D01*
X202557504Y-118346020D01*
X202716609Y-118294324D01*
X202716612Y-118294323D01*
X202723308Y-118292147D01*
X202879112Y-118199269D01*
X203010466Y-118074182D01*
X203110843Y-117923102D01*
X203164709Y-117781300D01*
X203172755Y-117760120D01*
X203172756Y-117760118D01*
X203175255Y-117753538D01*
X203176540Y-117744395D01*
X203199948Y-117577839D01*
X203199948Y-117577836D01*
X203200499Y-117573917D01*
X203200724Y-117557784D01*
X203200761Y-117555162D01*
X203200761Y-117555157D01*
X203200816Y-117551200D01*
X203180597Y-117370945D01*
X203178190Y-117364032D01*
X203123264Y-117206306D01*
X203123262Y-117206303D01*
X203120945Y-117199648D01*
X203094033Y-117156580D01*
X203028559Y-117051798D01*
X203024826Y-117045824D01*
X203003305Y-117024152D01*
X202901978Y-116922115D01*
X202901974Y-116922112D01*
X202897015Y-116917118D01*
X202885897Y-116910062D01*
X202837738Y-116879500D01*
X202743866Y-116819927D01*
X202706164Y-116806502D01*
X202579625Y-116761443D01*
X202579620Y-116761442D01*
X202572990Y-116759081D01*
X202566002Y-116758248D01*
X202565999Y-116758247D01*
X202442898Y-116743568D01*
X202392880Y-116737604D01*
X202385877Y-116738340D01*
X202385876Y-116738340D01*
X202219488Y-116755828D01*
X202219486Y-116755829D01*
X202212488Y-116756564D01*
X202040779Y-116815018D01*
X201904239Y-116899019D01*
X201838219Y-116917700D01*
X201602367Y-116917700D01*
X201591184Y-116917173D01*
X201583691Y-116915498D01*
X201575765Y-116915747D01*
X201575764Y-116915747D01*
X201515601Y-116917638D01*
X201511643Y-116917700D01*
X201483744Y-116917700D01*
X201479754Y-116918204D01*
X201467920Y-116919136D01*
X201423711Y-116920526D01*
X201416097Y-116922738D01*
X201416092Y-116922739D01*
X201404259Y-116926177D01*
X201384896Y-116930188D01*
X201364803Y-116932726D01*
X201357436Y-116935643D01*
X201357431Y-116935644D01*
X201323692Y-116949002D01*
X201312465Y-116952846D01*
X201270007Y-116965182D01*
X201263181Y-116969219D01*
X201252572Y-116975493D01*
X201234824Y-116984188D01*
X201215983Y-116991648D01*
X201209567Y-116996310D01*
X201209566Y-116996310D01*
X201180213Y-117017636D01*
X201170293Y-117024152D01*
X201139065Y-117042620D01*
X201139062Y-117042622D01*
X201132238Y-117046658D01*
X201117917Y-117060979D01*
X201102884Y-117073819D01*
X201086493Y-117085728D01*
X201067452Y-117108745D01*
X201058302Y-117119805D01*
X201050312Y-117128584D01*
X195869795Y-122309100D01*
X195807483Y-122343126D01*
X195736668Y-122338061D01*
X195679832Y-122295514D01*
X195655021Y-122228994D01*
X195654700Y-122220005D01*
X195654700Y-118824008D01*
X195674702Y-118755887D01*
X195728358Y-118709394D01*
X195743783Y-118704360D01*
X195743600Y-118703798D01*
X195909409Y-118649924D01*
X195909412Y-118649923D01*
X195916108Y-118647747D01*
X196012513Y-118590278D01*
X196065860Y-118558477D01*
X196065862Y-118558476D01*
X196071912Y-118554869D01*
X196203266Y-118429782D01*
X196303643Y-118278702D01*
X196368055Y-118109138D01*
X196373793Y-118068311D01*
X196392748Y-117933439D01*
X196392748Y-117933436D01*
X196393299Y-117929517D01*
X196393452Y-117918538D01*
X196393561Y-117910762D01*
X196393561Y-117910757D01*
X196393616Y-117906800D01*
X196373397Y-117726545D01*
X196371080Y-117719891D01*
X196316064Y-117561906D01*
X196316062Y-117561903D01*
X196313745Y-117555248D01*
X196298185Y-117530346D01*
X196221359Y-117407398D01*
X196217626Y-117401424D01*
X196197501Y-117381158D01*
X196094778Y-117277715D01*
X196094774Y-117277712D01*
X196089815Y-117272718D01*
X196039486Y-117240778D01*
X195981636Y-117204066D01*
X195936666Y-117175527D01*
X195765790Y-117114681D01*
X195716007Y-117108745D01*
X195650734Y-117080818D01*
X195641830Y-117072726D01*
X195590004Y-117020899D01*
X195555979Y-116958586D01*
X195553100Y-116931804D01*
X195553100Y-115547163D01*
X195553627Y-115535979D01*
X195555301Y-115528491D01*
X195553162Y-115460432D01*
X195553100Y-115456475D01*
X195553100Y-115428544D01*
X195552594Y-115424538D01*
X195551661Y-115412692D01*
X195551635Y-115411844D01*
X195550273Y-115368510D01*
X195544622Y-115349058D01*
X195540614Y-115329706D01*
X195539068Y-115317468D01*
X195539067Y-115317466D01*
X195538074Y-115309603D01*
X195521794Y-115268486D01*
X195517959Y-115257285D01*
X195505618Y-115214806D01*
X195501585Y-115207987D01*
X195501583Y-115207982D01*
X195495307Y-115197371D01*
X195486610Y-115179621D01*
X195479152Y-115160783D01*
X195453171Y-115125023D01*
X195446653Y-115115101D01*
X195428178Y-115083860D01*
X195428174Y-115083855D01*
X195424142Y-115077037D01*
X195409818Y-115062713D01*
X195396976Y-115047678D01*
X195385072Y-115031293D01*
X195351006Y-115003111D01*
X195342227Y-114995122D01*
X195317500Y-114970395D01*
X195283474Y-114908083D01*
X195288539Y-114837268D01*
X195331086Y-114780432D01*
X195397606Y-114755621D01*
X195406595Y-114755300D01*
X198647544Y-114755300D01*
X198659400Y-114755859D01*
X198659403Y-114755859D01*
X198667137Y-114757588D01*
X198737969Y-114755362D01*
X198741927Y-114755300D01*
X198771032Y-114755300D01*
X198775432Y-114754744D01*
X198787264Y-114753812D01*
X198833431Y-114752362D01*
X198854021Y-114746380D01*
X198873382Y-114742370D01*
X198880370Y-114741488D01*
X198886804Y-114740675D01*
X198886805Y-114740675D01*
X198894664Y-114739682D01*
X198902029Y-114736766D01*
X198902033Y-114736765D01*
X198937621Y-114722674D01*
X198948831Y-114718835D01*
X198993200Y-114705945D01*
X199011665Y-114695025D01*
X199029405Y-114686334D01*
X199049356Y-114678435D01*
X199086729Y-114651282D01*
X199096648Y-114644767D01*
X199129577Y-114625293D01*
X199129581Y-114625290D01*
X199136407Y-114621253D01*
X199151571Y-114606089D01*
X199166605Y-114593248D01*
X199177543Y-114585301D01*
X199183957Y-114580641D01*
X199213403Y-114545047D01*
X199221392Y-114536268D01*
X199879855Y-113877805D01*
X199942167Y-113843779D01*
X199968950Y-113840900D01*
X205962744Y-113840900D01*
X205974600Y-113841459D01*
X205974603Y-113841459D01*
X205982337Y-113843188D01*
X206053169Y-113840962D01*
X206057127Y-113840900D01*
X206086232Y-113840900D01*
X206090632Y-113840344D01*
X206102464Y-113839412D01*
X206148631Y-113837962D01*
X206169221Y-113831980D01*
X206188582Y-113827970D01*
X206195570Y-113827088D01*
X206202004Y-113826275D01*
X206202005Y-113826275D01*
X206209864Y-113825282D01*
X206217229Y-113822366D01*
X206217233Y-113822365D01*
X206252821Y-113808274D01*
X206264031Y-113804435D01*
X206308400Y-113791545D01*
X206326865Y-113780625D01*
X206344605Y-113771934D01*
X206364556Y-113764035D01*
X206401929Y-113736882D01*
X206411848Y-113730367D01*
X206444777Y-113710893D01*
X206444781Y-113710890D01*
X206451607Y-113706853D01*
X206466771Y-113691689D01*
X206481805Y-113678848D01*
X206492743Y-113670901D01*
X206499157Y-113666241D01*
X206528603Y-113630647D01*
X206536592Y-113621868D01*
X207499855Y-112658605D01*
X207562167Y-112624579D01*
X207588950Y-112621700D01*
X208725391Y-112621700D01*
X208793512Y-112641702D01*
X208820199Y-112665615D01*
X208820243Y-112665571D01*
X208820952Y-112666290D01*
X208823309Y-112668402D01*
X208828447Y-112674747D01*
X208980396Y-112801346D01*
X209154041Y-112896022D01*
X209248405Y-112925594D01*
X209336886Y-112953322D01*
X209336889Y-112953323D01*
X209342768Y-112955165D01*
X209348891Y-112955830D01*
X209348895Y-112955831D01*
X209533263Y-112975859D01*
X209533267Y-112975859D01*
X209539388Y-112976524D01*
X209736413Y-112959287D01*
X209742330Y-112957568D01*
X209742335Y-112957567D01*
X209873064Y-112919586D01*
X209926336Y-112904109D01*
X210101926Y-112813092D01*
X210136037Y-112785862D01*
X210220223Y-112718658D01*
X210220230Y-112718651D01*
X210222973Y-112716462D01*
X212200579Y-110738855D01*
X212210722Y-110729753D01*
X212235418Y-110709897D01*
X212240225Y-110706032D01*
X212272492Y-110667578D01*
X212275672Y-110663931D01*
X212277315Y-110662119D01*
X212279509Y-110659925D01*
X212306842Y-110626651D01*
X212307548Y-110625800D01*
X212310463Y-110622327D01*
X212367354Y-110554526D01*
X212369922Y-110549856D01*
X212373303Y-110545739D01*
X212417177Y-110463914D01*
X212417806Y-110462755D01*
X212459662Y-110386619D01*
X212459665Y-110386611D01*
X212462633Y-110381213D01*
X212464245Y-110376131D01*
X212466762Y-110371437D01*
X212493947Y-110282523D01*
X212494339Y-110281265D01*
X212520572Y-110198567D01*
X212522435Y-110192694D01*
X212523029Y-110187403D01*
X212524588Y-110182302D01*
X212533990Y-110089737D01*
X212534125Y-110088470D01*
X212539308Y-110042270D01*
X212539308Y-110042265D01*
X212539700Y-110038773D01*
X212539700Y-110035248D01*
X212539755Y-110034263D01*
X212540204Y-110028559D01*
X212543952Y-109991666D01*
X212543952Y-109991661D01*
X212544574Y-109985538D01*
X212540259Y-109939891D01*
X212539700Y-109928033D01*
X212539700Y-107693500D01*
X212559702Y-107625379D01*
X212613358Y-107578886D01*
X212665700Y-107567500D01*
X213575903Y-107567500D01*
X213644896Y-107588068D01*
X213731054Y-107644448D01*
X213755159Y-107660222D01*
X213761763Y-107662678D01*
X213761765Y-107662679D01*
X213918558Y-107720990D01*
X213918560Y-107720990D01*
X213925168Y-107723448D01*
X214003268Y-107733869D01*
X214097980Y-107746507D01*
X214097984Y-107746507D01*
X214104961Y-107747438D01*
X214111972Y-107746800D01*
X214111976Y-107746800D01*
X214254459Y-107733832D01*
X214285600Y-107730998D01*
X214292302Y-107728820D01*
X214292304Y-107728820D01*
X214451409Y-107677124D01*
X214451412Y-107677123D01*
X214458108Y-107674947D01*
X214580810Y-107601802D01*
X214607860Y-107585677D01*
X214607862Y-107585676D01*
X214613912Y-107582069D01*
X214745266Y-107456982D01*
X214845643Y-107305902D01*
X214910055Y-107136338D01*
X214911910Y-107123141D01*
X214934748Y-106960639D01*
X214934748Y-106960636D01*
X214935299Y-106956717D01*
X214935616Y-106934000D01*
X214915397Y-106753745D01*
X214913080Y-106747091D01*
X214858064Y-106589106D01*
X214858062Y-106589103D01*
X214855745Y-106582448D01*
X214759626Y-106428624D01*
X214754664Y-106423627D01*
X214636778Y-106304915D01*
X214636774Y-106304912D01*
X214631815Y-106299918D01*
X214622224Y-106293831D01*
X214525603Y-106232514D01*
X214478666Y-106202727D01*
X214408438Y-106177720D01*
X214314425Y-106144243D01*
X214314420Y-106144242D01*
X214307790Y-106141881D01*
X214300802Y-106141048D01*
X214300799Y-106141047D01*
X214177698Y-106126368D01*
X214127680Y-106120404D01*
X214120677Y-106121140D01*
X214120676Y-106121140D01*
X213954288Y-106138628D01*
X213954286Y-106138629D01*
X213947288Y-106139364D01*
X213775579Y-106197818D01*
X213639039Y-106281819D01*
X213573019Y-106300500D01*
X212547371Y-106300500D01*
X212479250Y-106280498D01*
X212436118Y-106233650D01*
X212424468Y-106211738D01*
X212423857Y-106210574D01*
X212383929Y-106133547D01*
X212381092Y-106128074D01*
X212377769Y-106123911D01*
X212375266Y-106119204D01*
X212374254Y-106117963D01*
X212354313Y-106051202D01*
X212373998Y-105982989D01*
X212427437Y-105936247D01*
X212444316Y-105929867D01*
X212568593Y-105892819D01*
X212568595Y-105892818D01*
X212574496Y-105891059D01*
X212749446Y-105798818D01*
X212756856Y-105792818D01*
X212898357Y-105678232D01*
X212898358Y-105678231D01*
X212903147Y-105674353D01*
X212940587Y-105629416D01*
X213025805Y-105527135D01*
X213025808Y-105527130D01*
X213029746Y-105522404D01*
X213124421Y-105348759D01*
X213183565Y-105160032D01*
X213186347Y-105134430D01*
X213204259Y-104969536D01*
X213204259Y-104969532D01*
X213204924Y-104963411D01*
X213187687Y-104766387D01*
X213132509Y-104576463D01*
X213041492Y-104400874D01*
X212944862Y-104279827D01*
X212643650Y-103978616D01*
X212634548Y-103968472D01*
X212614697Y-103943782D01*
X212614696Y-103943781D01*
X212610832Y-103938975D01*
X212572378Y-103906708D01*
X212568731Y-103903528D01*
X212566919Y-103901885D01*
X212564725Y-103899691D01*
X212531451Y-103872358D01*
X212530653Y-103871696D01*
X212459326Y-103811846D01*
X212454656Y-103809278D01*
X212450539Y-103805897D01*
X212392655Y-103774860D01*
X212368714Y-103762023D01*
X212367555Y-103761394D01*
X212291419Y-103719538D01*
X212291411Y-103719535D01*
X212286013Y-103716567D01*
X212280931Y-103714955D01*
X212276237Y-103712438D01*
X212187269Y-103685238D01*
X212186241Y-103684918D01*
X212097494Y-103656765D01*
X212092198Y-103656171D01*
X212087102Y-103654613D01*
X211994543Y-103645210D01*
X211993407Y-103645089D01*
X211959792Y-103641319D01*
X211947070Y-103639892D01*
X211947066Y-103639892D01*
X211943573Y-103639500D01*
X211940046Y-103639500D01*
X211939061Y-103639445D01*
X211933381Y-103638998D01*
X211903975Y-103636011D01*
X211896463Y-103635248D01*
X211896461Y-103635248D01*
X211890338Y-103634626D01*
X211848059Y-103638623D01*
X211844691Y-103638941D01*
X211832833Y-103639500D01*
X209557104Y-103639500D01*
X209544371Y-103638855D01*
X209508866Y-103635248D01*
X209508861Y-103635248D01*
X209502738Y-103634626D01*
X209460459Y-103638623D01*
X209457091Y-103638941D01*
X209445233Y-103639500D01*
X208179431Y-103639500D01*
X208176375Y-103639800D01*
X208176368Y-103639800D01*
X208121115Y-103645218D01*
X208032367Y-103653920D01*
X208026466Y-103655702D01*
X208026464Y-103655702D01*
X207953147Y-103677838D01*
X207843031Y-103711084D01*
X207668404Y-103803934D01*
X207585374Y-103871652D01*
X207519913Y-103925040D01*
X207519910Y-103925043D01*
X207515138Y-103928935D01*
X207511211Y-103933682D01*
X207511209Y-103933684D01*
X207392999Y-104076575D01*
X207392997Y-104076579D01*
X207389070Y-104081325D01*
X207295002Y-104255299D01*
X207236518Y-104444232D01*
X207235874Y-104450357D01*
X207235874Y-104450358D01*
X207221999Y-104582377D01*
X207215845Y-104640925D01*
X207216404Y-104647065D01*
X207230833Y-104805612D01*
X207233770Y-104837888D01*
X207289610Y-105027619D01*
X207292463Y-105033077D01*
X207292465Y-105033081D01*
X207315659Y-105077446D01*
X207381240Y-105202890D01*
X207505168Y-105357025D01*
X207656674Y-105484154D01*
X207662072Y-105487121D01*
X207662077Y-105487125D01*
X207776572Y-105550068D01*
X207829987Y-105579433D01*
X207835854Y-105581294D01*
X207835856Y-105581295D01*
X208000827Y-105633627D01*
X208018506Y-105639235D01*
X208172427Y-105656500D01*
X209029275Y-105656500D01*
X209097396Y-105676502D01*
X209118370Y-105693405D01*
X210485795Y-107060829D01*
X210519820Y-107123141D01*
X210522700Y-107149924D01*
X210522700Y-107525723D01*
X210502698Y-107593844D01*
X210449042Y-107640337D01*
X210378768Y-107650441D01*
X210314188Y-107620947D01*
X210307294Y-107614507D01*
X210267978Y-107574915D01*
X210267974Y-107574912D01*
X210263015Y-107569918D01*
X210251897Y-107562862D01*
X210193375Y-107525723D01*
X210109866Y-107472727D01*
X210049161Y-107451111D01*
X209945625Y-107414243D01*
X209945620Y-107414242D01*
X209938990Y-107411881D01*
X209932002Y-107411048D01*
X209931999Y-107411047D01*
X209808898Y-107396368D01*
X209758880Y-107390404D01*
X209751877Y-107391140D01*
X209751876Y-107391140D01*
X209585488Y-107408628D01*
X209585486Y-107408629D01*
X209578488Y-107409364D01*
X209406779Y-107467818D01*
X209270239Y-107551819D01*
X209204219Y-107570500D01*
X208561968Y-107570500D01*
X208550785Y-107569973D01*
X208543292Y-107568298D01*
X208535366Y-107568547D01*
X208535365Y-107568547D01*
X208475202Y-107570438D01*
X208471244Y-107570500D01*
X208443344Y-107570500D01*
X208439354Y-107571004D01*
X208427520Y-107571936D01*
X208383311Y-107573326D01*
X208375697Y-107575538D01*
X208375692Y-107575539D01*
X208363859Y-107578977D01*
X208344496Y-107582988D01*
X208324403Y-107585526D01*
X208317036Y-107588443D01*
X208317031Y-107588444D01*
X208283292Y-107601802D01*
X208272065Y-107605646D01*
X208229607Y-107617982D01*
X208222781Y-107622019D01*
X208212172Y-107628293D01*
X208194424Y-107636988D01*
X208175583Y-107644448D01*
X208169167Y-107649110D01*
X208169166Y-107649110D01*
X208139813Y-107670436D01*
X208129893Y-107676952D01*
X208098665Y-107695420D01*
X208098662Y-107695422D01*
X208091838Y-107699458D01*
X208077517Y-107713779D01*
X208062484Y-107726619D01*
X208046093Y-107738528D01*
X208017902Y-107772605D01*
X208009912Y-107781384D01*
X206178265Y-109613030D01*
X206178262Y-109613033D01*
X205897419Y-109893875D01*
X205835107Y-109927901D01*
X205764291Y-109922836D01*
X205707456Y-109880289D01*
X205683109Y-109818825D01*
X205670582Y-109707144D01*
X205669797Y-109700145D01*
X205667480Y-109693491D01*
X205612464Y-109535506D01*
X205612462Y-109535503D01*
X205610145Y-109528848D01*
X205514026Y-109375024D01*
X205496487Y-109357362D01*
X205391178Y-109251315D01*
X205391174Y-109251312D01*
X205386215Y-109246318D01*
X205375097Y-109239262D01*
X205297544Y-109190046D01*
X205233066Y-109149127D01*
X205062190Y-109088281D01*
X205012407Y-109082345D01*
X204947134Y-109054418D01*
X204938230Y-109046326D01*
X204632404Y-108740499D01*
X204598379Y-108678187D01*
X204595500Y-108651404D01*
X204595500Y-103034359D01*
X204616551Y-102964633D01*
X204634843Y-102937102D01*
X204690173Y-102791446D01*
X204696755Y-102774120D01*
X204696756Y-102774118D01*
X204699255Y-102767538D01*
X204700235Y-102760566D01*
X204723948Y-102591839D01*
X204723948Y-102591836D01*
X204724499Y-102587917D01*
X204724816Y-102565200D01*
X204704597Y-102384945D01*
X204702280Y-102378291D01*
X204647264Y-102220306D01*
X204647262Y-102220303D01*
X204644945Y-102213648D01*
X204548826Y-102059824D01*
X204535141Y-102046043D01*
X204425978Y-101936115D01*
X204425974Y-101936112D01*
X204421015Y-101931118D01*
X204409897Y-101924062D01*
X204361738Y-101893500D01*
X204267866Y-101833927D01*
X204238663Y-101823528D01*
X204103625Y-101775443D01*
X204103620Y-101775442D01*
X204096990Y-101773081D01*
X204090002Y-101772248D01*
X204089999Y-101772247D01*
X203966898Y-101757568D01*
X203916880Y-101751604D01*
X203909877Y-101752340D01*
X203909876Y-101752340D01*
X203743488Y-101769828D01*
X203743486Y-101769829D01*
X203736488Y-101770564D01*
X203564779Y-101829018D01*
X203558775Y-101832712D01*
X203416295Y-101920366D01*
X203416292Y-101920368D01*
X203410288Y-101924062D01*
X203405253Y-101928993D01*
X203405250Y-101928995D01*
X203285725Y-102046043D01*
X203280693Y-102050971D01*
X203182435Y-102203438D01*
X203180026Y-102210058D01*
X203180024Y-102210061D01*
X203122806Y-102367266D01*
X203120397Y-102373885D01*
X203097663Y-102553840D01*
X203115363Y-102734360D01*
X203172618Y-102906473D01*
X203176265Y-102912495D01*
X203176266Y-102912497D01*
X203227030Y-102996318D01*
X203266580Y-103061624D01*
X203271471Y-103066689D01*
X203271475Y-103066694D01*
X203293137Y-103089126D01*
X203326069Y-103152023D01*
X203328500Y-103176652D01*
X203328500Y-108887233D01*
X203327973Y-108898416D01*
X203326298Y-108905909D01*
X203326547Y-108913835D01*
X203326547Y-108913836D01*
X203328438Y-108973986D01*
X203328500Y-108977945D01*
X203328500Y-109005856D01*
X203328997Y-109009790D01*
X203328997Y-109009791D01*
X203329005Y-109009856D01*
X203329938Y-109021693D01*
X203331327Y-109065889D01*
X203336978Y-109085339D01*
X203340987Y-109104700D01*
X203343526Y-109124797D01*
X203346445Y-109132168D01*
X203346445Y-109132170D01*
X203359804Y-109165912D01*
X203363649Y-109177142D01*
X203375982Y-109219593D01*
X203380015Y-109226412D01*
X203380017Y-109226417D01*
X203386293Y-109237028D01*
X203394988Y-109254776D01*
X203402448Y-109273617D01*
X203407110Y-109280033D01*
X203407110Y-109280034D01*
X203428436Y-109309387D01*
X203434952Y-109319307D01*
X203457458Y-109357362D01*
X203471779Y-109371683D01*
X203484619Y-109386716D01*
X203496528Y-109403107D01*
X203502633Y-109408158D01*
X203502638Y-109408163D01*
X203530604Y-109431299D01*
X203539382Y-109439287D01*
X204041150Y-109941055D01*
X204075176Y-110003367D01*
X204077454Y-110017853D01*
X204080563Y-110049560D01*
X204137818Y-110221673D01*
X204141465Y-110227695D01*
X204141466Y-110227697D01*
X204227739Y-110370151D01*
X204231780Y-110376824D01*
X204236669Y-110381887D01*
X204236670Y-110381888D01*
X204280568Y-110427345D01*
X204357782Y-110507302D01*
X204509559Y-110606622D01*
X204516163Y-110609078D01*
X204516165Y-110609079D01*
X204672958Y-110667390D01*
X204672960Y-110667390D01*
X204679568Y-110669848D01*
X204686553Y-110670780D01*
X204686557Y-110670781D01*
X204762345Y-110680893D01*
X204816728Y-110688149D01*
X204881604Y-110716985D01*
X204920592Y-110776318D01*
X204921313Y-110847311D01*
X204889158Y-110902137D01*
X204600100Y-111191195D01*
X204537788Y-111225221D01*
X204511005Y-111228100D01*
X201574471Y-111228100D01*
X201506350Y-111208098D01*
X201459857Y-111154442D01*
X201449753Y-111084168D01*
X201456683Y-111057356D01*
X201496355Y-110952920D01*
X201496356Y-110952918D01*
X201498855Y-110946338D01*
X201509997Y-110867056D01*
X201523548Y-110770639D01*
X201523548Y-110770636D01*
X201524099Y-110766717D01*
X201524416Y-110744000D01*
X201504197Y-110563745D01*
X201499542Y-110550378D01*
X201446864Y-110399106D01*
X201446862Y-110399103D01*
X201444545Y-110392448D01*
X201438017Y-110382001D01*
X201352159Y-110244598D01*
X201348426Y-110238624D01*
X201331593Y-110221673D01*
X201225578Y-110114915D01*
X201225574Y-110114912D01*
X201220615Y-110109918D01*
X201209497Y-110102862D01*
X201136038Y-110056244D01*
X201067466Y-110012727D01*
X201008320Y-109991666D01*
X200903225Y-109954243D01*
X200903220Y-109954242D01*
X200896590Y-109951881D01*
X200889602Y-109951048D01*
X200889599Y-109951047D01*
X200746452Y-109933978D01*
X200716480Y-109930404D01*
X200709477Y-109931140D01*
X200709476Y-109931140D01*
X200543088Y-109948628D01*
X200543086Y-109948629D01*
X200536088Y-109949364D01*
X200364379Y-110007818D01*
X200209888Y-110102862D01*
X200204854Y-110107791D01*
X200203576Y-110108790D01*
X200137582Y-110134967D01*
X200126004Y-110135500D01*
X199440239Y-110135500D01*
X199372118Y-110115498D01*
X199351144Y-110098595D01*
X199111288Y-109858739D01*
X199077262Y-109796427D01*
X199075168Y-109783689D01*
X199066582Y-109707144D01*
X199065797Y-109700145D01*
X199063480Y-109693491D01*
X199008464Y-109535506D01*
X199008462Y-109535503D01*
X199006145Y-109528848D01*
X198910026Y-109375024D01*
X198892487Y-109357362D01*
X198787178Y-109251315D01*
X198787174Y-109251312D01*
X198782215Y-109246318D01*
X198771097Y-109239262D01*
X198693544Y-109190046D01*
X198629066Y-109149127D01*
X198575702Y-109130125D01*
X198464825Y-109090643D01*
X198464820Y-109090642D01*
X198458190Y-109088281D01*
X198451202Y-109087448D01*
X198451199Y-109087447D01*
X198327709Y-109072722D01*
X198278080Y-109066804D01*
X198271077Y-109067540D01*
X198271076Y-109067540D01*
X198104688Y-109085028D01*
X198104686Y-109085029D01*
X198097688Y-109085764D01*
X197925979Y-109144218D01*
X197890716Y-109165912D01*
X197777495Y-109235566D01*
X197777492Y-109235568D01*
X197771488Y-109239262D01*
X197766453Y-109244193D01*
X197766450Y-109244195D01*
X197657860Y-109350535D01*
X197641893Y-109366171D01*
X197543635Y-109518638D01*
X197541226Y-109525258D01*
X197541224Y-109525261D01*
X197484006Y-109682466D01*
X197481597Y-109689085D01*
X197458863Y-109869040D01*
X197476563Y-110049560D01*
X197533818Y-110221673D01*
X197537465Y-110227695D01*
X197537466Y-110227697D01*
X197623739Y-110370151D01*
X197627780Y-110376824D01*
X197632669Y-110381887D01*
X197632670Y-110381888D01*
X197676568Y-110427345D01*
X197753782Y-110507302D01*
X197905559Y-110606622D01*
X197912163Y-110609078D01*
X197912165Y-110609079D01*
X198068958Y-110667390D01*
X198068960Y-110667390D01*
X198075568Y-110669848D01*
X198082553Y-110670780D01*
X198082557Y-110670781D01*
X198144947Y-110679106D01*
X198178386Y-110683567D01*
X198243262Y-110712403D01*
X198250816Y-110719365D01*
X198543161Y-111011710D01*
X198577187Y-111074022D01*
X198572122Y-111144837D01*
X198529575Y-111201673D01*
X198458024Y-111226743D01*
X198423146Y-111227839D01*
X198416812Y-111228038D01*
X198412855Y-111228100D01*
X198384944Y-111228100D01*
X198381010Y-111228597D01*
X198381009Y-111228597D01*
X198380944Y-111228605D01*
X198369107Y-111229538D01*
X198337290Y-111230538D01*
X198332829Y-111230678D01*
X198324910Y-111230927D01*
X198307254Y-111236056D01*
X198305458Y-111236578D01*
X198286106Y-111240586D01*
X198279035Y-111241480D01*
X198266003Y-111243126D01*
X198258634Y-111246043D01*
X198258632Y-111246044D01*
X198224897Y-111259400D01*
X198213669Y-111263245D01*
X198171207Y-111275582D01*
X198164385Y-111279616D01*
X198164379Y-111279619D01*
X198153768Y-111285894D01*
X198136018Y-111294590D01*
X198124556Y-111299128D01*
X198124551Y-111299131D01*
X198117183Y-111302048D01*
X198110768Y-111306709D01*
X198081425Y-111328027D01*
X198071509Y-111334541D01*
X198045899Y-111349688D01*
X197994927Y-111366547D01*
X197966861Y-111369497D01*
X197952289Y-111371028D01*
X197952288Y-111371028D01*
X197945288Y-111371764D01*
X197773579Y-111430218D01*
X197767575Y-111433912D01*
X197625095Y-111521566D01*
X197625092Y-111521568D01*
X197619088Y-111525262D01*
X197614053Y-111530193D01*
X197614050Y-111530195D01*
X197498616Y-111643237D01*
X197489493Y-111652171D01*
X197391235Y-111804638D01*
X197388826Y-111811258D01*
X197388824Y-111811261D01*
X197340615Y-111943715D01*
X197329197Y-111975085D01*
X197306463Y-112155040D01*
X197324163Y-112335560D01*
X197340906Y-112385891D01*
X197373519Y-112483928D01*
X197376042Y-112554880D01*
X197339805Y-112615932D01*
X197276313Y-112647701D01*
X197253961Y-112649700D01*
X193740285Y-112649700D01*
X193672164Y-112629698D01*
X193651192Y-112612797D01*
X193629356Y-112590962D01*
X193595329Y-112528651D01*
X193593234Y-112515909D01*
X193592311Y-112507673D01*
X193579397Y-112392545D01*
X193577080Y-112385891D01*
X193522064Y-112227906D01*
X193522062Y-112227903D01*
X193519745Y-112221248D01*
X193423626Y-112067424D01*
X193400114Y-112043747D01*
X193300778Y-111943715D01*
X193300774Y-111943712D01*
X193295815Y-111938718D01*
X193287688Y-111933560D01*
X193225765Y-111894263D01*
X193142666Y-111841527D01*
X193081961Y-111819911D01*
X192978425Y-111783043D01*
X192978420Y-111783042D01*
X192971790Y-111780681D01*
X192964802Y-111779848D01*
X192964799Y-111779847D01*
X192841698Y-111765168D01*
X192791680Y-111759204D01*
X192784677Y-111759940D01*
X192784676Y-111759940D01*
X192618288Y-111777428D01*
X192618286Y-111777429D01*
X192611288Y-111778164D01*
X192439579Y-111836618D01*
X192341520Y-111896944D01*
X192273021Y-111915602D01*
X192205307Y-111894263D01*
X192159879Y-111839703D01*
X192149500Y-111789626D01*
X192149500Y-106514420D01*
X192170552Y-106444693D01*
X192186888Y-106420105D01*
X192239643Y-106340702D01*
X192304055Y-106171138D01*
X192309338Y-106133547D01*
X192328748Y-105995439D01*
X192328748Y-105995436D01*
X192329299Y-105991517D01*
X192329616Y-105968800D01*
X192330424Y-105968811D01*
X192346201Y-105903432D01*
X192397524Y-105854377D01*
X192455396Y-105840300D01*
X199006433Y-105840300D01*
X199017616Y-105840827D01*
X199025109Y-105842502D01*
X199033035Y-105842253D01*
X199033036Y-105842253D01*
X199093186Y-105840362D01*
X199097145Y-105840300D01*
X199125056Y-105840300D01*
X199128991Y-105839803D01*
X199129056Y-105839795D01*
X199140893Y-105838862D01*
X199173151Y-105837848D01*
X199177170Y-105837722D01*
X199185089Y-105837473D01*
X199204543Y-105831821D01*
X199223900Y-105827813D01*
X199236130Y-105826268D01*
X199236131Y-105826268D01*
X199243997Y-105825274D01*
X199251368Y-105822355D01*
X199251370Y-105822355D01*
X199285112Y-105808996D01*
X199296342Y-105805151D01*
X199331183Y-105795029D01*
X199331184Y-105795029D01*
X199338793Y-105792818D01*
X199345612Y-105788785D01*
X199345617Y-105788783D01*
X199356228Y-105782507D01*
X199373976Y-105773812D01*
X199392817Y-105766352D01*
X199428587Y-105740364D01*
X199438507Y-105733848D01*
X199469735Y-105715380D01*
X199469738Y-105715378D01*
X199476562Y-105711342D01*
X199490883Y-105697021D01*
X199505917Y-105684180D01*
X199511270Y-105680291D01*
X199522307Y-105672272D01*
X199550498Y-105638195D01*
X199558488Y-105629416D01*
X199629847Y-105558057D01*
X199638137Y-105550513D01*
X199644618Y-105546400D01*
X199691259Y-105496732D01*
X199694013Y-105493891D01*
X199713734Y-105474170D01*
X199716212Y-105470975D01*
X199723918Y-105461953D01*
X199748758Y-105435501D01*
X199754186Y-105429721D01*
X199763946Y-105411968D01*
X199774799Y-105395445D01*
X199782353Y-105385706D01*
X199787213Y-105379441D01*
X199804776Y-105338857D01*
X199809983Y-105328227D01*
X199831295Y-105289460D01*
X199833266Y-105281783D01*
X199833268Y-105281778D01*
X199836332Y-105269842D01*
X199842738Y-105251130D01*
X199847633Y-105239819D01*
X199850781Y-105232545D01*
X199852021Y-105224717D01*
X199852023Y-105224710D01*
X199857699Y-105188876D01*
X199860105Y-105177256D01*
X199869128Y-105142111D01*
X199869128Y-105142110D01*
X199871100Y-105134430D01*
X199871100Y-105114176D01*
X199872651Y-105094465D01*
X199874580Y-105082286D01*
X199875820Y-105074457D01*
X199871659Y-105030438D01*
X199871100Y-105018581D01*
X199871100Y-104957594D01*
X199891102Y-104889473D01*
X199944758Y-104842980D01*
X200015032Y-104832876D01*
X200079612Y-104862370D01*
X200086193Y-104868497D01*
X200620973Y-105403278D01*
X201145550Y-105927855D01*
X201179576Y-105990167D01*
X201181854Y-106004653D01*
X201184963Y-106036360D01*
X201242218Y-106208473D01*
X201245865Y-106214495D01*
X201245866Y-106214497D01*
X201325854Y-106346573D01*
X201336180Y-106363624D01*
X201341069Y-106368687D01*
X201341070Y-106368688D01*
X201390723Y-106420105D01*
X201462182Y-106494102D01*
X201613959Y-106593422D01*
X201620563Y-106595878D01*
X201620565Y-106595879D01*
X201777358Y-106654190D01*
X201777360Y-106654190D01*
X201783968Y-106656648D01*
X201867795Y-106667833D01*
X201956780Y-106679707D01*
X201956784Y-106679707D01*
X201963761Y-106680638D01*
X201970772Y-106680000D01*
X201970776Y-106680000D01*
X202113259Y-106667032D01*
X202144400Y-106664198D01*
X202151102Y-106662020D01*
X202151104Y-106662020D01*
X202310209Y-106610324D01*
X202310212Y-106610323D01*
X202316908Y-106608147D01*
X202472712Y-106515269D01*
X202604066Y-106390182D01*
X202704443Y-106239102D01*
X202749979Y-106119229D01*
X202766355Y-106076120D01*
X202766356Y-106076118D01*
X202768855Y-106069538D01*
X202772070Y-106046661D01*
X202793548Y-105893839D01*
X202793548Y-105893836D01*
X202794099Y-105889917D01*
X202794416Y-105867200D01*
X202774197Y-105686945D01*
X202770710Y-105676931D01*
X202716864Y-105522306D01*
X202716862Y-105522303D01*
X202714545Y-105515648D01*
X202688627Y-105474170D01*
X202622159Y-105367798D01*
X202618426Y-105361824D01*
X202613464Y-105356827D01*
X202495578Y-105238115D01*
X202495574Y-105238112D01*
X202490615Y-105233118D01*
X202337466Y-105135927D01*
X202166590Y-105075081D01*
X202116807Y-105069145D01*
X202051533Y-105041218D01*
X202042630Y-105033126D01*
X200771605Y-103762100D01*
X200737579Y-103699788D01*
X200734700Y-103673005D01*
X200734700Y-98725194D01*
X200754702Y-98657073D01*
X200808358Y-98610580D01*
X200878632Y-98600476D01*
X200929693Y-98619762D01*
X201004359Y-98668622D01*
X201010963Y-98671078D01*
X201010965Y-98671079D01*
X201167758Y-98729390D01*
X201167760Y-98729390D01*
X201174368Y-98731848D01*
X201258195Y-98743033D01*
X201347180Y-98754907D01*
X201347184Y-98754907D01*
X201354161Y-98755838D01*
X201361172Y-98755200D01*
X201361176Y-98755200D01*
X201503659Y-98742232D01*
X201534800Y-98739398D01*
X201541502Y-98737220D01*
X201541504Y-98737220D01*
X201700609Y-98685524D01*
X201700612Y-98685523D01*
X201707308Y-98683347D01*
X201829376Y-98610580D01*
X201857060Y-98594077D01*
X201857062Y-98594076D01*
X201863112Y-98590469D01*
X201994466Y-98465382D01*
X202094843Y-98314302D01*
X202159255Y-98144738D01*
X202184499Y-97965117D01*
X202184816Y-97942400D01*
X202164597Y-97762145D01*
X202106171Y-97594369D01*
X202102657Y-97523460D01*
X202136067Y-97463837D01*
X203666577Y-95933327D01*
X203728889Y-95899301D01*
X203744237Y-95896943D01*
X203770000Y-95894598D01*
X203776702Y-95892420D01*
X203776704Y-95892420D01*
X203935809Y-95840724D01*
X203935812Y-95840723D01*
X203942508Y-95838547D01*
X204098312Y-95745669D01*
X204229666Y-95620582D01*
X204330043Y-95469502D01*
X204394455Y-95299938D01*
X204412005Y-95175061D01*
X204419148Y-95124239D01*
X204419148Y-95124236D01*
X204419699Y-95120317D01*
X204420016Y-95097600D01*
X204399797Y-94917345D01*
X204340145Y-94746048D01*
X204244026Y-94592224D01*
X204239064Y-94587227D01*
X204121178Y-94468515D01*
X204121174Y-94468512D01*
X204116215Y-94463518D01*
X203963066Y-94366327D01*
X203926440Y-94353285D01*
X203868976Y-94311590D01*
X203843177Y-94245447D01*
X203857233Y-94175856D01*
X203879613Y-94145491D01*
X206526829Y-91498275D01*
X206589141Y-91464249D01*
X206659956Y-91469314D01*
X206716792Y-91511861D01*
X206735482Y-91547598D01*
X206779418Y-91679673D01*
X206783065Y-91685695D01*
X206783066Y-91685697D01*
X206820805Y-91748011D01*
X206873380Y-91834824D01*
X206878269Y-91839887D01*
X206878270Y-91839888D01*
X206942965Y-91906881D01*
X206999382Y-91965302D01*
X207031729Y-91986469D01*
X207115515Y-92041297D01*
X207151159Y-92064622D01*
X207157763Y-92067078D01*
X207157765Y-92067079D01*
X207314558Y-92125390D01*
X207314560Y-92125390D01*
X207321168Y-92127848D01*
X207404995Y-92139033D01*
X207493980Y-92150907D01*
X207493984Y-92150907D01*
X207500961Y-92151838D01*
X207507972Y-92151200D01*
X207507976Y-92151200D01*
X207650459Y-92138232D01*
X207681600Y-92135398D01*
X207688302Y-92133220D01*
X207688304Y-92133220D01*
X207847409Y-92081524D01*
X207847412Y-92081523D01*
X207854108Y-92079347D01*
X208009912Y-91986469D01*
X208032007Y-91965428D01*
X208041221Y-91956654D01*
X208104346Y-91924162D01*
X208128113Y-91921900D01*
X208335097Y-91921900D01*
X208351544Y-91922978D01*
X208381600Y-91926935D01*
X208389788Y-91925857D01*
X208419844Y-91921900D01*
X208533924Y-91906881D01*
X208675867Y-91848086D01*
X208797757Y-91754557D01*
X208816219Y-91730497D01*
X208827086Y-91718107D01*
X210458820Y-90086373D01*
X210521132Y-90052347D01*
X210591947Y-90057412D01*
G37*
%TD.AperFunction*%
%TA.AperFunction,Conductor*%
G36*
X190840453Y-111721277D02*
G01*
X190877923Y-111781581D01*
X190882500Y-111815234D01*
X190882500Y-113408433D01*
X190881973Y-113419616D01*
X190880298Y-113427109D01*
X190880547Y-113435035D01*
X190880547Y-113435036D01*
X190882438Y-113495186D01*
X190882500Y-113499145D01*
X190882500Y-113527056D01*
X190882997Y-113530990D01*
X190882997Y-113530991D01*
X190883005Y-113531056D01*
X190883938Y-113542893D01*
X190885327Y-113587089D01*
X190890978Y-113606539D01*
X190894987Y-113625900D01*
X190897526Y-113645997D01*
X190900445Y-113653368D01*
X190900445Y-113653370D01*
X190913804Y-113687112D01*
X190917649Y-113698342D01*
X190929982Y-113740793D01*
X190934015Y-113747612D01*
X190934017Y-113747617D01*
X190940293Y-113758228D01*
X190948988Y-113775976D01*
X190956448Y-113794817D01*
X190961110Y-113801233D01*
X190961110Y-113801234D01*
X190982436Y-113830587D01*
X190988952Y-113840507D01*
X191011458Y-113878562D01*
X191025779Y-113892883D01*
X191038619Y-113907916D01*
X191050528Y-113924307D01*
X191056634Y-113929358D01*
X191084605Y-113952498D01*
X191093384Y-113960488D01*
X193537995Y-116405099D01*
X193572021Y-116467411D01*
X193574900Y-116494194D01*
X193574900Y-117340317D01*
X193574373Y-117351500D01*
X193572698Y-117358993D01*
X193572947Y-117366919D01*
X193572947Y-117366920D01*
X193574838Y-117427070D01*
X193574900Y-117431029D01*
X193574900Y-117458940D01*
X193575397Y-117462874D01*
X193575397Y-117462875D01*
X193575405Y-117462940D01*
X193576338Y-117474777D01*
X193577727Y-117518973D01*
X193582558Y-117535601D01*
X193583378Y-117538423D01*
X193587387Y-117557784D01*
X193588560Y-117567065D01*
X193589926Y-117577881D01*
X193592845Y-117585252D01*
X193592845Y-117585254D01*
X193606204Y-117618996D01*
X193610049Y-117630226D01*
X193613503Y-117642116D01*
X193622382Y-117672677D01*
X193626415Y-117679496D01*
X193626417Y-117679501D01*
X193632693Y-117690112D01*
X193641388Y-117707860D01*
X193648848Y-117726701D01*
X193653510Y-117733117D01*
X193653510Y-117733118D01*
X193674836Y-117762471D01*
X193681352Y-117772391D01*
X193703858Y-117810446D01*
X193718179Y-117824767D01*
X193731019Y-117839800D01*
X193742928Y-117856191D01*
X193749033Y-117861242D01*
X193749038Y-117861247D01*
X193777004Y-117884383D01*
X193785782Y-117892371D01*
X194350795Y-118457384D01*
X194384821Y-118519696D01*
X194387700Y-118546479D01*
X194387700Y-118603647D01*
X194367698Y-118671768D01*
X194314042Y-118718261D01*
X194246781Y-118728761D01*
X194163280Y-118718804D01*
X194156277Y-118719540D01*
X194156276Y-118719540D01*
X193989888Y-118737028D01*
X193989886Y-118737029D01*
X193982888Y-118737764D01*
X193811179Y-118796218D01*
X193805175Y-118799912D01*
X193662695Y-118887566D01*
X193662692Y-118887568D01*
X193656688Y-118891262D01*
X193651653Y-118896193D01*
X193651650Y-118896195D01*
X193645178Y-118902533D01*
X193527093Y-119018171D01*
X193428835Y-119170638D01*
X193366797Y-119341085D01*
X193344063Y-119521040D01*
X193361763Y-119701560D01*
X193419018Y-119873673D01*
X193422665Y-119879695D01*
X193422666Y-119879697D01*
X193505876Y-120017094D01*
X193524100Y-120082365D01*
X193524100Y-121453005D01*
X193504098Y-121521126D01*
X193487195Y-121542101D01*
X193068499Y-121960796D01*
X193006187Y-121994821D01*
X192979404Y-121997700D01*
X192876138Y-121997700D01*
X192808624Y-121978085D01*
X192741205Y-121935300D01*
X192685466Y-121899927D01*
X192634658Y-121881835D01*
X192521225Y-121841443D01*
X192521220Y-121841442D01*
X192514590Y-121839081D01*
X192507602Y-121838248D01*
X192507599Y-121838247D01*
X192384498Y-121823568D01*
X192334480Y-121817604D01*
X192327477Y-121818340D01*
X192327476Y-121818340D01*
X192161088Y-121835828D01*
X192161086Y-121835829D01*
X192154088Y-121836564D01*
X191982379Y-121895018D01*
X191976375Y-121898712D01*
X191833890Y-121986369D01*
X191833887Y-121986371D01*
X191827888Y-121990062D01*
X191824407Y-121993471D01*
X191759211Y-122019330D01*
X191689541Y-122005671D01*
X191638315Y-121956514D01*
X191628644Y-121935300D01*
X191625492Y-121926247D01*
X191595960Y-121841443D01*
X191591664Y-121829106D01*
X191591662Y-121829103D01*
X191589345Y-121822448D01*
X191529315Y-121726379D01*
X191496959Y-121674598D01*
X191493226Y-121668624D01*
X191479541Y-121654843D01*
X191370378Y-121544915D01*
X191370374Y-121544912D01*
X191365415Y-121539918D01*
X191354297Y-121532862D01*
X191306138Y-121502300D01*
X191212266Y-121442727D01*
X191183063Y-121432328D01*
X191048025Y-121384243D01*
X191048020Y-121384242D01*
X191041390Y-121381881D01*
X191034402Y-121381048D01*
X191034399Y-121381047D01*
X190911298Y-121366368D01*
X190861280Y-121360404D01*
X190854277Y-121361140D01*
X190854276Y-121361140D01*
X190687888Y-121378628D01*
X190687886Y-121378629D01*
X190680888Y-121379364D01*
X190509179Y-121437818D01*
X190503175Y-121441512D01*
X190360695Y-121529166D01*
X190360692Y-121529168D01*
X190354688Y-121532862D01*
X190349653Y-121537793D01*
X190349650Y-121537795D01*
X190230125Y-121654843D01*
X190225093Y-121659771D01*
X190173488Y-121739846D01*
X190133365Y-121802106D01*
X190126835Y-121812238D01*
X190126352Y-121813566D01*
X190079656Y-121864052D01*
X190010922Y-121881835D01*
X189972741Y-121874600D01*
X189879628Y-121841444D01*
X189879622Y-121841443D01*
X189872990Y-121839081D01*
X189866002Y-121838248D01*
X189865999Y-121838247D01*
X189742898Y-121823568D01*
X189692880Y-121817604D01*
X189685877Y-121818340D01*
X189685876Y-121818340D01*
X189519488Y-121835828D01*
X189519486Y-121835829D01*
X189512488Y-121836564D01*
X189471304Y-121850584D01*
X189400373Y-121853602D01*
X189339070Y-121817792D01*
X189306858Y-121754524D01*
X189304700Y-121731306D01*
X189304700Y-116420888D01*
X189324702Y-116352767D01*
X189378358Y-116306274D01*
X189448632Y-116296170D01*
X189474610Y-116302788D01*
X189490368Y-116308648D01*
X189574195Y-116319833D01*
X189663180Y-116331707D01*
X189663184Y-116331707D01*
X189670161Y-116332638D01*
X189677172Y-116332000D01*
X189677176Y-116332000D01*
X189819659Y-116319032D01*
X189850800Y-116316198D01*
X189857502Y-116314020D01*
X189857504Y-116314020D01*
X190016609Y-116262324D01*
X190016612Y-116262323D01*
X190023308Y-116260147D01*
X190149224Y-116185086D01*
X190173060Y-116170877D01*
X190173062Y-116170876D01*
X190179112Y-116167269D01*
X190310466Y-116042182D01*
X190410843Y-115891102D01*
X190475255Y-115721538D01*
X190478761Y-115696590D01*
X190499948Y-115545839D01*
X190499948Y-115545836D01*
X190500499Y-115541917D01*
X190500816Y-115519200D01*
X190480597Y-115338945D01*
X190420945Y-115167648D01*
X190417213Y-115161676D01*
X190417209Y-115161667D01*
X190389846Y-115117877D01*
X190370700Y-115051108D01*
X190370700Y-112110452D01*
X190390702Y-112042331D01*
X190422791Y-112011299D01*
X190421451Y-112009534D01*
X190427059Y-112005277D01*
X190433112Y-112001669D01*
X190564466Y-111876582D01*
X190587757Y-111841527D01*
X190651552Y-111745507D01*
X190705909Y-111699836D01*
X190776329Y-111690804D01*
X190840453Y-111721277D01*
G37*
%TD.AperFunction*%
%TA.AperFunction,Conductor*%
G36*
X199750196Y-70268902D02*
G01*
X199771170Y-70285805D01*
X207386995Y-77901629D01*
X207421021Y-77963941D01*
X207423900Y-77990724D01*
X207423900Y-86444258D01*
X207408945Y-86503798D01*
X207398149Y-86523932D01*
X207398145Y-86523941D01*
X207395238Y-86529363D01*
X207337413Y-86718498D01*
X207317426Y-86915262D01*
X207336039Y-87112162D01*
X207392541Y-87301696D01*
X207424566Y-87362437D01*
X207438642Y-87432020D01*
X207412864Y-87498171D01*
X207402203Y-87510293D01*
X206528574Y-88383922D01*
X206466262Y-88417948D01*
X206395447Y-88412883D01*
X206338611Y-88370336D01*
X206320488Y-88336264D01*
X206272864Y-88199506D01*
X206272862Y-88199503D01*
X206270545Y-88192848D01*
X206174426Y-88039024D01*
X206162014Y-88026525D01*
X206051578Y-87915315D01*
X206051574Y-87915312D01*
X206046615Y-87910318D01*
X206011500Y-87888033D01*
X205949227Y-87848514D01*
X205893466Y-87813127D01*
X205832789Y-87791521D01*
X205729225Y-87754643D01*
X205729220Y-87754642D01*
X205722590Y-87752281D01*
X205715604Y-87751448D01*
X205715600Y-87751447D01*
X205595479Y-87737124D01*
X205533694Y-87711973D01*
X205474100Y-87666245D01*
X205424667Y-87628314D01*
X205282724Y-87569519D01*
X205168644Y-87554500D01*
X205130400Y-87549465D01*
X205122212Y-87550543D01*
X205100344Y-87553422D01*
X205083897Y-87554500D01*
X193442101Y-87554500D01*
X193425656Y-87553422D01*
X193395600Y-87549465D01*
X193357358Y-87554500D01*
X193357356Y-87554500D01*
X193243276Y-87569519D01*
X193142909Y-87611093D01*
X193142907Y-87611093D01*
X193142907Y-87611094D01*
X193101332Y-87628314D01*
X193094783Y-87633340D01*
X193094782Y-87633340D01*
X193065585Y-87655744D01*
X193065584Y-87655745D01*
X193007231Y-87700521D01*
X192979443Y-87721843D01*
X192974420Y-87728389D01*
X192960982Y-87745902D01*
X192950114Y-87758293D01*
X192092725Y-88615682D01*
X192030413Y-88649708D01*
X192016804Y-88651897D01*
X191975192Y-88656270D01*
X191907088Y-88663428D01*
X191907086Y-88663429D01*
X191900088Y-88664164D01*
X191728379Y-88722618D01*
X191722375Y-88726312D01*
X191579895Y-88813966D01*
X191579892Y-88813968D01*
X191573888Y-88817662D01*
X191568853Y-88822593D01*
X191568850Y-88822595D01*
X191449325Y-88939643D01*
X191444293Y-88944571D01*
X191346035Y-89097038D01*
X191343626Y-89103658D01*
X191343624Y-89103661D01*
X191298544Y-89227517D01*
X191283997Y-89267485D01*
X191261263Y-89447440D01*
X191278963Y-89627960D01*
X191336218Y-89800073D01*
X191339865Y-89806095D01*
X191339866Y-89806097D01*
X191381180Y-89874314D01*
X191430180Y-89955224D01*
X191556182Y-90085702D01*
X191594042Y-90110477D01*
X191657527Y-90152020D01*
X191707959Y-90185022D01*
X191714563Y-90187478D01*
X191714565Y-90187479D01*
X191871358Y-90245790D01*
X191871360Y-90245790D01*
X191877968Y-90248248D01*
X191961795Y-90259433D01*
X192050780Y-90271307D01*
X192050784Y-90271307D01*
X192057761Y-90272238D01*
X192064772Y-90271600D01*
X192064776Y-90271600D01*
X192207259Y-90258632D01*
X192238400Y-90255798D01*
X192245102Y-90253620D01*
X192245104Y-90253620D01*
X192404209Y-90201924D01*
X192404212Y-90201923D01*
X192410908Y-90199747D01*
X192566712Y-90106869D01*
X192698066Y-89981782D01*
X192798443Y-89830702D01*
X192800946Y-89824114D01*
X192804165Y-89817850D01*
X192805552Y-89818563D01*
X192843428Y-89768590D01*
X192910095Y-89744176D01*
X192979378Y-89759680D01*
X193026111Y-89804634D01*
X193055780Y-89853624D01*
X193181782Y-89984102D01*
X193232972Y-90017600D01*
X193293812Y-90057412D01*
X193333559Y-90083422D01*
X193340163Y-90085878D01*
X193340165Y-90085879D01*
X193496958Y-90144190D01*
X193496960Y-90144190D01*
X193503568Y-90146648D01*
X193587395Y-90157833D01*
X193676380Y-90169707D01*
X193676384Y-90169707D01*
X193683361Y-90170638D01*
X193690372Y-90170000D01*
X193690376Y-90170000D01*
X193832859Y-90157032D01*
X193864000Y-90154198D01*
X193870702Y-90152020D01*
X193870704Y-90152020D01*
X194029809Y-90100324D01*
X194029812Y-90100323D01*
X194036508Y-90098147D01*
X194133519Y-90040317D01*
X194186260Y-90008877D01*
X194186262Y-90008876D01*
X194192312Y-90005269D01*
X194323666Y-89880182D01*
X194347325Y-89844572D01*
X194401680Y-89798903D01*
X194452272Y-89788300D01*
X204466091Y-89788300D01*
X204534212Y-89808302D01*
X204573866Y-89849028D01*
X204638180Y-89955224D01*
X204668519Y-89986641D01*
X204708929Y-90028487D01*
X204741861Y-90091384D01*
X204735561Y-90162100D01*
X204707387Y-90205109D01*
X201753197Y-93159298D01*
X198845347Y-96067148D01*
X198837061Y-96074688D01*
X198830582Y-96078800D01*
X198825157Y-96084577D01*
X198783957Y-96128451D01*
X198781202Y-96131293D01*
X198761465Y-96151030D01*
X198758985Y-96154227D01*
X198751282Y-96163247D01*
X198721014Y-96195479D01*
X198717195Y-96202425D01*
X198717193Y-96202428D01*
X198711252Y-96213234D01*
X198700401Y-96229753D01*
X198687986Y-96245759D01*
X198684841Y-96253028D01*
X198684838Y-96253032D01*
X198670426Y-96286337D01*
X198665209Y-96296987D01*
X198643905Y-96335740D01*
X198641934Y-96343415D01*
X198641934Y-96343416D01*
X198638867Y-96355362D01*
X198632463Y-96374066D01*
X198628761Y-96382622D01*
X198624419Y-96392655D01*
X198623180Y-96400478D01*
X198623177Y-96400488D01*
X198617501Y-96436324D01*
X198615095Y-96447944D01*
X198604100Y-96490770D01*
X198604100Y-96511024D01*
X198602549Y-96530734D01*
X198599380Y-96550743D01*
X198600126Y-96558635D01*
X198603541Y-96594761D01*
X198604100Y-96606619D01*
X198604100Y-103442510D01*
X198584098Y-103510631D01*
X198530442Y-103557124D01*
X198460168Y-103567228D01*
X198435833Y-103561209D01*
X198414025Y-103553443D01*
X198414020Y-103553442D01*
X198407390Y-103551081D01*
X198400402Y-103550248D01*
X198400399Y-103550247D01*
X198277298Y-103535568D01*
X198227280Y-103529604D01*
X198220277Y-103530340D01*
X198220276Y-103530340D01*
X198053888Y-103547828D01*
X198053886Y-103547829D01*
X198046888Y-103548564D01*
X197875179Y-103607018D01*
X197813314Y-103645078D01*
X197745428Y-103686842D01*
X197720688Y-103702062D01*
X197715654Y-103706992D01*
X197715651Y-103706994D01*
X197697751Y-103724523D01*
X197635087Y-103757894D01*
X197609593Y-103760500D01*
X191537839Y-103760500D01*
X191469718Y-103740498D01*
X191423225Y-103686842D01*
X191413066Y-103616961D01*
X191414347Y-103607847D01*
X191414347Y-103607842D01*
X191414899Y-103603917D01*
X191415216Y-103581200D01*
X191394997Y-103400945D01*
X191335345Y-103229648D01*
X191239226Y-103075824D01*
X191234264Y-103070827D01*
X191116378Y-102952115D01*
X191116374Y-102952112D01*
X191111415Y-102947118D01*
X191095633Y-102937102D01*
X191052138Y-102909500D01*
X190958266Y-102849927D01*
X190787390Y-102789081D01*
X190737608Y-102783145D01*
X190672335Y-102755218D01*
X190663475Y-102747170D01*
X190662448Y-102746144D01*
X190628393Y-102683848D01*
X190625500Y-102657005D01*
X190625500Y-97319620D01*
X190646552Y-97249893D01*
X190711742Y-97151773D01*
X190715643Y-97145902D01*
X190780055Y-96976338D01*
X190805299Y-96796717D01*
X190805616Y-96774000D01*
X190785397Y-96593745D01*
X190783080Y-96587091D01*
X190728064Y-96429106D01*
X190728062Y-96429103D01*
X190725745Y-96422448D01*
X190707806Y-96393740D01*
X190633359Y-96274598D01*
X190629626Y-96268624D01*
X190624664Y-96263627D01*
X190506778Y-96144915D01*
X190506774Y-96144912D01*
X190501815Y-96139918D01*
X190488225Y-96131293D01*
X190387147Y-96067148D01*
X190348666Y-96042727D01*
X190308156Y-96028302D01*
X190184425Y-95984243D01*
X190184420Y-95984242D01*
X190177790Y-95981881D01*
X190170802Y-95981048D01*
X190170799Y-95981047D01*
X190047698Y-95966368D01*
X189997680Y-95960404D01*
X189990677Y-95961140D01*
X189990675Y-95961140D01*
X189900270Y-95970642D01*
X189830432Y-95957870D01*
X189778585Y-95909368D01*
X189761100Y-95845332D01*
X189761100Y-83139305D01*
X189781102Y-83071184D01*
X189798005Y-83050210D01*
X193133810Y-79714405D01*
X193196122Y-79680379D01*
X193222905Y-79677500D01*
X196989911Y-79677500D01*
X197058904Y-79698068D01*
X197083870Y-79714405D01*
X197092759Y-79720222D01*
X197099363Y-79722678D01*
X197099365Y-79722679D01*
X197256158Y-79780990D01*
X197256160Y-79780990D01*
X197262768Y-79783448D01*
X197346595Y-79794633D01*
X197435580Y-79806507D01*
X197435584Y-79806507D01*
X197442561Y-79807438D01*
X197449572Y-79806800D01*
X197449576Y-79806800D01*
X197592059Y-79793832D01*
X197623200Y-79790998D01*
X197629902Y-79788820D01*
X197629904Y-79788820D01*
X197789009Y-79737124D01*
X197789012Y-79737123D01*
X197795708Y-79734947D01*
X197951512Y-79642069D01*
X198082866Y-79516982D01*
X198183243Y-79365902D01*
X198247655Y-79196338D01*
X198272899Y-79016717D01*
X198273216Y-78994000D01*
X198252997Y-78813745D01*
X198193345Y-78642448D01*
X198097226Y-78488624D01*
X198081940Y-78473231D01*
X197974378Y-78364915D01*
X197974374Y-78364912D01*
X197969415Y-78359918D01*
X197934749Y-78337918D01*
X197902683Y-78317569D01*
X197816266Y-78262727D01*
X197787063Y-78252328D01*
X197652025Y-78204243D01*
X197652020Y-78204242D01*
X197645390Y-78201881D01*
X197638402Y-78201048D01*
X197638399Y-78201047D01*
X197515298Y-78186368D01*
X197465280Y-78180404D01*
X197458277Y-78181140D01*
X197458276Y-78181140D01*
X197291888Y-78198628D01*
X197291886Y-78198629D01*
X197284888Y-78199364D01*
X197113179Y-78257818D01*
X197057914Y-78291818D01*
X196991893Y-78310500D01*
X192915656Y-78310500D01*
X192907086Y-78310208D01*
X192906043Y-78310137D01*
X192851566Y-78306423D01*
X192844089Y-78307728D01*
X192844086Y-78307728D01*
X192790942Y-78317003D01*
X192784419Y-78317966D01*
X192730908Y-78324442D01*
X192730907Y-78324442D01*
X192723365Y-78325355D01*
X192716255Y-78328041D01*
X192711352Y-78329246D01*
X192700866Y-78332114D01*
X192696074Y-78333561D01*
X192688596Y-78334866D01*
X192681644Y-78337918D01*
X192681643Y-78337918D01*
X192632259Y-78359595D01*
X192626154Y-78362086D01*
X192575718Y-78381145D01*
X192575715Y-78381147D01*
X192568611Y-78383831D01*
X192562354Y-78388131D01*
X192557886Y-78390467D01*
X192548440Y-78395725D01*
X192544074Y-78398307D01*
X192537115Y-78401362D01*
X192488296Y-78438823D01*
X192482977Y-78442686D01*
X192444279Y-78469283D01*
X192432274Y-78477534D01*
X192427223Y-78483203D01*
X192392368Y-78522323D01*
X192387387Y-78527598D01*
X190401411Y-80513574D01*
X190339099Y-80547600D01*
X190268284Y-80542535D01*
X190211448Y-80499988D01*
X190187101Y-80438524D01*
X190176582Y-80344744D01*
X190175797Y-80337745D01*
X190173480Y-80331091D01*
X190118464Y-80173106D01*
X190118462Y-80173103D01*
X190116145Y-80166448D01*
X190029736Y-80028164D01*
X190023759Y-80018598D01*
X190020026Y-80012624D01*
X190011235Y-80003771D01*
X189897178Y-79888915D01*
X189897174Y-79888912D01*
X189892215Y-79883918D01*
X189881097Y-79876862D01*
X189770234Y-79806507D01*
X189739066Y-79786727D01*
X189709863Y-79776328D01*
X189574825Y-79728243D01*
X189574820Y-79728242D01*
X189568190Y-79725881D01*
X189561202Y-79725048D01*
X189561199Y-79725047D01*
X189438098Y-79710368D01*
X189388080Y-79704404D01*
X189381077Y-79705140D01*
X189381076Y-79705140D01*
X189214688Y-79722628D01*
X189214686Y-79722629D01*
X189207688Y-79723364D01*
X189035979Y-79781818D01*
X189020019Y-79791637D01*
X188887495Y-79873166D01*
X188887492Y-79873168D01*
X188881488Y-79876862D01*
X188876453Y-79881793D01*
X188876450Y-79881795D01*
X188841214Y-79916301D01*
X188751893Y-80003771D01*
X188653635Y-80156238D01*
X188651226Y-80162858D01*
X188651224Y-80162861D01*
X188594968Y-80317424D01*
X188591597Y-80326685D01*
X188590714Y-80333676D01*
X188589689Y-80337912D01*
X188556317Y-80397378D01*
X187639510Y-81314185D01*
X187577198Y-81348211D01*
X187506383Y-81343146D01*
X187449547Y-81300599D01*
X187424736Y-81234079D01*
X187424415Y-81225089D01*
X187424456Y-73647598D01*
X187426203Y-73626689D01*
X187428723Y-73611716D01*
X187428724Y-73611710D01*
X187429531Y-73606912D01*
X187429685Y-73594360D01*
X187428996Y-73589548D01*
X187428824Y-73586898D01*
X187428289Y-73581639D01*
X187427307Y-73565380D01*
X187413575Y-73338180D01*
X187410978Y-73295202D01*
X187410977Y-73295197D01*
X187410748Y-73291401D01*
X187356048Y-72992859D01*
X187350373Y-72974644D01*
X187292168Y-72787855D01*
X187265755Y-72703090D01*
X187141187Y-72426319D01*
X186984161Y-72166585D01*
X186796966Y-71927677D01*
X186582335Y-71713078D01*
X186343397Y-71525920D01*
X186340131Y-71523946D01*
X186086906Y-71370908D01*
X186086901Y-71370905D01*
X186083639Y-71368934D01*
X185806849Y-71244408D01*
X185803217Y-71243277D01*
X185803212Y-71243275D01*
X185520705Y-71155292D01*
X185520700Y-71155291D01*
X185517066Y-71154159D01*
X185486029Y-71148477D01*
X185222271Y-71100192D01*
X185222264Y-71100191D01*
X185218516Y-71099505D01*
X184946398Y-71083101D01*
X184933110Y-71081588D01*
X184928107Y-71080748D01*
X184921831Y-71080673D01*
X184920420Y-71080656D01*
X184920418Y-71080656D01*
X184915555Y-71080598D01*
X184910747Y-71081288D01*
X184910741Y-71081288D01*
X184887945Y-71084558D01*
X184870056Y-71085834D01*
X183723156Y-71085834D01*
X141195616Y-71085829D01*
X141127495Y-71065827D01*
X141081002Y-71012171D01*
X141070899Y-70941897D01*
X141100392Y-70877317D01*
X141117007Y-70861357D01*
X141183021Y-70808659D01*
X141183022Y-70808658D01*
X141185773Y-70806462D01*
X141706429Y-70285805D01*
X141768742Y-70251780D01*
X141795525Y-70248900D01*
X199682075Y-70248900D01*
X199750196Y-70268902D01*
G37*
%TD.AperFunction*%
%TD*%
M02*
