%TF.GenerationSoftware,KiCad,Pcbnew,(6.0.4-0)*%
%TF.CreationDate,2022-05-07T01:43:22+02:00*%
%TF.ProjectId,LaptopLEDsign,4c617074-6f70-44c4-9544-7369676e2e6b,rev?*%
%TF.SameCoordinates,Original*%
%TF.FileFunction,Soldermask,Top*%
%TF.FilePolarity,Negative*%
%FSLAX46Y46*%
G04 Gerber Fmt 4.6, Leading zero omitted, Abs format (unit mm)*
G04 Created by KiCad (PCBNEW (6.0.4-0)) date 2022-05-07 01:43:22*
%MOMM*%
%LPD*%
G01*
G04 APERTURE LIST*
G04 Aperture macros list*
%AMRoundRect*
0 Rectangle with rounded corners*
0 $1 Rounding radius*
0 $2 $3 $4 $5 $6 $7 $8 $9 X,Y pos of 4 corners*
0 Add a 4 corners polygon primitive as box body*
4,1,4,$2,$3,$4,$5,$6,$7,$8,$9,$2,$3,0*
0 Add four circle primitives for the rounded corners*
1,1,$1+$1,$2,$3*
1,1,$1+$1,$4,$5*
1,1,$1+$1,$6,$7*
1,1,$1+$1,$8,$9*
0 Add four rect primitives between the rounded corners*
20,1,$1+$1,$2,$3,$4,$5,0*
20,1,$1+$1,$4,$5,$6,$7,0*
20,1,$1+$1,$6,$7,$8,$9,0*
20,1,$1+$1,$8,$9,$2,$3,0*%
G04 Aperture macros list end*
%ADD10RoundRect,0.237500X-0.237500X0.300000X-0.237500X-0.300000X0.237500X-0.300000X0.237500X0.300000X0*%
%ADD11R,0.419990X1.300000*%
%ADD12R,0.900000X2.000000*%
%ADD13R,2.000000X0.900000*%
%ADD14R,1.330000X1.330000*%
%ADD15RoundRect,0.237500X0.250000X0.237500X-0.250000X0.237500X-0.250000X-0.237500X0.250000X-0.237500X0*%
%ADD16R,1.500000X1.000000*%
%ADD17RoundRect,0.237500X-0.300000X-0.237500X0.300000X-0.237500X0.300000X0.237500X-0.300000X0.237500X0*%
%ADD18RoundRect,0.250000X-1.450000X0.400000X-1.450000X-0.400000X1.450000X-0.400000X1.450000X0.400000X0*%
%ADD19RoundRect,0.250000X-0.400000X-1.450000X0.400000X-1.450000X0.400000X1.450000X-0.400000X1.450000X0*%
%ADD20RoundRect,0.237500X-0.237500X0.250000X-0.237500X-0.250000X0.237500X-0.250000X0.237500X0.250000X0*%
%ADD21RoundRect,0.237500X0.300000X0.237500X-0.300000X0.237500X-0.300000X-0.237500X0.300000X-0.237500X0*%
%ADD22R,0.900000X0.280010*%
%ADD23R,0.280010X0.900000*%
%ADD24R,3.300000X3.300000*%
%ADD25RoundRect,0.250000X-0.550000X1.500000X-0.550000X-1.500000X0.550000X-1.500000X0.550000X1.500000X0*%
%ADD26R,0.600000X1.200000*%
%ADD27R,3.499873X2.500000*%
%ADD28R,0.990602X0.304801*%
%ADD29RoundRect,0.237500X0.237500X-0.250000X0.237500X0.250000X-0.237500X0.250000X-0.237500X-0.250000X0*%
%ADD30R,2.470003X0.980010*%
%ADD31R,2.470003X3.600000*%
%ADD32RoundRect,0.237500X-0.250000X-0.237500X0.250000X-0.237500X0.250000X0.237500X-0.250000X0.237500X0*%
%ADD33R,1.500000X0.900000*%
%ADD34RoundRect,0.237500X0.237500X-0.300000X0.237500X0.300000X-0.237500X0.300000X-0.237500X-0.300000X0*%
%ADD35R,0.600000X0.419990*%
%ADD36R,2.046380X1.620015*%
%ADD37C,0.700025*%
%ADD38R,0.600000X1.300000*%
%ADD39R,0.300000X1.300000*%
%ADD40O,1.200000X2.200000*%
%ADD41O,1.200000X1.800000*%
%ADD42R,2.200000X1.500000*%
%ADD43RoundRect,0.237500X-0.287500X-0.237500X0.287500X-0.237500X0.287500X0.237500X-0.287500X0.237500X0*%
%ADD44R,1.072009X0.532004*%
%ADD45R,1.800000X0.600000*%
%ADD46R,2.184000X2.971000*%
%ADD47R,0.700000X1.250013*%
%ADD48R,1.000000X0.550013*%
%ADD49R,1.050013X0.550013*%
%ADD50R,0.450013X1.400000*%
%ADD51R,2.400000X0.450013*%
%ADD52R,4.220015X2.124003*%
%ADD53R,3.000000X2.100000*%
%ADD54R,1.600000X0.800000*%
G04 APERTURE END LIST*
D10*
%TO.C,C31*%
X170130000Y-65587500D03*
X170130000Y-67312500D03*
%TD*%
D11*
%TO.C,D3*%
X164035842Y-127758498D03*
X164885728Y-127758498D03*
X165735868Y-127758498D03*
X166585754Y-127758498D03*
%TD*%
D12*
%TO.C,U4*%
X181004850Y-96302100D03*
X182274850Y-96302100D03*
X183544850Y-96302100D03*
X184814850Y-96302100D03*
X186084850Y-96302100D03*
X187354850Y-96302100D03*
X188624850Y-96302100D03*
X189894850Y-96302100D03*
X191164850Y-96302100D03*
X192434850Y-96302100D03*
X193704850Y-96302100D03*
X194974850Y-96302100D03*
X196244850Y-96302100D03*
X197514850Y-96302100D03*
D13*
X198514850Y-93517100D03*
X198514850Y-92247100D03*
X198514850Y-90977100D03*
X198514850Y-89707100D03*
X198514850Y-88437100D03*
X198514850Y-87167100D03*
X198514850Y-85897100D03*
X198514850Y-84627100D03*
X198514850Y-83357100D03*
X198514850Y-82087100D03*
D12*
X197514850Y-79302100D03*
X196244850Y-79302100D03*
X194974850Y-79302100D03*
X193704850Y-79302100D03*
X192434850Y-79302100D03*
X191164850Y-79302100D03*
X189894850Y-79302100D03*
X188624850Y-79302100D03*
X187354850Y-79302100D03*
X186084850Y-79302100D03*
X184814850Y-79302100D03*
X183544850Y-79302100D03*
X182274850Y-79302100D03*
X181004850Y-79302100D03*
D14*
X190339850Y-90637100D03*
X188504850Y-90637100D03*
X188504850Y-88802100D03*
X188504850Y-86967100D03*
X190339850Y-88802100D03*
X186669850Y-88802100D03*
X186669850Y-90637100D03*
X190339850Y-86967100D03*
X186669850Y-86967100D03*
%TD*%
D15*
%TO.C,R14*%
X127072500Y-111440000D03*
X125247500Y-111440000D03*
%TD*%
D16*
%TO.C,D17*%
X134291100Y-63920000D03*
X134291100Y-67120000D03*
X139191100Y-67120000D03*
X139191100Y-63920000D03*
%TD*%
%TO.C,D12*%
X212505700Y-63920000D03*
X212505700Y-67120000D03*
X217405700Y-67120000D03*
X217405700Y-63920000D03*
%TD*%
D17*
%TO.C,C13*%
X192487500Y-113940000D03*
X194212500Y-113940000D03*
%TD*%
D18*
%TO.C,F2*%
X117630000Y-119525000D03*
X117630000Y-123975000D03*
%TD*%
D16*
%TO.C,D15*%
X175062400Y-63920000D03*
X175062400Y-67120000D03*
X179962400Y-67120000D03*
X179962400Y-63920000D03*
%TD*%
D19*
%TO.C,F1*%
X148825000Y-119530000D03*
X153275000Y-119530000D03*
%TD*%
D16*
%TO.C,D8*%
X212505700Y-113900000D03*
X212505700Y-117100000D03*
X217405700Y-117100000D03*
X217405700Y-113900000D03*
%TD*%
D11*
%TO.C,D27*%
X98302342Y-127758498D03*
X99152228Y-127758498D03*
X100002368Y-127758498D03*
X100852254Y-127758498D03*
%TD*%
D17*
%TO.C,C18*%
X164887500Y-125530000D03*
X166612500Y-125530000D03*
%TD*%
D16*
%TO.C,D18*%
X121810000Y-63920000D03*
X121810000Y-67120000D03*
X126710000Y-67120000D03*
X126710000Y-63920000D03*
%TD*%
D20*
%TO.C,R2*%
X144890000Y-122967500D03*
X144890000Y-124792500D03*
%TD*%
D21*
%TO.C,C7*%
X191710000Y-103800000D03*
X189985000Y-103800000D03*
%TD*%
D16*
%TO.C,D20*%
X96847800Y-63920000D03*
X96847800Y-67120000D03*
X101747800Y-67120000D03*
X101747800Y-63920000D03*
%TD*%
D17*
%TO.C,C37*%
X84320000Y-73770000D03*
X86045000Y-73770000D03*
%TD*%
D16*
%TO.C,D13*%
X200024600Y-63920000D03*
X200024600Y-67120000D03*
X204924600Y-67120000D03*
X204924600Y-63920000D03*
%TD*%
D22*
%TO.C,U7*%
X203030051Y-116628933D03*
X203030051Y-117129314D03*
X203030051Y-117629695D03*
X203030051Y-118130076D03*
X203030051Y-118630457D03*
X203030051Y-119130838D03*
X203030051Y-119631219D03*
D23*
X204028781Y-120630203D03*
X204529162Y-120630203D03*
X205029543Y-120630203D03*
X205529924Y-120630203D03*
X206030305Y-120630203D03*
X206530686Y-120630203D03*
X207031067Y-120630203D03*
D22*
X208030051Y-119631219D03*
X208030051Y-119130838D03*
X208030051Y-118630457D03*
X208030051Y-118130076D03*
X208030051Y-117629695D03*
X208030051Y-117129314D03*
X208030051Y-116628933D03*
D23*
X207031067Y-115630203D03*
X206530686Y-115630203D03*
X206030305Y-115630203D03*
X205529924Y-115630203D03*
X205029543Y-115630203D03*
X204529162Y-115630203D03*
X204028781Y-115630203D03*
D24*
X205529924Y-118130076D03*
%TD*%
D25*
%TO.C,C3*%
X171400000Y-119950000D03*
X171400000Y-125550000D03*
%TD*%
D16*
%TO.C,D10*%
X212505700Y-88910000D03*
X212505700Y-92110000D03*
X217405700Y-92110000D03*
X217405700Y-88910000D03*
%TD*%
D17*
%TO.C,C39*%
X84320000Y-98716666D03*
X86045000Y-98716666D03*
%TD*%
%TO.C,C45*%
X136485000Y-125530000D03*
X138210000Y-125530000D03*
%TD*%
D26*
%TO.C,U10*%
X127995004Y-113361694D03*
X126725001Y-113361694D03*
X125454999Y-113361694D03*
X124184996Y-113361694D03*
X124184996Y-119178306D03*
X125454999Y-119178306D03*
X126725001Y-119178306D03*
X127995004Y-119178306D03*
D27*
X126090000Y-116270000D03*
%TD*%
D28*
%TO.C,U3*%
X181745070Y-110349962D03*
X181745070Y-109699975D03*
X181745070Y-109049987D03*
X181745070Y-108400000D03*
X181745070Y-107750013D03*
X181745070Y-107100025D03*
X181745070Y-106450038D03*
X175894930Y-106450038D03*
X175894930Y-107100025D03*
X175894930Y-107750013D03*
X175894930Y-108400000D03*
X175894930Y-109049987D03*
X175894930Y-109699975D03*
X175894930Y-110349962D03*
%TD*%
D16*
%TO.C,D24*%
X84366700Y-101405000D03*
X84366700Y-104605000D03*
X89266700Y-104605000D03*
X89266700Y-101405000D03*
%TD*%
D10*
%TO.C,C36*%
X91940000Y-65587500D03*
X91940000Y-67312500D03*
%TD*%
D17*
%TO.C,C12*%
X192487500Y-115820000D03*
X194212500Y-115820000D03*
%TD*%
%TO.C,C27*%
X215785000Y-69760000D03*
X217510000Y-69760000D03*
%TD*%
D20*
%TO.C,R11*%
X127150000Y-120987500D03*
X127150000Y-122812500D03*
%TD*%
D29*
%TO.C,R12*%
X192430000Y-119622500D03*
X192430000Y-117797500D03*
%TD*%
D11*
%TO.C,D4*%
X176516942Y-127758498D03*
X177366828Y-127758498D03*
X178216968Y-127758498D03*
X179066854Y-127758498D03*
%TD*%
D17*
%TO.C,C19*%
X177557500Y-125590000D03*
X179282500Y-125590000D03*
%TD*%
D15*
%TO.C,R17*%
X181922500Y-114230000D03*
X180097500Y-114230000D03*
%TD*%
D30*
%TO.C,U18*%
X196414900Y-110439975D03*
X196414900Y-108140000D03*
X196414900Y-105840025D03*
D31*
X190745100Y-108140000D03*
%TD*%
D17*
%TO.C,C43*%
X111637500Y-125530000D03*
X113362500Y-125530000D03*
%TD*%
D16*
%TO.C,D23*%
X84366700Y-88910000D03*
X84366700Y-92110000D03*
X89266700Y-92110000D03*
X89266700Y-88910000D03*
%TD*%
D32*
%TO.C,R16*%
X180097500Y-116310000D03*
X181922500Y-116310000D03*
%TD*%
D16*
%TO.C,D16*%
X162581300Y-63920000D03*
X162581300Y-67120000D03*
X167481300Y-67120000D03*
X167481300Y-63920000D03*
%TD*%
D17*
%TO.C,C38*%
X84320000Y-86243333D03*
X86045000Y-86243333D03*
%TD*%
%TO.C,C40*%
X84320000Y-111190000D03*
X86045000Y-111190000D03*
%TD*%
D11*
%TO.C,D7*%
X213960242Y-127758498D03*
X214810128Y-127758498D03*
X215660268Y-127758498D03*
X216510154Y-127758498D03*
%TD*%
D33*
%TO.C,SW1*%
X196679924Y-99599936D03*
X192880076Y-99599936D03*
X196679924Y-101100064D03*
X192880076Y-101100064D03*
%TD*%
D20*
%TO.C,R8*%
X189550000Y-98907500D03*
X189550000Y-100732500D03*
%TD*%
D16*
%TO.C,D9*%
X212505700Y-101405000D03*
X212505700Y-104605000D03*
X217405700Y-104605000D03*
X217405700Y-101405000D03*
%TD*%
D17*
%TO.C,C24*%
X215785000Y-107102500D03*
X217510000Y-107102500D03*
%TD*%
%TO.C,C17*%
X176007500Y-114230000D03*
X177732500Y-114230000D03*
%TD*%
%TO.C,C16*%
X176007500Y-116310000D03*
X177732500Y-116310000D03*
%TD*%
D10*
%TO.C,C32*%
X141800000Y-65587500D03*
X141800000Y-67312500D03*
%TD*%
D34*
%TO.C,C14*%
X121990000Y-119202500D03*
X121990000Y-117477500D03*
%TD*%
D16*
%TO.C,D19*%
X109328900Y-63920000D03*
X109328900Y-67120000D03*
X114228900Y-67120000D03*
X114228900Y-63920000D03*
%TD*%
D10*
%TO.C,C34*%
X116870000Y-65587500D03*
X116870000Y-67312500D03*
%TD*%
D29*
%TO.C,R9*%
X187450000Y-100732500D03*
X187450000Y-98907500D03*
%TD*%
D17*
%TO.C,C20*%
X190030000Y-125530000D03*
X191755000Y-125530000D03*
%TD*%
D11*
%TO.C,D28*%
X110783442Y-127758498D03*
X111633328Y-127758498D03*
X112483468Y-127758498D03*
X113333354Y-127758498D03*
%TD*%
D35*
%TO.C,U8*%
X204450897Y-111720013D03*
X204450897Y-112370000D03*
X204450897Y-113019987D03*
X206350821Y-113019987D03*
X206350821Y-112370000D03*
X206350821Y-111720013D03*
%TD*%
D36*
%TO.C,U6*%
X176504569Y-119119976D03*
X181635380Y-119119976D03*
%TD*%
D37*
%TO.C,USB1*%
X154037218Y-124642535D03*
X148257182Y-124642535D03*
D38*
X147947302Y-123399964D03*
X148747149Y-123399964D03*
D39*
X149897264Y-123399964D03*
X150897264Y-123399964D03*
X151397136Y-123399964D03*
X152397136Y-123399964D03*
D38*
X154347098Y-123399964D03*
X153547251Y-123399964D03*
D39*
X152897264Y-123399964D03*
X151897264Y-123399964D03*
X150397136Y-123399964D03*
X149397136Y-123399964D03*
D40*
X155467241Y-124142408D03*
X146827159Y-124142408D03*
D41*
X155467241Y-128322494D03*
X146827159Y-128322494D03*
%TD*%
D11*
%TO.C,D6*%
X201479142Y-127758498D03*
X202329028Y-127758498D03*
X203179168Y-127758498D03*
X204029054Y-127758498D03*
%TD*%
D21*
%TO.C,C15*%
X122652500Y-109000000D03*
X120927500Y-109000000D03*
%TD*%
D42*
%TO.C,SW3*%
X146847200Y-63621987D03*
X155447200Y-63621987D03*
X146847200Y-68122114D03*
X155447200Y-68122114D03*
%TD*%
D43*
%TO.C,D1*%
X140997500Y-126600000D03*
X142747500Y-126600000D03*
%TD*%
D17*
%TO.C,C41*%
X86577500Y-125530000D03*
X88302500Y-125530000D03*
%TD*%
D32*
%TO.C,R1*%
X160527500Y-125530000D03*
X162352500Y-125530000D03*
%TD*%
D20*
%TO.C,R3*%
X157780000Y-122967500D03*
X157780000Y-124792500D03*
%TD*%
D17*
%TO.C,C25*%
X215785000Y-94655000D03*
X217510000Y-94655000D03*
%TD*%
D10*
%TO.C,C30*%
X182683333Y-65587500D03*
X182683333Y-67312500D03*
%TD*%
D16*
%TO.C,D25*%
X84366700Y-113900000D03*
X84366700Y-117100000D03*
X89266700Y-117100000D03*
X89266700Y-113900000D03*
%TD*%
%TO.C,D22*%
X84366700Y-76415000D03*
X84366700Y-79615000D03*
X89266700Y-79615000D03*
X89266700Y-76415000D03*
%TD*%
D11*
%TO.C,D5*%
X188998042Y-127758498D03*
X189847928Y-127758498D03*
X190698068Y-127758498D03*
X191547954Y-127758498D03*
%TD*%
D36*
%TO.C,U2*%
X161435431Y-119570025D03*
X156304620Y-119570025D03*
%TD*%
D16*
%TO.C,D11*%
X212505700Y-76415000D03*
X212505700Y-79615000D03*
X217405700Y-79615000D03*
X217405700Y-76415000D03*
%TD*%
D10*
%TO.C,C29*%
X195236666Y-65587500D03*
X195236666Y-67312500D03*
%TD*%
D44*
%TO.C,U11*%
X126999098Y-108559962D03*
X126999098Y-107610000D03*
X126999098Y-106660038D03*
X124700902Y-106660038D03*
X124700902Y-107610000D03*
X124700902Y-108559962D03*
%TD*%
D45*
%TO.C,U5*%
X190186563Y-118969154D03*
X190186563Y-117699151D03*
X190186563Y-116429149D03*
X190186563Y-115159146D03*
X184641731Y-115159146D03*
X184641731Y-116429149D03*
X184641731Y-117699151D03*
X184641731Y-118969154D03*
D46*
X187414147Y-117064150D03*
%TD*%
D43*
%TO.C,D2*%
X140997500Y-129080000D03*
X142747500Y-129080000D03*
%TD*%
D17*
%TO.C,C11*%
X141010000Y-124140000D03*
X142735000Y-124140000D03*
%TD*%
D15*
%TO.C,R6*%
X185332500Y-102720000D03*
X183507500Y-102720000D03*
%TD*%
D10*
%TO.C,C28*%
X207790000Y-65587500D03*
X207790000Y-67312500D03*
%TD*%
D17*
%TO.C,C44*%
X124167500Y-125530000D03*
X125892500Y-125530000D03*
%TD*%
D34*
%TO.C,C4*%
X198950000Y-121512500D03*
X198950000Y-119787500D03*
%TD*%
D47*
%TO.C,U1*%
X164410038Y-121472467D03*
X166309962Y-121472467D03*
X165360000Y-119472467D03*
%TD*%
D17*
%TO.C,C2*%
X176007500Y-112132500D03*
X177732500Y-112132500D03*
%TD*%
D10*
%TO.C,C33*%
X129335000Y-65587500D03*
X129335000Y-67312500D03*
%TD*%
D48*
%TO.C,U9*%
X131640051Y-108579860D03*
X131640051Y-107629898D03*
X131640051Y-106679936D03*
X128839949Y-106679936D03*
X128839949Y-107629898D03*
X128839949Y-108579860D03*
%TD*%
D49*
%TO.C,U20*%
X205855083Y-75245545D03*
X204504816Y-75245545D03*
X204504816Y-76095431D03*
X205855083Y-76095431D03*
D50*
X206904867Y-75670488D03*
D51*
X205179949Y-74445443D03*
D50*
X203455032Y-75670488D03*
D51*
X205179949Y-76895532D03*
%TD*%
D21*
%TO.C,C8*%
X185282500Y-100700000D03*
X183557500Y-100700000D03*
%TD*%
D10*
%TO.C,C35*%
X104405000Y-65587500D03*
X104405000Y-67312500D03*
%TD*%
D11*
%TO.C,D26*%
X85821242Y-127758498D03*
X86671128Y-127758498D03*
X87521268Y-127758498D03*
X88371154Y-127758498D03*
%TD*%
D16*
%TO.C,D14*%
X187543500Y-63920000D03*
X187543500Y-67120000D03*
X192443500Y-67120000D03*
X192443500Y-63920000D03*
%TD*%
%TO.C,D21*%
X84366700Y-63920000D03*
X84366700Y-67120000D03*
X89266700Y-67120000D03*
X89266700Y-63920000D03*
%TD*%
D20*
%TO.C,R10*%
X125080000Y-120987500D03*
X125080000Y-122812500D03*
%TD*%
D10*
%TO.C,C6*%
X201050000Y-119787500D03*
X201050000Y-121512500D03*
%TD*%
D17*
%TO.C,C1*%
X181047500Y-98890000D03*
X182772500Y-98890000D03*
%TD*%
D11*
%TO.C,D29*%
X123264542Y-127758498D03*
X124114428Y-127758498D03*
X124964568Y-127758498D03*
X125814454Y-127758498D03*
%TD*%
D15*
%TO.C,R13*%
X129142500Y-104840000D03*
X127317500Y-104840000D03*
%TD*%
D17*
%TO.C,C21*%
X202537500Y-125530000D03*
X204262500Y-125530000D03*
%TD*%
D11*
%TO.C,D30*%
X135745642Y-127758498D03*
X136595528Y-127758498D03*
X137445668Y-127758498D03*
X138295554Y-127758498D03*
%TD*%
D17*
%TO.C,C23*%
X215785000Y-119550000D03*
X217510000Y-119550000D03*
%TD*%
D15*
%TO.C,R15*%
X122702500Y-107130000D03*
X120877500Y-107130000D03*
%TD*%
D32*
%TO.C,R7*%
X197017500Y-74650000D03*
X198842500Y-74650000D03*
%TD*%
D34*
%TO.C,C10*%
X208930000Y-76512500D03*
X208930000Y-74787500D03*
%TD*%
D15*
%TO.C,R5*%
X198842500Y-72560000D03*
X197017500Y-72560000D03*
%TD*%
D17*
%TO.C,C9*%
X197067500Y-76690000D03*
X198792500Y-76690000D03*
%TD*%
D52*
%TO.C,L1*%
X185490000Y-125230000D03*
X185490000Y-121230000D03*
%TD*%
D15*
%TO.C,R4*%
X185332500Y-104740000D03*
X183507500Y-104740000D03*
%TD*%
D17*
%TO.C,C5*%
X195515000Y-103800000D03*
X197240000Y-103800000D03*
%TD*%
%TO.C,C22*%
X214870000Y-125530000D03*
X216595000Y-125530000D03*
%TD*%
D53*
%TO.C,U26*%
X94919924Y-125275006D03*
X94919924Y-118924994D03*
D54*
X92020000Y-122725095D03*
X92020000Y-121474905D03*
%TD*%
D33*
%TO.C,SW2*%
X190220076Y-75680064D03*
X194019924Y-75680064D03*
X190220076Y-74179936D03*
X194019924Y-74179936D03*
%TD*%
D10*
%TO.C,C42*%
X103110000Y-126297500D03*
X103110000Y-128022500D03*
%TD*%
D17*
%TO.C,C26*%
X215785000Y-82207500D03*
X217510000Y-82207500D03*
%TD*%
M02*
