%TF.GenerationSoftware,KiCad,Pcbnew,(6.0.4-0)*%
%TF.CreationDate,2022-05-07T01:43:22+02:00*%
%TF.ProjectId,LaptopLEDsign,4c617074-6f70-44c4-9544-7369676e2e6b,rev?*%
%TF.SameCoordinates,Original*%
%TF.FileFunction,Legend,Top*%
%TF.FilePolarity,Positive*%
%FSLAX46Y46*%
G04 Gerber Fmt 4.6, Leading zero omitted, Abs format (unit mm)*
G04 Created by KiCad (PCBNEW (6.0.4-0)) date 2022-05-07 01:43:22*
%MOMM*%
%LPD*%
G01*
G04 APERTURE LIST*
%ADD10C,0.200000*%
%ADD11C,0.150000*%
%ADD12C,0.120000*%
%ADD13C,0.254001*%
%ADD14C,0.127000*%
%ADD15C,0.300000*%
%ADD16C,0.059995*%
%ADD17C,0.152400*%
%ADD18C,0.100000*%
%ADD19C,0.151994*%
G04 APERTURE END LIST*
D10*
X91360000Y-70880000D02*
X119360000Y-70880000D01*
X119360000Y-70880000D02*
X119360000Y-116880000D01*
X119360000Y-116880000D02*
X91360000Y-116880000D01*
X91360000Y-116880000D02*
X91360000Y-70880000D01*
D11*
X184962857Y-74868571D02*
X185105714Y-74916190D01*
X185153333Y-74963809D01*
X185200952Y-75059047D01*
X185200952Y-75201904D01*
X185153333Y-75297142D01*
X185105714Y-75344761D01*
X185010476Y-75392380D01*
X184629523Y-75392380D01*
X184629523Y-74392380D01*
X184962857Y-74392380D01*
X185058095Y-74440000D01*
X185105714Y-74487619D01*
X185153333Y-74582857D01*
X185153333Y-74678095D01*
X185105714Y-74773333D01*
X185058095Y-74820952D01*
X184962857Y-74868571D01*
X184629523Y-74868571D01*
X185820000Y-74392380D02*
X186010476Y-74392380D01*
X186105714Y-74440000D01*
X186200952Y-74535238D01*
X186248571Y-74725714D01*
X186248571Y-75059047D01*
X186200952Y-75249523D01*
X186105714Y-75344761D01*
X186010476Y-75392380D01*
X185820000Y-75392380D01*
X185724761Y-75344761D01*
X185629523Y-75249523D01*
X185581904Y-75059047D01*
X185581904Y-74725714D01*
X185629523Y-74535238D01*
X185724761Y-74440000D01*
X185820000Y-74392380D01*
X186867619Y-74392380D02*
X187058095Y-74392380D01*
X187153333Y-74440000D01*
X187248571Y-74535238D01*
X187296190Y-74725714D01*
X187296190Y-75059047D01*
X187248571Y-75249523D01*
X187153333Y-75344761D01*
X187058095Y-75392380D01*
X186867619Y-75392380D01*
X186772380Y-75344761D01*
X186677142Y-75249523D01*
X186629523Y-75059047D01*
X186629523Y-74725714D01*
X186677142Y-74535238D01*
X186772380Y-74440000D01*
X186867619Y-74392380D01*
X187581904Y-74392380D02*
X188153333Y-74392380D01*
X187867619Y-75392380D02*
X187867619Y-74392380D01*
X129303809Y-128172380D02*
X128827619Y-128172380D01*
X128827619Y-127172380D01*
X129637142Y-127648571D02*
X129970476Y-127648571D01*
X130113333Y-128172380D02*
X129637142Y-128172380D01*
X129637142Y-127172380D01*
X130113333Y-127172380D01*
X130541904Y-128172380D02*
X130541904Y-127172380D01*
X130780000Y-127172380D01*
X130922857Y-127220000D01*
X131018095Y-127315238D01*
X131065714Y-127410476D01*
X131113333Y-127600952D01*
X131113333Y-127743809D01*
X131065714Y-127934285D01*
X131018095Y-128029523D01*
X130922857Y-128124761D01*
X130780000Y-128172380D01*
X130541904Y-128172380D01*
X132256190Y-127267619D02*
X132303809Y-127220000D01*
X132399047Y-127172380D01*
X132637142Y-127172380D01*
X132732380Y-127220000D01*
X132780000Y-127267619D01*
X132827619Y-127362857D01*
X132827619Y-127458095D01*
X132780000Y-127600952D01*
X132208571Y-128172380D01*
X132827619Y-128172380D01*
X133399047Y-127600952D02*
X133303809Y-127553333D01*
X133256190Y-127505714D01*
X133208571Y-127410476D01*
X133208571Y-127362857D01*
X133256190Y-127267619D01*
X133303809Y-127220000D01*
X133399047Y-127172380D01*
X133589523Y-127172380D01*
X133684761Y-127220000D01*
X133732380Y-127267619D01*
X133780000Y-127362857D01*
X133780000Y-127410476D01*
X133732380Y-127505714D01*
X133684761Y-127553333D01*
X133589523Y-127600952D01*
X133399047Y-127600952D01*
X133303809Y-127648571D01*
X133256190Y-127696190D01*
X133208571Y-127791428D01*
X133208571Y-127981904D01*
X133256190Y-128077142D01*
X133303809Y-128124761D01*
X133399047Y-128172380D01*
X133589523Y-128172380D01*
X133684761Y-128124761D01*
X133732380Y-128077142D01*
X133780000Y-127981904D01*
X133780000Y-127791428D01*
X133732380Y-127696190D01*
X133684761Y-127648571D01*
X133589523Y-127600952D01*
X199487619Y-100842380D02*
X199154285Y-100366190D01*
X198916190Y-100842380D02*
X198916190Y-99842380D01*
X199297142Y-99842380D01*
X199392380Y-99890000D01*
X199440000Y-99937619D01*
X199487619Y-100032857D01*
X199487619Y-100175714D01*
X199440000Y-100270952D01*
X199392380Y-100318571D01*
X199297142Y-100366190D01*
X198916190Y-100366190D01*
X199916190Y-100318571D02*
X200249523Y-100318571D01*
X200392380Y-100842380D02*
X199916190Y-100842380D01*
X199916190Y-99842380D01*
X200392380Y-99842380D01*
X200773333Y-100794761D02*
X200916190Y-100842380D01*
X201154285Y-100842380D01*
X201249523Y-100794761D01*
X201297142Y-100747142D01*
X201344761Y-100651904D01*
X201344761Y-100556666D01*
X201297142Y-100461428D01*
X201249523Y-100413809D01*
X201154285Y-100366190D01*
X200963809Y-100318571D01*
X200868571Y-100270952D01*
X200820952Y-100223333D01*
X200773333Y-100128095D01*
X200773333Y-100032857D01*
X200820952Y-99937619D01*
X200868571Y-99890000D01*
X200963809Y-99842380D01*
X201201904Y-99842380D01*
X201344761Y-99890000D01*
X201773333Y-100318571D02*
X202106666Y-100318571D01*
X202249523Y-100842380D02*
X201773333Y-100842380D01*
X201773333Y-99842380D01*
X202249523Y-99842380D01*
X202535238Y-99842380D02*
X203106666Y-99842380D01*
X202820952Y-100842380D02*
X202820952Y-99842380D01*
X159000000Y-128622380D02*
X158523809Y-128622380D01*
X158523809Y-127622380D01*
X159333333Y-128098571D02*
X159666666Y-128098571D01*
X159809523Y-128622380D02*
X159333333Y-128622380D01*
X159333333Y-127622380D01*
X159809523Y-127622380D01*
X160238095Y-128622380D02*
X160238095Y-127622380D01*
X160476190Y-127622380D01*
X160619047Y-127670000D01*
X160714285Y-127765238D01*
X160761904Y-127860476D01*
X160809523Y-128050952D01*
X160809523Y-128193809D01*
X160761904Y-128384285D01*
X160714285Y-128479523D01*
X160619047Y-128574761D01*
X160476190Y-128622380D01*
X160238095Y-128622380D01*
X162523809Y-128622380D02*
X161952380Y-128622380D01*
X162238095Y-128622380D02*
X162238095Y-127622380D01*
X162142857Y-127765238D01*
X162047619Y-127860476D01*
X161952380Y-127908095D01*
D12*
%TO.C,C31*%
X170640000Y-66303733D02*
X170640000Y-66596267D01*
X169620000Y-66303733D02*
X169620000Y-66596267D01*
D13*
%TO.C,D3*%
X163510798Y-127258498D02*
G75*
G03*
X163510798Y-127258498I-100000J0D01*
G01*
D14*
%TO.C,U4*%
X199014850Y-81252100D02*
X199014850Y-78802100D01*
X199014850Y-96802100D02*
X199014850Y-94352100D01*
X199014850Y-78802100D02*
X198364850Y-78802100D01*
X198364850Y-96802100D02*
X199014850Y-96802100D01*
D10*
X181114850Y-97802100D02*
G75*
G03*
X181114850Y-97802100I-100000J0D01*
G01*
D12*
%TO.C,R14*%
X126414724Y-111962500D02*
X125905276Y-111962500D01*
X126414724Y-110917500D02*
X125905276Y-110917500D01*
%TO.C,D17*%
X140068500Y-68284000D02*
X140678100Y-67582000D01*
%TO.C,D12*%
X218283100Y-68284000D02*
X218892700Y-67582000D01*
%TO.C,C13*%
X193203733Y-114450000D02*
X193496267Y-114450000D01*
X193203733Y-113430000D02*
X193496267Y-113430000D01*
%TO.C,F2*%
X119340000Y-120363748D02*
X119340000Y-123136252D01*
X115920000Y-120363748D02*
X115920000Y-123136252D01*
%TO.C,D15*%
X180839800Y-68284000D02*
X181449400Y-67582000D01*
%TO.C,F1*%
X149663748Y-121240000D02*
X152436252Y-121240000D01*
X149663748Y-117820000D02*
X152436252Y-117820000D01*
%TO.C,D8*%
X218283100Y-118264000D02*
X218892700Y-117562000D01*
D13*
%TO.C,D27*%
X97777298Y-127258498D02*
G75*
G03*
X97777298Y-127258498I-100000J0D01*
G01*
D12*
%TO.C,C18*%
X165603733Y-125020000D02*
X165896267Y-125020000D01*
X165603733Y-126040000D02*
X165896267Y-126040000D01*
%TO.C,D18*%
X127587400Y-68284000D02*
X128197000Y-67582000D01*
%TO.C,R2*%
X144367500Y-123625276D02*
X144367500Y-124134724D01*
X145412500Y-123625276D02*
X145412500Y-124134724D01*
%TO.C,C7*%
X190993767Y-104310000D02*
X190701233Y-104310000D01*
X190993767Y-103290000D02*
X190701233Y-103290000D01*
%TO.C,D20*%
X102625200Y-68284000D02*
X103234800Y-67582000D01*
%TO.C,C37*%
X85036233Y-73260000D02*
X85328767Y-73260000D01*
X85036233Y-74280000D02*
X85328767Y-74280000D01*
%TO.C,D13*%
X205802000Y-68284000D02*
X206411600Y-67582000D01*
D10*
%TO.C,U7*%
X202880013Y-120779987D02*
X203530000Y-120779987D01*
X207530000Y-120779987D02*
X208179987Y-120779987D01*
X202880013Y-116130000D02*
X202880013Y-115480013D01*
X202880013Y-120130000D02*
X202880013Y-120779987D01*
X208179987Y-120779987D02*
X208179987Y-120130000D01*
X202880013Y-115480013D02*
X203530000Y-115480013D01*
X208179987Y-116130000D02*
X208179987Y-115480013D01*
X208179987Y-115480013D02*
X207530000Y-115480013D01*
D15*
X202530254Y-115681435D02*
G75*
G03*
X202530254Y-115678895I-161288J1270D01*
G01*
D12*
%TO.C,C3*%
X167990000Y-120404437D02*
X167990000Y-126160000D01*
X167990000Y-126160000D02*
X170340000Y-126160000D01*
X174810000Y-120404437D02*
X174810000Y-126160000D01*
X173745563Y-119340000D02*
X172460000Y-119340000D01*
X173641250Y-118706250D02*
X172853750Y-118706250D01*
X169054437Y-119340000D02*
X167990000Y-120404437D01*
X173745563Y-119340000D02*
X174810000Y-120404437D01*
X173247500Y-118312500D02*
X173247500Y-119100000D01*
X174810000Y-126160000D02*
X172460000Y-126160000D01*
X169054437Y-119340000D02*
X170340000Y-119340000D01*
%TO.C,D10*%
X218283100Y-93274000D02*
X218892700Y-92572000D01*
%TO.C,C39*%
X85036233Y-98206666D02*
X85328767Y-98206666D01*
X85036233Y-99226666D02*
X85328767Y-99226666D01*
%TO.C,C45*%
X137201233Y-125020000D02*
X137493767Y-125020000D01*
X137201233Y-126040000D02*
X137493767Y-126040000D01*
D13*
%TO.C,U10*%
X128639911Y-115469898D02*
X128639911Y-114219962D01*
X123540089Y-118320038D02*
X123540089Y-114219962D01*
X128639911Y-118320038D02*
X123539835Y-118320038D01*
X123540089Y-114219962D02*
X128640165Y-114219962D01*
X128639911Y-117070102D02*
X128639911Y-118320038D01*
X128589873Y-117070102D02*
G75*
G03*
X128589873Y-115469898I-1683851J800102D01*
G01*
D16*
X128574125Y-113320038D02*
G75*
G03*
X128574125Y-113320038I-29972J0D01*
G01*
D13*
X129290152Y-113769873D02*
G75*
G03*
X129290152Y-113769873I-170180J0D01*
G01*
%TO.C,U3*%
X181020000Y-110900000D02*
X176620000Y-110900000D01*
X176620000Y-105900000D02*
X176620000Y-110900000D01*
X181020000Y-110900000D02*
X181020000Y-105900000D01*
X176620000Y-105900000D02*
X181020000Y-105900000D01*
D16*
X182019898Y-110869901D02*
G75*
G03*
X182019898Y-110869901I-29972J0D01*
G01*
D15*
X181887056Y-110936195D02*
G75*
G03*
X181887056Y-110936195I-150114J0D01*
G01*
X180189316Y-110025603D02*
G75*
G03*
X180189316Y-110025603I-150114J0D01*
G01*
D12*
%TO.C,D24*%
X90144100Y-105769000D02*
X90753700Y-105067000D01*
%TO.C,C36*%
X91430000Y-66303733D02*
X91430000Y-66596267D01*
X92450000Y-66303733D02*
X92450000Y-66596267D01*
%TO.C,C12*%
X193203733Y-115310000D02*
X193496267Y-115310000D01*
X193203733Y-116330000D02*
X193496267Y-116330000D01*
%TO.C,C27*%
X216501233Y-70270000D02*
X216793767Y-70270000D01*
X216501233Y-69250000D02*
X216793767Y-69250000D01*
%TO.C,R11*%
X126627500Y-121645276D02*
X126627500Y-122154724D01*
X127672500Y-121645276D02*
X127672500Y-122154724D01*
%TO.C,R12*%
X191907500Y-118964724D02*
X191907500Y-118455276D01*
X192952500Y-118964724D02*
X192952500Y-118455276D01*
D13*
%TO.C,D4*%
X175991898Y-127258498D02*
G75*
G03*
X175991898Y-127258498I-100000J0D01*
G01*
D12*
%TO.C,C19*%
X178273733Y-125080000D02*
X178566267Y-125080000D01*
X178273733Y-126100000D02*
X178566267Y-126100000D01*
%TO.C,R17*%
X181264724Y-114752500D02*
X180755276Y-114752500D01*
X181264724Y-113707500D02*
X180755276Y-113707500D01*
D17*
%TO.C,U18*%
X192208600Y-111466213D02*
X192208600Y-104813787D01*
X192208600Y-104813787D02*
X194951400Y-104813787D01*
X194951400Y-111466213D02*
X192208600Y-111466213D01*
X194951400Y-104813787D02*
X194951400Y-111466213D01*
D12*
%TO.C,C43*%
X112353733Y-125020000D02*
X112646267Y-125020000D01*
X112353733Y-126040000D02*
X112646267Y-126040000D01*
%TO.C,D23*%
X90144100Y-93274000D02*
X90753700Y-92572000D01*
%TO.C,R16*%
X180755276Y-115787500D02*
X181264724Y-115787500D01*
X180755276Y-116832500D02*
X181264724Y-116832500D01*
%TO.C,D16*%
X168358700Y-68284000D02*
X168968300Y-67582000D01*
%TO.C,C38*%
X85036233Y-85733333D02*
X85328767Y-85733333D01*
X85036233Y-86753333D02*
X85328767Y-86753333D01*
%TO.C,C40*%
X85036233Y-110680000D02*
X85328767Y-110680000D01*
X85036233Y-111700000D02*
X85328767Y-111700000D01*
D13*
%TO.C,D7*%
X213435198Y-127258498D02*
G75*
G03*
X213435198Y-127258498I-100000J0D01*
G01*
%TO.C,SW1*%
X192930013Y-101850000D02*
X196629987Y-101850000D01*
X196630013Y-101781166D02*
X196630013Y-101850000D01*
X192930013Y-98850000D02*
X196630013Y-98850000D01*
X196630013Y-98850000D02*
X196630013Y-98918834D01*
X192930013Y-98850000D02*
X192930013Y-98918834D01*
X192930013Y-101781166D02*
X192930013Y-101850000D01*
X195669002Y-100350000D02*
G75*
G03*
X195669002Y-100350000I-889002J0D01*
G01*
D12*
%TO.C,R8*%
X189027500Y-99565276D02*
X189027500Y-100074724D01*
X190072500Y-99565276D02*
X190072500Y-100074724D01*
%TO.C,D9*%
X218283100Y-105769000D02*
X218892700Y-105067000D01*
%TO.C,C24*%
X216501233Y-107612500D02*
X216793767Y-107612500D01*
X216501233Y-106592500D02*
X216793767Y-106592500D01*
%TO.C,C17*%
X176723733Y-113720000D02*
X177016267Y-113720000D01*
X176723733Y-114740000D02*
X177016267Y-114740000D01*
%TO.C,C16*%
X176723733Y-116820000D02*
X177016267Y-116820000D01*
X176723733Y-115800000D02*
X177016267Y-115800000D01*
%TO.C,C32*%
X141290000Y-66303733D02*
X141290000Y-66596267D01*
X142310000Y-66303733D02*
X142310000Y-66596267D01*
%TO.C,C14*%
X121480000Y-118486267D02*
X121480000Y-118193733D01*
X122500000Y-118486267D02*
X122500000Y-118193733D01*
%TO.C,D19*%
X115106300Y-68284000D02*
X115715900Y-67582000D01*
%TO.C,C34*%
X117380000Y-66303733D02*
X117380000Y-66596267D01*
X116360000Y-66303733D02*
X116360000Y-66596267D01*
%TO.C,R9*%
X187972500Y-100074724D02*
X187972500Y-99565276D01*
X186927500Y-100074724D02*
X186927500Y-99565276D01*
%TO.C,C20*%
X190746233Y-126040000D02*
X191038767Y-126040000D01*
X190746233Y-125020000D02*
X191038767Y-125020000D01*
D13*
%TO.C,D28*%
X110258398Y-127258498D02*
G75*
G03*
X110258398Y-127258498I-100000J0D01*
G01*
D10*
%TO.C,U8*%
X206100859Y-111270000D02*
X204700859Y-111270000D01*
X206100859Y-113470000D02*
X204700859Y-113470000D01*
X204307387Y-111275791D02*
G75*
G03*
X204309927Y-111275791I1270J134405D01*
G01*
D16*
X204377414Y-111270076D02*
G75*
G03*
X204377414Y-111270076I-29997J0D01*
G01*
D17*
%TO.C,U6*%
X176368832Y-120483704D02*
X181771168Y-120483704D01*
X181771168Y-117756298D02*
X181771168Y-118106793D01*
X176368832Y-117756298D02*
X181771168Y-117756298D01*
X177731036Y-117756298D02*
X177731036Y-120483704D01*
X181771168Y-120483704D02*
X181771168Y-120133209D01*
D16*
X176299845Y-120494880D02*
G75*
G03*
X176299845Y-120494880I-29972J0D01*
G01*
D13*
%TO.C,D6*%
X200954098Y-127258498D02*
G75*
G03*
X200954098Y-127258498I-100000J0D01*
G01*
D12*
%TO.C,C15*%
X121936267Y-109510000D02*
X121643733Y-109510000D01*
X121936267Y-108490000D02*
X121643733Y-108490000D01*
D13*
%TO.C,SW3*%
X152318142Y-65871924D02*
G75*
G03*
X152318142Y-65871924I-1170942J0D01*
G01*
X152874657Y-65871924D02*
G75*
G03*
X152874657Y-65871924I-1727457J0D01*
G01*
D12*
%TO.C,D1*%
X142672500Y-125865000D02*
X140212500Y-125865000D01*
X140212500Y-125865000D02*
X140212500Y-127335000D01*
X140212500Y-127335000D02*
X142672500Y-127335000D01*
%TO.C,C41*%
X87293733Y-125020000D02*
X87586267Y-125020000D01*
X87293733Y-126040000D02*
X87586267Y-126040000D01*
%TO.C,R1*%
X161185276Y-125007500D02*
X161694724Y-125007500D01*
X161185276Y-126052500D02*
X161694724Y-126052500D01*
%TO.C,R3*%
X158302500Y-123625276D02*
X158302500Y-124134724D01*
X157257500Y-123625276D02*
X157257500Y-124134724D01*
%TO.C,C25*%
X216501233Y-95165000D02*
X216793767Y-95165000D01*
X216501233Y-94145000D02*
X216793767Y-94145000D01*
%TO.C,C30*%
X183193333Y-66303733D02*
X183193333Y-66596267D01*
X182173333Y-66303733D02*
X182173333Y-66596267D01*
%TO.C,D25*%
X90144100Y-118264000D02*
X90753700Y-117562000D01*
%TO.C,D22*%
X90144100Y-80779000D02*
X90753700Y-80077000D01*
D13*
%TO.C,D5*%
X188472998Y-127258498D02*
G75*
G03*
X188472998Y-127258498I-100000J0D01*
G01*
D17*
%TO.C,U2*%
X156168832Y-118206297D02*
X156168832Y-118556792D01*
X161571168Y-120933703D02*
X156168832Y-120933703D01*
X160208964Y-120933703D02*
X160208964Y-118206297D01*
X156168832Y-120933703D02*
X156168832Y-120583208D01*
X161571168Y-118206297D02*
X156168832Y-118206297D01*
D16*
X161700099Y-118195121D02*
G75*
G03*
X161700099Y-118195121I-29972J0D01*
G01*
D12*
%TO.C,D11*%
X218283100Y-80779000D02*
X218892700Y-80077000D01*
%TO.C,C29*%
X194726666Y-66303733D02*
X194726666Y-66596267D01*
X195746666Y-66303733D02*
X195746666Y-66596267D01*
D17*
%TO.C,U11*%
X126739205Y-106070808D02*
X124960795Y-106070808D01*
X126739205Y-109149192D02*
X124960795Y-109149192D01*
D15*
X127301613Y-109278275D02*
G75*
G03*
X127301613Y-109278275I-150114J0D01*
G01*
D18*
X127300013Y-109073043D02*
G75*
G03*
X127300013Y-109073043I-50013J0D01*
G01*
D17*
%TO.C,U5*%
X188935559Y-114537937D02*
X188935559Y-119590363D01*
X185892735Y-119590363D02*
X185892735Y-114537937D01*
X188935559Y-119590363D02*
X185892735Y-119590363D01*
X185892735Y-114537937D02*
X188935559Y-114537937D01*
D15*
X189520061Y-119858150D02*
G75*
G03*
X189520061Y-119858150I-150114J0D01*
G01*
D12*
%TO.C,D2*%
X142672500Y-128345000D02*
X140212500Y-128345000D01*
X140212500Y-128345000D02*
X140212500Y-129815000D01*
X140212500Y-129815000D02*
X142672500Y-129815000D01*
%TO.C,C11*%
X141726233Y-124650000D02*
X142018767Y-124650000D01*
X141726233Y-123630000D02*
X142018767Y-123630000D01*
%TO.C,R6*%
X184674724Y-103242500D02*
X184165276Y-103242500D01*
X184674724Y-102197500D02*
X184165276Y-102197500D01*
%TO.C,C28*%
X207280000Y-66303733D02*
X207280000Y-66596267D01*
X208300000Y-66303733D02*
X208300000Y-66596267D01*
%TO.C,C44*%
X124883733Y-126040000D02*
X125176267Y-126040000D01*
X124883733Y-125020000D02*
X125176267Y-125020000D01*
%TO.C,C4*%
X199460000Y-120796267D02*
X199460000Y-120503733D01*
X198440000Y-120796267D02*
X198440000Y-120503733D01*
D17*
%TO.C,U1*%
X163833787Y-121198680D02*
X163833787Y-119746254D01*
X166886213Y-119746254D02*
X165854590Y-119746254D01*
X166886213Y-121198680D02*
X166886213Y-119746254D01*
X165815398Y-121198680D02*
X164904602Y-121198680D01*
X163833787Y-119746254D02*
X164865410Y-119746254D01*
D16*
X163939883Y-121672365D02*
G75*
G03*
X163939883Y-121672365I-29972J0D01*
G01*
D12*
%TO.C,C2*%
X176723733Y-112642500D02*
X177016267Y-112642500D01*
X176723733Y-111622500D02*
X177016267Y-111622500D01*
%TO.C,C33*%
X129845000Y-66303733D02*
X129845000Y-66596267D01*
X128825000Y-66303733D02*
X128825000Y-66596267D01*
D13*
%TO.C,U9*%
X129340000Y-106079987D02*
X131140025Y-106079987D01*
X129340000Y-109180013D02*
X131140025Y-109180013D01*
D16*
X131670023Y-109064976D02*
G75*
G03*
X131670023Y-109064976I-29998J0D01*
G01*
D13*
X131764003Y-109280902D02*
G75*
G03*
X131764003Y-109280902I-127000J0D01*
G01*
D19*
%TO.C,U20*%
X206979975Y-74370513D02*
X206979975Y-74770513D01*
X203199964Y-77190579D02*
X203180000Y-77170538D01*
X203832858Y-77190579D02*
X203199964Y-77190579D01*
X207179009Y-74812042D02*
X207179009Y-74169421D01*
X206579975Y-74370513D02*
X206979975Y-74370513D01*
X203180000Y-77170538D02*
X203180000Y-76528654D01*
X203821885Y-74170538D02*
X203180000Y-74170538D01*
X207180000Y-77190579D02*
X206527142Y-77190579D01*
X206817668Y-74170538D02*
X206538115Y-74170538D01*
X207180000Y-77190579D02*
X207180000Y-76528654D01*
X203180000Y-74812423D02*
X203180000Y-74170538D01*
X207179009Y-74169421D02*
X206818278Y-74169421D01*
D16*
X207209972Y-74170513D02*
G75*
G03*
X207209972Y-74170513I-29997J0D01*
G01*
D12*
%TO.C,C8*%
X184566267Y-101210000D02*
X184273733Y-101210000D01*
X184566267Y-100190000D02*
X184273733Y-100190000D01*
%TO.C,C35*%
X104915000Y-66303733D02*
X104915000Y-66596267D01*
X103895000Y-66303733D02*
X103895000Y-66596267D01*
D13*
%TO.C,D26*%
X85296198Y-127258498D02*
G75*
G03*
X85296198Y-127258498I-100000J0D01*
G01*
D12*
%TO.C,D14*%
X193320900Y-68284000D02*
X193930500Y-67582000D01*
%TO.C,D21*%
X90144100Y-68284000D02*
X90753700Y-67582000D01*
%TO.C,R10*%
X124557500Y-121645276D02*
X124557500Y-122154724D01*
X125602500Y-121645276D02*
X125602500Y-122154724D01*
%TO.C,C6*%
X200540000Y-120503733D02*
X200540000Y-120796267D01*
X201560000Y-120503733D02*
X201560000Y-120796267D01*
%TO.C,C1*%
X181763733Y-98380000D02*
X182056267Y-98380000D01*
X181763733Y-99400000D02*
X182056267Y-99400000D01*
D13*
%TO.C,D29*%
X122739498Y-127258498D02*
G75*
G03*
X122739498Y-127258498I-100000J0D01*
G01*
D12*
%TO.C,R13*%
X128484724Y-105362500D02*
X127975276Y-105362500D01*
X128484724Y-104317500D02*
X127975276Y-104317500D01*
%TO.C,C21*%
X203253733Y-125020000D02*
X203546267Y-125020000D01*
X203253733Y-126040000D02*
X203546267Y-126040000D01*
D13*
%TO.C,D30*%
X135220598Y-127258498D02*
G75*
G03*
X135220598Y-127258498I-100000J0D01*
G01*
D12*
%TO.C,C23*%
X216501233Y-120060000D02*
X216793767Y-120060000D01*
X216501233Y-119040000D02*
X216793767Y-119040000D01*
%TO.C,R15*%
X122044724Y-106607500D02*
X121535276Y-106607500D01*
X122044724Y-107652500D02*
X121535276Y-107652500D01*
%TO.C,R7*%
X197675276Y-75172500D02*
X198184724Y-75172500D01*
X197675276Y-74127500D02*
X198184724Y-74127500D01*
%TO.C,C10*%
X208420000Y-75796267D02*
X208420000Y-75503733D01*
X209440000Y-75796267D02*
X209440000Y-75503733D01*
%TO.C,R5*%
X198184724Y-73082500D02*
X197675276Y-73082500D01*
X198184724Y-72037500D02*
X197675276Y-72037500D01*
%TO.C,C9*%
X197783733Y-77200000D02*
X198076267Y-77200000D01*
X197783733Y-76180000D02*
X198076267Y-76180000D01*
D17*
%TO.C,L1*%
X182963787Y-125756213D02*
X183227592Y-125756213D01*
X182963787Y-120703787D02*
X182963787Y-125756213D01*
X188016213Y-125756213D02*
X187752408Y-125756213D01*
X188016213Y-120703787D02*
X188016213Y-125756213D01*
X187752408Y-120703787D02*
X188016213Y-120703787D01*
X183227592Y-120703787D02*
X182963787Y-120703787D01*
D16*
X188019997Y-125730000D02*
G75*
G03*
X188019997Y-125730000I-29997J0D01*
G01*
D12*
%TO.C,R4*%
X184674724Y-104217500D02*
X184165276Y-104217500D01*
X184674724Y-105262500D02*
X184165276Y-105262500D01*
%TO.C,C5*%
X196231233Y-103290000D02*
X196523767Y-103290000D01*
X196231233Y-104310000D02*
X196523767Y-104310000D01*
%TO.C,C22*%
X215586233Y-126040000D02*
X215878767Y-126040000D01*
X215586233Y-125020000D02*
X215878767Y-125020000D01*
%TO.C,U26*%
X96704715Y-125808400D02*
X97020000Y-125800025D01*
X92619949Y-118442400D02*
X92619949Y-120703000D01*
D13*
X91839685Y-123579655D02*
X91570445Y-123848895D01*
X91539888Y-123890069D02*
X92129246Y-123889535D01*
D12*
X92619949Y-125800025D02*
X92615315Y-123446200D01*
D13*
X92129246Y-123889535D02*
X92129246Y-123869215D01*
X92129246Y-123869215D02*
X91839685Y-123579655D01*
D12*
X97020000Y-118399975D02*
X96628515Y-118391600D01*
D13*
X91570445Y-123848895D02*
X91529906Y-123890069D01*
D12*
X97020000Y-125800025D02*
X97020000Y-118399975D01*
X92619949Y-125800025D02*
X93174115Y-125783000D01*
X93224915Y-118391600D02*
X92619949Y-118399975D01*
D13*
%TO.C,SW2*%
X190269987Y-76430000D02*
X190269987Y-76361166D01*
X193969987Y-76430000D02*
X190269987Y-76430000D01*
X193969987Y-76430000D02*
X193969987Y-76361166D01*
X193969987Y-73498834D02*
X193969987Y-73430000D01*
X190269987Y-73498834D02*
X190269987Y-73430000D01*
X193969987Y-73430000D02*
X190270013Y-73430000D01*
X193009002Y-74930000D02*
G75*
G03*
X193009002Y-74930000I-889002J0D01*
G01*
D12*
%TO.C,C42*%
X103620000Y-127013733D02*
X103620000Y-127306267D01*
X102600000Y-127013733D02*
X102600000Y-127306267D01*
%TO.C,C26*%
X216501233Y-81697500D02*
X216793767Y-81697500D01*
X216501233Y-82717500D02*
X216793767Y-82717500D01*
%TD*%
M02*
