0
SECTION
2
HEADER
9
$INSUNITS
70
4
9
$ACADVER
1
AC1014
9
$HANDSEED
5
FFFF
0
ENDSEC
0
SECTION
2
TABLES
0
TABLE
2
VPORT
5
8
100
AcDbSymbolTable
0
ENDTAB
0
TABLE
2
LTYPE
5
5
100
AcDbSymbolTable
0
LTYPE
5
14
100
AcDbSymbolTableRecord
100
AcDbLinetypeTableRecord
2
BYBLOCK
70
0
0
LTYPE
5
15
100
AcDbSymbolTableRecord
100
AcDbLinetypeTableRecord
2
BYLAYER
70
0
0
ENDTAB
0
TABLE
2
LAYER
5
2
100
AcDbSymbolTable
70
2
0
LAYER
5
50
100
AcDbSymbolTableRecord
100
AcDbLayerTableRecord
2
0
70
0
6
CONTINUOUS
0
ENDTAB
0
TABLE
2
STYLE
5
3
100
AcDbSymbolTable
70
1
0
STYLE
5
11
100
AcDbSymbolTableRecord
100
AcDbTextStyleTableRecord
2
STANDARD
70
0
0
ENDTAB
0
TABLE
2
VIEW
5
6
100
AcDbSymbolTable
70
0
0
ENDTAB
0
TABLE
2
UCS
5
7
100
AcDbSymbolTable
70
0
0
ENDTAB
0
TABLE
2
APPID
5
9
100
AcDbSymbolTable
70
2
0
APPID
5
12
100
AcDbSymbolTableRecord
100
AcDbRegAppTableRecord
2
ACAD
70
0
0
ENDTAB
0
TABLE
2
DIMSTYLE
5
A
100
AcDbSymbolTable
70
1
0
ENDTAB
0
TABLE
2
BLOCK_RECORD
5
1
100
AcDbSymbolTable
70
1
0
BLOCK_RECORD
5
1F
100
AcDbSymbolTableRecord
100
AcDbBlockTableRecord
2
*MODEL_SPACE
0
BLOCK_RECORD
5
1B
100
AcDbSymbolTableRecord
100
AcDbBlockTableRecord
2
*PAPER_SPACE
0
ENDTAB
0
ENDSEC
0
SECTION
2
BLOCKS
0
BLOCK
5
20
100
AcDbEntity
100
AcDbBlockBegin
2
*MODEL_SPACE
0
ENDBLK
5
21
100
AcDbEntity
100
AcDbBlockEnd
0
BLOCK
5
1C
100
AcDbEntity
100
AcDbBlockBegin
2
*PAPER_SPACE
0
ENDBLK
5
1D
100
AcDbEntity
100
AcDbBlockEnd
0
ENDSEC
0
SECTION
2
ENTITIES
0
LINE
5
100
100
AcDbEntity
8
0
100
AcDbLine
10
12.619505607604978
20
-14.763895209320353
30
0
11
12.619505607604975
21
-18.232126943930606
31
0
0
ARC
5
101
100
AcDbEntity
8
0
100
AcDbCircle
10
12.469505607604978
20
-18.232126943930609
30
0
40
0.14999999999999761
210
0
220
0
230
1
100
AcDbArc
50
-106.51334875308289
51
0
0
SPLINE
5
102
100
AcDbEntity
8
0
100
AcDbSpline
70
4
71
3
72
8
73
4
74
0
42
0.000000001
43
0.0000000001
44
0.0000000001
40
0.28105651827838829
40
0.28105651827838829
40
0.28105651827838829
40
0.28105651827838829
40
1
40
1
40
1
40
1
41
1
41
1
41
1
41
1
10
12.426869799226179
20
-18.375939974786249
30
0
10
12.257648041840675
20
-18.325771319147965
30
0
10
12.075643393728468
20
-18.238266431601883
30
0
10
11.880270933151241
20
-18.109538863658901
30
0
0
SPLINE
5
103
100
AcDbEntity
8
0
100
AcDbSpline
70
4
71
3
72
8
73
4
74
0
42
0.000000001
43
0.0000000001
44
0.0000000001
40
0
40
0
40
0
40
0
40
1
40
1
40
1
40
1
41
1
41
1
41
1
41
1
10
11.880270933151241
20
-18.109538863658901
30
0
10
11.548943773269649
20
-17.891268393039702
30
0
10
11.187040718078606
20
-17.559655640125271
30
0
10
10.794993427276607
20
-17.109685286045071
30
0
0
SPLINE
5
104
100
AcDbEntity
8
0
100
AcDbSpline
70
4
71
3
72
8
73
4
74
0
42
0.000000001
43
0.0000000001
44
0.0000000001
40
0
40
0
40
0
40
0
40
0.99872717545133882
40
0.99872717545133882
40
0.99872717545133882
40
0.99872717545133882
41
1
41
1
41
1
41
1
10
10.794993427276607
20
-17.109685286045071
30
0
10
10.013891289841032
20
-16.213358041948037
30
0
10
9.514532969811988
20
-15.291393358660576
30
0
10
9.2899470359713927
20
-14.343875935814303
30
0
0
ARC
5
105
100
AcDbEntity
8
0
100
AcDbCircle
10
9.1439463572907105
20
-14.378296104731721
30
0
40
0.1500031539785886
210
0
220
-0
230
1
100
AcDbArc
50
13.265456498337493
51
67.35443842206513
0
SPLINE
5
106
100
AcDbEntity
8
0
100
AcDbSpline
70
4
71
3
72
8
73
4
74
0
42
0.000000001
43
0.0000000001
44
0.0000000001
40
0.00094165769484379452
40
0.00094165769484379452
40
0.00094165769484379452
40
0.00094165769484379452
40
1
40
1
40
1
40
1
41
1
41
1
41
1
41
1
10
9.2017016446455777
20
-14.239858329171057
30
0
10
8.0073580470936747
20
-13.740246127543422
30
0
10
7.0979404164263258
20
-12.873842522918185
30
0
10
6.4723096046447681
20
-11.632414779663083
30
0
0
SPLINE
5
107
100
AcDbEntity
8
0
100
AcDbSpline
70
4
71
3
72
8
73
4
74
0
42
0.000000001
43
0.0000000001
44
0.0000000001
40
0
40
0
40
0
40
0
40
1
40
1
40
1
40
1
41
1
41
1
41
1
41
1
10
6.4723096046447681
20
-11.632414779663083
30
0
10
5.8426598110198924
20
-10.383173081398008
30
0
10
5.5267633953094419
20
-8.9998574447631796
30
0
10
5.5267633953094419
20
-7.4799531249999962
30
0
0
SPLINE
5
108
100
AcDbEntity
8
0
100
AcDbSpline
70
4
71
3
72
8
73
4
74
0
42
0.000000001
43
0.0000000001
44
0.0000000001
40
0
40
0
40
0
40
0
40
1
40
1
40
1
40
1
41
1
41
1
41
1
41
1
10
5.5267633953094419
20
-7.4799531249999962
30
0
10
5.5267633953094375
20
-6.714143037796017
30
0
10
5.3618846511840701
20
-5.9870515174865684
30
0
10
5.0324149360656634
20
-5.3001087093353227
30
0
0
SPLINE
5
109
100
AcDbEntity
8
0
100
AcDbSpline
70
4
71
3
72
8
73
4
74
0
42
0.000000001
43
0.0000000001
44
0.0000000001
40
0
40
0
40
0
40
0
40
1
40
1
40
1
40
1
41
1
41
1
41
1
41
1
10
5.0324149360656634
20
-5.3001087093353227
30
0
10
4.7033747005462523
20
-4.6145960464477476
30
0
10
4.2368879127502312
20
-4.00266174125671
30
0
10
3.6345264244079489
20
-3.464737453460689
30
0
0
SPLINE
5
110
100
AcDbEntity
8
0
100
AcDbSpline
70
4
71
3
72
8
73
4
74
0
42
0.000000001
43
0.0000000001
44
0.0000000001
40
0
40
0
40
0
40
0
40
1
40
1
40
1
40
1
41
1
41
1
41
1
41
1
10
3.6345264244079489
20
-3.464737453460689
30
0
10
3.0437390842437617
20
-2.9370988750457716
30
0
10
2.5592490348815788
20
-2.5354787673950163
30
0
10
2.1820591220855601
20
-2.2618719215393002
30
0
0
SPLINE
5
111
100
AcDbEntity
8
0
100
AcDbSpline
70
4
71
3
72
8
73
4
74
0
42
0.000000001
43
0.0000000001
44
0.0000000001
40
0
40
0
40
0
40
0
40
1
40
1
40
1
40
1
41
1
41
1
41
1
41
1
10
2.1820591220855601
20
-2.2618719215393002
30
0
10
1.8074417266845577
20
-1.9898391075134203
30
0
10
1.3380968284606798
20
-1.6870865116119349
30
0
10
0.7750250930786029
20
-1.3534724273681586
30
0
0
SPLINE
5
112
100
AcDbEntity
8
0
100
AcDbSpline
70
4
71
3
72
8
73
4
74
0
42
0.000000001
43
0.0000000001
44
0.0000000001
40
0
40
0
40
0
40
0
40
1
40
1
40
1
40
1
41
1
41
1
41
1
41
1
10
0.7750250930786029
20
-1.3534724273681586
30
0
10
0.67672876739500953
20
-1.2798918895721378
30
0
10
0.59457389831541807
20
-1.2241707267761193
30
0
10
0.53256750869749681
20
-1.1925963459014843
30
0
0
SPLINE
5
113
100
AcDbEntity
8
0
100
AcDbSpline
70
4
71
3
72
8
73
4
74
0
42
0.000000001
43
0.0000000001
44
0.0000000001
40
0
40
0
40
0
40
0
40
1
40
1
40
1
40
1
41
1
41
1
41
1
41
1
10
0.53256750869749681
20
-1.1925963459014843
30
0
10
-0.94718809890748101
20
-0.34877575874328048
30
0
10
-2.1686280784607037
20
0.46775434303284236
30
0
10
-3.1336055145263808
20
1.2564249534606997
30
0
0
SPLINE
5
114
100
AcDbEntity
8
0
100
AcDbSpline
70
4
71
3
72
8
73
4
74
0
42
0.000000001
43
0.0000000001
44
0.0000000001
40
0
40
0
40
0
40
0
40
1
40
1
40
1
40
1
41
1
41
1
41
1
41
1
10
-3.1336055145263808
20
1.2564249534606997
30
0
10
-4.8853939361572385
20
2.7067492179870678
30
0
10
-6.3405754623413157
20
4.5271192092895562
30
0
10
-7.4981516075134413
20
6.7196779651641902
30
0
0
SPLINE
5
115
100
AcDbEntity
8
0
100
AcDbSpline
70
4
71
3
72
8
73
4
74
0
42
0.000000001
43
0.0000000001
44
0.0000000001
40
0
40
0
40
0
40
0
40
1
40
1
40
1
40
1
41
1
41
1
41
1
41
1
10
-7.4981516075134413
20
6.7196779651641902
30
0
10
-8.6591548690796003
20
8.9188097209930497
30
0
10
-9.2300836830139268
20
10.755755008697516
30
0
10
-9.2300836830139374
20
12.236796875000007
30
0
0
SPLINE
5
116
100
AcDbEntity
8
0
100
AcDbSpline
70
4
71
3
72
8
73
4
74
0
42
0.000000001
43
0.0000000001
44
0.0000000001
40
0
40
0
40
0
40
0
40
1
40
1
40
1
40
1
41
1
41
1
41
1
41
1
10
-9.2300836830139374
20
12.236796875000007
30
0
10
-9.2300836830139374
20
12.350955604553233
30
0
10
-9.2443676948547591
20
12.47611075592042
30
0
10
-9.2713704071045058
20
12.611416450500496
30
0
0
SPLINE
5
117
100
AcDbEntity
8
0
100
AcDbSpline
70
4
71
3
72
8
73
4
74
0
42
0.000000001
43
0.0000000001
44
0.0000000001
40
0
40
0
40
0
40
0
40
1
40
1
40
1
40
1
41
1
41
1
41
1
41
1
10
-9.2713704071045058
20
12.611416450500496
30
0
10
-9.2890902557373209
20
12.700569438934334
30
0
10
-9.3349508285522695
20
12.795011348724374
30
0
10
-9.3968176918029975
20
12.891594116210946
30
0
0
SPLINE
5
118
100
AcDbEntity
8
0
100
AcDbSpline
70
4
71
3
72
8
73
4
74
0
42
0.000000001
43
0.0000000001
44
0.0000000001
40
0
40
0
40
0
40
0
40
1
40
1
40
1
40
1
41
1
41
1
41
1
41
1
10
-9.3968176918029975
20
12.891594116210946
30
0
10
-9.4598225669861016
20
12.989746555328377
30
0
10
-9.5449772529602264
20
13.098476837158213
30
0
10
-9.6504199447632075
20
13.217348941802989
30
0
0
SPLINE
5
119
100
AcDbEntity
8
0
100
AcDbSpline
70
4
71
3
72
8
73
4
74
0
42
0.000000001
43
0.0000000001
44
0.0000000001
40
0
40
0
40
0
40
0
40
1
40
1
40
1
40
1
41
1
41
1
41
1
41
1
10
-9.6504199447632075
20
13.217348941802989
30
0
10
-9.8870217819214048
20
13.483953308105479
30
0
10
-10.210491863250756
20
13.61196875000001
30
0
10
-10.602822566986102
20
13.61196875000001
30
0
0
SPLINE
5
120
100
AcDbEntity
8
0
100
AcDbSpline
70
4
71
3
72
8
73
4
74
0
42
0.000000001
43
0.0000000001
44
0.0000000001
40
0
40
0
40
0
40
0
40
1
40
1
40
1
40
1
41
1
41
1
41
1
41
1
10
-10.602822566986102
20
13.61196875000001
30
0
10
-11.027021965026872
20
13.61196875000001
30
0
10
-11.362491313934346
20
13.371508136749277
30
0
10
-11.610237819671653
20
12.943885982513436
30
0
0
SPLINE
5
121
100
AcDbEntity
8
0
100
AcDbSpline
70
4
71
3
72
8
73
4
74
0
42
0.000000001
43
0.0000000001
44
0.0000000001
40
0
40
0
40
0
40
0
40
1
40
1
40
1
40
1
41
1
41
1
41
1
41
1
10
-11.610237819671653
20
12.943885982513436
30
0
10
-11.860125183105485
20
12.512544578552255
30
0
10
-11.975426284790057
20
11.858894069671639
30
0
10
-11.975426284790046
20
11.004500000000007
30
0
0
SPLINE
5
122
100
AcDbEntity
8
0
100
AcDbSpline
70
4
71
3
72
8
73
4
74
0
42
0.000000001
43
0.0000000001
44
0.0000000001
40
0
40
0
40
0
40
0
40
1
40
1
40
1
40
1
41
1
41
1
41
1
41
1
10
-11.975426284790046
20
11.004500000000007
30
0
10
-11.975426284790046
20
10.087957834243785
30
0
10
-11.805404685974136
20
9.1725558605194166
30
0
10
-11.466931159973154
20
8.2591573982238842
30
0
0
SPLINE
5
123
100
AcDbEntity
8
0
100
AcDbSpline
70
4
71
3
72
8
73
4
74
0
42
0.000000001
43
0.0000000001
44
0.0000000001
40
0
40
0
40
0
40
0
40
1
40
1
40
1
40
1
41
1
41
1
41
1
41
1
10
-11.466931159973154
20
8.2591573982238842
30
0
10
-11.130746738433853
20
7.3524714622497633
30
0
10
-10.71698129653932
20
6.4907936801910493
30
0
10
-10.225634834289558
20
5.6742613983154389
30
0
0
SPLINE
5
124
100
AcDbEntity
8
0
100
AcDbSpline
70
4
71
3
72
8
73
4
74
0
42
0.000000001
43
0.0000000001
44
0.0000000001
40
0
40
0
40
0
40
0
40
1
40
1
40
1
40
1
41
1
41
1
41
1
41
1
10
-10.225634834289558
20
5.6742613983154389
30
0
10
-9.739716819763192
20
4.8670185203552307
30
0
10
-9.2536549186706587
20
4.0276278953552325
30
0
10
-8.7675973777771112
20
3.1560895233154351
30
0
0
SPLINE
5
125
100
AcDbEntity
8
0
100
AcDbSpline
70
4
71
3
72
8
73
4
74
0
42
0.000000001
43
0.0000000001
44
0.0000000001
40
0
40
0
40
0
40
0
40
1
40
1
40
1
40
1
41
1
41
1
41
1
41
1
10
-8.7675973777771112
20
3.1560895233154351
30
0
10
-8.2876789970398015
20
2.2955541133880697
30
0
10
-7.881770633697518
20
1.2605671424865772
30
0
10
-7.550870773315439
20
0.04941723251343344
30
0
0
SPLINE
5
126
100
AcDbEntity
8
0
100
AcDbSpline
70
4
71
3
72
8
73
4
74
0
42
0.000000001
43
0.0000000001
44
0.0000000001
40
0
40
0
40
0
40
0
40
1
40
1
40
1
40
1
41
1
41
1
41
1
41
1
10
-7.550870773315439
20
0.04941723251343344
30
0
10
-7.2215449447631963
20
-1.1568775959014843
30
0
10
-7.0563806076049884
20
-2.434180444717402
30
0
10
-7.0563806076049884
20
-3.7830624999999962
30
0
0
SPLINE
5
127
100
AcDbEntity
8
0
100
AcDbSpline
70
4
71
3
72
8
73
4
74
0
42
0.000000001
43
0.0000000001
44
0.0000000001
40
0
40
0
40
0
40
0
40
1
40
1
40
1
40
1
41
1
41
1
41
1
41
1
10
-7.0563806076049884
20
-3.7830624999999962
30
0
10
-7.0563806076049884
20
-4.9709245872497521
30
0
10
-7.5487299156189058
20
-6.0657770900726282
30
0
10
-8.5518547325134406
20
-7.0709021482467609
30
0
0
SPLINE
5
128
100
AcDbEntity
8
0
100
AcDbSpline
70
4
71
3
72
8
73
4
74
0
42
0.000000001
43
0.0000000001
44
0.0000000001
40
0
40
0
40
0
40
0
40
1
40
1
40
1
40
1
41
1
41
1
41
1
41
1
10
-8.5518547325134406
20
-7.0709021482467609
30
0
10
-9.5549795494079639
20
-8.0761700029373156
30
0
10
-10.6474012413025
20
-8.5693749999999991
30
0
10
-11.832551284790046
20
-8.5693749999999991
30
0
0
SPLINE
5
129
100
AcDbEntity
8
0
100
AcDbSpline
70
4
71
3
72
8
73
4
74
0
42
0.000000001
43
0.0000000001
44
0.0000000001
40
0
40
0
40
0
40
0
40
1
40
1
40
1
40
1
41
1
41
1
41
1
41
1
10
-11.832551284790046
20
-8.5693749999999991
30
0
10
-12.487631938934335
20
-8.5693749999999991
30
0
10
-13.033698898315439
20
-8.3460608692169185
30
0
10
-13.479899860382091
20
-7.8988625116348254
30
0
0
SPLINE
5
130
100
AcDbEntity
8
0
100
AcDbSpline
70
4
71
3
72
8
73
4
74
0
42
0.000000001
43
0.0000000001
44
0.0000000001
40
0
40
0
40
0
40
0
40
1
40
1
40
1
40
1
41
1
41
1
41
1
41
1
10
-13.479899860382091
20
-7.8988625116348254
30
0
10
-13.926240348815927
20
-7.4516641540527324
30
0
10
-14.149125000000012
20
-6.9043098459243746
30
0
10
-14.149125000000012
20
-6.2476562499999977
30
0
0
SPLINE
5
131
100
AcDbEntity
8
0
100
AcDbSpline
70
4
71
3
72
8
73
4
74
0
42
0.000000001
43
0.0000000001
44
0.0000000001
40
0
40
0
40
0
40
0
40
1
40
1
40
1
40
1
41
1
41
1
41
1
41
1
10
-14.149125000000012
20
-6.2476562499999977
30
0
10
-14.149125000000012
20
-5.8548938865661597
30
0
10
-14.075686168670668
20
-5.5107063198089579
30
0
10
-13.932527755737315
20
-5.2118124999999971
30
0
0
SPLINE
5
132
100
AcDbEntity
8
0
100
AcDbSpline
70
4
71
3
72
8
73
4
74
0
42
0.000000001
43
0.0000000001
44
0.0000000001
40
0
40
0
40
0
40
0
40
1
40
1
40
1
40
1
41
1
41
1
41
1
41
1
10
-13.932527755737315
20
-5.2118124999999971
30
0
10
-13.784935020446788
20
-4.9036314563751171
30
0
10
-13.59405422973634
20
-4.6197389011383017
30
0
10
-13.359741497039806
20
-4.3601348342895463
30
0
0
SPLINE
5
133
100
AcDbEntity
8
0
100
AcDbSpline
70
4
71
3
72
8
73
4
74
0
42
0.000000001
43
0.0000000001
44
0.0000000001
40
0
40
0
40
0
40
0
40
1
40
1
40
1
40
1
41
1
41
1
41
1
41
1
10
-13.359741497039806
20
-4.3601348342895463
30
0
10
-13.237581802368176
20
-4.2248313198089571
30
0
10
-13.141714107513437
20
-4.1159615116119319
30
0
10
-13.072849124908462
20
-4.0336649360656684
30
0
0
SPLINE
5
134
100
AcDbEntity
8
0
100
AcDbSpline
70
4
71
3
72
8
73
4
74
0
42
0.000000001
43
0.0000000001
44
0.0000000001
40
0
40
0
40
0
40
0
40
1
40
1
40
1
40
1
41
1
41
1
41
1
41
1
10
-13.072849124908462
20
-4.0336649360656684
30
0
10
-13.038416633605966
20
-3.9926594448089547
30
0
10
-13.009983776092543
20
-3.9573701744079548
30
0
10
-12.98797785186769
20
-3.9282244243621767
30
0
0
SPLINE
5
135
100
AcDbEntity
8
0
100
AcDbSpline
70
4
71
3
72
8
73
4
74
0
42
0.000000001
43
0.0000000001
44
0.0000000001
40
0
40
0
40
0
40
0
40
1
40
1
40
1
40
1
41
1
41
1
41
1
41
1
10
-12.98797785186769
20
-3.9282244243621767
30
0
10
-12.969263877868663
20
-3.9035064563751165
30
0
10
-12.950401657104504
20
-3.8770749301910357
30
0
10
-12.937543430328379
20
-3.8529281482696476
30
0
0
SPLINE
5
136
100
AcDbEntity
8
0
100
AcDbSpline
70
4
71
3
72
8
73
4
74
0
42
0.000000001
43
0.0000000001
44
0.0000000001
40
0
40
0
40
0
40
0
40
1
40
1
40
1
40
1
41
1
41
1
41
1
41
1
10
-12.937543430328379
20
-3.8529281482696476
30
0
10
-12.103297840118415
20
-2.4664698982238731
30
0
10
-11.689676284790046
20
-0.79797435760497581
30
0
10
-11.689676284790046
20
1.1461250000000067
30
0
0
SPLINE
5
137
100
AcDbEntity
8
0
100
AcDbSpline
70
4
71
3
72
8
73
4
74
0
42
0.000000001
43
0.0000000001
44
0.0000000001
40
0
40
0
40
0
40
0
40
1
40
1
40
1
40
1
41
1
41
1
41
1
41
1
10
-11.689676284790046
20
1.1461250000000067
30
0
10
-11.689676284790046
20
1.5753211860656791
30
0
10
-11.795829689025886
20
2.2055421657562313
30
0
10
-12.00128662490846
20
3.0292164535522526
30
0
0
SPLINE
5
138
100
AcDbEntity
8
0
100
AcDbSpline
70
4
71
3
72
8
73
4
74
0
42
0.000000001
43
0.0000000001
44
0.0000000001
40
0
40
0
40
0
40
0
40
1
40
1
40
1
40
1
41
1
41
1
41
1
41
1
10
-12.00128662490846
20
3.0292164535522526
30
0
10
-12.207454273223885
20
3.8556071453094543
30
0
10
-12.516208683013929
20
4.8863058605194176
30
0
10
-12.9266865348816
20
6.1204601802826009
30
0
0
SPLINE
5
139
100
AcDbEntity
8
0
100
AcDbSpline
70
4
71
3
72
8
73
4
74
0
42
0.000000001
43
0.0000000001
44
0.0000000001
40
0
40
0
40
0
40
0
40
1
40
1
40
1
40
1
41
1
41
1
41
1
41
1
10
-12.9266865348816
20
6.1204601802826009
30
0
10
-13.336022014617935
20
7.3508996105194147
30
0
10
-13.642203907012952
20
8.3740290203094538
30
0
10
-13.845942924499525
20
9.190700828552254
30
0
0
SPLINE
5
140
100
AcDbEntity
8
0
100
AcDbSpline
70
4
71
3
72
8
73
4
74
0
42
0.000000001
43
0.0000000001
44
0.0000000001
40
0
40
0
40
0
40
0
40
1
40
1
40
1
40
1
41
1
41
1
41
1
41
1
10
-13.845942924499525
20
9.190700828552254
30
0
10
-14.050397014617936
20
10.010089040756235
30
0
10
-14.149125000000012
20
10.61216493606568
30
0
10
-14.149125000000012
20
11.004500000000007
30
0
0
SPLINE
5
141
100
AcDbEntity
8
0
100
AcDbSpline
70
4
71
3
72
8
73
4
74
0
42
0.000000001
43
0.0000000001
44
0.0000000001
40
0
40
0
40
0
40
0
40
1
40
1
40
1
40
1
41
1
41
1
41
1
41
1
10
-14.149125000000012
20
11.004500000000007
30
0
10
-14.149125000000019
20
12.658707168579109
30
0
10
-13.901522380828876
20
14.222187316894539
30
0
10
-13.407176101684591
20
15.695659877777107
30
0
0
SPLINE
5
142
100
AcDbEntity
8
0
100
AcDbSpline
70
4
71
3
72
8
73
4
74
0
42
0.000000001
43
0.0000000001
44
0.0000000001
40
0
40
0
40
0
40
0
40
1
40
1
40
1
40
1
41
1
41
1
41
1
41
1
10
-13.407176101684591
20
15.695659877777107
30
0
10
-12.913540534973166
20
17.167126747131348
30
0
10
-12.193880973815933
20
18.372992095947268
30
0
10
-11.251048988342301
20
19.317825412750253
30
0
0
SPLINE
5
143
100
AcDbEntity
8
0
100
AcDbSpline
70
4
71
3
72
8
73
4
74
0
42
0.000000001
43
0.0000000001
44
0.0000000001
40
0
40
0
40
0
40
0
40
1
40
1
40
1
40
1
41
1
41
1
41
1
41
1
10
-11.251048988342301
20
19.317825412750253
30
0
10
-10.312646965026872
20
20.258228767395025
30
0
10
-9.2779455871582215
20
20.720000000000006
30
0
10
-8.1432299652099758
20
20.720000000000006
30
0
0
LINE
5
144
100
AcDbEntity
8
0
100
AcDbLine
10
-8.1432299652099758
20
20.720000000000006
30
0
11
9.0732053546905433
21
20.720000000000013
31
0
0
SPLINE
5
145
100
AcDbEntity
8
0
100
AcDbSpline
70
4
71
3
72
8
73
4
74
0
42
0.000000001
43
0.0000000001
44
0.0000000001
40
0
40
0
40
0
40
0
40
1
40
1
40
1
40
1
41
1
41
1
41
1
41
1
10
9.0732053546905433
20
20.720000000000013
30
0
10
9.3668146133422745
20
20.720000000000013
30
0
10
9.619130607604971
20
20.614130008697526
30
0
10
9.8367306976318289
20
20.396102619171156
30
0
0
SPLINE
5
146
100
AcDbEntity
8
0
100
AcDbSpline
70
4
71
3
72
8
73
4
74
0
42
0.000000001
43
0.0000000001
44
0.0000000001
40
0
40
0
40
0
40
0
40
1
40
1
40
1
40
1
41
1
41
1
41
1
41
1
10
9.8367306976318289
20
20.396102619171156
30
0
10
10.054328607559192
20
20.178075229644787
30
0
10
10.160056892395009
20
19.925188049316422
30
0
10
10.160056892395009
20
19.63057812500001
30
0
0
SPLINE
5
147
100
AcDbEntity
8
0
100
AcDbSpline
70
4
71
3
72
8
73
4
74
0
42
0.000000001
43
0.0000000001
44
0.0000000001
40
0
40
0
40
0
40
0
40
1
40
1
40
1
40
1
41
1
41
1
41
1
41
1
10
10.160056892395009
20
19.63057812500001
30
0
10
10.160056892395009
20
19.33596820068361
30
0
10
10.054328607559192
20
19.083081020355245
30
0
10
9.8367306976318289
20
18.865053630828875
30
0
0
SPLINE
5
148
100
AcDbEntity
8
0
100
AcDbSpline
70
4
71
3
72
8
73
4
74
0
42
0.000000001
43
0.0000000001
44
0.0000000001
40
0
40
0
40
0
40
0
40
1
40
1
40
1
40
1
41
1
41
1
41
1
41
1
10
9.8367306976318289
20
18.865053630828875
30
0
10
9.619130607604971
20
18.647026241302505
30
0
10
9.3668146133422745
20
18.541156250000018
30
0
10
9.0732053546905433
20
18.541156250000018
30
0
0
SPLINE
5
149
100
AcDbEntity
8
0
100
AcDbSpline
70
4
71
3
72
8
73
4
74
0
42
0.000000001
43
0.0000000001
44
0.0000000001
40
0
40
0
40
0
40
0
40
1
40
1
40
1
40
1
41
1
41
1
41
1
41
1
10
9.0732053546905433
20
18.541156250000018
30
0
10
8.6807285842895396
20
18.541156250000018
30
0
10
8.3482590522766031
20
18.413284694671642
30
0
10
8.0880837993621704
20
18.152679962158217
30
0
0
SPLINE
5
150
100
AcDbEntity
8
0
100
AcDbSpline
70
4
71
3
72
8
73
4
74
0
42
0.000000001
43
0.0000000001
44
0.0000000001
40
0
40
0
40
0
40
0
40
1
40
1
40
1
40
1
41
1
41
1
41
1
41
1
10
8.0880837993621704
20
18.152679962158217
30
0
10
7.8280502529144202
20
17.891931343078632
30
0
10
7.7006059970855611
20
17.559034511566175
30
0
10
7.7006059970855611
20
17.165984375000015
30
0
0
SPLINE
5
151
100
AcDbEntity
8
0
100
AcDbSpline
70
4
71
3
72
8
73
4
74
0
42
0.000000001
43
0.0000000001
44
0.0000000001
40
0
40
0
40
0
40
0
40
1
40
1
40
1
40
1
41
1
41
1
41
1
41
1
10
7.7006059970855611
20
17.165984375000015
30
0
10
7.7006059970855611
20
16.463469116210948
30
0
10
7.9694972877502357
20
15.661510799407971
30
0
10
8.4882759418487463
20
14.764683273315438
30
0
0
SPLINE
5
152
100
AcDbEntity
8
0
100
AcDbSpline
70
4
71
3
72
8
73
4
74
0
42
0.000000001
43
0.0000000001
44
0.0000000001
40
0
40
0
40
0
40
0
40
1
40
1
40
1
40
1
41
1
41
1
41
1
41
1
10
8.4882759418487463
20
14.764683273315438
30
0
10
9.004196485519401
20
13.872856895446786
30
0
10
9.622703790664664
20
12.956316909790049
30
0
10
10.343222311019886
20
12.015198482513437
30
0
0
SPLINE
5
153
100
AcDbEntity
8
0
100
AcDbSpline
70
4
71
3
72
8
73
4
74
0
42
0.000000001
43
0.0000000001
44
0.0000000001
40
0
40
0
40
0
40
0
40
1
40
1
40
1
40
1
41
1
41
1
41
1
41
1
10
10.343222311019886
20
12.015198482513437
30
0
10
11.059596462249747
20
11.079366796493538
30
0
10
11.775972793579093
20
10.111387363433849
30
0
10
12.492490831375115
20
9.111406250000007
30
0
0
SPLINE
5
154
100
AcDbEntity
8
0
100
AcDbSpline
70
4
71
3
72
8
73
4
74
0
42
0.000000001
43
0.0000000001
44
0.0000000001
40
0
40
0
40
0
40
0
40
1
40
1
40
1
40
1
41
1
41
1
41
1
41
1
10
12.492490831375115
20
9.111406250000007
30
0
10
13.203436534881581
20
8.1191383285522534
30
0
10
13.813227802276602
20
7.0245735988617009
30
0
10
14.321862453460685
20
5.8268531017303538
30
0
0
SPLINE
5
155
100
AcDbEntity
8
0
100
AcDbSpline
70
4
71
3
72
8
73
4
74
0
42
0.000000001
43
0.0000000001
44
0.0000000001
40
0
40
0
40
0
40
0
40
1
40
1
40
1
40
1
41
1
41
1
41
1
41
1
10
14.321862453460685
20
5.8268531017303538
30
0
10
14.827924587249747
20
4.6351322383880689
30
0
10
15.078956502914419
20
3.4859887180328419
30
0
10
15.078956502914419
20
2.3784218750000052
30
0
0
SPLINE
5
156
100
AcDbEntity
8
0
100
AcDbSpline
70
4
71
3
72
8
73
4
74
0
42
0.000000001
43
0.0000000001
44
0.0000000001
40
0
40
0
40
0
40
0
40
1
40
1
40
1
40
1
41
1
41
1
41
1
41
1
10
15.078956502914419
20
2.3784218750000052
30
0
10
15.078956502914419
20
0.49732957267761613
30
0
10
14.330864084243764
20
-1.0542930145263618
30
0
10
12.825675436019889
20
-2.2861604099273647
30
0
0
LINE
5
157
100
AcDbEntity
8
0
100
AcDbLine
10
12.825675436019893
20
-2.2861604099273647
30
0
11
12.74952238082885
21
-2.3484545726776087
31
0
0
LINE
5
158
100
AcDbEntity
8
0
100
AcDbLine
10
12.74952238082885
20
-2.3484545726776087
30
0
11
12.780525575637807
21
-2.4418958168029725
31
0
0
SPLINE
5
159
100
AcDbEntity
8
0
100
AcDbSpline
70
4
71
3
72
8
73
4
74
0
42
0.000000001
43
0.0000000001
44
0.0000000001
40
0
40
0
40
0
40
0
40
1
40
1
40
1
40
1
41
1
41
1
41
1
41
1
10
12.780525575637807
20
-2.4418958168029725
30
0
10
12.943976354598989
20
-2.9332422790527302
30
0
10
13.233441244125359
20
-3.3087164535522406
30
0
10
13.649491430282584
20
-3.5588915901184048
30
0
0
SPLINE
5
160
100
AcDbEntity
8
0
100
AcDbSpline
70
4
71
3
72
8
73
4
74
0
42
0.000000001
43
0.0000000001
44
0.0000000001
40
0
40
0
40
0
40
0
40
1
40
1
40
1
40
1
41
1
41
1
41
1
41
1
10
13.649491430282584
20
-3.5588915901184048
30
0
10
14.062829572677602
20
-3.8074948749542203
30
0
10
14.590324264526359
20
-3.9259374999999963
30
0
10
15.221831502914419
20
-3.9259374999999963
30
0
0
SPLINE
5
161
100
AcDbEntity
8
0
100
AcDbSpline
70
4
71
3
72
8
73
4
74
0
42
0.000000001
43
0.0000000001
44
0.0000000001
40
0
40
0
40
0
40
0
40
1
40
1
40
1
40
1
41
1
41
1
41
1
41
1
10
15.221831502914419
20
-3.9259374999999963
30
0
10
15.930062982559194
20
-3.9259374999999963
30
0
10
16.678157581329341
20
-4.1765399360656685
30
0
10
17.468827342987055
20
-4.6921770668029739
30
0
0
SPLINE
5
162
100
AcDbEntity
8
0
100
AcDbSpline
70
4
71
3
72
8
73
4
74
0
42
0.000000001
43
0.0000000001
44
0.0000000001
40
0
40
0
40
0
40
0
40
1
40
1
40
1
40
1
41
1
41
1
41
1
41
1
10
17.468827342987055
20
-4.6921770668029739
30
0
10
18.266784087181087
20
-5.2125275726318288
30
0
10
18.888290119171138
20
-5.7547379360198914
30
0
10
19.33748871803283
20
-6.3175218982696464
30
0
0
SPLINE
5
163
100
AcDbEntity
8
0
100
AcDbSpline
70
4
71
3
72
8
73
4
74
0
42
0.000000001
43
0.0000000001
44
0.0000000001
40
0
40
0
40
0
40
0
40
1
40
1
40
1
40
1
41
1
41
1
41
1
41
1
10
19.33748871803283
20
-6.3175218982696464
30
0
10
19.565517313957209
20
-6.6031301918029728
30
0
10
19.73296639537811
20
-6.8448737936019839
30
0
10
19.842837959289547
20
-7.0436127529144237
30
0
0
SPLINE
5
164
100
AcDbEntity
8
0
100
AcDbSpline
70
4
71
3
72
8
73
4
74
0
42
0.000000001
43
0.0000000001
44
0.0000000001
40
0
40
0
40
0
40
0
40
1
40
1
40
1
40
1
41
1
41
1
41
1
41
1
10
19.842837959289547
20
-7.0436127529144237
30
0
10
19.954994267463679
20
-7.2463521947860654
30
0
10
19.997999999999998
20
-7.3886560087203907
30
0
10
19.997999999999998
20
-7.4799531249999944
30
0
0
SPLINE
5
165
100
AcDbEntity
8
0
100
AcDbSpline
70
4
71
3
72
8
73
4
74
0
42
0.000000001
43
0.0000000001
44
0.0000000001
40
0
40
0
40
0
40
0
40
1
40
1
40
1
40
1
41
1
41
1
41
1
41
1
10
19.997999999999998
20
-7.4799531249999944
30
0
10
19.997999999999998
20
-7.7745608692169128
30
0
10
19.892272805213924
20
-8.0274502296447707
30
0
10
19.674673805236811
20
-8.245477619171135
30
0
0
SPLINE
5
166
100
AcDbEntity
8
0
100
AcDbSpline
70
4
71
3
72
8
73
4
74
0
42
0.000000001
43
0.0000000001
44
0.0000000001
40
0
40
0
40
0
40
0
40
1
40
1
40
1
40
1
41
1
41
1
41
1
41
1
10
19.674673805236811
20
-8.245477619171135
30
0
10
19.457074805259701
20
-8.4635050086975028
30
0
10
19.20475772094726
20
-8.5693749999999937
30
0
10
18.911149552345272
20
-8.5693749999999937
30
0
0
SPLINE
5
167
100
AcDbEntity
8
0
100
AcDbSpline
70
4
71
3
72
8
73
4
74
0
42
0.000000001
43
0.0000000001
44
0.0000000001
40
0
40
0
40
0
40
0
40
1
40
1
40
1
40
1
41
1
41
1
41
1
41
1
10
18.911149552345272
20
-8.5693749999999937
30
0
10
18.764846345901486
20
-8.5693749999999937
30
0
10
18.627972069740292
20
-8.6338111104965147
30
0
10
18.503099241256709
20
-8.7368240814208935
30
0
0
SPLINE
5
168
100
AcDbEntity
8
0
100
AcDbSpline
70
4
71
3
72
8
73
4
74
0
42
0.000000001
43
0.0000000001
44
0.0000000001
40
0
40
0
40
0
40
0
40
1
40
1
40
1
40
1
41
1
41
1
41
1
41
1
10
18.503099241256709
20
-8.7368240814208935
30
0
10
18.378512005805966
20
-8.8396942558288512
30
0
10
18.257211270332331
20
-8.9877132005691465
30
0
10
18.13762409305572
20
-9.1741651191711355
30
0
0
SPLINE
5
169
100
AcDbEntity
8
0
100
AcDbSpline
70
4
71
3
72
8
73
4
74
0
42
0.000000001
43
0.0000000001
44
0.0000000001
40
0
40
0
40
0
40
0
40
1
40
1
40
1
40
1
41
1
41
1
41
1
41
1
10
18.13762409305572
20
-9.1741651191711355
30
0
10
17.904595438957209
20
-9.5373533430099418
30
0
10
17.640276906967159
20
-9.9898384418487485
30
0
10
17.344668497085564
20
-10.530619750022883
30
0
0
SPLINE
5
170
100
AcDbEntity
8
0
100
AcDbSpline
70
4
71
3
72
8
73
4
74
0
42
0.000000001
43
0.0000000001
44
0.0000000001
40
0
40
0
40
0
40
0
40
1
40
1
40
1
40
1
41
1
41
1
41
1
41
1
10
17.344668497085564
20
-10.530619750022883
30
0
10
17.05277497673034
20
-11.064901091575617
30
0
10
16.716019369125362
20
-11.606083538055413
30
0
10
16.334399494171137
20
-12.154208511352532
30
0
0
SPLINE
5
171
100
AcDbEntity
8
0
100
AcDbSpline
70
4
71
3
72
8
73
4
74
0
42
0.000000001
43
0.0000000001
44
0.0000000001
40
0
40
0
40
0
40
0
40
1
40
1
40
1
40
1
41
1
41
1
41
1
41
1
10
16.334399494171137
20
-12.154208511352532
30
0
10
15.960353284835813
20
-12.691362133979794
30
0
10
15.45971741867065
20
-13.194066914558407
30
0
10
14.829354732513425
20
-13.661454083442683
30
0
0
SPLINE
5
172
100
AcDbEntity
8
0
100
AcDbSpline
70
4
71
3
72
8
73
4
74
0
42
0.000000001
43
0.0000000001
44
0.0000000001
40
0
40
0
40
0
40
0
40
0.99759669790882088
40
0.99759669790882088
40
0.99759669790882088
40
0.99759669790882088
41
1
41
1
41
1
41
1
10
14.829354732513425
20
-13.661454083442683
30
0
10
14.206633579077899
20
-14.123199708013448
30
0
10
13.509548247577239
20
-14.441902500264883
30
0
10
12.736395340321474
20
-14.617592762061868
30
0
0
ARC
5
173
100
AcDbEntity
8
0
100
AcDbCircle
10
12.769505607604978
20
-14.763895209320353
30
0
40
0.1500023195600875
210
0
220
0
230
1
100
AcDbArc
50
102.75201299024639
51
180
0
LWPOLYLINE
5
174
100
AcDbEntity
8
0
100
AcDbPolyline
90
8
70
1
43
0.0
10
73
20
30.000000000000004
10
73
20
-30.000000000000004
42
-0.4142135623730947
10
65.000000000000014
20
-38.000000000000021
10
-64.999999999999986
20
-38
42
-0.41421356237309509
10
-72.999999999999986
20
-30.000000000000004
10
-72.999999999999986
20
30.000000000000004
42
-0.41421356237309437
10
-65.000000000000014
20
38.000000000000007
10
64.999999999999986
20
38.000000000000021
42
-0.41421356237309509
0
ENDSEC
0
SECTION
2
OBJECTS
0
DICTIONARY
5
C
100
AcDbDictionary
3
ACAD_GROUP
350
D
3
ACAD_MLINESTYLE
350
17
0
DICTIONARY
5
D
100
AcDbDictionary
0
DICTIONARY
5
1A
330
C
100
AcDbDictionary
0
DICTIONARY
5
17
100
AcDbDictionary
0
ENDSEC
0
EOF
