%TF.GenerationSoftware,KiCad,Pcbnew,(6.0.6-0)*%
%TF.CreationDate,2022-08-02T12:10:40+02:00*%
%TF.ProjectId,GlowSignMainPCB,476c6f77-5369-4676-9e4d-61696e504342,rev?*%
%TF.SameCoordinates,Original*%
%TF.FileFunction,Copper,L1,Top*%
%TF.FilePolarity,Positive*%
%FSLAX46Y46*%
G04 Gerber Fmt 4.6, Leading zero omitted, Abs format (unit mm)*
G04 Created by KiCad (PCBNEW (6.0.6-0)) date 2022-08-02 12:10:40*
%MOMM*%
%LPD*%
G01*
G04 APERTURE LIST*
G04 Aperture macros list*
%AMRoundRect*
0 Rectangle with rounded corners*
0 $1 Rounding radius*
0 $2 $3 $4 $5 $6 $7 $8 $9 X,Y pos of 4 corners*
0 Add a 4 corners polygon primitive as box body*
4,1,4,$2,$3,$4,$5,$6,$7,$8,$9,$2,$3,0*
0 Add four circle primitives for the rounded corners*
1,1,$1+$1,$2,$3*
1,1,$1+$1,$4,$5*
1,1,$1+$1,$6,$7*
1,1,$1+$1,$8,$9*
0 Add four rect primitives between the rounded corners*
20,1,$1+$1,$2,$3,$4,$5,0*
20,1,$1+$1,$4,$5,$6,$7,0*
20,1,$1+$1,$6,$7,$8,$9,0*
20,1,$1+$1,$8,$9,$2,$3,0*%
G04 Aperture macros list end*
%TA.AperFunction,SMDPad,CuDef*%
%ADD10RoundRect,0.237500X-0.237500X0.300000X-0.237500X-0.300000X0.237500X-0.300000X0.237500X0.300000X0*%
%TD*%
%TA.AperFunction,SMDPad,CuDef*%
%ADD11R,0.419990X1.300000*%
%TD*%
%TA.AperFunction,SMDPad,CuDef*%
%ADD12R,0.900000X2.000000*%
%TD*%
%TA.AperFunction,SMDPad,CuDef*%
%ADD13R,2.000000X0.900000*%
%TD*%
%TA.AperFunction,SMDPad,CuDef*%
%ADD14R,1.330000X1.330000*%
%TD*%
%TA.AperFunction,SMDPad,CuDef*%
%ADD15R,1.500000X1.000000*%
%TD*%
%TA.AperFunction,SMDPad,CuDef*%
%ADD16RoundRect,0.237500X-0.300000X-0.237500X0.300000X-0.237500X0.300000X0.237500X-0.300000X0.237500X0*%
%TD*%
%TA.AperFunction,SMDPad,CuDef*%
%ADD17RoundRect,0.250000X-0.400000X-1.450000X0.400000X-1.450000X0.400000X1.450000X-0.400000X1.450000X0*%
%TD*%
%TA.AperFunction,SMDPad,CuDef*%
%ADD18RoundRect,0.237500X-0.237500X0.250000X-0.237500X-0.250000X0.237500X-0.250000X0.237500X0.250000X0*%
%TD*%
%TA.AperFunction,SMDPad,CuDef*%
%ADD19RoundRect,0.237500X0.300000X0.237500X-0.300000X0.237500X-0.300000X-0.237500X0.300000X-0.237500X0*%
%TD*%
%TA.AperFunction,SMDPad,CuDef*%
%ADD20R,0.900000X0.280010*%
%TD*%
%TA.AperFunction,SMDPad,CuDef*%
%ADD21R,0.280010X0.900000*%
%TD*%
%TA.AperFunction,SMDPad,CuDef*%
%ADD22R,3.300000X3.300000*%
%TD*%
%TA.AperFunction,SMDPad,CuDef*%
%ADD23O,0.250013X0.750013*%
%TD*%
%TA.AperFunction,SMDPad,CuDef*%
%ADD24R,2.470003X0.980010*%
%TD*%
%TA.AperFunction,SMDPad,CuDef*%
%ADD25R,2.470003X3.600000*%
%TD*%
%TA.AperFunction,SMDPad,CuDef*%
%ADD26R,1.500000X0.900000*%
%TD*%
%TA.AperFunction,SMDPad,CuDef*%
%ADD27RoundRect,0.250000X-0.787500X-1.025000X0.787500X-1.025000X0.787500X1.025000X-0.787500X1.025000X0*%
%TD*%
%TA.AperFunction,SMDPad,CuDef*%
%ADD28RoundRect,0.237500X0.237500X-0.300000X0.237500X0.300000X-0.237500X0.300000X-0.237500X-0.300000X0*%
%TD*%
%TA.AperFunction,SMDPad,CuDef*%
%ADD29R,0.600000X0.419990*%
%TD*%
%TA.AperFunction,SMDPad,CuDef*%
%ADD30R,0.600000X1.300000*%
%TD*%
%TA.AperFunction,SMDPad,CuDef*%
%ADD31R,0.300000X1.300000*%
%TD*%
%TA.AperFunction,ComponentPad*%
%ADD32O,1.200000X1.800000*%
%TD*%
%TA.AperFunction,ComponentPad*%
%ADD33O,1.200000X2.200000*%
%TD*%
%TA.AperFunction,SMDPad,CuDef*%
%ADD34RoundRect,0.237500X-0.250000X-0.237500X0.250000X-0.237500X0.250000X0.237500X-0.250000X0.237500X0*%
%TD*%
%TA.AperFunction,SMDPad,CuDef*%
%ADD35RoundRect,0.237500X0.250000X0.237500X-0.250000X0.237500X-0.250000X-0.237500X0.250000X-0.237500X0*%
%TD*%
%TA.AperFunction,SMDPad,CuDef*%
%ADD36R,1.050013X0.550013*%
%TD*%
%TA.AperFunction,SMDPad,CuDef*%
%ADD37R,0.450013X1.400000*%
%TD*%
%TA.AperFunction,SMDPad,CuDef*%
%ADD38R,2.400000X0.450013*%
%TD*%
%TA.AperFunction,SMDPad,CuDef*%
%ADD39R,0.900000X1.200000*%
%TD*%
%TA.AperFunction,SMDPad,CuDef*%
%ADD40R,1.200000X1.300000*%
%TD*%
G04 APERTURE END LIST*
D10*
%TO.P,C31,1*%
%TO.N,+5V*%
X159122600Y-65989900D03*
%TO.P,C31,2*%
%TO.N,LED GND*%
X159122600Y-67714900D03*
%TD*%
D11*
%TO.P,D3,1,DIN*%
%TO.N,LED1 DATA OUT*%
X155179442Y-138608618D03*
%TO.P,D3,2,VDD*%
%TO.N,+5V*%
X156029328Y-138608618D03*
%TO.P,D3,3,DOUT*%
%TO.N,Net-(D3-Pad3)*%
X156879468Y-138608618D03*
%TO.P,D3,4,VSS*%
%TO.N,LED GND*%
X157729354Y-138608618D03*
%TD*%
D12*
%TO.P,U4,1,GND*%
%TO.N,GND*%
X193701250Y-100713700D03*
%TO.P,U4,2,3V3*%
%TO.N,+3V3*%
X194971250Y-100713700D03*
%TO.P,U4,3,EN*%
%TO.N,EN*%
X196241250Y-100713700D03*
%TO.P,U4,4,SENSOR_VP*%
%TO.N,unconnected-(U4-Pad4)*%
X197511250Y-100713700D03*
%TO.P,U4,5,SENSOR_VN*%
%TO.N,unconnected-(U4-Pad5)*%
X198781250Y-100713700D03*
%TO.P,U4,6,I34*%
%TO.N,I34{slash}BATT VOLT*%
X200051250Y-100713700D03*
%TO.P,U4,7,I35*%
%TO.N,I35{slash}BATT CHARGING*%
X201321250Y-100713700D03*
%TO.P,U4,8,IO32*%
%TO.N,IO32{slash}SD*%
X202591250Y-100713700D03*
%TO.P,U4,9,IO33*%
%TO.N,IO33{slash}USB-C CONN*%
X203861250Y-100713700D03*
%TO.P,U4,10,IO25*%
%TO.N,unconnected-(U4-Pad10)*%
X205131250Y-100713700D03*
%TO.P,U4,11,IO26*%
%TO.N,unconnected-(U4-Pad11)*%
X206401250Y-100713700D03*
%TO.P,U4,12,IO27*%
%TO.N,unconnected-(U4-Pad12)*%
X207671250Y-100713700D03*
%TO.P,U4,13,IO14*%
%TO.N,IO14{slash}SCK*%
X208941250Y-100713700D03*
%TO.P,U4,14,IO12*%
%TO.N,unconnected-(U4-Pad14)*%
X210211250Y-100713700D03*
D13*
%TO.P,U4,15,GND*%
%TO.N,GND*%
X211211250Y-97928700D03*
%TO.P,U4,16,IO13*%
%TO.N,unconnected-(U4-Pad16)*%
X211211250Y-96658700D03*
%TO.P,U4,17,NC*%
%TO.N,unconnected-(U4-Pad17)*%
X211211250Y-95388700D03*
%TO.P,U4,18,NC*%
%TO.N,unconnected-(U4-Pad18)*%
X211211250Y-94118700D03*
%TO.P,U4,19,NC*%
%TO.N,unconnected-(U4-Pad19)*%
X211211250Y-92848700D03*
%TO.P,U4,20,NC*%
%TO.N,unconnected-(U4-Pad20)*%
X211211250Y-91578700D03*
%TO.P,U4,21,NC*%
%TO.N,unconnected-(U4-Pad21)*%
X211211250Y-90308700D03*
%TO.P,U4,22,NC*%
%TO.N,unconnected-(U4-Pad22)*%
X211211250Y-89038700D03*
%TO.P,U4,23,IO15*%
%TO.N,IO15{slash}WS*%
X211211250Y-87768700D03*
%TO.P,U4,24,IO2*%
%TO.N,unconnected-(U4-Pad24)*%
X211211250Y-86498700D03*
D12*
%TO.P,U4,25,IO0*%
%TO.N,IO0*%
X210211250Y-83713700D03*
%TO.P,U4,26,IO4*%
%TO.N,unconnected-(U4-Pad26)*%
X208941250Y-83713700D03*
%TO.P,U4,27,IO16*%
%TO.N,IO16{slash}LED1*%
X207671250Y-83713700D03*
%TO.P,U4,28,IO17*%
%TO.N,unconnected-(U4-Pad28)*%
X206401250Y-83713700D03*
%TO.P,U4,29,IO5*%
%TO.N,unconnected-(U4-Pad29)*%
X205131250Y-83713700D03*
%TO.P,U4,30,IO18*%
%TO.N,IO18{slash}MAINBUTTON*%
X203861250Y-83713700D03*
%TO.P,U4,31,IO19*%
%TO.N,unconnected-(U4-Pad31)*%
X202591250Y-83713700D03*
%TO.P,U4,32,NC1*%
%TO.N,unconnected-(U4-Pad32)*%
X201321250Y-83713700D03*
%TO.P,U4,33,IO21*%
%TO.N,unconnected-(U4-Pad33)*%
X200051250Y-83713700D03*
%TO.P,U4,34,RXD0*%
%TO.N,RXD0*%
X198781250Y-83713700D03*
%TO.P,U4,35,TXD0*%
%TO.N,TXD0*%
X197511250Y-83713700D03*
%TO.P,U4,36,IO22*%
%TO.N,unconnected-(U4-Pad36)*%
X196241250Y-83713700D03*
%TO.P,U4,37,IO23*%
%TO.N,IO23{slash}LEDPOWER*%
X194971250Y-83713700D03*
%TO.P,U4,38,GND*%
%TO.N,GND*%
X193701250Y-83713700D03*
D14*
%TO.P,U4,39,GND*%
X199366250Y-95048700D03*
X201201250Y-93213700D03*
X199366250Y-91378700D03*
X203036250Y-95048700D03*
X203036250Y-91378700D03*
X203036250Y-93213700D03*
X201201250Y-95048700D03*
X199366250Y-93213700D03*
X201201250Y-91378700D03*
%TD*%
D15*
%TO.P,D18,1,VDD*%
%TO.N,+5V*%
X123283700Y-64322400D03*
%TO.P,D18,2,DOUT*%
%TO.N,Net-(D18-Pad2)*%
X123283700Y-67522400D03*
%TO.P,D18,3,VSS*%
%TO.N,LED GND*%
X128183700Y-67522400D03*
%TO.P,D18,4,DIN*%
%TO.N,Net-(D17-Pad2)*%
X128183700Y-64322400D03*
%TD*%
%TO.P,D12,1,VDD*%
%TO.N,+5V*%
X201498300Y-63322400D03*
%TO.P,D12,2,DOUT*%
%TO.N,Net-(D12-Pad2)*%
X201498300Y-66522400D03*
%TO.P,D12,3,VSS*%
%TO.N,LED GND*%
X206398300Y-66522400D03*
%TO.P,D12,4,DIN*%
%TO.N,Net-(D11-Pad2)*%
X206398300Y-63322400D03*
%TD*%
D16*
%TO.P,C48,1*%
%TO.N,+5V*%
X188633900Y-116471600D03*
%TO.P,C48,2*%
%TO.N,GND*%
X190358900Y-116471600D03*
%TD*%
D15*
%TO.P,D15,1,VDD*%
%TO.N,+5V*%
X164055000Y-63322400D03*
%TO.P,D15,2,DOUT*%
%TO.N,Net-(D15-Pad2)*%
X164055000Y-66522400D03*
%TO.P,D15,3,VSS*%
%TO.N,LED GND*%
X168955000Y-66522400D03*
%TO.P,D15,4,DIN*%
%TO.N,Net-(D14-Pad2)*%
X168955000Y-63322400D03*
%TD*%
D17*
%TO.P,F1,1*%
%TO.N,Net-(F1-Pad1)*%
X139761000Y-131318000D03*
%TO.P,F1,2*%
%TO.N,USB-C 5V*%
X144211000Y-131318000D03*
%TD*%
D15*
%TO.P,D8,1,VDD*%
%TO.N,+5V*%
X227260600Y-123896900D03*
%TO.P,D8,2,DOUT*%
%TO.N,Net-(D8-Pad2)*%
X227260600Y-127096900D03*
%TO.P,D8,3,VSS*%
%TO.N,LED GND*%
X232160600Y-127096900D03*
%TO.P,D8,4,DIN*%
%TO.N,Net-(D7-Pad3)*%
X232160600Y-123896900D03*
%TD*%
D11*
%TO.P,D28,1,DIN*%
%TO.N,Net-(D27-Pad3)*%
X89445942Y-138608618D03*
%TO.P,D28,2,VDD*%
%TO.N,+5V*%
X90295828Y-138608618D03*
%TO.P,D28,3,DOUT*%
%TO.N,Net-(D28-Pad3)*%
X91145968Y-138608618D03*
%TO.P,D28,4,VSS*%
%TO.N,LED GND*%
X91995854Y-138608618D03*
%TD*%
D16*
%TO.P,C18,1*%
%TO.N,+5V*%
X156031100Y-136380120D03*
%TO.P,C18,2*%
%TO.N,LED GND*%
X157756100Y-136380120D03*
%TD*%
D15*
%TO.P,D19,1,VDD*%
%TO.N,+5V*%
X110802600Y-63322400D03*
%TO.P,D19,2,DOUT*%
%TO.N,Net-(D19-Pad2)*%
X110802600Y-66522400D03*
%TO.P,D19,3,VSS*%
%TO.N,LED GND*%
X115702600Y-66522400D03*
%TO.P,D19,4,DIN*%
%TO.N,Net-(D18-Pad2)*%
X115702600Y-63322400D03*
%TD*%
D18*
%TO.P,R2,1*%
%TO.N,GND*%
X135826000Y-134755500D03*
%TO.P,R2,2*%
%TO.N,USB-C CC1*%
X135826000Y-136580500D03*
%TD*%
D19*
%TO.P,C7,1*%
%TO.N,GND*%
X204406400Y-108211600D03*
%TO.P,C7,2*%
%TO.N,+3V3*%
X202681400Y-108211600D03*
%TD*%
D15*
%TO.P,D21,1,VDD*%
%TO.N,+5V*%
X85840400Y-63322400D03*
%TO.P,D21,2,DOUT*%
%TO.N,Net-(D21-Pad2)*%
X85840400Y-66522400D03*
%TO.P,D21,3,VSS*%
%TO.N,LED GND*%
X90740400Y-66522400D03*
%TO.P,D21,4,DIN*%
%TO.N,Net-(D20-Pad2)*%
X90740400Y-63322400D03*
%TD*%
D16*
%TO.P,C38,1*%
%TO.N,+5V*%
X74617700Y-85928600D03*
%TO.P,C38,2*%
%TO.N,LED GND*%
X76342700Y-85928600D03*
%TD*%
D15*
%TO.P,D13,1,VDD*%
%TO.N,+5V*%
X189017200Y-63322400D03*
%TO.P,D13,2,DOUT*%
%TO.N,Net-(D13-Pad2)*%
X189017200Y-66522400D03*
%TO.P,D13,3,VSS*%
%TO.N,LED GND*%
X193917200Y-66522400D03*
%TO.P,D13,4,DIN*%
%TO.N,Net-(D12-Pad2)*%
X193917200Y-63322400D03*
%TD*%
D20*
%TO.P,U7,1,DCD*%
%TO.N,unconnected-(U7-Pad1)*%
X218006451Y-111260533D03*
%TO.P,U7,2,RI*%
%TO.N,unconnected-(U7-Pad2)*%
X218006451Y-111760914D03*
%TO.P,U7,3,GND*%
%TO.N,GND*%
X218006451Y-112261295D03*
%TO.P,U7,4,D+*%
%TO.N,USB-C DATA+*%
X218006451Y-112761676D03*
%TO.P,U7,5,D-*%
%TO.N,USB-C DATA-*%
X218006451Y-113262057D03*
%TO.P,U7,6,VDD*%
%TO.N,+3V3*%
X218006451Y-113762438D03*
%TO.P,U7,7,REGIN*%
X218006451Y-114262819D03*
D21*
%TO.P,U7,8,VBUS*%
%TO.N,USB-C 5V*%
X219005181Y-115261803D03*
%TO.P,U7,9,~{RST}*%
%TO.N,unconnected-(U7-Pad9)*%
X219505562Y-115261803D03*
%TO.P,U7,10,NC*%
%TO.N,unconnected-(U7-Pad10)*%
X220005943Y-115261803D03*
%TO.P,U7,11,~{SUSPEND}*%
%TO.N,unconnected-(U7-Pad11)*%
X220506324Y-115261803D03*
%TO.P,U7,12,SUSPEND*%
%TO.N,unconnected-(U7-Pad12)*%
X221006705Y-115261803D03*
%TO.P,U7,13,NC*%
%TO.N,unconnected-(U7-Pad13)*%
X221507086Y-115261803D03*
%TO.P,U7,14,NC*%
%TO.N,unconnected-(U7-Pad14)*%
X222007467Y-115261803D03*
D20*
%TO.P,U7,15,NC*%
%TO.N,unconnected-(U7-Pad15)*%
X223006451Y-114262819D03*
%TO.P,U7,16,NC*%
%TO.N,unconnected-(U7-Pad16)*%
X223006451Y-113762438D03*
%TO.P,U7,17,NC*%
%TO.N,unconnected-(U7-Pad17)*%
X223006451Y-113262057D03*
%TO.P,U7,18,NC*%
%TO.N,unconnected-(U7-Pad18)*%
X223006451Y-112761676D03*
%TO.P,U7,19,NC*%
%TO.N,unconnected-(U7-Pad19)*%
X223006451Y-112261295D03*
%TO.P,U7,20,NC*%
%TO.N,unconnected-(U7-Pad20)*%
X223006451Y-111760914D03*
%TO.P,U7,21,NC*%
%TO.N,unconnected-(U7-Pad21)*%
X223006451Y-111260533D03*
D21*
%TO.P,U7,22,NC*%
%TO.N,unconnected-(U7-Pad22)*%
X222007467Y-110261803D03*
%TO.P,U7,23,CTS*%
%TO.N,unconnected-(U7-Pad23)*%
X221507086Y-110261803D03*
%TO.P,U7,24,RTS*%
%TO.N,RTS*%
X221006705Y-110261803D03*
%TO.P,U7,25,RXD*%
%TO.N,TXD0*%
X220506324Y-110261803D03*
%TO.P,U7,26,TXD*%
%TO.N,RXD0*%
X220005943Y-110261803D03*
%TO.P,U7,27,DSR*%
%TO.N,unconnected-(U7-Pad27)*%
X219505562Y-110261803D03*
%TO.P,U7,28,DTR*%
%TO.N,DTR*%
X219005181Y-110261803D03*
D22*
%TO.P,U7,29,GND_PAD*%
%TO.N,GND*%
X220506324Y-112761676D03*
%TD*%
D15*
%TO.P,D10,1,VDD*%
%TO.N,+5V*%
X227260600Y-98906900D03*
%TO.P,D10,2,DOUT*%
%TO.N,Net-(D10-Pad2)*%
X227260600Y-102106900D03*
%TO.P,D10,3,VSS*%
%TO.N,LED GND*%
X232160600Y-102106900D03*
%TO.P,D10,4,DIN*%
%TO.N,Net-(D10-Pad4)*%
X232160600Y-98906900D03*
%TD*%
D10*
%TO.P,C32,1*%
%TO.N,+5V*%
X145398000Y-68273100D03*
%TO.P,C32,2*%
%TO.N,LED GND*%
X145398000Y-69998100D03*
%TD*%
D16*
%TO.P,C40,1*%
%TO.N,+5V*%
X74617700Y-110875266D03*
%TO.P,C40,2*%
%TO.N,LED GND*%
X76342700Y-110875266D03*
%TD*%
%TO.P,C46,1*%
%TO.N,+5V*%
X127628600Y-136380120D03*
%TO.P,C46,2*%
%TO.N,LED GND*%
X129353600Y-136380120D03*
%TD*%
D23*
%TO.P,U3,1,VCCA*%
%TO.N,+5V*%
X189814439Y-114019979D03*
%TO.P,U3,2,A1*%
%TO.N,Net-(R1-Pad1)*%
X190314566Y-114019979D03*
%TO.P,U3,3,A2*%
%TO.N,GND*%
X190814439Y-114019979D03*
%TO.P,U3,4,GND*%
X191314566Y-114019979D03*
%TO.P,U3,5,DIR*%
X191314566Y-110920157D03*
%TO.P,U3,6,B2*%
X190814439Y-110920157D03*
%TO.P,U3,7,B1*%
%TO.N,IO16{slash}LED1*%
X190314566Y-110920157D03*
%TO.P,U3,8,VCCB*%
%TO.N,+3V3*%
X189814439Y-110920157D03*
%TD*%
D15*
%TO.P,D25,1,VDD*%
%TO.N,+5V*%
X74664400Y-113563600D03*
%TO.P,D25,2,DOUT*%
%TO.N,Net-(D25-Pad2)*%
X74664400Y-116763600D03*
%TO.P,D25,3,VSS*%
%TO.N,LED GND*%
X79564400Y-116763600D03*
%TO.P,D25,4,DIN*%
%TO.N,Net-(D24-Pad2)*%
X79564400Y-113563600D03*
%TD*%
D16*
%TO.P,C37,1*%
%TO.N,+5V*%
X74423100Y-73507600D03*
%TO.P,C37,2*%
%TO.N,LED GND*%
X76148100Y-73507600D03*
%TD*%
%TO.P,C27,1*%
%TO.N,+5V*%
X204777600Y-69162400D03*
%TO.P,C27,2*%
%TO.N,LED GND*%
X206502600Y-69162400D03*
%TD*%
D11*
%TO.P,D4,1,DIN*%
%TO.N,Net-(D3-Pad3)*%
X167660542Y-138608618D03*
%TO.P,D4,2,VDD*%
%TO.N,+5V*%
X168510428Y-138608618D03*
%TO.P,D4,3,DOUT*%
%TO.N,Net-(D4-Pad3)*%
X169360568Y-138608618D03*
%TO.P,D4,4,VSS*%
%TO.N,LED GND*%
X170210454Y-138608618D03*
%TD*%
D16*
%TO.P,C19,1*%
%TO.N,+5V*%
X168701100Y-136440120D03*
%TO.P,C19,2*%
%TO.N,LED GND*%
X170426100Y-136440120D03*
%TD*%
D24*
%TO.P,U18,1,GND*%
%TO.N,GND*%
X209111300Y-114851575D03*
%TO.P,U18,2,Vout*%
%TO.N,+3V3*%
X209111300Y-112551600D03*
%TO.P,U18,3,Vin*%
%TO.N,+5V*%
X209111300Y-110251625D03*
D25*
%TO.P,U18,4,Vout*%
%TO.N,+3V3*%
X203441500Y-112551600D03*
%TD*%
D16*
%TO.P,C44,1*%
%TO.N,+5V*%
X102781100Y-136380120D03*
%TO.P,C44,2*%
%TO.N,LED GND*%
X104506100Y-136380120D03*
%TD*%
D15*
%TO.P,D24,1,VDD*%
%TO.N,+5V*%
X74664400Y-101068600D03*
%TO.P,D24,2,DOUT*%
%TO.N,Net-(D24-Pad2)*%
X74664400Y-104268600D03*
%TO.P,D24,3,VSS*%
%TO.N,LED GND*%
X79564400Y-104268600D03*
%TO.P,D24,4,DIN*%
%TO.N,Net-(D23-Pad2)*%
X79564400Y-101068600D03*
%TD*%
%TO.P,D16,1,VDD*%
%TO.N,+5V*%
X151573900Y-64322400D03*
%TO.P,D16,2,DOUT*%
%TO.N,Net-(D16-Pad2)*%
X151573900Y-67522400D03*
%TO.P,D16,3,VSS*%
%TO.N,LED GND*%
X156473900Y-67522400D03*
%TO.P,D16,4,DIN*%
%TO.N,Net-(D15-Pad2)*%
X156473900Y-64322400D03*
%TD*%
D16*
%TO.P,C39,1*%
%TO.N,+5V*%
X74617700Y-98401933D03*
%TO.P,C39,2*%
%TO.N,LED GND*%
X76342700Y-98401933D03*
%TD*%
%TO.P,C41,1*%
%TO.N,+5V*%
X74617700Y-123348600D03*
%TO.P,C41,2*%
%TO.N,LED GND*%
X76342700Y-123348600D03*
%TD*%
D11*
%TO.P,D7,1,DIN*%
%TO.N,Net-(D6-Pad3)*%
X205103842Y-138608618D03*
%TO.P,D7,2,VDD*%
%TO.N,+5V*%
X205953728Y-138608618D03*
%TO.P,D7,3,DOUT*%
%TO.N,Net-(D7-Pad3)*%
X206803868Y-138608618D03*
%TO.P,D7,4,VSS*%
%TO.N,LED GND*%
X207653754Y-138608618D03*
%TD*%
D26*
%TO.P,SW1,1,1*%
%TO.N,GND*%
X205576476Y-104011536D03*
X209376324Y-104011536D03*
%TO.P,SW1,2,2*%
%TO.N,Net-(R4-Pad1)*%
X209376324Y-105511664D03*
X205576476Y-105511664D03*
%TD*%
D15*
%TO.P,D9,1,VDD*%
%TO.N,+5V*%
X227260600Y-111401900D03*
%TO.P,D9,2,DOUT*%
%TO.N,Net-(D10-Pad4)*%
X227260600Y-114601900D03*
%TO.P,D9,3,VSS*%
%TO.N,LED GND*%
X232160600Y-114601900D03*
%TO.P,D9,4,DIN*%
%TO.N,Net-(D8-Pad2)*%
X232160600Y-111401900D03*
%TD*%
D16*
%TO.P,C24,1*%
%TO.N,+5V*%
X230539900Y-117099400D03*
%TO.P,C24,2*%
%TO.N,LED GND*%
X232264900Y-117099400D03*
%TD*%
D10*
%TO.P,C33,1*%
%TO.N,+5V*%
X130792600Y-65989900D03*
%TO.P,C33,2*%
%TO.N,LED GND*%
X130792600Y-67714900D03*
%TD*%
D15*
%TO.P,D20,1,VDD*%
%TO.N,+5V*%
X98321500Y-63322400D03*
%TO.P,D20,2,DOUT*%
%TO.N,Net-(D20-Pad2)*%
X98321500Y-66522400D03*
%TO.P,D20,3,VSS*%
%TO.N,LED GND*%
X103221500Y-66522400D03*
%TO.P,D20,4,DIN*%
%TO.N,Net-(D19-Pad2)*%
X103221500Y-63322400D03*
%TD*%
D10*
%TO.P,C35,1*%
%TO.N,+5V*%
X105862600Y-64989900D03*
%TO.P,C35,2*%
%TO.N,LED GND*%
X105862600Y-66714900D03*
%TD*%
D27*
%TO.P,C3,1*%
%TO.N,+5V*%
X154824700Y-132435600D03*
%TO.P,C3,2*%
%TO.N,GND*%
X161049700Y-132435600D03*
%TD*%
D16*
%TO.P,C20,1*%
%TO.N,+5V*%
X181173600Y-136380120D03*
%TO.P,C20,2*%
%TO.N,LED GND*%
X182898600Y-136380120D03*
%TD*%
D15*
%TO.P,D17,1,VDD*%
%TO.N,+5V*%
X137889100Y-66605600D03*
%TO.P,D17,2,DOUT*%
%TO.N,Net-(D17-Pad2)*%
X137889100Y-69805600D03*
%TO.P,D17,3,VSS*%
%TO.N,LED GND*%
X142789100Y-69805600D03*
%TO.P,D17,4,DIN*%
%TO.N,Net-(D16-Pad2)*%
X142789100Y-66605600D03*
%TD*%
D28*
%TO.P,C47,1*%
%TO.N,GND*%
X222006400Y-101524100D03*
%TO.P,C47,2*%
%TO.N,+3V3*%
X222006400Y-99799100D03*
%TD*%
D11*
%TO.P,D29,1,DIN*%
%TO.N,Net-(D28-Pad3)*%
X101927042Y-138608618D03*
%TO.P,D29,2,VDD*%
%TO.N,+5V*%
X102776928Y-138608618D03*
%TO.P,D29,3,DOUT*%
%TO.N,Net-(D29-Pad3)*%
X103627068Y-138608618D03*
%TO.P,D29,4,VSS*%
%TO.N,LED GND*%
X104476954Y-138608618D03*
%TD*%
D29*
%TO.P,U8,1,E*%
%TO.N,RTS*%
X219427297Y-106351613D03*
%TO.P,U8,2,B*%
%TO.N,DTR*%
X219427297Y-107001600D03*
%TO.P,U8,3,C*%
%TO.N,IO0*%
X219427297Y-107651587D03*
%TO.P,U8,4,E*%
%TO.N,DTR*%
X221327221Y-107651587D03*
%TO.P,U8,5,B*%
%TO.N,RTS*%
X221327221Y-107001600D03*
%TO.P,U8,6,C*%
%TO.N,EN*%
X221327221Y-106351613D03*
%TD*%
D30*
%TO.P,USB1,A1B12,GND*%
%TO.N,GND*%
X139090902Y-136920084D03*
%TO.P,USB1,A4B9,VBUS*%
%TO.N,Net-(F1-Pad1)*%
X139890749Y-136920084D03*
D31*
%TO.P,USB1,A5,CC1*%
%TO.N,USB-C CC1*%
X141040864Y-136920084D03*
%TO.P,USB1,A6,DP1*%
%TO.N,USB-C DATA+*%
X142040864Y-136920084D03*
%TO.P,USB1,A7,DN1*%
%TO.N,USB-C DATA-*%
X142540736Y-136920084D03*
%TO.P,USB1,A8,SBU1*%
%TO.N,unconnected-(USB1-PadA8)*%
X143540736Y-136920084D03*
D30*
%TO.P,USB1,B1A12,GND*%
%TO.N,GND*%
X145490698Y-136920084D03*
%TO.P,USB1,B4A9,VBUS*%
%TO.N,Net-(F1-Pad1)*%
X144690851Y-136920084D03*
D31*
%TO.P,USB1,B5,CC2*%
%TO.N,USB-C CC2*%
X144040864Y-136920084D03*
%TO.P,USB1,B6,DP2*%
%TO.N,USB-C DATA+*%
X143040864Y-136920084D03*
%TO.P,USB1,B7,DN2*%
%TO.N,USB-C DATA-*%
X141540736Y-136920084D03*
%TO.P,USB1,B8,SBU2*%
%TO.N,unconnected-(USB1-PadB8)*%
X140540736Y-136920084D03*
D32*
%TO.P,USB1,SHELL,SHELL*%
%TO.N,GND*%
X146610841Y-141842614D03*
D33*
X137970759Y-137662528D03*
D32*
X137970759Y-141842614D03*
D33*
X146610841Y-137662528D03*
%TD*%
D11*
%TO.P,D6,1,DIN*%
%TO.N,Net-(D5-Pad3)*%
X192622742Y-138608618D03*
%TO.P,D6,2,VDD*%
%TO.N,+5V*%
X193472628Y-138608618D03*
%TO.P,D6,3,DOUT*%
%TO.N,Net-(D6-Pad3)*%
X194322768Y-138608618D03*
%TO.P,D6,4,VSS*%
%TO.N,LED GND*%
X195172654Y-138608618D03*
%TD*%
D16*
%TO.P,C42,1*%
%TO.N,+5V*%
X77721100Y-136380120D03*
%TO.P,C42,2*%
%TO.N,LED GND*%
X79446100Y-136380120D03*
%TD*%
D34*
%TO.P,R1,1*%
%TO.N,Net-(R1-Pad1)*%
X151671100Y-136380120D03*
%TO.P,R1,2*%
%TO.N,LED1 DATA OUT*%
X153496100Y-136380120D03*
%TD*%
D18*
%TO.P,R3,1*%
%TO.N,GND*%
X148716000Y-134755500D03*
%TO.P,R3,2*%
%TO.N,USB-C CC2*%
X148716000Y-136580500D03*
%TD*%
D16*
%TO.P,C25,1*%
%TO.N,+5V*%
X230539900Y-104651900D03*
%TO.P,C25,2*%
%TO.N,LED GND*%
X232264900Y-104651900D03*
%TD*%
D10*
%TO.P,C30,1*%
%TO.N,+5V*%
X171675933Y-64989900D03*
%TO.P,C30,2*%
%TO.N,LED GND*%
X171675933Y-66714900D03*
%TD*%
D15*
%TO.P,D26,1,VDD*%
%TO.N,+5V*%
X74664400Y-126058600D03*
%TO.P,D26,2,DOUT*%
%TO.N,Net-(D26-Pad2)*%
X74664400Y-129258600D03*
%TO.P,D26,3,VSS*%
%TO.N,LED GND*%
X79564400Y-129258600D03*
%TO.P,D26,4,DIN*%
%TO.N,Net-(D25-Pad2)*%
X79564400Y-126058600D03*
%TD*%
%TO.P,D23,1,VDD*%
%TO.N,+5V*%
X74664400Y-88573600D03*
%TO.P,D23,2,DOUT*%
%TO.N,Net-(D23-Pad2)*%
X74664400Y-91773600D03*
%TO.P,D23,3,VSS*%
%TO.N,LED GND*%
X79564400Y-91773600D03*
%TO.P,D23,4,DIN*%
%TO.N,Net-(D22-Pad2)*%
X79564400Y-88573600D03*
%TD*%
D11*
%TO.P,D5,1,DIN*%
%TO.N,Net-(D4-Pad3)*%
X180141642Y-138608618D03*
%TO.P,D5,2,VDD*%
%TO.N,+5V*%
X180991528Y-138608618D03*
%TO.P,D5,3,DOUT*%
%TO.N,Net-(D5-Pad3)*%
X181841668Y-138608618D03*
%TO.P,D5,4,VSS*%
%TO.N,LED GND*%
X182691554Y-138608618D03*
%TD*%
D15*
%TO.P,D11,1,VDD*%
%TO.N,+5V*%
X227260600Y-86411900D03*
%TO.P,D11,2,DOUT*%
%TO.N,Net-(D11-Pad2)*%
X227260600Y-89611900D03*
%TO.P,D11,3,VSS*%
%TO.N,LED GND*%
X232160600Y-89611900D03*
%TO.P,D11,4,DIN*%
%TO.N,Net-(D10-Pad2)*%
X232160600Y-86411900D03*
%TD*%
D10*
%TO.P,C29,1*%
%TO.N,+5V*%
X184229266Y-64989900D03*
%TO.P,C29,2*%
%TO.N,LED GND*%
X184229266Y-66714900D03*
%TD*%
D35*
%TO.P,R6,1*%
%TO.N,EN*%
X198028900Y-107131600D03*
%TO.P,R6,2*%
%TO.N,+3V3*%
X196203900Y-107131600D03*
%TD*%
D10*
%TO.P,C28,1*%
%TO.N,+5V*%
X196782600Y-64989900D03*
%TO.P,C28,2*%
%TO.N,LED GND*%
X196782600Y-66714900D03*
%TD*%
D16*
%TO.P,C45,1*%
%TO.N,+5V*%
X115311100Y-136380120D03*
%TO.P,C45,2*%
%TO.N,LED GND*%
X117036100Y-136380120D03*
%TD*%
D28*
%TO.P,C4,1*%
%TO.N,GND*%
X213926400Y-116144100D03*
%TO.P,C4,2*%
%TO.N,+3V3*%
X213926400Y-114419100D03*
%TD*%
D19*
%TO.P,C2,1*%
%TO.N,+3V3*%
X194478900Y-116491600D03*
%TO.P,C2,2*%
%TO.N,GND*%
X192753900Y-116491600D03*
%TD*%
D10*
%TO.P,C34,1*%
%TO.N,+5V*%
X118327600Y-64989900D03*
%TO.P,C34,2*%
%TO.N,LED GND*%
X118327600Y-66714900D03*
%TD*%
D36*
%TO.P,U20,1,VDD*%
%TO.N,+3V3*%
X217151483Y-100257145D03*
%TO.P,U20,2,L/R*%
%TO.N,IO15{slash}WS*%
X215801216Y-100257145D03*
%TO.P,U20,3,CLK*%
%TO.N,IO14{slash}SCK*%
X215801216Y-101107031D03*
%TO.P,U20,4,DATA*%
%TO.N,IO32{slash}SD*%
X217151483Y-101107031D03*
D37*
%TO.P,U20,5,GND*%
%TO.N,GND*%
X218201267Y-100682088D03*
D38*
%TO.P,U20,6,GND*%
X216476349Y-99457043D03*
D37*
%TO.P,U20,7,GND*%
X214751432Y-100682088D03*
D38*
%TO.P,U20,8,GND*%
X216476349Y-101907132D03*
%TD*%
D19*
%TO.P,C8,1*%
%TO.N,EN*%
X197978900Y-105111600D03*
%TO.P,C8,2*%
%TO.N,GND*%
X196253900Y-105111600D03*
%TD*%
D10*
%TO.P,C36,1*%
%TO.N,+5V*%
X93397600Y-64989900D03*
%TO.P,C36,2*%
%TO.N,LED GND*%
X93397600Y-66714900D03*
%TD*%
D11*
%TO.P,D27,1,DIN*%
%TO.N,Net-(D26-Pad2)*%
X76964842Y-138608618D03*
%TO.P,D27,2,VDD*%
%TO.N,+5V*%
X77814728Y-138608618D03*
%TO.P,D27,3,DOUT*%
%TO.N,Net-(D27-Pad3)*%
X78664868Y-138608618D03*
%TO.P,D27,4,VSS*%
%TO.N,LED GND*%
X79514754Y-138608618D03*
%TD*%
D15*
%TO.P,D14,1,VDD*%
%TO.N,+5V*%
X176536100Y-63322400D03*
%TO.P,D14,2,DOUT*%
%TO.N,Net-(D14-Pad2)*%
X176536100Y-66522400D03*
%TO.P,D14,3,VSS*%
%TO.N,LED GND*%
X181436100Y-66522400D03*
%TO.P,D14,4,DIN*%
%TO.N,Net-(D13-Pad2)*%
X181436100Y-63322400D03*
%TD*%
%TO.P,D22,1,VDD*%
%TO.N,+5V*%
X74664400Y-76078600D03*
%TO.P,D22,2,DOUT*%
%TO.N,Net-(D22-Pad2)*%
X74664400Y-79278600D03*
%TO.P,D22,3,VSS*%
%TO.N,LED GND*%
X79564400Y-79278600D03*
%TO.P,D22,4,DIN*%
%TO.N,Net-(D21-Pad2)*%
X79564400Y-76078600D03*
%TD*%
D10*
%TO.P,C6,1*%
%TO.N,+3V3*%
X216026400Y-114419100D03*
%TO.P,C6,2*%
%TO.N,GND*%
X216026400Y-116144100D03*
%TD*%
D16*
%TO.P,C1,1*%
%TO.N,GND*%
X193743900Y-103301600D03*
%TO.P,C1,2*%
%TO.N,+3V3*%
X195468900Y-103301600D03*
%TD*%
D11*
%TO.P,D30,1,DIN*%
%TO.N,Net-(D29-Pad3)*%
X114408142Y-138608618D03*
%TO.P,D30,2,VDD*%
%TO.N,+5V*%
X115258028Y-138608618D03*
%TO.P,D30,3,DOUT*%
%TO.N,Net-(D30-Pad3)*%
X116108168Y-138608618D03*
%TO.P,D30,4,VSS*%
%TO.N,LED GND*%
X116958054Y-138608618D03*
%TD*%
D16*
%TO.P,C21,1*%
%TO.N,+5V*%
X193681100Y-136380120D03*
%TO.P,C21,2*%
%TO.N,LED GND*%
X195406100Y-136380120D03*
%TD*%
D11*
%TO.P,D31,1,DIN*%
%TO.N,Net-(D30-Pad3)*%
X126889242Y-138608618D03*
%TO.P,D31,2,VDD*%
%TO.N,+5V*%
X127739128Y-138608618D03*
%TO.P,D31,3,DOUT*%
%TO.N,unconnected-(D31-Pad3)*%
X128589268Y-138608618D03*
%TO.P,D31,4,VSS*%
%TO.N,LED GND*%
X129439154Y-138608618D03*
%TD*%
D16*
%TO.P,C23,1*%
%TO.N,+5V*%
X230539900Y-129546900D03*
%TO.P,C23,2*%
%TO.N,LED GND*%
X232264900Y-129546900D03*
%TD*%
D34*
%TO.P,R7,1*%
%TO.N,IO0*%
X209713900Y-79061600D03*
%TO.P,R7,2*%
%TO.N,+3V3*%
X211538900Y-79061600D03*
%TD*%
D28*
%TO.P,C10,1*%
%TO.N,GND*%
X220226400Y-101524100D03*
%TO.P,C10,2*%
%TO.N,+3V3*%
X220226400Y-99799100D03*
%TD*%
D35*
%TO.P,R5,1*%
%TO.N,Net-(R5-Pad1)*%
X211538900Y-76971600D03*
%TO.P,R5,2*%
%TO.N,IO0*%
X209713900Y-76971600D03*
%TD*%
D39*
%TO.P,SW3,1,1*%
%TO.N,unconnected-(SW3-Pad1)*%
X137958825Y-62581606D03*
%TO.P,SW3,2*%
%TO.N,N/C*%
X142558775Y-62581606D03*
D40*
%TO.P,SW3,3,3*%
%TO.N,GND*%
X138583921Y-64131517D03*
%TO.P,SW3,4,4*%
%TO.N,IO18{slash}MAINBUTTON*%
X141933933Y-64131517D03*
%TD*%
D16*
%TO.P,C9,1*%
%TO.N,IO0*%
X209763900Y-81101600D03*
%TO.P,C9,2*%
%TO.N,GND*%
X211488900Y-81101600D03*
%TD*%
D35*
%TO.P,R4,1*%
%TO.N,Net-(R4-Pad1)*%
X198028900Y-109151600D03*
%TO.P,R4,2*%
%TO.N,EN*%
X196203900Y-109151600D03*
%TD*%
D16*
%TO.P,C5,1*%
%TO.N,GND*%
X208211400Y-108211600D03*
%TO.P,C5,2*%
%TO.N,+5V*%
X209936400Y-108211600D03*
%TD*%
%TO.P,C22,1*%
%TO.N,+5V*%
X206013600Y-136380120D03*
%TO.P,C22,2*%
%TO.N,LED GND*%
X207738600Y-136380120D03*
%TD*%
D26*
%TO.P,SW2,1,1*%
%TO.N,GND*%
X202916476Y-80091664D03*
X206716324Y-80091664D03*
%TO.P,SW2,2,2*%
%TO.N,Net-(R5-Pad1)*%
X202916476Y-78591536D03*
X206716324Y-78591536D03*
%TD*%
D16*
%TO.P,C43,1*%
%TO.N,+5V*%
X89581100Y-136420120D03*
%TO.P,C43,2*%
%TO.N,LED GND*%
X91306100Y-136420120D03*
%TD*%
%TO.P,C26,1*%
%TO.N,+5V*%
X230539900Y-92204400D03*
%TO.P,C26,2*%
%TO.N,LED GND*%
X232264900Y-92204400D03*
%TD*%
M02*
