%TF.GenerationSoftware,KiCad,Pcbnew,(6.0.6-0)*%
%TF.CreationDate,2022-08-02T12:10:40+02:00*%
%TF.ProjectId,GlowSignMainPCB,476c6f77-5369-4676-9e4d-61696e504342,rev?*%
%TF.SameCoordinates,Original*%
%TF.FileFunction,Other,Comment*%
%FSLAX46Y46*%
G04 Gerber Fmt 4.6, Leading zero omitted, Abs format (unit mm)*
G04 Created by KiCad (PCBNEW (6.0.6-0)) date 2022-08-02 12:10:40*
%MOMM*%
%LPD*%
G01*
G04 APERTURE LIST*
%ADD10C,0.100000*%
%ADD11C,0.150000*%
G04 APERTURE END LIST*
D10*
%TO.C,U4*%
X187322740Y-81169695D02*
X187322740Y-81407790D01*
X187560835Y-81431600D01*
X187537026Y-81407790D01*
X187513216Y-81360171D01*
X187513216Y-81241123D01*
X187537026Y-81193504D01*
X187560835Y-81169695D01*
X187608454Y-81145885D01*
X187727502Y-81145885D01*
X187775121Y-81169695D01*
X187798930Y-81193504D01*
X187822740Y-81241123D01*
X187822740Y-81360171D01*
X187798930Y-81407790D01*
X187775121Y-81431600D01*
X187822740Y-80550647D02*
X187489407Y-80550647D01*
X187537026Y-80550647D02*
X187513216Y-80526838D01*
X187489407Y-80479219D01*
X187489407Y-80407790D01*
X187513216Y-80360171D01*
X187560835Y-80336361D01*
X187822740Y-80336361D01*
X187560835Y-80336361D02*
X187513216Y-80312552D01*
X187489407Y-80264933D01*
X187489407Y-80193504D01*
X187513216Y-80145885D01*
X187560835Y-80122076D01*
X187822740Y-80122076D01*
X187822740Y-79883980D02*
X187489407Y-79883980D01*
X187537026Y-79883980D02*
X187513216Y-79860171D01*
X187489407Y-79812552D01*
X187489407Y-79741123D01*
X187513216Y-79693504D01*
X187560835Y-79669695D01*
X187822740Y-79669695D01*
X187560835Y-79669695D02*
X187513216Y-79645885D01*
X187489407Y-79598266D01*
X187489407Y-79526838D01*
X187513216Y-79479219D01*
X187560835Y-79455409D01*
X187822740Y-79455409D01*
D11*
X183423930Y-98303028D02*
X182423930Y-98303028D01*
X183423930Y-97731600D02*
X182852502Y-98160171D01*
X182423930Y-97731600D02*
X182995359Y-98303028D01*
X182900121Y-97303028D02*
X182900121Y-96969695D01*
X183423930Y-96826838D02*
X183423930Y-97303028D01*
X182423930Y-97303028D01*
X182423930Y-96826838D01*
X182900121Y-96398266D02*
X182900121Y-96064933D01*
X183423930Y-95922076D02*
X183423930Y-96398266D01*
X182423930Y-96398266D01*
X182423930Y-95922076D01*
X183423930Y-95493504D02*
X182423930Y-95493504D01*
X182423930Y-95112552D01*
X182471550Y-95017314D01*
X182519169Y-94969695D01*
X182614407Y-94922076D01*
X182757264Y-94922076D01*
X182852502Y-94969695D01*
X182900121Y-95017314D01*
X182947740Y-95112552D01*
X182947740Y-95493504D01*
X183042978Y-94493504D02*
X183042978Y-93731600D01*
X182423930Y-93064933D02*
X182423930Y-92874457D01*
X182471550Y-92779219D01*
X182566788Y-92683980D01*
X182757264Y-92636361D01*
X183090597Y-92636361D01*
X183281073Y-92683980D01*
X183376311Y-92779219D01*
X183423930Y-92874457D01*
X183423930Y-93064933D01*
X183376311Y-93160171D01*
X183281073Y-93255409D01*
X183090597Y-93303028D01*
X182757264Y-93303028D01*
X182566788Y-93255409D01*
X182471550Y-93160171D01*
X182423930Y-93064933D01*
X182423930Y-92207790D02*
X183233454Y-92207790D01*
X183328692Y-92160171D01*
X183376311Y-92112552D01*
X183423930Y-92017314D01*
X183423930Y-91826838D01*
X183376311Y-91731600D01*
X183328692Y-91683980D01*
X183233454Y-91636361D01*
X182423930Y-91636361D01*
X182423930Y-91303028D02*
X182423930Y-90731600D01*
X183423930Y-91017314D02*
X182423930Y-91017314D01*
X182423930Y-89731600D02*
X182423930Y-89064933D01*
X183423930Y-89731600D01*
X183423930Y-89064933D01*
X182423930Y-88493504D02*
X182423930Y-88303028D01*
X182471550Y-88207790D01*
X182566788Y-88112552D01*
X182757264Y-88064933D01*
X183090597Y-88064933D01*
X183281073Y-88112552D01*
X183376311Y-88207790D01*
X183423930Y-88303028D01*
X183423930Y-88493504D01*
X183376311Y-88588742D01*
X183281073Y-88683980D01*
X183090597Y-88731600D01*
X182757264Y-88731600D01*
X182566788Y-88683980D01*
X182471550Y-88588742D01*
X182423930Y-88493504D01*
X183423930Y-87636361D02*
X182423930Y-87636361D01*
X183423930Y-87064933D01*
X182423930Y-87064933D01*
X182900121Y-86588742D02*
X182900121Y-86255409D01*
X183423930Y-86112552D02*
X183423930Y-86588742D01*
X182423930Y-86588742D01*
X182423930Y-86112552D01*
D10*
X187322740Y-104169695D02*
X187322740Y-104407790D01*
X187560835Y-104431600D01*
X187537026Y-104407790D01*
X187513216Y-104360171D01*
X187513216Y-104241123D01*
X187537026Y-104193504D01*
X187560835Y-104169695D01*
X187608454Y-104145885D01*
X187727502Y-104145885D01*
X187775121Y-104169695D01*
X187798930Y-104193504D01*
X187822740Y-104241123D01*
X187822740Y-104360171D01*
X187798930Y-104407790D01*
X187775121Y-104431600D01*
X187822740Y-103550647D02*
X187489407Y-103550647D01*
X187537026Y-103550647D02*
X187513216Y-103526838D01*
X187489407Y-103479219D01*
X187489407Y-103407790D01*
X187513216Y-103360171D01*
X187560835Y-103336361D01*
X187822740Y-103336361D01*
X187560835Y-103336361D02*
X187513216Y-103312552D01*
X187489407Y-103264933D01*
X187489407Y-103193504D01*
X187513216Y-103145885D01*
X187560835Y-103122076D01*
X187822740Y-103122076D01*
X187822740Y-102883980D02*
X187489407Y-102883980D01*
X187537026Y-102883980D02*
X187513216Y-102860171D01*
X187489407Y-102812552D01*
X187489407Y-102741123D01*
X187513216Y-102693504D01*
X187560835Y-102669695D01*
X187822740Y-102669695D01*
X187560835Y-102669695D02*
X187513216Y-102645885D01*
X187489407Y-102598266D01*
X187489407Y-102526838D01*
X187513216Y-102479219D01*
X187560835Y-102455409D01*
X187822740Y-102455409D01*
X182158454Y-84157790D02*
X181920359Y-84157790D01*
X181896550Y-84395885D01*
X181920359Y-84372076D01*
X181967978Y-84348266D01*
X182087026Y-84348266D01*
X182134645Y-84372076D01*
X182158454Y-84395885D01*
X182182264Y-84443504D01*
X182182264Y-84562552D01*
X182158454Y-84610171D01*
X182134645Y-84633980D01*
X182087026Y-84657790D01*
X181967978Y-84657790D01*
X181920359Y-84633980D01*
X181896550Y-84610171D01*
X182777502Y-84657790D02*
X182777502Y-84324457D01*
X182777502Y-84372076D02*
X182801311Y-84348266D01*
X182848930Y-84324457D01*
X182920359Y-84324457D01*
X182967978Y-84348266D01*
X182991788Y-84395885D01*
X182991788Y-84657790D01*
X182991788Y-84395885D02*
X183015597Y-84348266D01*
X183063216Y-84324457D01*
X183134645Y-84324457D01*
X183182264Y-84348266D01*
X183206073Y-84395885D01*
X183206073Y-84657790D01*
X183444169Y-84657790D02*
X183444169Y-84324457D01*
X183444169Y-84372076D02*
X183467978Y-84348266D01*
X183515597Y-84324457D01*
X183587026Y-84324457D01*
X183634645Y-84348266D01*
X183658454Y-84395885D01*
X183658454Y-84657790D01*
X183658454Y-84395885D02*
X183682264Y-84348266D01*
X183729883Y-84324457D01*
X183801311Y-84324457D01*
X183848930Y-84348266D01*
X183872740Y-84395885D01*
X183872740Y-84657790D01*
D11*
X189138216Y-94993504D02*
X189138216Y-94517314D01*
X189423930Y-95088742D02*
X188423930Y-94755409D01*
X189423930Y-94422076D01*
X188757264Y-94088742D02*
X189423930Y-94088742D01*
X188852502Y-94088742D02*
X188804883Y-94041123D01*
X188757264Y-93945885D01*
X188757264Y-93803028D01*
X188804883Y-93707790D01*
X188900121Y-93660171D01*
X189423930Y-93660171D01*
X188757264Y-93326838D02*
X188757264Y-92945885D01*
X188423930Y-93183980D02*
X189281073Y-93183980D01*
X189376311Y-93136361D01*
X189423930Y-93041123D01*
X189423930Y-92945885D01*
X189376311Y-92231600D02*
X189423930Y-92326838D01*
X189423930Y-92517314D01*
X189376311Y-92612552D01*
X189281073Y-92660171D01*
X188900121Y-92660171D01*
X188804883Y-92612552D01*
X188757264Y-92517314D01*
X188757264Y-92326838D01*
X188804883Y-92231600D01*
X188900121Y-92183980D01*
X188995359Y-92183980D01*
X189090597Y-92660171D01*
X188757264Y-91755409D02*
X189423930Y-91755409D01*
X188852502Y-91755409D02*
X188804883Y-91707790D01*
X188757264Y-91612552D01*
X188757264Y-91469695D01*
X188804883Y-91374457D01*
X188900121Y-91326838D01*
X189423930Y-91326838D01*
X188757264Y-90850647D02*
X189423930Y-90850647D01*
X188852502Y-90850647D02*
X188804883Y-90803028D01*
X188757264Y-90707790D01*
X188757264Y-90564933D01*
X188804883Y-90469695D01*
X188900121Y-90422076D01*
X189423930Y-90422076D01*
X189423930Y-89517314D02*
X188900121Y-89517314D01*
X188804883Y-89564933D01*
X188757264Y-89660171D01*
X188757264Y-89850647D01*
X188804883Y-89945885D01*
X189376311Y-89517314D02*
X189423930Y-89612552D01*
X189423930Y-89850647D01*
X189376311Y-89945885D01*
X189281073Y-89993504D01*
X189185835Y-89993504D01*
X189090597Y-89945885D01*
X189042978Y-89850647D01*
X189042978Y-89612552D01*
X188995359Y-89517314D01*
D10*
X181371550Y-83831600D02*
X181571550Y-83631600D01*
X188096550Y-83031600D02*
X187896550Y-82831600D01*
X188096550Y-78431600D02*
X188296550Y-78631600D01*
X188096550Y-106031600D02*
X188096550Y-101431600D01*
X188096550Y-106031600D02*
X188296550Y-105831600D01*
X188096550Y-106031600D02*
X187896550Y-105831600D01*
X185971550Y-83831600D02*
X185771550Y-84031600D01*
X188096550Y-83031600D02*
X188096550Y-78431600D01*
X188096550Y-101431600D02*
X187896550Y-101631600D01*
X188096550Y-78431600D02*
X187896550Y-78631600D01*
X185971550Y-83831600D02*
X181371550Y-83831600D01*
X188096550Y-83031600D02*
X188296550Y-82831600D01*
X188096550Y-101431600D02*
X188296550Y-101631600D01*
X181371550Y-83831600D02*
X181571550Y-84031600D01*
X185971550Y-83831600D02*
X185771550Y-83631600D01*
%TD*%
M02*
