%TF.GenerationSoftware,KiCad,Pcbnew,(6.0.6-0)*%
%TF.CreationDate,2022-08-02T12:10:40+02:00*%
%TF.ProjectId,GlowSignMainPCB,476c6f77-5369-4676-9e4d-61696e504342,rev?*%
%TF.SameCoordinates,Original*%
%TF.FileFunction,Paste,Top*%
%TF.FilePolarity,Positive*%
%FSLAX46Y46*%
G04 Gerber Fmt 4.6, Leading zero omitted, Abs format (unit mm)*
G04 Created by KiCad (PCBNEW (6.0.6-0)) date 2022-08-02 12:10:40*
%MOMM*%
%LPD*%
G01*
G04 APERTURE LIST*
G04 Aperture macros list*
%AMRoundRect*
0 Rectangle with rounded corners*
0 $1 Rounding radius*
0 $2 $3 $4 $5 $6 $7 $8 $9 X,Y pos of 4 corners*
0 Add a 4 corners polygon primitive as box body*
4,1,4,$2,$3,$4,$5,$6,$7,$8,$9,$2,$3,0*
0 Add four circle primitives for the rounded corners*
1,1,$1+$1,$2,$3*
1,1,$1+$1,$4,$5*
1,1,$1+$1,$6,$7*
1,1,$1+$1,$8,$9*
0 Add four rect primitives between the rounded corners*
20,1,$1+$1,$2,$3,$4,$5,0*
20,1,$1+$1,$4,$5,$6,$7,0*
20,1,$1+$1,$6,$7,$8,$9,0*
20,1,$1+$1,$8,$9,$2,$3,0*%
G04 Aperture macros list end*
%ADD10RoundRect,0.237500X-0.237500X0.300000X-0.237500X-0.300000X0.237500X-0.300000X0.237500X0.300000X0*%
%ADD11R,0.419990X1.300000*%
%ADD12R,0.900000X2.000000*%
%ADD13R,2.000000X0.900000*%
%ADD14R,1.330000X1.330000*%
%ADD15R,1.500000X1.000000*%
%ADD16RoundRect,0.237500X-0.300000X-0.237500X0.300000X-0.237500X0.300000X0.237500X-0.300000X0.237500X0*%
%ADD17RoundRect,0.250000X-0.400000X-1.450000X0.400000X-1.450000X0.400000X1.450000X-0.400000X1.450000X0*%
%ADD18RoundRect,0.237500X-0.237500X0.250000X-0.237500X-0.250000X0.237500X-0.250000X0.237500X0.250000X0*%
%ADD19RoundRect,0.237500X0.300000X0.237500X-0.300000X0.237500X-0.300000X-0.237500X0.300000X-0.237500X0*%
%ADD20R,0.900000X0.280010*%
%ADD21R,0.280010X0.900000*%
%ADD22R,3.300000X3.300000*%
%ADD23O,0.250013X0.750013*%
%ADD24R,2.470003X0.980010*%
%ADD25R,2.470003X3.600000*%
%ADD26R,1.500000X0.900000*%
%ADD27RoundRect,0.250000X-0.787500X-1.025000X0.787500X-1.025000X0.787500X1.025000X-0.787500X1.025000X0*%
%ADD28RoundRect,0.237500X0.237500X-0.300000X0.237500X0.300000X-0.237500X0.300000X-0.237500X-0.300000X0*%
%ADD29R,0.600000X0.419990*%
%ADD30R,0.600000X1.300000*%
%ADD31R,0.300000X1.300000*%
%ADD32RoundRect,0.237500X-0.250000X-0.237500X0.250000X-0.237500X0.250000X0.237500X-0.250000X0.237500X0*%
%ADD33RoundRect,0.237500X0.250000X0.237500X-0.250000X0.237500X-0.250000X-0.237500X0.250000X-0.237500X0*%
%ADD34R,1.050013X0.550013*%
%ADD35R,0.450013X1.400000*%
%ADD36R,2.400000X0.450013*%
%ADD37R,0.900000X1.200000*%
%ADD38R,1.200000X1.300000*%
G04 APERTURE END LIST*
D10*
%TO.C,C31*%
X159122600Y-65989900D03*
X159122600Y-67714900D03*
%TD*%
D11*
%TO.C,D3*%
X155179442Y-138608618D03*
X156029328Y-138608618D03*
X156879468Y-138608618D03*
X157729354Y-138608618D03*
%TD*%
D12*
%TO.C,U4*%
X193701250Y-100713700D03*
X194971250Y-100713700D03*
X196241250Y-100713700D03*
X197511250Y-100713700D03*
X198781250Y-100713700D03*
X200051250Y-100713700D03*
X201321250Y-100713700D03*
X202591250Y-100713700D03*
X203861250Y-100713700D03*
X205131250Y-100713700D03*
X206401250Y-100713700D03*
X207671250Y-100713700D03*
X208941250Y-100713700D03*
X210211250Y-100713700D03*
D13*
X211211250Y-97928700D03*
X211211250Y-96658700D03*
X211211250Y-95388700D03*
X211211250Y-94118700D03*
X211211250Y-92848700D03*
X211211250Y-91578700D03*
X211211250Y-90308700D03*
X211211250Y-89038700D03*
X211211250Y-87768700D03*
X211211250Y-86498700D03*
D12*
X210211250Y-83713700D03*
X208941250Y-83713700D03*
X207671250Y-83713700D03*
X206401250Y-83713700D03*
X205131250Y-83713700D03*
X203861250Y-83713700D03*
X202591250Y-83713700D03*
X201321250Y-83713700D03*
X200051250Y-83713700D03*
X198781250Y-83713700D03*
X197511250Y-83713700D03*
X196241250Y-83713700D03*
X194971250Y-83713700D03*
X193701250Y-83713700D03*
D14*
X199366250Y-95048700D03*
X201201250Y-93213700D03*
X199366250Y-91378700D03*
X203036250Y-95048700D03*
X203036250Y-91378700D03*
X203036250Y-93213700D03*
X201201250Y-95048700D03*
X199366250Y-93213700D03*
X201201250Y-91378700D03*
%TD*%
D15*
%TO.C,D18*%
X123283700Y-64322400D03*
X123283700Y-67522400D03*
X128183700Y-67522400D03*
X128183700Y-64322400D03*
%TD*%
%TO.C,D12*%
X201498300Y-63322400D03*
X201498300Y-66522400D03*
X206398300Y-66522400D03*
X206398300Y-63322400D03*
%TD*%
D16*
%TO.C,C48*%
X188633900Y-116471600D03*
X190358900Y-116471600D03*
%TD*%
D15*
%TO.C,D15*%
X164055000Y-63322400D03*
X164055000Y-66522400D03*
X168955000Y-66522400D03*
X168955000Y-63322400D03*
%TD*%
D17*
%TO.C,F1*%
X139761000Y-131318000D03*
X144211000Y-131318000D03*
%TD*%
D15*
%TO.C,D8*%
X227260600Y-123896900D03*
X227260600Y-127096900D03*
X232160600Y-127096900D03*
X232160600Y-123896900D03*
%TD*%
D11*
%TO.C,D28*%
X89445942Y-138608618D03*
X90295828Y-138608618D03*
X91145968Y-138608618D03*
X91995854Y-138608618D03*
%TD*%
D16*
%TO.C,C18*%
X156031100Y-136380120D03*
X157756100Y-136380120D03*
%TD*%
D15*
%TO.C,D19*%
X110802600Y-63322400D03*
X110802600Y-66522400D03*
X115702600Y-66522400D03*
X115702600Y-63322400D03*
%TD*%
D18*
%TO.C,R2*%
X135826000Y-134755500D03*
X135826000Y-136580500D03*
%TD*%
D19*
%TO.C,C7*%
X204406400Y-108211600D03*
X202681400Y-108211600D03*
%TD*%
D15*
%TO.C,D21*%
X85840400Y-63322400D03*
X85840400Y-66522400D03*
X90740400Y-66522400D03*
X90740400Y-63322400D03*
%TD*%
D16*
%TO.C,C38*%
X74617700Y-85928600D03*
X76342700Y-85928600D03*
%TD*%
D15*
%TO.C,D13*%
X189017200Y-63322400D03*
X189017200Y-66522400D03*
X193917200Y-66522400D03*
X193917200Y-63322400D03*
%TD*%
D20*
%TO.C,U7*%
X218006451Y-111260533D03*
X218006451Y-111760914D03*
X218006451Y-112261295D03*
X218006451Y-112761676D03*
X218006451Y-113262057D03*
X218006451Y-113762438D03*
X218006451Y-114262819D03*
D21*
X219005181Y-115261803D03*
X219505562Y-115261803D03*
X220005943Y-115261803D03*
X220506324Y-115261803D03*
X221006705Y-115261803D03*
X221507086Y-115261803D03*
X222007467Y-115261803D03*
D20*
X223006451Y-114262819D03*
X223006451Y-113762438D03*
X223006451Y-113262057D03*
X223006451Y-112761676D03*
X223006451Y-112261295D03*
X223006451Y-111760914D03*
X223006451Y-111260533D03*
D21*
X222007467Y-110261803D03*
X221507086Y-110261803D03*
X221006705Y-110261803D03*
X220506324Y-110261803D03*
X220005943Y-110261803D03*
X219505562Y-110261803D03*
X219005181Y-110261803D03*
D22*
X220506324Y-112761676D03*
%TD*%
D15*
%TO.C,D10*%
X227260600Y-98906900D03*
X227260600Y-102106900D03*
X232160600Y-102106900D03*
X232160600Y-98906900D03*
%TD*%
D10*
%TO.C,C32*%
X145398000Y-68273100D03*
X145398000Y-69998100D03*
%TD*%
D16*
%TO.C,C40*%
X74617700Y-110875266D03*
X76342700Y-110875266D03*
%TD*%
%TO.C,C46*%
X127628600Y-136380120D03*
X129353600Y-136380120D03*
%TD*%
D23*
%TO.C,U3*%
X189814439Y-114019979D03*
X190314566Y-114019979D03*
X190814439Y-114019979D03*
X191314566Y-114019979D03*
X191314566Y-110920157D03*
X190814439Y-110920157D03*
X190314566Y-110920157D03*
X189814439Y-110920157D03*
%TD*%
D15*
%TO.C,D25*%
X74664400Y-113563600D03*
X74664400Y-116763600D03*
X79564400Y-116763600D03*
X79564400Y-113563600D03*
%TD*%
D16*
%TO.C,C37*%
X74423100Y-73507600D03*
X76148100Y-73507600D03*
%TD*%
%TO.C,C27*%
X204777600Y-69162400D03*
X206502600Y-69162400D03*
%TD*%
D11*
%TO.C,D4*%
X167660542Y-138608618D03*
X168510428Y-138608618D03*
X169360568Y-138608618D03*
X170210454Y-138608618D03*
%TD*%
D16*
%TO.C,C19*%
X168701100Y-136440120D03*
X170426100Y-136440120D03*
%TD*%
D24*
%TO.C,U18*%
X209111300Y-114851575D03*
X209111300Y-112551600D03*
X209111300Y-110251625D03*
D25*
X203441500Y-112551600D03*
%TD*%
D16*
%TO.C,C44*%
X102781100Y-136380120D03*
X104506100Y-136380120D03*
%TD*%
D15*
%TO.C,D24*%
X74664400Y-101068600D03*
X74664400Y-104268600D03*
X79564400Y-104268600D03*
X79564400Y-101068600D03*
%TD*%
%TO.C,D16*%
X151573900Y-64322400D03*
X151573900Y-67522400D03*
X156473900Y-67522400D03*
X156473900Y-64322400D03*
%TD*%
D16*
%TO.C,C39*%
X74617700Y-98401933D03*
X76342700Y-98401933D03*
%TD*%
%TO.C,C41*%
X74617700Y-123348600D03*
X76342700Y-123348600D03*
%TD*%
D11*
%TO.C,D7*%
X205103842Y-138608618D03*
X205953728Y-138608618D03*
X206803868Y-138608618D03*
X207653754Y-138608618D03*
%TD*%
D26*
%TO.C,SW1*%
X205576476Y-104011536D03*
X209376324Y-104011536D03*
X209376324Y-105511664D03*
X205576476Y-105511664D03*
%TD*%
D15*
%TO.C,D9*%
X227260600Y-111401900D03*
X227260600Y-114601900D03*
X232160600Y-114601900D03*
X232160600Y-111401900D03*
%TD*%
D16*
%TO.C,C24*%
X230539900Y-117099400D03*
X232264900Y-117099400D03*
%TD*%
D10*
%TO.C,C33*%
X130792600Y-65989900D03*
X130792600Y-67714900D03*
%TD*%
D15*
%TO.C,D20*%
X98321500Y-63322400D03*
X98321500Y-66522400D03*
X103221500Y-66522400D03*
X103221500Y-63322400D03*
%TD*%
D10*
%TO.C,C35*%
X105862600Y-64989900D03*
X105862600Y-66714900D03*
%TD*%
D27*
%TO.C,C3*%
X154824700Y-132435600D03*
X161049700Y-132435600D03*
%TD*%
D16*
%TO.C,C20*%
X181173600Y-136380120D03*
X182898600Y-136380120D03*
%TD*%
D15*
%TO.C,D17*%
X137889100Y-66605600D03*
X137889100Y-69805600D03*
X142789100Y-69805600D03*
X142789100Y-66605600D03*
%TD*%
D28*
%TO.C,C47*%
X222006400Y-101524100D03*
X222006400Y-99799100D03*
%TD*%
D11*
%TO.C,D29*%
X101927042Y-138608618D03*
X102776928Y-138608618D03*
X103627068Y-138608618D03*
X104476954Y-138608618D03*
%TD*%
D29*
%TO.C,U8*%
X219427297Y-106351613D03*
X219427297Y-107001600D03*
X219427297Y-107651587D03*
X221327221Y-107651587D03*
X221327221Y-107001600D03*
X221327221Y-106351613D03*
%TD*%
D30*
%TO.C,USB1*%
X139090902Y-136920084D03*
X139890749Y-136920084D03*
D31*
X141040864Y-136920084D03*
X142040864Y-136920084D03*
X142540736Y-136920084D03*
X143540736Y-136920084D03*
D30*
X145490698Y-136920084D03*
X144690851Y-136920084D03*
D31*
X144040864Y-136920084D03*
X143040864Y-136920084D03*
X141540736Y-136920084D03*
X140540736Y-136920084D03*
%TD*%
D11*
%TO.C,D6*%
X192622742Y-138608618D03*
X193472628Y-138608618D03*
X194322768Y-138608618D03*
X195172654Y-138608618D03*
%TD*%
D16*
%TO.C,C42*%
X77721100Y-136380120D03*
X79446100Y-136380120D03*
%TD*%
D32*
%TO.C,R1*%
X151671100Y-136380120D03*
X153496100Y-136380120D03*
%TD*%
D18*
%TO.C,R3*%
X148716000Y-134755500D03*
X148716000Y-136580500D03*
%TD*%
D16*
%TO.C,C25*%
X230539900Y-104651900D03*
X232264900Y-104651900D03*
%TD*%
D10*
%TO.C,C30*%
X171675933Y-64989900D03*
X171675933Y-66714900D03*
%TD*%
D15*
%TO.C,D26*%
X74664400Y-126058600D03*
X74664400Y-129258600D03*
X79564400Y-129258600D03*
X79564400Y-126058600D03*
%TD*%
%TO.C,D23*%
X74664400Y-88573600D03*
X74664400Y-91773600D03*
X79564400Y-91773600D03*
X79564400Y-88573600D03*
%TD*%
D11*
%TO.C,D5*%
X180141642Y-138608618D03*
X180991528Y-138608618D03*
X181841668Y-138608618D03*
X182691554Y-138608618D03*
%TD*%
D15*
%TO.C,D11*%
X227260600Y-86411900D03*
X227260600Y-89611900D03*
X232160600Y-89611900D03*
X232160600Y-86411900D03*
%TD*%
D10*
%TO.C,C29*%
X184229266Y-64989900D03*
X184229266Y-66714900D03*
%TD*%
D33*
%TO.C,R6*%
X198028900Y-107131600D03*
X196203900Y-107131600D03*
%TD*%
D10*
%TO.C,C28*%
X196782600Y-64989900D03*
X196782600Y-66714900D03*
%TD*%
D16*
%TO.C,C45*%
X115311100Y-136380120D03*
X117036100Y-136380120D03*
%TD*%
D28*
%TO.C,C4*%
X213926400Y-116144100D03*
X213926400Y-114419100D03*
%TD*%
D19*
%TO.C,C2*%
X194478900Y-116491600D03*
X192753900Y-116491600D03*
%TD*%
D10*
%TO.C,C34*%
X118327600Y-64989900D03*
X118327600Y-66714900D03*
%TD*%
D34*
%TO.C,U20*%
X217151483Y-100257145D03*
X215801216Y-100257145D03*
X215801216Y-101107031D03*
X217151483Y-101107031D03*
D35*
X218201267Y-100682088D03*
D36*
X216476349Y-99457043D03*
D35*
X214751432Y-100682088D03*
D36*
X216476349Y-101907132D03*
%TD*%
D19*
%TO.C,C8*%
X197978900Y-105111600D03*
X196253900Y-105111600D03*
%TD*%
D10*
%TO.C,C36*%
X93397600Y-64989900D03*
X93397600Y-66714900D03*
%TD*%
D11*
%TO.C,D27*%
X76964842Y-138608618D03*
X77814728Y-138608618D03*
X78664868Y-138608618D03*
X79514754Y-138608618D03*
%TD*%
D15*
%TO.C,D14*%
X176536100Y-63322400D03*
X176536100Y-66522400D03*
X181436100Y-66522400D03*
X181436100Y-63322400D03*
%TD*%
%TO.C,D22*%
X74664400Y-76078600D03*
X74664400Y-79278600D03*
X79564400Y-79278600D03*
X79564400Y-76078600D03*
%TD*%
D10*
%TO.C,C6*%
X216026400Y-114419100D03*
X216026400Y-116144100D03*
%TD*%
D16*
%TO.C,C1*%
X193743900Y-103301600D03*
X195468900Y-103301600D03*
%TD*%
D11*
%TO.C,D30*%
X114408142Y-138608618D03*
X115258028Y-138608618D03*
X116108168Y-138608618D03*
X116958054Y-138608618D03*
%TD*%
D16*
%TO.C,C21*%
X193681100Y-136380120D03*
X195406100Y-136380120D03*
%TD*%
D11*
%TO.C,D31*%
X126889242Y-138608618D03*
X127739128Y-138608618D03*
X128589268Y-138608618D03*
X129439154Y-138608618D03*
%TD*%
D16*
%TO.C,C23*%
X230539900Y-129546900D03*
X232264900Y-129546900D03*
%TD*%
D32*
%TO.C,R7*%
X209713900Y-79061600D03*
X211538900Y-79061600D03*
%TD*%
D28*
%TO.C,C10*%
X220226400Y-101524100D03*
X220226400Y-99799100D03*
%TD*%
D33*
%TO.C,R5*%
X211538900Y-76971600D03*
X209713900Y-76971600D03*
%TD*%
D37*
%TO.C,SW3*%
X137958825Y-62581606D03*
X142558775Y-62581606D03*
D38*
X138583921Y-64131517D03*
X141933933Y-64131517D03*
%TD*%
D16*
%TO.C,C9*%
X209763900Y-81101600D03*
X211488900Y-81101600D03*
%TD*%
D33*
%TO.C,R4*%
X198028900Y-109151600D03*
X196203900Y-109151600D03*
%TD*%
D16*
%TO.C,C5*%
X208211400Y-108211600D03*
X209936400Y-108211600D03*
%TD*%
%TO.C,C22*%
X206013600Y-136380120D03*
X207738600Y-136380120D03*
%TD*%
D26*
%TO.C,SW2*%
X202916476Y-80091664D03*
X206716324Y-80091664D03*
X202916476Y-78591536D03*
X206716324Y-78591536D03*
%TD*%
D16*
%TO.C,C43*%
X89581100Y-136420120D03*
X91306100Y-136420120D03*
%TD*%
%TO.C,C26*%
X230539900Y-92204400D03*
X232264900Y-92204400D03*
%TD*%
M02*
