M48
; DRILL file {KiCad (6.0.6-0)} date 2022 August 06, Saturday 22:16:54
; FORMAT={-:-/ absolute / inch / decimal}
; #@! TF.CreationDate,2022-08-06T22:16:54+02:00
; #@! TF.GenerationSoftware,Kicad,Pcbnew,(6.0.6-0)
; #@! TF.FileFunction,Plated,1,2,PTH
FMAT,2
INCH
; #@! TA.AperFunction,Plated,PTH,ViaDrill
T1C0.0118
; #@! TA.AperFunction,Plated,PTH,ComponentDrill
T2C0.0276
; #@! TA.AperFunction,Plated,PTH,ViaDrill
T3C0.0454
%
G90
G05
T1
X2.656Y-2.656
X2.656Y-3.03
X2.656Y-3.186
X2.656Y-3.546
X2.656Y-3.826
X2.656Y-4.054
X2.656Y-4.364
X2.656Y-4.588
X2.656Y-4.884
X2.656Y-5.106
X2.656Y-5.378
X2.722Y-2.654
X2.722Y-2.964
X2.722Y-3.186
X2.722Y-3.516
X2.722Y-3.836
X2.722Y-4.02
X2.722Y-4.366
X2.722Y-4.56
X2.722Y-4.884
X2.722Y-5.074
X2.722Y-5.36
X2.75Y-5.542
X2.758Y-2.378
X2.792Y-2.442
X2.858Y-5.474
X3.066Y-5.542
X3.076Y-5.46
X3.102Y-2.378
X3.102Y-2.442
X3.282Y-2.378
X3.286Y-5.542
X3.324Y-2.442
X3.39Y-5.46
X3.6Y-5.542
X3.604Y-5.462
X3.644Y-2.442
X3.646Y-2.378
X3.808Y-2.378
X3.814Y-5.542
X3.868Y-2.442
X3.91Y-5.462
X4.138Y-5.542
X4.146Y-5.464
X4.154Y-2.378
X4.154Y-2.442
X4.332Y-2.378
X4.336Y-5.542
X4.38Y-2.442
X4.454Y-5.462
X4.672Y-5.542
X4.678Y-2.442
X4.68Y-5.464
X4.684Y-2.378
X4.878Y-2.378
X4.878Y-5.542
X4.908Y-2.442
X4.98Y-5.462
X5.202Y-2.442
X5.208Y-5.542
X5.214Y-2.378
X5.218Y-5.464
X5.392Y-2.378
X5.41Y-5.542
X5.442Y-2.442
X5.556Y-2.774
X5.67Y-2.716
X5.772Y-5.172
X5.834Y-5.306
X5.912Y-2.378
X5.974Y-2.442
X6.008Y-5.1687
X6.026Y-2.766
X6.052Y-2.73
X6.092Y-2.442
X6.092Y-5.484
X6.0942Y-2.3769
X6.152Y-5.258
X6.212Y-5.2816
X6.296Y-5.334
X6.318Y-2.714
X6.328Y-2.378
X6.336Y-2.738
X6.346Y-2.442
X6.368Y-5.446
X6.428Y-2.378
X6.444Y-5.4
X6.494Y-5.192
X6.498Y-2.738
X6.516Y-2.714
X6.53Y-5.384
X6.612Y-5.384
X6.632Y-2.594
X6.648Y-2.566
X6.6569Y-5.5431
X6.666Y-2.592
X6.69Y-2.566
X6.694Y-2.594
X6.754Y-2.59
X6.784Y-2.592
X6.788Y-2.378
X6.888Y-5.384
X6.9149Y-5.5431
X6.962Y-2.378
X6.98Y-2.584
X6.984Y-2.622
X6.9891Y-5.5431
X7.01Y-2.442
X7.088Y-5.362
X7.134Y-5.358
X7.284Y-2.626
X7.316Y-2.612
X7.32Y-5.468
X7.3231Y-5.5431
X7.336Y-2.442
X7.34Y-2.378
X7.364Y-5.33
X7.444Y-3.142
X7.444Y-4.132
X7.446Y-4.02
X7.45Y-2.82
X7.464Y-5.24
X7.468Y-4.548
X7.468Y-4.836
X7.478Y-4.384
X7.48Y-3.81
X7.486Y-4.98
X7.494Y-5.304
X7.5Y-3.448
X7.504Y-4.078
X7.505Y-3.263
X7.51Y-4.462
X7.514Y-4.834
X7.52Y-2.378
X7.5209Y-5.5431
X7.54Y-4.172
X7.55Y-2.442
X7.558Y-4.674
X7.562Y-3.522
X7.57Y-5.052
X7.584Y-3.896
X7.586Y-3.95
X7.586Y-4.024
X7.59Y-4.432
X7.604Y-5.254
X7.606Y-2.598
X7.608Y-2.956
X7.614Y-3.842
X7.616Y-4.728
X7.626Y-3.518
X7.64Y-3.326
X7.646Y-4.982
X7.652Y-4.508
X7.664Y-4.062
X7.666Y-3.842
X7.6706Y-4.866
X7.674Y-4.344
X7.674Y-4.666
X7.676Y-5.456
X7.684Y-2.714
X7.704Y-5.342
X7.732Y-3.844
X7.734Y-2.576
X7.736Y-4.062
X7.778Y-2.578
X7.78Y-4.872
X7.784Y-3.842
X7.792Y-2.762
X7.8Y-4.416
X7.8Y-5.006
X7.804Y-4.108
X7.806Y-3.646
X7.81Y-3.952
X7.81Y-4.028
X7.812Y-3.88
X7.836Y-5.441
X7.842Y-5.542
X7.8492Y-2.7072
X7.85Y-2.378
X7.854Y-4.178
X7.856Y-2.442
X7.856Y-3.73
X7.886Y-2.7072
X7.902Y-4.36
X7.902Y-4.536
X7.92Y-3.948
X7.924Y-4.004
X7.928Y-3.856
X7.93Y-2.896
X7.938Y-5.5
X7.94Y-5.106
X7.942Y-2.706
X7.952Y-4.168
X7.962Y-5.004
X7.98Y-3.114
X7.986Y-4.118
X8.016Y-3.744
X8.028Y-4.038
X8.036Y-2.378
X8.044Y-2.838
X8.052Y-5.542
X8.066Y-4.326
X8.082Y-3.052
X8.082Y-3.522
X8.092Y-3.416
X8.092Y-3.486
X8.109Y-2.537
X8.114Y-2.578
X8.114Y-2.66
X8.114Y-5.162
X8.12Y-4.956
X8.154Y-4.154
X8.154Y-5.48
X8.17Y-3.596
X8.18Y-4.634
X8.192Y-3.56
X8.198Y-4.12
X8.2Y-3.962
X8.25Y-4.408
X8.258Y-4.26
X8.258Y-4.304
X8.3Y-3.376
X8.316Y-3.61
X8.32Y-4.948
X8.324Y-3.538
X8.332Y-4.49
X8.354Y-4.132
X8.362Y-2.97
X8.362Y-3.244
X8.372Y-5.542
X8.376Y-5.162
X8.38Y-5.466
X8.388Y-3.766
X8.392Y-2.378
X8.396Y-2.442
X8.46Y-3.914
X8.46Y-4.926
X8.474Y-3.652
X8.476Y-3.538
X8.478Y-3.49
X8.482Y-4.662
X8.504Y-4.61
X8.51Y-5.1607
X8.55Y-3.384
X8.564Y-2.378
X8.572Y-3.512
X8.574Y-4.364
X8.578Y-5.542
X8.5847Y-4.324
X8.5926Y-3.544
X8.598Y-2.678
X8.6065Y-4.3766
X8.624Y-2.442
X8.644Y-5.158
X8.65Y-3.832
X8.668Y-3.964
X8.68Y-4.824
X8.68Y-5.48
X8.682Y-4.926
X8.714Y-4.5436
X8.718Y-3.832
X8.72Y-3.912
X8.728Y-4.762
X8.744Y-4.52
X8.746Y-3.214
X8.78Y-5.312
X8.788Y-5.456
X8.82Y-4.762
X8.852Y-3.754
X8.888Y-2.442
X8.898Y-2.998
X8.902Y-2.378
X8.922Y-5.542
X8.93Y-5.464
X8.94Y-4.196
X8.944Y-4.882
X8.968Y-3.548
X8.978Y-4.1
X9.012Y-5.242
X9.02Y-2.654
X9.074Y-2.378
X9.106Y-5.542
X9.18Y-2.486
X9.18Y-2.774
X9.18Y-3.022
X9.18Y-3.306
X9.18Y-3.538
X9.18Y-3.838
X9.18Y-4.07
X9.18Y-4.374
X9.18Y-4.58
X9.18Y-4.892
X9.18Y-5.27
X9.18Y-5.312
X9.18Y-5.402
X9.244Y-2.77
X9.244Y-2.952
X9.244Y-3.298
X9.244Y-3.484
X9.244Y-3.832
X9.244Y-4.002
X9.244Y-4.368
X9.244Y-4.528
X9.244Y-4.884
X9.244Y-5.038
X9.244Y-5.316
T3
X3.26Y-2.658
X8.962Y-5.356
T2
G00X5.6259Y-5.3601
M15
G01X5.6259Y-5.4034
M16
G05
G00X5.6259Y-5.5345
M15
G01X5.6259Y-5.5582
M16
G05
G00X5.9661Y-5.3601
M15
G01X5.9661Y-5.4034
M16
G05
G00X5.9661Y-5.5345
M15
G01X5.9661Y-5.5582
M16
G05
T0
M30
