%TF.GenerationSoftware,KiCad,Pcbnew,(6.0.6-0)*%
%TF.CreationDate,2022-08-06T22:16:54+02:00*%
%TF.ProjectId,GlowSignMainPCB,476c6f77-5369-4676-9e4d-61696e504342,rev?*%
%TF.SameCoordinates,Original*%
%TF.FileFunction,Soldermask,Top*%
%TF.FilePolarity,Negative*%
%FSLAX46Y46*%
G04 Gerber Fmt 4.6, Leading zero omitted, Abs format (unit mm)*
G04 Created by KiCad (PCBNEW (6.0.6-0)) date 2022-08-06 22:16:54*
%MOMM*%
%LPD*%
G01*
G04 APERTURE LIST*
G04 Aperture macros list*
%AMRoundRect*
0 Rectangle with rounded corners*
0 $1 Rounding radius*
0 $2 $3 $4 $5 $6 $7 $8 $9 X,Y pos of 4 corners*
0 Add a 4 corners polygon primitive as box body*
4,1,4,$2,$3,$4,$5,$6,$7,$8,$9,$2,$3,0*
0 Add four circle primitives for the rounded corners*
1,1,$1+$1,$2,$3*
1,1,$1+$1,$4,$5*
1,1,$1+$1,$6,$7*
1,1,$1+$1,$8,$9*
0 Add four rect primitives between the rounded corners*
20,1,$1+$1,$2,$3,$4,$5,0*
20,1,$1+$1,$4,$5,$6,$7,0*
20,1,$1+$1,$6,$7,$8,$9,0*
20,1,$1+$1,$8,$9,$2,$3,0*%
%AMFreePoly0*
4,1,22,0.500000,-0.750000,0.000000,-0.750000,0.000000,-0.745033,-0.079941,-0.743568,-0.215256,-0.701293,-0.333266,-0.622738,-0.424486,-0.514219,-0.481581,-0.384460,-0.499164,-0.250000,-0.500000,-0.250000,-0.500000,0.250000,-0.499164,0.250000,-0.499963,0.256109,-0.478152,0.396186,-0.417904,0.524511,-0.324060,0.630769,-0.204165,0.706417,-0.067858,0.745374,0.000000,0.744959,0.000000,0.750000,
0.500000,0.750000,0.500000,-0.750000,0.500000,-0.750000,$1*%
%AMFreePoly1*
4,1,20,0.000000,0.744959,0.073905,0.744508,0.209726,0.703889,0.328688,0.626782,0.421226,0.519385,0.479903,0.390333,0.500000,0.250000,0.500000,-0.250000,0.499851,-0.262216,0.476331,-0.402017,0.414519,-0.529596,0.319384,-0.634700,0.198574,-0.708877,0.061801,-0.746166,0.000000,-0.745033,0.000000,-0.750000,-0.500000,-0.750000,-0.500000,0.750000,0.000000,0.750000,0.000000,0.744959,
0.000000,0.744959,$1*%
G04 Aperture macros list end*
%ADD10RoundRect,0.237500X-0.237500X0.300000X-0.237500X-0.300000X0.237500X-0.300000X0.237500X0.300000X0*%
%ADD11RoundRect,0.237500X-0.250000X-0.237500X0.250000X-0.237500X0.250000X0.237500X-0.250000X0.237500X0*%
%ADD12RoundRect,0.250000X0.650000X-0.412500X0.650000X0.412500X-0.650000X0.412500X-0.650000X-0.412500X0*%
%ADD13R,0.900000X2.000000*%
%ADD14R,2.000000X0.900000*%
%ADD15R,1.330000X1.330000*%
%ADD16RoundRect,0.237500X0.237500X-0.250000X0.237500X0.250000X-0.237500X0.250000X-0.237500X-0.250000X0*%
%ADD17R,1.500000X1.000000*%
%ADD18RoundRect,0.237500X0.237500X-0.300000X0.237500X0.300000X-0.237500X0.300000X-0.237500X-0.300000X0*%
%ADD19RoundRect,0.237500X-0.300000X-0.237500X0.300000X-0.237500X0.300000X0.237500X-0.300000X0.237500X0*%
%ADD20R,2.046380X1.620015*%
%ADD21RoundRect,0.237500X-0.237500X0.250000X-0.237500X-0.250000X0.237500X-0.250000X0.237500X0.250000X0*%
%ADD22RoundRect,0.250000X-0.400000X-1.450000X0.400000X-1.450000X0.400000X1.450000X-0.400000X1.450000X0*%
%ADD23RoundRect,0.250000X0.400000X1.450000X-0.400000X1.450000X-0.400000X-1.450000X0.400000X-1.450000X0*%
%ADD24R,1.000000X1.500000*%
%ADD25R,0.419990X1.300000*%
%ADD26C,0.700025*%
%ADD27R,0.900000X1.200000*%
%ADD28R,1.200000X1.300000*%
%ADD29RoundRect,0.237500X0.250000X0.237500X-0.250000X0.237500X-0.250000X-0.237500X0.250000X-0.237500X0*%
%ADD30O,1.800000X0.600000*%
%ADD31R,2.289992X2.289992*%
%ADD32RoundRect,0.237500X0.300000X0.237500X-0.300000X0.237500X-0.300000X-0.237500X0.300000X-0.237500X0*%
%ADD33R,0.600000X1.070003*%
%ADD34R,0.280010X0.900000*%
%ADD35R,0.900000X0.280010*%
%ADD36R,3.300000X3.300000*%
%ADD37C,1.500000*%
%ADD38R,1.200000X0.600000*%
%ADD39R,2.500000X3.499873*%
%ADD40O,0.750013X0.250013*%
%ADD41FreePoly0,270.000000*%
%ADD42FreePoly1,270.000000*%
%ADD43R,0.700000X1.250013*%
%ADD44R,0.980010X2.470003*%
%ADD45R,3.600000X2.470003*%
%ADD46R,1.500000X0.900000*%
%ADD47R,0.419990X0.600000*%
%ADD48R,0.600000X1.300000*%
%ADD49R,0.300000X1.300000*%
%ADD50O,1.200000X1.800000*%
%ADD51O,1.200000X2.200000*%
%ADD52R,0.532004X1.072009*%
%ADD53RoundRect,0.250000X-0.650000X0.412500X-0.650000X-0.412500X0.650000X-0.412500X0.650000X0.412500X0*%
%ADD54R,0.550013X1.000000*%
%ADD55R,1.050013X0.550013*%
%ADD56R,0.450013X1.400000*%
%ADD57R,2.400000X0.450013*%
%ADD58R,1.037490X0.532004*%
%ADD59R,2.124003X4.220015*%
%ADD60R,2.100000X3.000000*%
%ADD61R,0.800000X1.600000*%
%ADD62C,1.300000*%
%ADD63C,0.600000*%
G04 APERTURE END LIST*
D10*
%TO.C,C30*%
X155651200Y-60605500D03*
X155651200Y-62330500D03*
%TD*%
D11*
%TO.C,R22*%
X174347500Y-68427600D03*
X176172500Y-68427600D03*
%TD*%
D10*
%TO.C,C24*%
X224688400Y-60605500D03*
X224688400Y-62330500D03*
%TD*%
D12*
%TO.C,C56*%
X211328000Y-129832500D03*
X211328000Y-126707500D03*
%TD*%
D13*
%TO.C,U4*%
X188065900Y-107922500D03*
X189335900Y-107922500D03*
X190605900Y-107922500D03*
X191875900Y-107922500D03*
X193145900Y-107922500D03*
X194415900Y-107922500D03*
X195685900Y-107922500D03*
X196955900Y-107922500D03*
X198225900Y-107922500D03*
X199495900Y-107922500D03*
X200765900Y-107922500D03*
X202035900Y-107922500D03*
X203305900Y-107922500D03*
X204575900Y-107922500D03*
D14*
X205575900Y-105137500D03*
X205575900Y-103867500D03*
X205575900Y-102597500D03*
X205575900Y-101327500D03*
X205575900Y-100057500D03*
X205575900Y-98787500D03*
X205575900Y-97517500D03*
X205575900Y-96247500D03*
X205575900Y-94977500D03*
X205575900Y-93707500D03*
D13*
X204575900Y-90922500D03*
X203305900Y-90922500D03*
X202035900Y-90922500D03*
X200765900Y-90922500D03*
X199495900Y-90922500D03*
X198225900Y-90922500D03*
X196955900Y-90922500D03*
X195685900Y-90922500D03*
X194415900Y-90922500D03*
X193145900Y-90922500D03*
X191875900Y-90922500D03*
X190605900Y-90922500D03*
X189335900Y-90922500D03*
X188065900Y-90922500D03*
D15*
X193730900Y-102257500D03*
X195565900Y-100422500D03*
X193730900Y-98587500D03*
X197400900Y-102257500D03*
X197400900Y-98587500D03*
X197400900Y-100422500D03*
X195565900Y-102257500D03*
X193730900Y-100422500D03*
X195565900Y-98587500D03*
%TD*%
D16*
%TO.C,R14*%
X210989106Y-72077101D03*
X210989106Y-70252101D03*
%TD*%
D17*
%TO.C,D17*%
X108482750Y-60961100D03*
X108482750Y-64161100D03*
X113382750Y-64161100D03*
X113382750Y-60961100D03*
%TD*%
%TO.C,D11*%
X188819450Y-60961100D03*
X188819450Y-64161100D03*
X193719450Y-64161100D03*
X193719450Y-60961100D03*
%TD*%
D18*
%TO.C,C47*%
X167894000Y-140460900D03*
X167894000Y-138735900D03*
%TD*%
D19*
%TO.C,C54*%
X224622720Y-124496537D03*
X226347720Y-124496537D03*
%TD*%
D20*
%TO.C,U6*%
X188696631Y-69697600D03*
X183565820Y-69697600D03*
%TD*%
D10*
%TO.C,C25*%
X211531200Y-60605500D03*
X211531200Y-62330500D03*
%TD*%
D21*
%TO.C,R16*%
X190334213Y-71629900D03*
X190334213Y-73454900D03*
%TD*%
D22*
%TO.C,F2*%
X152461000Y-67362700D03*
X156911000Y-67362700D03*
%TD*%
D17*
%TO.C,D14*%
X148651100Y-60961100D03*
X148651100Y-64161100D03*
X153551100Y-64161100D03*
X153551100Y-60961100D03*
%TD*%
D11*
%TO.C,R19*%
X213920700Y-119684800D03*
X215745700Y-119684800D03*
%TD*%
D17*
%TO.C,D8*%
X228987800Y-60961100D03*
X228987800Y-64161100D03*
X233887800Y-64161100D03*
X233887800Y-60961100D03*
%TD*%
D23*
%TO.C,F1*%
X149545000Y-131876800D03*
X145095000Y-131876800D03*
%TD*%
D24*
%TO.C,D3*%
X233910800Y-127056100D03*
X230710800Y-127056100D03*
X230710800Y-131956100D03*
X233910800Y-131956100D03*
%TD*%
D25*
%TO.C,D28*%
X95956244Y-138494400D03*
X96806130Y-138494400D03*
X97656270Y-138494400D03*
X98506156Y-138494400D03*
%TD*%
D26*
%TO.C,SW3*%
X157493460Y-139475768D03*
X159193486Y-139475768D03*
D27*
X160643575Y-139475768D03*
X156043625Y-139475768D03*
D28*
X160018479Y-137925857D03*
X156668467Y-137925857D03*
%TD*%
D17*
%TO.C,D18*%
X95093300Y-60961100D03*
X95093300Y-64161100D03*
X99993300Y-64161100D03*
X99993300Y-60961100D03*
%TD*%
D21*
%TO.C,R2*%
X140817600Y-136044300D03*
X140817600Y-137869300D03*
%TD*%
D29*
%TO.C,R20*%
X216202900Y-131978400D03*
X214377900Y-131978400D03*
%TD*%
D30*
%TO.C,U5*%
X166737437Y-66443202D03*
X166737437Y-67713205D03*
X166737437Y-68983207D03*
X166737437Y-70253210D03*
X172282269Y-70253210D03*
X172282269Y-68983207D03*
X172282269Y-67713205D03*
X172282269Y-66443202D03*
D31*
X169509853Y-68348206D03*
%TD*%
D19*
%TO.C,C41*%
X68122800Y-135229600D03*
X69847800Y-135229600D03*
%TD*%
D10*
%TO.C,C7*%
X208280000Y-101499500D03*
X208280000Y-103224500D03*
%TD*%
D17*
%TO.C,D20*%
X68314400Y-60961100D03*
X68314400Y-64161100D03*
X73214400Y-64161100D03*
X73214400Y-60961100D03*
%TD*%
D29*
%TO.C,R18*%
X219657300Y-131978400D03*
X217832300Y-131978400D03*
%TD*%
D19*
%TO.C,C37*%
X68122800Y-82270600D03*
X69847800Y-82270600D03*
%TD*%
D32*
%TO.C,C12*%
X157021700Y-70104000D03*
X155296700Y-70104000D03*
%TD*%
D17*
%TO.C,D12*%
X175430000Y-60961100D03*
X175430000Y-64161100D03*
X180330000Y-64161100D03*
X180330000Y-60961100D03*
%TD*%
D11*
%TO.C,R17*%
X174345600Y-66903600D03*
X176170600Y-66903600D03*
%TD*%
D33*
%TO.C,U12*%
X215783162Y-121446923D03*
X213883238Y-121446923D03*
X214833200Y-123917077D03*
%TD*%
D34*
%TO.C,U7*%
X220951930Y-113170479D03*
X221452311Y-113170479D03*
X221952692Y-113170479D03*
X222453073Y-113170479D03*
X222953454Y-113170479D03*
X223453835Y-113170479D03*
X223954216Y-113170479D03*
D35*
X224953200Y-112171749D03*
X224953200Y-111671368D03*
X224953200Y-111170987D03*
X224953200Y-110670606D03*
X224953200Y-110170225D03*
X224953200Y-109669844D03*
X224953200Y-109169463D03*
D34*
X223954216Y-108170479D03*
X223453835Y-108170479D03*
X222953454Y-108170479D03*
X222453073Y-108170479D03*
X221952692Y-108170479D03*
X221452311Y-108170479D03*
X220951930Y-108170479D03*
D35*
X219953200Y-109169463D03*
X219953200Y-109669844D03*
X219953200Y-110170225D03*
X219953200Y-110670606D03*
X219953200Y-111170987D03*
X219953200Y-111671368D03*
X219953200Y-112171749D03*
D36*
X222453073Y-110670606D03*
%TD*%
D17*
%TO.C,D10*%
X202208900Y-60961100D03*
X202208900Y-64161100D03*
X207108900Y-64161100D03*
X207108900Y-60961100D03*
%TD*%
D24*
%TO.C,D5*%
X233910800Y-100278100D03*
X230710800Y-100278100D03*
X230710800Y-105178100D03*
X233910800Y-105178100D03*
%TD*%
D37*
%TO.C,TP1*%
X191973200Y-134366000D03*
%TD*%
D10*
%TO.C,C31*%
X131114800Y-60605500D03*
X131114800Y-62330500D03*
%TD*%
D11*
%TO.C,R12*%
X188608913Y-78587600D03*
X190433913Y-78587600D03*
%TD*%
D19*
%TO.C,C39*%
X68122800Y-109347000D03*
X69847800Y-109347000D03*
%TD*%
D18*
%TO.C,C46*%
X131166700Y-140460900D03*
X131166700Y-138735900D03*
%TD*%
D38*
%TO.C,U10*%
X209067412Y-72999605D03*
X209067412Y-71729602D03*
X209067412Y-70459600D03*
X209067412Y-69189597D03*
X203250800Y-69189597D03*
X203250800Y-70459600D03*
X203250800Y-71729602D03*
X203250800Y-72999605D03*
D39*
X206159106Y-71094601D03*
%TD*%
D37*
%TO.C,TP4*%
X186029600Y-134366000D03*
%TD*%
D40*
%TO.C,U3*%
X224434400Y-123021600D03*
X224434400Y-122521473D03*
X224434400Y-122021600D03*
X224434400Y-121521473D03*
X221334578Y-121521473D03*
X221334578Y-122021600D03*
X221334578Y-122521473D03*
X221334578Y-123021600D03*
%TD*%
D24*
%TO.C,D24*%
X68464400Y-118567100D03*
X71664400Y-118567100D03*
X71664400Y-113667100D03*
X68464400Y-113667100D03*
%TD*%
D19*
%TO.C,C36*%
X68122800Y-68732400D03*
X69847800Y-68732400D03*
%TD*%
D10*
%TO.C,C26*%
X197916800Y-60605500D03*
X197916800Y-62330500D03*
%TD*%
D25*
%TO.C,D34*%
X190190244Y-138494400D03*
X191040130Y-138494400D03*
X191890270Y-138494400D03*
X192740156Y-138494400D03*
%TD*%
%TO.C,D26*%
X69032244Y-138494400D03*
X69882130Y-138494400D03*
X70732270Y-138494400D03*
X71582156Y-138494400D03*
%TD*%
D41*
%TO.C,JP2*%
X206400400Y-134173200D03*
D42*
X206400400Y-135473200D03*
%TD*%
D18*
%TO.C,C48*%
X174701200Y-140460900D03*
X174701200Y-138735900D03*
%TD*%
D25*
%TO.C,D32*%
X163266244Y-138494400D03*
X164116130Y-138494400D03*
X164966270Y-138494400D03*
X165816156Y-138494400D03*
%TD*%
D43*
%TO.C,U16*%
X212785962Y-133924800D03*
X210886038Y-133924800D03*
X211836000Y-135924800D03*
%TD*%
D20*
%TO.C,U15*%
X188696631Y-66700425D03*
X183565820Y-66700425D03*
%TD*%
D44*
%TO.C,U18*%
X215304375Y-97564850D03*
X213004400Y-97564850D03*
X210704425Y-97564850D03*
D45*
X213004400Y-103234650D03*
%TD*%
D16*
%TO.C,R11*%
X151545405Y-132484500D03*
X151545405Y-130659500D03*
%TD*%
D18*
%TO.C,C44*%
X103861150Y-140460900D03*
X103861150Y-138735900D03*
%TD*%
D24*
%TO.C,D23*%
X68464400Y-105178100D03*
X71664400Y-105178100D03*
X71664400Y-100278100D03*
X68464400Y-100278100D03*
%TD*%
D12*
%TO.C,C3*%
X218236800Y-129832500D03*
X218236800Y-126707500D03*
%TD*%
D17*
%TO.C,D15*%
X135261650Y-60961100D03*
X135261650Y-64161100D03*
X140161650Y-64161100D03*
X140161650Y-60961100D03*
%TD*%
D19*
%TO.C,C38*%
X68122800Y-95808800D03*
X69847800Y-95808800D03*
%TD*%
%TO.C,C40*%
X68122800Y-122885200D03*
X69847800Y-122885200D03*
%TD*%
D25*
%TO.C,D37*%
X230576244Y-138494400D03*
X231426130Y-138494400D03*
X232276270Y-138494400D03*
X233126156Y-138494400D03*
%TD*%
D46*
%TO.C,SW1*%
X222839276Y-97801936D03*
X226639124Y-97801936D03*
X226639124Y-99302064D03*
X222839276Y-99302064D03*
%TD*%
D29*
%TO.C,R8*%
X151991700Y-70307200D03*
X150166700Y-70307200D03*
%TD*%
D25*
%TO.C,D33*%
X176728244Y-138494400D03*
X177578130Y-138494400D03*
X178428270Y-138494400D03*
X179278156Y-138494400D03*
%TD*%
D24*
%TO.C,D4*%
X233910800Y-113667100D03*
X230710800Y-113667100D03*
X230710800Y-118567100D03*
X233910800Y-118567100D03*
%TD*%
D32*
%TO.C,C19*%
X234288500Y-122885200D03*
X232563500Y-122885200D03*
%TD*%
D10*
%TO.C,C32*%
X117703600Y-60605500D03*
X117703600Y-62330500D03*
%TD*%
D19*
%TO.C,C14*%
X203226606Y-67594601D03*
X204951606Y-67594601D03*
%TD*%
D17*
%TO.C,D19*%
X81703850Y-60961100D03*
X81703850Y-64161100D03*
X86603850Y-64161100D03*
X86603850Y-60961100D03*
%TD*%
D10*
%TO.C,C34*%
X90982800Y-60605500D03*
X90982800Y-62330500D03*
%TD*%
D20*
%TO.C,U17*%
X171475431Y-131876825D03*
X166344620Y-131876825D03*
%TD*%
D29*
%TO.C,R9*%
X142136500Y-70510400D03*
X140311500Y-70510400D03*
%TD*%
D18*
%TO.C,C49*%
X184823100Y-140460900D03*
X184823100Y-138735900D03*
%TD*%
D17*
%TO.C,D16*%
X121872200Y-60961100D03*
X121872200Y-64161100D03*
X126772200Y-64161100D03*
X126772200Y-60961100D03*
%TD*%
D32*
%TO.C,C53*%
X192022900Y-119938800D03*
X190297900Y-119938800D03*
%TD*%
D25*
%TO.C,D29*%
X109418244Y-138494400D03*
X110268130Y-138494400D03*
X111118270Y-138494400D03*
X111968156Y-138494400D03*
%TD*%
D47*
%TO.C,U8*%
X216043010Y-111749633D03*
X216692997Y-111749633D03*
X217342984Y-111749633D03*
X217342984Y-109849709D03*
X216692997Y-109849709D03*
X216043010Y-109849709D03*
%TD*%
D26*
%TO.C,USB1*%
X144328382Y-137197455D03*
X150108418Y-137197455D03*
D48*
X144018502Y-135954884D03*
X144818349Y-135954884D03*
D49*
X145968464Y-135954884D03*
X146968464Y-135954884D03*
X147468336Y-135954884D03*
X148468336Y-135954884D03*
D48*
X150418298Y-135954884D03*
X149618451Y-135954884D03*
D49*
X148968464Y-135954884D03*
X147968464Y-135954884D03*
X146468336Y-135954884D03*
X145468336Y-135954884D03*
D50*
X151538441Y-140877414D03*
D51*
X142898359Y-136697328D03*
D50*
X142898359Y-140877414D03*
D51*
X151538441Y-136697328D03*
%TD*%
D25*
%TO.C,D36*%
X217114244Y-138494400D03*
X217964130Y-138494400D03*
X218814270Y-138494400D03*
X219664156Y-138494400D03*
%TD*%
D10*
%TO.C,C15*%
X197878706Y-66767501D03*
X197878706Y-68492501D03*
%TD*%
D37*
%TO.C,TP7*%
X179730400Y-134366000D03*
%TD*%
%TO.C,TP8*%
X176936400Y-134366000D03*
%TD*%
D19*
%TO.C,C16*%
X171806700Y-64871600D03*
X173531700Y-64871600D03*
%TD*%
D17*
%TO.C,D9*%
X215598350Y-60961100D03*
X215598350Y-64161100D03*
X220498350Y-64161100D03*
X220498350Y-60961100D03*
%TD*%
D37*
%TO.C,TP2*%
X194970400Y-134366000D03*
%TD*%
D24*
%TO.C,D7*%
X233910800Y-73500100D03*
X230710800Y-73500100D03*
X230710800Y-78400100D03*
X233910800Y-78400100D03*
%TD*%
D18*
%TO.C,C42*%
X76555600Y-140460900D03*
X76555600Y-138735900D03*
%TD*%
D11*
%TO.C,R1*%
X226452320Y-122515337D03*
X228277320Y-122515337D03*
%TD*%
D32*
%TO.C,C22*%
X234288500Y-82270600D03*
X232563500Y-82270600D03*
%TD*%
D21*
%TO.C,R3*%
X153670000Y-135739500D03*
X153670000Y-137564500D03*
%TD*%
D32*
%TO.C,C20*%
X234288500Y-109347000D03*
X232563500Y-109347000D03*
%TD*%
D10*
%TO.C,C29*%
X159969200Y-60605500D03*
X159969200Y-62330500D03*
%TD*%
D24*
%TO.C,D25*%
X68464400Y-131956100D03*
X71664400Y-131956100D03*
X71664400Y-127056100D03*
X68464400Y-127056100D03*
%TD*%
%TO.C,D22*%
X68464400Y-91789100D03*
X71664400Y-91789100D03*
X71664400Y-86889100D03*
X68464400Y-86889100D03*
%TD*%
D43*
%TO.C,U14*%
X216265762Y-133924800D03*
X214365838Y-133924800D03*
X215315800Y-135924800D03*
%TD*%
D25*
%TO.C,D35*%
X203652244Y-138494400D03*
X204502130Y-138494400D03*
X205352270Y-138494400D03*
X206202156Y-138494400D03*
%TD*%
D20*
%TO.C,U2*%
X171323031Y-135229625D03*
X166192220Y-135229625D03*
%TD*%
D24*
%TO.C,D6*%
X233910800Y-86889100D03*
X230710800Y-86889100D03*
X230710800Y-91789100D03*
X233910800Y-91789100D03*
%TD*%
D10*
%TO.C,C28*%
X170942000Y-60605500D03*
X170942000Y-62330500D03*
%TD*%
D52*
%TO.C,U11*%
X201399468Y-72405103D03*
X200449506Y-72405103D03*
X199499544Y-72405103D03*
X199499544Y-74703299D03*
X200449506Y-74703299D03*
X201399468Y-74703299D03*
%TD*%
D32*
%TO.C,C11*%
X204993606Y-74822201D03*
X203268606Y-74822201D03*
%TD*%
D29*
%TO.C,R6*%
X191729550Y-114554000D03*
X189904550Y-114554000D03*
%TD*%
D10*
%TO.C,C27*%
X184454800Y-60605500D03*
X184454800Y-62330500D03*
%TD*%
D18*
%TO.C,C45*%
X117513925Y-140460900D03*
X117513925Y-138735900D03*
%TD*%
D32*
%TO.C,C4*%
X225835497Y-117250530D03*
X224110497Y-117250530D03*
%TD*%
D53*
%TO.C,C17*%
X178968400Y-66661900D03*
X178968400Y-69786900D03*
%TD*%
D37*
%TO.C,TP6*%
X182473600Y-134366000D03*
%TD*%
D21*
%TO.C,R10*%
X153568400Y-130659500D03*
X153568400Y-132484500D03*
%TD*%
D29*
%TO.C,R21*%
X212748500Y-131978400D03*
X210923500Y-131978400D03*
%TD*%
D18*
%TO.C,C52*%
X225501200Y-140460900D03*
X225501200Y-138735900D03*
%TD*%
D32*
%TO.C,C2*%
X221523620Y-124445737D03*
X219798620Y-124445737D03*
%TD*%
D10*
%TO.C,C33*%
X104089200Y-60605500D03*
X104089200Y-62330500D03*
%TD*%
D54*
%TO.C,U9*%
X201419366Y-67764150D03*
X200469404Y-67764150D03*
X199519442Y-67764150D03*
X199519442Y-70564252D03*
X200469404Y-70564252D03*
X201419366Y-70564252D03*
%TD*%
D55*
%TO.C,U20*%
X191450517Y-125453255D03*
X192800784Y-125453255D03*
X192800784Y-124603369D03*
X191450517Y-124603369D03*
D56*
X190400733Y-125028312D03*
D57*
X192125651Y-126253357D03*
D56*
X193850568Y-125028312D03*
D57*
X192125651Y-123803268D03*
%TD*%
D43*
%TO.C,U13*%
X219745562Y-133924800D03*
X217845638Y-133924800D03*
X218795600Y-135924800D03*
%TD*%
D32*
%TO.C,C8*%
X191679550Y-112534000D03*
X189954550Y-112534000D03*
%TD*%
D10*
%TO.C,C35*%
X77571600Y-60605500D03*
X77571600Y-62330500D03*
%TD*%
D25*
%TO.C,D27*%
X82494244Y-138494400D03*
X83344130Y-138494400D03*
X84194270Y-138494400D03*
X85044156Y-138494400D03*
%TD*%
D58*
%TO.C,U1*%
X190419559Y-76997562D03*
X190419559Y-75097638D03*
X188216867Y-76047600D03*
%TD*%
D41*
%TO.C,JP1*%
X204368400Y-134162800D03*
D42*
X204368400Y-135462800D03*
%TD*%
D17*
%TO.C,D13*%
X162040550Y-60961100D03*
X162040550Y-64161100D03*
X166940550Y-64161100D03*
X166940550Y-60961100D03*
%TD*%
D24*
%TO.C,D21*%
X68464400Y-78400100D03*
X71664400Y-78400100D03*
X71664400Y-73500100D03*
X68464400Y-73500100D03*
%TD*%
D19*
%TO.C,C6*%
X224110497Y-115150530D03*
X225835497Y-115150530D03*
%TD*%
%TO.C,C1*%
X188108550Y-110510400D03*
X189833550Y-110510400D03*
%TD*%
D25*
%TO.C,D30*%
X122880244Y-138494400D03*
X123730130Y-138494400D03*
X124580270Y-138494400D03*
X125430156Y-138494400D03*
%TD*%
D21*
%TO.C,R13*%
X197878706Y-71086301D03*
X197878706Y-72911301D03*
%TD*%
D18*
%TO.C,C50*%
X198196200Y-140460900D03*
X198196200Y-138735900D03*
%TD*%
D37*
%TO.C,TP5*%
X188766800Y-134366000D03*
%TD*%
D25*
%TO.C,D31*%
X136342244Y-138494400D03*
X137192130Y-138494400D03*
X138042270Y-138494400D03*
X138892156Y-138494400D03*
%TD*%
D32*
%TO.C,C18*%
X234288500Y-135890000D03*
X232563500Y-135890000D03*
%TD*%
D21*
%TO.C,R15*%
X196163850Y-66727701D03*
X196163850Y-68552701D03*
%TD*%
D11*
%TO.C,R7*%
X204624300Y-85742400D03*
X206449300Y-85742400D03*
%TD*%
D32*
%TO.C,C10*%
X192022900Y-121718800D03*
X190297900Y-121718800D03*
%TD*%
D29*
%TO.C,R5*%
X206449300Y-83652400D03*
X204624300Y-83652400D03*
%TD*%
D10*
%TO.C,C13*%
X192061413Y-73407100D03*
X192061413Y-75132100D03*
%TD*%
D19*
%TO.C,C9*%
X204674300Y-87782400D03*
X206399300Y-87782400D03*
%TD*%
D59*
%TO.C,L1*%
X159137600Y-68173600D03*
X163137600Y-68173600D03*
%TD*%
D29*
%TO.C,R4*%
X191729550Y-116574000D03*
X189904550Y-116574000D03*
%TD*%
D18*
%TO.C,C5*%
X208280000Y-99668500D03*
X208280000Y-97943500D03*
%TD*%
D12*
%TO.C,C55*%
X214782400Y-129832500D03*
X214782400Y-126707500D03*
%TD*%
D18*
%TO.C,C51*%
X211569300Y-140460900D03*
X211569300Y-138735900D03*
%TD*%
D60*
%TO.C,U26*%
X141300194Y-67342191D03*
X147650206Y-67342191D03*
D61*
X145100295Y-70242115D03*
X143850105Y-70242115D03*
%TD*%
D46*
%TO.C,SW2*%
X222890076Y-103569264D03*
X226689924Y-103569264D03*
X222890076Y-102069136D03*
X226689924Y-102069136D03*
%TD*%
D29*
%TO.C,R23*%
X176170600Y-69953500D03*
X174345600Y-69953500D03*
%TD*%
D18*
%TO.C,C43*%
X90208375Y-140460900D03*
X90208375Y-138735900D03*
%TD*%
D32*
%TO.C,C23*%
X234288500Y-68732400D03*
X232563500Y-68732400D03*
%TD*%
%TO.C,C21*%
X234288500Y-95808800D03*
X232563500Y-95808800D03*
%TD*%
D62*
X82804000Y-67513200D03*
X227634800Y-136042400D03*
D63*
X167944800Y-136753600D03*
X198374000Y-102311200D03*
X207111600Y-139192000D03*
X69138800Y-115824000D03*
X69138800Y-80924400D03*
X233172000Y-111099600D03*
X207111600Y-105511600D03*
X113131600Y-138734800D03*
X233172000Y-134924800D03*
X226009200Y-76149200D03*
X223012000Y-134924800D03*
X233172000Y-103378000D03*
X126492000Y-138734800D03*
X205536800Y-86766400D03*
X227076000Y-106578400D03*
X199491600Y-106121200D03*
X69138800Y-128879600D03*
X194716400Y-97586800D03*
X91541600Y-138734800D03*
X233172000Y-133858000D03*
X105308400Y-138785600D03*
X192684400Y-102209600D03*
X190500000Y-87579200D03*
X72593200Y-139039600D03*
X233172000Y-116332000D03*
X138226800Y-62026800D03*
X191973200Y-118719600D03*
X206095600Y-65481200D03*
X229108000Y-67411600D03*
X99314000Y-138734800D03*
X233172000Y-76758800D03*
X180035200Y-136194800D03*
X208280000Y-100634800D03*
X200304400Y-68763652D03*
X181203600Y-136093200D03*
X218389200Y-68021200D03*
X193243200Y-75082400D03*
X193395600Y-97586800D03*
X69138800Y-89306400D03*
X168452800Y-65887600D03*
X220472000Y-139192000D03*
X165862000Y-136753600D03*
X192684400Y-100330000D03*
X224028000Y-120954800D03*
X206248000Y-125882400D03*
X132130800Y-62026800D03*
X194665600Y-103174800D03*
X186334400Y-62026800D03*
X212852000Y-138836400D03*
X233172000Y-89865200D03*
X69138800Y-136144000D03*
X194056000Y-84480400D03*
X69138800Y-67411600D03*
X118872000Y-138785600D03*
X69138800Y-110896400D03*
X169316400Y-65836800D03*
X151739600Y-62026800D03*
X227787200Y-90119200D03*
X194970400Y-138582400D03*
X78130400Y-138684000D03*
X185928000Y-138887200D03*
X205968600Y-64439800D03*
X213258400Y-62026800D03*
X199542400Y-62026800D03*
X233172000Y-97485200D03*
X194919600Y-110337600D03*
X105511600Y-62026800D03*
X201269600Y-101701600D03*
X154736800Y-62026800D03*
X190754000Y-113334800D03*
X205282800Y-77520800D03*
X69138800Y-102108000D03*
X169926000Y-65176400D03*
X220522800Y-125120400D03*
X233172000Y-63144400D03*
X191770000Y-62026800D03*
X196392800Y-97637600D03*
X192633600Y-98958400D03*
X161188400Y-62026800D03*
X196494400Y-103174800D03*
X69138800Y-97434400D03*
X118821200Y-62026800D03*
X227177600Y-124002800D03*
X174955200Y-136753600D03*
X206095600Y-67564000D03*
X192278000Y-128320800D03*
X200710800Y-115214400D03*
X214884000Y-99415600D03*
X98247200Y-62026800D03*
X233172000Y-137210800D03*
X197713600Y-97586800D03*
X219710000Y-97332800D03*
X226822000Y-138785600D03*
X228041200Y-104140000D03*
X124663200Y-62026800D03*
X221691200Y-120954800D03*
X225755200Y-62026800D03*
X233172000Y-83972400D03*
X199034400Y-138201400D03*
X212394800Y-75438000D03*
X197916800Y-70154800D03*
X222148400Y-81635600D03*
X198424800Y-98552000D03*
X78790800Y-62026800D03*
X206095600Y-131114800D03*
X170027600Y-65887600D03*
X199370452Y-68763652D03*
X159918400Y-135483600D03*
X111252000Y-62026800D03*
X224840800Y-95351600D03*
X233172000Y-124256800D03*
X69138800Y-124053600D03*
X228904800Y-133146800D03*
X84429600Y-62026800D03*
X132537200Y-138785600D03*
X168859200Y-65175900D03*
X70916800Y-62026800D03*
X233172000Y-70459600D03*
X219049600Y-62026800D03*
X201168000Y-100279200D03*
X69138800Y-75285600D03*
X178054000Y-62026800D03*
X190627000Y-82880200D03*
X211328000Y-125679200D03*
X198374000Y-100380800D03*
X86106000Y-138684000D03*
X193192400Y-65989200D03*
X221437200Y-97332800D03*
X92557600Y-62026800D03*
X189687200Y-122834400D03*
X190144400Y-126492000D03*
X209550000Y-111963200D03*
X212191600Y-104952800D03*
X216001600Y-117094000D03*
X189687200Y-115519200D03*
X211226400Y-91694000D03*
X189941200Y-111353600D03*
X211632800Y-114046000D03*
X213055200Y-95656400D03*
X190347600Y-134721600D03*
X208229200Y-104648000D03*
X209753200Y-109321600D03*
X192786000Y-112572800D03*
X217170000Y-85953600D03*
X212394800Y-82397600D03*
X210820000Y-85750400D03*
X217779600Y-110845600D03*
X221488000Y-99364800D03*
X198120000Y-112166400D03*
X209753200Y-108204000D03*
X220167200Y-100685600D03*
X211429600Y-89865200D03*
X215239600Y-92760800D03*
X220472000Y-122529600D03*
X203911200Y-102565200D03*
X198120000Y-127152400D03*
X202234800Y-127101600D03*
X204876400Y-109880400D03*
X193141600Y-133451600D03*
X153720800Y-69342000D03*
X187045600Y-135382000D03*
X195173600Y-68935600D03*
X189585600Y-133096000D03*
X201726800Y-68732400D03*
X197561200Y-65481200D03*
X144018000Y-68986400D03*
X201422000Y-73558400D03*
X196443600Y-65430400D03*
X193446400Y-120091200D03*
X194919600Y-118516400D03*
X190855600Y-122783600D03*
X194360800Y-114503200D03*
X197612000Y-123748800D03*
X194832900Y-123596400D03*
X194208400Y-126542800D03*
X203606400Y-95097600D03*
X189992000Y-96774000D03*
X201371200Y-97942400D03*
X190601600Y-103581200D03*
X191516000Y-105968800D03*
X218252500Y-90017600D03*
X193700400Y-89357200D03*
X218603978Y-111166827D03*
X207518000Y-91338400D03*
X205282800Y-89458800D03*
X215290400Y-89865200D03*
X218052481Y-109829600D03*
X208076800Y-90424000D03*
X192074800Y-89458800D03*
X217728800Y-89204800D03*
X215341200Y-88646000D03*
X205536800Y-88544400D03*
X164947600Y-131876800D03*
X146608800Y-131368800D03*
X148183600Y-134772400D03*
X222097600Y-114808000D03*
X221335600Y-115407500D03*
X156260800Y-133553200D03*
X215442800Y-118414800D03*
X207772000Y-117703600D03*
X198272400Y-92608400D03*
X202844400Y-104597200D03*
X195681600Y-135686800D03*
X201676000Y-129692400D03*
X199542400Y-94742000D03*
X200710800Y-110744000D03*
X157784800Y-134152700D03*
X189128400Y-102108000D03*
X202692000Y-79095600D03*
X189077600Y-104952800D03*
X152603200Y-131284000D03*
X189077600Y-79806800D03*
X234797600Y-124053600D03*
X234797600Y-70358000D03*
X234797600Y-97332800D03*
X234797600Y-127965200D03*
X96875600Y-140766800D03*
X132435600Y-60401200D03*
X234797600Y-135026400D03*
X212648800Y-140766800D03*
X154792762Y-60372951D03*
X191008000Y-60401200D03*
X191031200Y-140794400D03*
X177522800Y-140794400D03*
X230479600Y-60401200D03*
X67462400Y-102971600D03*
X213156800Y-60401200D03*
X132283200Y-140766800D03*
X92608400Y-60401200D03*
X186006400Y-140794400D03*
X110134400Y-140766800D03*
X234797600Y-110947200D03*
X67462400Y-90068400D03*
X204520800Y-140766800D03*
X123901200Y-140766800D03*
X91440000Y-140766800D03*
X234797600Y-88493600D03*
X226618800Y-140766800D03*
X226110800Y-60401200D03*
X69850000Y-140766800D03*
X234797600Y-101650800D03*
X83362800Y-60401200D03*
X234797600Y-115011200D03*
X123901200Y-60401200D03*
X67462400Y-129692400D03*
X105105200Y-140766800D03*
X67462400Y-97180400D03*
X231292400Y-140766800D03*
X96723200Y-60401200D03*
X176834800Y-60401200D03*
X175638800Y-140794400D03*
X186436000Y-60401200D03*
X77876400Y-140766800D03*
X199186800Y-140766800D03*
X67462400Y-124053600D03*
X118973600Y-60401200D03*
X78790800Y-60401200D03*
X105511600Y-60401200D03*
X83464400Y-140766800D03*
X160731200Y-60401200D03*
X67462400Y-76962000D03*
X163271200Y-60401200D03*
X234797600Y-74980800D03*
X70053200Y-60401200D03*
X172415200Y-60401200D03*
X169085600Y-140794400D03*
X234797600Y-83769200D03*
X136956800Y-60401200D03*
X67462400Y-110845600D03*
X67462400Y-80924400D03*
X118668800Y-140766800D03*
X199390000Y-60401200D03*
X137414000Y-140766800D03*
X150164800Y-60401200D03*
X204114400Y-60401200D03*
X67462400Y-67462400D03*
X67462400Y-116535200D03*
X223215200Y-138582400D03*
X217881200Y-140766800D03*
X217525600Y-60401200D03*
X110032800Y-60401200D03*
X201625200Y-139700000D03*
X67462400Y-136601200D03*
X163677600Y-137160000D03*
X201980800Y-105867200D03*
X204317600Y-72085200D03*
X141122400Y-70459600D03*
X153060400Y-70256400D03*
X198221600Y-104343200D03*
X154736800Y-139293600D03*
X161747200Y-138328400D03*
X216154000Y-131082000D03*
X212750400Y-131114800D03*
X219557600Y-131013200D03*
X214884000Y-125120400D03*
X171551600Y-65786000D03*
X172313600Y-65836800D03*
X177292000Y-65633600D03*
X177393600Y-66598800D03*
X185013600Y-66700400D03*
X185826400Y-66344800D03*
X165506400Y-68935600D03*
X189230000Y-71628000D03*
X165049200Y-69545200D03*
X160477200Y-68935600D03*
X160934400Y-69545200D03*
M02*
